<svg width="67" height="48" viewBox="0 0 67 48" fill="none" xmlns="http://www.w3.org/2000/svg">
<g clip-path="url(#clip0_3391_196725)">
<mask id="mask0_3391_196725" style="mask-type:luminance" maskUnits="userSpaceOnUse" x="0" y="7" width="67" height="34">
<path d="M66.125 7.5H0.125V40.5H66.125V7.5Z" fill="white"/>
</mask>
<g mask="url(#mask0_3391_196725)">
<path d="M10.9153 15.6816C9.17196 15.6816 7.75586 17.0989 7.75586 18.8487C7.75586 20.5932 9.17196 22.0105 10.9153 22.0105C12.6586 22.0105 14.0798 20.5932 14.0798 18.8487C14.0747 17.0989 12.6586 15.6816 10.9153 15.6816Z" fill="#778A96"/>
<path d="M55.4894 15.6816C54.1959 15.6816 53.0866 16.4849 52.6674 17.7231L52.6367 17.8049H58.342L58.3114 17.7231C57.8922 16.4798 56.7828 15.6816 55.4894 15.6816Z" fill="#778A96"/>
<path d="M0.148438 7.5V27.9651H66.0973V7.5H0.148438ZM16.15 23.6981H14.0744V23.0177L13.9722 23.0893C13.0775 23.7391 12.0192 24.0819 10.9098 24.0819C8.02138 24.0819 5.67485 21.7335 5.67485 18.8428C5.67485 15.9521 8.02138 13.6037 10.9098 13.6037C12.0141 13.6037 13.0724 13.9465 13.9722 14.5963L14.0744 14.6679V13.9874H16.15V23.6981ZM23.159 22.0097C24.1354 22.0097 25.0352 21.5749 25.6385 20.8074L27.5198 21.7437C26.5433 23.2121 24.9176 24.087 23.159 24.087C20.2705 24.087 17.924 21.7386 17.924 18.8479C17.924 15.9572 20.2705 13.6088 23.159 13.6088C24.9227 13.6088 26.5433 14.4837 27.5198 15.9521L25.6385 16.8884C25.0352 16.1261 24.1354 15.686 23.159 15.686C21.4157 15.686 19.9996 17.1033 19.9996 18.853C19.9996 20.5874 21.4157 22.0097 23.159 22.0097ZM35.5103 23.6981L32.402 19.9582H31.1751V23.6981H29.0994V10.1093H31.1751V17.7275H32.402L35.5052 13.9874H38.2096L34.176 18.8428L38.2096 23.6981H35.5103ZM48.8279 19.8814H40.914L40.9448 19.9684C41.41 21.186 42.596 22.0097 43.8996 22.0097C44.7636 22.0097 45.5663 21.6721 46.1593 21.0581L48.0202 22.0763C47.0181 23.3553 45.5202 24.087 43.8946 24.087C41.0061 24.087 38.6595 21.7386 38.6595 18.8479C38.6595 15.9112 40.8885 13.6088 43.7361 13.6088C46.5836 13.6088 48.8177 15.9112 48.8177 18.8479V19.8814H48.8279ZM60.5658 19.8814H52.657L52.6877 19.9684C53.1529 21.186 54.339 22.0097 55.6426 22.0097C56.5066 22.0097 57.3092 21.6721 57.9022 21.0581L59.7631 22.0763C58.7611 23.3553 57.2633 24.087 55.6375 24.087C52.749 24.087 50.4025 21.7386 50.4025 18.8479C50.4025 15.9112 52.6315 13.6088 55.4841 13.6088C58.3368 13.6088 60.5607 15.9112 60.5607 18.8479V19.8814H60.5658Z" fill="#778A96"/>
<path d="M43.7472 15.6816C42.4538 15.6816 41.3445 16.4849 40.9252 17.7231L40.8945 17.8049H46.5999L46.5743 17.7231C46.15 16.4798 45.0406 15.6816 43.7472 15.6816Z" fill="#778A96"/>
<path d="M15.1584 33.875C13.3334 33.875 11.8457 35.3587 11.8457 37.1904C11.8457 39.0169 13.3282 40.5057 15.1584 40.5057C16.9836 40.5057 18.4712 39.0169 18.4712 37.1904C18.4712 35.3587 16.9886 33.875 15.1584 33.875ZM15.1584 39.1243C14.0899 39.1243 13.2209 38.2546 13.2209 37.1904C13.2209 36.1211 14.0899 35.2513 15.1584 35.2513C16.2269 35.2513 17.096 36.1211 17.096 37.1904C17.096 38.2546 16.2269 39.1243 15.1584 39.1243Z" fill="#778A96"/>
<path d="M60.9958 33.8643C60.3619 33.8643 59.7688 34.0331 59.2678 34.3503V34.1048H57.8926V36.9341V37.6247V40.2494H59.2678V36.9341C59.2678 35.9363 59.9784 35.2406 60.9958 35.2406C62.0132 35.2406 62.7238 35.9363 62.7238 36.9341V40.2494H64.099V36.9341C64.099 36.0592 63.7718 35.261 63.1788 34.6983C62.6062 34.161 61.8342 33.8643 60.9958 33.8643Z" fill="#778A96"/>
<path d="M42.2184 33.8746C41.5844 33.8746 40.9914 34.0434 40.4905 34.3606V31.6797H39.1152V36.9495V37.635V40.2597H40.4905V36.9443C40.4905 35.9467 41.2011 35.2508 42.2184 35.2508C43.2357 35.2508 43.9464 35.9467 43.9464 36.9443V40.2597H45.3216V36.9443C45.3216 36.0694 44.9944 35.2713 44.4014 34.7085C43.8288 34.1713 43.0568 33.8746 42.2184 33.8746Z" fill="#778A96"/>
<path d="M5.46122 33.8746C4.74038 33.8746 4.07066 34.1099 3.52365 34.5038V31.6797H2.14844V40.2648H3.52365V39.8811C4.07066 40.275 4.73527 40.5103 5.46122 40.5103C7.28631 40.5103 8.76885 39.0215 8.76885 37.195C8.76885 35.3583 7.28631 33.8746 5.46122 33.8746ZM5.46122 39.1238C4.39274 39.1238 3.52365 38.2541 3.52365 37.1899C3.52365 36.1206 4.39274 35.2508 5.46122 35.2508C6.52969 35.2508 7.39879 36.1206 7.39879 37.1899C7.39367 38.2541 6.52969 39.1238 5.46122 39.1238Z" fill="#778A96"/>
<path d="M51.7312 34.5501L51.6698 34.5041C51.1023 34.0948 50.4327 33.8799 49.7373 33.8799C47.9123 33.8799 46.4297 35.3636 46.4297 37.1901C46.4297 39.0166 47.9123 40.5003 49.7373 40.5003C50.4377 40.5003 51.1023 40.2854 51.6698 39.8761L51.7312 39.8301V40.2598H53.0399V34.1203H51.7312V34.5501ZM49.7323 39.1855C48.6331 39.1855 47.7333 38.2901 47.7333 37.185C47.7333 36.085 48.628 35.1845 49.7323 35.1845C50.8314 35.1845 51.7312 36.0799 51.7312 37.185C51.7312 38.2901 50.8314 39.1855 49.7323 39.1855Z" fill="#778A96"/>
<path d="M22.3773 35.184C22.9958 35.184 23.5633 35.4603 23.9416 35.9412L25.1277 35.3477C24.5142 34.4217 23.4866 33.8691 22.3721 33.8691C20.547 33.8691 19.0645 35.3529 19.0645 37.1794C19.0645 39.0059 20.547 40.4896 22.3721 40.4896C23.4866 40.4896 24.5091 39.937 25.1277 39.0109L23.9416 38.4175C23.5633 38.8984 22.9907 39.1747 22.3773 39.1747C21.2781 39.1747 20.3834 38.2794 20.3783 37.1742C20.3834 36.0793 21.2781 35.184 22.3773 35.184Z" fill="#778A96"/>
<path d="M35.2288 35.184C35.8474 35.184 36.4149 35.4603 36.7932 35.9412L37.9792 35.3477C37.3658 34.4217 36.3382 33.8691 35.2237 33.8691C33.3986 33.8691 31.916 35.3529 31.916 37.1794C31.916 39.0059 33.3986 40.4896 35.2237 40.4896C36.3382 40.4896 37.3606 39.937 37.9792 39.0109L36.7932 38.4175C36.4149 38.8984 35.8423 39.1747 35.2288 39.1747C34.1297 39.1747 33.235 38.2794 33.2299 37.1742C33.235 36.0793 34.1297 35.184 35.2288 35.184Z" fill="#778A96"/>
<path d="M31.8802 34.1297H30.1727L28.2147 36.4883H27.4427V31.6738H26.1289V40.259H27.4427V37.8952H28.2147L30.1778 40.259H31.8802L29.3343 37.1943L31.8802 34.1297Z" fill="#778A96"/>
<path d="M55.5703 33.2659C55.991 33.2659 56.3321 32.9246 56.3321 32.5036C56.3321 32.0826 55.991 31.7412 55.5703 31.7412C55.1496 31.7412 54.8086 32.0826 54.8086 32.5036C54.8086 32.9246 55.1496 33.2659 55.5703 33.2659Z" fill="#778A96"/>
<path d="M56.2311 34.1152H54.9121V40.2496H56.2311V34.1152Z" fill="#778A96"/>
<path d="M11.0116 31.6738H9.6875V40.259H11.0116V31.6738Z" fill="#778A96"/>
</g>
</g>
<defs>
<clipPath id="clip0_3391_196725">
<rect width="66" height="48" fill="white" transform="translate(0.125)"/>
</clipPath>
</defs>
</svg>
