<svg width="128" height="147" viewBox="0 0 128 147" fill="none" xmlns="http://www.w3.org/2000/svg">
<path fill-rule="evenodd" clip-rule="evenodd" d="M127.043 63.1875C127.043 98.0874 98.7508 126.375 63.8553 126.375C28.9598 126.375 0.667969 98.0874 0.667969 63.1875C0.667969 28.2876 28.9598 0.00012207 63.8553 0.00012207C98.7508 0.00012207 127.043 28.292 127.043 63.1875ZM112.886 63.1875C112.886 90.2659 90.9338 112.218 63.8553 112.218C36.7769 112.218 14.8249 90.2659 14.8249 63.1875C14.8249 36.1091 36.7769 14.157 63.8553 14.157C90.9338 14.157 112.886 36.1091 112.886 63.1875Z" fill="#49A6A3" fill-opacity="0.15"/>
<path d="M25.5371 104.937C25.7173 104.757 25.7921 104.577 25.7525 104.357C25.7174 104.141 25.6074 103.812 25.3524 103.416C25.0974 103.016 24.9919 102.691 24.9172 102.44C24.8424 102.079 24.9524 101.789 25.1722 101.534C25.3876 101.279 25.6778 101.209 26.0427 101.244C26.368 101.279 26.733 101.459 27.0187 101.75C27.2342 101.965 27.3793 102.185 27.454 102.4C27.5243 102.616 27.5639 102.871 27.5243 103.126C27.4892 103.341 27.3792 103.561 27.199 103.741L26.944 103.486C27.1594 103.271 27.2342 103.016 27.2342 102.761C27.199 102.471 27.0891 102.216 26.8341 102C26.5791 101.785 26.3637 101.64 26.1087 101.6C25.8537 101.565 25.6382 101.635 25.4931 101.82C25.348 101.965 25.2777 102.181 25.3129 102.4C25.348 102.616 25.458 102.906 25.6734 103.271C25.8888 103.631 26.0339 103.922 26.0735 104.141C26.1086 104.357 26.1438 104.577 26.1087 104.757C26.0735 104.937 25.9636 105.117 25.8185 105.263C25.5635 105.518 25.2733 105.623 24.948 105.588C24.6226 105.553 24.2577 105.372 23.9323 105.047C23.7169 104.832 23.5323 104.612 23.4267 104.322C23.3168 104.067 23.2817 103.816 23.3168 103.596C23.352 103.341 23.4619 103.161 23.6422 102.981L23.8972 103.236C23.6818 103.451 23.607 103.706 23.6422 103.996C23.6773 104.286 23.8576 104.577 24.1126 104.832C24.3676 105.087 24.6182 105.192 24.8732 105.232C25.1282 105.197 25.3436 105.122 25.5239 104.942L25.5371 104.937Z" fill="#97BFBF"/>
<path d="M29.5205 107.219C29.2655 107.544 28.9797 107.764 28.6896 107.909C28.3994 108.054 28.074 108.089 27.7839 108.054C27.4937 108.019 27.2035 107.874 26.9529 107.654C26.5528 107.329 26.3726 106.929 26.3726 106.423C26.3726 105.953 26.5528 105.447 26.9529 104.977L27.2431 104.616C27.4981 104.326 27.7839 104.075 28.074 103.93C28.3642 103.785 28.6896 103.75 28.9797 103.785C29.2699 103.82 29.5601 103.965 29.8107 104.185C30.0657 104.401 30.2459 104.656 30.3559 104.946C30.4658 105.236 30.4658 105.526 30.3559 105.852C30.2811 106.177 30.1008 106.467 29.8502 106.792L29.5249 107.228L29.5205 107.219ZM29.5601 106.603C29.8854 106.203 30.0657 105.808 30.0657 105.408C30.0657 105.007 29.9206 104.682 29.5952 104.432C29.2699 104.177 28.9445 104.071 28.5445 104.141C28.1839 104.212 27.819 104.467 27.4585 104.867L27.1683 105.227C26.843 105.627 26.6627 106.023 26.6627 106.423C26.6627 106.823 26.8078 107.149 27.1332 107.399C27.4585 107.654 27.7839 107.76 28.184 107.689C28.5445 107.615 28.9094 107.364 29.2699 106.964L29.5601 106.603Z" fill="#97BFBF"/>
<path d="M32.4921 110.116C32.1667 110.477 31.8414 110.661 31.4765 110.697C31.116 110.732 30.7159 110.622 30.3554 110.336C30.1004 110.156 29.9201 109.901 29.8102 109.65C29.7003 109.36 29.6651 109.07 29.7398 108.745C29.8102 108.419 29.9553 108.094 30.1751 107.804L30.5004 107.333C30.7159 107.008 30.9709 106.792 31.261 106.608C31.5512 106.423 31.8414 106.353 32.1316 106.392C32.4217 106.392 32.7119 106.502 33.0021 106.718C33.4022 107.008 33.6176 107.298 33.6923 107.659C33.7671 108.019 33.6923 108.384 33.4769 108.78L33.1867 108.564C33.5472 107.914 33.4417 107.368 32.8614 106.933C32.536 106.718 32.2107 106.643 31.8458 106.753C31.4853 106.863 31.1555 107.113 30.8302 107.549L30.5048 107.984C30.2147 108.384 30.0696 108.78 30.0696 109.18C30.0696 109.54 30.2498 109.87 30.5752 110.085C30.9005 110.301 31.1907 110.411 31.4457 110.376C31.7007 110.34 31.9865 110.195 32.2415 109.905L32.4965 110.121L32.4921 110.116Z" fill="#97BFBF"/>
<path d="M34.0488 112.724L35.57 110.187L35.0996 109.897L35.2447 109.642L35.7151 109.932L35.9306 109.606C36.1108 109.316 36.2911 109.136 36.5461 109.066C36.8011 108.991 37.0165 109.03 37.3067 109.211C37.4166 109.281 37.5221 109.356 37.5968 109.466L37.4166 109.721C37.3419 109.65 37.2715 109.576 37.1616 109.505C36.9813 109.395 36.8362 109.36 36.656 109.435C36.5109 109.47 36.3658 109.615 36.2559 109.795L36.0405 110.156L36.6912 110.556L36.5461 110.811L35.8954 110.411L34.3742 112.943L34.0488 112.728V112.724Z" fill="#97BFBF"/>
<path d="M36.3302 112.143C36.4753 111.853 36.6555 111.638 36.8754 111.492C37.0908 111.312 37.3458 111.237 37.6008 111.202C37.8558 111.202 38.1064 111.237 38.3614 111.383C38.7615 111.598 38.9769 111.888 39.0868 112.288C39.1968 112.688 39.122 113.084 38.8714 113.554L38.8362 113.625C38.6912 113.915 38.5109 114.13 38.2559 114.275C38.0405 114.456 37.7855 114.53 37.5305 114.53C37.2755 114.53 37.0249 114.495 36.7699 114.35C36.4093 114.135 36.1543 113.845 36.0444 113.445C35.9345 113.049 36.0093 112.649 36.2599 112.178L36.3302 112.143ZM36.6204 112.398C36.4401 112.723 36.3654 113.088 36.4401 113.374C36.5105 113.7 36.6555 113.915 36.9457 114.064C37.2359 114.21 37.5261 114.245 37.8162 114.1C38.1064 113.99 38.357 113.739 38.5417 113.374L38.5768 113.304C38.6868 113.088 38.7571 112.869 38.7923 112.653C38.8274 112.438 38.7571 112.218 38.6824 112.038C38.5724 111.857 38.4669 111.712 38.2471 111.602C37.9569 111.457 37.6667 111.422 37.3766 111.567C37.0864 111.677 36.8314 111.928 36.6511 112.293L36.616 112.403L36.6204 112.398Z" fill="#97BFBF"/>
<path d="M41.5095 113.339C41.4348 113.304 41.3644 113.269 41.2941 113.229C41.0786 113.119 40.894 113.119 40.7137 113.159C40.5335 113.194 40.3532 113.339 40.1729 113.519L39.2321 115.546L38.9067 115.401L40.318 112.469L40.6434 112.614L40.4279 113.084C40.7533 112.829 41.1182 112.759 41.5139 112.939C41.5842 112.974 41.659 113.014 41.6942 113.084L41.5139 113.339H41.5095Z" fill="#97BFBF"/>
<path d="M45.1277 116.817C45.2024 116.601 45.2024 116.381 45.0925 116.201C44.9826 116.021 44.732 115.766 44.3671 115.476C44.0066 115.186 43.7164 114.931 43.5713 114.715C43.3559 114.425 43.3163 114.1 43.4614 113.774C43.5713 113.449 43.8219 113.269 44.1517 113.159C44.477 113.049 44.8419 113.088 45.2376 113.229C45.5278 113.339 45.7432 113.484 45.9279 113.664C46.1081 113.845 46.2181 114.064 46.2532 114.28C46.2884 114.495 46.2884 114.75 46.1829 114.97L45.8224 114.825C45.9323 114.535 45.9323 114.284 45.7872 114.029C45.6773 113.774 45.4267 113.594 45.0969 113.488C44.7716 113.379 44.5166 113.343 44.2616 113.418C44.0066 113.488 43.8615 113.634 43.7912 113.853C43.7208 114.069 43.7208 114.253 43.8615 114.469C43.9714 114.649 44.1869 114.869 44.5122 115.12C44.8375 115.375 45.0925 115.555 45.2376 115.735C45.3827 115.915 45.4926 116.096 45.5278 116.28C45.563 116.461 45.563 116.68 45.4574 116.861C45.3475 117.186 45.0969 117.406 44.7672 117.476C44.4418 117.586 44.0418 117.546 43.6461 117.366C43.3559 117.256 43.1053 117.111 42.9206 116.896C42.7052 116.716 42.5953 116.496 42.5205 116.245C42.4854 116.03 42.4854 115.775 42.5909 115.52L42.9514 115.665C42.8415 115.955 42.8811 116.21 43.0218 116.461C43.1668 116.716 43.4218 116.896 43.7824 117.041C44.1077 117.151 44.3979 117.186 44.6133 117.116C44.8683 117.226 45.0486 117.08 45.1189 116.825L45.1277 116.817Z" fill="#97BFBF"/>
<path d="M47.1196 118.663C46.8646 118.593 46.6492 118.448 46.4689 118.228C46.2887 118.048 46.1788 117.793 46.1436 117.538C46.1084 117.283 46.1084 116.997 46.2139 116.707L46.2491 116.597C46.359 116.307 46.4646 116.052 46.6844 115.836C46.8998 115.621 47.0845 115.511 47.3351 115.436C47.5901 115.366 47.8407 115.366 48.0605 115.436C48.421 115.546 48.7112 115.761 48.8211 116.087C48.9662 116.412 48.9662 116.812 48.8211 117.247L48.7507 117.428L46.5437 116.737L46.5085 116.812C46.3986 117.173 46.3986 117.502 46.5437 117.788C46.6888 118.078 46.9042 118.294 47.1944 118.369C47.3746 118.439 47.5549 118.439 47.7 118.404C47.8451 118.369 48.0253 118.294 48.1704 118.188L48.3507 118.404C48.0253 118.729 47.5901 118.804 47.1196 118.659V118.663ZM47.955 115.731C47.7 115.66 47.4494 115.695 47.2296 115.801C46.9746 115.946 46.7943 116.161 46.6844 116.452L48.5661 117.032V116.997C48.6364 116.707 48.6364 116.416 48.5309 116.201C48.421 115.946 48.2407 115.801 47.9506 115.731H47.955Z" fill="#97BFBF"/>
<path d="M51.3223 116.707C51.252 116.672 51.1772 116.632 51.1069 116.632C50.8915 116.562 50.6716 116.597 50.4914 116.667C50.3111 116.737 50.166 116.883 50.0209 117.102L49.4758 119.274L49.1152 119.204L49.9462 116.056L50.2715 116.126L50.1616 116.632C50.4518 116.307 50.7771 116.197 51.2124 116.307C51.3223 116.342 51.3927 116.377 51.4278 116.417L51.3179 116.707H51.3223Z" fill="#97BFBF"/>
<path d="M52.4091 119.459L53.9303 116.962L54.2908 117.032L52.4442 119.965L52.154 119.894L51.6133 116.452L51.9738 116.522L52.4091 119.455V119.459Z" fill="#97BFBF"/>
<path d="M54.7253 120.4L54.3647 120.325L54.9055 117.102L55.266 117.173L54.7209 120.395L54.7253 120.4ZM54.9759 116.162C54.9759 116.091 55.011 116.052 55.0858 116.017C55.1605 115.981 55.1957 115.981 55.266 115.981C55.3364 115.981 55.4111 116.016 55.4463 116.091C55.4815 116.126 55.4815 116.201 55.4815 116.271C55.4815 116.342 55.4463 116.381 55.3715 116.417C55.3364 116.452 55.2616 116.452 55.1913 116.452C55.121 116.452 55.0462 116.417 55.011 116.342C54.9759 116.307 54.9759 116.232 54.9759 116.162Z" fill="#97BFBF"/>
<path d="M57.0072 120.474C57.2622 120.51 57.4777 120.475 57.6579 120.329C57.8382 120.22 57.9481 120.039 57.9833 119.824L58.3086 119.859C58.2734 120.039 58.1987 120.219 58.0536 120.365C57.9085 120.51 57.7634 120.62 57.548 120.69C57.3326 120.76 57.1479 120.76 56.9325 120.76C56.4973 120.725 56.2071 120.505 55.9916 120.18C55.7762 119.855 55.7015 119.454 55.7762 118.949V118.839C55.8114 118.514 55.9213 118.259 56.0664 118.008C56.2115 117.793 56.3917 117.608 56.6115 117.502C56.827 117.393 57.082 117.357 57.3722 117.393C57.7327 117.428 57.9877 117.573 58.2031 117.828C58.4185 118.083 58.4933 118.373 58.4581 118.698L58.1328 118.663C58.1328 118.408 58.0976 118.193 57.9525 118.012C57.8074 117.832 57.592 117.722 57.337 117.687C57.0116 117.652 56.7566 117.722 56.5412 117.942C56.3258 118.158 56.2159 118.487 56.1411 118.883V118.993C56.1059 119.393 56.1411 119.753 56.2862 120.008C56.4665 120.299 56.6863 120.444 57.0116 120.479L57.0072 120.474Z" fill="#97BFBF"/>
<path d="M60.3756 121.09C60.0854 121.055 59.87 120.98 59.6502 120.835C59.4348 120.69 59.2897 120.475 59.1798 120.22C59.0698 119.965 59.0347 119.679 59.0347 119.389V119.244C59.0698 118.918 59.1446 118.663 59.2897 118.413C59.4348 118.158 59.615 117.977 59.8348 117.872C60.0503 117.762 60.3053 117.692 60.5603 117.692C60.956 117.727 61.2461 117.872 61.4616 118.162C61.6814 118.452 61.7517 118.813 61.7517 119.283V119.499L59.4348 119.354V119.428C59.3996 119.789 59.5051 120.119 59.6898 120.369C59.87 120.624 60.125 120.769 60.4504 120.804C60.6306 120.804 60.8109 120.804 60.956 120.73C61.101 120.659 61.2461 120.549 61.3912 120.404L61.6066 120.585C61.2461 120.985 60.846 121.125 60.3756 121.09ZM60.4811 118.048C60.2261 118.013 59.9755 118.118 59.7909 118.303C59.6106 118.483 59.4655 118.738 59.3908 119.063L61.3473 119.208V119.173C61.3473 118.848 61.2725 118.593 61.1274 118.378C60.9823 118.162 60.7669 118.052 60.4768 118.052L60.4811 118.048Z" fill="#97BFBF"/>
<path d="M67.3263 119.169C67.3263 119.569 67.2867 119.929 67.146 120.22C67.0009 120.545 66.8163 120.765 66.5657 120.945C66.3107 121.125 66.0205 121.2 65.66 121.2C65.1544 121.2 64.7191 121.055 64.3938 120.694C64.064 120.334 63.8838 119.859 63.8838 119.208V118.773C63.8838 118.373 63.9233 118.013 64.064 117.722C64.2091 117.397 64.3938 117.182 64.6444 116.997C64.8994 116.817 65.1896 116.742 65.5501 116.742C65.8754 116.742 66.2008 116.817 66.4558 116.957C66.7108 117.102 66.9262 117.357 67.0713 117.648C67.2164 117.938 67.2867 118.298 67.3263 118.663V119.169ZM66.9262 118.698C66.9262 118.153 66.7811 117.758 66.5305 117.467C66.2755 117.177 65.9502 117.032 65.5501 117.032C65.15 117.032 64.8246 117.212 64.574 117.503C64.319 117.793 64.2091 118.228 64.2487 118.769V119.239C64.2487 119.745 64.3938 120.18 64.6444 120.47C64.8994 120.76 65.2247 120.905 65.6248 120.905C66.0557 120.905 66.3854 120.725 66.6009 120.435C66.8163 120.145 66.9262 119.71 66.9262 119.169V118.698Z" fill="#97BFBF"/>
<path d="M69.6081 117.973H69.3531C69.1377 117.973 68.953 118.083 68.8079 118.188C68.6628 118.334 68.5573 118.514 68.5222 118.769L68.7024 121.015L68.3375 121.051L68.0869 117.793L68.4474 117.758L68.4826 118.263C68.6277 117.863 68.9179 117.648 69.3531 117.613C69.463 117.613 69.5334 117.613 69.6081 117.648V117.973Z" fill="#97BFBF"/>
<path d="M70.1485 119.204C70.0781 118.698 70.1485 118.298 70.3287 117.973C70.5134 117.648 70.7991 117.467 71.1992 117.393C71.6345 117.318 71.995 117.463 72.2852 117.793L72.25 117.322L72.5753 117.287L72.9755 120.435C73.0106 120.835 72.9359 121.196 72.7556 121.486C72.5402 121.776 72.25 121.921 71.8499 121.956C71.6345 121.991 71.4147 121.956 71.1992 121.886C70.9838 121.816 70.7991 121.706 70.6541 121.561L70.8387 121.306C71.1289 121.596 71.4542 121.706 71.8148 121.666C72.1049 121.631 72.3203 121.521 72.4654 121.306C72.6105 121.125 72.6853 120.835 72.6457 120.545L72.6105 120.145C72.4303 120.505 72.1049 120.69 71.6697 120.76C71.3091 120.796 70.9838 120.69 70.7288 120.435C70.4738 120.18 70.2935 119.784 70.2232 119.274L70.1485 119.204ZM70.5134 119.239C70.5485 119.639 70.6936 119.965 70.8739 120.18C71.0541 120.395 71.3092 120.47 71.6345 120.435C72.0698 120.365 72.3599 120.145 72.5006 119.71L72.3204 118.224C72.2148 118.043 72.0697 117.898 71.8851 117.788C71.7048 117.714 71.5246 117.678 71.3091 117.714C71.019 117.749 70.7991 117.894 70.6541 118.149C70.4738 118.404 70.4386 118.764 70.5134 119.235V119.239Z" fill="#97BFBF"/>
<path d="M76.0534 119.964C75.9786 119.855 75.9435 119.71 75.9083 119.529C75.7984 119.71 75.6885 119.855 75.5082 120C75.328 120.11 75.1477 120.215 74.9279 120.255C74.6377 120.325 74.3519 120.29 74.1321 120.145C73.9167 120 73.7716 119.819 73.7364 119.564C73.6617 119.239 73.7716 118.984 73.987 118.769C74.2068 118.549 74.5673 118.369 75.0026 118.298L75.6533 118.188L75.583 117.828C75.5434 117.612 75.4379 117.428 75.2532 117.322C75.073 117.212 74.8575 117.177 74.6025 117.252C74.3519 117.287 74.1673 117.397 74.0222 117.542C73.8771 117.687 73.8419 117.867 73.8771 118.048L73.5166 118.118C73.4814 117.863 73.5517 117.612 73.7364 117.393C73.9518 117.177 74.2068 116.992 74.5673 116.957C74.9279 116.887 75.218 116.922 75.473 117.067C75.728 117.212 75.8687 117.428 75.9435 117.753L76.2336 119.274C76.304 119.6 76.3787 119.819 76.4491 119.96V119.995L76.0534 119.96V119.964ZM74.8927 119.929C75.1477 119.894 75.328 119.784 75.5082 119.639C75.6885 119.494 75.7632 119.314 75.8336 119.098L75.6885 118.408L75.0729 118.518C74.7124 118.588 74.4574 118.698 74.2772 118.879C74.0969 119.059 74.0222 119.239 74.0617 119.459C74.0969 119.639 74.2068 119.784 74.3519 119.859C74.4926 119.929 74.6773 119.969 74.8927 119.929Z" fill="#97BFBF"/>
<path d="M76.9591 116.417L77.0998 116.957C77.1746 116.742 77.2845 116.557 77.4296 116.417C77.5747 116.272 77.7549 116.162 77.9703 116.126C78.2957 116.052 78.5859 116.052 78.8057 116.236C79.0211 116.417 79.1662 116.636 79.2761 117.032L79.8169 119.098L79.4564 119.169L78.9112 117.107C78.8409 116.817 78.731 116.636 78.5859 116.527C78.4408 116.417 78.2253 116.381 77.9703 116.456C77.7549 116.527 77.5746 116.636 77.4647 116.817C77.3196 116.997 77.2449 117.217 77.2449 117.467L77.7901 119.639L77.4296 119.714L76.6294 116.562L76.9591 116.417Z" fill="#97BFBF"/>
<path d="M79.6011 114.75C79.5659 114.68 79.6011 114.64 79.6011 114.57C79.6011 114.5 79.6714 114.46 79.7461 114.46H79.9264C79.9968 114.495 80.0363 114.53 80.0363 114.605C80.0715 114.68 80.0363 114.715 80.0363 114.785C79.9968 114.856 79.9616 114.895 79.8912 114.895C79.8165 114.931 79.7462 114.895 79.7066 114.895C79.6714 114.895 79.6011 114.785 79.6011 114.75ZM81.2278 118.628L80.8673 118.738L79.9264 115.625L80.2869 115.515L81.2278 118.628Z" fill="#97BFBF"/>
<path d="M82.3893 117.938L84.3809 117.248L84.4909 117.538L82.0639 118.373L81.9892 118.118L82.9696 114.931L81.1583 115.546L81.0483 115.256L83.295 114.495L83.3653 114.75L82.3893 117.938Z" fill="#97BFBF"/>
<path d="M87.1327 116.452C87.058 116.381 86.9876 116.236 86.8777 116.056C86.8425 116.271 86.7326 116.417 86.5875 116.597C86.4424 116.777 86.2622 116.887 86.0819 116.957C85.7918 117.067 85.5368 117.102 85.2862 116.992C85.0312 116.918 84.8509 116.737 84.7805 116.487C84.6706 116.197 84.6706 115.907 84.8509 115.656C85.0312 115.401 85.3213 115.15 85.7566 114.966L86.3721 114.711L86.227 114.385C86.1567 114.17 86.0116 114.025 85.8269 113.95C85.6467 113.88 85.4312 113.915 85.1762 114.02C84.9608 114.13 84.7805 114.236 84.6706 114.42C84.5607 114.605 84.5607 114.781 84.6354 114.926L84.3057 115.071C84.2002 114.816 84.2354 114.566 84.3805 114.311C84.5256 114.056 84.7805 113.84 85.1059 113.695C85.4312 113.55 85.7566 113.515 86.0116 113.62C86.2622 113.695 86.482 113.91 86.5875 114.201L87.1679 115.612C87.2778 115.902 87.4229 116.118 87.5284 116.227V116.263L87.1327 116.443V116.452ZM85.972 116.672C86.1918 116.562 86.3721 116.456 86.5172 116.271C86.6623 116.091 86.6974 115.911 86.7326 115.691L86.4425 115.04L85.8665 115.295C85.5368 115.44 85.2862 115.621 85.1762 115.801C85.0663 115.981 84.996 116.201 85.1059 116.417C85.1762 116.597 85.2861 116.707 85.4664 116.742C85.6115 116.742 85.7918 116.742 85.972 116.672Z" fill="#97BFBF"/>
<path d="M87.1677 111.963L87.5282 112.724L88.1437 112.433L88.2537 112.688L87.6381 112.978L88.579 114.935C88.6537 115.115 88.7637 115.225 88.834 115.26C88.9439 115.295 89.0494 115.295 89.1945 115.225C89.2692 115.19 89.3396 115.155 89.4495 115.08L89.5946 115.335C89.5199 115.405 89.4144 115.48 89.2693 115.55C89.0494 115.66 88.8692 115.66 88.6889 115.586C88.5087 115.515 88.3987 115.331 88.2537 115.08L87.3128 113.124L86.772 113.379L86.6621 113.124L87.2029 112.869L86.8424 112.108L87.1677 111.963Z" fill="#97BFBF"/>
<path d="M88.3286 111.277C88.2891 111.202 88.2891 111.167 88.2891 111.097C88.2891 111.026 88.3638 110.987 88.4342 110.952C88.5089 110.917 88.5792 110.917 88.6188 110.917C88.654 110.917 88.7243 110.991 88.7595 111.026C88.7991 111.101 88.7991 111.136 88.7595 111.207C88.7243 111.281 88.6891 111.317 88.6188 111.352C88.5441 111.387 88.4737 111.387 88.4342 111.387C88.399 111.387 88.3638 111.352 88.3286 111.277ZM90.6105 114.825L90.2807 115.005L88.7991 112.108L89.1244 111.928L90.6105 114.825Z" fill="#97BFBF"/>
<path d="M90.6105 112.939C90.4654 112.649 90.3555 112.398 90.3555 112.108C90.3555 111.818 90.3906 111.567 90.5006 111.347C90.6105 111.132 90.8259 110.947 91.0413 110.802C91.4062 110.587 91.8019 110.547 92.202 110.692C92.6021 110.837 92.8879 111.127 93.1429 111.563L93.1781 111.633C93.3232 111.923 93.4331 112.178 93.4331 112.464C93.4331 112.75 93.3979 113.009 93.288 113.225C93.1781 113.44 92.9626 113.625 92.7428 113.77C92.3823 113.985 91.9866 114.025 91.6217 113.88C91.226 113.735 90.9358 113.48 90.6808 113.009L90.6105 112.934V112.939ZM90.971 112.869C91.1513 113.194 91.4062 113.449 91.6964 113.559C91.9866 113.669 92.2724 113.669 92.5626 113.488C92.8527 113.343 92.9978 113.088 93.0725 112.763C93.1077 112.438 93.033 112.112 92.8527 111.747L92.8176 111.677C92.7076 111.462 92.5274 111.277 92.3471 111.132C92.1669 110.987 91.9866 110.916 91.7668 110.916C91.5469 110.916 91.3711 110.952 91.1864 111.062C90.8963 111.207 90.7512 111.462 90.6808 111.787C90.6456 112.112 90.716 112.438 90.8963 112.803L90.971 112.873V112.869Z" fill="#97BFBF"/>
<path d="M93.2526 109.571L93.5779 110.042C93.5779 109.822 93.6131 109.606 93.723 109.391C93.8329 109.211 93.978 109.066 94.1583 108.92C94.4484 108.74 94.7342 108.665 94.954 108.74C95.209 108.811 95.4245 109.03 95.6399 109.356L96.8006 111.128L96.5104 111.308L95.3497 109.496C95.209 109.241 95.0244 109.096 94.8441 109.061C94.6639 109.026 94.4484 109.061 94.2286 109.206C94.0483 109.316 93.9033 109.496 93.8329 109.712C93.7582 109.927 93.7582 110.147 93.8329 110.402L95.0639 112.284L94.7738 112.464L92.9976 109.747L93.2526 109.567V109.571Z" fill="#97BFBF"/>
<path d="M98.7569 108.74C98.647 108.595 98.5019 108.525 98.3217 108.525C98.1414 108.525 97.9216 108.595 97.6314 108.705C97.3808 108.815 97.1258 108.885 96.9807 108.92C96.8005 108.956 96.6554 108.956 96.5103 108.885C96.3652 108.85 96.2553 108.74 96.185 108.63C96.0399 108.415 96.0047 108.195 96.0751 107.944C96.1498 107.689 96.3301 107.439 96.5851 107.254C96.8708 107.039 97.161 106.929 97.4512 106.964C97.7413 106.964 97.9568 107.109 98.1414 107.325L97.8513 107.54C97.7413 107.395 97.5963 107.325 97.3808 107.285C97.161 107.285 96.9807 107.355 96.7653 107.5C96.5851 107.645 96.44 107.791 96.4004 107.971C96.3652 108.151 96.3652 108.296 96.4752 108.441C96.5851 108.586 96.6906 108.621 96.8356 108.621C96.9807 108.621 97.2006 108.551 97.5259 108.441C97.8513 108.331 98.0667 108.226 98.247 108.226C98.4316 108.191 98.5723 108.226 98.7174 108.261C98.8625 108.296 98.9724 108.406 99.0823 108.551C99.2626 108.767 99.2977 109.022 99.1922 109.277C99.0823 109.532 98.9372 109.782 98.647 110.002C98.3569 110.217 98.0315 110.327 97.7413 110.327C97.4512 110.327 97.2006 110.217 97.0555 109.967L97.3413 109.751C97.4863 109.896 97.6314 110.006 97.8513 110.006C98.0711 110.006 98.247 109.932 98.4668 109.751C98.6822 109.606 98.7921 109.426 98.8625 109.246C98.8625 109.03 98.8625 108.846 98.7569 108.74Z" fill="#97BFBF"/>
<path d="M103.501 106.929L103.281 107.144L99.8081 103.271L100.024 103.055L103.501 106.929Z" fill="#97BFBF"/>
<path d="M106.723 100.954C106.578 100.809 106.433 100.774 106.253 100.809C106.068 100.844 105.853 100.954 105.527 101.134C105.202 101.314 104.947 101.46 104.692 101.534C104.222 101.644 103.861 101.569 103.571 101.319C103.316 101.064 103.21 100.774 103.21 100.413C103.246 100.053 103.391 99.6877 103.716 99.3624C103.931 99.147 104.151 98.9623 104.406 98.892C104.657 98.782 104.877 98.7469 105.127 98.8216C105.382 98.8568 105.598 98.9667 105.778 99.147L105.272 99.6877C105.092 99.5426 104.912 99.4723 104.732 99.4723C104.547 99.5075 104.367 99.5822 104.186 99.7976C104.006 99.9779 103.931 100.158 103.896 100.343C103.861 100.523 103.931 100.668 104.077 100.813C104.186 100.923 104.332 100.958 104.512 100.923C104.692 100.888 104.947 100.778 105.237 100.598C105.527 100.418 105.818 100.308 106.033 100.237C106.253 100.167 106.468 100.167 106.684 100.202C106.868 100.237 107.049 100.347 107.229 100.492C107.484 100.747 107.629 101.037 107.589 101.398C107.554 101.759 107.374 102.088 107.049 102.449C106.829 102.664 106.578 102.849 106.323 102.99C106.068 103.099 105.778 103.135 105.563 103.135C105.308 103.099 105.092 102.99 104.877 102.809L105.382 102.264C105.563 102.444 105.778 102.519 105.963 102.48C106.178 102.444 106.394 102.334 106.578 102.079C106.758 101.899 106.868 101.719 106.868 101.534C106.904 101.209 106.829 101.064 106.723 100.954Z" fill="#97BFBF"/>
<path d="M109.511 99.4723C109.221 99.8329 108.86 100.053 108.46 100.088C108.06 100.123 107.664 99.978 107.264 99.6878L107.194 99.6174C106.939 99.402 106.759 99.1822 106.649 98.9272C106.539 98.6722 106.469 98.4216 106.504 98.1314C106.539 97.8764 106.649 97.6258 106.829 97.406C107.119 97.0454 107.445 96.9004 107.81 96.8608C108.17 96.8256 108.57 97.0059 108.966 97.3312L109.186 97.5115L107.845 99.1778C108.06 99.3229 108.28 99.3932 108.495 99.358C108.715 99.3229 108.895 99.213 109.041 99.0327C109.256 98.7777 109.331 98.4875 109.221 98.127L109.762 98.0523C109.836 98.2677 109.836 98.5227 109.801 98.7425C109.801 99.0327 109.691 99.2481 109.511 99.468V99.4723ZM107.264 97.7709C107.154 97.916 107.084 98.0962 107.119 98.2765C107.154 98.4567 107.264 98.637 107.445 98.8217L108.315 97.7357L108.28 97.7005C108.06 97.5554 107.88 97.4851 107.735 97.5203C107.555 97.5554 107.409 97.6302 107.264 97.7753V97.7709Z" fill="#97BFBF"/>
<path d="M109.616 94.9438C109.546 95.0185 109.476 95.0889 109.436 95.1592C109.256 95.4142 109.221 95.7044 109.366 95.9198L111.177 97.2212L110.742 97.8016L108.1 95.8803L108.495 95.2999L108.785 95.5154C108.676 95.19 108.676 94.935 108.86 94.6844C108.931 94.6141 108.966 94.5393 109.04 94.5042L109.616 94.9394V94.9438Z" fill="#97BFBF"/>
<path d="M111.938 94.4733L110.378 92.6267L110.778 92.0112L112.879 94.7283L112.514 95.2691L109.186 94.4381L109.582 93.7874L111.938 94.4777V94.4733Z" fill="#97BFBF"/>
<path d="M110.272 91.1759C110.162 91.1056 110.127 91.0309 110.091 90.9209C110.052 90.811 110.091 90.7055 110.162 90.5956C110.236 90.4857 110.307 90.4153 110.417 90.3802C110.522 90.345 110.632 90.3802 110.707 90.4153C110.812 90.4857 110.852 90.5604 110.887 90.6308C110.922 90.7407 110.887 90.8462 110.812 90.9561C110.742 91.066 110.667 91.1364 110.562 91.1715C110.452 91.2463 110.342 91.2067 110.272 91.1715V91.1759ZM114.18 92.6268L113.82 93.2423L111.032 91.576L111.393 90.9605L114.18 92.6268Z" fill="#97BFBF"/>
<path d="M114.831 90.38C114.906 90.2349 114.941 90.0547 114.906 89.9096C114.871 89.7645 114.796 89.6194 114.651 89.5491L114.976 88.9335C115.161 89.0434 115.306 89.1885 115.376 89.3688C115.486 89.5491 115.521 89.7689 115.521 89.9843C115.521 90.1997 115.451 90.4196 115.341 90.635C115.121 91.0351 114.831 91.2857 114.435 91.3956C114.035 91.5055 113.639 91.4308 113.169 91.1758L113.094 91.1406C112.659 90.8856 112.369 90.5998 112.224 90.2349C112.083 89.8744 112.118 89.4743 112.334 89.0786C112.514 88.7533 112.769 88.4983 113.094 88.3884C113.42 88.2784 113.745 88.3136 114.075 88.4587L113.745 89.0742C113.565 88.9995 113.42 88.9643 113.239 89.0391C113.059 89.0742 112.949 89.1841 112.879 89.3644C112.769 89.5798 112.769 89.7645 112.844 89.9799C112.914 90.1602 113.129 90.3404 113.42 90.5207L113.53 90.5954C113.855 90.7757 114.11 90.8504 114.325 90.8109C114.545 90.7757 114.725 90.5954 114.831 90.3756V90.38Z" fill="#97BFBF"/>
<path d="M116.897 87.5576C116.717 87.9929 116.427 88.2479 116.027 88.393C115.631 88.538 115.231 88.5029 114.796 88.283L114.725 88.2479C114.435 88.1028 114.18 87.9225 114 87.7071C113.82 87.4917 113.71 87.2367 113.675 86.9817C113.64 86.7267 113.675 86.4761 113.82 86.2211C114 85.821 114.29 85.5704 114.651 85.4605C115.016 85.3505 115.411 85.4253 115.882 85.6407L116.137 85.7506L115.231 87.6675C115.486 87.7774 115.702 87.7774 115.921 87.7027C116.137 87.628 116.282 87.4873 116.392 87.2674C116.537 86.9773 116.537 86.6519 116.352 86.3617L116.862 86.1815C116.968 86.3969 117.042 86.6167 117.042 86.8322C117.078 87.0476 117.007 87.3026 116.897 87.5576ZM114.325 86.4717C114.255 86.6519 114.255 86.8322 114.325 87.0168C114.4 87.1971 114.545 87.3422 114.761 87.4873L115.341 86.2211L115.306 86.1859C115.086 86.1111 114.871 86.076 114.725 86.1111C114.545 86.1463 114.4 86.2562 114.325 86.4717Z" fill="#97BFBF"/>
<path d="M117.548 80.0966C117.948 80.2417 118.273 80.422 118.528 80.677C118.779 80.932 118.959 81.2177 119.034 81.5079C119.104 81.7981 119.069 82.1586 118.959 82.4839C118.854 82.8093 118.674 83.0995 118.383 83.2797C118.128 83.4952 117.838 83.6051 117.478 83.6402C117.113 83.6754 116.752 83.6402 116.352 83.4952L116.137 83.4204C115.737 83.2753 115.411 83.0951 115.161 82.8401C114.906 82.5851 114.725 82.2993 114.651 81.9695C114.58 81.6442 114.615 81.3189 114.725 80.9935C114.831 80.6682 115.016 80.378 115.266 80.1977C115.521 79.9823 115.811 79.8724 116.172 79.8372C116.537 79.802 116.897 79.8372 117.297 79.9823L117.548 80.0922V80.0966ZM117.078 80.7517C116.607 80.6066 116.247 80.5714 115.921 80.6418C115.631 80.7165 115.411 80.932 115.306 81.2573C115.196 81.5827 115.231 81.8377 115.411 82.1278C115.592 82.3828 115.921 82.5983 116.352 82.7433L116.607 82.8137C117.078 82.9588 117.438 82.9939 117.768 82.9236C118.093 82.8489 118.273 82.6334 118.383 82.3081C118.489 81.9827 118.454 81.6926 118.273 81.4376C118.093 81.1826 117.768 80.9671 117.297 80.822L117.078 80.7517Z" fill="#97BFBF"/>
<path d="M117.693 77.5994C117.658 77.6741 117.623 77.7796 117.583 77.8895C117.478 78.2149 117.548 78.4699 117.768 78.6501L119.905 79.2657L119.685 79.9559L116.572 79.0502L116.753 78.36L117.113 78.4303C116.898 78.1753 116.823 77.9247 116.898 77.5994C116.933 77.4894 116.968 77.4191 117.008 77.3444L117.693 77.5994Z" fill="#97BFBF"/>
<path d="M118.709 77.5642C118.199 77.4543 117.838 77.2389 117.623 76.9487C117.403 76.6585 117.298 76.298 117.403 75.9331C117.478 75.5726 117.693 75.3176 117.983 75.1725L117.658 75.0626L117.803 74.4119L120.881 75.1373C121.281 75.2472 121.606 75.4275 121.786 75.7528C121.967 76.0782 122.002 76.4431 121.896 76.8739C121.822 77.0894 121.751 77.3092 121.606 77.5246C121.461 77.7049 121.281 77.85 121.096 77.9599L120.736 77.5246C121.061 77.3795 121.241 77.1245 121.316 76.7992C121.386 76.5442 121.351 76.3639 121.241 76.1837C121.136 76.0034 120.991 75.8935 120.736 75.8583L120.52 75.8232C120.7 76.0782 120.736 76.3683 120.665 76.7289C120.591 77.0894 120.375 77.3795 120.01 77.5246C119.65 77.6345 119.214 77.6697 118.709 77.5598V77.5642ZM118.924 76.8739C119.25 76.9487 119.505 76.9487 119.72 76.8388C119.94 76.764 120.085 76.5838 120.12 76.3683C120.19 76.0782 120.12 75.8232 119.905 75.6429L118.489 75.3176C118.199 75.3879 118.058 75.5726 117.983 75.8627C117.913 76.0782 117.983 76.298 118.128 76.4782C118.274 76.6585 118.564 76.7684 118.924 76.8783V76.8739Z" fill="#97BFBF"/>
<path d="M121.461 72.3147C121.386 72.3499 121.281 72.3499 121.136 72.3499C121.351 72.6049 121.422 72.9302 121.351 73.2556C121.281 73.5809 121.171 73.8359 120.951 74.0162C120.736 74.1964 120.481 74.2712 120.23 74.1964C119.905 74.1217 119.65 73.981 119.505 73.6908C119.36 73.4007 119.324 73.0401 119.43 72.5697L119.505 72.1344L119.289 72.0993C119.105 72.0641 118.999 72.0993 118.854 72.174C118.709 72.2488 118.674 72.3894 118.634 72.5741C118.599 72.7544 118.634 72.8643 118.709 73.0094C118.779 73.1193 118.854 73.1896 118.999 73.2248L118.889 73.9502C118.709 73.9151 118.564 73.8403 118.419 73.6952C118.274 73.5501 118.199 73.3699 118.129 73.1544C118.093 72.939 118.058 72.7192 118.129 72.4642C118.199 72.1037 118.344 71.8135 118.564 71.5937C118.779 71.4134 119.069 71.3387 119.43 71.3782L120.881 71.6332C121.171 71.6684 121.422 71.6684 121.606 71.6332H121.641L121.461 72.3191V72.3147ZM120.806 73.0357C120.846 72.8907 120.806 72.7456 120.771 72.6005C120.736 72.4554 120.665 72.3455 120.555 72.2751L119.94 72.1652L119.865 72.5653C119.83 72.8203 119.83 73.0357 119.905 73.1808C119.975 73.3259 120.085 73.4358 120.265 73.4358C120.41 73.471 120.52 73.4358 120.626 73.3611C120.736 73.2907 120.806 73.1808 120.806 73.0357Z" fill="#97BFBF"/>
<path d="M118.528 69.7428L118.889 69.778C118.634 69.523 118.528 69.1625 118.564 68.8019C118.634 68.1161 119.069 67.8259 119.83 67.8962L121.966 68.1117L121.896 68.8371L119.795 68.6217C119.575 68.5865 119.43 68.6217 119.324 68.692C119.214 68.7668 119.144 68.9075 119.144 69.1273C119.104 69.4175 119.214 69.6681 119.469 69.8131L121.786 70.0682L121.711 70.7936L118.489 70.4331L118.528 69.7428Z" fill="#97BFBF"/>
<path d="M117.948 66.9904C117.838 66.9904 117.728 66.9552 117.658 66.8805C117.583 66.8101 117.548 66.7002 117.548 66.5551C117.548 66.41 117.583 66.3397 117.693 66.2649C117.803 66.1902 117.873 66.155 117.983 66.155C118.093 66.155 118.199 66.1902 118.238 66.2649C118.308 66.3353 118.344 66.4452 118.344 66.5903C118.344 66.7354 118.308 66.8057 118.199 66.8805C118.093 66.9508 118.058 66.9904 117.948 66.9904ZM122.076 66.4804L122.037 67.2058L118.779 66.9904L118.814 66.2649L122.076 66.4804Z" fill="#97BFBF"/>
<path d="M121.567 64.779L121.606 63.0424H122.182L122.147 65.6847H121.677L119.54 63.9832L119.505 65.6143H118.924L118.959 63.0775H119.43L121.567 64.779Z" fill="#97BFBF"/>
<path d="M122.112 60.3648C122.037 60.4 121.967 60.4396 121.822 60.4747C122.077 60.6902 122.222 60.9804 122.222 61.3057C122.222 61.631 122.147 61.886 121.967 62.1015C121.787 62.3169 121.567 62.4268 121.281 62.4268C120.916 62.4268 120.665 62.3169 120.481 62.0663C120.3 61.8113 120.191 61.4508 120.155 60.9804V60.5451H119.94C119.76 60.5451 119.65 60.6154 119.54 60.6902C119.43 60.8001 119.395 60.9452 119.395 61.1254C119.395 61.3057 119.43 61.4156 119.54 61.5255C119.615 61.6354 119.72 61.6706 119.865 61.6706L119.905 62.396C119.72 62.396 119.54 62.3609 119.395 62.251C119.25 62.141 119.105 61.996 118.999 61.7805C118.889 61.5651 118.854 61.3453 118.854 61.0903C118.854 60.6946 118.924 60.4044 119.105 60.1846C119.289 59.9691 119.54 59.8241 119.905 59.8241L121.386 59.7889C121.677 59.7889 121.896 59.7185 122.077 59.6438H122.112V60.3692V60.3648ZM121.606 61.1958C121.606 61.0507 121.567 60.9056 121.496 60.7957C121.422 60.6858 121.316 60.5803 121.206 60.5055L120.591 60.5407V60.9408C120.591 61.1958 120.665 61.4112 120.771 61.5563C120.881 61.7014 120.991 61.7366 121.171 61.7366C121.316 61.7366 121.422 61.6618 121.496 61.5915C121.606 61.4816 121.641 61.3365 121.606 61.1914V61.1958Z" fill="#97BFBF"/>
<path d="M117.913 58.2634L118.709 58.193L118.674 57.6127L119.214 57.5775L119.25 58.1578L121.061 58.0127C121.171 58.0127 121.281 57.9776 121.316 57.9028C121.351 57.8677 121.386 57.7577 121.386 57.6478C121.386 57.5731 121.351 57.4676 121.351 57.3928L121.932 57.3577C122.002 57.5028 122.037 57.683 122.037 57.8281C122.077 58.3689 121.786 58.6986 121.171 58.7338L119.324 58.8789L119.36 59.424L118.814 59.4592L118.779 58.914L117.983 59.024L117.913 58.2634Z" fill="#97BFBF"/>
<path d="M117.768 57.2126C117.658 57.2126 117.548 57.2126 117.478 57.1423C117.403 57.0675 117.333 56.9972 117.333 56.8521C117.333 56.707 117.333 56.5971 117.403 56.5268C117.478 56.4564 117.548 56.3817 117.658 56.3817C117.768 56.3817 117.873 56.3817 117.948 56.452C118.018 56.5224 118.093 56.5971 118.093 56.7422C118.093 56.8873 118.093 56.9972 118.018 57.0675C117.948 57.1423 117.873 57.1775 117.768 57.2126ZM121.751 55.9464L121.821 56.6718L118.599 57.0719L118.528 56.3465L121.751 55.9464Z" fill="#97BFBF"/>
<path d="M120.01 55.4406C119.685 55.4758 119.394 55.4758 119.144 55.4055C118.854 55.3307 118.634 55.19 118.489 54.9702C118.309 54.7548 118.199 54.5349 118.163 54.2096C118.093 53.7743 118.163 53.4138 118.418 53.0885C118.634 52.7631 118.999 52.5829 119.469 52.4729L119.649 52.4378C119.975 52.4026 120.265 52.4026 120.52 52.4729C120.771 52.5433 121.026 52.6884 121.171 52.9082C121.351 53.1236 121.461 53.3786 121.496 53.6688C121.566 54.1392 121.496 54.4998 121.206 54.8295C120.916 55.1549 120.555 55.3351 120.01 55.445V55.4406ZM119.975 54.7152C120.3 54.6405 120.555 54.5349 120.735 54.3898C120.916 54.2096 120.951 54.0293 120.916 53.7743C120.881 53.5193 120.735 53.3391 120.555 53.2687C120.335 53.1588 120.045 53.1588 119.685 53.194C119.359 53.2292 119.104 53.3742 118.959 53.5193C118.814 53.6644 118.744 53.8798 118.779 54.1348C118.814 54.3898 118.959 54.5349 119.144 54.6405C119.289 54.7504 119.575 54.7504 119.975 54.7152Z" fill="#97BFBF"/>
<path d="M117.658 51.4926L118.019 51.3827C117.694 51.2024 117.478 50.9474 117.368 50.5473C117.223 49.8966 117.513 49.4614 118.274 49.2811L120.375 48.8107L120.556 49.5361L118.489 50.0065C118.274 50.0417 118.164 50.1165 118.058 50.222C117.984 50.3319 117.949 50.477 118.019 50.6924C118.094 50.9826 118.274 51.1628 118.564 51.2332L120.806 50.7276L120.991 51.453L117.803 52.1784L117.658 51.4882V51.4926Z" fill="#97BFBF"/>
<path d="M118.779 46.4233C118.674 46.4585 118.564 46.5332 118.529 46.6783C118.489 46.7882 118.489 47.0036 118.489 47.2586V47.9093C118.419 48.3094 118.238 48.56 117.913 48.6699C117.658 48.7403 117.368 48.7051 117.153 48.5248C116.898 48.3446 116.717 48.0896 116.607 47.7291C116.497 47.3685 116.497 47.0388 116.607 46.753C116.717 46.4629 116.933 46.2826 117.223 46.2079L117.438 46.8981C117.298 46.9333 117.223 47.008 117.153 47.1531C117.078 47.263 117.078 47.4433 117.153 47.5884C117.188 47.7335 117.258 47.8434 117.368 47.9489C117.478 48.0236 117.583 48.0588 117.693 48.0236C117.803 47.9885 117.874 47.9137 117.913 47.8082C117.948 47.6983 117.948 47.4829 117.948 47.1927C117.913 46.9025 117.948 46.6475 117.983 46.4673C118.019 46.287 118.093 46.1419 118.164 46.032C118.274 45.9221 118.384 45.8517 118.564 45.777C118.854 45.7066 119.105 45.7418 119.36 45.9221C119.615 46.1023 119.795 46.3925 119.905 46.753C119.975 47.008 120.01 47.2586 119.975 47.4785C119.94 47.6939 119.865 47.9137 119.72 48.0588C119.575 48.2039 119.43 48.3138 119.25 48.3842L119.034 47.6939C119.179 47.6192 119.324 47.5488 119.36 47.4037C119.43 47.2586 119.43 47.0784 119.36 46.8981C119.289 46.7179 119.215 46.5728 119.144 46.498C119.069 46.4277 118.924 46.3881 118.779 46.4277V46.4233Z" fill="#97BFBF"/>
<path d="M41.3999 49.281H32.4925L30.4657 54.7855H28.729L36.1504 35.1593H37.742L45.1633 54.7855H43.4267L41.3999 49.281ZM32.9981 47.8698H40.8943L36.9462 37.1861L32.9981 47.8698Z" fill="#97BFBF"/>
<path d="M49.8015 54.7855H48.1353V35.1593H49.8015V54.7855Z" fill="#97BFBF"/>
<path d="M68.7377 48.6655C68.5223 50.7275 67.7617 52.3235 66.5306 53.4094C65.2996 54.4954 63.5937 55.0405 61.5317 55.0405C60.0853 55.0405 58.7795 54.68 57.6584 53.9546C56.5373 53.2291 55.6667 52.1784 55.0512 50.877C54.4357 49.536 54.1455 48.0148 54.1104 46.3133V43.7765C54.1104 42.0399 54.4005 40.4835 55.016 39.1426C55.6316 37.8016 56.5021 36.7508 57.6584 36.0298C58.8191 35.3044 60.1205 34.9438 61.6021 34.9438C63.7037 34.9438 65.37 35.5242 66.601 36.6453C67.832 37.7664 68.5223 39.3624 68.7377 41.354H67.0714C66.6713 38.0214 64.8643 36.3551 61.6417 36.3551C59.8655 36.3551 58.4542 37.0058 57.3682 38.3468C56.3174 39.6877 55.7767 41.5343 55.7767 43.8513V46.2386C55.7767 48.5204 56.2823 50.3318 57.333 51.6728C58.3486 53.0137 59.7599 53.6996 61.4966 53.6996C63.2332 53.6996 64.539 53.2995 65.4051 52.4685C66.2756 51.6376 66.8164 50.4065 67.0363 48.7403H68.7377V48.6699V48.6655Z" fill="#97BFBF"/>
<path d="M74.1673 46.7838V54.7855H72.501V35.1593H79.2013C81.2281 35.1593 82.8593 35.6649 84.0552 36.7157C85.251 37.7665 85.8269 39.1778 85.8269 41.0243C85.8269 42.8709 85.251 44.2822 84.1255 45.2978C83.0044 46.3134 81.3381 46.819 79.2013 46.819H74.1673V46.7838ZM74.1673 45.4077H79.2013C80.7973 45.4077 82.0283 45.0076 82.8945 44.247C83.7298 43.4864 84.1651 42.4004 84.1651 41.0595C84.1651 39.7185 83.7298 38.6326 82.8945 37.8016C82.0635 37.0059 80.8676 36.5706 79.3112 36.5706H74.1673V45.4077Z" fill="#97BFBF"/>
<path d="M97.9966 49.281H89.0891L87.0579 54.7855H85.3213L92.7427 35.1593H94.3386L101.76 54.7855H100.023L97.9966 49.281ZM89.5948 47.8698H97.4866L93.5429 37.1861L89.5948 47.8698Z" fill="#97BFBF"/>
<path d="M52.6239 81.8727C52.6239 80.7867 52.2238 79.9162 51.4632 79.3007C50.7026 78.65 49.2913 78.0697 47.2645 77.4893C45.2377 76.909 43.7516 76.2935 42.8108 75.6076C41.4698 74.6667 40.8191 73.4005 40.8191 71.8397C40.8191 70.279 41.4347 69.1227 42.6657 68.1818C43.8967 67.2409 45.4927 66.7705 47.4096 66.7705C48.7109 66.7705 49.8716 67.0255 50.9224 67.5311C51.938 68.0367 52.7338 68.727 53.3141 69.6327C53.8945 70.5384 54.1451 71.554 54.1451 72.6399H52.4788C52.4788 71.299 52.0084 70.213 51.1027 69.4172C50.197 68.6215 48.966 68.1862 47.4096 68.1862C45.8532 68.1862 44.7277 68.5115 43.8264 69.2018C42.9207 69.8921 42.4854 70.7582 42.4854 71.8441C42.4854 72.8597 42.8855 73.6555 43.6813 74.3062C44.4771 74.9217 45.7433 75.5021 47.5195 75.9725C49.2913 76.4429 50.6323 76.9485 51.5379 77.4585C52.4436 77.9641 53.1295 78.5797 53.5999 79.3051C54.0704 80.0305 54.2902 80.8615 54.2902 81.8375C54.2902 83.3939 53.6747 84.6249 52.4436 85.5658C51.2126 86.5067 49.5815 86.9771 47.5547 86.9771C46.1785 86.9771 44.9123 86.7221 43.7516 86.2517C42.5909 85.7461 41.7248 85.0558 41.1093 84.1897C40.4938 83.284 40.2036 82.2728 40.2036 81.1121H41.8699C41.8699 82.4882 42.3755 83.5742 43.4263 84.4095C44.4771 85.2053 45.8532 85.6054 47.5547 85.6054C49.0759 85.6054 50.3069 85.28 51.2478 84.5898C52.1534 83.8643 52.6239 82.9586 52.6239 81.8727Z" fill="#97BFBF"/>
<path d="M72.1052 77.9246C72.1052 79.736 71.7798 81.3275 71.1643 82.6685C70.5488 84.0446 69.6431 85.0954 68.4824 85.8164C67.3261 86.5418 65.9852 86.9375 64.464 86.9375C62.1821 86.9375 60.3356 86.1066 58.9243 84.4755C57.513 82.8443 56.8228 80.6373 56.8228 77.8498V75.823C56.8228 74.0468 57.1481 72.4553 57.7636 71.0791C58.4143 69.703 59.2848 68.6522 60.4411 67.8916C61.5974 67.1662 62.9384 66.7705 64.4596 66.7705C65.9808 66.7705 67.3217 67.131 68.4429 67.8565C69.6036 68.5819 70.5092 69.6327 71.1248 70.9341C71.7403 72.275 72.0656 73.7962 72.1008 75.568V77.9202L72.1052 77.9246ZM70.4389 75.7879C70.4389 73.4357 69.8937 71.5891 68.8473 70.2482C67.7614 68.9072 66.3105 68.2565 64.464 68.2565C62.6174 68.2565 61.171 68.9424 60.1202 70.2834C59.0342 71.6243 58.489 73.506 58.489 75.9329V77.9993C58.489 80.3163 59.0342 82.1629 60.1202 83.539C61.2061 84.9151 62.6526 85.5658 64.4991 85.5658C66.3457 85.5658 67.8317 84.8755 68.8825 83.539C69.9333 82.198 70.4741 80.3163 70.4741 77.9246V75.7879H70.4389Z" fill="#97BFBF"/>
<path d="M89.8847 80.5669C89.6648 82.6289 88.9042 84.2248 87.6732 85.3108C86.4422 86.3967 84.7407 86.9419 82.6787 86.9419C81.2279 86.9419 79.9265 86.5814 78.8054 85.8559C77.6798 85.1305 76.8137 84.0797 76.1982 82.7784C75.5827 81.4374 75.2925 79.9162 75.2529 78.2147V75.6779C75.2529 73.9413 75.5431 72.3849 76.1586 71.0439C76.7741 69.703 77.6447 68.6522 78.8054 67.9312C79.9617 67.2057 81.2674 66.8452 82.7491 66.8452C84.8506 66.8452 86.5169 67.4256 87.7479 68.5467C88.979 69.6678 89.6648 71.2638 89.8847 73.2554H88.2184C87.8183 69.9228 86.0113 68.2565 82.7886 68.2565C81.0124 68.2565 79.6011 68.9072 78.5152 70.2482C77.4644 71.5891 76.9192 73.4357 76.9192 75.7527V78.1444C76.9192 80.4262 77.4292 82.2376 78.4756 83.5741C79.4912 84.9151 80.9025 85.6009 82.6435 85.6009C84.3846 85.6009 85.6816 85.2009 86.5521 84.3699C87.4226 83.5346 87.9634 82.3035 88.1832 80.6416H89.8847V80.5713V80.5669Z" fill="#97BFBF"/>
<path d="M28.1089 61.1606H102.956" stroke="#97BFBF" stroke-width="0.338535" stroke-linecap="round" stroke-linejoin="round"/>
<path d="M40.424 98.0565C40.3888 97.9817 40.3492 97.841 40.3141 97.6564C40.0239 97.9817 39.6634 98.1268 39.2281 98.1268C38.8676 98.1268 38.5379 98.0169 38.3224 97.8015C38.0674 97.5816 37.9619 97.331 37.9619 97.0057C37.9619 96.6056 38.107 96.3154 38.3972 96.1C38.6873 95.8802 39.1226 95.7746 39.6634 95.7746H40.2789V95.4845C40.2789 95.269 40.2086 95.0844 40.0635 94.9393C39.9184 94.7942 39.7381 94.7239 39.448 94.7239C39.2325 94.7239 39.0127 94.7942 38.8676 94.9041C38.7225 95.014 38.6522 95.1591 38.6522 95.3394H38.0015C38.0015 95.1591 38.0718 94.9789 38.2169 94.7942C38.362 94.614 38.5423 94.4689 38.7577 94.359C38.9731 94.249 39.2281 94.2139 39.5183 94.2139C39.9536 94.2139 40.2789 94.3238 40.5339 94.5392C40.7889 94.7546 40.8944 95.0448 40.934 95.4449V97.1815C40.934 97.5421 40.9692 97.7971 41.0791 98.0125V98.0828H40.4284V98.0477L40.424 98.0565ZM39.3336 97.5509C39.5491 97.5509 39.7337 97.5157 39.914 97.4058C40.0942 97.2959 40.2393 97.1508 40.3141 97.0057V96.2451H39.8085C39.0127 96.2451 38.6126 96.4605 38.6126 96.9353C38.6126 97.1508 38.6873 97.2959 38.828 97.4058C38.938 97.5157 39.1182 97.5509 39.3336 97.5509Z" fill="#97BFBF"/>
<path d="M41.7998 93.2775C41.7998 93.1676 41.835 93.0973 41.9097 93.0225C41.9801 92.9478 42.0548 92.9126 42.1999 92.9126C42.3098 92.9126 42.4153 92.9478 42.4901 93.0225C42.5604 93.0973 42.6 93.1676 42.6 93.2775C42.6 93.3874 42.5648 93.4578 42.4901 93.5325C42.4153 93.6073 42.345 93.6424 42.1999 93.6424C42.09 93.6424 41.9845 93.6073 41.9097 93.5325C41.835 93.4622 41.7998 93.3874 41.7998 93.2775ZM42.4857 98.0566H41.835V94.2535H42.4857V98.0566Z" fill="#97BFBF"/>
<path d="M44.8772 97.586C45.0926 97.586 45.3125 97.5157 45.4927 97.3706C45.673 97.2255 45.7477 97.0453 45.7829 96.865H46.3984C46.3984 97.0804 46.3281 97.3003 46.183 97.4805C46.0379 97.6608 45.8576 97.841 45.6422 97.9509C45.4268 98.0609 45.1718 98.1312 44.9168 98.1312C44.4112 98.1312 43.9759 97.9509 43.6858 97.6256C43.3956 97.2651 43.2153 96.8298 43.2153 96.2143V96.1044C43.2153 95.7439 43.2857 95.4141 43.4308 95.1283C43.5758 94.8382 43.7561 94.6227 44.0111 94.4777C44.2661 94.3326 44.5519 94.2227 44.9168 94.2227C45.3521 94.2227 45.6774 94.3677 45.9676 94.6227C46.2578 94.8777 46.4028 95.2031 46.4028 95.5988H45.7873C45.7521 95.3438 45.6774 95.1635 45.4971 94.9833C45.3169 94.8382 45.1366 94.7283 44.8816 94.7283C44.5563 94.7283 44.3013 94.8382 44.121 95.0888C43.9408 95.3438 43.866 95.6691 43.866 96.1044V96.2143C43.866 96.6496 43.9408 96.9749 44.121 97.2299C44.2661 97.4849 44.5563 97.5904 44.8816 97.5904L44.8772 97.586Z" fill="#97BFBF"/>
<path d="M50.127 96.21C50.127 96.7904 49.9819 97.2608 49.7269 97.5862C49.4719 97.9467 49.1113 98.1313 48.6409 98.1313C48.1705 98.1313 47.81 97.9863 47.555 97.6961V99.5075H46.9043V94.258H47.4846L47.5198 94.6932C47.7748 94.3679 48.1353 94.1876 48.6058 94.1876C49.0762 94.1876 49.4015 94.3679 49.6917 94.6932C49.9467 95.0186 50.0918 95.5242 50.0918 96.1441V96.2144H50.127V96.21ZM49.4719 96.1397C49.4719 95.7044 49.362 95.3791 49.1817 95.1241C49.0015 94.8691 48.7464 94.7636 48.4211 94.7636C48.021 94.7636 47.7308 94.9438 47.5506 95.2692V97.0806C47.7308 97.4411 48.0562 97.5862 48.4563 97.5862C48.7816 97.5862 49.0015 97.4763 49.1817 97.2256C49.362 96.9706 49.4719 96.6101 49.4719 96.1397Z" fill="#97BFBF"/>
<path d="M53.0944 98.0565C53.0592 97.9817 53.024 97.841 52.9845 97.6564C52.6943 97.9817 52.3338 98.1268 51.8985 98.1268C51.538 98.1268 51.2127 98.0169 50.9928 97.8015C50.7378 97.5816 50.6323 97.331 50.6323 97.0057C50.6323 96.6056 50.7774 96.3154 51.0676 96.1C51.3578 95.8802 51.793 95.7746 52.3338 95.7746H52.9493V95.4845C52.9493 95.269 52.8746 95.0844 52.7339 94.9393C52.5888 94.7942 52.4085 94.7239 52.1184 94.7239C51.9029 94.7239 51.6831 94.7942 51.538 94.9041C51.3929 95.014 51.3226 95.1591 51.3226 95.3394H50.6719C50.6719 95.1591 50.7422 94.9789 50.8873 94.7942C51.0324 94.614 51.2127 94.4689 51.4325 94.359C51.6479 94.249 51.9029 94.2139 52.1931 94.2139C52.6284 94.2139 52.9537 94.3238 53.2087 94.5392C53.4637 94.7546 53.5692 95.0448 53.6088 95.4449V97.1815C53.6088 97.5421 53.644 97.7971 53.7539 98.0125V98.0828H53.1032V98.0477L53.0944 98.0565ZM52.0084 97.5509C52.2239 97.5509 52.4085 97.5157 52.5888 97.4058C52.7691 97.2959 52.9141 97.1508 52.9889 97.0057V96.2451H52.4833C51.6875 96.2451 51.2874 96.4605 51.2874 96.9353C51.2874 97.1508 51.3577 97.2959 51.5028 97.4058C51.6479 97.5157 51.8282 97.5509 52.0084 97.5509Z" fill="#97BFBF"/>
<path d="M54.5059 97.7311C54.5059 97.6212 54.541 97.5157 54.6158 97.441C54.6861 97.3662 54.796 97.3311 54.9059 97.3311C55.0158 97.3311 55.1214 97.3662 55.1961 97.441C55.2709 97.5113 55.306 97.6212 55.306 97.7311C55.306 97.8411 55.2709 97.9114 55.1961 97.9861C55.1258 98.0609 55.0158 98.0961 54.9059 98.0961C54.796 98.0961 54.6905 98.0609 54.6158 97.9861C54.541 97.9158 54.5059 97.8411 54.5059 97.7311Z" fill="#97BFBF"/>
<path d="M56.0269 96.1397C56.0269 95.7792 56.0972 95.4494 56.2423 95.1241C56.3874 94.7987 56.6028 94.6185 56.8578 94.4338C57.1128 94.2887 57.403 94.1788 57.7635 94.1788C58.2691 94.1788 58.7043 94.3591 59.0297 94.724C59.355 95.0845 59.5001 95.555 59.5001 96.1353V96.1705C59.5001 96.531 59.4298 96.8563 59.2847 97.1465C59.1396 97.4367 58.9593 97.6521 58.6692 97.8368C58.4142 98.017 58.0888 98.0918 57.7635 98.0918C57.2579 98.0918 56.8226 97.9115 56.5324 97.5466C56.2071 97.1861 56.062 96.7156 56.062 96.1353H56.0269V96.1397ZM56.6775 96.21C56.6775 96.6453 56.7874 96.9706 56.9677 97.2256C57.148 97.4806 57.4381 97.6257 57.7635 97.6257C58.0888 97.6257 58.3438 97.4806 58.5593 97.2256C58.7747 96.9706 58.8494 96.6101 58.8494 96.1397C58.8494 95.7396 58.7395 95.3791 58.5593 95.1241C58.379 94.8691 58.0888 94.724 57.7635 94.724C57.4381 94.724 57.1831 94.8691 57.0029 95.1241C56.8226 95.3791 56.6775 95.7396 56.6775 96.21Z" fill="#97BFBF"/>
<path d="M61.9315 94.8734C61.8216 94.8734 61.7117 94.8382 61.6018 94.8382C61.1709 94.8382 60.8807 95.0184 60.7356 95.3834V98.0653H60.085V94.2622H60.7005V94.6975C60.9159 94.3722 61.2061 94.1919 61.6018 94.1919C61.7117 94.1919 61.8216 94.1919 61.8919 94.2271V94.8778H61.9315V94.8734Z" fill="#97BFBF"/>
<path d="M62.1118 96.1396C62.1118 95.5592 62.2569 95.0888 62.5075 94.7283C62.7977 94.3677 63.1626 94.2227 63.5935 94.2227C64.0639 94.2227 64.4288 94.4029 64.6838 94.7283L64.719 94.293H65.2993V97.9861C65.2993 98.4917 65.1542 98.8566 64.8641 99.1468C64.5739 99.437 64.1738 99.5821 63.7034 99.5821C63.4132 99.5821 63.1626 99.5117 62.9076 99.4018C62.6526 99.2919 62.4372 99.1116 62.2921 98.9314L62.6174 98.5313C62.9076 98.8566 63.2329 99.0369 63.633 99.0369C63.9584 99.0369 64.1738 98.9621 64.3541 98.7819C64.5387 98.6016 64.6091 98.3466 64.6091 98.0213V97.6959C64.3541 97.9861 63.9935 98.1312 63.5583 98.1312C63.123 98.1312 62.7625 97.9509 62.4723 97.586C62.2569 97.2255 62.1118 96.7551 62.1118 96.1396ZM62.7625 96.2099C62.7625 96.6452 62.8329 96.9705 63.0175 97.2255C63.1978 97.4805 63.4484 97.586 63.7385 97.586C64.1386 97.586 64.464 97.4058 64.6442 97.0452V95.3086C64.464 94.9481 64.1386 94.7634 63.7385 94.7634C63.4132 94.7634 63.1978 94.8733 63.0175 95.124C62.8724 95.379 62.7625 95.7395 62.7625 96.2099Z" fill="#97BFBF"/>
<path d="M66.24 98.4918H65.6948L67.8315 92.9521H68.3767L66.24 98.4918Z" fill="#97BFBF"/>
<path d="M71.0894 97.0453C71.0894 96.865 71.0191 96.7199 70.9092 96.6452C70.7641 96.5353 70.5487 96.4649 70.2233 96.3902C69.8936 96.3198 69.643 96.2451 69.4231 96.1352C69.2429 96.0253 69.0978 95.9197 68.9923 95.7747C68.8824 95.6296 68.8472 95.4845 68.8472 95.3042C68.8472 94.9789 68.9923 94.7239 69.2429 94.5085C69.4979 94.293 69.8584 94.1831 70.2585 94.1831C70.6938 94.1831 71.0191 94.293 71.3093 94.5085C71.5599 94.7239 71.705 95.0141 71.705 95.3394H71.0543C71.0543 95.1591 70.9839 95.0141 70.8388 94.869C70.6937 94.7239 70.5135 94.6887 70.2585 94.6887C70.0035 94.6887 69.8232 94.7239 69.7133 94.8338C69.5682 94.9437 69.4979 95.0888 69.4979 95.2339C69.4979 95.379 69.5682 95.5241 69.6782 95.5944C69.7881 95.6647 70.0387 95.7395 70.3684 95.8098C70.6938 95.8802 70.9444 95.9549 71.1642 96.0648C71.3796 96.1747 71.5247 96.2803 71.5994 96.4254C71.6698 96.5704 71.7445 96.7507 71.7445 96.931C71.7445 97.2563 71.5994 97.5465 71.3444 97.7267C71.0894 97.9422 70.7289 98.0169 70.2937 98.0169C70.0035 98.0169 69.7133 97.9817 69.4979 97.8718C69.278 97.7619 69.0978 97.6168 68.9527 97.4366C68.8076 97.2563 68.7725 97.0365 68.7725 96.821H69.4231C69.4231 97.0365 69.5331 97.2211 69.6782 97.3266C69.8232 97.4322 70.0387 97.5069 70.3288 97.5069C70.5838 97.5069 70.7641 97.4717 70.9092 97.3618C71.0543 97.2519 71.0894 97.2167 71.0894 97.0365V97.0453Z" fill="#97BFBF"/>
<path d="M72.2505 96.1397C72.2505 95.7792 72.3208 95.4494 72.4659 95.1241C72.611 94.7987 72.8308 94.6185 73.0814 94.4338C73.3364 94.2887 73.6266 94.1788 73.9871 94.1788C74.4927 94.1788 74.928 94.3591 75.2533 94.724C75.5831 95.0845 75.7282 95.555 75.7282 96.1353V96.1705C75.7282 96.531 75.6534 96.8563 75.5084 97.1465C75.3633 97.4367 75.183 97.6521 74.8928 97.8368C74.6378 98.017 74.3125 98.0918 73.9871 98.0918C73.4815 98.0918 73.0463 97.9115 72.7561 97.5466C72.4308 97.1861 72.2857 96.7156 72.2857 96.1353H72.2505V96.1397ZM72.9012 96.21C72.9012 96.6453 73.0111 96.9706 73.1914 97.2256C73.3716 97.4806 73.6618 97.6257 73.9871 97.6257C74.3125 97.6257 74.5675 97.4806 74.7829 97.2256C75.0027 96.9706 75.0731 96.6101 75.0731 96.1397C75.0731 95.7396 74.9676 95.3791 74.7829 95.1241C74.6027 94.8691 74.3125 94.724 73.9871 94.724C73.6618 94.724 73.4068 94.8691 73.2265 95.1241C73.0463 95.3791 72.9012 95.7396 72.9012 96.21Z" fill="#97BFBF"/>
<path d="M77.825 97.586C78.0448 97.586 78.2602 97.5157 78.4405 97.3706C78.6208 97.2255 78.6955 97.0453 78.7307 96.865H79.3462C79.3462 97.0804 79.2759 97.3003 79.1308 97.4805C78.9857 97.6608 78.8054 97.841 78.5856 97.9509C78.3702 98.0609 78.1152 98.1312 77.8602 98.1312C77.3546 98.1312 76.9193 97.9509 76.6291 97.6256C76.3434 97.2651 76.1587 96.8298 76.1587 96.2143V96.1044C76.1587 95.7439 76.2334 95.4141 76.3785 95.1283C76.5236 94.8382 76.7039 94.6227 76.9589 94.4777C77.2095 94.3326 77.4996 94.2227 77.8602 94.2227C78.2954 94.2227 78.6208 94.3677 78.9109 94.6227C79.2011 94.8777 79.3462 95.2031 79.3462 95.5988H78.7307C78.6955 95.3438 78.6208 95.1635 78.4405 94.9833C78.2602 94.8382 78.08 94.7283 77.825 94.7283C77.4996 94.7283 77.2446 94.8382 77.0644 95.0888C76.8841 95.3438 76.8138 95.6691 76.8138 96.1044V96.2143C76.8138 96.6496 76.8841 96.9749 77.0644 97.2299C77.2446 97.4849 77.4996 97.5904 77.825 97.5904V97.586Z" fill="#97BFBF"/>
<path d="M82.5692 96.3551H83.2947V96.9003H82.5692V98.0961H81.9185V96.9003H79.6016V96.5002L81.8834 92.9521H82.5692V96.3551ZM80.3226 96.3551H81.9185V93.8578L81.8438 94.0029L80.3226 96.3551Z" fill="#97BFBF"/>
<path d="M85.9371 97.0453C85.9371 96.865 85.8668 96.7199 85.7569 96.6452C85.647 96.5704 85.3963 96.4649 85.0666 96.3902C84.7413 96.3198 84.4907 96.2451 84.2708 96.1352C84.0906 96.0253 83.9455 95.9197 83.8356 95.7747C83.7301 95.6296 83.6905 95.4845 83.6905 95.3042C83.6905 94.9789 83.8356 94.7239 84.0906 94.5085C84.3456 94.293 84.7061 94.1831 85.1062 94.1831C85.537 94.1831 85.8668 94.293 86.1569 94.5085C86.4075 94.7239 86.5526 95.0141 86.5526 95.3394H85.9019C85.9019 95.1591 85.8272 95.0141 85.6821 94.869C85.537 94.7239 85.3568 94.6887 85.1062 94.6887C84.8556 94.6887 84.6709 94.7239 84.561 94.8338C84.4159 94.9437 84.3456 95.0888 84.3456 95.2339C84.3456 95.379 84.4159 95.5241 84.5258 95.5944C84.6357 95.6647 84.8863 95.7395 85.2117 95.8098C85.537 95.8802 85.792 95.9549 86.0118 96.0648C86.2273 96.1747 86.3724 96.2803 86.4427 96.4254C86.5175 96.5704 86.5878 96.7507 86.5878 96.931C86.5878 97.2563 86.4427 97.5465 86.1921 97.7267C85.9371 97.9422 85.5766 98.0169 85.1413 98.0169C84.8512 98.0169 84.561 97.9817 84.3456 97.8718C84.1257 97.7619 83.9455 97.6168 83.8004 97.4366C83.6553 97.2563 83.6201 97.0365 83.6201 96.821H84.2708C84.2708 97.0365 84.3807 97.2211 84.5258 97.3266C84.6709 97.4717 84.8863 97.5069 85.1765 97.5069C85.4315 97.5069 85.6118 97.4717 85.7569 97.3618C85.902 97.2519 85.9371 97.2167 85.9371 97.0365V97.0453Z" fill="#97BFBF"/>
<path d="M87.0581 96.1397C87.0581 95.7792 87.1328 95.4494 87.2779 95.1241C87.423 94.8339 87.6385 94.6185 87.8935 94.4338C88.1441 94.2887 88.4342 94.1788 88.7992 94.1788C89.3048 94.1788 89.74 94.3591 90.0654 94.724C90.3907 95.0845 90.5358 95.555 90.5358 96.1353V96.1705C90.5358 96.531 90.4655 96.8563 90.3204 97.1465C90.1753 97.4367 89.995 97.6521 89.7048 97.8368C89.4498 98.017 89.1245 98.0918 88.7992 98.0918C88.2892 98.0918 87.8583 97.9115 87.5681 97.5466C87.2428 97.1861 87.0977 96.7156 87.0977 96.1353H87.0581V96.1397ZM87.7132 96.21C87.7132 96.6453 87.8187 96.9706 88.0034 97.2256C88.1836 97.4806 88.4738 97.6257 88.7992 97.6257C89.1245 97.6257 89.3795 97.4806 89.5949 97.2256C89.7752 96.9706 89.8851 96.6101 89.8851 96.1397C89.8851 95.7396 89.7752 95.3791 89.5949 95.1241C89.4147 94.8691 89.1245 94.724 88.7992 94.724C88.4738 94.724 88.2188 94.8691 88.0386 95.1241C87.8583 95.3791 87.7132 95.7396 87.7132 96.21Z" fill="#97BFBF"/>
<path d="M119.236 114.961L118.115 112.425H118.568L119.355 114.284L120.142 112.425H120.595L119.473 114.961H119.236ZM118.031 114.961V112.425H118.471V114.961H118.031ZM120.238 114.961V112.425H120.678V114.961H120.238ZM116.378 114.961V112.649H116.818V114.961H116.378ZM115.609 112.811V112.425H117.592V112.811H115.609Z" fill="#97BFBF"/>
<path d="M40.0098 144.98C38.3538 144.98 37.2468 144.161 37.1658 142.91H38.2728C38.3718 143.594 39.0018 144.026 40.0098 144.026C40.8288 144.026 41.2608 143.711 41.2608 143.18C41.2608 142.685 40.8738 142.487 40.2618 142.298L39.2358 141.992C38.4978 141.767 37.3458 141.443 37.3458 140.21C37.3458 139.175 38.2008 138.419 39.5958 138.419C41.1168 138.419 42.0888 139.238 42.1698 140.57H41.0718C41.0268 139.859 40.5048 139.382 39.5598 139.382C38.8668 139.382 38.4168 139.67 38.4168 140.156C38.4168 140.705 38.9658 140.84 39.5778 141.038L40.5318 141.335C41.4228 141.614 42.3588 141.938 42.3588 143.126C42.3588 144.269 41.4498 144.98 40.0098 144.98ZM46.1775 144.98C44.3145 144.98 43.0365 143.693 43.0365 141.686C43.0365 139.778 44.2425 138.419 46.1775 138.419C48.0495 138.419 49.3365 139.706 49.3365 141.686C49.3365 143.612 48.1215 144.98 46.1775 144.98ZM44.1345 141.686C44.1345 143.108 44.9265 144.008 46.1775 144.008C47.4375 144.008 48.2385 143.108 48.2385 141.686C48.2385 140.282 47.4375 139.391 46.1775 139.391C44.9265 139.391 44.1345 140.282 44.1345 141.686ZM53.2357 144.98C51.3007 144.98 50.0677 143.657 50.0677 141.686C50.0677 139.778 51.2737 138.419 53.2357 138.419C54.8737 138.419 55.9987 139.373 56.2687 140.984H55.1617C54.9637 139.994 54.2347 139.391 53.2357 139.391C51.9667 139.391 51.1747 140.282 51.1747 141.686C51.1747 143.126 51.9667 144.008 53.2357 144.008C54.2527 144.008 54.9637 143.423 55.1617 142.424H56.2687C55.9807 144.062 54.8827 144.98 53.2357 144.98ZM59.1061 144.26C59.1061 141.848 62.3101 141.965 62.3101 140.372C62.3101 139.787 61.9051 139.391 61.2841 139.391C60.6271 139.391 60.1141 139.832 60.0961 140.642H58.9621C59.0611 139.22 60.0331 138.419 61.3021 138.419C62.5621 138.419 63.4081 139.193 63.4081 140.336C63.4081 142.415 60.5911 142.415 60.3301 143.882H63.2911V144.854H59.1061V144.26ZM68.0882 144.854V139.526H65.9822V138.554H71.2652V139.526H69.1682V144.854H68.0882ZM71.5677 146.654V145.754H72.4317C72.8277 145.754 73.0437 145.61 73.1337 145.349L73.3227 144.854H73.1247L71.2347 140.084H72.3777L73.7457 143.702L75.0867 140.084H76.1937L74.1147 145.673C73.8717 146.312 73.3677 146.654 72.4317 146.654H71.5677ZM76.861 146.654V140.084H77.716L77.824 140.867C78.139 140.309 78.76 139.94 79.516 139.94C80.776 139.94 81.667 140.966 81.667 142.442C81.667 143.945 80.776 144.98 79.507 144.98C78.823 144.98 78.256 144.683 77.932 144.188V146.654H76.861ZM77.932 142.415C77.932 143.396 78.481 144.089 79.273 144.089C80.047 144.089 80.578 143.414 80.578 142.442C80.578 141.497 80.047 140.84 79.264 140.84C78.481 140.84 77.932 141.488 77.932 142.415ZM84.6996 144.98C83.2416 144.98 82.2426 143.945 82.2426 142.487C82.2426 140.912 83.2776 139.94 84.6096 139.94C85.9596 139.94 86.8596 140.885 86.8866 142.433V142.685H83.3046C83.3766 143.522 83.8986 144.089 84.7086 144.089C85.2576 144.089 85.6716 143.819 85.8336 143.342H86.8686C86.6256 144.368 85.8246 144.98 84.6996 144.98ZM83.3496 141.938H85.7886C85.6536 141.254 85.2306 140.84 84.6096 140.84C83.9796 140.84 83.5116 141.254 83.3496 141.938ZM89.7923 144.854V138.554H90.8723V144.854H89.7923ZM92.1741 144.854V138.554H93.2541V144.854H92.1741Z" fill="#102825"/>
</svg>
