<svg width="1458" height="476" viewBox="0 0 1458 476" fill="none" xmlns="http://www.w3.org/2000/svg">
<path d="M1.5 396V425" stroke="#97BFBF" stroke-width="3"/>
<path d="M366.15 396V425" stroke="#97BFBF" stroke-width="3"/>
<path d="M730.801 396V425" stroke="#97BFBF" stroke-width="3"/>
<path d="M1095.34 329V425" stroke="#97BFBF" stroke-width="3"/>
<path d="M14.9434 396V425" stroke="#97BFBF" stroke-width="3"/>
<path d="M379.594 396V425" stroke="#97BFBF" stroke-width="3"/>
<path d="M744.244 396V425" stroke="#97BFBF" stroke-width="3"/>
<path d="M1108.34 287V425" stroke="#97BFBF" stroke-width="3"/>
<path d="M27.5469 396V425" stroke="#97BFBF" stroke-width="3"/>
<path d="M392.197 396V425" stroke="#97BFBF" stroke-width="3"/>
<path d="M756.848 396V425" stroke="#97BFBF" stroke-width="3"/>
<path d="M1121.34 287V425" stroke="#97BFBF" stroke-width="3"/>
<path d="M40.9902 396V425" stroke="#97BFBF" stroke-width="3"/>
<path d="M405.641 396V425" stroke="#97BFBF" stroke-width="3"/>
<path d="M770.291 396V425" stroke="#97BFBF" stroke-width="3"/>
<path d="M1134.34 287V425" stroke="#97BFBF" stroke-width="3"/>
<path d="M53.5938 396V425" stroke="#97BFBF" stroke-width="3"/>
<path d="M418.244 396V425" stroke="#97BFBF" stroke-width="3"/>
<path d="M782.895 396V425" stroke="#97BFBF" stroke-width="3"/>
<path d="M1147.34 287V425" stroke="#97BFBF" stroke-width="3"/>
<path d="M67.0371 396V425" stroke="#97BFBF" stroke-width="3"/>
<path d="M431.688 396V425" stroke="#97BFBF" stroke-width="3"/>
<path d="M796.338 396V425" stroke="#97BFBF" stroke-width="3"/>
<path d="M1160.34 236V425" stroke="#97BFBF" stroke-width="3"/>
<path d="M79.6387 396V425" stroke="#97BFBF" stroke-width="3"/>
<path d="M444.291 396V425" stroke="#97BFBF" stroke-width="3"/>
<path d="M808.941 396V425" stroke="#97BFBF" stroke-width="3"/>
<path d="M1173.34 236V425" stroke="#97BFBF" stroke-width="3"/>
<path d="M93.082 396V425" stroke="#97BFBF" stroke-width="3"/>
<path d="M457.734 396V425" stroke="#97BFBF" stroke-width="3"/>
<path d="M822.385 396V425" stroke="#97BFBF" stroke-width="3"/>
<path d="M1187.34 236V425" stroke="#97BFBF" stroke-width="3"/>
<path d="M105.686 396V425" stroke="#97BFBF" stroke-width="3"/>
<path d="M470.336 396V425" stroke="#97BFBF" stroke-width="3"/>
<path d="M834.988 396V425" stroke="#97BFBF" stroke-width="3"/>
<path d="M1199.34 236V425" stroke="#97BFBF" stroke-width="3"/>
<path d="M119.129 396V425" stroke="#97BFBF" stroke-width="3"/>
<path d="M483.779 396V425" stroke="#97BFBF" stroke-width="3"/>
<path d="M848.432 396V425" stroke="#97BFBF" stroke-width="3"/>
<path d="M1213.34 187V425" stroke="#97BFBF" stroke-width="3"/>
<path d="M131.732 396V425" stroke="#97BFBF" stroke-width="3"/>
<path d="M496.383 396V425" stroke="#97BFBF" stroke-width="3"/>
<path d="M861.033 396V425" stroke="#97BFBF" stroke-width="3"/>
<path d="M1225.34 187V425" stroke="#97BFBF" stroke-width="3"/>
<path d="M145.176 396V425" stroke="#97BFBF" stroke-width="3"/>
<path d="M509.826 396V425" stroke="#97BFBF" stroke-width="3"/>
<path d="M874.477 396V425" stroke="#97BFBF" stroke-width="3"/>
<path d="M1239.34 187V425" stroke="#97BFBF" stroke-width="3"/>
<path d="M157.779 396V425" stroke="#97BFBF" stroke-width="3"/>
<path d="M522.43 396V425" stroke="#97BFBF" stroke-width="3"/>
<path d="M887.08 396V425" stroke="#97BFBF" stroke-width="3"/>
<path d="M1251.34 187V425" stroke="#97BFBF" stroke-width="3"/>
<path d="M171.223 396V425" stroke="#97BFBF" stroke-width="3"/>
<path d="M535.873 396V425" stroke="#97BFBF" stroke-width="3"/>
<path d="M900.523 396V425" stroke="#97BFBF" stroke-width="3"/>
<path d="M1265.34 147V425" stroke="#97BFBF" stroke-width="3"/>
<path d="M183.826 396V425" stroke="#97BFBF" stroke-width="3"/>
<path d="M548.477 396V425" stroke="#97BFBF" stroke-width="3"/>
<path d="M913.127 396V425" stroke="#97BFBF" stroke-width="3"/>
<path d="M1277.34 147V425" stroke="#97BFBF" stroke-width="3"/>
<path d="M197.27 396V425" stroke="#97BFBF" stroke-width="3"/>
<path d="M561.92 396V425" stroke="#97BFBF" stroke-width="3"/>
<path d="M926.57 396V425" stroke="#97BFBF" stroke-width="3"/>
<path d="M1291.34 147V425" stroke="#97BFBF" stroke-width="3"/>
<path d="M209.871 396V425" stroke="#97BFBF" stroke-width="3"/>
<path d="M574.523 396V425" stroke="#97BFBF" stroke-width="3"/>
<path d="M939.336 368V425" stroke="#97BFBF" stroke-width="3"/>
<path d="M1303.34 147V425" stroke="#97BFBF" stroke-width="3"/>
<path d="M223.314 396V425" stroke="#97BFBF" stroke-width="3"/>
<path d="M587.967 396V425" stroke="#97BFBF" stroke-width="3"/>
<path d="M952.336 368V425" stroke="#97BFBF" stroke-width="3"/>
<path d="M1317.34 88V425" stroke="#97BFBF" stroke-width="3"/>
<path d="M235.918 396V425" stroke="#97BFBF" stroke-width="3"/>
<path d="M600.568 396V425" stroke="#97BFBF" stroke-width="3"/>
<path d="M965.336 368V425" stroke="#97BFBF" stroke-width="3"/>
<path d="M1329.34 88V425" stroke="#97BFBF" stroke-width="3"/>
<path d="M249.361 396V425" stroke="#97BFBF" stroke-width="3"/>
<path d="M614.012 396V425" stroke="#97BFBF" stroke-width="3"/>
<path d="M978.336 368V425" stroke="#97BFBF" stroke-width="3"/>
<path d="M1343.34 88V425" stroke="#97BFBF" stroke-width="3"/>
<path d="M261.965 396V425" stroke="#97BFBF" stroke-width="3"/>
<path d="M626.615 396V425" stroke="#97BFBF" stroke-width="3"/>
<path d="M991.336 368V425" stroke="#97BFBF" stroke-width="3"/>
<path d="M1355.34 88V425" stroke="#97BFBF" stroke-width="3"/>
<path d="M275.408 396V425" stroke="#97BFBF" stroke-width="3"/>
<path d="M640.059 396V425" stroke="#97BFBF" stroke-width="3"/>
<path d="M1004.34 368V425" stroke="#97BFBF" stroke-width="3"/>
<path d="M1369.34 36V425" stroke="#97BFBF" stroke-width="3"/>
<path d="M288.012 396V425" stroke="#97BFBF" stroke-width="3"/>
<path d="M652.662 396V425" stroke="#97BFBF" stroke-width="3"/>
<path d="M1017.34 329V425" stroke="#97BFBF" stroke-width="3"/>
<path d="M1381.34 36V425" stroke="#97BFBF" stroke-width="3"/>
<path d="M301.455 396V425" stroke="#97BFBF" stroke-width="3"/>
<path d="M666.105 396V425" stroke="#97BFBF" stroke-width="3"/>
<path d="M1030.34 329V425" stroke="#97BFBF" stroke-width="3"/>
<path d="M1395.34 36V425" stroke="#97BFBF" stroke-width="3"/>
<path d="M314.059 396V425" stroke="#97BFBF" stroke-width="3"/>
<path d="M678.709 396V425" stroke="#97BFBF" stroke-width="3"/>
<path d="M1043.34 329V425" stroke="#97BFBF" stroke-width="3"/>
<path d="M1408.34 0V425" stroke="#97BFBF" stroke-width="3"/>
<path d="M327.502 396V425" stroke="#97BFBF" stroke-width="3"/>
<path d="M692.152 396V425" stroke="#97BFBF" stroke-width="3"/>
<path d="M1056.34 329V425" stroke="#97BFBF" stroke-width="3"/>
<path d="M1421.34 0V425" stroke="#97BFBF" stroke-width="3"/>
<path d="M340.104 396V425" stroke="#97BFBF" stroke-width="3"/>
<path d="M704.756 396V425" stroke="#97BFBF" stroke-width="3"/>
<path d="M1069.34 329V425" stroke="#97BFBF" stroke-width="3"/>
<path d="M1434.34 0V425" stroke="#97BFBF" stroke-width="3"/>
<path d="M353.547 396V425" stroke="#97BFBF" stroke-width="3"/>
<path d="M718.199 396V425" stroke="#97BFBF" stroke-width="3"/>
<path d="M1082.34 329V425" stroke="#97BFBF" stroke-width="3"/>
<path d="M1447.34 0V425" stroke="#97BFBF" stroke-width="3"/>
<path d="M868.247 447.393H871.319C872.151 447.393 872.895 447.569 873.551 447.921C874.207 448.273 874.715 448.765 875.075 449.397C875.443 450.021 875.627 450.737 875.627 451.545C875.627 452.369 875.443 453.105 875.075 453.753C874.715 454.393 874.207 454.893 873.551 455.253C872.895 455.613 872.151 455.793 871.319 455.793H868.247V447.393ZM871.427 454.305C871.907 454.305 872.335 454.189 872.711 453.957C873.087 453.725 873.379 453.401 873.587 452.985C873.803 452.561 873.911 452.081 873.911 451.545C873.911 451.033 873.803 450.573 873.587 450.165C873.379 449.757 873.087 449.441 872.711 449.217C872.335 448.985 871.907 448.869 871.427 448.869H869.903V454.305H871.427ZM879.705 455.985C879.057 455.985 878.477 455.845 877.965 455.565C877.461 455.277 877.069 454.881 876.789 454.377C876.509 453.865 876.369 453.285 876.369 452.637C876.369 451.965 876.505 451.373 876.777 450.861C877.057 450.341 877.441 449.941 877.929 449.661C878.417 449.373 878.969 449.229 879.585 449.229C880.193 449.229 880.729 449.365 881.193 449.637C881.657 449.909 882.021 450.301 882.285 450.813C882.549 451.317 882.685 451.909 882.693 452.589V452.973H877.977C878.041 453.469 878.229 453.869 878.541 454.173C878.853 454.477 879.245 454.629 879.717 454.629C880.053 454.629 880.337 454.557 880.569 454.413C880.809 454.261 880.981 454.045 881.085 453.765H882.669C882.493 454.469 882.145 455.017 881.625 455.409C881.105 455.793 880.465 455.985 879.705 455.985ZM881.013 451.881C880.925 451.473 880.757 451.157 880.509 450.933C880.261 450.709 879.953 450.597 879.585 450.597C879.209 450.597 878.885 450.713 878.613 450.945C878.341 451.169 878.153 451.481 878.049 451.881H881.013ZM886.69 455.985C886.01 455.985 885.418 455.841 884.914 455.553C884.41 455.257 884.022 454.849 883.75 454.329C883.486 453.809 883.354 453.221 883.354 452.565C883.354 451.893 883.494 451.305 883.774 450.801C884.062 450.297 884.454 449.909 884.95 449.637C885.454 449.365 886.026 449.229 886.666 449.229C887.258 449.229 887.782 449.341 888.238 449.565C888.694 449.789 889.054 450.105 889.318 450.513C889.582 450.913 889.726 451.373 889.75 451.893H888.154C888.098 451.501 887.934 451.189 887.662 450.957C887.39 450.717 887.054 450.597 886.654 450.597C886.158 450.597 885.758 450.777 885.454 451.137C885.15 451.489 884.998 451.965 884.998 452.565C884.998 453.189 885.154 453.685 885.466 454.053C885.778 454.421 886.186 454.605 886.69 454.605C887.082 454.605 887.406 454.489 887.662 454.257C887.926 454.017 888.09 453.693 888.154 453.285H889.75C889.67 454.109 889.354 454.765 888.802 455.253C888.25 455.741 887.546 455.985 886.69 455.985ZM893.744 455.985C893.096 455.985 892.516 455.845 892.004 455.565C891.5 455.277 891.108 454.881 890.828 454.377C890.548 453.865 890.408 453.285 890.408 452.637C890.408 451.965 890.544 451.373 890.816 450.861C891.096 450.341 891.48 449.941 891.968 449.661C892.456 449.373 893.008 449.229 893.624 449.229C894.232 449.229 894.768 449.365 895.232 449.637C895.696 449.909 896.06 450.301 896.324 450.813C896.588 451.317 896.724 451.909 896.732 452.589V452.973H892.016C892.08 453.469 892.268 453.869 892.58 454.173C892.892 454.477 893.284 454.629 893.756 454.629C894.092 454.629 894.376 454.557 894.608 454.413C894.848 454.261 895.02 454.045 895.124 453.765H896.708C896.532 454.469 896.184 455.017 895.664 455.409C895.144 455.793 894.504 455.985 893.744 455.985ZM895.052 451.881C894.964 451.473 894.796 451.157 894.548 450.933C894.3 450.709 893.992 450.597 893.624 450.597C893.248 450.597 892.924 450.713 892.652 450.945C892.38 451.169 892.192 451.481 892.088 451.881H895.052ZM897.717 449.433H899.037L899.157 450.285C899.349 449.973 899.629 449.721 899.997 449.529C900.365 449.329 900.781 449.229 901.245 449.229C901.693 449.229 902.081 449.329 902.409 449.529C902.737 449.729 902.989 450.013 903.165 450.381C903.349 450.045 903.629 449.769 904.005 449.553C904.389 449.337 904.825 449.229 905.313 449.229C905.969 449.229 906.493 449.445 906.885 449.877C907.285 450.301 907.485 450.869 907.485 451.581V455.793H905.853V451.653C905.853 451.341 905.761 451.093 905.577 450.909C905.401 450.717 905.161 450.621 904.857 450.621C904.433 450.621 904.085 450.745 903.813 450.993C903.549 451.241 903.417 451.557 903.417 451.941V455.793H901.785V451.653C901.785 451.341 901.693 451.093 901.509 450.909C901.333 450.717 901.093 450.621 900.789 450.621C900.365 450.621 900.021 450.745 899.757 450.993C899.493 451.241 899.361 451.557 899.361 451.941V455.793H897.717V449.433ZM912.417 455.985C911.913 455.985 911.465 455.873 911.073 455.649C910.681 455.417 910.393 455.101 910.209 454.701L910.053 455.793H908.745V446.793H910.377V450.177C910.601 449.881 910.893 449.649 911.253 449.481C911.613 449.313 912.005 449.229 912.429 449.229C912.981 449.229 913.477 449.373 913.917 449.661C914.357 449.941 914.697 450.337 914.937 450.849C915.185 451.353 915.309 451.929 915.309 452.577C915.309 453.241 915.185 453.833 914.937 454.353C914.689 454.865 914.345 455.265 913.905 455.553C913.473 455.841 912.977 455.985 912.417 455.985ZM910.377 452.553C910.377 453.169 910.529 453.669 910.833 454.053C911.137 454.437 911.533 454.629 912.021 454.629C912.501 454.629 912.889 454.441 913.185 454.065C913.489 453.681 913.641 453.189 913.641 452.589C913.641 451.997 913.489 451.517 913.185 451.149C912.889 450.773 912.501 450.585 912.021 450.585C911.533 450.585 911.137 450.769 910.833 451.137C910.529 451.497 910.377 451.969 910.377 452.553ZM919.303 455.985C918.655 455.985 918.075 455.845 917.563 455.565C917.059 455.277 916.667 454.881 916.387 454.377C916.107 453.865 915.967 453.285 915.967 452.637C915.967 451.965 916.103 451.373 916.375 450.861C916.655 450.341 917.039 449.941 917.527 449.661C918.015 449.373 918.567 449.229 919.183 449.229C919.791 449.229 920.327 449.365 920.791 449.637C921.255 449.909 921.619 450.301 921.883 450.813C922.147 451.317 922.283 451.909 922.291 452.589V452.973H917.575C917.639 453.469 917.827 453.869 918.139 454.173C918.451 454.477 918.843 454.629 919.315 454.629C919.651 454.629 919.935 454.557 920.167 454.413C920.407 454.261 920.579 454.045 920.683 453.765H922.267C922.091 454.469 921.743 455.017 921.223 455.409C920.703 455.793 920.063 455.985 919.303 455.985ZM920.611 451.881C920.523 451.473 920.355 451.157 920.107 450.933C919.859 450.709 919.551 450.597 919.183 450.597C918.807 450.597 918.483 450.713 918.211 450.945C917.939 451.169 917.751 451.481 917.647 451.881H920.611ZM923.275 449.433H924.595L924.799 450.705C925.007 450.257 925.295 449.921 925.663 449.697C926.031 449.465 926.475 449.349 926.995 449.349H927.259V450.933H926.995C926.339 450.933 925.827 451.093 925.459 451.413C925.099 451.733 924.919 452.181 924.919 452.757V455.793H923.275V449.433ZM930.599 455.001C930.599 454.433 930.715 453.949 930.947 453.549C931.179 453.149 931.455 452.829 931.775 452.589C932.103 452.341 932.531 452.065 933.059 451.761C933.459 451.529 933.767 451.337 933.983 451.185C934.207 451.033 934.395 450.849 934.547 450.633C934.699 450.417 934.775 450.169 934.775 449.889C934.775 449.529 934.659 449.237 934.427 449.013C934.203 448.789 933.907 448.677 933.539 448.677C933.139 448.677 932.807 448.813 932.543 449.085C932.279 449.349 932.143 449.709 932.135 450.165H930.395C930.443 449.549 930.607 449.021 930.887 448.581C931.175 448.133 931.551 447.793 932.015 447.561C932.479 447.321 933.003 447.201 933.587 447.201C934.155 447.201 934.655 447.313 935.087 447.537C935.527 447.753 935.867 448.061 936.107 448.461C936.347 448.853 936.467 449.309 936.467 449.829C936.467 450.309 936.363 450.725 936.155 451.077C935.955 451.421 935.707 451.705 935.411 451.929C935.123 452.153 934.735 452.409 934.247 452.697C933.743 453.001 933.355 453.265 933.083 453.489C932.811 453.713 932.627 453.985 932.531 454.305H936.287V455.793H930.599V455.001ZM940.693 455.985C940.021 455.985 939.425 455.805 938.905 455.445C938.393 455.085 937.993 454.573 937.705 453.909C937.425 453.237 937.285 452.457 937.285 451.569C937.285 450.705 937.425 449.945 937.705 449.289C937.985 448.625 938.381 448.113 938.893 447.753C939.413 447.385 940.013 447.201 940.693 447.201C941.365 447.201 941.957 447.381 942.469 447.741C942.981 448.101 943.377 448.613 943.657 449.277C943.945 449.933 944.089 450.697 944.089 451.569C944.089 452.441 943.949 453.213 943.669 453.885C943.397 454.549 943.001 455.065 942.481 455.433C941.969 455.801 941.373 455.985 940.693 455.985ZM938.953 451.569C938.953 452.449 939.109 453.153 939.421 453.681C939.741 454.209 940.165 454.473 940.693 454.473C941.221 454.473 941.641 454.209 941.953 453.681C942.265 453.153 942.421 452.449 942.421 451.569C942.421 450.697 942.265 450.005 941.953 449.493C941.641 448.973 941.221 448.713 940.693 448.713C940.165 448.713 939.741 448.973 939.421 449.493C939.109 450.005 938.953 450.697 938.953 451.569ZM944.966 455.001C944.966 454.433 945.082 453.949 945.314 453.549C945.546 453.149 945.822 452.829 946.142 452.589C946.47 452.341 946.898 452.065 947.426 451.761C947.826 451.529 948.134 451.337 948.35 451.185C948.574 451.033 948.762 450.849 948.914 450.633C949.066 450.417 949.142 450.169 949.142 449.889C949.142 449.529 949.026 449.237 948.794 449.013C948.57 448.789 948.274 448.677 947.906 448.677C947.506 448.677 947.174 448.813 946.91 449.085C946.646 449.349 946.51 449.709 946.502 450.165H944.762C944.81 449.549 944.974 449.021 945.254 448.581C945.542 448.133 945.918 447.793 946.382 447.561C946.846 447.321 947.37 447.201 947.954 447.201C948.522 447.201 949.022 447.313 949.454 447.537C949.894 447.753 950.234 448.061 950.474 448.461C950.714 448.853 950.834 449.309 950.834 449.829C950.834 450.309 950.73 450.725 950.522 451.077C950.322 451.421 950.074 451.705 949.778 451.929C949.49 452.153 949.102 452.409 948.614 452.697C948.11 453.001 947.722 453.265 947.45 453.489C947.178 453.713 946.994 453.985 946.898 454.305H950.654V455.793H944.966V455.001ZM954.978 456.009C954.386 456.009 953.85 455.897 953.37 455.673C952.89 455.441 952.498 455.117 952.194 454.701C951.898 454.277 951.714 453.781 951.642 453.213H953.394C953.458 453.597 953.638 453.909 953.934 454.149C954.23 454.389 954.582 454.509 954.99 454.509C955.446 454.509 955.806 454.365 956.07 454.077C956.334 453.789 956.466 453.441 956.466 453.033C956.466 452.625 956.334 452.281 956.07 452.001C955.814 451.713 955.458 451.569 955.002 451.569C954.514 451.569 954.078 451.761 953.694 452.145H951.858L952.614 447.393H957.726V448.893H953.994L953.634 451.065C953.866 450.809 954.146 450.609 954.474 450.465C954.802 450.313 955.162 450.237 955.554 450.237C956.05 450.237 956.49 450.357 956.874 450.597C957.266 450.829 957.57 451.157 957.786 451.581C958.01 451.997 958.122 452.473 958.122 453.009C958.122 453.601 957.99 454.125 957.726 454.581C957.462 455.029 957.09 455.381 956.61 455.637C956.138 455.885 955.594 456.009 954.978 456.009ZM803.695 464.317H800.791V463.393H807.607V464.317H804.703V471.793H803.695V464.317ZM810.452 471.925C809.836 471.925 809.288 471.785 808.808 471.505C808.336 471.225 807.968 470.837 807.704 470.341C807.448 469.837 807.32 469.269 807.32 468.637C807.32 467.941 807.456 467.341 807.728 466.837C808 466.325 808.364 465.941 808.82 465.685C809.284 465.421 809.788 465.289 810.332 465.289C811.212 465.289 811.912 465.573 812.432 466.141C812.96 466.709 813.232 467.497 813.248 468.505V468.781H808.316C808.348 469.469 808.552 470.021 808.928 470.437C809.312 470.853 809.82 471.061 810.452 471.061C810.9 471.061 811.28 470.953 811.592 470.737C811.904 470.513 812.124 470.197 812.252 469.789H813.224C813.08 470.445 812.76 470.965 812.264 471.349C811.776 471.733 811.172 471.925 810.452 471.925ZM812.204 467.953C812.116 467.393 811.908 466.953 811.58 466.633C811.252 466.313 810.836 466.153 810.332 466.153C809.828 466.153 809.4 466.313 809.048 466.633C808.704 466.945 808.48 467.385 808.376 467.953H812.204ZM816.934 471.925C816.166 471.925 815.53 471.737 815.026 471.361C814.53 470.977 814.262 470.453 814.222 469.789H815.194C815.226 470.189 815.406 470.505 815.734 470.737C816.07 470.961 816.486 471.073 816.982 471.073C817.87 471.073 818.314 470.745 818.314 470.089C818.314 469.897 818.266 469.745 818.17 469.633C818.082 469.521 817.97 469.437 817.834 469.381C817.698 469.317 817.482 469.233 817.186 469.129L816.262 468.817C815.83 468.673 815.494 468.545 815.254 468.433C815.014 468.321 814.81 468.157 814.642 467.941C814.474 467.717 814.39 467.425 814.39 467.065C814.39 466.521 814.59 466.089 814.99 465.769C815.39 465.449 815.934 465.289 816.622 465.289C817.334 465.289 817.914 465.477 818.362 465.853C818.81 466.229 819.074 466.765 819.154 467.461H818.182C818.126 467.029 817.958 466.701 817.678 466.477C817.398 466.253 817.034 466.141 816.586 466.141C816.202 466.141 815.898 466.221 815.674 466.381C815.458 466.541 815.35 466.761 815.35 467.041C815.35 467.297 815.438 467.485 815.614 467.605C815.79 467.725 815.978 467.817 816.178 467.881C816.378 467.945 816.51 467.989 816.574 468.013L817.438 468.301C818.086 468.517 818.558 468.753 818.854 469.009C819.15 469.265 819.298 469.641 819.298 470.137C819.298 470.705 819.094 471.145 818.686 471.457C818.286 471.769 817.702 471.925 816.934 471.925ZM822.963 471.793C822.347 471.793 821.875 471.641 821.547 471.337C821.227 471.025 821.067 470.573 821.067 469.981V466.273H819.891V465.433H821.067V463.261H822.063V465.433H823.779V466.273H822.063V469.981C822.063 470.301 822.139 470.545 822.291 470.713C822.443 470.873 822.667 470.953 822.963 470.953H823.671V471.793H822.963ZM824.953 465.433H825.745L825.841 466.405C826.057 466.061 826.361 465.789 826.753 465.589C827.153 465.389 827.585 465.289 828.049 465.289C828.737 465.289 829.289 465.497 829.705 465.913C830.121 466.329 830.329 466.885 830.329 467.581V471.793H829.333V467.617C829.333 467.169 829.197 466.817 828.925 466.561C828.653 466.297 828.277 466.165 827.797 466.165C827.245 466.165 826.801 466.333 826.465 466.669C826.129 467.005 825.957 467.425 825.949 467.929V471.793H824.953V465.433ZM834.698 471.925C834.082 471.925 833.534 471.785 833.054 471.505C832.582 471.225 832.214 470.837 831.95 470.341C831.694 469.837 831.566 469.269 831.566 468.637C831.566 467.941 831.702 467.341 831.974 466.837C832.246 466.325 832.61 465.941 833.066 465.685C833.53 465.421 834.034 465.289 834.578 465.289C835.458 465.289 836.158 465.573 836.678 466.141C837.206 466.709 837.478 467.497 837.494 468.505V468.781H832.562C832.594 469.469 832.798 470.021 833.174 470.437C833.558 470.853 834.066 471.061 834.698 471.061C835.146 471.061 835.526 470.953 835.838 470.737C836.15 470.513 836.37 470.197 836.498 469.789H837.47C837.326 470.445 837.006 470.965 836.51 471.349C836.022 471.733 835.418 471.925 834.698 471.925ZM836.45 467.953C836.362 467.393 836.154 466.953 835.826 466.633C835.498 466.313 835.082 466.153 834.578 466.153C834.074 466.153 833.646 466.313 833.294 466.633C832.95 466.945 832.726 467.385 832.622 467.953H836.45ZM841.244 471.793C840.628 471.793 840.156 471.641 839.828 471.337C839.508 471.025 839.348 470.573 839.348 469.981V466.273H838.172V465.433H839.348V463.261H840.344V465.433H842.06V466.273H840.344V469.981C840.344 470.301 840.42 470.545 840.572 470.713C840.724 470.873 840.948 470.953 841.244 470.953H841.952V471.793H841.244ZM848.497 471.925C847.937 471.925 847.437 471.785 846.997 471.505C846.557 471.217 846.213 470.821 845.965 470.317C845.725 469.813 845.605 469.233 845.605 468.577C845.605 467.937 845.725 467.369 845.965 466.873C846.213 466.369 846.553 465.981 846.985 465.709C847.425 465.429 847.925 465.289 848.485 465.289C848.957 465.289 849.385 465.385 849.769 465.577C850.161 465.769 850.473 466.037 850.705 466.381V462.793H851.701V471.793H850.909L850.801 470.569C850.585 470.985 850.273 471.317 849.865 471.565C849.465 471.805 849.009 471.925 848.497 471.925ZM846.637 468.577C846.637 469.057 846.721 469.485 846.889 469.861C847.065 470.237 847.305 470.533 847.609 470.749C847.913 470.957 848.261 471.061 848.653 471.061C849.053 471.061 849.409 470.957 849.721 470.749C850.033 470.533 850.273 470.237 850.441 469.861C850.617 469.477 850.705 469.041 850.705 468.553C850.705 468.081 850.621 467.665 850.453 467.305C850.285 466.937 850.049 466.653 849.745 466.453C849.441 466.245 849.097 466.141 848.713 466.141C848.313 466.141 847.953 466.245 847.633 466.453C847.321 466.653 847.077 466.941 846.901 467.317C846.725 467.685 846.637 468.105 846.637 468.577ZM856.179 471.925C855.563 471.925 855.015 471.785 854.535 471.505C854.063 471.225 853.695 470.837 853.431 470.341C853.175 469.837 853.047 469.269 853.047 468.637C853.047 467.941 853.183 467.341 853.455 466.837C853.727 466.325 854.091 465.941 854.547 465.685C855.011 465.421 855.515 465.289 856.059 465.289C856.939 465.289 857.639 465.573 858.159 466.141C858.687 466.709 858.959 467.497 858.975 468.505V468.781H854.043C854.075 469.469 854.279 470.021 854.655 470.437C855.039 470.853 855.547 471.061 856.179 471.061C856.627 471.061 857.007 470.953 857.319 470.737C857.631 470.513 857.851 470.197 857.979 469.789H858.951C858.807 470.445 858.487 470.965 857.991 471.349C857.503 471.733 856.899 471.925 856.179 471.925ZM857.931 467.953C857.843 467.393 857.635 466.953 857.307 466.633C856.979 466.313 856.563 466.153 856.059 466.153C855.555 466.153 855.127 466.313 854.775 466.633C854.431 466.945 854.207 467.385 854.103 467.953H857.931ZM860.309 465.433H861.101L861.209 466.585C861.441 466.185 861.757 465.869 862.157 465.637C862.565 465.405 863.025 465.289 863.537 465.289C864.089 465.289 864.581 465.429 865.013 465.709C865.453 465.981 865.793 466.369 866.033 466.873C866.273 467.369 866.393 467.937 866.393 468.577C866.393 469.225 866.273 469.805 866.033 470.317C865.793 470.821 865.453 471.217 865.013 471.505C864.581 471.785 864.089 471.925 863.537 471.925C863.057 471.925 862.621 471.821 862.229 471.613C861.845 471.405 861.537 471.113 861.305 470.737V474.193H860.309V465.433ZM861.305 468.529C861.305 469.017 861.393 469.453 861.569 469.837C861.745 470.221 861.989 470.521 862.301 470.737C862.621 470.953 862.981 471.061 863.381 471.061C863.765 471.061 864.105 470.957 864.401 470.749C864.705 470.541 864.941 470.249 865.109 469.873C865.277 469.489 865.361 469.057 865.361 468.577C865.361 468.105 865.277 467.685 865.109 467.317C864.941 466.949 864.705 466.665 864.401 466.465C864.105 466.257 863.761 466.153 863.369 466.153C862.969 466.153 862.613 466.253 862.301 466.453C861.989 466.653 861.745 466.933 861.569 467.293C861.393 467.653 861.305 468.065 861.305 468.529ZM867.739 462.793H868.735V471.793H867.739V462.793ZM873.194 471.925C872.53 471.925 871.962 471.781 871.49 471.493C871.026 471.197 870.674 470.797 870.434 470.293C870.194 469.781 870.074 469.201 870.074 468.553C870.074 467.865 870.21 467.277 870.482 466.789C870.762 466.293 871.138 465.921 871.61 465.673C872.082 465.417 872.61 465.289 873.194 465.289C873.85 465.289 874.41 465.433 874.874 465.721C875.346 466.009 875.702 466.401 875.942 466.897C876.19 467.393 876.314 467.945 876.314 468.553C876.314 469.265 876.178 469.877 875.906 470.389C875.642 470.893 875.274 471.277 874.802 471.541C874.33 471.797 873.794 471.925 873.194 471.925ZM871.094 468.553C871.094 469.081 871.186 469.533 871.37 469.909C871.562 470.285 871.814 470.573 872.126 470.773C872.446 470.965 872.802 471.061 873.194 471.061C873.634 471.061 874.01 470.949 874.322 470.725C874.642 470.501 874.882 470.201 875.042 469.825C875.21 469.441 875.294 469.017 875.294 468.553C875.294 467.833 875.102 467.253 874.718 466.813C874.334 466.373 873.826 466.153 873.194 466.153C872.562 466.153 872.054 466.373 871.67 466.813C871.286 467.253 871.094 467.833 871.094 468.553ZM877.13 473.353H878.15C878.462 473.353 878.698 473.301 878.858 473.197C879.018 473.101 879.138 472.949 879.218 472.741L879.566 471.793H879.326L876.806 465.433H877.874L879.938 470.797L881.93 465.433H882.95L880.094 473.125C879.958 473.477 879.734 473.741 879.422 473.917C879.11 474.101 878.686 474.193 878.15 474.193H877.13V473.353ZM884.004 465.433H884.796L884.892 466.417C885.108 466.073 885.408 465.801 885.792 465.601C886.184 465.393 886.608 465.289 887.064 465.289C887.536 465.289 887.944 465.401 888.288 465.625C888.64 465.849 888.9 466.157 889.068 466.549C889.276 466.173 889.584 465.869 889.992 465.637C890.4 465.405 890.844 465.289 891.324 465.289C891.764 465.289 892.152 465.385 892.488 465.577C892.824 465.769 893.08 466.037 893.256 466.381C893.44 466.717 893.532 467.101 893.532 467.533V471.793H892.536V467.569C892.536 467.145 892.412 466.805 892.164 466.549C891.916 466.293 891.58 466.165 891.156 466.165C890.58 466.165 890.12 466.333 889.776 466.669C889.44 467.005 889.268 467.425 889.26 467.929V471.793H888.276V467.569C888.276 467.145 888.152 466.805 887.904 466.549C887.656 466.293 887.32 466.165 886.896 466.165C886.32 466.165 885.86 466.333 885.516 466.669C885.18 467.005 885.008 467.425 885 467.929V471.793H884.004V465.433ZM897.897 471.925C897.281 471.925 896.733 471.785 896.253 471.505C895.781 471.225 895.413 470.837 895.149 470.341C894.893 469.837 894.765 469.269 894.765 468.637C894.765 467.941 894.901 467.341 895.173 466.837C895.445 466.325 895.809 465.941 896.265 465.685C896.729 465.421 897.233 465.289 897.777 465.289C898.657 465.289 899.357 465.573 899.877 466.141C900.405 466.709 900.677 467.497 900.693 468.505V468.781H895.761C895.793 469.469 895.997 470.021 896.373 470.437C896.757 470.853 897.265 471.061 897.897 471.061C898.345 471.061 898.725 470.953 899.037 470.737C899.349 470.513 899.569 470.197 899.697 469.789H900.669C900.525 470.445 900.205 470.965 899.709 471.349C899.221 471.733 898.617 471.925 897.897 471.925ZM899.649 467.953C899.561 467.393 899.353 466.953 899.025 466.633C898.697 466.313 898.281 466.153 897.777 466.153C897.273 466.153 896.845 466.313 896.493 466.633C896.149 466.945 895.925 467.385 895.821 467.953H899.649ZM902.004 465.433H902.796L902.892 466.405C903.108 466.061 903.412 465.789 903.804 465.589C904.204 465.389 904.636 465.289 905.1 465.289C905.788 465.289 906.34 465.497 906.756 465.913C907.172 466.329 907.38 466.885 907.38 467.581V471.793H906.384V467.617C906.384 467.169 906.248 466.817 905.976 466.561C905.704 466.297 905.328 466.165 904.848 466.165C904.296 466.165 903.852 466.333 903.516 466.669C903.18 467.005 903.008 467.425 903 467.929V471.793H902.004V465.433ZM911.428 471.793C910.812 471.793 910.34 471.641 910.012 471.337C909.692 471.025 909.532 470.573 909.532 469.981V466.273H908.356V465.433H909.532V463.261H910.528V465.433H912.244V466.273H910.528V469.981C910.528 470.301 910.604 470.545 910.756 470.713C910.908 470.873 911.132 470.953 911.428 470.953H912.136V471.793H911.428ZM918.069 473.353C917.461 472.673 917.001 471.889 916.689 471.001C916.377 470.105 916.221 469.153 916.221 468.145C916.221 467.121 916.377 466.145 916.689 465.217C917.001 464.281 917.461 463.445 918.069 462.709L918.861 463.021C918.285 463.693 917.853 464.465 917.565 465.337C917.277 466.201 917.133 467.117 917.133 468.085C917.133 469.045 917.281 469.957 917.577 470.821C917.873 471.677 918.309 472.429 918.885 473.077L918.069 473.353ZM923.389 471.925C922.693 471.925 922.073 471.813 921.529 471.589C920.985 471.365 920.553 471.053 920.233 470.653C919.921 470.245 919.749 469.777 919.717 469.249H920.773C920.829 469.785 921.093 470.213 921.565 470.533C922.045 470.853 922.653 471.013 923.389 471.013C924.021 471.013 924.505 470.889 924.841 470.641C925.177 470.393 925.345 470.049 925.345 469.609C925.345 469.225 925.209 468.929 924.937 468.721C924.673 468.513 924.293 468.333 923.797 468.181L922.345 467.725C922.289 467.709 922.037 467.633 921.589 467.497C921.149 467.361 920.769 467.121 920.449 466.777C920.137 466.425 919.981 466.001 919.981 465.505C919.981 465.057 920.097 464.665 920.329 464.329C920.569 463.985 920.901 463.721 921.325 463.537C921.757 463.353 922.261 463.261 922.837 463.261C923.805 463.261 924.569 463.501 925.129 463.981C925.697 464.453 926.013 465.133 926.077 466.021H925.033C924.993 465.429 924.777 464.973 924.385 464.653C923.993 464.333 923.461 464.173 922.789 464.173C922.253 464.173 921.817 464.289 921.481 464.521C921.153 464.745 920.989 465.057 920.989 465.457C920.989 465.737 921.069 465.965 921.229 466.141C921.397 466.309 921.565 466.425 921.733 466.489C921.901 466.553 922.213 466.657 922.669 466.801L924.025 467.221C924.505 467.373 924.905 467.529 925.225 467.689C925.545 467.841 925.817 468.069 926.041 468.373C926.265 468.677 926.377 469.073 926.377 469.561C926.377 470.297 926.109 470.877 925.573 471.301C925.045 471.717 924.317 471.925 923.389 471.925ZM930.499 471.925C929.835 471.925 929.267 471.781 928.795 471.493C928.331 471.197 927.979 470.797 927.739 470.293C927.499 469.781 927.379 469.201 927.379 468.553C927.379 467.865 927.515 467.277 927.787 466.789C928.067 466.293 928.443 465.921 928.915 465.673C929.387 465.417 929.915 465.289 930.499 465.289C931.155 465.289 931.715 465.433 932.179 465.721C932.651 466.009 933.007 466.401 933.247 466.897C933.495 467.393 933.619 467.945 933.619 468.553C933.619 469.265 933.483 469.877 933.211 470.389C932.947 470.893 932.579 471.277 932.107 471.541C931.635 471.797 931.099 471.925 930.499 471.925ZM928.399 468.553C928.399 469.081 928.491 469.533 928.675 469.909C928.867 470.285 929.119 470.573 929.431 470.773C929.751 470.965 930.107 471.061 930.499 471.061C930.939 471.061 931.315 470.949 931.627 470.725C931.947 470.501 932.187 470.201 932.347 469.825C932.515 469.441 932.599 469.017 932.599 468.553C932.599 467.833 932.407 467.253 932.023 466.813C931.639 466.373 931.131 466.153 930.499 466.153C929.867 466.153 929.359 466.373 928.975 466.813C928.591 467.253 928.399 467.833 928.399 468.553ZM934.957 462.793H935.953V471.793H934.957V462.793ZM939.669 471.889C938.949 471.889 938.373 471.717 937.941 471.373C937.517 471.029 937.305 470.565 937.305 469.981C937.305 469.525 937.429 469.169 937.677 468.913C937.933 468.649 938.249 468.465 938.625 468.361C939.009 468.249 939.465 468.165 939.993 468.109L940.389 468.073C940.893 468.025 941.253 467.969 941.469 467.905C941.693 467.841 941.809 467.709 941.817 467.509C941.809 467.109 941.653 466.781 941.349 466.525C941.053 466.269 940.665 466.141 940.185 466.141C939.721 466.141 939.325 466.261 938.997 466.501C938.677 466.733 938.489 467.037 938.433 467.413H937.449C937.489 467.005 937.633 466.641 937.881 466.321C938.129 465.993 938.453 465.741 938.853 465.565C939.261 465.381 939.713 465.289 940.209 465.289C940.729 465.289 941.181 465.385 941.565 465.577C941.957 465.769 942.257 466.037 942.465 466.381C942.681 466.725 942.789 467.121 942.789 467.569V470.665C942.789 470.873 942.897 470.977 943.113 470.977H943.473V471.793H942.909C942.565 471.793 942.305 471.717 942.129 471.565C941.953 471.413 941.865 471.189 941.865 470.893V470.701C941.673 471.077 941.393 471.369 941.025 471.577C940.657 471.785 940.205 471.889 939.669 471.889ZM938.301 469.957C938.301 470.285 938.437 470.549 938.709 470.749C938.989 470.941 939.357 471.037 939.813 471.037C940.405 471.037 940.885 470.869 941.253 470.533C941.629 470.189 941.817 469.753 941.817 469.225V468.397C941.697 468.565 941.501 468.681 941.229 468.745C940.957 468.809 940.565 468.869 940.053 468.925C939.677 468.965 939.369 469.013 939.129 469.069C938.897 469.125 938.701 469.225 938.541 469.369C938.381 469.505 938.301 469.701 938.301 469.957ZM944.589 465.433H945.381L945.477 466.405C945.693 466.061 945.997 465.789 946.389 465.589C946.789 465.389 947.221 465.289 947.685 465.289C948.373 465.289 948.925 465.497 949.341 465.913C949.757 466.329 949.965 466.885 949.965 467.581V471.793H948.969V467.617C948.969 467.169 948.833 466.817 948.561 466.561C948.289 466.297 947.913 466.165 947.433 466.165C946.881 466.165 946.437 466.333 946.101 466.669C945.765 467.005 945.593 467.425 945.585 467.929V471.793H944.589V465.433ZM953.579 471.889C952.859 471.889 952.283 471.717 951.851 471.373C951.427 471.029 951.215 470.565 951.215 469.981C951.215 469.525 951.339 469.169 951.587 468.913C951.843 468.649 952.159 468.465 952.535 468.361C952.919 468.249 953.375 468.165 953.903 468.109L954.299 468.073C954.803 468.025 955.163 467.969 955.379 467.905C955.603 467.841 955.719 467.709 955.727 467.509C955.719 467.109 955.563 466.781 955.259 466.525C954.963 466.269 954.575 466.141 954.095 466.141C953.631 466.141 953.235 466.261 952.907 466.501C952.587 466.733 952.399 467.037 952.343 467.413H951.359C951.399 467.005 951.543 466.641 951.791 466.321C952.039 465.993 952.363 465.741 952.763 465.565C953.171 465.381 953.623 465.289 954.119 465.289C954.639 465.289 955.091 465.385 955.475 465.577C955.867 465.769 956.167 466.037 956.375 466.381C956.591 466.725 956.699 467.121 956.699 467.569V470.665C956.699 470.873 956.807 470.977 957.023 470.977H957.383V471.793H956.819C956.475 471.793 956.215 471.717 956.039 471.565C955.863 471.413 955.775 471.189 955.775 470.893V470.701C955.583 471.077 955.303 471.369 954.935 471.577C954.567 471.785 954.115 471.889 953.579 471.889ZM952.211 469.957C952.211 470.285 952.347 470.549 952.619 470.749C952.899 470.941 953.267 471.037 953.723 471.037C954.315 471.037 954.795 470.869 955.163 470.533C955.539 470.189 955.727 469.753 955.727 469.225V468.397C955.607 468.565 955.411 468.681 955.139 468.745C954.867 468.809 954.475 468.869 953.963 468.925C953.587 468.965 953.279 469.013 953.039 469.069C952.807 469.125 952.611 469.225 952.451 469.369C952.291 469.505 952.211 469.701 952.211 469.957ZM961.399 463.393H965.251C965.731 463.393 966.159 463.485 966.535 463.669C966.911 463.845 967.203 464.093 967.411 464.413C967.627 464.733 967.735 465.097 967.735 465.505C967.735 465.953 967.587 466.353 967.291 466.705C967.003 467.049 966.611 467.301 966.115 467.461C966.667 467.573 967.107 467.813 967.435 468.181C967.763 468.549 967.927 468.989 967.927 469.501C967.927 469.949 967.819 470.349 967.603 470.701C967.387 471.045 967.083 471.313 966.691 471.505C966.299 471.697 965.851 471.793 965.347 471.793H961.399V463.393ZM965.455 470.869C965.879 470.869 966.223 470.733 966.487 470.461C966.751 470.189 966.883 469.833 966.883 469.393C966.883 468.945 966.727 468.597 966.415 468.349C966.111 468.093 965.723 467.965 965.251 467.965H962.395V470.869H965.455ZM965.191 467.065C965.639 467.065 966.003 466.929 966.283 466.657C966.571 466.385 966.715 466.037 966.715 465.613C966.715 465.229 966.587 464.917 966.331 464.677C966.075 464.437 965.747 464.317 965.347 464.317H962.395V467.065H965.191ZM969.363 465.433H970.155L970.275 466.645C970.691 465.813 971.427 465.397 972.483 465.397H972.699V466.381H972.483C971.811 466.381 971.287 466.565 970.911 466.933C970.543 467.293 970.359 467.801 970.359 468.457V471.793H969.363V465.433ZM976.354 471.925C975.738 471.925 975.19 471.785 974.71 471.505C974.238 471.225 973.87 470.837 973.606 470.341C973.35 469.837 973.222 469.269 973.222 468.637C973.222 467.941 973.358 467.341 973.63 466.837C973.902 466.325 974.266 465.941 974.722 465.685C975.186 465.421 975.69 465.289 976.234 465.289C977.114 465.289 977.814 465.573 978.334 466.141C978.862 466.709 979.134 467.497 979.15 468.505V468.781H974.218C974.25 469.469 974.454 470.021 974.83 470.437C975.214 470.853 975.722 471.061 976.354 471.061C976.802 471.061 977.182 470.953 977.494 470.737C977.806 470.513 978.026 470.197 978.154 469.789H979.126C978.982 470.445 978.662 470.965 978.166 471.349C977.678 471.733 977.074 471.925 976.354 471.925ZM978.106 467.953C978.018 467.393 977.81 466.953 977.482 466.633C977.154 466.313 976.738 466.153 976.234 466.153C975.73 466.153 975.302 466.313 974.95 466.633C974.606 466.945 974.382 467.385 974.278 467.953H978.106ZM982.513 471.889C981.793 471.889 981.217 471.717 980.785 471.373C980.361 471.029 980.149 470.565 980.149 469.981C980.149 469.525 980.273 469.169 980.521 468.913C980.777 468.649 981.093 468.465 981.469 468.361C981.853 468.249 982.309 468.165 982.837 468.109L983.233 468.073C983.737 468.025 984.097 467.969 984.313 467.905C984.537 467.841 984.653 467.709 984.661 467.509C984.653 467.109 984.497 466.781 984.193 466.525C983.897 466.269 983.509 466.141 983.029 466.141C982.565 466.141 982.169 466.261 981.841 466.501C981.521 466.733 981.333 467.037 981.277 467.413H980.293C980.333 467.005 980.477 466.641 980.725 466.321C980.973 465.993 981.297 465.741 981.697 465.565C982.105 465.381 982.557 465.289 983.053 465.289C983.573 465.289 984.025 465.385 984.409 465.577C984.801 465.769 985.101 466.037 985.309 466.381C985.525 466.725 985.633 467.121 985.633 467.569V470.665C985.633 470.873 985.741 470.977 985.957 470.977H986.317V471.793H985.753C985.409 471.793 985.149 471.717 984.973 471.565C984.797 471.413 984.709 471.189 984.709 470.893V470.701C984.517 471.077 984.237 471.369 983.869 471.577C983.501 471.785 983.049 471.889 982.513 471.889ZM981.145 469.957C981.145 470.285 981.281 470.549 981.553 470.749C981.833 470.941 982.201 471.037 982.657 471.037C983.249 471.037 983.729 470.869 984.097 470.533C984.473 470.189 984.661 469.753 984.661 469.225V468.397C984.541 468.565 984.345 468.681 984.073 468.745C983.801 468.809 983.409 468.869 982.897 468.925C982.521 468.965 982.213 469.013 981.973 469.069C981.741 469.125 981.545 469.225 981.385 469.369C981.225 469.505 981.145 469.701 981.145 469.957ZM987.469 462.793H988.465V468.565L991.561 465.433H992.761L990.469 467.749L993.109 471.793H991.945L989.785 468.445L988.465 469.777V471.793H987.469V462.793ZM993.973 465.433H994.765L994.873 466.585C995.105 466.185 995.421 465.869 995.821 465.637C996.229 465.405 996.689 465.289 997.201 465.289C997.753 465.289 998.245 465.429 998.677 465.709C999.117 465.981 999.457 466.369 999.697 466.873C999.937 467.369 1000.06 467.937 1000.06 468.577C1000.06 469.225 999.937 469.805 999.697 470.317C999.457 470.821 999.117 471.217 998.677 471.505C998.245 471.785 997.753 471.925 997.201 471.925C996.721 471.925 996.285 471.821 995.893 471.613C995.509 471.405 995.201 471.113 994.969 470.737V474.193H993.973V465.433ZM994.969 468.529C994.969 469.017 995.057 469.453 995.233 469.837C995.409 470.221 995.653 470.521 995.965 470.737C996.285 470.953 996.645 471.061 997.045 471.061C997.429 471.061 997.769 470.957 998.065 470.749C998.369 470.541 998.605 470.249 998.773 469.873C998.941 469.489 999.025 469.057 999.025 468.577C999.025 468.105 998.941 467.685 998.773 467.317C998.605 466.949 998.369 466.665 998.065 466.465C997.769 466.257 997.425 466.153 997.033 466.153C996.633 466.153 996.277 466.253 995.965 466.453C995.653 466.653 995.409 466.933 995.233 467.293C995.057 467.653 994.969 468.065 994.969 468.529ZM1004.16 471.925C1003.5 471.925 1002.93 471.781 1002.46 471.493C1001.99 471.197 1001.64 470.797 1001.4 470.293C1001.16 469.781 1001.04 469.201 1001.04 468.553C1001.04 467.865 1001.18 467.277 1001.45 466.789C1001.73 466.293 1002.11 465.921 1002.58 465.673C1003.05 465.417 1003.58 465.289 1004.16 465.289C1004.82 465.289 1005.38 465.433 1005.84 465.721C1006.31 466.009 1006.67 466.401 1006.91 466.897C1007.16 467.393 1007.28 467.945 1007.28 468.553C1007.28 469.265 1007.15 469.877 1006.87 470.389C1006.61 470.893 1006.24 471.277 1005.77 471.541C1005.3 471.797 1004.76 471.925 1004.16 471.925ZM1002.06 468.553C1002.06 469.081 1002.15 469.533 1002.34 469.909C1002.53 470.285 1002.78 470.573 1003.09 470.773C1003.41 470.965 1003.77 471.061 1004.16 471.061C1004.6 471.061 1004.98 470.949 1005.29 470.725C1005.61 470.501 1005.85 470.201 1006.01 469.825C1006.18 469.441 1006.26 469.017 1006.26 468.553C1006.26 467.833 1006.07 467.253 1005.69 466.813C1005.3 466.373 1004.79 466.153 1004.16 466.153C1003.53 466.153 1003.02 466.373 1002.64 466.813C1002.25 467.253 1002.06 467.833 1002.06 468.553ZM1008.59 465.433H1009.58V471.793H1008.59V465.433ZM1008.35 463.621C1008.35 463.413 1008.42 463.241 1008.56 463.105C1008.71 462.961 1008.88 462.889 1009.09 462.889C1009.3 462.889 1009.47 462.961 1009.61 463.105C1009.75 463.241 1009.82 463.413 1009.82 463.621C1009.82 463.829 1009.75 464.005 1009.61 464.149C1009.47 464.293 1009.3 464.365 1009.09 464.365C1008.88 464.365 1008.71 464.293 1008.56 464.149C1008.42 464.005 1008.35 463.829 1008.35 463.621ZM1011.21 465.433H1012L1012.1 466.405C1012.31 466.061 1012.62 465.789 1013.01 465.589C1013.41 465.389 1013.84 465.289 1014.31 465.289C1014.99 465.289 1015.55 465.497 1015.96 465.913C1016.38 466.329 1016.59 466.885 1016.59 467.581V471.793H1015.59V467.617C1015.59 467.169 1015.45 466.817 1015.18 466.561C1014.91 466.297 1014.53 466.165 1014.05 466.165C1013.5 466.165 1013.06 466.333 1012.72 466.669C1012.39 467.005 1012.21 467.425 1012.21 467.929V471.793H1011.21V465.433ZM1020.63 471.793C1020.02 471.793 1019.55 471.641 1019.22 471.337C1018.9 471.025 1018.74 470.573 1018.74 469.981V466.273H1017.56V465.433H1018.74V463.261H1019.73V465.433H1021.45V466.273H1019.73V469.981C1019.73 470.301 1019.81 470.545 1019.96 470.713C1020.11 470.873 1020.34 470.953 1020.63 470.953H1021.34V471.793H1020.63ZM1022.04 473.077C1022.61 472.429 1023.05 471.677 1023.34 470.821C1023.64 469.957 1023.79 469.045 1023.79 468.085C1023.79 467.117 1023.64 466.201 1023.36 465.337C1023.07 464.465 1022.64 463.693 1022.06 463.021L1022.85 462.709C1023.46 463.445 1023.92 464.281 1024.23 465.217C1024.54 466.145 1024.7 467.121 1024.7 468.145C1024.7 469.153 1024.54 470.105 1024.23 471.001C1023.92 471.889 1023.46 472.673 1022.85 473.353L1022.04 473.077Z" fill="#97BFBF"/>
<path d="M1119.28 455.805C1118.88 455.925 1118.42 455.985 1117.92 455.985C1117.08 455.985 1116.34 455.805 1115.7 455.445C1115.06 455.085 1114.56 454.573 1114.2 453.909C1113.84 453.237 1113.66 452.457 1113.66 451.569C1113.66 450.713 1113.83 449.957 1114.17 449.301C1114.52 448.637 1115.02 448.121 1115.66 447.753C1116.31 447.385 1117.06 447.201 1117.92 447.201C1118.76 447.201 1119.5 447.381 1120.15 447.741C1120.8 448.101 1121.3 448.613 1121.66 449.277C1122.02 449.933 1122.2 450.697 1122.2 451.569C1122.2 452.361 1122.05 453.073 1121.76 453.705C1121.46 454.329 1121.04 454.833 1120.5 455.217L1121.5 456.873L1120.3 457.473L1119.28 455.805ZM1115.34 451.569C1115.34 452.161 1115.44 452.681 1115.65 453.129C1115.86 453.569 1116.16 453.909 1116.55 454.149C1116.94 454.389 1117.4 454.509 1117.92 454.509C1118.08 454.509 1118.27 454.489 1118.47 454.449L1117.39 452.661L1118.59 452.061L1119.67 453.849C1119.95 453.593 1120.16 453.273 1120.3 452.889C1120.45 452.497 1120.52 452.057 1120.52 451.569C1120.52 450.689 1120.28 449.989 1119.81 449.469C1119.35 448.941 1118.72 448.677 1117.92 448.677C1117.4 448.677 1116.94 448.797 1116.55 449.037C1116.16 449.269 1115.86 449.605 1115.65 450.045C1115.44 450.477 1115.34 450.985 1115.34 451.569ZM1124.82 449.685C1124.42 450.269 1123.79 450.561 1122.92 450.561H1122.85V448.977H1122.92C1123.54 448.977 1124.01 448.853 1124.34 448.605C1124.67 448.349 1124.83 447.985 1124.83 447.513V447.393H1126.48V455.793H1124.82V449.685ZM1130.45 455.001C1130.45 454.433 1130.57 453.949 1130.8 453.549C1131.03 453.149 1131.31 452.829 1131.63 452.589C1131.96 452.341 1132.39 452.065 1132.91 451.761C1133.31 451.529 1133.62 451.337 1133.84 451.185C1134.06 451.033 1134.25 450.849 1134.4 450.633C1134.55 450.417 1134.63 450.169 1134.63 449.889C1134.63 449.529 1134.51 449.237 1134.28 449.013C1134.06 448.789 1133.76 448.677 1133.39 448.677C1132.99 448.677 1132.66 448.813 1132.4 449.085C1132.13 449.349 1132 449.709 1131.99 450.165H1130.25C1130.3 449.549 1130.46 449.021 1130.74 448.581C1131.03 448.133 1131.41 447.793 1131.87 447.561C1132.33 447.321 1132.86 447.201 1133.44 447.201C1134.01 447.201 1134.51 447.313 1134.94 447.537C1135.38 447.753 1135.72 448.061 1135.96 448.461C1136.2 448.853 1136.32 449.309 1136.32 449.829C1136.32 450.309 1136.22 450.725 1136.01 451.077C1135.81 451.421 1135.56 451.705 1135.27 451.929C1134.98 452.153 1134.59 452.409 1134.1 452.697C1133.6 453.001 1133.21 453.265 1132.94 453.489C1132.67 453.713 1132.48 453.985 1132.39 454.305H1136.14V455.793H1130.45V455.001ZM1140.55 455.985C1139.88 455.985 1139.28 455.805 1138.76 455.445C1138.25 455.085 1137.85 454.573 1137.56 453.909C1137.28 453.237 1137.14 452.457 1137.14 451.569C1137.14 450.705 1137.28 449.945 1137.56 449.289C1137.84 448.625 1138.24 448.113 1138.75 447.753C1139.27 447.385 1139.87 447.201 1140.55 447.201C1141.22 447.201 1141.81 447.381 1142.32 447.741C1142.84 448.101 1143.23 448.613 1143.51 449.277C1143.8 449.933 1143.94 450.697 1143.94 451.569C1143.94 452.441 1143.8 453.213 1143.52 453.885C1143.25 454.549 1142.86 455.065 1142.34 455.433C1141.82 455.801 1141.23 455.985 1140.55 455.985ZM1138.81 451.569C1138.81 452.449 1138.96 453.153 1139.28 453.681C1139.6 454.209 1140.02 454.473 1140.55 454.473C1141.08 454.473 1141.5 454.209 1141.81 453.681C1142.12 453.153 1142.28 452.449 1142.28 451.569C1142.28 450.697 1142.12 450.005 1141.81 449.493C1141.5 448.973 1141.08 448.713 1140.55 448.713C1140.02 448.713 1139.6 448.973 1139.28 449.493C1138.96 450.005 1138.81 450.697 1138.81 451.569ZM1144.82 455.001C1144.82 454.433 1144.94 453.949 1145.17 453.549C1145.4 453.149 1145.68 452.829 1146 452.589C1146.33 452.341 1146.75 452.065 1147.28 451.761C1147.68 451.529 1147.99 451.337 1148.21 451.185C1148.43 451.033 1148.62 450.849 1148.77 450.633C1148.92 450.417 1149 450.169 1149 449.889C1149 449.529 1148.88 449.237 1148.65 449.013C1148.43 448.789 1148.13 448.677 1147.76 448.677C1147.36 448.677 1147.03 448.813 1146.77 449.085C1146.5 449.349 1146.37 449.709 1146.36 450.165H1144.62C1144.67 449.549 1144.83 449.021 1145.11 448.581C1145.4 448.133 1145.77 447.793 1146.24 447.561C1146.7 447.321 1147.23 447.201 1147.81 447.201C1148.38 447.201 1148.88 447.313 1149.31 447.537C1149.75 447.753 1150.09 448.061 1150.33 448.461C1150.57 448.853 1150.69 449.309 1150.69 449.829C1150.69 450.309 1150.59 450.725 1150.38 451.077C1150.18 451.421 1149.93 451.705 1149.63 451.929C1149.35 452.153 1148.96 452.409 1148.47 452.697C1147.97 453.001 1147.58 453.265 1147.31 453.489C1147.03 453.713 1146.85 453.985 1146.75 454.305H1150.51V455.793H1144.82V455.001ZM1155.23 455.985C1154.49 455.985 1153.84 455.801 1153.27 455.433C1152.71 455.065 1152.28 454.549 1151.96 453.885C1151.66 453.221 1151.51 452.453 1151.51 451.581C1151.51 450.701 1151.66 449.933 1151.96 449.277C1152.28 448.613 1152.72 448.101 1153.28 447.741C1153.85 447.381 1154.51 447.201 1155.26 447.201C1155.85 447.201 1156.37 447.313 1156.82 447.537C1157.29 447.761 1157.66 448.077 1157.93 448.485C1158.21 448.885 1158.37 449.353 1158.41 449.889H1156.73C1156.69 449.537 1156.53 449.249 1156.25 449.025C1155.98 448.793 1155.64 448.677 1155.23 448.677C1154.61 448.677 1154.11 448.909 1153.73 449.373C1153.35 449.837 1153.14 450.465 1153.08 451.257C1153.06 451.425 1153.06 451.545 1153.07 451.617C1153.27 451.169 1153.59 450.805 1154.03 450.525C1154.48 450.245 1154.99 450.105 1155.58 450.105C1156.11 450.105 1156.59 450.225 1157 450.465C1157.43 450.705 1157.76 451.041 1157.99 451.473C1158.23 451.905 1158.35 452.401 1158.35 452.961C1158.35 453.553 1158.22 454.077 1157.95 454.533C1157.69 454.989 1157.32 455.345 1156.85 455.601C1156.38 455.857 1155.84 455.985 1155.23 455.985ZM1153.6 452.973C1153.6 453.453 1153.75 453.829 1154.05 454.101C1154.36 454.373 1154.73 454.509 1155.16 454.509C1155.56 454.509 1155.92 454.377 1156.22 454.113C1156.53 453.841 1156.68 453.461 1156.68 452.973C1156.68 452.485 1156.53 452.109 1156.22 451.845C1155.93 451.581 1155.58 451.449 1155.17 451.449C1154.74 451.449 1154.38 451.585 1154.06 451.857C1153.75 452.121 1153.6 452.493 1153.6 452.973ZM1072.41 463.393H1076.39C1076.95 463.393 1077.44 463.505 1077.84 463.729C1078.25 463.945 1078.55 464.241 1078.76 464.617C1078.97 464.985 1079.07 465.397 1079.07 465.853C1079.07 466.405 1078.95 466.877 1078.71 467.269C1078.48 467.661 1078.16 467.961 1077.75 468.169C1077.35 468.369 1076.89 468.469 1076.39 468.469H1073.42V471.793H1072.41V463.393ZM1076.43 467.545C1076.94 467.545 1077.33 467.385 1077.61 467.065C1077.9 466.745 1078.04 466.341 1078.04 465.853C1078.04 465.373 1077.89 464.997 1077.59 464.725C1077.28 464.453 1076.9 464.317 1076.43 464.317H1073.42V467.545H1076.43ZM1080.4 462.793H1081.4V466.249C1081.63 465.953 1081.93 465.721 1082.3 465.553C1082.67 465.377 1083.07 465.289 1083.5 465.289C1084.19 465.289 1084.74 465.497 1085.15 465.913C1085.57 466.329 1085.78 466.885 1085.78 467.581V471.793H1084.78V467.617C1084.78 467.177 1084.65 466.825 1084.37 466.561C1084.11 466.297 1083.75 466.165 1083.31 466.165C1082.72 466.165 1082.26 466.333 1081.91 466.669C1081.58 467.005 1081.41 467.425 1081.4 467.929V471.793H1080.4V462.793ZM1089.39 471.889C1088.67 471.889 1088.1 471.717 1087.66 471.373C1087.24 471.029 1087.03 470.565 1087.03 469.981C1087.03 469.525 1087.15 469.169 1087.4 468.913C1087.66 468.649 1087.97 468.465 1088.35 468.361C1088.73 468.249 1089.19 468.165 1089.72 468.109L1090.11 468.073C1090.62 468.025 1090.98 467.969 1091.19 467.905C1091.42 467.841 1091.53 467.709 1091.54 467.509C1091.53 467.109 1091.38 466.781 1091.07 466.525C1090.78 466.269 1090.39 466.141 1089.91 466.141C1089.44 466.141 1089.05 466.261 1088.72 466.501C1088.4 466.733 1088.21 467.037 1088.16 467.413H1087.17C1087.21 467.005 1087.36 466.641 1087.6 466.321C1087.85 465.993 1088.18 465.741 1088.58 465.565C1088.98 465.381 1089.44 465.289 1089.93 465.289C1090.45 465.289 1090.9 465.385 1091.29 465.577C1091.68 465.769 1091.98 466.037 1092.19 466.381C1092.4 466.725 1092.51 467.121 1092.51 467.569V470.665C1092.51 470.873 1092.62 470.977 1092.84 470.977H1093.2V471.793H1092.63C1092.29 471.793 1092.03 471.717 1091.85 471.565C1091.68 471.413 1091.59 471.189 1091.59 470.893V470.701C1091.4 471.077 1091.12 471.369 1090.75 471.577C1090.38 471.785 1089.93 471.889 1089.39 471.889ZM1088.02 469.957C1088.02 470.285 1088.16 470.549 1088.43 470.749C1088.71 470.941 1089.08 471.037 1089.54 471.037C1090.13 471.037 1090.61 470.869 1090.98 470.533C1091.35 470.189 1091.54 469.753 1091.54 469.225V468.397C1091.42 468.565 1091.22 468.681 1090.95 468.745C1090.68 468.809 1090.29 468.869 1089.78 468.925C1089.4 468.965 1089.09 469.013 1088.85 469.069C1088.62 469.125 1088.42 469.225 1088.26 469.369C1088.1 469.505 1088.02 469.701 1088.02 469.957ZM1096.69 471.925C1095.92 471.925 1095.28 471.737 1094.78 471.361C1094.28 470.977 1094.02 470.453 1093.98 469.789H1094.95C1094.98 470.189 1095.16 470.505 1095.49 470.737C1095.82 470.961 1096.24 471.073 1096.74 471.073C1097.62 471.073 1098.07 470.745 1098.07 470.089C1098.07 469.897 1098.02 469.745 1097.92 469.633C1097.84 469.521 1097.72 469.437 1097.59 469.381C1097.45 469.317 1097.24 469.233 1096.94 469.129L1096.02 468.817C1095.58 468.673 1095.25 468.545 1095.01 468.433C1094.77 468.321 1094.56 468.157 1094.4 467.941C1094.23 467.717 1094.14 467.425 1094.14 467.065C1094.14 466.521 1094.34 466.089 1094.74 465.769C1095.14 465.449 1095.69 465.289 1096.38 465.289C1097.09 465.289 1097.67 465.477 1098.12 465.853C1098.56 466.229 1098.83 466.765 1098.91 467.461H1097.94C1097.88 467.029 1097.71 466.701 1097.43 466.477C1097.15 466.253 1096.79 466.141 1096.34 466.141C1095.96 466.141 1095.65 466.221 1095.43 466.381C1095.21 466.541 1095.1 466.761 1095.1 467.041C1095.1 467.297 1095.19 467.485 1095.37 467.605C1095.54 467.725 1095.73 467.817 1095.93 467.881C1096.13 467.945 1096.26 467.989 1096.33 468.013L1097.19 468.301C1097.84 468.517 1098.31 468.753 1098.61 469.009C1098.9 469.265 1099.05 469.641 1099.05 470.137C1099.05 470.705 1098.85 471.145 1098.44 471.457C1098.04 471.769 1097.46 471.925 1096.69 471.925ZM1103.08 471.925C1102.47 471.925 1101.92 471.785 1101.44 471.505C1100.97 471.225 1100.6 470.837 1100.34 470.341C1100.08 469.837 1099.95 469.269 1099.95 468.637C1099.95 467.941 1100.09 467.341 1100.36 466.837C1100.63 466.325 1101 465.941 1101.45 465.685C1101.92 465.421 1102.42 465.289 1102.96 465.289C1103.84 465.289 1104.54 465.573 1105.06 466.141C1105.59 466.709 1105.86 467.497 1105.88 468.505V468.781H1100.95C1100.98 469.469 1101.18 470.021 1101.56 470.437C1101.94 470.853 1102.45 471.061 1103.08 471.061C1103.53 471.061 1103.91 470.953 1104.22 470.737C1104.54 470.513 1104.76 470.197 1104.88 469.789H1105.86C1105.71 470.445 1105.39 470.965 1104.9 471.349C1104.41 471.733 1103.8 471.925 1103.08 471.925ZM1104.84 467.953C1104.75 467.393 1104.54 466.953 1104.21 466.633C1103.88 466.313 1103.47 466.153 1102.96 466.153C1102.46 466.153 1102.03 466.313 1101.68 466.633C1101.34 466.945 1101.11 467.385 1101.01 467.953H1104.84ZM1109.76 471.925C1109.2 471.925 1108.7 471.785 1108.26 471.505C1107.82 471.217 1107.48 470.821 1107.23 470.317C1106.99 469.813 1106.87 469.233 1106.87 468.577C1106.87 467.937 1106.99 467.369 1107.23 466.873C1107.48 466.369 1107.82 465.981 1108.25 465.709C1108.69 465.429 1109.19 465.289 1109.75 465.289C1110.22 465.289 1110.65 465.385 1111.03 465.577C1111.42 465.769 1111.74 466.037 1111.97 466.381V462.793H1112.96V471.793H1112.17L1112.06 470.569C1111.85 470.985 1111.54 471.317 1111.13 471.565C1110.73 471.805 1110.27 471.925 1109.76 471.925ZM1107.9 468.577C1107.9 469.057 1107.98 469.485 1108.15 469.861C1108.33 470.237 1108.57 470.533 1108.87 470.749C1109.18 470.957 1109.52 471.061 1109.92 471.061C1110.32 471.061 1110.67 470.957 1110.98 470.749C1111.3 470.533 1111.54 470.237 1111.7 469.861C1111.88 469.477 1111.97 469.041 1111.97 468.553C1111.97 468.081 1111.88 467.665 1111.72 467.305C1111.55 466.937 1111.31 466.653 1111.01 466.453C1110.7 466.245 1110.36 466.141 1109.98 466.141C1109.58 466.141 1109.22 466.245 1108.9 466.453C1108.58 466.653 1108.34 466.941 1108.16 467.317C1107.99 467.685 1107.9 468.105 1107.9 468.577ZM1117.33 465.433H1118.12L1118.22 466.417C1118.43 466.073 1118.73 465.801 1119.12 465.601C1119.51 465.393 1119.93 465.289 1120.39 465.289C1120.86 465.289 1121.27 465.401 1121.61 465.625C1121.96 465.849 1122.22 466.157 1122.39 466.549C1122.6 466.173 1122.91 465.869 1123.32 465.637C1123.72 465.405 1124.17 465.289 1124.65 465.289C1125.09 465.289 1125.48 465.385 1125.81 465.577C1126.15 465.769 1126.4 466.037 1126.58 466.381C1126.76 466.717 1126.86 467.101 1126.86 467.533V471.793H1125.86V467.569C1125.86 467.145 1125.74 466.805 1125.49 466.549C1125.24 466.293 1124.9 466.165 1124.48 466.165C1123.9 466.165 1123.44 466.333 1123.1 466.669C1122.76 467.005 1122.59 467.425 1122.58 467.929V471.793H1121.6V467.569C1121.6 467.145 1121.48 466.805 1121.23 466.549C1120.98 466.293 1120.64 466.165 1120.22 466.165C1119.64 466.165 1119.18 466.333 1118.84 466.669C1118.5 467.005 1118.33 467.425 1118.32 467.929V471.793H1117.33V465.433ZM1130.47 471.889C1129.75 471.889 1129.17 471.717 1128.74 471.373C1128.31 471.029 1128.1 470.565 1128.1 469.981C1128.1 469.525 1128.23 469.169 1128.47 468.913C1128.73 468.649 1129.05 468.465 1129.42 468.361C1129.81 468.249 1130.26 468.165 1130.79 468.109L1131.19 468.073C1131.69 468.025 1132.05 467.969 1132.27 467.905C1132.49 467.841 1132.61 467.709 1132.61 467.509C1132.61 467.109 1132.45 466.781 1132.15 466.525C1131.85 466.269 1131.46 466.141 1130.98 466.141C1130.52 466.141 1130.12 466.261 1129.79 466.501C1129.47 466.733 1129.29 467.037 1129.23 467.413H1128.25C1128.29 467.005 1128.43 466.641 1128.68 466.321C1128.93 465.993 1129.25 465.741 1129.65 465.565C1130.06 465.381 1130.51 465.289 1131.01 465.289C1131.53 465.289 1131.98 465.385 1132.36 465.577C1132.75 465.769 1133.05 466.037 1133.26 466.381C1133.48 466.725 1133.59 467.121 1133.59 467.569V470.665C1133.59 470.873 1133.69 470.977 1133.91 470.977H1134.27V471.793H1133.71C1133.36 471.793 1133.1 471.717 1132.93 471.565C1132.75 471.413 1132.66 471.189 1132.66 470.893V470.701C1132.47 471.077 1132.19 471.369 1131.82 471.577C1131.45 471.785 1131 471.889 1130.47 471.889ZM1129.1 469.957C1129.1 470.285 1129.23 470.549 1129.51 470.749C1129.79 470.941 1130.15 471.037 1130.61 471.037C1131.2 471.037 1131.68 470.869 1132.05 470.533C1132.43 470.189 1132.61 469.753 1132.61 469.225V468.397C1132.49 468.565 1132.3 468.681 1132.03 468.745C1131.75 468.809 1131.36 468.869 1130.85 468.925C1130.47 468.965 1130.17 469.013 1129.93 469.069C1129.69 469.125 1129.5 469.225 1129.34 469.369C1129.18 469.505 1129.1 469.701 1129.1 469.957ZM1135.39 465.433H1136.38V471.793H1135.39V465.433ZM1135.15 463.621C1135.15 463.413 1135.22 463.241 1135.36 463.105C1135.51 462.961 1135.68 462.889 1135.89 462.889C1136.1 462.889 1136.27 462.961 1136.41 463.105C1136.55 463.241 1136.62 463.413 1136.62 463.621C1136.62 463.829 1136.55 464.005 1136.41 464.149C1136.27 464.293 1136.1 464.365 1135.89 464.365C1135.68 464.365 1135.51 464.293 1135.36 464.149C1135.22 464.005 1135.15 463.829 1135.15 463.621ZM1138.01 465.433H1138.8L1138.9 466.405C1139.12 466.061 1139.42 465.789 1139.81 465.589C1140.21 465.389 1140.64 465.289 1141.11 465.289C1141.8 465.289 1142.35 465.497 1142.76 465.913C1143.18 466.329 1143.39 466.885 1143.39 467.581V471.793H1142.39V467.617C1142.39 467.169 1142.26 466.817 1141.98 466.561C1141.71 466.297 1141.34 466.165 1140.86 466.165C1140.3 466.165 1139.86 466.333 1139.52 466.669C1139.19 467.005 1139.02 467.425 1139.01 467.929V471.793H1138.01V465.433ZM1144.95 465.433H1145.74L1145.84 466.405C1146.05 466.061 1146.36 465.789 1146.75 465.589C1147.15 465.389 1147.58 465.289 1148.04 465.289C1148.73 465.289 1149.28 465.497 1149.7 465.913C1150.12 466.329 1150.32 466.885 1150.32 467.581V471.793H1149.33V467.617C1149.33 467.169 1149.19 466.817 1148.92 466.561C1148.65 466.297 1148.27 466.165 1147.79 466.165C1147.24 466.165 1146.8 466.333 1146.46 466.669C1146.12 467.005 1145.95 467.425 1145.94 467.929V471.793H1144.95V465.433ZM1154.69 471.925C1154.08 471.925 1153.53 471.785 1153.05 471.505C1152.58 471.225 1152.21 470.837 1151.95 470.341C1151.69 469.837 1151.56 469.269 1151.56 468.637C1151.56 467.941 1151.7 467.341 1151.97 466.837C1152.24 466.325 1152.61 465.941 1153.06 465.685C1153.53 465.421 1154.03 465.289 1154.57 465.289C1155.45 465.289 1156.15 465.573 1156.67 466.141C1157.2 466.709 1157.47 467.497 1157.49 468.505V468.781H1152.56C1152.59 469.469 1152.79 470.021 1153.17 470.437C1153.55 470.853 1154.06 471.061 1154.69 471.061C1155.14 471.061 1155.52 470.953 1155.83 470.737C1156.15 470.513 1156.37 470.197 1156.49 469.789H1157.47C1157.32 470.445 1157 470.965 1156.51 471.349C1156.02 471.733 1155.41 471.925 1154.69 471.925ZM1156.45 467.953C1156.36 467.393 1156.15 466.953 1155.82 466.633C1155.49 466.313 1155.08 466.153 1154.57 466.153C1154.07 466.153 1153.64 466.313 1153.29 466.633C1152.95 466.945 1152.72 467.385 1152.62 467.953H1156.45ZM1161.24 471.793C1160.62 471.793 1160.15 471.641 1159.82 471.337C1159.5 471.025 1159.34 470.573 1159.34 469.981V466.273H1158.17V465.433H1159.34V463.261H1160.34V465.433H1162.06V466.273H1160.34V469.981C1160.34 470.301 1160.42 470.545 1160.57 470.713C1160.72 470.873 1160.94 470.953 1161.24 470.953H1161.95V471.793H1161.24ZM1165.93 465.433H1166.72L1166.84 466.645C1167.25 465.813 1167.99 465.397 1169.05 465.397H1169.26V466.381H1169.05C1168.37 466.381 1167.85 466.565 1167.47 466.933C1167.11 467.293 1166.92 467.801 1166.92 468.457V471.793H1165.93V465.433ZM1172.9 471.925C1172.24 471.925 1171.67 471.781 1171.2 471.493C1170.74 471.197 1170.38 470.797 1170.14 470.293C1169.9 469.781 1169.78 469.201 1169.78 468.553C1169.78 467.865 1169.92 467.277 1170.19 466.789C1170.47 466.293 1170.85 465.921 1171.32 465.673C1171.79 465.417 1172.32 465.289 1172.9 465.289C1173.56 465.289 1174.12 465.433 1174.58 465.721C1175.06 466.009 1175.41 466.401 1175.65 466.897C1175.9 467.393 1176.02 467.945 1176.02 468.553C1176.02 469.265 1175.89 469.877 1175.62 470.389C1175.35 470.893 1174.98 471.277 1174.51 471.541C1174.04 471.797 1173.5 471.925 1172.9 471.925ZM1170.8 468.553C1170.8 469.081 1170.9 469.533 1171.08 469.909C1171.27 470.285 1171.52 470.573 1171.84 470.773C1172.16 470.965 1172.51 471.061 1172.9 471.061C1173.34 471.061 1173.72 470.949 1174.03 470.725C1174.35 470.501 1174.59 470.201 1174.75 469.825C1174.92 469.441 1175 469.017 1175 468.553C1175 467.833 1174.81 467.253 1174.43 466.813C1174.04 466.373 1173.54 466.153 1172.9 466.153C1172.27 466.153 1171.76 466.373 1171.38 466.813C1171 467.253 1170.8 467.833 1170.8 468.553ZM1177.36 462.793H1178.36V471.793H1177.36V462.793ZM1180.06 462.793H1181.06V471.793H1180.06V462.793ZM1185.51 471.925C1184.85 471.925 1184.28 471.781 1183.81 471.493C1183.35 471.197 1182.99 470.797 1182.75 470.293C1182.51 469.781 1182.39 469.201 1182.39 468.553C1182.39 467.865 1182.53 467.277 1182.8 466.789C1183.08 466.293 1183.46 465.921 1183.93 465.673C1184.4 465.417 1184.93 465.289 1185.51 465.289C1186.17 465.289 1186.73 465.433 1187.19 465.721C1187.67 466.009 1188.02 466.401 1188.26 466.897C1188.51 467.393 1188.63 467.945 1188.63 468.553C1188.63 469.265 1188.5 469.877 1188.23 470.389C1187.96 470.893 1187.59 471.277 1187.12 471.541C1186.65 471.797 1186.11 471.925 1185.51 471.925ZM1183.41 468.553C1183.41 469.081 1183.51 469.533 1183.69 469.909C1183.88 470.285 1184.13 470.573 1184.45 470.773C1184.77 470.965 1185.12 471.061 1185.51 471.061C1185.95 471.061 1186.33 470.949 1186.64 470.725C1186.96 470.501 1187.2 470.201 1187.36 469.825C1187.53 469.441 1187.61 469.017 1187.61 468.553C1187.61 467.833 1187.42 467.253 1187.04 466.813C1186.65 466.373 1186.15 466.153 1185.51 466.153C1184.88 466.153 1184.37 466.373 1183.99 466.813C1183.61 467.253 1183.41 467.833 1183.41 468.553ZM1192.25 471.925C1191.49 471.925 1190.9 471.717 1190.47 471.301C1190.03 470.885 1189.82 470.345 1189.82 469.681V465.433H1190.81V469.645C1190.81 470.093 1190.95 470.441 1191.23 470.689C1191.51 470.929 1191.89 471.049 1192.35 471.049C1192.93 471.049 1193.37 470.885 1193.69 470.557C1194.02 470.221 1194.19 469.801 1194.2 469.297V465.433H1195.19V471.793H1194.4L1194.32 470.833C1194.11 471.185 1193.83 471.457 1193.47 471.649C1193.11 471.833 1192.7 471.925 1192.25 471.925ZM1199.43 471.793C1198.82 471.793 1198.34 471.641 1198.02 471.337C1197.7 471.025 1197.54 470.573 1197.54 469.981V466.273H1196.36V465.433H1197.54V463.261H1198.53V465.433H1200.25V466.273H1198.53V469.981C1198.53 470.301 1198.61 470.545 1198.76 470.713C1198.91 470.873 1199.14 470.953 1199.43 470.953H1200.14V471.793H1199.43Z" fill="#97BFBF"/>
<path d="M1291.64 447.393H1293.68L1296.14 453.813L1298.59 447.393H1300.63V455.793H1298.98V450.237L1296.84 455.793H1295.44L1293.3 450.249V455.793H1291.64V447.393ZM1302.08 449.433H1303.73V455.793H1302.08V449.433ZM1301.9 447.669C1301.9 447.389 1302 447.157 1302.19 446.973C1302.39 446.781 1302.63 446.685 1302.91 446.685C1303.19 446.685 1303.43 446.781 1303.62 446.973C1303.81 447.157 1303.91 447.389 1303.91 447.669C1303.91 447.957 1303.81 448.201 1303.62 448.401C1303.43 448.593 1303.19 448.689 1302.91 448.689C1302.63 448.689 1302.39 448.593 1302.19 448.401C1302 448.201 1301.9 447.957 1301.9 447.669ZM1307.7 455.985C1307.13 455.985 1306.62 455.841 1306.16 455.553C1305.71 455.265 1305.36 454.865 1305.11 454.353C1304.85 453.833 1304.72 453.241 1304.72 452.577C1304.72 451.929 1304.85 451.353 1305.09 450.849C1305.34 450.337 1305.69 449.941 1306.13 449.661C1306.57 449.373 1307.08 449.229 1307.64 449.229C1308.06 449.229 1308.45 449.309 1308.79 449.469C1309.14 449.629 1309.43 449.849 1309.64 450.129V446.793H1311.29V455.793H1309.97L1309.82 454.725C1309.65 455.117 1309.38 455.425 1309.01 455.649C1308.64 455.873 1308.2 455.985 1307.7 455.985ZM1306.38 452.589C1306.38 453.197 1306.53 453.693 1306.83 454.077C1307.14 454.453 1307.53 454.641 1308.01 454.641C1308.5 454.641 1308.89 454.449 1309.19 454.065C1309.49 453.681 1309.64 453.181 1309.64 452.565C1309.64 451.981 1309.49 451.505 1309.19 451.137C1308.89 450.769 1308.5 450.585 1308.02 450.585C1307.53 450.585 1307.14 450.773 1306.83 451.149C1306.53 451.517 1306.38 451.997 1306.38 452.589ZM1312.34 451.473H1317.84V452.817H1312.34V451.473ZM1318.85 455.001C1318.85 454.433 1318.97 453.949 1319.2 453.549C1319.43 453.149 1319.71 452.829 1320.03 452.589C1320.35 452.341 1320.78 452.065 1321.31 451.761C1321.71 451.529 1322.02 451.337 1322.23 451.185C1322.46 451.033 1322.65 450.849 1322.8 450.633C1322.95 450.417 1323.03 450.169 1323.03 449.889C1323.03 449.529 1322.91 449.237 1322.68 449.013C1322.45 448.789 1322.16 448.677 1321.79 448.677C1321.39 448.677 1321.06 448.813 1320.79 449.085C1320.53 449.349 1320.39 449.709 1320.39 450.165H1318.65C1318.69 449.549 1318.86 449.021 1319.14 448.581C1319.43 448.133 1319.8 447.793 1320.27 447.561C1320.73 447.321 1321.25 447.201 1321.84 447.201C1322.41 447.201 1322.91 447.313 1323.34 447.537C1323.78 447.753 1324.12 448.061 1324.36 448.461C1324.6 448.853 1324.72 449.309 1324.72 449.829C1324.72 450.309 1324.61 450.725 1324.41 451.077C1324.21 451.421 1323.96 451.705 1323.66 451.929C1323.37 452.153 1322.99 452.409 1322.5 452.697C1321.99 453.001 1321.61 453.265 1321.33 453.489C1321.06 453.713 1320.88 453.985 1320.78 454.305H1324.54V455.793H1318.85V455.001ZM1328.94 455.985C1328.27 455.985 1327.68 455.805 1327.16 455.445C1326.64 455.085 1326.24 454.573 1325.96 453.909C1325.68 453.237 1325.54 452.457 1325.54 451.569C1325.54 450.705 1325.68 449.945 1325.96 449.289C1326.24 448.625 1326.63 448.113 1327.14 447.753C1327.66 447.385 1328.26 447.201 1328.94 447.201C1329.62 447.201 1330.21 447.381 1330.72 447.741C1331.23 448.101 1331.63 448.613 1331.91 449.277C1332.2 449.933 1332.34 450.697 1332.34 451.569C1332.34 452.441 1332.2 453.213 1331.92 453.885C1331.65 454.549 1331.25 455.065 1330.73 455.433C1330.22 455.801 1329.62 455.985 1328.94 455.985ZM1327.2 451.569C1327.2 452.449 1327.36 453.153 1327.67 453.681C1327.99 454.209 1328.42 454.473 1328.94 454.473C1329.47 454.473 1329.89 454.209 1330.2 453.681C1330.52 453.153 1330.67 452.449 1330.67 451.569C1330.67 450.697 1330.52 450.005 1330.2 449.493C1329.89 448.973 1329.47 448.713 1328.94 448.713C1328.42 448.713 1327.99 448.973 1327.67 449.493C1327.36 450.005 1327.2 450.697 1327.2 451.569ZM1333.22 455.001C1333.22 454.433 1333.33 453.949 1333.57 453.549C1333.8 453.149 1334.07 452.829 1334.39 452.589C1334.72 452.341 1335.15 452.065 1335.68 451.761C1336.08 451.529 1336.39 451.337 1336.6 451.185C1336.83 451.033 1337.01 450.849 1337.17 450.633C1337.32 450.417 1337.39 450.169 1337.39 449.889C1337.39 449.529 1337.28 449.237 1337.05 449.013C1336.82 448.789 1336.53 448.677 1336.16 448.677C1335.76 448.677 1335.43 448.813 1335.16 449.085C1334.9 449.349 1334.76 449.709 1334.75 450.165H1333.01C1333.06 449.549 1333.23 449.021 1333.51 448.581C1333.79 448.133 1334.17 447.793 1334.63 447.561C1335.1 447.321 1335.62 447.201 1336.21 447.201C1336.77 447.201 1337.27 447.313 1337.71 447.537C1338.15 447.753 1338.49 448.061 1338.73 448.461C1338.97 448.853 1339.09 449.309 1339.09 449.829C1339.09 450.309 1338.98 450.725 1338.77 451.077C1338.57 451.421 1338.33 451.705 1338.03 451.929C1337.74 452.153 1337.35 452.409 1336.87 452.697C1336.36 453.001 1335.97 453.265 1335.7 453.489C1335.43 453.713 1335.25 453.985 1335.15 454.305H1338.91V455.793H1333.22V455.001ZM1343.62 455.985C1342.89 455.985 1342.24 455.801 1341.67 455.433C1341.11 455.065 1340.67 454.549 1340.36 453.885C1340.06 453.221 1339.9 452.453 1339.9 451.581C1339.9 450.701 1340.06 449.933 1340.36 449.277C1340.67 448.613 1341.11 448.101 1341.68 447.741C1342.25 447.381 1342.91 447.201 1343.66 447.201C1344.24 447.201 1344.76 447.313 1345.22 447.537C1345.68 447.761 1346.05 448.077 1346.32 448.485C1346.6 448.885 1346.76 449.353 1346.8 449.889H1345.12C1345.08 449.537 1344.92 449.249 1344.64 449.025C1344.37 448.793 1344.03 448.677 1343.62 448.677C1343.01 448.677 1342.51 448.909 1342.12 449.373C1341.75 449.837 1341.53 450.465 1341.48 451.257C1341.46 451.425 1341.46 451.545 1341.46 451.617C1341.66 451.169 1341.98 450.805 1342.42 450.525C1342.87 450.245 1343.39 450.105 1343.97 450.105C1344.51 450.105 1344.98 450.225 1345.4 450.465C1345.82 450.705 1346.15 451.041 1346.38 451.473C1346.62 451.905 1346.74 452.401 1346.74 452.961C1346.74 453.553 1346.61 454.077 1346.35 454.533C1346.08 454.989 1345.72 455.345 1345.24 455.601C1344.77 455.857 1344.23 455.985 1343.62 455.985ZM1341.99 452.973C1341.99 453.453 1342.14 453.829 1342.45 454.101C1342.76 454.373 1343.13 454.509 1343.55 454.509C1343.96 454.509 1344.32 454.377 1344.62 454.113C1344.92 453.841 1345.08 453.461 1345.08 452.973C1345.08 452.485 1344.92 452.109 1344.62 451.845C1344.32 451.581 1343.97 451.449 1343.56 451.449C1343.14 451.449 1342.77 451.585 1342.46 451.857C1342.15 452.121 1341.99 452.493 1341.99 452.973ZM1246.27 463.393H1251.99V464.317H1247.28V467.041H1251.63V467.965H1247.28V471.793H1246.27V463.393ZM1255.62 471.925C1254.86 471.925 1254.27 471.717 1253.83 471.301C1253.4 470.885 1253.19 470.345 1253.19 469.681V465.433H1254.18V469.645C1254.18 470.093 1254.32 470.441 1254.6 470.689C1254.88 470.929 1255.25 471.049 1255.72 471.049C1256.29 471.049 1256.74 470.885 1257.06 470.557C1257.39 470.221 1257.56 469.801 1257.57 469.297V465.433H1258.56V471.793H1257.77L1257.69 470.833C1257.48 471.185 1257.19 471.457 1256.83 471.649C1256.47 471.833 1256.07 471.925 1255.62 471.925ZM1260.23 462.793H1261.23V471.793H1260.23V462.793ZM1262.93 462.793H1263.92V471.793H1262.93V462.793ZM1271.09 471.925C1270.47 471.925 1269.93 471.785 1269.45 471.505C1268.97 471.225 1268.61 470.837 1268.34 470.341C1268.09 469.837 1267.96 469.269 1267.96 468.637C1267.96 467.941 1268.09 467.341 1268.37 466.837C1268.64 466.325 1269 465.941 1269.46 465.685C1269.92 465.421 1270.43 465.289 1270.97 465.289C1271.85 465.289 1272.55 465.573 1273.07 466.141C1273.6 466.709 1273.87 467.497 1273.89 468.505V468.781H1268.95C1268.99 469.469 1269.19 470.021 1269.57 470.437C1269.95 470.853 1270.46 471.061 1271.09 471.061C1271.54 471.061 1271.92 470.953 1272.23 470.737C1272.54 470.513 1272.76 470.197 1272.89 469.789H1273.86C1273.72 470.445 1273.4 470.965 1272.9 471.349C1272.41 471.733 1271.81 471.925 1271.09 471.925ZM1272.84 467.953C1272.75 467.393 1272.55 466.953 1272.22 466.633C1271.89 466.313 1271.47 466.153 1270.97 466.153C1270.47 466.153 1270.04 466.313 1269.69 466.633C1269.34 466.945 1269.12 467.385 1269.01 467.953H1272.84ZM1278.04 471.925C1277.38 471.925 1276.8 471.777 1276.32 471.481C1275.84 471.185 1275.48 470.785 1275.23 470.281C1274.99 469.769 1274.87 469.201 1274.87 468.577C1274.87 467.889 1275.01 467.297 1275.28 466.801C1275.56 466.305 1275.94 465.929 1276.41 465.673C1276.89 465.417 1277.42 465.289 1278 465.289C1278.81 465.289 1279.48 465.521 1280 465.985C1280.52 466.441 1280.83 467.073 1280.92 467.881H1279.95C1279.86 467.345 1279.64 466.925 1279.29 466.621C1278.94 466.309 1278.51 466.153 1277.98 466.153C1277.35 466.153 1276.84 466.373 1276.46 466.813C1276.07 467.245 1275.88 467.833 1275.88 468.577C1275.88 469.097 1275.98 469.545 1276.17 469.921C1276.36 470.297 1276.62 470.581 1276.95 470.773C1277.28 470.965 1277.65 471.061 1278.05 471.061C1278.56 471.061 1278.98 470.909 1279.31 470.605C1279.65 470.293 1279.86 469.861 1279.95 469.309H1280.92C1280.83 470.133 1280.54 470.777 1280.03 471.241C1279.53 471.697 1278.86 471.925 1278.04 471.925ZM1285.02 471.925C1284.36 471.925 1283.79 471.781 1283.32 471.493C1282.86 471.197 1282.5 470.797 1282.26 470.293C1282.02 469.781 1281.9 469.201 1281.9 468.553C1281.9 467.865 1282.04 467.277 1282.31 466.789C1282.59 466.293 1282.97 465.921 1283.44 465.673C1283.91 465.417 1284.44 465.289 1285.02 465.289C1285.68 465.289 1286.24 465.433 1286.7 465.721C1287.18 466.009 1287.53 466.401 1287.77 466.897C1288.02 467.393 1288.14 467.945 1288.14 468.553C1288.14 469.265 1288.01 469.877 1287.74 470.389C1287.47 470.893 1287.1 471.277 1286.63 471.541C1286.16 471.797 1285.62 471.925 1285.02 471.925ZM1282.92 468.553C1282.92 469.081 1283.02 469.533 1283.2 469.909C1283.39 470.285 1283.64 470.573 1283.96 470.773C1284.28 470.965 1284.63 471.061 1285.02 471.061C1285.46 471.061 1285.84 470.949 1286.15 470.725C1286.47 470.501 1286.71 470.201 1286.87 469.825C1287.04 469.441 1287.12 469.017 1287.12 468.553C1287.12 467.833 1286.93 467.253 1286.55 466.813C1286.16 466.373 1285.66 466.153 1285.02 466.153C1284.39 466.153 1283.88 466.373 1283.5 466.813C1283.12 467.253 1282.92 467.833 1282.92 468.553ZM1291.82 471.925C1291.05 471.925 1290.42 471.737 1289.91 471.361C1289.42 470.977 1289.15 470.453 1289.11 469.789H1290.08C1290.11 470.189 1290.29 470.505 1290.62 470.737C1290.96 470.961 1291.37 471.073 1291.87 471.073C1292.76 471.073 1293.2 470.745 1293.2 470.089C1293.2 469.897 1293.15 469.745 1293.06 469.633C1292.97 469.521 1292.86 469.437 1292.72 469.381C1292.59 469.317 1292.37 469.233 1292.07 469.129L1291.15 468.817C1290.72 468.673 1290.38 468.545 1290.14 468.433C1289.9 468.321 1289.7 468.157 1289.53 467.941C1289.36 467.717 1289.28 467.425 1289.28 467.065C1289.28 466.521 1289.48 466.089 1289.88 465.769C1290.28 465.449 1290.82 465.289 1291.51 465.289C1292.22 465.289 1292.8 465.477 1293.25 465.853C1293.7 466.229 1293.96 466.765 1294.04 467.461H1293.07C1293.01 467.029 1292.85 466.701 1292.57 466.477C1292.29 466.253 1291.92 466.141 1291.47 466.141C1291.09 466.141 1290.79 466.221 1290.56 466.381C1290.35 466.541 1290.24 466.761 1290.24 467.041C1290.24 467.297 1290.33 467.485 1290.5 467.605C1290.68 467.725 1290.87 467.817 1291.07 467.881C1291.27 467.945 1291.4 467.989 1291.46 468.013L1292.33 468.301C1292.97 468.517 1293.45 468.753 1293.74 469.009C1294.04 469.265 1294.19 469.641 1294.19 470.137C1294.19 470.705 1293.98 471.145 1293.57 471.457C1293.17 471.769 1292.59 471.925 1291.82 471.925ZM1295.09 473.353H1296.11C1296.42 473.353 1296.66 473.301 1296.82 473.197C1296.98 473.101 1297.1 472.949 1297.18 472.741L1297.53 471.793H1297.29L1294.77 465.433H1295.83L1297.9 470.797L1299.89 465.433H1300.91L1298.05 473.125C1297.92 473.477 1297.69 473.741 1297.38 473.917C1297.07 474.101 1296.65 474.193 1296.11 474.193H1295.09V473.353ZM1304.3 471.925C1303.54 471.925 1302.9 471.737 1302.4 471.361C1301.9 470.977 1301.63 470.453 1301.59 469.789H1302.56C1302.6 470.189 1302.78 470.505 1303.1 470.737C1303.44 470.961 1303.86 471.073 1304.35 471.073C1305.24 471.073 1305.68 470.745 1305.68 470.089C1305.68 469.897 1305.64 469.745 1305.54 469.633C1305.45 469.521 1305.34 469.437 1305.2 469.381C1305.07 469.317 1304.85 469.233 1304.56 469.129L1303.63 468.817C1303.2 468.673 1302.86 468.545 1302.62 468.433C1302.38 468.321 1302.18 468.157 1302.01 467.941C1301.84 467.717 1301.76 467.425 1301.76 467.065C1301.76 466.521 1301.96 466.089 1302.36 465.769C1302.76 465.449 1303.3 465.289 1303.99 465.289C1304.7 465.289 1305.28 465.477 1305.73 465.853C1306.18 466.229 1306.44 466.765 1306.52 467.461H1305.55C1305.5 467.029 1305.33 466.701 1305.05 466.477C1304.77 466.253 1304.4 466.141 1303.96 466.141C1303.57 466.141 1303.27 466.221 1303.04 466.381C1302.83 466.541 1302.72 466.761 1302.72 467.041C1302.72 467.297 1302.81 467.485 1302.98 467.605C1303.16 467.725 1303.35 467.817 1303.55 467.881C1303.75 467.945 1303.88 467.989 1303.94 468.013L1304.81 468.301C1305.46 468.517 1305.93 468.753 1306.22 469.009C1306.52 469.265 1306.67 469.641 1306.67 470.137C1306.67 470.705 1306.46 471.145 1306.06 471.457C1305.66 471.769 1305.07 471.925 1304.3 471.925ZM1310.33 471.793C1309.72 471.793 1309.24 471.641 1308.92 471.337C1308.6 471.025 1308.44 470.573 1308.44 469.981V466.273H1307.26V465.433H1308.44V463.261H1309.43V465.433H1311.15V466.273H1309.43V469.981C1309.43 470.301 1309.51 470.545 1309.66 470.713C1309.81 470.873 1310.04 470.953 1310.33 470.953H1311.04V471.793H1310.33ZM1314.98 471.925C1314.36 471.925 1313.81 471.785 1313.33 471.505C1312.86 471.225 1312.49 470.837 1312.23 470.341C1311.97 469.837 1311.85 469.269 1311.85 468.637C1311.85 467.941 1311.98 467.341 1312.25 466.837C1312.53 466.325 1312.89 465.941 1313.35 465.685C1313.81 465.421 1314.31 465.289 1314.86 465.289C1315.74 465.289 1316.44 465.573 1316.96 466.141C1317.49 466.709 1317.76 467.497 1317.77 468.505V468.781H1312.84C1312.87 469.469 1313.08 470.021 1313.45 470.437C1313.84 470.853 1314.35 471.061 1314.98 471.061C1315.43 471.061 1315.81 470.953 1316.12 470.737C1316.43 470.513 1316.65 470.197 1316.78 469.789H1317.75C1317.61 470.445 1317.29 470.965 1316.79 471.349C1316.3 471.733 1315.7 471.925 1314.98 471.925ZM1316.73 467.953C1316.64 467.393 1316.43 466.953 1316.11 466.633C1315.78 466.313 1315.36 466.153 1314.86 466.153C1314.35 466.153 1313.93 466.313 1313.57 466.633C1313.23 466.945 1313.01 467.385 1312.9 467.953H1316.73ZM1319.08 465.433H1319.88L1319.97 466.417C1320.19 466.073 1320.49 465.801 1320.87 465.601C1321.26 465.393 1321.69 465.289 1322.14 465.289C1322.62 465.289 1323.02 465.401 1323.37 465.625C1323.72 465.849 1323.98 466.157 1324.15 466.549C1324.36 466.173 1324.66 465.869 1325.07 465.637C1325.48 465.405 1325.92 465.289 1326.4 465.289C1326.84 465.289 1327.23 465.385 1327.57 465.577C1327.9 465.769 1328.16 466.037 1328.34 466.381C1328.52 466.717 1328.61 467.101 1328.61 467.533V471.793H1327.62V467.569C1327.62 467.145 1327.49 466.805 1327.24 466.549C1327 466.293 1326.66 466.165 1326.24 466.165C1325.66 466.165 1325.2 466.333 1324.86 466.669C1324.52 467.005 1324.35 467.425 1324.34 467.929V471.793H1323.36V467.569C1323.36 467.145 1323.23 466.805 1322.98 466.549C1322.74 466.293 1322.4 466.165 1321.98 466.165C1321.4 466.165 1320.94 466.333 1320.6 466.669C1320.26 467.005 1320.09 467.425 1320.08 467.929V471.793H1319.08V465.433ZM1332.86 465.433H1333.86V471.793H1332.86V465.433ZM1332.62 463.621C1332.62 463.413 1332.7 463.241 1332.84 463.105C1332.98 462.961 1333.16 462.889 1333.37 462.889C1333.58 462.889 1333.75 462.961 1333.88 463.105C1334.03 463.241 1334.1 463.413 1334.1 463.621C1334.1 463.829 1334.03 464.005 1333.88 464.149C1333.75 464.293 1333.58 464.365 1333.37 464.365C1333.16 464.365 1332.98 464.293 1332.84 464.149C1332.7 464.005 1332.62 463.829 1332.62 463.621ZM1335.49 465.433H1336.28L1336.38 466.405C1336.59 466.061 1336.9 465.789 1337.29 465.589C1337.69 465.389 1338.12 465.289 1338.59 465.289C1339.27 465.289 1339.83 465.497 1340.24 465.913C1340.66 466.329 1340.87 466.885 1340.87 467.581V471.793H1339.87V467.617C1339.87 467.169 1339.73 466.817 1339.46 466.561C1339.19 466.297 1338.81 466.165 1338.33 466.165C1337.78 466.165 1337.34 466.333 1337 466.669C1336.67 467.005 1336.49 467.425 1336.49 467.929V471.793H1335.49V465.433ZM1344.91 471.793C1344.3 471.793 1343.83 471.641 1343.5 471.337C1343.18 471.025 1343.02 470.573 1343.02 469.981V466.273H1341.84V465.433H1343.02V463.261H1344.01V465.433H1345.73V466.273H1344.01V469.981C1344.01 470.301 1344.09 470.545 1344.24 470.713C1344.39 470.873 1344.62 470.953 1344.91 470.953H1345.62V471.793H1344.91ZM1349.56 471.925C1348.94 471.925 1348.4 471.785 1347.92 471.505C1347.44 471.225 1347.08 470.837 1346.81 470.341C1346.56 469.837 1346.43 469.269 1346.43 468.637C1346.43 467.941 1346.56 467.341 1346.84 466.837C1347.11 466.325 1347.47 465.941 1347.93 465.685C1348.39 465.421 1348.9 465.289 1349.44 465.289C1350.32 465.289 1351.02 465.573 1351.54 466.141C1352.07 466.709 1352.34 467.497 1352.36 468.505V468.781H1347.42C1347.46 469.469 1347.66 470.021 1348.04 470.437C1348.42 470.853 1348.93 471.061 1349.56 471.061C1350.01 471.061 1350.39 470.953 1350.7 470.737C1351.01 470.513 1351.23 470.197 1351.36 469.789H1352.33C1352.19 470.445 1351.87 470.965 1351.37 471.349C1350.88 471.733 1350.28 471.925 1349.56 471.925ZM1351.31 467.953C1351.22 467.393 1351.02 466.953 1350.69 466.633C1350.36 466.313 1349.94 466.153 1349.44 466.153C1348.94 466.153 1348.51 466.313 1348.16 466.633C1347.81 466.945 1347.59 467.385 1347.48 467.953H1351.31ZM1356.44 474.337C1355.57 474.337 1354.88 474.141 1354.35 473.749C1353.82 473.357 1353.56 472.829 1353.56 472.165H1354.55C1354.55 472.549 1354.73 472.865 1355.08 473.113C1355.43 473.369 1355.89 473.497 1356.44 473.497C1357.08 473.497 1357.57 473.325 1357.91 472.981C1358.26 472.637 1358.43 472.185 1358.43 471.625V470.593C1358.2 470.929 1357.89 471.197 1357.52 471.397C1357.14 471.589 1356.72 471.685 1356.25 471.685C1355.69 471.685 1355.19 471.553 1354.75 471.289C1354.31 471.017 1353.96 470.641 1353.71 470.161C1353.47 469.681 1353.34 469.133 1353.34 468.517C1353.34 467.893 1353.47 467.337 1353.71 466.849C1353.96 466.353 1354.31 465.969 1354.75 465.697C1355.19 465.425 1355.69 465.289 1356.25 465.289C1356.75 465.289 1357.2 465.401 1357.6 465.625C1358 465.841 1358.31 466.145 1358.53 466.537L1358.63 465.433H1359.41V471.625C1359.41 472.161 1359.29 472.633 1359.05 473.041C1358.82 473.449 1358.48 473.765 1358.03 473.989C1357.59 474.221 1357.06 474.337 1356.44 474.337ZM1354.37 468.505C1354.37 468.953 1354.46 469.353 1354.63 469.705C1354.8 470.057 1355.04 470.333 1355.35 470.533C1355.65 470.725 1356 470.821 1356.39 470.821C1356.78 470.821 1357.13 470.725 1357.45 470.533C1357.76 470.333 1358 470.057 1358.17 469.705C1358.34 469.345 1358.43 468.937 1358.43 468.481C1358.43 468.033 1358.34 467.633 1358.17 467.281C1358 466.921 1357.76 466.645 1357.45 466.453C1357.13 466.253 1356.78 466.153 1356.39 466.153C1356 466.153 1355.65 466.253 1355.35 466.453C1355.04 466.653 1354.8 466.933 1354.63 467.293C1354.46 467.645 1354.37 468.049 1354.37 468.505ZM1361.05 465.433H1361.84L1361.96 466.645C1362.38 465.813 1363.11 465.397 1364.17 465.397H1364.38V466.381H1364.17C1363.5 466.381 1362.97 466.565 1362.6 466.933C1362.23 467.293 1362.04 467.801 1362.04 468.457V471.793H1361.05V465.433ZM1367.44 471.889C1366.72 471.889 1366.14 471.717 1365.71 471.373C1365.28 471.029 1365.07 470.565 1365.07 469.981C1365.07 469.525 1365.2 469.169 1365.44 468.913C1365.7 468.649 1366.02 468.465 1366.39 468.361C1366.78 468.249 1367.23 468.165 1367.76 468.109L1368.16 468.073C1368.66 468.025 1369.02 467.969 1369.24 467.905C1369.46 467.841 1369.58 467.709 1369.58 467.509C1369.58 467.109 1369.42 466.781 1369.12 466.525C1368.82 466.269 1368.43 466.141 1367.95 466.141C1367.49 466.141 1367.09 466.261 1366.76 466.501C1366.44 466.733 1366.26 467.037 1366.2 467.413H1365.22C1365.26 467.005 1365.4 466.641 1365.65 466.321C1365.9 465.993 1366.22 465.741 1366.62 465.565C1367.03 465.381 1367.48 465.289 1367.98 465.289C1368.5 465.289 1368.95 465.385 1369.33 465.577C1369.72 465.769 1370.02 466.037 1370.23 466.381C1370.45 466.725 1370.56 467.121 1370.56 467.569V470.665C1370.56 470.873 1370.66 470.977 1370.88 470.977H1371.24V471.793H1370.68C1370.33 471.793 1370.07 471.717 1369.9 471.565C1369.72 471.413 1369.63 471.189 1369.63 470.893V470.701C1369.44 471.077 1369.16 471.369 1368.79 471.577C1368.42 471.785 1367.97 471.889 1367.44 471.889ZM1366.07 469.957C1366.07 470.285 1366.2 470.549 1366.48 470.749C1366.76 470.941 1367.12 471.037 1367.58 471.037C1368.17 471.037 1368.65 470.869 1369.02 470.533C1369.4 470.189 1369.58 469.753 1369.58 469.225V468.397C1369.46 468.565 1369.27 468.681 1369 468.745C1368.72 468.809 1368.33 468.869 1367.82 468.925C1367.44 468.965 1367.14 469.013 1366.9 469.069C1366.66 469.125 1366.47 469.225 1366.31 469.369C1366.15 469.505 1366.07 469.701 1366.07 469.957ZM1374.8 471.793C1374.18 471.793 1373.71 471.641 1373.38 471.337C1373.06 471.025 1372.9 470.573 1372.9 469.981V466.273H1371.72V465.433H1372.9V463.261H1373.9V465.433H1375.61V466.273H1373.9V469.981C1373.9 470.301 1373.97 470.545 1374.12 470.713C1374.28 470.873 1374.5 470.953 1374.8 470.953H1375.5V471.793H1374.8ZM1376.79 465.433H1377.78V471.793H1376.79V465.433ZM1376.55 463.621C1376.55 463.413 1376.62 463.241 1376.76 463.105C1376.91 462.961 1377.08 462.889 1377.29 462.889C1377.5 462.889 1377.67 462.961 1377.81 463.105C1377.95 463.241 1378.02 463.413 1378.02 463.621C1378.02 463.829 1377.95 464.005 1377.81 464.149C1377.67 464.293 1377.5 464.365 1377.29 464.365C1377.08 464.365 1376.91 464.293 1376.76 464.149C1376.62 464.005 1376.55 463.829 1376.55 463.621ZM1382.21 471.925C1381.54 471.925 1380.98 471.781 1380.5 471.493C1380.04 471.197 1379.69 470.797 1379.45 470.293C1379.21 469.781 1379.09 469.201 1379.09 468.553C1379.09 467.865 1379.22 467.277 1379.5 466.789C1379.78 466.293 1380.15 465.921 1380.62 465.673C1381.1 465.417 1381.62 465.289 1382.21 465.289C1382.86 465.289 1383.42 465.433 1383.89 465.721C1384.36 466.009 1384.72 466.401 1384.96 466.897C1385.2 467.393 1385.33 467.945 1385.33 468.553C1385.33 469.265 1385.19 469.877 1384.92 470.389C1384.66 470.893 1384.29 471.277 1383.82 471.541C1383.34 471.797 1382.81 471.925 1382.21 471.925ZM1380.11 468.553C1380.11 469.081 1380.2 469.533 1380.38 469.909C1380.58 470.285 1380.83 470.573 1381.14 470.773C1381.46 470.965 1381.82 471.061 1382.21 471.061C1382.65 471.061 1383.02 470.949 1383.34 470.725C1383.66 470.501 1383.9 470.201 1384.06 469.825C1384.22 469.441 1384.31 469.017 1384.31 468.553C1384.31 467.833 1384.12 467.253 1383.73 466.813C1383.35 466.373 1382.84 466.153 1382.21 466.153C1381.58 466.153 1381.07 466.373 1380.68 466.813C1380.3 467.253 1380.11 467.833 1380.11 468.553ZM1386.63 465.433H1387.42L1387.52 466.405C1387.73 466.061 1388.04 465.789 1388.43 465.589C1388.83 465.389 1389.26 465.289 1389.73 465.289C1390.41 465.289 1390.97 465.497 1391.38 465.913C1391.8 466.329 1392.01 466.885 1392.01 467.581V471.793H1391.01V467.617C1391.01 467.169 1390.87 466.817 1390.6 466.561C1390.33 466.297 1389.95 466.165 1389.47 466.165C1388.92 466.165 1388.48 466.333 1388.14 466.669C1387.81 467.005 1387.63 467.425 1387.63 467.929V471.793H1386.63V465.433Z" fill="#97BFBF"/>
</svg>
