<svg width="166" height="83" viewBox="0 0 166 83" fill="none" xmlns="http://www.w3.org/2000/svg">
<g clip-path="url(#clip0_67_1193)">
<path d="M160.053 42.3731C160.053 48.9342 155.827 53.3619 149.87 53.3619C143.913 53.3619 139.688 48.9342 139.688 42.3731C139.688 35.812 143.913 31.3843 149.87 31.3843C155.827 31.3843 160.053 35.812 160.053 42.3731ZM144.557 42.3731C144.557 46.6801 146.61 49.2965 149.87 49.2965C153.13 49.2965 155.183 46.6801 155.183 42.3731C155.183 38.0661 153.13 35.4498 149.87 35.4498C146.61 35.4498 144.557 38.0661 144.557 42.3731Z" fill="white"/>
<path d="M132.842 52.919V49.9404C131.675 51.8725 128.858 53.3618 125.075 53.3618C117.589 53.3618 112.034 47.3239 112.034 38.5892C112.034 29.8143 117.629 23.5752 125.397 23.5752C131.313 23.5752 135.297 26.7551 137.069 31.8671L132.158 33.5175C131.313 30.0961 128.898 28.1237 125.437 28.1237C120.567 28.1237 117.186 32.2697 117.186 38.5087C117.186 44.7478 120.567 48.934 125.518 48.934C129.703 48.934 132.44 45.9554 132.601 41.8496H124.994V37.3414H137.552V52.919H132.842Z" fill="white"/>
<path d="M101.373 47.6058V35.8924H98.435V31.7868H101.373V25.5879H106.122V31.7868H110.549V35.8924H106.122V46.841C106.122 48.7328 107.209 48.9341 108.939 48.9341C109.745 48.9341 110.187 48.8939 110.911 48.8134V52.8788C110.026 53.0398 108.819 53.1606 107.571 53.1606C103.546 53.1606 101.373 51.9128 101.373 47.6058Z" fill="white"/>
<path d="M91.8689 28.9696V24.0186H96.8598V28.9696H91.8689ZM96.7793 31.7873V52.9196H91.9494V31.7873H96.7793Z" fill="white"/>
<path d="M67.9952 52.9196V24.0186H79.4657C85.664 24.0186 88.9641 26.7155 88.9641 31.6262C88.9641 35.2086 86.8713 37.0603 84.8585 37.8653C87.8772 38.8314 89.89 41.327 89.89 44.8692C89.89 49.9409 86.1469 52.9196 80.1901 52.9196H67.9952ZM72.9455 35.9735H78.9828C82.2829 35.9735 84.0942 34.6854 84.0942 32.1495C84.0942 29.6136 82.2829 28.3658 78.9828 28.3658H72.9455V35.9735ZM72.9455 40.3207V48.5724H79.9082C83.1683 48.5724 84.9396 46.8818 84.9396 44.4264C84.9396 42.0113 83.1683 40.3207 79.9082 40.3207H72.9455Z" fill="white"/>
<path fill-rule="evenodd" clip-rule="evenodd" d="M51.1256 44.7524C51.1256 56.6596 29.1237 67.0258 29.1237 67.0258C29.1237 67.0258 7.12141 56.6596 7.12141 44.7524C7.12141 41.6603 7.12267 38.9307 7.12389 36.321C7.1263 31.1325 7.12849 26.4176 7.12006 20.2704C21.0911 13.9199 37.158 13.9265 51.1256 20.2842V44.7524ZM27.406 24.0172H24.5671V26.8141H21.7281V50.1255H24.5671V52.9232H27.406V50.1255H30.2451V52.9232H33.084V49.8567C36.6912 49.1012 38.762 46.7875 38.762 43.3524C38.762 40.9522 37.2008 38.7821 34.5295 38.0917C36.8886 37.4012 38.2416 35.3956 38.2416 33.1598C38.2416 29.9786 36.3056 27.7479 33.084 27.0478V24.0172H30.2451V26.8141H27.406V24.0172ZM29.9155 30.4638C32.3093 30.4638 33.6969 31.5488 33.6969 33.39C33.6969 35.2312 32.3786 36.3162 30.1583 36.3162H26.1687V30.4638H29.9155ZM30.193 39.8672C32.8643 39.8672 34.2173 40.9522 34.2173 43.1222C34.2173 45.095 32.5868 46.3115 29.9502 46.3115H26.1687V39.8672H30.193Z" fill="white"/>
</g>
<defs>
<clipPath id="clip0_67_1193">
<rect width="152.984" height="51.5677" fill="white" transform="translate(7.08347 15.4702)"/>
</clipPath>
</defs>
</svg>
