<svg width="80" height="40" viewBox="0 0 80 40" fill="none" xmlns="http://www.w3.org/2000/svg">
<g clip-path="url(#clip0_4161_30801)">
<path d="M77.5343 20.5425C77.5343 23.7233 75.4856 25.8698 72.5977 25.8698C69.7099 25.8698 67.6611 23.7233 67.6611 20.5425C67.6611 17.3617 69.7099 15.2151 72.5977 15.2151C75.4856 15.2151 77.5343 17.3617 77.5343 20.5425ZM70.0221 20.5425C70.0221 22.6305 71.0172 23.8989 72.5977 23.8989C74.1782 23.8989 75.1734 22.6305 75.1734 20.5425C75.1734 18.4544 74.1782 17.186 72.5977 17.186C71.0172 17.186 70.0221 18.4544 70.0221 20.5425Z" fill="#778A96"/>
<path d="M64.3423 25.6552V24.2111C63.7766 25.1478 62.4106 25.8698 60.5766 25.8698C56.9474 25.8698 54.2546 22.9427 54.2546 18.7081C54.2546 14.454 56.9667 11.4293 60.7327 11.4293C63.6009 11.4293 65.5326 12.9709 66.3913 15.4492L64.0108 16.2493C63.6009 14.5906 62.4303 13.6344 60.7523 13.6344C58.3912 13.6344 56.7523 15.6444 56.7523 18.6691C56.7523 21.6938 58.3912 23.7233 60.7914 23.7233C62.8205 23.7233 64.1472 22.2792 64.2252 20.2888H60.5376V18.1032H66.6254V25.6552H64.3423Z" fill="#778A96"/>
<path d="M49.086 23.0792V17.4005H47.6619V15.4101H49.086V12.4049H51.3885V15.4101H53.535V17.4005H51.3885V22.7084C51.3885 23.6256 51.9155 23.7231 52.7543 23.7231C53.1448 23.7231 53.3592 23.7036 53.7104 23.6646V25.6355C53.2812 25.7136 52.6959 25.7721 52.0909 25.7721C50.1398 25.7721 49.086 25.1672 49.086 23.0792Z" fill="#778A96"/>
<path d="M44.4788 14.0447V11.6444H46.8983V14.0447H44.4788ZM46.8593 15.4107V25.6556H44.5178V15.4107H46.8593Z" fill="#778A96"/>
<path d="M32.9045 25.6556V11.6444H38.4655C41.4704 11.6444 43.0702 12.9519 43.0702 15.3326C43.0702 17.0694 42.0557 17.967 41.0799 18.3573C42.5433 18.8257 43.5191 20.0355 43.5191 21.7528C43.5191 24.2116 41.7045 25.6556 38.8167 25.6556H32.9045ZM35.3045 17.4401H38.2313C39.8312 17.4401 40.7093 16.8157 40.7093 15.5863C40.7093 14.3569 39.8312 13.752 38.2313 13.752H35.3045V17.4401ZM35.3045 19.5477V23.5481H38.68C40.2604 23.5481 41.1192 22.7285 41.1192 21.5381C41.1192 20.3673 40.2604 19.5477 38.68 19.5477H35.3045Z" fill="#778A96"/>
<path fill-rule="evenodd" clip-rule="evenodd" d="M24.7262 21.6957C24.7262 27.4684 14.0597 32.4939 14.0597 32.4939C14.0597 32.4939 3.39299 27.4684 3.39299 21.6957C3.39299 20.1967 3.3936 18.8734 3.39419 17.6082C3.39536 15.0928 3.39642 12.8071 3.39233 9.82688C10.1655 6.74819 17.9547 6.75138 24.7262 9.83361V21.6957ZM13.227 11.6433H11.8506V12.9993H10.4743V24.3006H11.8506V25.657H13.227V24.3006H14.6033V25.657H15.9796V24.1703C17.7284 23.804 18.7323 22.6824 18.7323 21.017C18.7323 19.8534 17.9755 18.8014 16.6804 18.4667C17.8241 18.1319 18.48 17.1596 18.48 16.0757C18.48 14.5334 17.5415 13.452 15.9796 13.1126V11.6433H14.6033V12.9993H13.227V11.6433ZM14.4435 14.7686C15.604 14.7686 16.2768 15.2946 16.2768 16.1873C16.2768 17.0799 15.6377 17.6059 14.5613 17.6059H12.6271V14.7686H14.4435ZM14.5781 19.3274C15.8731 19.3274 16.5291 19.8534 16.5291 20.9054C16.5291 21.8618 15.7386 22.4516 14.4603 22.4516H12.6271V19.3274H14.5781Z" fill="#778A96"/>
</g>
<defs>
<clipPath id="clip0_4161_30801">
<rect width="74.1667" height="25" fill="white" transform="translate(3.37476 7.5)"/>
</clipPath>
</defs>
</svg>
