<svg width="87" height="40" viewBox="0 0 87 40" fill="none" xmlns="http://www.w3.org/2000/svg">
<path d="M10.0735 25.941V19.173H11.5878C14.3904 19.173 16.3793 20.1333 16.3793 23.3416C16.3793 26.0582 15.1814 27.3461 12.5144 27.3461C11.2262 27.3461 10.0735 27.2993 10.0735 25.941ZM10.0735 18.5192V12.8803C10.0735 12.0246 10.2204 11.9808 11.3711 11.9808C14.603 11.9808 16.0475 12.6609 16.0475 15.0086C16.0475 17.1369 14.8233 18.4753 12.326 18.5192H10.0735ZM6.23831 13.8489V25.1511C6.23831 27.1594 6.02909 27.3461 4.09961 27.3695V28H12.4916C15.8857 28 19.6981 27.4162 19.6981 23.4932C19.6981 20.6442 17.0016 19.4299 14.6303 18.9629V18.9162C16.6993 18.5426 18.7217 17.3283 18.7217 14.9698C18.7217 11.5137 14.3515 11 11.5153 11H4.09961V11.6305C6.02909 11.6538 6.23831 11.8407 6.23831 13.8489ZM23.0766 19.5414C23.0766 19.2673 22.8079 18.9932 21.5378 18.9247V18.3765C22.9789 18.1252 24.3955 17.6912 25.8121 17.2115V26.2798C25.8121 26.9879 25.9586 27.1249 27.1799 27.1249V27.6731H21.6111V27.1249C22.93 27.1249 23.0766 26.9879 23.0766 26.2798V19.5414ZM26.1713 12.7239C26.1713 13.709 25.309 14.4478 24.4212 14.4478C23.5336 14.4478 22.6712 13.709 22.6712 12.7239C22.6712 11.7388 23.5336 11 24.4212 11C25.309 11 26.1713 11.7388 26.1713 12.7239ZM35.1213 18.4568C35.1712 18.5192 35.216 18.5905 35.2546 18.6721L39.461 27.9458H40.1028L43.5725 19.7228L47.1136 27.9458H47.8266L51.1063 20.0654C51.4865 19.1289 51.8905 18.2152 53.0075 18.0325V17.4843H49.4188V18.0325L49.4723 18.041C50.1636 18.1515 50.7735 18.2489 50.7735 18.6721C50.7735 18.8548 50.631 19.1974 50.4407 19.6542L48.5396 24.6795L46.3293 19.403C46.2957 19.314 46.2441 19.1964 46.1916 19.0765C46.0958 18.8578 45.9966 18.6316 45.9966 18.5578C45.9966 18.2609 46.5908 18.101 47.4938 18.0325V17.4843H41.2673V18.0325C42.6457 18.1467 43.0735 18.5807 43.0735 18.969C43.0735 19.2006 42.9376 19.5139 42.7664 19.9088C42.7351 19.9811 42.7026 20.0561 42.6694 20.1339L40.8157 24.5881L38.5818 19.5629C38.5311 19.4377 38.4782 19.3209 38.4292 19.2126C38.3172 18.9654 38.2253 18.7624 38.2253 18.6035C38.2253 18.3066 38.8432 18.0325 39.8414 18.0325V17.4843H34.0901V17.4889L31.8837 17.4926V13.6154L28.1155 17.745V18.2956H29.3565V25.8664C29.3565 27.1053 30.417 28 32.0191 28C33.012 28 34.5463 27.3347 35.1105 26.5317V25.7058C34.5914 26.1875 33.9597 26.7611 33.215 26.7611C31.9966 26.7611 31.8837 25.9582 31.8837 25.4075V18.2956L34.4825 18.2905C34.4825 18.2905 35.0098 18.3327 35.1213 18.4568ZM54.0026 18.9247C55.2726 18.9932 55.5412 19.2673 55.5412 19.5414V26.2798C55.5412 26.9879 55.3947 27.1249 54.0758 27.1249V27.6731H59.6446V27.1249C58.4234 27.1249 58.2768 26.9879 58.2768 26.2798V17.2115C56.8601 17.6912 55.4435 18.1252 54.0026 18.3765V18.9247ZM56.9117 14.4478C57.7995 14.4478 58.6619 13.709 58.6619 12.7239C58.6619 11.7388 57.7995 11 56.9117 11C56.0241 11 55.1617 11.7388 55.1617 12.7239C55.1617 13.709 56.0241 14.4478 56.9117 14.4478ZM69.4711 18.0573C68.1098 17.5773 66.8702 17.2115 65.6306 17.2115C63.7346 17.2115 61.3039 18.1487 61.3039 20.2515C61.3039 21.8972 62.8596 22.743 64.4152 23.4286C65.9708 24.1372 67.5265 24.7087 67.5265 25.8058C67.5265 26.72 66.9431 27.4514 65.9223 27.4514C63.5645 27.4514 62.3978 25.6001 61.9603 23.6572L61.3769 23.7487L61.5956 27.2C62.5679 27.6114 64.3179 28 65.3632 28C67.6966 28 69.9329 27.2914 69.9329 24.7543C69.9329 22.9944 68.3044 22.2172 66.7973 21.5086C64.95 20.6401 63.5645 20.0458 63.5645 19.2687C63.5645 18.4001 64.3909 17.7601 65.2417 17.7601C67.2349 17.7601 68.2801 19.543 68.8878 21.1201L69.4711 21.0744V18.0573ZM81.4829 24.0229L81.8208 24.3658C80.8553 26.6057 79.2139 28 76.5347 28C73.0831 28 71.2004 25.9429 71.2004 22.7886C71.2004 19.6572 73.5659 17.2115 76.8727 17.2115C79.4794 17.2115 81.7724 19.063 81.7724 21.6229H73.9038C73.7831 23.8172 75.2314 25.9429 77.7416 25.9429C79.4071 25.9429 80.4933 25.2571 81.4829 24.0229ZM73.9153 21.1346H78.3066C78.7526 21.1346 78.8936 21.0687 78.8936 20.6077C78.8936 19.2463 77.8134 18.1923 76.5454 18.1923C74.5728 18.1923 74.0092 19.7952 73.9153 21.1346Z" fill="#778A96"/>
<path d="M83.1984 18.7559C84.253 18.7559 85.0996 17.9139 85.0996 16.8695C85.0996 15.8251 84.253 14.9831 83.1984 14.9831C82.1472 14.9831 81.297 15.8251 81.297 16.8695C81.297 17.9139 82.1472 18.7559 83.1984 18.7559ZM83.1984 18.2727C82.4091 18.2727 81.7741 17.6475 81.7741 16.8695C81.7741 16.088 82.4091 15.4663 83.1984 15.4663C83.9912 15.4663 84.6225 16.088 84.6225 16.8695C84.6225 17.6475 83.9912 18.2727 83.1984 18.2727ZM82.897 17.7079V17.1217H83.1661L83.5643 17.7079H84.0988L83.6431 17.0578C83.8764 16.9903 84.0126 16.7949 84.0126 16.532C84.0126 16.2016 83.7508 15.9778 83.367 15.9778H82.4485V17.7079H82.897ZM82.897 16.3473H83.2593C83.4387 16.3473 83.532 16.4219 83.532 16.564C83.532 16.7096 83.4387 16.7771 83.2522 16.7771H82.897V16.3473Z" fill="#778A96"/>
</svg>
