<svg width="178" height="83" viewBox="0 0 178 83" fill="none" xmlns="http://www.w3.org/2000/svg">
<path d="M19.3648 53.5088V39.5485H22.4883C28.2692 39.5485 32.3717 41.5293 32.3717 48.147C32.3717 53.7506 29.9009 56.4073 24.3997 56.4073C21.7424 56.4073 19.3648 56.3107 19.3648 53.5088ZM19.3648 38.1999V26.5685C19.3648 24.8035 19.6678 24.713 22.0413 24.713C28.7077 24.713 31.6873 26.116 31.6873 30.9586C31.6873 35.3486 29.1622 38.1094 24.011 38.1999H19.3648ZM11.4538 28.5664V51.8795C11.4538 56.022 11.0223 56.4073 7.0423 56.4555V57.756H24.3526C31.3536 57.756 39.2175 56.5517 39.2175 48.4597C39.2175 42.5832 33.6553 40.0784 28.7641 39.1151V39.0188C33.0317 38.2481 37.2035 35.7434 37.2035 30.8784C37.2035 23.7496 28.1889 22.6899 22.3387 22.6899H7.0423V23.9905C11.0223 24.0386 11.4538 24.424 11.4538 28.5664ZM46.1863 40.3083C46.1863 39.7429 45.6321 39.1776 43.0123 39.0362V37.9055C45.9847 37.3872 48.9068 36.492 51.8289 35.5026V54.2077C51.8289 55.6683 52.1311 55.9509 54.6503 55.9509V57.0816H43.1635V55.9509C45.884 55.9509 46.1863 55.6683 46.1863 54.2077V40.3083ZM52.5697 26.2459C52.5697 28.2779 50.7911 29.8018 48.9599 29.8018C47.1289 29.8018 45.3501 28.2779 45.3501 26.2459C45.3501 24.2139 47.1289 22.6899 48.9599 22.6899C50.7911 22.6899 52.5697 24.2139 52.5697 26.2459ZM71.031 38.0711C71.134 38.1998 71.2264 38.3469 71.306 38.5152L79.9826 57.6442H81.3064L88.4635 40.6825L95.7677 57.6442H97.2384L104.003 41.3893C104.788 39.4575 105.621 37.5728 107.925 37.1959V36.0651H100.523V37.1959L100.633 37.2135C102.059 37.4414 103.317 37.6424 103.317 38.5152C103.317 38.8921 103.023 39.5989 102.631 40.5411L98.7091 50.9067L94.1499 40.0229C94.0805 39.8394 93.9741 39.5967 93.8658 39.3494C93.6682 38.8983 93.4637 38.4317 93.4637 38.2796C93.4637 37.6671 94.6893 37.3373 96.5519 37.1959V36.0651H83.7083V37.1959C86.5516 37.4315 87.4341 38.3267 87.4341 39.1277C87.4341 39.6055 87.1538 40.2517 86.8007 41.0662C86.7361 41.2153 86.6691 41.3701 86.6006 41.5305L82.777 50.7182L78.169 40.3528C78.0644 40.0944 77.9554 39.8535 77.8542 39.6302C77.6232 39.1203 77.4337 38.7015 77.4337 38.3738C77.4337 37.7613 78.7082 37.1959 80.7672 37.1959V36.0651H68.904V36.0747L64.3528 36.0823V28.0847L56.5801 36.6028V37.7385H59.14V53.3551C59.14 55.9105 61.3275 57.756 64.6321 57.756C66.6802 57.756 69.845 56.3836 71.0087 54.7272V53.0237C69.938 54.0174 68.6349 55.2005 67.0989 55.2005C64.5857 55.2005 64.3528 53.5443 64.3528 52.4085V37.7385L69.7134 37.7282C69.7134 37.7282 70.8011 37.8151 71.031 38.0711ZM109.978 39.0362C112.597 39.1776 113.151 39.7429 113.151 40.3083V54.2077C113.151 55.6683 112.849 55.9509 110.129 55.9509V57.0816H121.615V55.9509C119.096 55.9509 118.794 55.6683 118.794 54.2077V35.5026C115.872 36.492 112.95 37.3872 109.978 37.9055V39.0362ZM115.978 29.8018C117.81 29.8018 119.588 28.2779 119.588 26.2459C119.588 24.2139 117.81 22.6899 115.978 22.6899C114.147 22.6899 112.369 24.2139 112.369 26.2459C112.369 28.2779 114.147 29.8018 115.978 29.8018ZM141.885 37.247C139.077 36.2569 136.52 35.5026 133.963 35.5026C130.052 35.5026 125.038 37.4356 125.038 41.7732C125.038 45.1677 128.247 46.9123 131.456 48.3265C134.665 49.7881 137.874 50.967 137.874 53.23C137.874 55.1158 136.67 56.6245 134.564 56.6245C129.701 56.6245 127.294 52.8056 126.392 48.798L125.189 48.9867L125.64 56.1059C127.645 56.9544 131.255 57.756 133.411 57.756C138.224 57.756 142.837 56.2944 142.837 51.061C142.837 47.4309 139.478 45.8277 136.369 44.3661C132.559 42.5748 129.701 41.3488 129.701 39.7458C129.701 37.9542 131.406 36.6341 133.161 36.6341C137.272 36.6341 139.428 40.3116 140.681 43.5647L141.885 43.4704V37.247ZM166.661 49.5525L167.358 50.2596C165.367 54.8799 161.981 57.756 156.455 57.756C149.335 57.756 145.452 53.5128 145.452 47.0063C145.452 40.5472 150.331 35.5026 157.152 35.5026C162.529 35.5026 167.259 39.3215 167.259 44.6019H151.028C150.779 49.1281 153.766 53.5128 158.944 53.5128C162.38 53.5128 164.62 52.0983 166.661 49.5525ZM151.052 43.5946H160.11C161.03 43.5946 161.321 43.4588 161.321 42.5077C161.321 39.6996 159.093 37.5256 156.477 37.5256C152.408 37.5256 151.245 40.8318 151.052 43.5946Z" fill="white"/>
<path d="M170.2 38.688C172.375 38.688 174.122 36.9514 174.122 34.797C174.122 32.6427 172.375 30.906 170.2 30.906C168.032 30.906 166.278 32.6427 166.278 34.797C166.278 36.9514 168.032 38.688 170.2 38.688ZM170.2 37.6915C168.572 37.6915 167.262 36.4018 167.262 34.797C167.262 33.1849 168.572 31.9026 170.2 31.9026C171.835 31.9026 173.138 33.1849 173.138 34.797C173.138 36.4018 171.835 37.6915 170.2 37.6915ZM169.578 36.5264V35.3173H170.133L170.955 36.5264H172.057L171.117 35.1854C171.599 35.0462 171.88 34.6431 171.88 34.1009C171.88 33.4194 171.34 32.9578 170.548 32.9578H168.653V36.5264H169.578ZM169.578 33.7199H170.326C170.696 33.7199 170.888 33.8737 170.888 34.1669C170.888 34.4673 170.696 34.6065 170.311 34.6065H169.578V33.7199Z" fill="white"/>
</svg>
