<svg width="85" height="20" viewBox="0 0 85 20" fill="none" xmlns="http://www.w3.org/2000/svg">
<g clip-path="url(#clip0_649_3716)">
<path fill-rule="evenodd" clip-rule="evenodd" d="M5.40964 4.7392L7.56185 3.49496L9.77011 4.77283L14.4108 1.01767V7.45188V15.3601L7.56185 19.3115L0.718495 15.3545V8.61766H0.712891V0.939209L5.40964 4.7392ZM1.9123 9.27341V14.6651L7.56185 17.9271L13.2114 14.6651V9.35749L7.55624 12.6811L1.9123 9.27341ZM2.14209 8.01235L7.56745 11.2911L13.0657 8.05719L7.56745 4.87932L2.14209 8.01235ZM11.0031 5.31649L13.2114 6.61118V3.52859C12.4772 4.12269 11.743 4.71678 11.0031 5.31649ZM1.9123 6.53271L4.12056 5.23802L1.9123 3.45012C1.9123 4.47578 1.9123 5.50144 1.9123 6.53271Z" fill="white"/>
<path fill-rule="evenodd" clip-rule="evenodd" d="M21.1585 10.2149H21.2762C21.6461 10.2149 22.2066 10.1645 22.2066 10.6913C22.2066 11.1733 21.6405 11.1565 21.3042 11.1565H21.1585V10.2149ZM21.7694 12.0196C22.5709 12.0196 23.35 11.717 23.35 10.8034C23.35 10.1925 23.0809 9.77215 22.4588 9.69368V9.68247C22.8119 9.50312 22.9408 9.18365 22.9408 8.79132C22.9408 7.95622 22.4196 7.65356 21.6461 7.65356H20.0264V12.0196H21.7694ZM21.1585 8.52229H21.237C21.5452 8.52229 21.8983 8.54471 21.8983 8.94265C21.8983 9.31256 21.5845 9.363 21.2818 9.363H21.1529V8.52229H21.1585Z" fill="white"/>
<path fill-rule="evenodd" clip-rule="evenodd" d="M26.8135 7.65356H25.6758V12.0196H28.1755V11.0556H26.8135V7.65356Z" fill="white"/>
<path fill-rule="evenodd" clip-rule="evenodd" d="M32.4796 7.5083C31.2241 7.5083 30.064 8.43308 30.064 9.75579C30.064 11.1682 31.0784 12.1658 32.4796 12.1658C33.8808 12.1658 34.8952 11.1682 34.8952 9.75579C34.8952 8.43868 33.735 7.5083 32.4796 7.5083ZM32.4796 8.61243C33.1578 8.61243 33.7126 9.16169 33.7126 9.767C33.7126 10.518 33.1578 11.0673 32.4796 11.0673C31.8014 11.0673 31.2466 10.518 31.2466 9.767C31.2466 9.16169 31.8014 8.61243 32.4796 8.61243Z" fill="white"/>
<path fill-rule="evenodd" clip-rule="evenodd" d="M40.2757 7.75984C39.9394 7.61973 39.6031 7.54126 39.2388 7.54126C38.6223 7.54126 38.0058 7.81029 37.5742 8.24745C37.1595 8.67341 36.9297 9.2507 36.9297 9.8448C36.9297 10.4949 37.1483 11.061 37.6303 11.4926C38.0843 11.9017 38.6615 12.1371 39.2669 12.1371C39.6199 12.1371 39.8946 12.0474 40.2701 11.9354V10.5734C40.0347 10.8592 39.6592 11.0386 39.2893 11.0386C38.5831 11.0386 38.1067 10.5398 38.1067 9.8504C38.1067 9.17223 38.5775 8.63978 39.2725 8.63978C39.6592 8.63978 40.0347 8.80792 40.2701 9.12179V7.75984H40.2757Z" fill="white"/>
<path fill-rule="evenodd" clip-rule="evenodd" d="M43.8628 9.45805H43.8516V7.65894H42.7139V12.025H43.8516V10.1306H43.8628L45.3257 12.025H46.7941L44.8997 9.72707L46.6372 7.65894H45.2304L43.8628 9.45805Z" fill="white"/>
<path fill-rule="evenodd" clip-rule="evenodd" d="M48.8457 12.0201H50.4543C51.6649 12.0201 52.6737 11.0673 52.6737 9.83428C52.6737 8.60684 51.6705 7.64844 50.4543 7.64844H48.8457V12.0201ZM49.9779 8.61805H50.2469C50.9755 8.61805 51.4911 9.06083 51.4911 9.83988C51.4911 10.6918 50.9138 11.0617 50.2357 11.0617H49.9779V8.61805Z" fill="white"/>
<path fill-rule="evenodd" clip-rule="evenodd" d="M57.6117 11.263L57.8975 12.0196H59.1081L57.466 7.65356H56.2273L54.5459 12.0196H55.7509L56.0536 11.263H57.6117ZM57.3034 10.3943H56.3618L56.8326 9.0043H56.8438L57.3034 10.3943Z" fill="white"/>
<path fill-rule="evenodd" clip-rule="evenodd" d="M63.6811 8.61757V7.65356H61.1982V12.0196H63.6811V11.0556H62.3304V10.3046H63.6083V9.34619H62.3304V8.61757H63.6811Z" fill="white"/>
<path fill-rule="evenodd" clip-rule="evenodd" d="M65.856 12.0196H66.9825L67.3468 9.50872H67.358L68.3613 12.0196H68.8152L69.8633 9.50872H69.8745L70.194 12.0196H71.3318L70.6704 7.65356H69.5439L68.6079 9.98512L67.7223 7.65356H66.607L65.856 12.0196Z" fill="white"/>
<path fill-rule="evenodd" clip-rule="evenodd" d="M75.7428 7.5083C74.4873 7.5083 73.3271 8.43308 73.3271 9.75579C73.3271 11.1682 74.3416 12.1658 75.7428 12.1658C77.144 12.1658 78.1584 11.1682 78.1584 9.75579C78.1584 8.43868 76.9982 7.5083 75.7428 7.5083ZM75.7428 8.61243C76.4209 8.61243 76.9758 9.16169 76.9758 9.767C76.9758 10.518 76.4209 11.0673 75.7428 11.0673C75.0646 11.0673 74.5097 10.518 74.5097 9.767C74.5097 9.16169 75.0646 8.61243 75.7428 8.61243Z" fill="white"/>
<path fill-rule="evenodd" clip-rule="evenodd" d="M80.4229 12.0196H81.555V9.34619H81.5662L83.6456 12.0196H84.7777V7.65356H83.6456V10.3214H83.6344L81.555 7.65356H80.4229V12.0196Z" fill="white"/>
</g>
<defs>
<clipPath id="clip0_649_3716">
<rect width="84.0707" height="18.3835" fill="white" transform="translate(0.712402 0.939209)"/>
</clipPath>
</defs>
</svg>
