<svg width="120" height="27" viewBox="0 0 120 27" fill="none" xmlns="http://www.w3.org/2000/svg">
<g clip-path="url(#clip0_670_3757)">
<path fill-rule="evenodd" clip-rule="evenodd" d="M7.20678 5.95073L10.2521 4.19016L13.3767 5.99831L19.9431 0.684894V9.78908V20.979L10.2521 26.57L0.568966 20.9711V11.4386H0.561035V0.573868L7.20678 5.95073ZM2.25816 12.3665V19.9956L10.2521 24.6111L18.246 19.9956V12.4854L10.2441 17.1882L2.25816 12.3665ZM2.58331 10.5821L10.26 15.2215L18.0398 10.6456L10.26 6.14899L2.58331 10.5821ZM15.1214 6.76757L18.246 8.59951V4.23775C17.2071 5.07838 16.1682 5.91901 15.1214 6.76757ZM2.25816 8.48848L5.38277 6.65654L2.25816 4.12672C2.25816 5.578 2.25816 7.02928 2.25816 8.48848Z" fill="#151A1A"/>
<path fill-rule="evenodd" clip-rule="evenodd" d="M29.4911 13.6989H29.6577C30.1811 13.6989 30.9741 13.6275 30.9741 14.373C30.9741 15.055 30.1731 15.0312 29.6973 15.0312H29.4911V13.6989ZM30.3555 16.2525C31.4896 16.2525 32.5919 15.8243 32.5919 14.5316C32.5919 13.6672 32.2113 13.0724 31.331 12.9614V12.9455C31.8306 12.6917 32.013 12.2397 32.013 11.6846C32.013 10.5029 31.2755 10.0747 30.1811 10.0747H27.8892V16.2525H30.3555ZM29.4911 11.3039H29.6021C30.0383 11.3039 30.5379 11.3356 30.5379 11.8987C30.5379 12.4221 30.0938 12.4935 29.6656 12.4935H29.4832V11.3039H29.4911Z" fill="#151A1A"/>
<path fill-rule="evenodd" clip-rule="evenodd" d="M37.4932 10.0747H35.8833V16.2525H39.4203V14.8885H37.4932V10.0747Z" fill="#151A1A"/>
<path fill-rule="evenodd" clip-rule="evenodd" d="M45.5108 9.8688C43.7344 9.8688 42.0928 11.1773 42.0928 13.0489C42.0928 15.0474 43.5282 16.459 45.5108 16.459C47.4934 16.459 48.9288 15.0474 48.9288 13.0489C48.9288 11.1853 47.2872 9.8688 45.5108 9.8688ZM45.5108 11.4311C46.4704 11.4311 47.2555 12.2083 47.2555 13.0648C47.2555 14.1275 46.4704 14.9047 45.5108 14.9047C44.5512 14.9047 43.7661 14.1275 43.7661 13.0648C43.7661 12.2083 44.5512 11.4311 45.5108 11.4311Z" fill="#151A1A"/>
<path fill-rule="evenodd" clip-rule="evenodd" d="M56.5416 10.2251C56.0658 10.0268 55.59 9.91579 55.0745 9.91579C54.2021 9.91579 53.3298 10.2964 52.7191 10.915C52.1323 11.5177 51.8071 12.3346 51.8071 13.1752C51.8071 14.0951 52.1164 14.8961 52.7984 15.5068C53.4408 16.0857 54.2576 16.4188 55.1141 16.4188C55.6138 16.4188 56.0023 16.2919 56.5337 16.1333V14.2062C56.2006 14.6106 55.6693 14.8644 55.1459 14.8644C54.1466 14.8644 53.4725 14.1586 53.4725 13.1831C53.4725 12.2236 54.1387 11.4702 55.1221 11.4702C55.6693 11.4702 56.2006 11.7081 56.5337 12.1522V10.2251H56.5416Z" fill="#151A1A"/>
<path fill-rule="evenodd" clip-rule="evenodd" d="M61.6177 12.628H61.6018V10.0823H59.9919V16.2601H61.6018V13.5796H61.6177L63.6875 16.2601H65.7653L63.0848 13.0087L65.5433 10.0823H63.5527L61.6177 12.628Z" fill="#151A1A"/>
<path fill-rule="evenodd" clip-rule="evenodd" d="M68.668 16.2529H70.944C72.657 16.2529 74.0845 14.9047 74.0845 13.16C74.0845 11.4232 72.6649 10.0671 70.944 10.0671H68.668V16.2529ZM70.2699 11.4391H70.6506C71.6816 11.4391 72.4112 12.0656 72.4112 13.1679C72.4112 14.3733 71.5943 14.8968 70.6347 14.8968H70.2699V11.4391Z" fill="#151A1A"/>
<path fill-rule="evenodd" clip-rule="evenodd" d="M81.0714 15.1819L81.4758 16.2525H83.1888L80.8652 10.0747H79.1125L76.7334 16.2525H78.4385L78.8667 15.1819H81.0714ZM80.6352 13.9527H79.3029L79.969 11.9859H79.9849L80.6352 13.9527Z" fill="#151A1A"/>
<path fill-rule="evenodd" clip-rule="evenodd" d="M89.6599 11.4387V10.0747H86.1467V16.2525H89.6599V14.8885H87.7487V13.8258H89.5568V12.4697H87.7487V11.4387H89.6599Z" fill="#151A1A"/>
<path fill-rule="evenodd" clip-rule="evenodd" d="M92.7368 16.2525H94.3308L94.8463 12.6997H94.8622L96.2817 16.2525H96.9241L98.4071 12.6997H98.423L98.875 16.2525H100.485L99.5491 10.0747H97.9551L96.6307 13.3738L95.3777 10.0747H93.7995L92.7368 16.2525Z" fill="#151A1A"/>
<path fill-rule="evenodd" clip-rule="evenodd" d="M106.726 9.8688C104.95 9.8688 103.308 11.1773 103.308 13.0489C103.308 15.0474 104.744 16.459 106.726 16.459C108.709 16.459 110.144 15.0474 110.144 13.0489C110.144 11.1853 108.503 9.8688 106.726 9.8688ZM106.726 11.4311C107.686 11.4311 108.471 12.2083 108.471 13.0648C108.471 14.1275 107.686 14.9047 106.726 14.9047C105.767 14.9047 104.982 14.1275 104.982 13.0648C104.982 12.2083 105.767 11.4311 106.726 11.4311Z" fill="#151A1A"/>
<path fill-rule="evenodd" clip-rule="evenodd" d="M113.348 16.2525H114.95V12.4697H114.966L117.908 16.2525H119.51V10.0747H117.908V13.8496H117.892L114.95 10.0747H113.348V16.2525Z" fill="#151A1A"/>
</g>
<defs>
<clipPath id="clip0_670_3757">
<rect width="118.957" height="26.012" fill="white" transform="translate(0.560791 0.573959)"/>
</clipPath>
</defs>
</svg>
