<svg width="55" height="55" viewBox="0 0 55 55" fill="none" xmlns="http://www.w3.org/2000/svg">
<rect width="55" height="55" rx="27.5" fill="#E4F2F1"/>
<g clip-path="url(#clip0_4152_30784)">
<path d="M43.3683 14.6826L27.1002 9.25989L10.832 14.6826V27.327C10.832 37.1323 19.2126 41.7962 27.1002 46.0514C34.9878 41.7962 43.3683 37.1323 43.3683 27.327V14.6826Z" stroke="#308D8A" stroke-width="1.27907" stroke-linecap="square" stroke-linejoin="round"/>
<rect x="3.4375" y="19.186" width="46.0465" height="18.5465" fill="#E4F2F1"/>
</g>
<path d="M9.90665 33.2016C10.0286 33.3013 10.2337 33.4122 10.5219 33.5341C10.8101 33.645 11.1149 33.6948 11.4364 33.6838C11.8022 33.6948 12.157 33.6671 12.5006 33.6006C12.8442 33.5341 13.1546 33.4177 13.4318 33.2514C13.7089 33.0852 13.9306 32.869 14.0969 32.6029C14.2632 32.3258 14.3463 31.9822 14.3463 31.572C14.3463 31.1175 14.2354 30.7351 14.0137 30.4247C13.8031 30.1143 13.5371 29.8427 13.2156 29.6099C12.8941 29.366 12.5449 29.1388 12.168 28.9282C11.8022 28.7065 11.4586 28.4626 11.1371 28.1966C10.8156 27.9305 10.544 27.6201 10.3223 27.2654C10.1117 26.8996 10.0064 26.4506 10.0064 25.9185C10.0064 25.4086 10.0951 24.9486 10.2725 24.5384C10.4609 24.1172 10.7325 23.7569 11.0872 23.4576C11.453 23.1583 11.8965 22.9255 12.4175 22.7592C12.9385 22.5929 13.5315 22.5098 14.1966 22.5098C14.8728 22.5098 15.477 22.5652 16.0091 22.6761C16.5412 22.7759 16.9569 22.9033 17.2562 23.0585C17.2118 23.247 17.1453 23.4687 17.0566 23.7236C16.979 23.9675 16.8959 24.2225 16.8072 24.4885C16.7185 24.7546 16.6243 25.0151 16.5246 25.27C16.4248 25.5139 16.3361 25.7301 16.2585 25.9185H15.8262L15.6266 23.6405C15.4382 23.5518 15.1943 23.4853 14.895 23.441C14.6068 23.3966 14.2909 23.3745 13.9472 23.3745C13.6147 23.3745 13.2987 23.4133 12.9994 23.4909C12.7112 23.5685 12.4563 23.6904 12.2346 23.8567C12.0239 24.0119 11.8577 24.2114 11.7357 24.4553C11.6138 24.6991 11.5528 24.9874 11.5528 25.3199C11.5528 25.7633 11.6581 26.1347 11.8687 26.434C12.0904 26.7222 12.362 26.9827 12.6835 27.2155C13.005 27.4483 13.3486 27.6755 13.7144 27.8972C14.0913 28.1079 14.4405 28.3517 14.762 28.6289C15.0835 28.906 15.3495 29.2441 15.5601 29.6432C15.7818 30.0312 15.8927 30.5134 15.8927 31.0898C15.8927 31.6108 15.7874 32.0819 15.5768 32.5032C15.3772 32.9244 15.0835 33.2902 14.6955 33.6006C14.3186 33.8999 13.8475 34.1327 13.2821 34.299C12.7278 34.4653 12.096 34.5484 11.3865 34.5484C11.0318 34.5484 10.6882 34.5262 10.3556 34.4819C10.0341 34.4376 9.73482 34.3766 9.45769 34.299C9.19165 34.2214 8.95331 34.1383 8.74269 34.0496C8.53207 33.9498 8.37134 33.8556 8.26048 33.7669C8.30482 33.5674 8.36579 33.3346 8.44339 33.0685C8.53207 32.7914 8.6263 32.5143 8.72606 32.2371C8.82583 31.96 8.9256 31.694 9.02537 31.439C9.12513 31.1729 9.21936 30.9457 9.30804 30.7572H9.74037L9.90665 33.2016ZM17.5945 29.7263C17.5945 28.7176 17.7441 27.7753 18.0434 26.8996C18.3538 26.0238 18.7972 25.2645 19.3736 24.6216C19.9501 23.9675 20.6429 23.4521 21.4521 23.0752C22.2614 22.6983 23.1759 22.5098 24.1957 22.5098C25.005 22.5098 25.6867 22.6428 26.241 22.9089C26.7952 23.1749 27.2386 23.5241 27.5712 23.9564C27.9148 24.3888 28.1587 24.8876 28.3028 25.4529C28.458 26.0072 28.5356 26.5836 28.5356 27.1822C28.5356 28.0691 28.4081 28.9559 28.1532 29.8427C27.9093 30.7185 27.5269 31.5055 27.0058 32.2039C26.4848 32.9022 25.8253 33.4676 25.0271 33.8999C24.2401 34.3322 23.3034 34.5484 22.217 34.5484C21.4189 34.5484 20.726 34.4209 20.1385 34.166C19.5621 33.8999 19.0854 33.5507 18.7085 33.1184C18.3316 32.675 18.049 32.1651 17.8605 31.5886C17.6831 31.0011 17.5945 30.3803 17.5945 29.7263ZM19.3736 29.7429C19.3736 30.3526 19.4512 30.9014 19.6064 31.3891C19.7727 31.8769 19.9944 32.2926 20.2715 32.6362C20.5598 32.9798 20.8923 33.2459 21.2692 33.4343C21.6572 33.6117 22.0784 33.6948 22.5329 33.6838C23.3422 33.6948 24.0128 33.5009 24.5449 33.1018C25.0881 32.6916 25.5204 32.1706 25.8419 31.5388C26.1745 30.8958 26.4072 30.1919 26.5403 29.427C26.6844 28.651 26.7564 27.8972 26.7564 27.1656C26.7564 26.6003 26.6899 26.0848 26.5569 25.6192C26.435 25.1536 26.2465 24.7546 25.9915 24.422C25.7366 24.0895 25.4207 23.8345 25.0438 23.6571C24.6779 23.4687 24.2512 23.3745 23.7634 23.3745C22.9985 23.3745 22.339 23.574 21.7847 23.9731C21.2304 24.3721 20.7704 24.8821 20.4046 25.5028C20.0498 26.1236 19.7893 26.8109 19.6231 27.5647C19.4568 28.3185 19.3736 29.0446 19.3736 29.7429ZM37.7386 31.3226H38.1543C38.1543 31.633 38.1211 32.0265 38.0546 32.5032C37.9991 32.9688 37.9105 33.4233 37.7885 33.8667C37.5668 33.9886 37.3285 34.0939 37.0735 34.1826C36.8186 34.2713 36.5525 34.3433 36.2754 34.3988C35.9983 34.4542 35.7267 34.493 35.4606 34.5152C35.1946 34.5373 34.9452 34.5484 34.7124 34.5484C33.7701 34.5484 32.972 34.4154 32.3179 34.1493C31.6639 33.8833 31.1318 33.5341 30.7217 33.1018C30.3226 32.6695 30.0288 32.1872 29.8404 31.6552C29.663 31.1231 29.5743 30.591 29.5743 30.0589C29.5743 28.9282 29.7351 27.9028 30.0565 26.9827C30.378 26.0516 30.8325 25.259 31.42 24.6049C32.0186 23.9398 32.7392 23.4243 33.5817 23.0585C34.4352 22.6927 35.3941 22.5098 36.4583 22.5098C37.1899 22.5098 37.8107 22.5597 38.3206 22.6595C38.8305 22.7592 39.2573 22.8978 39.601 23.0752C39.5677 23.2525 39.5178 23.4631 39.4513 23.707C39.3959 23.9398 39.3238 24.1892 39.2352 24.4553C39.1576 24.7213 39.0744 24.9818 38.9857 25.2368C38.8971 25.4917 38.8139 25.7245 38.7363 25.9352H38.304L37.9548 23.5407C37.8107 23.4853 37.589 23.4465 37.2897 23.4243C37.0015 23.3911 36.7188 23.3745 36.4417 23.3745C35.71 23.3745 35.0338 23.5186 34.4131 23.8068C33.7923 24.0839 33.2547 24.4996 32.8002 25.0539C32.3457 25.6081 31.9909 26.301 31.736 27.1324C31.481 27.9638 31.3535 28.9282 31.3535 30.0256C31.3535 30.7129 31.4699 31.2949 31.7027 31.7716C31.9466 32.2371 32.2459 32.614 32.6006 32.9022C32.9664 33.1905 33.36 33.3955 33.7812 33.5175C34.2024 33.6394 34.6015 33.6948 34.9784 33.6838C35.3553 33.6948 35.6712 33.6671 35.9262 33.6006C36.1922 33.5341 36.3862 33.4621 36.5082 33.3845L37.7386 31.3226ZM41.8917 25.9518H41.476C41.4206 25.6303 41.3707 25.2534 41.3264 24.8211C41.2931 24.3888 41.282 23.9786 41.2931 23.5906C41.7587 23.2691 42.2465 23.0086 42.7564 22.8091C43.2663 22.6096 43.8372 22.5098 44.469 22.5098C45.0233 22.5098 45.4834 22.5708 45.8492 22.6927C46.2261 22.8147 46.5254 22.9865 46.7471 23.2082C46.9799 23.4188 47.1461 23.6682 47.2459 23.9564C47.3457 24.2336 47.3956 24.5329 47.3956 24.8543C47.3956 25.4973 47.2016 26.1624 46.8136 26.8497C46.4367 27.5259 45.9545 28.1966 45.367 28.8617C44.7905 29.5157 44.1587 30.1476 43.4714 30.7572C42.7841 31.3559 42.1411 31.8935 41.5425 32.3702L40.7111 33.0186V33.0852L41.6423 32.9854H44.5023L45.7161 31.1231H46.1318C46.1208 31.3891 46.0986 31.6718 46.0653 31.9711C46.0321 32.2593 45.9877 32.5475 45.9323 32.8357C45.888 33.124 45.8381 33.4011 45.7827 33.6671C45.7272 33.9221 45.6773 34.1493 45.633 34.3489H38.7657L38.8821 33.8168C39.2146 33.5507 39.6137 33.2182 40.0793 32.8191C40.5449 32.42 41.0326 31.9822 41.5425 31.5055C42.0635 31.0178 42.579 30.4967 43.0889 29.9425C43.5989 29.3882 44.0534 28.8284 44.4524 28.2631C44.8626 27.6866 45.1951 27.1102 45.4501 26.5338C45.7051 25.9573 45.8325 25.4031 45.8325 24.871C45.8325 24.4276 45.694 24.0673 45.4168 23.7902C45.1508 23.513 44.7517 23.3745 44.2196 23.3745C43.754 23.3745 43.3328 23.441 42.9559 23.574L41.8917 25.9518Z" fill="#308D8A"/>
<defs>
<clipPath id="clip0_4152_30784">
<rect width="47.3256" height="47.3256" fill="white" transform="translate(3.4375 3.83716)"/>
</clipPath>
</defs>
</svg>
