<svg width="67" height="27" viewBox="0 0 67 27" fill="none" xmlns="http://www.w3.org/2000/svg">
<path d="M23.8682 13.5372C24.1451 13.0285 24.5603 12.6086 25.0657 12.3258C25.5778 12.0365 26.158 11.8919 26.8063 11.8919C27.6011 11.8919 28.2815 12.1017 28.8475 12.5215C29.4134 12.9413 29.7918 13.5136 29.9826 14.2384H28.1893C28.0558 13.9585 27.8666 13.7454 27.6217 13.5992C27.377 13.4528 27.0989 13.3796 26.7872 13.3796C26.2849 13.3796 25.878 13.5546 25.5664 13.9045C25.2545 14.2543 25.0987 14.7215 25.0989 15.3063C25.0989 15.8917 25.2547 16.3592 25.5664 16.7087C25.8782 17.0586 26.2852 17.2335 26.7872 17.2332C27.0989 17.2332 27.377 17.1602 27.6217 17.014C27.8666 16.8678 28.0559 16.6547 28.1896 16.3748H29.9826C29.792 17.0999 29.4136 17.6706 28.8475 18.0871C28.2815 18.5036 27.6011 18.7118 26.8063 18.7118C26.1578 18.7118 25.5776 18.5671 25.0657 18.2778C24.5612 17.9962 24.1461 17.5781 23.8682 17.0714C23.5826 16.5562 23.4397 15.968 23.4395 15.3066C23.4395 14.6454 23.5824 14.0556 23.8682 13.5372ZM30.9698 14.5529C31.1764 14.1399 31.4579 13.822 31.8144 13.5992C32.1703 13.3767 32.5677 13.2654 33.0067 13.2654C33.3818 13.2654 33.7108 13.3416 33.9935 13.4942C34.2765 13.6469 34.4944 13.8472 34.6471 14.0949V13.3415H36.278V18.6642H34.6471V17.9105C34.488 18.1587 34.2671 18.359 33.9843 18.5116C33.7009 18.6641 33.3718 18.7404 32.9969 18.7404C32.5783 18.7441 32.1676 18.6266 31.8144 18.4019C31.4579 18.1763 31.1764 17.8551 30.9698 17.4384C30.7632 17.0219 30.6599 16.5403 30.6599 15.9933C30.6599 15.4464 30.7632 14.9663 30.9698 14.5529ZM34.3083 15.0394C34.0825 14.8041 33.8075 14.6865 33.4834 14.6865C33.1588 14.6865 32.8837 14.8026 32.6581 15.0348C32.4322 15.2668 32.3194 15.5863 32.3196 15.9933C32.3196 16.4004 32.4325 16.7232 32.6581 16.9618C32.8837 17.2001 33.1588 17.3193 33.4834 17.3193C33.8075 17.3193 34.0825 17.2016 34.3083 16.9664C34.5342 16.7311 34.647 16.4099 34.6468 16.0029C34.6468 15.5958 34.534 15.2746 34.3083 15.0394ZM40.4268 17.2812V18.6642H39.5969C39.0055 18.6642 38.5446 18.5194 38.2142 18.2299C37.8835 17.941 37.7181 17.4689 37.7181 16.8137V14.6963H37.0691V13.3412H37.7181V12.0445H39.349V13.3415H40.4176V14.6963H39.349V16.8328C39.349 16.9919 39.3872 17.1063 39.4636 17.1761C39.5397 17.2462 39.6669 17.2812 39.845 17.2812H40.4268ZM41.3187 14.5529C41.5255 14.1399 41.8069 13.822 42.163 13.5992C42.5189 13.3767 42.9163 13.2654 43.3553 13.2654C43.7304 13.2654 44.0595 13.3416 44.3424 13.4942C44.6254 13.6469 44.8432 13.8472 44.9957 14.0949V13.3415H46.6269V18.6642H44.9957V17.9105C44.8366 18.1587 44.6157 18.359 44.3329 18.5116C44.0502 18.6641 43.7211 18.7404 43.3458 18.7404C42.9271 18.7442 42.5163 18.6266 42.163 18.4019C41.8069 18.1763 41.5255 17.8551 41.3187 17.4384C41.1119 17.0219 41.0085 16.5403 41.0085 15.9933C41.0085 15.4464 41.1119 14.9663 41.3187 14.5529ZM44.6572 15.0394C44.4316 14.8041 44.1566 14.6865 43.8323 14.6865C43.5077 14.6865 43.2326 14.8026 43.007 15.0348C42.7814 15.267 42.6685 15.5865 42.6685 15.9933C42.6685 16.4002 42.7814 16.723 43.007 16.9618C43.2324 17.2001 43.5075 17.3193 43.8323 17.3193C44.1564 17.3193 44.4314 17.2016 44.6572 16.9664C44.8831 16.7311 44.9959 16.4099 44.9957 16.0029C44.9957 15.5958 44.8829 15.2746 44.6572 15.0394ZM49.4409 11.6059V18.6639H47.8097V11.6059H49.4409ZM56.0599 13.3415L52.7217 21.1916H50.9667L52.1872 18.483L50.0226 13.3415H51.8442L53.0746 16.6703L54.2958 13.3415H56.0599ZM57.5765 18.502C57.2141 18.3429 56.928 18.1252 56.7181 17.8488C56.5113 17.5802 56.3884 17.2566 56.3649 16.9184H57.977C57.9963 17.1031 58.0821 17.2526 58.2344 17.3669C58.3872 17.4813 58.5749 17.5385 58.7977 17.5385C59.001 17.5385 59.1584 17.4988 59.2698 17.4194C59.3807 17.3399 59.4363 17.2366 59.4366 17.1095C59.4366 16.9567 59.3571 16.8438 59.1982 16.7707C59.0389 16.6976 58.7813 16.6166 58.4255 16.5278C58.044 16.4385 57.726 16.3446 57.4715 16.2461C57.2168 16.1476 56.9906 15.987 56.8136 15.779C56.6291 15.5656 56.5369 15.2778 56.5369 14.9156C56.5369 14.6105 56.6212 14.3323 56.7897 14.0808C56.9582 13.8298 57.2061 13.6311 57.5335 13.4847C57.8609 13.3385 58.2505 13.2654 58.7022 13.2654C59.3697 13.2654 59.8958 13.4307 60.2806 13.7614C60.6653 14.0923 60.8863 14.5311 60.9437 15.0778H59.4366C59.411 14.8933 59.3299 14.747 59.1933 14.6389C59.0565 14.5308 58.877 14.4767 58.6546 14.4767C58.4638 14.4767 58.3174 14.5134 58.2154 14.5867C58.1669 14.62 58.1275 14.6649 58.1009 14.7174C58.0742 14.7699 58.0612 14.8282 58.063 14.8871C58.063 15.0396 58.1441 15.1539 58.3063 15.2301C58.4683 15.3065 58.721 15.3829 59.0646 15.4592C59.4588 15.561 59.7799 15.6611 60.0281 15.7596C60.2761 15.8581 60.4938 16.0171 60.6814 16.2366C60.8687 16.4559 60.9657 16.7499 60.9722 17.1187C60.9722 17.4305 60.8848 17.7088 60.7099 17.9535C60.5349 18.1984 60.2836 18.3907 59.9562 18.5306C59.6288 18.6707 59.249 18.7407 58.8168 18.7407C58.3526 18.7407 57.9392 18.6611 57.5765 18.502ZM64.9401 17.2812V18.6642H64.1102C63.5189 18.6642 63.058 18.5194 62.7275 18.2299C62.3971 17.941 62.2317 17.4689 62.2315 16.8137V14.6963H61.5828V13.3412H62.2315V12.0445H63.8624V13.3415H64.9309V14.6963H63.8624V16.8328C63.8624 16.9919 63.9006 17.1063 63.9769 17.1761C64.0531 17.2462 64.1803 17.2812 64.3584 17.2812H64.9401ZM26.1917 7.29765C26.0967 7.4771 25.9442 7.62308 25.7341 7.73557C25.5242 7.84806 25.2553 7.9043 24.9272 7.9043H24.2063V9.5181H23.5543V5.54071H24.9275C25.2326 5.54071 25.4912 5.59324 25.7032 5.69829C25.9147 5.80312 26.073 5.94515 26.1783 6.12439C26.2833 6.30385 26.3358 6.50409 26.3358 6.72513C26.3358 6.92757 26.2876 7.11841 26.1917 7.29765ZM25.483 7.2031C25.6049 7.09061 25.6658 6.93129 25.6658 6.72513C25.6658 6.29028 25.4197 6.07285 24.9275 6.07285H24.2063V7.37184H24.9275C25.1755 7.37184 25.3606 7.31559 25.483 7.2031ZM28.0035 6.44774C28.1615 6.35801 28.3494 6.31315 28.5671 6.31315V6.98841H28.4013C28.1453 6.98841 27.9516 7.0533 27.8203 7.18308C27.689 7.31286 27.6231 7.53794 27.6227 7.85834V9.5181H26.9704V6.36469H27.6227V6.82263C27.7181 6.66243 27.845 6.53747 28.0035 6.44774ZM29.7404 9.36644C29.5015 9.23261 29.3051 9.03435 29.1735 8.79426C29.0362 8.54827 28.9676 8.263 28.9676 7.93844C28.9674 7.61804 29.0381 7.33387 29.1797 7.08591C29.3142 6.84434 29.5146 6.64593 29.7575 6.51372C30.0017 6.38022 30.2745 6.31337 30.5758 6.31315C30.8772 6.31315 31.15 6.3799 31.3942 6.51339C31.6372 6.64578 31.8376 6.84429 31.9723 7.08591C32.1133 7.33387 32.1839 7.61804 32.1841 7.93844C32.1841 8.25906 32.1116 8.54334 31.9667 8.7913C31.8265 9.03434 31.6213 9.2335 31.3742 9.36644C31.1201 9.503 30.8354 9.57291 30.547 9.56964C30.2495 9.56964 29.9807 9.50191 29.7404 9.36644ZM31.0193 8.88289C31.1662 8.80279 31.2854 8.68264 31.3768 8.52244C31.4688 8.36225 31.5146 8.16758 31.5144 7.93844C31.5144 7.70974 31.4704 7.51617 31.3824 7.35772C31.3029 7.20749 31.1819 7.08328 31.0338 6.9999C30.8903 6.92003 30.7286 6.87864 30.5644 6.87975C30.3965 6.87975 30.2411 6.91991 30.0982 7.00023C29.9518 7.0833 29.8333 7.20779 29.7575 7.35805C29.6734 7.51628 29.6314 7.70974 29.6314 7.93844C29.6314 8.27832 29.7182 8.54061 29.8917 8.72532C30.0657 8.91047 30.2841 9.00304 30.547 9.00304C30.715 9.00304 30.8725 8.96299 31.0193 8.88289ZM33.4942 10.1362C33.4942 10.4453 33.4171 10.6694 33.2628 10.8086C33.1081 10.948 32.8838 11.0177 32.5901 11.0177H32.2527V10.4681H32.4756C32.6091 10.4681 32.7035 10.4424 32.7589 10.391C32.8145 10.3393 32.8423 10.2544 32.8423 10.1362V6.36469H33.4942V10.1362ZM32.8761 5.82664C32.8368 5.78791 32.8059 5.74153 32.7852 5.69038C32.7645 5.63922 32.7546 5.58438 32.7559 5.52922C32.7559 5.41104 32.796 5.3119 32.8761 5.23181C32.9564 5.15171 33.0556 5.11155 33.1738 5.11133C33.2883 5.11133 33.3856 5.15149 33.4657 5.23181C33.546 5.3119 33.5861 5.41104 33.5861 5.52922C33.5861 5.6474 33.546 5.74654 33.4657 5.82664C33.3856 5.90696 33.2883 5.94712 33.1738 5.94712C33.1186 5.94848 33.0637 5.93848 33.0125 5.91776C32.9612 5.89704 32.9148 5.86602 32.8761 5.82664ZM37.2313 8.18465H34.8221C34.8411 8.43654 34.9346 8.63876 35.1024 8.7913C35.2703 8.94384 35.4763 9.02011 35.7206 9.02011C36.0714 9.02011 36.3193 8.87326 36.4641 8.57956H37.1686C37.0755 8.86577 36.8942 9.11515 36.6506 9.29192C36.4002 9.47707 36.0902 9.56964 35.7206 9.56964C35.4192 9.56964 35.1492 9.50191 34.9104 9.36644C34.6733 9.23239 34.4789 9.03404 34.3497 8.79426C34.2142 8.54827 34.1466 8.263 34.1468 7.93844C34.1468 7.61454 34.2126 7.32938 34.3441 7.08295C34.4754 6.83675 34.6605 6.647 34.8992 6.51372C35.1374 6.38022 35.4111 6.31337 35.7206 6.31315C36.018 6.31315 36.2831 6.37804 36.516 6.50781C36.7486 6.63737 36.9298 6.81957 37.0596 7.05439C37.1894 7.28922 37.2543 7.55917 37.2543 7.86425C37.2543 7.98243 37.2466 8.08923 37.2313 8.18465ZM36.5731 7.65809C36.5694 7.41758 36.4836 7.22499 36.3158 7.08033C36.1479 6.93523 35.9399 6.86268 35.6917 6.86268C35.4665 6.86268 35.2738 6.93414 35.1136 7.07704C34.9532 7.22039 34.8579 7.41407 34.8277 7.65809H36.5731ZM37.8872 7.08295C38.0185 6.83675 38.2006 6.647 38.4335 6.51372C38.6661 6.38022 38.9331 6.31337 39.2345 6.31315C39.6159 6.31315 39.9317 6.40375 40.1819 6.58496C40.4318 6.76617 40.6007 7.02474 40.6887 7.36068H39.9842C39.9336 7.21264 39.8374 7.08441 39.7095 6.99432C39.5838 6.90656 39.4255 6.86279 39.2345 6.86301C38.9675 6.86279 38.7547 6.95711 38.5963 7.14598C38.4381 7.33485 38.3589 7.599 38.3589 7.93844C38.3589 8.27832 38.4381 8.54356 38.5963 8.73418C38.7549 8.9248 38.9677 9.02011 39.2345 9.02011C39.6124 9.02011 39.8623 8.85422 39.9842 8.52244H40.6887C40.5968 8.84284 40.425 9.09747 40.1733 9.28634C39.9214 9.47543 39.6085 9.56986 39.2345 9.56964C38.9331 9.56964 38.6661 9.50191 38.4335 9.36644C38.2009 9.23124 38.0115 9.03283 37.8872 8.79426C37.7555 8.54827 37.6896 8.263 37.6896 7.93844C37.6896 7.61454 37.7555 7.32938 37.8872 7.08295ZM42.1131 6.89715V8.64259C42.1131 8.76077 42.1408 8.84569 42.1962 8.89734C42.2513 8.94877 42.3457 8.97448 42.4795 8.97448H42.88V9.5181H42.3652C42.0711 9.5181 41.846 9.44939 41.69 9.31195C41.5335 9.17473 41.4552 8.9515 41.4552 8.64226V6.89715H41.083V6.36534H41.4552V5.58076H42.1131V6.36501H42.88V6.89682L42.1131 6.89715Z" fill="white"/>
<path d="M9.3506 17.7262C9.34404 17.7229 9.35717 17.7305 9.3506 17.7262C8.17734 17.1875 7.2237 16.1219 6.73818 14.9194H3.39502C4.59093 18.3125 7.82576 20.7437 11.6275 20.7437C13.6079 20.7469 15.5299 20.0732 17.0749 18.8345C17.1264 18.7754 17.1772 18.7158 17.2276 18.6559C16.8564 18.7045 16.4785 18.729 16.0937 18.7294C14.8308 18.7294 13.631 18.4609 12.5483 17.9786C12.1873 18.0583 11.8187 18.0984 11.4489 18.0981C11.0136 18.0981 10.5849 18.1227 10.1818 18.0193C10.1795 18.0193 10.1844 18.0203 10.1818 18.0193" fill="url(#paint0_radial_649_3743)"/>
<path d="M9.35021 17.7262C9.61858 17.847 9.89662 17.9451 10.1814 18.0193C10.5845 18.1227 11.0133 18.0981 11.4486 18.0981C11.8261 18.0981 12.1937 18.0571 12.5476 17.9786C12.415 17.9204 12.2849 17.8585 12.1573 17.7928C10.8412 17.1259 9.71481 16.1376 8.88242 14.9194H6.73779C7.22331 16.1216 8.17695 17.1875 9.35021 17.7262Z" fill="url(#paint1_radial_649_3743)"/>
<path d="M17.0748 18.8349C15.858 20.2235 14.2407 21.2007 12.4455 21.6321C8.58757 22.5575 4.71982 20.8098 2.75017 17.5762C2.24967 16.754 1.8829 15.8575 1.66357 14.9202H3.3949C4.59081 18.3129 7.82564 20.7441 11.6277 20.7441C13.608 20.7472 15.5298 20.0736 17.0748 18.8349Z" fill="url(#paint2_linear_649_3743)"/>
<path d="M19.0892 14.9194C18.7675 16.2927 18.1301 17.572 17.2276 18.6559C16.8564 18.7045 16.4785 18.729 16.0937 18.7294C14.7263 18.7309 13.3779 18.41 12.1577 17.7928C10.8416 17.1259 9.7152 16.1376 8.88281 14.9194H19.0892Z" fill="url(#paint3_linear_649_3743)"/>
<path d="M18.8122 10.7808C17.521 8.0873 14.8873 6.16032 11.7779 5.86323H11.7762C11.1097 5.73911 10.4294 5.70653 9.75403 5.76639C9.26794 5.80871 8.7872 5.89887 8.31881 6.03558C6.81323 6.47313 5.48663 7.37985 4.53215 8.62371C3.55566 9.89181 3.02807 11.4484 3.03225 13.0489V13.7054H1.69092V13.0489C1.69157 10.2405 3.04768 7.74623 5.14635 6.1728C5.14679 6.17061 5.14723 6.17006 5.14766 6.17116C6.36924 5.25329 7.81102 4.67336 9.32793 4.48973C9.68137 4.44596 10.0404 4.42407 10.405 4.42407C14.4238 4.42407 17.806 7.11791 18.8122 10.7808Z" fill="url(#paint4_linear_649_3743)"/>
<path d="M5.76101 12.391H7.12008C7.18735 12.0478 7.30903 11.7175 7.48052 11.4127C8.16564 10.1916 9.5897 9.48871 11.0499 9.7707C12.404 10.0317 13.4335 11.0779 13.6945 12.3766C13.3094 11.8767 12.7963 11.4903 12.2094 11.2584C11.6226 11.0265 10.9839 10.9578 10.3611 11.0595H10.3595C9.93998 11.0701 9.53439 11.2123 9.20003 11.4659C9.1996 11.4666 9.19905 11.4668 9.19839 11.4666L9.19675 11.4682C8.95191 11.6526 8.75324 11.8914 8.61641 12.1657C8.47957 12.44 8.40831 12.7423 8.40823 13.0489V13.7057H4.37109V13.0492C4.37438 10.7309 5.71243 8.72285 7.66469 7.73605C8.51653 7.30514 9.45839 7.08228 10.413 7.08573C12.7855 7.08902 14.8631 8.45464 15.8414 10.4689C14.9623 8.95723 13.3245 7.94056 11.4491 7.94056C10.4655 7.94056 9.54669 8.22025 8.76933 8.70512L8.76769 8.70577H8.76704C8.25788 8.89322 7.7891 9.16536 7.3804 9.50841C6.50334 10.2366 5.92655 11.2631 5.76101 12.391Z" fill="url(#paint5_linear_649_3743)"/>
<path d="M13.7593 13.0483V13.7052H12.4318V13.0483C12.4318 11.9476 11.5306 11.0564 10.4194 11.0573C10.4002 11.0571 10.3808 11.0577 10.3613 11.059C10.9841 10.9572 11.6228 11.0258 12.2097 11.2576C12.7966 11.4895 13.3099 11.8758 13.695 12.3757V12.3764C13.7395 12.5974 13.7612 12.8225 13.7596 13.048" fill="url(#paint6_linear_649_3743)"/>
<path d="M19.1174 13.0485V13.7054H15.0961V13.0488C15.0902 10.4834 12.9853 8.40898 10.3945 8.41357C9.83996 8.41457 9.28991 8.51313 8.76953 8.70475C9.57341 8.20395 10.5018 7.93903 11.4489 7.9402C13.3247 7.9402 14.9625 8.95687 15.8416 10.4686C16.1357 11.073 16.3245 11.7231 16.4 12.391H17.7472C17.4498 9.06257 14.9382 6.45508 11.7779 5.86353C14.8873 6.16029 17.5207 8.08727 18.8122 10.7808V10.7814C19.0152 11.5201 19.1179 12.2824 19.1174 13.0485Z" fill="url(#paint7_linear_649_3743)"/>
<mask id="mask0_649_3743" style="mask-type:luminance" maskUnits="userSpaceOnUse" x="1" y="4" width="19" height="18">
<path d="M17.0748 18.8344C15.858 20.223 14.2407 21.2003 12.4455 21.6316C8.58757 22.5571 4.71982 20.8093 2.75017 17.5758C2.24963 16.7534 1.88287 15.8568 1.66357 14.9194H3.3949C4.59081 18.3124 7.82564 20.7437 11.6277 20.7437C13.608 20.7467 15.5298 20.0731 17.0748 18.8344ZM8.88236 14.9191C9.79745 16.2584 11.0663 17.3175 12.5476 17.9786C13.6637 18.4749 14.8718 18.7306 16.0933 18.729C16.478 18.7288 16.856 18.7044 17.2271 18.6558C18.1297 17.572 18.7671 16.2926 19.0888 14.9194L8.88236 14.9191ZM10.4046 4.42407C10.04 4.42407 9.68095 4.44596 9.3275 4.48973C7.8106 4.67336 6.36881 5.25329 5.14724 6.17116C5.1468 6.17028 5.14625 6.17083 5.1456 6.1728C3.04726 7.74623 1.69115 10.2405 1.69049 13.0485V13.7054H3.03183V13.0489C3.02764 11.4484 3.55523 9.89181 4.53172 8.62371C5.4862 7.37985 6.81281 6.47313 8.31838 6.03558C8.78667 5.89889 9.26729 5.80873 9.75328 5.76639C10.4287 5.70661 11.1092 5.7393 11.7758 5.86356H11.7774C14.8869 6.16 17.5203 8.0873 18.8117 10.7805C17.8056 7.11758 14.423 4.42407 10.4046 4.42407ZM7.38017 9.50775C7.79262 9.1623 8.26176 8.89086 8.76681 8.70545H8.76747C8.7679 8.70457 8.76845 8.70424 8.76911 8.70446C9.57288 8.20345 10.5014 7.93862 11.4485 7.94024C13.3243 7.94024 14.962 8.95658 15.8412 10.4686C14.8629 8.45399 12.7849 7.08836 10.4128 7.08508C9.45813 7.08173 8.51628 7.3047 7.66446 7.73572C5.7122 8.72219 4.37415 10.7303 4.37087 13.0485V13.7054H8.408V13.0489C8.408 12.4045 8.71658 11.8316 9.19652 11.4682L9.19816 11.4666C9.19882 11.4666 9.19937 11.4662 9.19981 11.4656C9.53429 11.212 9.94 11.07 10.3596 11.0595H10.3612C10.984 10.9578 11.6227 11.0265 12.2095 11.2584C12.7964 11.4903 13.3095 11.8767 13.6946 12.3766C13.4336 11.0782 12.4041 10.0317 11.0496 9.7707C9.58947 9.48839 8.16574 10.1916 7.48062 11.4127C7.3132 11.7098 7.18977 12.0388 7.12018 12.391H5.76111C5.92665 11.2631 6.50344 10.2363 7.3805 9.50808" fill="white"/>
</mask>
<g mask="url(#mask0_649_3743)">
<path d="M17.3029 20.3919C19.4476 20.3919 21.1864 18.653 21.1864 16.5084C21.1864 14.3638 19.4476 12.6252 17.3029 12.6252C15.1583 12.6252 13.4194 14.3638 13.4194 16.5087C13.4194 18.653 15.1583 20.3919 17.3029 20.3919Z" fill="url(#paint8_radial_649_3743)"/>
<path d="M5.42405 14.1347C8.15958 14.1347 10.3768 11.9172 10.3768 9.1817C10.3768 6.44618 8.1599 4.229 5.42405 4.229C2.6882 4.229 0.47168 6.44684 0.47168 9.1817C0.47168 11.9166 2.68886 14.1351 5.42405 14.1351" fill="url(#paint9_radial_649_3743)"/>
</g>
<defs>
<radialGradient id="paint0_radial_649_3743" cx="0" cy="0" r="1" gradientUnits="userSpaceOnUse" gradientTransform="translate(9.48848 16.6012) scale(9.9031 9.9031)">
<stop stop-color="white"/>
<stop offset="0.236" stop-color="#D1D3D2"/>
<stop offset="1" stop-color="#ACACAC"/>
</radialGradient>
<radialGradient id="paint1_radial_649_3743" cx="0" cy="0" r="1" gradientUnits="userSpaceOnUse" gradientTransform="translate(10.836 14.5747) scale(5.67025 5.67024)">
<stop stop-color="white"/>
<stop offset="1" stop-color="#ACACAC"/>
</radialGradient>
<linearGradient id="paint2_linear_649_3743" x1="1.66325" y1="18.3992" x2="17.0748" y2="18.3992" gradientUnits="userSpaceOnUse">
<stop stop-color="white"/>
<stop offset="1" stop-color="#BFC1C0"/>
</linearGradient>
<linearGradient id="paint3_linear_649_3743" x1="10.6742" y1="16.8244" x2="20.4854" y2="16.8244" gradientUnits="userSpaceOnUse">
<stop stop-color="white"/>
<stop offset="1" stop-color="#656B68"/>
</linearGradient>
<linearGradient id="paint4_linear_649_3743" x1="1.69092" y1="9.06524" x2="18.8122" y2="9.06524" gradientUnits="userSpaceOnUse">
<stop stop-color="white"/>
<stop offset="1" stop-color="#BFC1C0"/>
</linearGradient>
<linearGradient id="paint5_linear_649_3743" x1="5.22297" y1="10.3957" x2="16.6933" y2="10.3957" gradientUnits="userSpaceOnUse">
<stop stop-color="white"/>
<stop offset="0.871" stop-color="#BFC1C0"/>
</linearGradient>
<linearGradient id="paint6_linear_649_3743" x1="10.3613" y1="12.3593" x2="13.7593" y2="12.3593" gradientUnits="userSpaceOnUse">
<stop stop-color="#838383"/>
<stop offset="1" stop-color="white"/>
</linearGradient>
<linearGradient id="paint7_linear_649_3743" x1="8.76953" y1="9.78445" x2="19.1174" y2="9.78445" gradientUnits="userSpaceOnUse">
<stop stop-color="#838383"/>
<stop offset="1" stop-color="white"/>
</linearGradient>
<radialGradient id="paint8_radial_649_3743" cx="0" cy="0" r="1" gradientUnits="userSpaceOnUse" gradientTransform="translate(18.1075 15.8213) scale(3.06151)">
<stop stop-color="white" stop-opacity="0.6"/>
<stop offset="0.991" stop-color="white" stop-opacity="0"/>
</radialGradient>
<radialGradient id="paint9_radial_649_3743" cx="0" cy="0" r="1" gradientUnits="userSpaceOnUse" gradientTransform="translate(5.67814 9.05466) scale(4.95273)">
<stop stop-color="white" stop-opacity="0.6"/>
<stop offset="0.991" stop-color="white" stop-opacity="0"/>
</radialGradient>
</defs>
</svg>
