<svg width="86" height="24" viewBox="0 0 86 24" fill="none" xmlns="http://www.w3.org/2000/svg">
<g clip-path="url(#clip0_649_3760)">
<path d="M32.0653 16.7456C29.3171 16.7456 27.9478 15.273 27.9478 12.3373C27.9478 10.8648 28.3042 9.76739 29.0264 9.03581C29.7486 8.29484 30.7615 7.92905 32.0653 7.92905C32.7875 7.92905 33.4347 8.05098 34.0068 8.30422C34.5883 8.54808 35.0385 8.91388 35.3762 9.42036C35.7138 9.91746 35.8827 10.5271 35.8827 11.2493H34.0349C34.0349 10.6959 33.8567 10.2645 33.5003 9.9456C33.1439 9.6267 32.6843 9.45788 32.1122 9.45788C31.3337 9.45788 30.7522 9.69236 30.377 10.1519C30.0018 10.6115 29.8049 11.2775 29.8049 12.1497V12.5249C29.8049 14.3257 30.574 15.2168 32.1122 15.2168C32.7124 15.2168 33.2002 15.0573 33.5566 14.7478C33.9224 14.4289 34.1006 13.9975 34.1006 13.4441H35.892C35.892 14.1757 35.7232 14.7853 35.3949 15.2824C35.0667 15.7702 34.6164 16.1359 34.0443 16.3892C33.4534 16.6237 32.7969 16.7456 32.0653 16.7456ZM37.0082 7.61953H38.7058V10.8179H38.7902C39.2873 10.2176 39.9251 9.90808 40.7036 9.90808C41.3695 9.90808 41.9042 10.0863 42.2793 10.4521C42.6639 10.8179 42.8609 11.3994 42.8609 12.206V16.5862H41.1632V12.5624C41.1632 12.1591 41.0694 11.859 40.8818 11.6808C40.6942 11.5026 40.4129 11.4088 40.0377 11.4088C39.6531 11.4088 39.3342 11.5495 39.081 11.8215C38.8371 12.0841 38.7058 12.4217 38.7058 12.8157V16.5862H37.0082V7.61953ZM45.8529 16.7456C45.3464 16.7456 44.8868 16.6143 44.4647 16.3517C44.0427 16.0891 43.8269 15.6107 43.8269 14.9073C43.8269 14.0725 44.174 13.4816 44.8587 13.1346C45.5433 12.7782 46.5188 12.5999 47.7756 12.5999V12.131C47.7756 11.8402 47.71 11.6151 47.5787 11.465C47.4567 11.3056 47.2129 11.2306 46.8565 11.2306C46.4719 11.2306 46.1999 11.2868 46.0404 11.4088C45.881 11.5213 45.806 11.662 45.806 11.8215V12.009H44.1646C44.1552 11.9622 44.1552 11.8684 44.1552 11.737C44.1552 11.193 44.3991 10.7522 44.8774 10.4239C45.3651 10.0957 46.0123 9.92684 46.8189 9.92684C47.71 9.92684 48.3759 10.105 48.8167 10.4708C49.2669 10.8366 49.4827 11.3619 49.4827 12.0466V14.926C49.4827 15.0761 49.5202 15.1886 49.6046 15.2637C49.689 15.3293 49.7922 15.3668 49.9141 15.3668H50.2611V16.5393C49.9985 16.6706 49.6702 16.7362 49.2763 16.7362C48.9387 16.7362 48.6479 16.6612 48.4228 16.5111C48.1977 16.3611 48.0476 16.1547 47.9632 15.8733H47.8882C47.6443 16.1547 47.3723 16.3704 47.0534 16.5205C46.7533 16.6706 46.35 16.7456 45.8529 16.7456ZM46.3875 15.4044C46.8658 15.4044 47.2222 15.273 47.4473 15.0104C47.6725 14.7384 47.785 14.3726 47.785 13.9318V13.7255C46.3031 13.7255 45.5621 14.0537 45.5621 14.7197C45.5621 14.926 45.6278 15.0948 45.7591 15.2168C45.8998 15.3387 46.1061 15.4044 46.3875 15.4044ZM51.0021 7.61953H52.6998V9.15774H51.0021V7.61953ZM51.0021 10.0582H52.6998V16.5862H51.0021V10.0582ZM54.2098 10.0582H55.6636L55.7856 10.9117H55.87C56.3952 10.2457 57.0799 9.90808 57.9053 9.90808C58.5712 9.90808 59.1058 10.0863 59.481 10.4521C59.8656 10.8179 60.0625 11.3994 60.0625 12.206V16.5862H58.3742V12.5624C58.3742 12.1591 58.2805 11.859 58.0929 11.6808C57.9053 11.5026 57.6239 11.4088 57.2487 11.4088C56.8642 11.4088 56.5453 11.5495 56.292 11.8215C56.0482 12.0841 55.9169 12.4217 55.9169 12.8157V16.5862H54.2192V10.0582H54.2098ZM61.7133 11.4557H60.7847V10.0675H61.7133V9.31719C61.7133 8.80132 61.854 8.37925 62.126 8.0416C62.398 7.69456 62.8482 7.51636 63.4766 7.51636C63.6548 7.51636 63.8424 7.53512 64.0487 7.58201C64.2551 7.61953 64.4333 7.66643 64.574 7.7227V8.91387H63.9549C63.5985 8.91387 63.4203 9.09208 63.4203 9.4485V10.0675H64.574V11.4557H63.4203V16.5955H61.7227V11.4557H61.7133ZM65.6901 7.61953H67.3878V16.5955H65.6901V7.61953ZM71.8054 16.7456C70.6893 16.7456 69.8545 16.4642 69.3105 15.9108C68.7665 15.3575 68.4945 14.4946 68.4945 13.3315C68.4945 12.1685 68.7665 11.3056 69.3105 10.7522C69.8545 10.1988 70.6893 9.91746 71.8054 9.91746C72.9216 9.91746 73.7563 10.1988 74.3003 10.7522C74.8537 11.3056 75.1351 12.1685 75.1351 13.3315C75.1351 14.4946 74.8537 15.3575 74.3003 15.9108C73.7469 16.4642 72.9216 16.7456 71.8054 16.7456ZM71.8054 15.3481C72.3588 15.3481 72.7621 15.1886 73.006 14.8791C73.2498 14.5602 73.3811 14.0725 73.3811 13.4253V13.2284C73.3811 12.5812 73.2592 12.1028 73.006 11.7839C72.7621 11.465 72.3588 11.2962 71.8054 11.2962C71.252 11.2962 70.8487 11.4557 70.6049 11.7839C70.361 12.1028 70.2485 12.5812 70.2485 13.2284V13.4253C70.2485 14.0725 70.3704 14.5508 70.6049 14.8791C70.8487 15.198 71.2427 15.3481 71.8054 15.3481ZM75.4071 10.0582H77.161L77.8645 12.7406C77.9114 12.9282 77.9864 13.2565 78.0802 13.7067C78.174 14.1663 78.2303 14.4664 78.2584 14.6165H78.3053C78.3334 14.4758 78.3803 14.2226 78.4554 13.8474C78.5398 13.4628 78.6242 13.1064 78.6992 12.7594L79.3651 10.0675H81.1191L81.8225 12.7782C81.8882 13.022 81.9632 13.3597 82.057 13.7817C82.1508 14.2038 82.2071 14.4852 82.2352 14.6259H82.2821C82.3103 14.5039 82.3572 14.2413 82.4416 13.8286C82.526 13.4159 82.601 13.0595 82.6761 12.7688L83.342 10.0582H84.9552L83.0137 16.5862H81.2504L80.5094 13.4722C80.4438 13.219 80.3781 12.9376 80.3218 12.6281C80.2656 12.3186 80.228 12.1216 80.2093 12.0278H80.1436C80.1343 12.1216 80.1061 12.3092 80.0592 12.6093C80.0123 12.9095 79.956 13.1908 79.881 13.4535L79.1025 16.5862H77.3392L75.4071 10.0582Z" fill="white"/>
<path d="M8.85059 1.78589C10.7451 -0.108353 13.8398 -0.108304 15.7344 1.78589L22.6191 8.67065C24.5138 10.5653 24.5138 13.6608 22.6191 15.5554L15.7344 22.4392C13.8397 24.3337 10.7452 24.3338 8.85059 22.4392L1.96582 15.5554C0.0712259 13.6608 0.0712802 10.5653 1.96582 8.67065L8.85059 1.78589ZM9.18848 5.90405C7.49082 5.90405 6.09277 7.30151 6.09277 9.00854V15.2078C6.09277 16.9148 7.49082 18.3123 9.18848 18.3123H15.3975C16.5974 18.3121 17.6371 17.6203 18.1504 16.6169C20.3432 16.2807 22.0293 14.3875 22.0293 12.0935C22.0293 9.80181 20.3419 7.89717 18.1348 7.56714C17.6159 6.58099 16.5847 5.90419 15.3975 5.90405H9.18848Z" fill="white"/>
<path d="M17.4516 16.6706C19.9747 16.6706 22.0287 14.6259 22.0287 12.0935C22.0287 9.57043 19.984 7.51636 17.4516 7.51636C14.9286 7.51636 12.8745 9.56105 12.8745 12.0935C12.8745 14.6165 14.9286 16.6706 17.4516 16.6706Z" stroke="white" stroke-width="1.18179"/>
</g>
<defs>
<clipPath id="clip0_649_3760">
<rect width="84.5076" height="23.6359" fill="white" transform="translate(0.504395 0.312988)"/>
</clipPath>
</defs>
</svg>
