<svg width="121" height="35" viewBox="0 0 121 35" fill="none" xmlns="http://www.w3.org/2000/svg">
<g clip-path="url(#clip0_670_3801)">
<path d="M45.5569 24.1096C41.6683 24.1096 39.7307 22.026 39.7307 17.872C39.7307 15.7884 40.235 14.2357 41.2569 13.2005C42.2788 12.152 43.7121 11.6345 45.5569 11.6345C46.5788 11.6345 47.4945 11.807 48.304 12.1653C49.1269 12.5104 49.7639 13.028 50.2417 13.7446C50.7194 14.448 50.9583 15.3106 50.9583 16.3325H48.3439C48.3439 15.5495 48.0917 14.939 47.5874 14.4878C47.0831 14.0366 46.4328 13.7977 45.6232 13.7977C44.5217 13.7977 43.6989 14.1295 43.168 14.7798C42.6372 15.4301 42.3585 16.3724 42.3585 17.6066V18.1375C42.3585 20.6856 43.4467 21.9463 45.6232 21.9463C46.4726 21.9463 47.1627 21.7207 47.667 21.2828C48.1846 20.8316 48.4368 20.2211 48.4368 19.4381H50.9716C50.9716 20.4732 50.7327 21.3359 50.2682 22.0393C49.8037 22.7294 49.1667 23.2469 48.3571 23.6053C47.521 23.9371 46.592 24.1096 45.5569 24.1096ZM52.5509 11.1965H54.953V15.7221H55.0725C55.7758 14.8727 56.6783 14.4347 57.7798 14.4347C58.7221 14.4347 59.4786 14.6869 60.0094 15.2045C60.5536 15.7221 60.8322 16.5449 60.8322 17.6862V23.884H58.4301V18.1905C58.4301 17.6199 58.2974 17.1952 58.032 16.943C57.7666 16.6909 57.3684 16.5582 56.8376 16.5582C56.2934 16.5582 55.8422 16.7572 55.4839 17.1421C55.1388 17.5137 54.953 17.9915 54.953 18.5489V23.884H52.5509V11.1965ZM65.0658 24.1096C64.3492 24.1096 63.6989 23.9238 63.1017 23.5522C62.5045 23.1806 62.1992 22.5037 62.1992 21.5084C62.1992 20.3272 62.6903 19.4911 63.6591 19.0001C64.6279 18.4958 66.0081 18.2436 67.7865 18.2436V17.5801C67.7865 17.1686 67.6936 16.8501 67.5078 16.6378C67.3352 16.4122 66.9902 16.306 66.4859 16.306C65.9417 16.306 65.5569 16.3856 65.3313 16.5582C65.1056 16.7174 64.9995 16.9165 64.9995 17.1421V17.4075H62.677C62.6637 17.3412 62.6637 17.2085 62.6637 17.0227C62.6637 16.2529 63.0088 15.6292 63.6856 15.1647C64.3757 14.7002 65.2914 14.4613 66.4328 14.4613C67.6936 14.4613 68.6358 14.7134 69.2596 15.231C69.8966 15.7486 70.2019 16.4918 70.2019 17.4606V21.5349C70.2019 21.7473 70.255 21.9065 70.3744 22.0127C70.4938 22.1056 70.6398 22.1587 70.8124 22.1587H71.3034V23.8176C70.9318 24.0034 70.4673 24.0963 69.9099 24.0963C69.4321 24.0963 69.0207 23.9901 68.7022 23.7778C68.3837 23.5655 68.1713 23.2735 68.0519 22.8753H67.9457C67.6007 23.2735 67.2158 23.5787 66.7646 23.7911C66.3399 24.0034 65.7692 24.1096 65.0658 24.1096ZM65.8223 22.2118C66.4991 22.2118 67.0035 22.026 67.322 21.6544C67.6405 21.2695 67.7997 20.7519 67.7997 20.1282V19.8362C65.7029 19.8362 64.6544 20.3007 64.6544 21.243C64.6544 21.5349 64.7473 21.7738 64.9331 21.9463C65.1322 22.1189 65.4242 22.2118 65.8223 22.2118ZM72.3518 11.1965H74.754V13.373H72.3518V11.1965ZM72.3518 14.6471H74.754V23.884H72.3518V14.6471ZM76.8907 14.6471H78.9477L79.1203 15.8548H79.2397C79.9829 14.9125 80.9517 14.4347 82.1196 14.4347C83.0619 14.4347 83.8183 14.6869 84.3492 15.2045C84.8933 15.7221 85.172 16.5449 85.172 17.6862V23.884H82.7832V18.1905C82.7832 17.6199 82.6504 17.1952 82.385 16.943C82.1196 16.6909 81.7215 16.5582 81.1906 16.5582C80.6465 16.5582 80.1952 16.7572 79.8369 17.1421C79.4919 17.5137 79.3061 17.9915 79.3061 18.5489V23.884H76.9039V14.6471H76.8907ZM87.5078 16.6245H86.1939V14.6603H87.5078V13.5986C87.5078 12.8687 87.7069 12.2715 88.0917 11.7937C88.4766 11.3027 89.1136 11.0505 90.0028 11.0505C90.255 11.0505 90.5204 11.0771 90.8124 11.1434C91.1043 11.1965 91.3565 11.2629 91.5556 11.3425V13.028H90.6797C90.1753 13.028 89.9232 13.2801 89.9232 13.7844V14.6603H91.5556V16.6245H89.9232V23.8972H87.5211V16.6245H87.5078ZM93.1349 11.1965H95.537V23.8972H93.1349V11.1965ZM101.788 24.1096C100.209 24.1096 99.0274 23.7114 98.2576 22.9284C97.4879 22.1454 97.103 20.9245 97.103 19.2788C97.103 17.6331 97.4879 16.4122 98.2576 15.6292C99.0274 14.8461 100.209 14.448 101.788 14.448C103.367 14.448 104.548 14.8461 105.318 15.6292C106.101 16.4122 106.499 17.6331 106.499 19.2788C106.499 20.9245 106.101 22.1454 105.318 22.9284C104.535 23.7114 103.367 24.1096 101.788 24.1096ZM101.788 22.1321C102.571 22.1321 103.142 21.9065 103.487 21.4686C103.832 21.0174 104.017 20.3272 104.017 19.4115V19.1328C104.017 18.2171 103.845 17.5402 103.487 17.089C103.142 16.6378 102.571 16.3989 101.788 16.3989C101.005 16.3989 100.434 16.6245 100.089 17.089C99.744 17.5402 99.5848 18.2171 99.5848 19.1328V19.4115C99.5848 20.3272 99.7573 21.0041 100.089 21.4686C100.434 21.9198 100.992 22.1321 101.788 22.1321ZM106.884 14.6471H109.366L110.361 18.4427C110.428 18.7081 110.534 19.1726 110.666 19.8097C110.799 20.46 110.879 20.8846 110.919 21.097H110.985C111.025 20.8979 111.091 20.5396 111.197 20.0087C111.317 19.4646 111.436 18.9603 111.542 18.4692L112.485 14.6603H114.966L115.962 18.4958C116.055 18.8408 116.161 19.3186 116.293 19.9158C116.426 20.513 116.506 20.9112 116.546 21.1103H116.612C116.652 20.9377 116.718 20.5661 116.838 19.9822C116.957 19.3982 117.063 18.8939 117.169 18.4825L118.112 14.6471H120.394L117.647 23.884H115.152L114.104 19.4779C114.011 19.1195 113.918 18.7214 113.838 18.2834C113.759 17.8455 113.706 17.5668 113.679 17.4341H113.586C113.573 17.5668 113.533 17.8322 113.467 18.2569C113.4 18.6816 113.321 19.0797 113.215 19.4513L112.113 23.884H109.618L106.884 14.6471Z" fill="#151A1A"/>
<path d="M12.709 2.9422C15.3898 0.261496 19.7694 0.261494 22.4502 2.9422L32.1914 12.6834C34.8722 15.3642 34.8721 19.7438 32.1914 22.4246L22.4502 32.1658C19.7694 34.8467 15.3898 34.8467 12.709 32.1658L2.96777 22.4246C0.287035 19.7438 0.286977 15.3642 2.96777 12.6834L12.709 2.9422ZM13.1865 8.76837C10.7846 8.7685 8.80784 10.7458 8.80762 13.1609V21.9334C8.80762 24.3487 10.7845 26.3268 13.1865 26.327H21.9727C23.6714 26.3269 25.1451 25.3473 25.8711 23.9266C28.9723 23.4496 31.3563 20.7719 31.3564 17.5272C31.3564 14.285 28.9699 11.5895 25.8477 11.1219C25.1135 9.72625 23.6529 8.76846 21.9727 8.76837H13.1865Z" fill="#151A1A"/>
<path d="M24.8795 24.0035C28.4495 24.0035 31.356 21.1103 31.356 17.527C31.356 13.957 28.4628 11.0506 24.8795 11.0506C21.3095 11.0506 18.4031 13.9437 18.4031 17.527C18.4031 21.097 21.3095 24.0035 24.8795 24.0035Z" stroke="#151A1A" stroke-width="1.6722"/>
</g>
<defs>
<clipPath id="clip0_670_3801">
<rect width="119.575" height="33.444" fill="white" transform="translate(0.89917 0.857941)"/>
</clipPath>
</defs>
</svg>
