<svg width="111" height="31" viewBox="0 0 111 31" fill="none" xmlns="http://www.w3.org/2000/svg">
<g clip-path="url(#clip0_670_3810)">
<path d="M42.0886 14.0622C45.0195 14.0622 47.301 12.613 47.5608 9.36146H44.8523C44.4629 10.9965 43.4242 11.6654 42.0886 11.6654C39.8068 11.6654 38.8979 9.80737 38.8979 7.37339C38.8979 4.93938 39.8256 3.09997 42.0886 3.09997C43.4426 3.09997 44.4629 3.76884 44.8523 5.38532H47.5608C47.301 2.15239 45.0195 0.70314 42.0886 0.70314C38.4156 0.70314 36.0413 3.17429 36.0413 7.37339C36.0413 11.5911 38.4156 14.0622 42.0886 14.0622Z" fill="#151A1A"/>
<path d="M67.5801 14.0622C71.3272 14.0622 73.7755 11.3495 73.7755 7.37339C73.7755 3.37867 71.3272 0.70314 67.5801 0.70314C63.833 0.70314 61.3843 3.37867 61.3843 7.37339C61.3843 11.3495 63.833 14.0622 67.5801 14.0622ZM67.5801 11.6654C65.4468 11.6654 64.2409 9.95601 64.2409 7.37339C64.2409 4.77217 65.4468 3.09997 67.5801 3.09997C69.7131 3.09997 70.9189 4.77217 70.9189 7.37339C70.9189 9.95601 69.7131 11.6654 67.5801 11.6654Z" fill="#151A1A"/>
<path d="M92.5841 14.0622C95.7376 14.0622 97.9262 12.4086 97.9262 8.93409V0.870331H95.1253V8.72968C95.1253 10.662 94.1794 11.6468 92.5841 11.6468C90.9887 11.6468 90.0241 10.662 90.0241 8.72968V0.870331H87.2231V8.93409C87.2231 12.4086 89.3933 14.0622 92.5841 14.0622Z" fill="#151A1A"/>
<path d="M105.006 14.0622C107.956 14.0622 110.274 12.8545 110.274 10.0489C110.274 8.07943 109.106 6.90889 106.063 6.3329L104.32 5.99847C103.151 5.79407 102.836 5.16235 102.836 4.5678C102.836 3.76884 103.393 3.00707 104.876 3.00707C106.138 3.00707 107.102 3.52731 107.065 4.69785H109.922C109.922 2.04091 107.807 0.70314 104.839 0.70314C101.927 0.70314 99.9236 1.96659 99.9236 4.45631C99.9236 6.81597 101.649 7.74498 103.689 8.15375L105.563 8.50677C106.731 8.72971 107.325 9.17565 107.325 10.0675C107.325 11.1266 106.527 11.7583 105.025 11.7583C103.244 11.7583 102.502 10.7921 102.446 9.62156H99.571C99.571 12.4829 101.686 14.0622 105.006 14.0622Z" fill="#151A1A"/>
<path d="M57.3423 1.00056V6.2643H54.6104V8.53065H57.3423V13.7944H60.1414V1.00056H57.3423Z" fill="#151A1A"/>
<path d="M52.2293 6.2643H52.2299V8.53065H52.2293V13.7944H49.4302V1.00056H52.2293V6.2643Z" fill="#151A1A"/>
<path fill-rule="evenodd" clip-rule="evenodd" d="M70.6407 30.1587H61.5884V17.3649H70.4554V19.7409H64.3709V22.6104H69.8987V24.7488H64.3709V27.7827H70.6407V30.1587Z" fill="#151A1A"/>
<path d="M42.237 30.4267C45.9841 30.4267 48.4325 27.714 48.4325 23.7379C48.4325 19.7432 45.9841 17.0677 42.237 17.0677C38.4899 17.0677 36.0413 19.7432 36.0413 23.7379C36.0413 27.714 38.4899 30.4267 42.237 30.4267ZM42.237 28.0299C40.1037 28.0299 38.8979 26.3205 38.8979 23.7379C38.8979 21.1367 40.1037 19.4645 42.237 19.4645C44.37 19.4645 45.5759 21.1367 45.5759 23.7379C45.5759 26.3205 44.37 28.0299 42.237 28.0299Z" fill="#151A1A"/>
<path fill-rule="evenodd" clip-rule="evenodd" d="M0.346191 27.145L3.66648 30.4502L6.98677 27.145L3.66648 23.8397L0.346191 27.145Z" fill="#151A1A"/>
<path fill-rule="evenodd" clip-rule="evenodd" d="M30.2286 4.00841L26.9082 0.70314L23.5879 4.00841L26.9082 7.31368L30.2286 4.00841Z" fill="#151A1A"/>
<path fill-rule="evenodd" clip-rule="evenodd" d="M18.6076 18.882L15.2873 22.1873L11.967 18.882L8.64671 15.5767L11.967 12.2715L15.2873 8.96622L18.6076 12.2715L21.9278 15.5767L18.6076 18.882ZM28.5684 15.5767L25.2481 12.2714L21.9278 8.96613L18.6075 5.66086L15.2873 2.35561L11.9669 5.66086L8.64668 8.96613L5.32639 12.2714L2.0061 15.5767L5.32639 18.8819L8.64668 22.1872L11.9669 25.4925L15.2873 28.7977L18.6075 25.4925L21.9278 22.1872L25.2481 18.8819L28.5684 15.5767Z" fill="#151A1A"/>
<path fill-rule="evenodd" clip-rule="evenodd" d="M23.584 27.151L26.9043 30.4563L30.2245 27.151L26.9043 23.8457L23.584 27.151Z" fill="#151A1A"/>
<path fill-rule="evenodd" clip-rule="evenodd" d="M6.97799 4.01083L3.6577 0.705566L0.337402 4.01083L3.6577 7.3161L6.97799 4.01083Z" fill="#151A1A"/>
<path d="M52.149 17.3649H49.4302V30.1587H52.1487V21.9159H52.149V17.3649Z" fill="#151A1A"/>
<path d="M54.5298 25.7491L57.2058 30.1587H60.1418V17.3649H57.4233V25.7723H57.3688L54.5298 21.102V25.7491Z" fill="#151A1A"/>
<path d="M83.0357 9.17562L85.7622 13.8764H83.0169L80.5923 9.62159V7.13182C82.1094 7.13004 82.7759 6.36869 82.7759 5.21807C82.7759 4.04753 82.108 3.28574 80.587 3.28574H78.2127V6.18829H78.2121V9.86821H78.2127V13.8764H75.4302V0.870331H80.6798C84.13 0.870331 85.6325 2.6726 85.6325 5.21807C85.6325 7.07606 84.8348 8.52531 83.0357 9.17562Z" fill="#151A1A"/>
</g>
<defs>
<clipPath id="clip0_670_3810">
<rect width="110.086" height="29.7531" fill="white" transform="translate(0.338379 0.703339)"/>
</clipPath>
</defs>
</svg>
