<svg width="79" height="22" viewBox="0 0 79 22" fill="none" xmlns="http://www.w3.org/2000/svg">
<g clip-path="url(#clip0_649_3769)">
<path d="M29.7582 10.0587C31.8296 10.0587 33.442 9.03447 33.6256 6.73653H31.7114C31.4362 7.89207 30.7021 8.36479 29.7582 8.36479C28.1456 8.36479 27.5032 7.05167 27.5032 5.3315C27.5032 3.61131 28.1589 2.31134 29.7582 2.31134C30.7152 2.31134 31.4362 2.78405 31.7114 3.92647H33.6256C33.442 1.64166 31.8296 0.617432 29.7582 0.617432C27.1624 0.617432 25.4844 2.36387 25.4844 5.3315C25.4844 8.31226 27.1624 10.0587 29.7582 10.0587Z" fill="white"/>
<path d="M47.7738 10.0587C50.422 10.0587 52.1523 8.14156 52.1523 5.3315C52.1523 2.50831 50.422 0.617432 47.7738 0.617432C45.1256 0.617432 43.395 2.50831 43.395 5.3315C43.395 8.14156 45.1256 10.0587 47.7738 10.0587ZM47.7738 8.36479C46.2661 8.36479 45.4139 7.15672 45.4139 5.3315C45.4139 3.49314 46.2661 2.31134 47.7738 2.31134C49.2812 2.31134 50.1335 3.49314 50.1335 5.3315C50.1335 7.15672 49.2812 8.36479 47.7738 8.36479Z" fill="white"/>
<path d="M65.445 10.0584C67.6737 10.0584 69.2204 8.88977 69.2204 6.43426V0.735352H67.2409V6.2898C67.2409 7.65544 66.5725 8.35139 65.445 8.35139C64.3175 8.35139 63.6358 7.65544 63.6358 6.2898V0.735352H61.6562V6.43426C61.6562 8.88977 63.19 10.0584 65.445 10.0584Z" fill="white"/>
<path d="M74.2241 10.0587C76.3085 10.0587 77.9472 9.20517 77.9472 7.22237C77.9472 5.83048 77.1213 5.00322 74.9712 4.59615L73.739 4.3598C72.913 4.21535 72.6901 3.76889 72.6901 3.3487C72.6901 2.78405 73.0836 2.24569 74.1322 2.24569C75.0238 2.24569 75.7055 2.61336 75.6792 3.44061H77.698C77.698 1.56287 76.2036 0.617432 74.1061 0.617432C72.0478 0.617432 70.632 1.51035 70.632 3.26991C70.632 4.93755 71.8512 5.59411 73.2932 5.88301L74.6173 6.1325C75.4433 6.29006 75.8628 6.60522 75.8628 7.23551C75.8628 7.98398 75.299 8.43044 74.2371 8.43044C72.9786 8.43044 72.4542 7.74761 72.4149 6.92035H70.3828C70.3828 8.94256 71.8774 10.0587 74.2241 10.0587Z" fill="white"/>
<path d="M40.5382 0.827393V4.54743H38.6074V6.14913H40.5382V9.86918H42.5164V0.827393H40.5382Z" fill="white"/>
<path d="M36.925 4.54743H36.9255V6.14913H36.925V9.86918H34.9468V0.827393H36.925V4.54743Z" fill="white"/>
<path fill-rule="evenodd" clip-rule="evenodd" d="M49.9367 21.4346H43.5391V12.3928H49.8057V14.072H45.5055V16.1H49.4122V17.6112H45.5055V19.7554H49.9367V21.4346Z" fill="white"/>
<path d="M29.8631 21.6239C32.5113 21.6239 34.2417 19.7067 34.2417 16.8967C34.2417 14.0735 32.5113 12.1826 29.8631 12.1826C27.2149 12.1826 25.4844 14.0735 25.4844 16.8967C25.4844 19.7067 27.2149 21.6239 29.8631 21.6239ZM29.8631 19.93C28.3555 19.93 27.5032 18.7219 27.5032 16.8967C27.5032 15.0583 28.3555 13.8765 29.8631 13.8765C31.3706 13.8765 32.2228 15.0583 32.2228 16.8967C32.2228 18.7219 31.3706 19.93 29.8631 19.93Z" fill="white"/>
<path fill-rule="evenodd" clip-rule="evenodd" d="M0.257812 19.3047L2.60436 21.6406L4.95091 19.3047L2.60436 16.9688L0.257812 19.3047Z" fill="white"/>
<path fill-rule="evenodd" clip-rule="evenodd" d="M21.3763 2.95337L19.0296 0.617432L16.6831 2.95337L19.0296 5.2893L21.3763 2.95337Z" fill="white"/>
<path fill-rule="evenodd" clip-rule="evenodd" d="M13.1634 13.4649L10.8169 15.8008L8.47034 13.4649L6.12379 11.1289L8.47034 8.79301L10.8169 6.45708L13.1634 8.79301L15.51 11.1289L13.1634 13.4649ZM20.2031 11.1289L17.8565 8.79297L15.51 6.45702L13.1634 4.12108L10.8169 1.78516L8.4703 4.12108L6.12376 6.45702L3.77721 8.79297L1.43066 11.1289L3.77721 13.4648L6.12376 15.8008L8.4703 18.1367L10.8169 20.4726L13.1634 18.1367L15.51 15.8008L17.8565 13.4648L20.2031 11.1289Z" fill="white"/>
<path fill-rule="evenodd" clip-rule="evenodd" d="M16.6802 19.3088L19.0267 21.6448L21.3732 19.3088L19.0267 16.9729L16.6802 19.3088Z" fill="white"/>
<path fill-rule="evenodd" clip-rule="evenodd" d="M4.94457 2.95507L2.59802 0.619141L0.251465 2.95507L2.59802 5.29101L4.94457 2.95507Z" fill="white"/>
<path d="M36.8683 12.3928H34.9468V21.4346H36.8681V15.6091H36.8683V12.3928Z" fill="white"/>
<path d="M38.5508 18.3182L40.442 21.4346H42.517V12.3928H40.5957V18.3346H40.5572L38.5508 15.0339V18.3182Z" fill="white"/>
<path d="M58.6968 6.60495L60.6238 9.92712H58.6836L56.97 6.92013V5.16054C58.0422 5.15928 58.5132 4.62121 58.5132 3.80804C58.5132 2.98078 58.0412 2.44239 56.9662 2.44239H55.2883V4.49372H55.2878V7.09443H55.2883V9.92712H53.3218V0.735352H57.0319C59.4702 0.735352 60.5321 2.00907 60.5321 3.80804C60.5321 5.12113 59.9683 6.14536 58.6968 6.60495Z" fill="white"/>
</g>
<defs>
<clipPath id="clip0_649_3769">
<rect width="77.8014" height="21.0274" fill="white" transform="translate(0.251953 0.617432)"/>
</clipPath>
</defs>
</svg>
