<svg width="123" height="48" viewBox="0 0 123 48" fill="none" xmlns="http://www.w3.org/2000/svg">
<g clip-path="url(#clip0_3210_95434)">
<path d="M25.4334 18.142C21.0014 18.142 17.5384 21.5383 17.5384 26.085C17.5384 30.6316 20.9139 33.9989 25.4334 33.9989C29.9528 33.9989 33.387 30.5735 33.387 26.0559C33.387 21.5674 30.0115 18.142 25.4334 18.142ZM25.4633 30.7222C22.9394 30.7222 21.09 28.7434 21.09 26.0861C21.09 23.3985 22.9095 21.4209 25.4334 21.4209C27.9871 21.4209 29.8354 23.4287 29.8354 26.0861C29.8354 28.7434 27.9871 30.7222 25.4633 30.7222ZM34.3549 21.5975H36.5565V33.7049H40.0781V18.4371H34.3549V21.5975ZM8.67558 21.4198C10.525 21.4198 11.9924 22.5713 12.5494 24.284H16.2771C15.6015 20.6227 12.6081 18.142 8.70549 18.142C4.27351 18.142 0.810547 21.5383 0.810547 26.0861C0.810547 30.6339 4.18602 34 8.70549 34C12.5206 34 15.5727 31.5193 16.2483 27.8278H12.5494C12.0212 29.5405 10.5538 30.7222 8.70438 30.7222C6.15062 30.7222 4.361 28.7434 4.361 26.0861C4.36211 23.3985 6.12294 21.4198 8.67558 21.4198ZM101.269 24.6093L98.6861 24.2258C97.4535 24.0492 96.5731 23.6356 96.5731 22.6607C96.5731 21.5975 97.7182 21.0665 99.273 21.0665C100.975 21.0665 102.062 21.8044 102.296 23.0151H105.701C105.319 19.9441 102.971 18.1431 99.3616 18.1431C95.634 18.1431 93.1688 20.0626 93.1688 22.7792C93.1688 25.3773 94.7835 26.8843 98.0404 27.3561L100.623 27.7395C101.885 27.9162 102.59 28.4192 102.59 29.3639C102.59 30.5746 101.357 31.0766 99.6551 31.0766C97.5709 31.0766 96.397 30.2202 96.2209 28.9212H92.758C93.0813 31.9039 95.3992 34 99.6252 34C103.47 34 106.023 32.2281 106.023 29.1861C106.023 26.4695 104.175 25.052 101.269 24.6093ZM38.3173 12.1476C37.026 12.1476 36.057 13.0922 36.057 14.3913C36.057 15.6903 37.0249 16.635 38.3173 16.635C39.6086 16.635 40.5776 15.6903 40.5776 14.3913C40.5776 13.0922 39.6086 12.1476 38.3173 12.1476ZM89.9993 23.6646C89.9993 20.3577 88.0037 18.1431 83.7777 18.1431C79.7865 18.1431 77.5561 20.1811 77.1154 23.3113H80.6082C80.7843 22.1006 81.7234 21.0967 83.719 21.0967C85.5098 21.0967 86.3902 21.8938 86.3902 22.8686C86.3902 24.1386 84.7755 24.4628 82.7799 24.6696C80.08 24.9648 76.7344 25.9094 76.7344 29.4533C76.7344 32.2001 78.7599 33.9709 81.9881 33.9709C84.512 33.9709 86.0967 32.9078 86.8896 31.2241C87.007 32.73 88.1222 33.7049 89.6782 33.7049H91.7325V30.5456H90.0004V23.6646H89.9993ZM86.5364 27.5036C86.5364 29.5416 84.7755 31.0475 82.6326 31.0475C81.3115 31.0475 80.1963 30.4863 80.1963 29.3058C80.1963 27.7999 81.987 27.3862 83.6304 27.2096C85.2152 27.062 86.0956 26.7077 86.5364 26.0279V27.5036ZM67.8417 18.142C65.8749 18.142 64.2314 18.9693 63.0575 20.3566V12H59.5359V33.7049H62.9988V31.697C64.1727 33.1437 65.8461 34 67.8417 34C72.0677 34 75.267 30.6339 75.267 26.0861C75.267 21.5383 72.009 18.142 67.8417 18.142ZM67.3134 30.7222C64.7896 30.7222 62.9401 28.7434 62.9401 26.0861C62.9401 23.4287 64.8184 21.4209 67.3422 21.4209C69.896 21.4209 71.6856 23.3997 71.6856 26.0861C71.6856 28.7434 69.8373 30.7222 67.3134 30.7222ZM51.1127 18.142C48.8236 18.142 47.3263 19.0866 46.4459 20.4159V18.4371H42.9531V33.7037H46.4747V25.4064C46.4747 23.0732 47.9421 21.4198 50.1138 21.4198C52.1393 21.4198 53.4006 22.8664 53.4006 24.9637V33.7049H56.9223V24.6987C56.9234 20.8586 54.9577 18.142 51.1127 18.142ZM122.811 25.5841C122.811 21.2141 119.641 18.1431 115.385 18.1431C110.866 18.1431 107.549 21.5685 107.549 26.0861C107.549 30.8407 111.1 34 115.444 34C119.113 34 121.989 31.8144 122.722 28.7144H119.053C118.525 30.0727 117.233 30.8407 115.501 30.8407C113.241 30.8407 111.539 29.4231 111.158 26.9424H122.809V25.5841H122.811ZM111.364 24.4025C111.922 22.2761 113.507 21.2432 115.326 21.2432C117.322 21.2432 118.848 22.3946 119.2 24.4025H111.364Z" fill="#778A96"/>
</g>
<defs>
<clipPath id="clip0_3210_95434">
<rect width="122" height="48" fill="white" transform="translate(0.810547)"/>
</clipPath>
</defs>
</svg>
