<svg width="123" height="48" viewBox="0 0 123 48" fill="none" xmlns="http://www.w3.org/2000/svg">
<g clip-path="url(#clip0_421_3208)">
<path d="M25.1671 18.142C20.7351 18.142 17.2721 21.5383 17.2721 26.085C17.2721 30.6316 20.6476 33.9989 25.1671 33.9989C29.6865 33.9989 33.1207 30.5735 33.1207 26.0559C33.1207 21.5674 29.7452 18.142 25.1671 18.142ZM25.197 30.7222C22.6731 30.7222 20.8237 28.7434 20.8237 26.0861C20.8237 23.3985 22.6432 21.4209 25.1671 21.4209C27.7208 21.4209 29.5691 23.4287 29.5691 26.0861C29.5691 28.7434 27.7208 30.7222 25.197 30.7222ZM34.0886 21.5975H36.2902V33.7049H39.8118V18.4371H34.0886V21.5975ZM8.40929 21.4198C10.2587 21.4198 11.7261 22.5713 12.2831 24.284H16.0108C15.3352 20.6227 12.3418 18.142 8.43919 18.142C4.00721 18.142 0.54425 21.5383 0.54425 26.0861C0.54425 30.6339 3.91973 34 8.43919 34C12.2543 34 15.3064 31.5193 15.982 27.8278H12.2831C11.7549 29.5405 10.2875 30.7222 8.43808 30.7222C5.88433 30.7222 4.0947 28.7434 4.0947 26.0861C4.09581 23.3985 5.85664 21.4198 8.40929 21.4198ZM101.002 24.6093L98.4198 24.2258C97.1872 24.0492 96.3068 23.6356 96.3068 22.6607C96.3068 21.5975 97.4519 21.0665 99.0067 21.0665C100.709 21.0665 101.795 21.8044 102.03 23.0151H105.434C105.052 19.9441 102.704 18.1431 99.0953 18.1431C95.3677 18.1431 92.9025 20.0626 92.9025 22.7792C92.9025 25.3773 94.5172 26.8843 97.7741 27.3561L100.357 27.7395C101.619 27.9162 102.324 28.4192 102.324 29.3639C102.324 30.5746 101.091 31.0766 99.3888 31.0766C97.3046 31.0766 96.1307 30.2202 95.9546 28.9212H92.4917C92.815 31.9039 95.1329 34 99.3589 34C103.204 34 105.757 32.2281 105.757 29.1861C105.757 26.4695 103.908 25.052 101.002 24.6093ZM38.051 12.1476C36.7597 12.1476 35.7907 13.0922 35.7907 14.3913C35.7907 15.6903 36.7586 16.635 38.051 16.635C39.3423 16.635 40.3113 15.6903 40.3113 14.3913C40.3113 13.0922 39.3423 12.1476 38.051 12.1476ZM89.733 23.6646C89.733 20.3577 87.7374 18.1431 83.5114 18.1431C79.5202 18.1431 77.2898 20.1811 76.8491 23.3113H80.3419C80.518 22.1006 81.4571 21.0967 83.4527 21.0967C85.2435 21.0967 86.1239 21.8938 86.1239 22.8686C86.1239 24.1386 84.5092 24.4628 82.5136 24.6696C79.8137 24.9648 76.4681 25.9094 76.4681 29.4533C76.4681 32.2001 78.4936 33.9709 81.7218 33.9709C84.2457 33.9709 85.8304 32.9078 86.6233 31.2241C86.7407 32.73 87.8559 33.7049 89.4119 33.7049H91.4662V30.5456H89.7341V23.6646H89.733ZM86.2701 27.5036C86.2701 29.5416 84.5092 31.0475 82.3663 31.0475C81.0452 31.0475 79.93 30.4863 79.93 29.3058C79.93 27.7999 81.7207 27.3862 83.3641 27.2096C84.9489 27.062 85.8293 26.7077 86.2701 26.0279V27.5036ZM67.5754 18.142C65.6086 18.142 63.9651 18.9693 62.7912 20.3566V12H59.2696V33.7049H62.7325V31.697C63.9064 33.1437 65.5798 34 67.5754 34C71.8014 34 75.0007 30.6339 75.0007 26.0861C75.0007 21.5383 71.7427 18.142 67.5754 18.142ZM67.0471 30.7222C64.5233 30.7222 62.6738 28.7434 62.6738 26.0861C62.6738 23.4287 64.5521 21.4209 67.0759 21.4209C69.6297 21.4209 71.4193 23.3997 71.4193 26.0861C71.4193 28.7434 69.571 30.7222 67.0471 30.7222ZM50.8464 18.142C48.5573 18.142 47.06 19.0866 46.1796 20.4159V18.4371H42.6868V33.7037H46.2084V25.4064C46.2084 23.0732 47.6758 21.4198 49.8475 21.4198C51.873 21.4198 53.1343 22.8664 53.1343 24.9637V33.7049H56.656V24.6987C56.6571 20.8586 54.6914 18.142 50.8464 18.142ZM122.544 25.5841C122.544 21.2141 119.375 18.1431 115.119 18.1431C110.599 18.1431 107.283 21.5685 107.283 26.0861C107.283 30.8407 110.834 34 115.178 34C118.847 34 121.723 31.8144 122.456 28.7144H118.787C118.258 30.0727 116.967 30.8407 115.235 30.8407C112.975 30.8407 111.273 29.4231 110.892 26.9424H122.543V25.5841H122.544ZM111.098 24.4025C111.656 22.2761 113.241 21.2432 115.06 21.2432C117.056 21.2432 118.582 22.3946 118.934 24.4025H111.098Z" fill="#8CA4A6"/>
</g>
<defs>
<clipPath id="clip0_421_3208">
<rect width="122" height="48" fill="white" transform="translate(0.54425)"/>
</clipPath>
</defs>
</svg>
