<svg width="579" height="285" viewBox="0 0 579 285" fill="none" xmlns="http://www.w3.org/2000/svg">
<path d="M1.36375 89.2667H2.62375L5.58775 96.4667L8.53975 89.2667H9.81175V97.6667H8.80375V91.0187L6.06775 97.6667H5.09575L2.37175 91.0427V97.6667H1.36375V89.2667ZM14.456 97.7987C13.84 97.7987 13.292 97.6587 12.812 97.3787C12.34 97.0987 11.972 96.7107 11.708 96.2147C11.452 95.7107 11.324 95.1427 11.324 94.5107C11.324 93.8147 11.46 93.2147 11.732 92.7107C12.004 92.1987 12.368 91.8147 12.824 91.5587C13.288 91.2947 13.792 91.1627 14.336 91.1627C15.216 91.1627 15.916 91.4467 16.436 92.0147C16.964 92.5827 17.236 93.3707 17.252 94.3787V94.6547H12.32C12.352 95.3427 12.556 95.8947 12.932 96.3107C13.316 96.7267 13.824 96.9347 14.456 96.9347C14.904 96.9347 15.284 96.8267 15.596 96.6107C15.908 96.3867 16.128 96.0707 16.256 95.6627H17.228C17.084 96.3187 16.764 96.8387 16.268 97.2227C15.78 97.6067 15.176 97.7987 14.456 97.7987ZM16.208 93.8267C16.12 93.2667 15.912 92.8267 15.584 92.5067C15.256 92.1867 14.84 92.0267 14.336 92.0267C13.832 92.0267 13.404 92.1867 13.052 92.5067C12.708 92.8187 12.484 93.2587 12.38 93.8267H16.208ZM20.6141 97.7627C19.8941 97.7627 19.3181 97.5907 18.8861 97.2467C18.4621 96.9027 18.2501 96.4387 18.2501 95.8547C18.2501 95.3987 18.3741 95.0427 18.6221 94.7867C18.8781 94.5227 19.1941 94.3387 19.5701 94.2347C19.9541 94.1227 20.4101 94.0387 20.9381 93.9827L21.3341 93.9467C21.8381 93.8987 22.1981 93.8427 22.4141 93.7787C22.6381 93.7147 22.7541 93.5827 22.7621 93.3827C22.7541 92.9827 22.5981 92.6547 22.2941 92.3987C21.9981 92.1427 21.6101 92.0147 21.1301 92.0147C20.6661 92.0147 20.2701 92.1347 19.9421 92.3747C19.6221 92.6067 19.4341 92.9107 19.3781 93.2867H18.3941C18.4341 92.8787 18.5781 92.5147 18.8261 92.1947C19.0741 91.8667 19.3981 91.6147 19.7981 91.4387C20.2061 91.2547 20.6581 91.1627 21.1541 91.1627C21.6741 91.1627 22.1261 91.2587 22.5101 91.4507C22.9021 91.6427 23.2021 91.9107 23.4101 92.2547C23.6261 92.5987 23.7341 92.9947 23.7341 93.4427V96.5387C23.7341 96.7467 23.8421 96.8507 24.0581 96.8507H24.4181V97.6667H23.8541C23.5101 97.6667 23.2501 97.5907 23.0741 97.4387C22.8981 97.2867 22.8101 97.0627 22.8101 96.7667V96.5747C22.6181 96.9507 22.3381 97.2427 21.9701 97.4507C21.6021 97.6587 21.1501 97.7627 20.6141 97.7627ZM19.2461 95.8307C19.2461 96.1587 19.3821 96.4227 19.6541 96.6227C19.9341 96.8147 20.3021 96.9107 20.7581 96.9107C21.3501 96.9107 21.8301 96.7427 22.1981 96.4067C22.5741 96.0627 22.7621 95.6267 22.7621 95.0987V94.2707C22.6421 94.4387 22.4461 94.5547 22.1741 94.6187C21.9021 94.6827 21.5101 94.7427 20.9981 94.7987C20.6221 94.8387 20.3141 94.8867 20.0741 94.9427C19.8421 94.9987 19.6461 95.0987 19.4861 95.2427C19.3261 95.3787 19.2461 95.5747 19.2461 95.8307ZM25.5348 91.3067H26.3268L26.4228 92.2787C26.6388 91.9347 26.9428 91.6627 27.3348 91.4627C27.7348 91.2627 28.1668 91.1627 28.6308 91.1627C29.3188 91.1627 29.8708 91.3707 30.2868 91.7867C30.7028 92.2027 30.9108 92.7587 30.9108 93.4547V97.6667H29.9148V93.4907C29.9148 93.0427 29.7788 92.6907 29.5068 92.4347C29.2348 92.1707 28.8588 92.0387 28.3788 92.0387C27.8268 92.0387 27.3828 92.2067 27.0468 92.5427C26.7108 92.8787 26.5388 93.2987 26.5308 93.8027V97.6667H25.5348V91.3067Z" fill="white"/>
<path d="M1.33055 164.933H2.59055L5.55455 172.133L8.50655 164.933H9.77855V173.333H8.77055V166.685L6.03455 173.333H5.06255L2.33855 166.709V173.333H1.33055V164.933ZM14.4228 173.465C13.8068 173.465 13.2588 173.325 12.7788 173.045C12.3068 172.765 11.9388 172.377 11.6748 171.881C11.4188 171.377 11.2908 170.809 11.2908 170.177C11.2908 169.481 11.4268 168.881 11.6988 168.377C11.9708 167.865 12.3348 167.481 12.7908 167.225C13.2548 166.961 13.7588 166.829 14.3028 166.829C15.1828 166.829 15.8828 167.113 16.4028 167.681C16.9308 168.249 17.2028 169.037 17.2188 170.045V170.321H12.2868C12.3188 171.009 12.5228 171.561 12.8988 171.977C13.2828 172.393 13.7908 172.601 14.4228 172.601C14.8708 172.601 15.2508 172.493 15.5628 172.277C15.8748 172.053 16.0948 171.737 16.2228 171.329H17.1948C17.0508 171.985 16.7308 172.505 16.2348 172.889C15.7468 173.273 15.1428 173.465 14.4228 173.465ZM16.1748 169.493C16.0868 168.933 15.8788 168.493 15.5508 168.173C15.2228 167.853 14.8068 167.693 14.3028 167.693C13.7988 167.693 13.3708 167.853 13.0188 168.173C12.6748 168.485 12.4508 168.925 12.3468 169.493H16.1748ZM21.0969 173.465C20.5369 173.465 20.0369 173.325 19.5969 173.045C19.1569 172.757 18.8129 172.361 18.5649 171.857C18.3249 171.353 18.2049 170.773 18.2049 170.117C18.2049 169.477 18.3249 168.909 18.5649 168.413C18.8129 167.909 19.1529 167.521 19.5849 167.249C20.0249 166.969 20.5249 166.829 21.0849 166.829C21.5569 166.829 21.9849 166.925 22.3689 167.117C22.7609 167.309 23.0729 167.577 23.3049 167.921V164.333H24.3009V173.333H23.5089L23.4009 172.109C23.1849 172.525 22.8729 172.857 22.4649 173.105C22.0649 173.345 21.6089 173.465 21.0969 173.465ZM19.2369 170.117C19.2369 170.597 19.3209 171.025 19.4889 171.401C19.6649 171.777 19.9049 172.073 20.2089 172.289C20.5129 172.497 20.8609 172.601 21.2529 172.601C21.6529 172.601 22.0089 172.497 22.3209 172.289C22.6329 172.073 22.8729 171.777 23.0409 171.401C23.2169 171.017 23.3049 170.581 23.3049 170.093C23.3049 169.621 23.2209 169.205 23.0529 168.845C22.8849 168.477 22.6489 168.193 22.3449 167.993C22.0409 167.785 21.6969 167.681 21.3129 167.681C20.9129 167.681 20.5529 167.785 20.2329 167.993C19.9209 168.193 19.6769 168.481 19.5009 168.857C19.3249 169.225 19.2369 169.645 19.2369 170.117ZM25.9703 166.973H26.9663V173.333H25.9703V166.973ZM25.7303 165.161C25.7303 164.953 25.8023 164.781 25.9463 164.645C26.0903 164.501 26.2663 164.429 26.4743 164.429C26.6823 164.429 26.8543 164.501 26.9903 164.645C27.1343 164.781 27.2063 164.953 27.2063 165.161C27.2063 165.369 27.1343 165.545 26.9903 165.689C26.8543 165.833 26.6823 165.905 26.4743 165.905C26.2663 165.905 26.0903 165.833 25.9463 165.689C25.8023 165.545 25.7303 165.369 25.7303 165.161ZM30.6473 173.429C29.9273 173.429 29.3513 173.257 28.9193 172.913C28.4953 172.569 28.2833 172.105 28.2833 171.521C28.2833 171.065 28.4073 170.709 28.6553 170.453C28.9113 170.189 29.2273 170.005 29.6033 169.901C29.9873 169.789 30.4433 169.705 30.9713 169.649L31.3673 169.613C31.8713 169.565 32.2313 169.509 32.4473 169.445C32.6713 169.381 32.7873 169.249 32.7953 169.049C32.7873 168.649 32.6313 168.321 32.3273 168.065C32.0313 167.809 31.6433 167.681 31.1633 167.681C30.6993 167.681 30.3033 167.801 29.9753 168.041C29.6553 168.273 29.4673 168.577 29.4113 168.953H28.4273C28.4673 168.545 28.6113 168.181 28.8593 167.861C29.1073 167.533 29.4313 167.281 29.8313 167.105C30.2393 166.921 30.6913 166.829 31.1873 166.829C31.7073 166.829 32.1593 166.925 32.5433 167.117C32.9353 167.309 33.2353 167.577 33.4433 167.921C33.6593 168.265 33.7673 168.661 33.7673 169.109V172.205C33.7673 172.413 33.8753 172.517 34.0913 172.517H34.4513V173.333H33.8873C33.5433 173.333 33.2833 173.257 33.1073 173.105C32.9313 172.953 32.8433 172.729 32.8433 172.433V172.241C32.6513 172.617 32.3713 172.909 32.0033 173.117C31.6353 173.325 31.1833 173.429 30.6473 173.429ZM29.2793 171.497C29.2793 171.825 29.4153 172.089 29.6873 172.289C29.9673 172.481 30.3353 172.577 30.7913 172.577C31.3833 172.577 31.8633 172.409 32.2313 172.073C32.6073 171.729 32.7953 171.293 32.7953 170.765V169.937C32.6753 170.105 32.4793 170.221 32.2073 170.285C31.9353 170.349 31.5433 170.409 31.0313 170.465C30.6553 170.505 30.3473 170.553 30.1073 170.609C29.8753 170.665 29.6793 170.765 29.5193 170.909C29.3593 171.045 29.2793 171.241 29.2793 171.497ZM35.568 166.973H36.36L36.456 167.945C36.672 167.601 36.976 167.329 37.368 167.129C37.768 166.929 38.2 166.829 38.664 166.829C39.352 166.829 39.904 167.037 40.32 167.453C40.736 167.869 40.944 168.425 40.944 169.121V173.333H39.948V169.157C39.948 168.709 39.812 168.357 39.54 168.101C39.268 167.837 38.892 167.705 38.412 167.705C37.86 167.705 37.416 167.873 37.08 168.209C36.744 168.545 36.572 168.965 36.564 169.469V173.333H35.568V166.973Z" fill="white"/>
<g opacity="0.3">
<rect x="83.8008" y="0.25" width="0.5" height="252.5" stroke="#445657" stroke-width="0.5" stroke-dasharray="8 8"/>
<rect x="135.9" y="0.25" width="0.5" height="252.5" stroke="#445657" stroke-width="0.5" stroke-dasharray="8 8"/>
<rect x="188" y="0.25" width="0.5" height="252.5" stroke="#445657" stroke-width="0.5" stroke-dasharray="8 8"/>
<rect x="240.102" y="0.25" width="0.5" height="252.5" stroke="#445657" stroke-width="0.5" stroke-dasharray="8 8"/>
<rect x="292.201" y="0.25" width="0.5" height="252.5" stroke="#445657" stroke-width="0.5" stroke-dasharray="8 8"/>
<rect x="344.301" y="0.25" width="0.5" height="252.5" stroke="#445657" stroke-width="0.5" stroke-dasharray="8 8"/>
<rect x="396.4" y="0.25" width="0.5" height="252.5" stroke="#445657" stroke-width="0.5" stroke-dasharray="8 8"/>
<rect x="448.5" y="0.25" width="0.5" height="252.5" stroke="#445657" stroke-width="0.5" stroke-dasharray="8 8"/>
<rect x="500.602" y="0.25" width="0.5" height="252.5" stroke="#445657" stroke-width="0.5" stroke-dasharray="8 8"/>
<rect x="552.701" y="0.25" width="0.5" height="252.5" stroke="#445657" stroke-width="0.5" stroke-dasharray="8 8"/>
</g>
<path d="M542 70C544.209 70 546 71.7909 546 74V116C546 118.209 544.209 120 542 120L58 120V70L542 70Z" fill="url(#paint0_linear_1190_6418)"/>
<rect x="59" y="148" width="50" height="2" transform="rotate(90 59 148)" fill="url(#paint1_linear_1190_6418)"/>
<path d="M86.4945 273.132C85.6465 273.132 84.9385 272.892 84.3705 272.412C83.8105 271.924 83.4865 271.276 83.3985 270.468H84.4425C84.5065 270.996 84.7265 271.42 85.1025 271.74C85.4785 272.052 85.9425 272.208 86.4945 272.208C87.0865 272.208 87.5625 272.028 87.9225 271.668C88.2905 271.308 88.4745 270.84 88.4745 270.264C88.4745 269.696 88.2945 269.232 87.9345 268.872C87.5745 268.512 87.1105 268.332 86.5425 268.332C85.9025 268.332 85.3225 268.608 84.8025 269.16H83.6865L84.3705 264.6H89.1345V265.524H85.2105L84.7785 268.356C85.3225 267.764 85.9985 267.468 86.8065 267.468C87.3265 267.468 87.7905 267.588 88.1985 267.828C88.6065 268.06 88.9225 268.388 89.1465 268.812C89.3785 269.236 89.4945 269.716 89.4945 270.252C89.4945 270.812 89.3665 271.312 89.1105 271.752C88.8625 272.184 88.5105 272.524 88.0545 272.772C87.6065 273.012 87.0865 273.132 86.4945 273.132ZM93.8693 273.132C93.2213 273.132 92.6533 272.956 92.1653 272.604C91.6853 272.244 91.3133 271.736 91.0493 271.08C90.7933 270.424 90.6653 269.656 90.6653 268.776C90.6653 267.904 90.7933 267.144 91.0493 266.496C91.3133 265.848 91.6853 265.348 92.1653 264.996C92.6533 264.644 93.2213 264.468 93.8693 264.468C94.5173 264.468 95.0813 264.644 95.5613 264.996C96.0493 265.348 96.4213 265.848 96.6773 266.496C96.9413 267.144 97.0733 267.904 97.0733 268.776C97.0733 269.656 96.9413 270.424 96.6773 271.08C96.4213 271.736 96.0493 272.244 95.5613 272.604C95.0813 272.956 94.5173 273.132 93.8693 273.132ZM91.6973 268.776C91.6973 269.464 91.7853 270.068 91.9613 270.588C92.1453 271.108 92.3973 271.508 92.7173 271.788C93.0453 272.068 93.4293 272.208 93.8693 272.208C94.3093 272.208 94.6893 272.068 95.0093 271.788C95.3373 271.508 95.5893 271.108 95.7653 270.588C95.9493 270.068 96.0413 269.464 96.0413 268.776C96.0413 268.096 95.9493 267.5 95.7653 266.988C95.5893 266.476 95.3373 266.084 95.0093 265.812C94.6893 265.532 94.3093 265.392 93.8693 265.392C93.4293 265.392 93.0453 265.532 92.7173 265.812C92.3973 266.084 92.1453 266.476 91.9613 266.988C91.7853 267.5 91.6973 268.096 91.6973 268.776ZM104.672 273.132C103.976 273.132 103.356 273.02 102.812 272.796C102.268 272.572 101.836 272.26 101.516 271.86C101.204 271.452 101.032 270.984 101 270.456H102.056C102.112 270.992 102.376 271.42 102.848 271.74C103.328 272.06 103.936 272.22 104.672 272.22C105.304 272.22 105.788 272.096 106.124 271.848C106.46 271.6 106.628 271.256 106.628 270.816C106.628 270.432 106.492 270.136 106.22 269.928C105.956 269.72 105.576 269.54 105.08 269.388L103.628 268.932C103.572 268.916 103.32 268.84 102.872 268.704C102.432 268.568 102.052 268.328 101.732 267.984C101.42 267.632 101.264 267.208 101.264 266.712C101.264 266.264 101.38 265.872 101.612 265.536C101.852 265.192 102.184 264.928 102.608 264.744C103.04 264.56 103.544 264.468 104.12 264.468C105.088 264.468 105.852 264.708 106.412 265.188C106.98 265.66 107.296 266.34 107.36 267.228H106.316C106.276 266.636 106.06 266.18 105.668 265.86C105.276 265.54 104.744 265.38 104.072 265.38C103.536 265.38 103.1 265.496 102.764 265.728C102.436 265.952 102.272 266.264 102.272 266.664C102.272 266.944 102.352 267.172 102.512 267.348C102.68 267.516 102.848 267.632 103.016 267.696C103.184 267.76 103.496 267.864 103.952 268.008L105.308 268.428C105.788 268.58 106.188 268.736 106.508 268.896C106.828 269.048 107.1 269.276 107.324 269.58C107.548 269.884 107.66 270.28 107.66 270.768C107.66 271.504 107.392 272.084 106.856 272.508C106.328 272.924 105.6 273.132 104.672 273.132ZM112.85 273.132C112.058 273.132 111.354 272.956 110.738 272.604C110.13 272.244 109.654 271.736 109.31 271.08C108.974 270.416 108.806 269.648 108.806 268.776C108.806 267.944 108.966 267.204 109.286 266.556C109.614 265.9 110.082 265.388 110.69 265.02C111.306 264.652 112.026 264.468 112.85 264.468C113.65 264.468 114.358 264.648 114.974 265.008C115.59 265.36 116.066 265.864 116.402 266.52C116.746 267.168 116.918 267.92 116.918 268.776C116.918 269.616 116.754 270.368 116.426 271.032C116.098 271.688 115.626 272.204 115.01 272.58C114.402 272.948 113.682 273.132 112.85 273.132ZM109.838 268.776C109.838 269.472 109.958 270.08 110.198 270.6C110.446 271.112 110.798 271.508 111.254 271.788C111.71 272.068 112.242 272.208 112.85 272.208C113.466 272.208 114.002 272.068 114.458 271.788C114.922 271.508 115.274 271.112 115.514 270.6C115.762 270.08 115.886 269.472 115.886 268.776C115.886 268.088 115.762 267.492 115.514 266.988C115.266 266.476 114.914 266.084 114.458 265.812C114.002 265.532 113.466 265.392 112.85 265.392C112.242 265.392 111.71 265.532 111.254 265.812C110.798 266.084 110.446 266.476 110.198 266.988C109.958 267.492 109.838 268.088 109.838 268.776ZM118.577 264.6H119.585V272.076H124.085V273H118.577V264.6Z" fill="white"/>
<path d="M146.154 266.46C145.762 266.988 145.122 267.252 144.234 267.252H144.09V266.268H144.234C144.866 266.268 145.346 266.136 145.674 265.872C146.002 265.608 146.166 265.224 146.166 264.72V264.6H147.162V273H146.154V266.46ZM152.024 273.132C151.376 273.132 150.808 272.956 150.32 272.604C149.84 272.244 149.468 271.736 149.204 271.08C148.948 270.424 148.82 269.656 148.82 268.776C148.82 267.904 148.948 267.144 149.204 266.496C149.468 265.848 149.84 265.348 150.32 264.996C150.808 264.644 151.376 264.468 152.024 264.468C152.672 264.468 153.236 264.644 153.716 264.996C154.204 265.348 154.576 265.848 154.832 266.496C155.096 267.144 155.228 267.904 155.228 268.776C155.228 269.656 155.096 270.424 154.832 271.08C154.576 271.736 154.204 272.244 153.716 272.604C153.236 272.956 152.672 273.132 152.024 273.132ZM149.852 268.776C149.852 269.464 149.94 270.068 150.116 270.588C150.3 271.108 150.552 271.508 150.872 271.788C151.2 272.068 151.584 272.208 152.024 272.208C152.464 272.208 152.844 272.068 153.164 271.788C153.492 271.508 153.744 271.108 153.92 270.588C154.104 270.068 154.196 269.464 154.196 268.776C154.196 268.096 154.104 267.5 153.92 266.988C153.744 266.476 153.492 266.084 153.164 265.812C152.844 265.532 152.464 265.392 152.024 265.392C151.584 265.392 151.2 265.532 150.872 265.812C150.552 266.084 150.3 266.476 150.116 266.988C149.94 267.5 149.852 268.096 149.852 268.776ZM159.699 273.132C159.051 273.132 158.483 272.956 157.995 272.604C157.515 272.244 157.143 271.736 156.879 271.08C156.623 270.424 156.495 269.656 156.495 268.776C156.495 267.904 156.623 267.144 156.879 266.496C157.143 265.848 157.515 265.348 157.995 264.996C158.483 264.644 159.051 264.468 159.699 264.468C160.347 264.468 160.911 264.644 161.391 264.996C161.879 265.348 162.251 265.848 162.507 266.496C162.771 267.144 162.903 267.904 162.903 268.776C162.903 269.656 162.771 270.424 162.507 271.08C162.251 271.736 161.879 272.244 161.391 272.604C160.911 272.956 160.347 273.132 159.699 273.132ZM157.527 268.776C157.527 269.464 157.615 270.068 157.791 270.588C157.975 271.108 158.227 271.508 158.547 271.788C158.875 272.068 159.259 272.208 159.699 272.208C160.139 272.208 160.519 272.068 160.839 271.788C161.167 271.508 161.419 271.108 161.595 270.588C161.779 270.068 161.871 269.464 161.871 268.776C161.871 268.096 161.779 267.5 161.595 266.988C161.419 266.476 161.167 266.084 160.839 265.812C160.519 265.532 160.139 265.392 159.699 265.392C159.259 265.392 158.875 265.532 158.547 265.812C158.227 266.084 157.975 266.476 157.791 266.988C157.615 267.5 157.527 268.096 157.527 268.776ZM170.502 273.132C169.806 273.132 169.186 273.02 168.642 272.796C168.098 272.572 167.666 272.26 167.346 271.86C167.034 271.452 166.862 270.984 166.83 270.456H167.886C167.942 270.992 168.206 271.42 168.678 271.74C169.158 272.06 169.766 272.22 170.502 272.22C171.134 272.22 171.618 272.096 171.954 271.848C172.29 271.6 172.458 271.256 172.458 270.816C172.458 270.432 172.322 270.136 172.05 269.928C171.786 269.72 171.406 269.54 170.91 269.388L169.458 268.932C169.402 268.916 169.15 268.84 168.702 268.704C168.262 268.568 167.882 268.328 167.562 267.984C167.25 267.632 167.094 267.208 167.094 266.712C167.094 266.264 167.21 265.872 167.442 265.536C167.682 265.192 168.014 264.928 168.438 264.744C168.87 264.56 169.374 264.468 169.95 264.468C170.918 264.468 171.682 264.708 172.242 265.188C172.81 265.66 173.126 266.34 173.19 267.228H172.146C172.106 266.636 171.89 266.18 171.498 265.86C171.106 265.54 170.574 265.38 169.902 265.38C169.366 265.38 168.93 265.496 168.594 265.728C168.266 265.952 168.102 266.264 168.102 266.664C168.102 266.944 168.182 267.172 168.342 267.348C168.51 267.516 168.678 267.632 168.846 267.696C169.014 267.76 169.326 267.864 169.782 268.008L171.138 268.428C171.618 268.58 172.018 268.736 172.338 268.896C172.658 269.048 172.93 269.276 173.154 269.58C173.378 269.884 173.49 270.28 173.49 270.768C173.49 271.504 173.222 272.084 172.686 272.508C172.158 272.924 171.43 273.132 170.502 273.132ZM178.68 273.132C177.888 273.132 177.184 272.956 176.568 272.604C175.96 272.244 175.484 271.736 175.14 271.08C174.804 270.416 174.636 269.648 174.636 268.776C174.636 267.944 174.796 267.204 175.116 266.556C175.444 265.9 175.912 265.388 176.52 265.02C177.136 264.652 177.856 264.468 178.68 264.468C179.48 264.468 180.188 264.648 180.804 265.008C181.42 265.36 181.896 265.864 182.232 266.52C182.576 267.168 182.748 267.92 182.748 268.776C182.748 269.616 182.584 270.368 182.256 271.032C181.928 271.688 181.456 272.204 180.84 272.58C180.232 272.948 179.512 273.132 178.68 273.132ZM175.668 268.776C175.668 269.472 175.788 270.08 176.028 270.6C176.276 271.112 176.628 271.508 177.084 271.788C177.54 272.068 178.072 272.208 178.68 272.208C179.296 272.208 179.832 272.068 180.288 271.788C180.752 271.508 181.104 271.112 181.344 270.6C181.592 270.08 181.716 269.472 181.716 268.776C181.716 268.088 181.592 267.492 181.344 266.988C181.096 266.476 180.744 266.084 180.288 265.812C179.832 265.532 179.296 265.392 178.68 265.392C178.072 265.392 177.54 265.532 177.084 265.812C176.628 266.084 176.276 266.476 176.028 266.988C175.788 267.492 175.668 268.088 175.668 268.776ZM184.407 264.6H185.415V272.076H189.915V273H184.407V264.6Z" fill="white"/>
<path d="M209.758 266.46C209.366 266.988 208.726 267.252 207.838 267.252H207.694V266.268H207.838C208.47 266.268 208.95 266.136 209.278 265.872C209.606 265.608 209.77 265.224 209.77 264.72V264.6H210.766V273H209.758V266.46ZM215.471 273.132C214.623 273.132 213.915 272.892 213.347 272.412C212.787 271.924 212.463 271.276 212.375 270.468H213.419C213.483 270.996 213.703 271.42 214.079 271.74C214.455 272.052 214.919 272.208 215.471 272.208C216.063 272.208 216.539 272.028 216.899 271.668C217.267 271.308 217.451 270.84 217.451 270.264C217.451 269.696 217.271 269.232 216.911 268.872C216.551 268.512 216.087 268.332 215.519 268.332C214.879 268.332 214.299 268.608 213.779 269.16H212.663L213.347 264.6H218.111V265.524H214.187L213.755 268.356C214.299 267.764 214.975 267.468 215.783 267.468C216.303 267.468 216.767 267.588 217.175 267.828C217.583 268.06 217.899 268.388 218.123 268.812C218.355 269.236 218.471 269.716 218.471 270.252C218.471 270.812 218.343 271.312 218.087 271.752C217.839 272.184 217.487 272.524 217.031 272.772C216.583 273.012 216.063 273.132 215.471 273.132ZM222.846 273.132C222.198 273.132 221.63 272.956 221.142 272.604C220.662 272.244 220.29 271.736 220.026 271.08C219.77 270.424 219.642 269.656 219.642 268.776C219.642 267.904 219.77 267.144 220.026 266.496C220.29 265.848 220.662 265.348 221.142 264.996C221.63 264.644 222.198 264.468 222.846 264.468C223.494 264.468 224.058 264.644 224.538 264.996C225.026 265.348 225.398 265.848 225.654 266.496C225.918 267.144 226.05 267.904 226.05 268.776C226.05 269.656 225.918 270.424 225.654 271.08C225.398 271.736 225.026 272.244 224.538 272.604C224.058 272.956 223.494 273.132 222.846 273.132ZM220.674 268.776C220.674 269.464 220.762 270.068 220.938 270.588C221.122 271.108 221.374 271.508 221.694 271.788C222.022 272.068 222.406 272.208 222.846 272.208C223.286 272.208 223.666 272.068 223.986 271.788C224.314 271.508 224.566 271.108 224.742 270.588C224.926 270.068 225.018 269.464 225.018 268.776C225.018 268.096 224.926 267.5 224.742 266.988C224.566 266.476 224.314 266.084 223.986 265.812C223.666 265.532 223.286 265.392 222.846 265.392C222.406 265.392 222.022 265.532 221.694 265.812C221.374 266.084 221.122 266.476 220.938 266.988C220.762 267.5 220.674 268.096 220.674 268.776ZM233.649 273.132C232.953 273.132 232.333 273.02 231.789 272.796C231.245 272.572 230.813 272.26 230.493 271.86C230.181 271.452 230.009 270.984 229.977 270.456H231.033C231.089 270.992 231.353 271.42 231.825 271.74C232.305 272.06 232.913 272.22 233.649 272.22C234.281 272.22 234.765 272.096 235.101 271.848C235.437 271.6 235.605 271.256 235.605 270.816C235.605 270.432 235.469 270.136 235.197 269.928C234.933 269.72 234.553 269.54 234.057 269.388L232.605 268.932C232.549 268.916 232.297 268.84 231.849 268.704C231.409 268.568 231.029 268.328 230.709 267.984C230.397 267.632 230.241 267.208 230.241 266.712C230.241 266.264 230.357 265.872 230.589 265.536C230.829 265.192 231.161 264.928 231.585 264.744C232.017 264.56 232.521 264.468 233.097 264.468C234.065 264.468 234.829 264.708 235.389 265.188C235.957 265.66 236.273 266.34 236.337 267.228H235.293C235.253 266.636 235.037 266.18 234.645 265.86C234.253 265.54 233.721 265.38 233.049 265.38C232.513 265.38 232.077 265.496 231.741 265.728C231.413 265.952 231.249 266.264 231.249 266.664C231.249 266.944 231.329 267.172 231.489 267.348C231.657 267.516 231.825 267.632 231.993 267.696C232.161 267.76 232.473 267.864 232.929 268.008L234.285 268.428C234.765 268.58 235.165 268.736 235.485 268.896C235.805 269.048 236.077 269.276 236.301 269.58C236.525 269.884 236.637 270.28 236.637 270.768C236.637 271.504 236.369 272.084 235.833 272.508C235.305 272.924 234.577 273.132 233.649 273.132ZM241.826 273.132C241.034 273.132 240.33 272.956 239.714 272.604C239.106 272.244 238.63 271.736 238.286 271.08C237.95 270.416 237.782 269.648 237.782 268.776C237.782 267.944 237.942 267.204 238.262 266.556C238.59 265.9 239.058 265.388 239.666 265.02C240.282 264.652 241.002 264.468 241.826 264.468C242.626 264.468 243.334 264.648 243.95 265.008C244.566 265.36 245.042 265.864 245.378 266.52C245.722 267.168 245.894 267.92 245.894 268.776C245.894 269.616 245.73 270.368 245.402 271.032C245.074 271.688 244.602 272.204 243.986 272.58C243.378 272.948 242.658 273.132 241.826 273.132ZM238.814 268.776C238.814 269.472 238.934 270.08 239.174 270.6C239.422 271.112 239.774 271.508 240.23 271.788C240.686 272.068 241.218 272.208 241.826 272.208C242.442 272.208 242.978 272.068 243.434 271.788C243.898 271.508 244.25 271.112 244.49 270.6C244.738 270.08 244.862 269.472 244.862 268.776C244.862 268.088 244.738 267.492 244.49 266.988C244.242 266.476 243.89 266.084 243.434 265.812C242.978 265.532 242.442 265.392 241.826 265.392C241.218 265.392 240.686 265.532 240.23 265.812C239.774 266.084 239.422 266.476 239.174 266.988C238.934 267.492 238.814 268.088 238.814 268.776ZM247.553 264.6H248.561V272.076H253.061V273H247.553V264.6Z" fill="white"/>
<path d="M270.083 272.208C270.083 271.696 270.195 271.252 270.419 270.876C270.651 270.5 270.927 270.188 271.247 269.94C271.575 269.692 272.007 269.412 272.543 269.1C272.999 268.828 273.355 268.6 273.611 268.416C273.867 268.232 274.079 268.012 274.247 267.756C274.423 267.5 274.511 267.208 274.511 266.88C274.511 266.432 274.363 266.072 274.067 265.8C273.771 265.528 273.375 265.392 272.879 265.392C272.327 265.392 271.871 265.568 271.511 265.92C271.151 266.264 270.967 266.76 270.959 267.408H269.903C269.935 266.784 270.083 266.252 270.347 265.812C270.611 265.372 270.963 265.04 271.403 264.816C271.843 264.584 272.339 264.468 272.891 264.468C273.419 264.468 273.883 264.568 274.283 264.768C274.691 264.968 275.003 265.252 275.219 265.62C275.443 265.988 275.555 266.408 275.555 266.88C275.555 267.344 275.447 267.748 275.231 268.092C275.015 268.428 274.755 268.712 274.451 268.944C274.147 269.168 273.735 269.428 273.215 269.724C272.759 269.988 272.391 270.22 272.111 270.42C271.839 270.612 271.611 270.848 271.427 271.128C271.243 271.4 271.151 271.716 271.151 272.076H275.435V273H270.083V272.208ZM279.951 273.132C279.303 273.132 278.735 272.956 278.247 272.604C277.767 272.244 277.395 271.736 277.131 271.08C276.875 270.424 276.747 269.656 276.747 268.776C276.747 267.904 276.875 267.144 277.131 266.496C277.395 265.848 277.767 265.348 278.247 264.996C278.735 264.644 279.303 264.468 279.951 264.468C280.599 264.468 281.163 264.644 281.643 264.996C282.131 265.348 282.503 265.848 282.759 266.496C283.023 267.144 283.155 267.904 283.155 268.776C283.155 269.656 283.023 270.424 282.759 271.08C282.503 271.736 282.131 272.244 281.643 272.604C281.163 272.956 280.599 273.132 279.951 273.132ZM277.779 268.776C277.779 269.464 277.867 270.068 278.043 270.588C278.227 271.108 278.479 271.508 278.799 271.788C279.127 272.068 279.511 272.208 279.951 272.208C280.391 272.208 280.771 272.068 281.091 271.788C281.419 271.508 281.671 271.108 281.847 270.588C282.031 270.068 282.123 269.464 282.123 268.776C282.123 268.096 282.031 267.5 281.847 266.988C281.671 266.476 281.419 266.084 281.091 265.812C280.771 265.532 280.391 265.392 279.951 265.392C279.511 265.392 279.127 265.532 278.799 265.812C278.479 266.084 278.227 266.476 278.043 266.988C277.867 267.5 277.779 268.096 277.779 268.776ZM287.627 273.132C286.979 273.132 286.411 272.956 285.923 272.604C285.443 272.244 285.071 271.736 284.807 271.08C284.551 270.424 284.423 269.656 284.423 268.776C284.423 267.904 284.551 267.144 284.807 266.496C285.071 265.848 285.443 265.348 285.923 264.996C286.411 264.644 286.979 264.468 287.627 264.468C288.275 264.468 288.839 264.644 289.319 264.996C289.807 265.348 290.179 265.848 290.435 266.496C290.699 267.144 290.831 267.904 290.831 268.776C290.831 269.656 290.699 270.424 290.435 271.08C290.179 271.736 289.807 272.244 289.319 272.604C288.839 272.956 288.275 273.132 287.627 273.132ZM285.455 268.776C285.455 269.464 285.543 270.068 285.719 270.588C285.903 271.108 286.155 271.508 286.475 271.788C286.803 272.068 287.187 272.208 287.627 272.208C288.067 272.208 288.447 272.068 288.767 271.788C289.095 271.508 289.347 271.108 289.523 270.588C289.707 270.068 289.799 269.464 289.799 268.776C289.799 268.096 289.707 267.5 289.523 266.988C289.347 266.476 289.095 266.084 288.767 265.812C288.447 265.532 288.067 265.392 287.627 265.392C287.187 265.392 286.803 265.532 286.475 265.812C286.155 266.084 285.903 266.476 285.719 266.988C285.543 267.5 285.455 268.096 285.455 268.776ZM298.43 273.132C297.734 273.132 297.114 273.02 296.57 272.796C296.026 272.572 295.594 272.26 295.274 271.86C294.962 271.452 294.79 270.984 294.758 270.456H295.814C295.87 270.992 296.134 271.42 296.606 271.74C297.086 272.06 297.694 272.22 298.43 272.22C299.062 272.22 299.546 272.096 299.882 271.848C300.218 271.6 300.386 271.256 300.386 270.816C300.386 270.432 300.25 270.136 299.978 269.928C299.714 269.72 299.334 269.54 298.838 269.388L297.386 268.932C297.33 268.916 297.078 268.84 296.63 268.704C296.19 268.568 295.81 268.328 295.49 267.984C295.178 267.632 295.022 267.208 295.022 266.712C295.022 266.264 295.138 265.872 295.37 265.536C295.61 265.192 295.942 264.928 296.366 264.744C296.798 264.56 297.302 264.468 297.878 264.468C298.846 264.468 299.61 264.708 300.17 265.188C300.738 265.66 301.054 266.34 301.118 267.228H300.074C300.034 266.636 299.818 266.18 299.426 265.86C299.034 265.54 298.502 265.38 297.83 265.38C297.294 265.38 296.858 265.496 296.522 265.728C296.194 265.952 296.03 266.264 296.03 266.664C296.03 266.944 296.11 267.172 296.27 267.348C296.438 267.516 296.606 267.632 296.774 267.696C296.942 267.76 297.254 267.864 297.71 268.008L299.066 268.428C299.546 268.58 299.946 268.736 300.266 268.896C300.586 269.048 300.858 269.276 301.082 269.58C301.306 269.884 301.418 270.28 301.418 270.768C301.418 271.504 301.15 272.084 300.614 272.508C300.086 272.924 299.358 273.132 298.43 273.132ZM306.608 273.132C305.816 273.132 305.112 272.956 304.496 272.604C303.888 272.244 303.412 271.736 303.068 271.08C302.732 270.416 302.564 269.648 302.564 268.776C302.564 267.944 302.724 267.204 303.044 266.556C303.372 265.9 303.84 265.388 304.448 265.02C305.064 264.652 305.784 264.468 306.608 264.468C307.408 264.468 308.116 264.648 308.732 265.008C309.348 265.36 309.824 265.864 310.16 266.52C310.504 267.168 310.676 267.92 310.676 268.776C310.676 269.616 310.512 270.368 310.184 271.032C309.856 271.688 309.384 272.204 308.768 272.58C308.16 272.948 307.44 273.132 306.608 273.132ZM303.596 268.776C303.596 269.472 303.716 270.08 303.956 270.6C304.204 271.112 304.556 271.508 305.012 271.788C305.468 272.068 306 272.208 306.608 272.208C307.224 272.208 307.76 272.068 308.216 271.788C308.68 271.508 309.032 271.112 309.272 270.6C309.52 270.08 309.644 269.472 309.644 268.776C309.644 268.088 309.52 267.492 309.272 266.988C309.024 266.476 308.672 266.084 308.216 265.812C307.76 265.532 307.224 265.392 306.608 265.392C306 265.392 305.468 265.532 305.012 265.812C304.556 266.084 304.204 266.476 303.956 266.988C303.716 267.492 303.596 268.088 303.596 268.776ZM312.334 264.6H313.342V272.076H317.842V273H312.334V264.6Z" fill="white"/>
<path d="M333.686 272.208C333.686 271.696 333.798 271.252 334.022 270.876C334.254 270.5 334.53 270.188 334.85 269.94C335.178 269.692 335.61 269.412 336.146 269.1C336.602 268.828 336.958 268.6 337.214 268.416C337.47 268.232 337.682 268.012 337.85 267.756C338.026 267.5 338.114 267.208 338.114 266.88C338.114 266.432 337.966 266.072 337.67 265.8C337.374 265.528 336.978 265.392 336.482 265.392C335.93 265.392 335.474 265.568 335.114 265.92C334.754 266.264 334.57 266.76 334.562 267.408H333.506C333.538 266.784 333.686 266.252 333.95 265.812C334.214 265.372 334.566 265.04 335.006 264.816C335.446 264.584 335.942 264.468 336.494 264.468C337.022 264.468 337.486 264.568 337.886 264.768C338.294 264.968 338.606 265.252 338.822 265.62C339.046 265.988 339.158 266.408 339.158 266.88C339.158 267.344 339.05 267.748 338.834 268.092C338.618 268.428 338.358 268.712 338.054 268.944C337.75 269.168 337.338 269.428 336.818 269.724C336.362 269.988 335.994 270.22 335.714 270.42C335.442 270.612 335.214 270.848 335.03 271.128C334.846 271.4 334.754 271.716 334.754 272.076H339.038V273H333.686V272.208ZM343.399 273.132C342.551 273.132 341.843 272.892 341.275 272.412C340.715 271.924 340.391 271.276 340.303 270.468H341.347C341.411 270.996 341.631 271.42 342.007 271.74C342.383 272.052 342.847 272.208 343.399 272.208C343.991 272.208 344.467 272.028 344.827 271.668C345.195 271.308 345.379 270.84 345.379 270.264C345.379 269.696 345.199 269.232 344.839 268.872C344.479 268.512 344.015 268.332 343.447 268.332C342.807 268.332 342.227 268.608 341.707 269.16H340.591L341.275 264.6H346.039V265.524H342.115L341.683 268.356C342.227 267.764 342.903 267.468 343.711 267.468C344.231 267.468 344.695 267.588 345.103 267.828C345.511 268.06 345.827 268.388 346.051 268.812C346.283 269.236 346.399 269.716 346.399 270.252C346.399 270.812 346.271 271.312 346.015 271.752C345.767 272.184 345.415 272.524 344.959 272.772C344.511 273.012 343.991 273.132 343.399 273.132ZM350.774 273.132C350.126 273.132 349.558 272.956 349.07 272.604C348.59 272.244 348.218 271.736 347.954 271.08C347.698 270.424 347.57 269.656 347.57 268.776C347.57 267.904 347.698 267.144 347.954 266.496C348.218 265.848 348.59 265.348 349.07 264.996C349.558 264.644 350.126 264.468 350.774 264.468C351.422 264.468 351.986 264.644 352.466 264.996C352.954 265.348 353.326 265.848 353.582 266.496C353.846 267.144 353.978 267.904 353.978 268.776C353.978 269.656 353.846 270.424 353.582 271.08C353.326 271.736 352.954 272.244 352.466 272.604C351.986 272.956 351.422 273.132 350.774 273.132ZM348.602 268.776C348.602 269.464 348.69 270.068 348.866 270.588C349.05 271.108 349.302 271.508 349.622 271.788C349.95 272.068 350.334 272.208 350.774 272.208C351.214 272.208 351.594 272.068 351.914 271.788C352.242 271.508 352.494 271.108 352.67 270.588C352.854 270.068 352.946 269.464 352.946 268.776C352.946 268.096 352.854 267.5 352.67 266.988C352.494 266.476 352.242 266.084 351.914 265.812C351.594 265.532 351.214 265.392 350.774 265.392C350.334 265.392 349.95 265.532 349.622 265.812C349.302 266.084 349.05 266.476 348.866 266.988C348.69 267.5 348.602 268.096 348.602 268.776ZM361.577 273.132C360.881 273.132 360.261 273.02 359.717 272.796C359.173 272.572 358.741 272.26 358.421 271.86C358.109 271.452 357.937 270.984 357.905 270.456H358.961C359.017 270.992 359.281 271.42 359.753 271.74C360.233 272.06 360.841 272.22 361.577 272.22C362.209 272.22 362.693 272.096 363.029 271.848C363.365 271.6 363.533 271.256 363.533 270.816C363.533 270.432 363.397 270.136 363.125 269.928C362.861 269.72 362.481 269.54 361.985 269.388L360.533 268.932C360.477 268.916 360.225 268.84 359.777 268.704C359.337 268.568 358.957 268.328 358.637 267.984C358.325 267.632 358.169 267.208 358.169 266.712C358.169 266.264 358.285 265.872 358.517 265.536C358.757 265.192 359.089 264.928 359.513 264.744C359.945 264.56 360.449 264.468 361.025 264.468C361.993 264.468 362.757 264.708 363.317 265.188C363.885 265.66 364.201 266.34 364.265 267.228H363.221C363.181 266.636 362.965 266.18 362.573 265.86C362.181 265.54 361.649 265.38 360.977 265.38C360.441 265.38 360.005 265.496 359.669 265.728C359.341 265.952 359.177 266.264 359.177 266.664C359.177 266.944 359.257 267.172 359.417 267.348C359.585 267.516 359.753 267.632 359.921 267.696C360.089 267.76 360.401 267.864 360.857 268.008L362.213 268.428C362.693 268.58 363.093 268.736 363.413 268.896C363.733 269.048 364.005 269.276 364.229 269.58C364.453 269.884 364.565 270.28 364.565 270.768C364.565 271.504 364.297 272.084 363.761 272.508C363.233 272.924 362.505 273.132 361.577 273.132ZM369.754 273.132C368.962 273.132 368.258 272.956 367.642 272.604C367.034 272.244 366.558 271.736 366.214 271.08C365.878 270.416 365.71 269.648 365.71 268.776C365.71 267.944 365.87 267.204 366.19 266.556C366.518 265.9 366.986 265.388 367.594 265.02C368.21 264.652 368.93 264.468 369.754 264.468C370.554 264.468 371.262 264.648 371.878 265.008C372.494 265.36 372.97 265.864 373.306 266.52C373.65 267.168 373.822 267.92 373.822 268.776C373.822 269.616 373.658 270.368 373.33 271.032C373.002 271.688 372.53 272.204 371.914 272.58C371.306 272.948 370.586 273.132 369.754 273.132ZM366.742 268.776C366.742 269.472 366.862 270.08 367.102 270.6C367.35 271.112 367.702 271.508 368.158 271.788C368.614 272.068 369.146 272.208 369.754 272.208C370.37 272.208 370.906 272.068 371.362 271.788C371.826 271.508 372.178 271.112 372.418 270.6C372.666 270.08 372.79 269.472 372.79 268.776C372.79 268.088 372.666 267.492 372.418 266.988C372.17 266.476 371.818 266.084 371.362 265.812C370.906 265.532 370.37 265.392 369.754 265.392C369.146 265.392 368.614 265.532 368.158 265.812C367.702 266.084 367.35 266.476 367.102 266.988C366.862 267.492 366.742 268.088 366.742 268.776ZM375.481 264.6H376.489V272.076H380.989V273H375.481V264.6Z" fill="white"/>
<path d="M399.586 273.132C398.962 273.132 398.406 273.02 397.918 272.796C397.438 272.564 397.054 272.236 396.766 271.812C396.486 271.388 396.33 270.892 396.298 270.324H397.342C397.382 270.9 397.602 271.36 398.002 271.704C398.41 272.04 398.942 272.208 399.598 272.208C400.198 272.208 400.678 272.064 401.038 271.776C401.398 271.48 401.578 271.092 401.578 270.612C401.578 270.14 401.398 269.772 401.038 269.508C400.686 269.236 400.194 269.1 399.562 269.1H398.434V268.272H399.562C400.058 268.272 400.462 268.14 400.774 267.876C401.094 267.612 401.254 267.268 401.254 266.844C401.254 266.42 401.094 266.072 400.774 265.8C400.462 265.528 400.054 265.392 399.55 265.392C399.03 265.392 398.59 265.548 398.23 265.86C397.87 266.164 397.65 266.572 397.57 267.084H396.526C396.638 266.284 396.97 265.648 397.522 265.176C398.082 264.704 398.778 264.468 399.61 264.468C400.122 264.468 400.578 264.56 400.978 264.744C401.386 264.928 401.702 265.188 401.926 265.524C402.15 265.852 402.262 266.224 402.262 266.64C402.262 267.12 402.118 267.536 401.83 267.888C401.542 268.24 401.162 268.48 400.69 268.608C401.29 268.744 401.754 268.996 402.082 269.364C402.41 269.732 402.574 270.184 402.574 270.72C402.574 271.192 402.45 271.612 402.202 271.98C401.954 272.34 401.602 272.624 401.146 272.832C400.698 273.032 400.178 273.132 399.586 273.132ZM406.936 273.132C406.288 273.132 405.72 272.956 405.232 272.604C404.752 272.244 404.38 271.736 404.116 271.08C403.86 270.424 403.732 269.656 403.732 268.776C403.732 267.904 403.86 267.144 404.116 266.496C404.38 265.848 404.752 265.348 405.232 264.996C405.72 264.644 406.288 264.468 406.936 264.468C407.584 264.468 408.148 264.644 408.628 264.996C409.116 265.348 409.488 265.848 409.744 266.496C410.008 267.144 410.14 267.904 410.14 268.776C410.14 269.656 410.008 270.424 409.744 271.08C409.488 271.736 409.116 272.244 408.628 272.604C408.148 272.956 407.584 273.132 406.936 273.132ZM404.764 268.776C404.764 269.464 404.852 270.068 405.028 270.588C405.212 271.108 405.464 271.508 405.784 271.788C406.112 272.068 406.496 272.208 406.936 272.208C407.376 272.208 407.756 272.068 408.076 271.788C408.404 271.508 408.656 271.108 408.832 270.588C409.016 270.068 409.108 269.464 409.108 268.776C409.108 268.096 409.016 267.5 408.832 266.988C408.656 266.476 408.404 266.084 408.076 265.812C407.756 265.532 407.376 265.392 406.936 265.392C406.496 265.392 406.112 265.532 405.784 265.812C405.464 266.084 405.212 266.476 405.028 266.988C404.852 267.5 404.764 268.096 404.764 268.776ZM414.611 273.132C413.963 273.132 413.395 272.956 412.907 272.604C412.427 272.244 412.055 271.736 411.791 271.08C411.535 270.424 411.407 269.656 411.407 268.776C411.407 267.904 411.535 267.144 411.791 266.496C412.055 265.848 412.427 265.348 412.907 264.996C413.395 264.644 413.963 264.468 414.611 264.468C415.259 264.468 415.823 264.644 416.303 264.996C416.791 265.348 417.163 265.848 417.419 266.496C417.683 267.144 417.815 267.904 417.815 268.776C417.815 269.656 417.683 270.424 417.419 271.08C417.163 271.736 416.791 272.244 416.303 272.604C415.823 272.956 415.259 273.132 414.611 273.132ZM412.439 268.776C412.439 269.464 412.527 270.068 412.703 270.588C412.887 271.108 413.139 271.508 413.459 271.788C413.787 272.068 414.171 272.208 414.611 272.208C415.051 272.208 415.431 272.068 415.751 271.788C416.079 271.508 416.331 271.108 416.507 270.588C416.691 270.068 416.783 269.464 416.783 268.776C416.783 268.096 416.691 267.5 416.507 266.988C416.331 266.476 416.079 266.084 415.751 265.812C415.431 265.532 415.051 265.392 414.611 265.392C414.171 265.392 413.787 265.532 413.459 265.812C413.139 266.084 412.887 266.476 412.703 266.988C412.527 267.5 412.439 268.096 412.439 268.776ZM425.415 273.132C424.719 273.132 424.099 273.02 423.555 272.796C423.011 272.572 422.579 272.26 422.259 271.86C421.947 271.452 421.775 270.984 421.743 270.456H422.799C422.855 270.992 423.119 271.42 423.591 271.74C424.071 272.06 424.679 272.22 425.415 272.22C426.047 272.22 426.531 272.096 426.867 271.848C427.203 271.6 427.371 271.256 427.371 270.816C427.371 270.432 427.235 270.136 426.963 269.928C426.699 269.72 426.319 269.54 425.823 269.388L424.371 268.932C424.315 268.916 424.063 268.84 423.615 268.704C423.175 268.568 422.795 268.328 422.475 267.984C422.163 267.632 422.007 267.208 422.007 266.712C422.007 266.264 422.123 265.872 422.355 265.536C422.595 265.192 422.927 264.928 423.351 264.744C423.783 264.56 424.287 264.468 424.863 264.468C425.831 264.468 426.595 264.708 427.155 265.188C427.723 265.66 428.039 266.34 428.103 267.228H427.059C427.019 266.636 426.803 266.18 426.411 265.86C426.019 265.54 425.487 265.38 424.815 265.38C424.279 265.38 423.843 265.496 423.507 265.728C423.179 265.952 423.015 266.264 423.015 266.664C423.015 266.944 423.095 267.172 423.255 267.348C423.423 267.516 423.591 267.632 423.759 267.696C423.927 267.76 424.239 267.864 424.695 268.008L426.051 268.428C426.531 268.58 426.931 268.736 427.251 268.896C427.571 269.048 427.843 269.276 428.067 269.58C428.291 269.884 428.403 270.28 428.403 270.768C428.403 271.504 428.135 272.084 427.599 272.508C427.071 272.924 426.343 273.132 425.415 273.132ZM433.592 273.132C432.8 273.132 432.096 272.956 431.48 272.604C430.872 272.244 430.396 271.736 430.052 271.08C429.716 270.416 429.548 269.648 429.548 268.776C429.548 267.944 429.708 267.204 430.028 266.556C430.356 265.9 430.824 265.388 431.432 265.02C432.048 264.652 432.768 264.468 433.592 264.468C434.392 264.468 435.1 264.648 435.716 265.008C436.332 265.36 436.808 265.864 437.144 266.52C437.488 267.168 437.66 267.92 437.66 268.776C437.66 269.616 437.496 270.368 437.168 271.032C436.84 271.688 436.368 272.204 435.752 272.58C435.144 272.948 434.424 273.132 433.592 273.132ZM430.58 268.776C430.58 269.472 430.7 270.08 430.94 270.6C431.188 271.112 431.54 271.508 431.996 271.788C432.452 272.068 432.984 272.208 433.592 272.208C434.208 272.208 434.744 272.068 435.2 271.788C435.664 271.508 436.016 271.112 436.256 270.6C436.504 270.08 436.628 269.472 436.628 268.776C436.628 268.088 436.504 267.492 436.256 266.988C436.008 266.476 435.656 266.084 435.2 265.812C434.744 265.532 434.208 265.392 433.592 265.392C432.984 265.392 432.452 265.532 431.996 265.812C431.54 266.084 431.188 266.476 430.94 266.988C430.7 267.492 430.58 268.088 430.58 268.776ZM439.319 264.6H440.327V272.076H444.827V273H439.319V264.6Z" fill="white"/>
<path d="M463.19 273.132C462.566 273.132 462.01 273.02 461.522 272.796C461.042 272.564 460.658 272.236 460.37 271.812C460.09 271.388 459.934 270.892 459.902 270.324H460.946C460.986 270.9 461.206 271.36 461.606 271.704C462.014 272.04 462.546 272.208 463.202 272.208C463.802 272.208 464.282 272.064 464.642 271.776C465.002 271.48 465.182 271.092 465.182 270.612C465.182 270.14 465.002 269.772 464.642 269.508C464.29 269.236 463.798 269.1 463.166 269.1H462.038V268.272H463.166C463.662 268.272 464.066 268.14 464.378 267.876C464.698 267.612 464.858 267.268 464.858 266.844C464.858 266.42 464.698 266.072 464.378 265.8C464.066 265.528 463.658 265.392 463.154 265.392C462.634 265.392 462.194 265.548 461.834 265.86C461.474 266.164 461.254 266.572 461.174 267.084H460.13C460.242 266.284 460.574 265.648 461.126 265.176C461.686 264.704 462.382 264.468 463.214 264.468C463.726 264.468 464.182 264.56 464.582 264.744C464.99 264.928 465.306 265.188 465.53 265.524C465.754 265.852 465.866 266.224 465.866 266.64C465.866 267.12 465.722 267.536 465.434 267.888C465.146 268.24 464.766 268.48 464.294 268.608C464.894 268.744 465.358 268.996 465.686 269.364C466.014 269.732 466.178 270.184 466.178 270.72C466.178 271.192 466.054 271.612 465.806 271.98C465.558 272.34 465.206 272.624 464.75 272.832C464.302 273.032 463.782 273.132 463.19 273.132ZM470.383 273.132C469.535 273.132 468.827 272.892 468.259 272.412C467.699 271.924 467.375 271.276 467.287 270.468H468.331C468.395 270.996 468.615 271.42 468.991 271.74C469.367 272.052 469.831 272.208 470.383 272.208C470.975 272.208 471.451 272.028 471.811 271.668C472.179 271.308 472.363 270.84 472.363 270.264C472.363 269.696 472.183 269.232 471.823 268.872C471.463 268.512 470.999 268.332 470.431 268.332C469.791 268.332 469.211 268.608 468.691 269.16H467.575L468.259 264.6H473.023V265.524H469.099L468.667 268.356C469.211 267.764 469.887 267.468 470.695 267.468C471.215 267.468 471.679 267.588 472.087 267.828C472.495 268.06 472.811 268.388 473.035 268.812C473.267 269.236 473.383 269.716 473.383 270.252C473.383 270.812 473.255 271.312 472.999 271.752C472.751 272.184 472.399 272.524 471.943 272.772C471.495 273.012 470.975 273.132 470.383 273.132ZM477.758 273.132C477.11 273.132 476.542 272.956 476.054 272.604C475.574 272.244 475.202 271.736 474.938 271.08C474.682 270.424 474.554 269.656 474.554 268.776C474.554 267.904 474.682 267.144 474.938 266.496C475.202 265.848 475.574 265.348 476.054 264.996C476.542 264.644 477.11 264.468 477.758 264.468C478.406 264.468 478.97 264.644 479.45 264.996C479.938 265.348 480.31 265.848 480.566 266.496C480.83 267.144 480.962 267.904 480.962 268.776C480.962 269.656 480.83 270.424 480.566 271.08C480.31 271.736 479.938 272.244 479.45 272.604C478.97 272.956 478.406 273.132 477.758 273.132ZM475.586 268.776C475.586 269.464 475.674 270.068 475.85 270.588C476.034 271.108 476.286 271.508 476.606 271.788C476.934 272.068 477.318 272.208 477.758 272.208C478.198 272.208 478.578 272.068 478.898 271.788C479.226 271.508 479.478 271.108 479.654 270.588C479.838 270.068 479.93 269.464 479.93 268.776C479.93 268.096 479.838 267.5 479.654 266.988C479.478 266.476 479.226 266.084 478.898 265.812C478.578 265.532 478.198 265.392 477.758 265.392C477.318 265.392 476.934 265.532 476.606 265.812C476.286 266.084 476.034 266.476 475.85 266.988C475.674 267.5 475.586 268.096 475.586 268.776ZM488.561 273.132C487.865 273.132 487.245 273.02 486.701 272.796C486.157 272.572 485.725 272.26 485.405 271.86C485.093 271.452 484.921 270.984 484.889 270.456H485.945C486.001 270.992 486.265 271.42 486.737 271.74C487.217 272.06 487.825 272.22 488.561 272.22C489.193 272.22 489.677 272.096 490.013 271.848C490.349 271.6 490.517 271.256 490.517 270.816C490.517 270.432 490.381 270.136 490.109 269.928C489.845 269.72 489.465 269.54 488.969 269.388L487.517 268.932C487.461 268.916 487.209 268.84 486.761 268.704C486.321 268.568 485.941 268.328 485.621 267.984C485.309 267.632 485.153 267.208 485.153 266.712C485.153 266.264 485.269 265.872 485.501 265.536C485.741 265.192 486.073 264.928 486.497 264.744C486.929 264.56 487.433 264.468 488.009 264.468C488.977 264.468 489.741 264.708 490.301 265.188C490.869 265.66 491.185 266.34 491.249 267.228H490.205C490.165 266.636 489.949 266.18 489.557 265.86C489.165 265.54 488.633 265.38 487.961 265.38C487.425 265.38 486.989 265.496 486.653 265.728C486.325 265.952 486.161 266.264 486.161 266.664C486.161 266.944 486.241 267.172 486.401 267.348C486.569 267.516 486.737 267.632 486.905 267.696C487.073 267.76 487.385 267.864 487.841 268.008L489.197 268.428C489.677 268.58 490.077 268.736 490.397 268.896C490.717 269.048 490.989 269.276 491.213 269.58C491.437 269.884 491.549 270.28 491.549 270.768C491.549 271.504 491.281 272.084 490.745 272.508C490.217 272.924 489.489 273.132 488.561 273.132ZM496.739 273.132C495.947 273.132 495.243 272.956 494.627 272.604C494.019 272.244 493.543 271.736 493.199 271.08C492.863 270.416 492.695 269.648 492.695 268.776C492.695 267.944 492.855 267.204 493.175 266.556C493.503 265.9 493.971 265.388 494.579 265.02C495.195 264.652 495.915 264.468 496.739 264.468C497.539 264.468 498.247 264.648 498.863 265.008C499.479 265.36 499.955 265.864 500.291 266.52C500.635 267.168 500.807 267.92 500.807 268.776C500.807 269.616 500.643 270.368 500.315 271.032C499.987 271.688 499.515 272.204 498.899 272.58C498.291 272.948 497.571 273.132 496.739 273.132ZM493.727 268.776C493.727 269.472 493.847 270.08 494.087 270.6C494.335 271.112 494.687 271.508 495.143 271.788C495.599 272.068 496.131 272.208 496.739 272.208C497.355 272.208 497.891 272.068 498.347 271.788C498.811 271.508 499.163 271.112 499.403 270.6C499.651 270.08 499.775 269.472 499.775 268.776C499.775 268.088 499.651 267.492 499.403 266.988C499.155 266.476 498.803 266.084 498.347 265.812C497.891 265.532 497.355 265.392 496.739 265.392C496.131 265.392 495.599 265.532 495.143 265.812C494.687 266.084 494.335 266.476 494.087 266.988C493.847 267.492 493.727 268.088 493.727 268.776ZM502.465 264.6H503.473V272.076H507.973V273H502.465V264.6Z" fill="white"/>
<path d="M527.136 270.9H522.972V270L527.124 264.6H528.144V269.976H529.62V270.9H528.144V273H527.136V270.9ZM527.136 269.976V266.004L524.076 269.976H527.136ZM533.762 273.132C533.114 273.132 532.546 272.956 532.058 272.604C531.578 272.244 531.206 271.736 530.942 271.08C530.686 270.424 530.558 269.656 530.558 268.776C530.558 267.904 530.686 267.144 530.942 266.496C531.206 265.848 531.578 265.348 532.058 264.996C532.546 264.644 533.114 264.468 533.762 264.468C534.41 264.468 534.974 264.644 535.454 264.996C535.942 265.348 536.314 265.848 536.57 266.496C536.834 267.144 536.966 267.904 536.966 268.776C536.966 269.656 536.834 270.424 536.57 271.08C536.314 271.736 535.942 272.244 535.454 272.604C534.974 272.956 534.41 273.132 533.762 273.132ZM531.59 268.776C531.59 269.464 531.678 270.068 531.854 270.588C532.038 271.108 532.29 271.508 532.61 271.788C532.938 272.068 533.322 272.208 533.762 272.208C534.202 272.208 534.582 272.068 534.902 271.788C535.23 271.508 535.482 271.108 535.658 270.588C535.842 270.068 535.934 269.464 535.934 268.776C535.934 268.096 535.842 267.5 535.658 266.988C535.482 266.476 535.23 266.084 534.902 265.812C534.582 265.532 534.202 265.392 533.762 265.392C533.322 265.392 532.938 265.532 532.61 265.812C532.29 266.084 532.038 266.476 531.854 266.988C531.678 267.5 531.59 268.096 531.59 268.776ZM541.438 273.132C540.79 273.132 540.222 272.956 539.734 272.604C539.254 272.244 538.882 271.736 538.618 271.08C538.362 270.424 538.234 269.656 538.234 268.776C538.234 267.904 538.362 267.144 538.618 266.496C538.882 265.848 539.254 265.348 539.734 264.996C540.222 264.644 540.79 264.468 541.438 264.468C542.086 264.468 542.65 264.644 543.13 264.996C543.618 265.348 543.99 265.848 544.246 266.496C544.51 267.144 544.642 267.904 544.642 268.776C544.642 269.656 544.51 270.424 544.246 271.08C543.99 271.736 543.618 272.244 543.13 272.604C542.65 272.956 542.086 273.132 541.438 273.132ZM539.266 268.776C539.266 269.464 539.354 270.068 539.53 270.588C539.714 271.108 539.966 271.508 540.286 271.788C540.614 272.068 540.998 272.208 541.438 272.208C541.878 272.208 542.258 272.068 542.578 271.788C542.906 271.508 543.158 271.108 543.334 270.588C543.518 270.068 543.61 269.464 543.61 268.776C543.61 268.096 543.518 267.5 543.334 266.988C543.158 266.476 542.906 266.084 542.578 265.812C542.258 265.532 541.878 265.392 541.438 265.392C540.998 265.392 540.614 265.532 540.286 265.812C539.966 266.084 539.714 266.476 539.53 266.988C539.354 267.5 539.266 268.096 539.266 268.776ZM552.241 273.132C551.545 273.132 550.925 273.02 550.381 272.796C549.837 272.572 549.405 272.26 549.085 271.86C548.773 271.452 548.601 270.984 548.569 270.456H549.625C549.681 270.992 549.945 271.42 550.417 271.74C550.897 272.06 551.505 272.22 552.241 272.22C552.873 272.22 553.357 272.096 553.693 271.848C554.029 271.6 554.197 271.256 554.197 270.816C554.197 270.432 554.061 270.136 553.789 269.928C553.525 269.72 553.145 269.54 552.649 269.388L551.197 268.932C551.141 268.916 550.889 268.84 550.441 268.704C550.001 268.568 549.621 268.328 549.301 267.984C548.989 267.632 548.833 267.208 548.833 266.712C548.833 266.264 548.949 265.872 549.181 265.536C549.421 265.192 549.753 264.928 550.177 264.744C550.609 264.56 551.113 264.468 551.689 264.468C552.657 264.468 553.421 264.708 553.981 265.188C554.549 265.66 554.865 266.34 554.929 267.228H553.885C553.845 266.636 553.629 266.18 553.237 265.86C552.845 265.54 552.313 265.38 551.641 265.38C551.105 265.38 550.669 265.496 550.333 265.728C550.005 265.952 549.841 266.264 549.841 266.664C549.841 266.944 549.921 267.172 550.081 267.348C550.249 267.516 550.417 267.632 550.585 267.696C550.753 267.76 551.065 267.864 551.521 268.008L552.877 268.428C553.357 268.58 553.757 268.736 554.077 268.896C554.397 269.048 554.669 269.276 554.893 269.58C555.117 269.884 555.229 270.28 555.229 270.768C555.229 271.504 554.961 272.084 554.425 272.508C553.897 272.924 553.169 273.132 552.241 273.132ZM560.418 273.132C559.626 273.132 558.922 272.956 558.306 272.604C557.698 272.244 557.222 271.736 556.878 271.08C556.542 270.416 556.374 269.648 556.374 268.776C556.374 267.944 556.534 267.204 556.854 266.556C557.182 265.9 557.65 265.388 558.258 265.02C558.874 264.652 559.594 264.468 560.418 264.468C561.218 264.468 561.926 264.648 562.542 265.008C563.158 265.36 563.634 265.864 563.97 266.52C564.314 267.168 564.486 267.92 564.486 268.776C564.486 269.616 564.322 270.368 563.994 271.032C563.666 271.688 563.194 272.204 562.578 272.58C561.97 272.948 561.25 273.132 560.418 273.132ZM557.406 268.776C557.406 269.472 557.526 270.08 557.766 270.6C558.014 271.112 558.366 271.508 558.822 271.788C559.278 272.068 559.81 272.208 560.418 272.208C561.034 272.208 561.57 272.068 562.026 271.788C562.49 271.508 562.842 271.112 563.082 270.6C563.33 270.08 563.454 269.472 563.454 268.776C563.454 268.088 563.33 267.492 563.082 266.988C562.834 266.476 562.482 266.084 562.026 265.812C561.57 265.532 561.034 265.392 560.418 265.392C559.81 265.392 559.278 265.532 558.822 265.812C558.366 266.084 558.014 266.476 557.766 266.988C557.526 267.492 557.406 268.088 557.406 268.776ZM566.145 264.6H567.153V272.076H571.653V273H566.145V264.6Z" fill="white"/>
<defs>
<linearGradient id="paint0_linear_1190_6418" x1="302" y1="70" x2="302" y2="120" gradientUnits="userSpaceOnUse">
<stop stop-color="#0C9790"/>
<stop offset="1" stop-color="#42D5CE"/>
</linearGradient>
<linearGradient id="paint1_linear_1190_6418" x1="59" y1="149" x2="109" y2="149" gradientUnits="userSpaceOnUse">
<stop stop-color="#0C9790"/>
<stop offset="1" stop-color="#42D5CE"/>
</linearGradient>
</defs>
</svg>
