<svg width="579" height="285" viewBox="0 0 579 285" fill="none" xmlns="http://www.w3.org/2000/svg">
<path d="M5.00923 19.9H0.845234V19L4.99723 13.6H6.01723V18.976H7.49323V19.9H6.01723V22H5.00923V19.9ZM5.00923 18.976V15.004L1.94923 18.976H5.00923ZM11.6349 22.132C10.9869 22.132 10.4189 21.956 9.93092 21.604C9.45092 21.244 9.07892 20.736 8.81492 20.08C8.55892 19.424 8.43092 18.656 8.43092 17.776C8.43092 16.904 8.55892 16.144 8.81492 15.496C9.07892 14.848 9.45092 14.348 9.93092 13.996C10.4189 13.644 10.9869 13.468 11.6349 13.468C12.2829 13.468 12.8469 13.644 13.3269 13.996C13.8149 14.348 14.1869 14.848 14.4429 15.496C14.7069 16.144 14.8389 16.904 14.8389 17.776C14.8389 18.656 14.7069 19.424 14.4429 20.08C14.1869 20.736 13.8149 21.244 13.3269 21.604C12.8469 21.956 12.2829 22.132 11.6349 22.132ZM9.46292 17.776C9.46292 18.464 9.55092 19.068 9.72692 19.588C9.91092 20.108 10.1629 20.508 10.4829 20.788C10.8109 21.068 11.1949 21.208 11.6349 21.208C12.0749 21.208 12.4549 21.068 12.7749 20.788C13.1029 20.508 13.3549 20.108 13.5309 19.588C13.7149 19.068 13.8069 18.464 13.8069 17.776C13.8069 17.096 13.7149 16.5 13.5309 15.988C13.3549 15.476 13.1029 15.084 12.7749 14.812C12.4549 14.532 12.0749 14.392 11.6349 14.392C11.1949 14.392 10.8109 14.532 10.4829 14.812C10.1629 15.084 9.91092 15.476 9.72692 15.988C9.55092 16.5 9.46292 17.096 9.46292 17.776ZM19.3107 22.132C18.6627 22.132 18.0947 21.956 17.6067 21.604C17.1267 21.244 16.7547 20.736 16.4907 20.08C16.2347 19.424 16.1067 18.656 16.1067 17.776C16.1067 16.904 16.2347 16.144 16.4907 15.496C16.7547 14.848 17.1267 14.348 17.6067 13.996C18.0947 13.644 18.6627 13.468 19.3107 13.468C19.9587 13.468 20.5227 13.644 21.0027 13.996C21.4907 14.348 21.8627 14.848 22.1187 15.496C22.3827 16.144 22.5147 16.904 22.5147 17.776C22.5147 18.656 22.3827 19.424 22.1187 20.08C21.8627 20.736 21.4907 21.244 21.0027 21.604C20.5227 21.956 19.9587 22.132 19.3107 22.132ZM17.1387 17.776C17.1387 18.464 17.2267 19.068 17.4027 19.588C17.5867 20.108 17.8387 20.508 18.1587 20.788C18.4867 21.068 18.8707 21.208 19.3107 21.208C19.7507 21.208 20.1307 21.068 20.4507 20.788C20.7787 20.508 21.0307 20.108 21.2067 19.588C21.3907 19.068 21.4827 18.464 21.4827 17.776C21.4827 17.096 21.3907 16.5 21.2067 15.988C21.0307 15.476 20.7787 15.084 20.4507 14.812C20.1307 14.532 19.7507 14.392 19.3107 14.392C18.8707 14.392 18.4867 14.532 18.1587 14.812C17.8387 15.084 17.5867 15.476 17.4027 15.988C17.2267 16.5 17.1387 17.096 17.1387 17.776ZM22.908 23.944L24.168 19.924L25.02 20.188L23.712 24.196L22.908 23.944ZM29.4474 22.132C28.7994 22.132 28.2314 21.956 27.7434 21.604C27.2634 21.244 26.8914 20.736 26.6274 20.08C26.3714 19.424 26.2434 18.656 26.2434 17.776C26.2434 16.904 26.3714 16.144 26.6274 15.496C26.8914 14.848 27.2634 14.348 27.7434 13.996C28.2314 13.644 28.7994 13.468 29.4474 13.468C30.0954 13.468 30.6594 13.644 31.1394 13.996C31.6274 14.348 31.9994 14.848 32.2554 15.496C32.5194 16.144 32.6514 16.904 32.6514 17.776C32.6514 18.656 32.5194 19.424 32.2554 20.08C31.9994 20.736 31.6274 21.244 31.1394 21.604C30.6594 21.956 30.0954 22.132 29.4474 22.132ZM27.2754 17.776C27.2754 18.464 27.3634 19.068 27.5394 19.588C27.7234 20.108 27.9754 20.508 28.2954 20.788C28.6234 21.068 29.0074 21.208 29.4474 21.208C29.8874 21.208 30.2674 21.068 30.5874 20.788C30.9154 20.508 31.1674 20.108 31.3434 19.588C31.5274 19.068 31.6194 18.464 31.6194 17.776C31.6194 17.096 31.5274 16.5 31.3434 15.988C31.1674 15.476 30.9154 15.084 30.5874 14.812C30.2674 14.532 29.8874 14.392 29.4474 14.392C29.0074 14.392 28.6234 14.532 28.2954 14.812C27.9754 15.084 27.7234 15.476 27.5394 15.988C27.3634 16.5 27.2754 17.096 27.2754 17.776ZM37.1232 22.132C36.4752 22.132 35.9072 21.956 35.4192 21.604C34.9392 21.244 34.5672 20.736 34.3032 20.08C34.0472 19.424 33.9192 18.656 33.9192 17.776C33.9192 16.904 34.0472 16.144 34.3032 15.496C34.5672 14.848 34.9392 14.348 35.4192 13.996C35.9072 13.644 36.4752 13.468 37.1232 13.468C37.7712 13.468 38.3352 13.644 38.8152 13.996C39.3032 14.348 39.6752 14.848 39.9312 15.496C40.1952 16.144 40.3272 16.904 40.3272 17.776C40.3272 18.656 40.1952 19.424 39.9312 20.08C39.6752 20.736 39.3032 21.244 38.8152 21.604C38.3352 21.956 37.7712 22.132 37.1232 22.132ZM34.9512 17.776C34.9512 18.464 35.0392 19.068 35.2152 19.588C35.3992 20.108 35.6512 20.508 35.9712 20.788C36.2992 21.068 36.6832 21.208 37.1232 21.208C37.5632 21.208 37.9432 21.068 38.2632 20.788C38.5912 20.508 38.8432 20.108 39.0192 19.588C39.2032 19.068 39.2952 18.464 39.2952 17.776C39.2952 17.096 39.2032 16.5 39.0192 15.988C38.8432 15.476 38.5912 15.084 38.2632 14.812C37.9432 14.532 37.5632 14.392 37.1232 14.392C36.6832 14.392 36.2992 14.532 35.9712 14.812C35.6512 15.084 35.3992 15.476 35.2152 15.988C35.0392 16.5 34.9512 17.096 34.9512 17.776ZM44.799 22.132C44.151 22.132 43.583 21.956 43.095 21.604C42.615 21.244 42.243 20.736 41.979 20.08C41.723 19.424 41.595 18.656 41.595 17.776C41.595 16.904 41.723 16.144 41.979 15.496C42.243 14.848 42.615 14.348 43.095 13.996C43.583 13.644 44.151 13.468 44.799 13.468C45.447 13.468 46.011 13.644 46.491 13.996C46.979 14.348 47.351 14.848 47.607 15.496C47.871 16.144 48.003 16.904 48.003 17.776C48.003 18.656 47.871 19.424 47.607 20.08C47.351 20.736 46.979 21.244 46.491 21.604C46.011 21.956 45.447 22.132 44.799 22.132ZM42.627 17.776C42.627 18.464 42.715 19.068 42.891 19.588C43.075 20.108 43.327 20.508 43.647 20.788C43.975 21.068 44.359 21.208 44.799 21.208C45.239 21.208 45.619 21.068 45.939 20.788C46.267 20.508 46.519 20.108 46.695 19.588C46.879 19.068 46.971 18.464 46.971 17.776C46.971 17.096 46.879 16.5 46.695 15.988C46.519 15.476 46.267 15.084 45.939 14.812C45.619 14.532 45.239 14.392 44.799 14.392C44.359 14.392 43.975 14.532 43.647 14.812C43.327 15.084 43.075 15.476 42.891 15.988C42.715 16.5 42.627 17.096 42.627 17.776Z" fill="white"/>
<path d="M4.20941 78.882C3.58541 78.882 3.02941 78.77 2.54141 78.546C2.06141 78.314 1.67741 77.986 1.38941 77.562C1.10941 77.138 0.953406 76.642 0.921406 76.074H1.96541C2.00541 76.65 2.22541 77.11 2.62541 77.454C3.03341 77.79 3.56541 77.958 4.22141 77.958C4.82141 77.958 5.30141 77.814 5.66141 77.526C6.02141 77.23 6.20141 76.842 6.20141 76.362C6.20141 75.89 6.02141 75.522 5.66141 75.258C5.30941 74.986 4.81741 74.85 4.18541 74.85H3.05741V74.022H4.18541C4.68141 74.022 5.08541 73.89 5.39741 73.626C5.71741 73.362 5.87741 73.018 5.87741 72.594C5.87741 72.17 5.71741 71.822 5.39741 71.55C5.08541 71.278 4.67741 71.142 4.17341 71.142C3.65341 71.142 3.21341 71.298 2.85341 71.61C2.49341 71.914 2.27341 72.322 2.19341 72.834H1.14941C1.26141 72.034 1.59341 71.398 2.14541 70.926C2.70541 70.454 3.40141 70.218 4.23341 70.218C4.74541 70.218 5.20141 70.31 5.60141 70.494C6.00941 70.678 6.32541 70.938 6.54941 71.274C6.77341 71.602 6.88541 71.974 6.88541 72.39C6.88541 72.87 6.74141 73.286 6.45341 73.638C6.16541 73.99 5.78541 74.23 5.31341 74.358C5.91341 74.494 6.37741 74.746 6.70541 75.114C7.03341 75.482 7.19741 75.934 7.19741 76.47C7.19741 76.942 7.07341 77.362 6.82541 77.73C6.57741 78.09 6.22541 78.374 5.76941 78.582C5.32141 78.782 4.80141 78.882 4.20941 78.882ZM11.5588 78.882C10.9108 78.882 10.3428 78.706 9.85475 78.354C9.37475 77.994 9.00275 77.486 8.73875 76.83C8.48275 76.174 8.35475 75.406 8.35475 74.526C8.35475 73.654 8.48275 72.894 8.73875 72.246C9.00275 71.598 9.37475 71.098 9.85475 70.746C10.3428 70.394 10.9108 70.218 11.5588 70.218C12.2068 70.218 12.7708 70.394 13.2508 70.746C13.7388 71.098 14.1108 71.598 14.3668 72.246C14.6308 72.894 14.7628 73.654 14.7628 74.526C14.7628 75.406 14.6308 76.174 14.3668 76.83C14.1108 77.486 13.7388 77.994 13.2508 78.354C12.7708 78.706 12.2068 78.882 11.5588 78.882ZM9.38675 74.526C9.38675 75.214 9.47475 75.818 9.65075 76.338C9.83475 76.858 10.0868 77.258 10.4068 77.538C10.7348 77.818 11.1188 77.958 11.5588 77.958C11.9988 77.958 12.3788 77.818 12.6988 77.538C13.0268 77.258 13.2788 76.858 13.4548 76.338C13.6388 75.818 13.7308 75.214 13.7308 74.526C13.7308 73.846 13.6388 73.25 13.4548 72.738C13.2788 72.226 13.0268 71.834 12.6988 71.562C12.3788 71.282 11.9988 71.142 11.5588 71.142C11.1188 71.142 10.7348 71.282 10.4068 71.562C10.0868 71.834 9.83475 72.226 9.65075 72.738C9.47475 73.25 9.38675 73.846 9.38675 74.526ZM19.2345 78.882C18.5865 78.882 18.0185 78.706 17.5305 78.354C17.0505 77.994 16.6785 77.486 16.4145 76.83C16.1585 76.174 16.0305 75.406 16.0305 74.526C16.0305 73.654 16.1585 72.894 16.4145 72.246C16.6785 71.598 17.0505 71.098 17.5305 70.746C18.0185 70.394 18.5865 70.218 19.2345 70.218C19.8825 70.218 20.4465 70.394 20.9265 70.746C21.4145 71.098 21.7865 71.598 22.0425 72.246C22.3065 72.894 22.4385 73.654 22.4385 74.526C22.4385 75.406 22.3065 76.174 22.0425 76.83C21.7865 77.486 21.4145 77.994 20.9265 78.354C20.4465 78.706 19.8825 78.882 19.2345 78.882ZM17.0625 74.526C17.0625 75.214 17.1505 75.818 17.3265 76.338C17.5105 76.858 17.7625 77.258 18.0825 77.538C18.4105 77.818 18.7945 77.958 19.2345 77.958C19.6745 77.958 20.0545 77.818 20.3745 77.538C20.7025 77.258 20.9545 76.858 21.1305 76.338C21.3145 75.818 21.4065 75.214 21.4065 74.526C21.4065 73.846 21.3145 73.25 21.1305 72.738C20.9545 72.226 20.7025 71.834 20.3745 71.562C20.0545 71.282 19.6745 71.142 19.2345 71.142C18.7945 71.142 18.4105 71.282 18.0825 71.562C17.7625 71.834 17.5105 72.226 17.3265 72.738C17.1505 73.25 17.0625 73.846 17.0625 74.526ZM22.8318 80.694L24.0918 76.674L24.9438 76.938L23.6358 80.946L22.8318 80.694ZM29.3713 78.882C28.7233 78.882 28.1553 78.706 27.6673 78.354C27.1873 77.994 26.8153 77.486 26.5513 76.83C26.2953 76.174 26.1673 75.406 26.1673 74.526C26.1673 73.654 26.2953 72.894 26.5513 72.246C26.8153 71.598 27.1873 71.098 27.6673 70.746C28.1553 70.394 28.7233 70.218 29.3713 70.218C30.0193 70.218 30.5833 70.394 31.0633 70.746C31.5513 71.098 31.9233 71.598 32.1793 72.246C32.4433 72.894 32.5753 73.654 32.5753 74.526C32.5753 75.406 32.4433 76.174 32.1793 76.83C31.9233 77.486 31.5513 77.994 31.0633 78.354C30.5833 78.706 30.0193 78.882 29.3713 78.882ZM27.1993 74.526C27.1993 75.214 27.2873 75.818 27.4633 76.338C27.6473 76.858 27.8993 77.258 28.2193 77.538C28.5473 77.818 28.9313 77.958 29.3713 77.958C29.8113 77.958 30.1913 77.818 30.5113 77.538C30.8393 77.258 31.0913 76.858 31.2673 76.338C31.4513 75.818 31.5433 75.214 31.5433 74.526C31.5433 73.846 31.4513 73.25 31.2673 72.738C31.0913 72.226 30.8393 71.834 30.5113 71.562C30.1913 71.282 29.8113 71.142 29.3713 71.142C28.9313 71.142 28.5473 71.282 28.2193 71.562C27.8993 71.834 27.6473 72.226 27.4633 72.738C27.2873 73.25 27.1993 73.846 27.1993 74.526ZM37.047 78.882C36.399 78.882 35.831 78.706 35.343 78.354C34.863 77.994 34.491 77.486 34.227 76.83C33.971 76.174 33.843 75.406 33.843 74.526C33.843 73.654 33.971 72.894 34.227 72.246C34.491 71.598 34.863 71.098 35.343 70.746C35.831 70.394 36.399 70.218 37.047 70.218C37.695 70.218 38.259 70.394 38.739 70.746C39.227 71.098 39.599 71.598 39.855 72.246C40.119 72.894 40.251 73.654 40.251 74.526C40.251 75.406 40.119 76.174 39.855 76.83C39.599 77.486 39.227 77.994 38.739 78.354C38.259 78.706 37.695 78.882 37.047 78.882ZM34.875 74.526C34.875 75.214 34.963 75.818 35.139 76.338C35.323 76.858 35.575 77.258 35.895 77.538C36.223 77.818 36.607 77.958 37.047 77.958C37.487 77.958 37.867 77.818 38.187 77.538C38.515 77.258 38.767 76.858 38.943 76.338C39.127 75.818 39.219 75.214 39.219 74.526C39.219 73.846 39.127 73.25 38.943 72.738C38.767 72.226 38.515 71.834 38.187 71.562C37.867 71.282 37.487 71.142 37.047 71.142C36.607 71.142 36.223 71.282 35.895 71.562C35.575 71.834 35.323 72.226 35.139 72.738C34.963 73.25 34.875 73.846 34.875 74.526ZM44.7228 78.882C44.0748 78.882 43.5068 78.706 43.0188 78.354C42.5388 77.994 42.1668 77.486 41.9028 76.83C41.6468 76.174 41.5188 75.406 41.5188 74.526C41.5188 73.654 41.6468 72.894 41.9028 72.246C42.1668 71.598 42.5388 71.098 43.0188 70.746C43.5068 70.394 44.0748 70.218 44.7228 70.218C45.3708 70.218 45.9348 70.394 46.4148 70.746C46.9028 71.098 47.2748 71.598 47.5308 72.246C47.7948 72.894 47.9268 73.654 47.9268 74.526C47.9268 75.406 47.7948 76.174 47.5308 76.83C47.2748 77.486 46.9028 77.994 46.4148 78.354C45.9348 78.706 45.3708 78.882 44.7228 78.882ZM42.5508 74.526C42.5508 75.214 42.6388 75.818 42.8148 76.338C42.9988 76.858 43.2508 77.258 43.5708 77.538C43.8988 77.818 44.2828 77.958 44.7228 77.958C45.1628 77.958 45.5428 77.818 45.8628 77.538C46.1908 77.258 46.4428 76.858 46.6188 76.338C46.8028 75.818 46.8948 75.214 46.8948 74.526C46.8948 73.846 46.8028 73.25 46.6188 72.738C46.4428 72.226 46.1908 71.834 45.8628 71.562C45.5428 71.282 45.1628 71.142 44.7228 71.142C44.2828 71.142 43.8988 71.282 43.5708 71.562C43.2508 71.834 42.9988 72.226 42.8148 72.738C42.6388 73.25 42.5508 73.846 42.5508 74.526Z" fill="white"/>
<path d="M0.955781 134.708C0.955781 134.196 1.06778 133.752 1.29178 133.376C1.52378 133 1.79978 132.688 2.11978 132.44C2.44778 132.192 2.87978 131.912 3.41578 131.6C3.87178 131.328 4.22778 131.1 4.48378 130.916C4.73978 130.732 4.95178 130.512 5.11978 130.256C5.29578 130 5.38378 129.708 5.38378 129.38C5.38378 128.932 5.23578 128.572 4.93978 128.3C4.64378 128.028 4.24778 127.892 3.75178 127.892C3.19978 127.892 2.74378 128.068 2.38378 128.42C2.02378 128.764 1.83978 129.26 1.83178 129.908H0.775781C0.807781 129.284 0.955781 128.752 1.21978 128.312C1.48378 127.872 1.83578 127.54 2.27578 127.316C2.71578 127.084 3.21178 126.968 3.76378 126.968C4.29178 126.968 4.75578 127.068 5.15578 127.268C5.56378 127.468 5.87578 127.752 6.09178 128.12C6.31578 128.488 6.42778 128.908 6.42778 129.38C6.42778 129.844 6.31978 130.248 6.10378 130.592C5.88778 130.928 5.62778 131.212 5.32378 131.444C5.01978 131.668 4.60778 131.928 4.08778 132.224C3.63178 132.488 3.26378 132.72 2.98378 132.92C2.71178 133.112 2.48378 133.348 2.29978 133.628C2.11578 133.9 2.02378 134.216 2.02378 134.576H6.30778V135.5H0.955781V134.708ZM10.8244 135.632C10.1764 135.632 9.60838 135.456 9.12038 135.104C8.64038 134.744 8.26838 134.236 8.00438 133.58C7.74838 132.924 7.62038 132.156 7.62038 131.276C7.62038 130.404 7.74838 129.644 8.00438 128.996C8.26838 128.348 8.64038 127.848 9.12038 127.496C9.60838 127.144 10.1764 126.968 10.8244 126.968C11.4724 126.968 12.0364 127.144 12.5164 127.496C13.0044 127.848 13.3764 128.348 13.6324 128.996C13.8964 129.644 14.0284 130.404 14.0284 131.276C14.0284 132.156 13.8964 132.924 13.6324 133.58C13.3764 134.236 13.0044 134.744 12.5164 135.104C12.0364 135.456 11.4724 135.632 10.8244 135.632ZM8.65238 131.276C8.65238 131.964 8.74038 132.568 8.91638 133.088C9.10038 133.608 9.35238 134.008 9.67238 134.288C10.0004 134.568 10.3844 134.708 10.8244 134.708C11.2644 134.708 11.6444 134.568 11.9644 134.288C12.2924 134.008 12.5444 133.608 12.7204 133.088C12.9044 132.568 12.9964 131.964 12.9964 131.276C12.9964 130.596 12.9044 130 12.7204 129.488C12.5444 128.976 12.2924 128.584 11.9644 128.312C11.6444 128.032 11.2644 127.892 10.8244 127.892C10.3844 127.892 10.0004 128.032 9.67238 128.312C9.35238 128.584 9.10038 128.976 8.91638 129.488C8.74038 130 8.65238 130.596 8.65238 131.276ZM18.5002 135.632C17.8522 135.632 17.2842 135.456 16.7962 135.104C16.3162 134.744 15.9442 134.236 15.6802 133.58C15.4242 132.924 15.2962 132.156 15.2962 131.276C15.2962 130.404 15.4242 129.644 15.6802 128.996C15.9442 128.348 16.3162 127.848 16.7962 127.496C17.2842 127.144 17.8522 126.968 18.5002 126.968C19.1482 126.968 19.7122 127.144 20.1922 127.496C20.6802 127.848 21.0522 128.348 21.3082 128.996C21.5722 129.644 21.7042 130.404 21.7042 131.276C21.7042 132.156 21.5722 132.924 21.3082 133.58C21.0522 134.236 20.6802 134.744 20.1922 135.104C19.7122 135.456 19.1482 135.632 18.5002 135.632ZM16.3282 131.276C16.3282 131.964 16.4162 132.568 16.5922 133.088C16.7762 133.608 17.0282 134.008 17.3482 134.288C17.6762 134.568 18.0602 134.708 18.5002 134.708C18.9402 134.708 19.3202 134.568 19.6402 134.288C19.9682 134.008 20.2202 133.608 20.3962 133.088C20.5802 132.568 20.6722 131.964 20.6722 131.276C20.6722 130.596 20.5802 130 20.3962 129.488C20.2202 128.976 19.9682 128.584 19.6402 128.312C19.3202 128.032 18.9402 127.892 18.5002 127.892C18.0602 127.892 17.6762 128.032 17.3482 128.312C17.0282 128.584 16.7762 128.976 16.5922 129.488C16.4162 130 16.3282 130.596 16.3282 131.276ZM22.0974 137.444L23.3574 133.424L24.2094 133.688L22.9014 137.696L22.0974 137.444ZM28.6369 135.632C27.9889 135.632 27.4209 135.456 26.9329 135.104C26.4529 134.744 26.0809 134.236 25.8169 133.58C25.5609 132.924 25.4329 132.156 25.4329 131.276C25.4329 130.404 25.5609 129.644 25.8169 128.996C26.0809 128.348 26.4529 127.848 26.9329 127.496C27.4209 127.144 27.9889 126.968 28.6369 126.968C29.2849 126.968 29.8489 127.144 30.3289 127.496C30.8169 127.848 31.1889 128.348 31.4449 128.996C31.7089 129.644 31.8409 130.404 31.8409 131.276C31.8409 132.156 31.7089 132.924 31.4449 133.58C31.1889 134.236 30.8169 134.744 30.3289 135.104C29.8489 135.456 29.2849 135.632 28.6369 135.632ZM26.4649 131.276C26.4649 131.964 26.5529 132.568 26.7289 133.088C26.9129 133.608 27.1649 134.008 27.4849 134.288C27.8129 134.568 28.1969 134.708 28.6369 134.708C29.0769 134.708 29.4569 134.568 29.7769 134.288C30.1049 134.008 30.3569 133.608 30.5329 133.088C30.7169 132.568 30.8089 131.964 30.8089 131.276C30.8089 130.596 30.7169 130 30.5329 129.488C30.3569 128.976 30.1049 128.584 29.7769 128.312C29.4569 128.032 29.0769 127.892 28.6369 127.892C28.1969 127.892 27.8129 128.032 27.4849 128.312C27.1649 128.584 26.9129 128.976 26.7289 129.488C26.5529 130 26.4649 130.596 26.4649 131.276ZM36.3127 135.632C35.6647 135.632 35.0967 135.456 34.6087 135.104C34.1287 134.744 33.7567 134.236 33.4927 133.58C33.2367 132.924 33.1087 132.156 33.1087 131.276C33.1087 130.404 33.2367 129.644 33.4927 128.996C33.7567 128.348 34.1287 127.848 34.6087 127.496C35.0967 127.144 35.6647 126.968 36.3127 126.968C36.9607 126.968 37.5247 127.144 38.0047 127.496C38.4927 127.848 38.8647 128.348 39.1207 128.996C39.3847 129.644 39.5167 130.404 39.5167 131.276C39.5167 132.156 39.3847 132.924 39.1207 133.58C38.8647 134.236 38.4927 134.744 38.0047 135.104C37.5247 135.456 36.9607 135.632 36.3127 135.632ZM34.1407 131.276C34.1407 131.964 34.2287 132.568 34.4047 133.088C34.5887 133.608 34.8407 134.008 35.1607 134.288C35.4887 134.568 35.8727 134.708 36.3127 134.708C36.7527 134.708 37.1327 134.568 37.4527 134.288C37.7807 134.008 38.0327 133.608 38.2087 133.088C38.3927 132.568 38.4847 131.964 38.4847 131.276C38.4847 130.596 38.3927 130 38.2087 129.488C38.0327 128.976 37.7807 128.584 37.4527 128.312C37.1327 128.032 36.7527 127.892 36.3127 127.892C35.8727 127.892 35.4887 128.032 35.1607 128.312C34.8407 128.584 34.5887 128.976 34.4047 129.488C34.2287 130 34.1407 130.596 34.1407 131.276ZM43.9884 135.632C43.3404 135.632 42.7724 135.456 42.2844 135.104C41.8044 134.744 41.4324 134.236 41.1684 133.58C40.9124 132.924 40.7844 132.156 40.7844 131.276C40.7844 130.404 40.9124 129.644 41.1684 128.996C41.4324 128.348 41.8044 127.848 42.2844 127.496C42.7724 127.144 43.3404 126.968 43.9884 126.968C44.6364 126.968 45.2004 127.144 45.6804 127.496C46.1684 127.848 46.5404 128.348 46.7964 128.996C47.0604 129.644 47.1924 130.404 47.1924 131.276C47.1924 132.156 47.0604 132.924 46.7964 133.58C46.5404 134.236 46.1684 134.744 45.6804 135.104C45.2004 135.456 44.6364 135.632 43.9884 135.632ZM41.8164 131.276C41.8164 131.964 41.9044 132.568 42.0804 133.088C42.2644 133.608 42.5164 134.008 42.8364 134.288C43.1644 134.568 43.5484 134.708 43.9884 134.708C44.4284 134.708 44.8084 134.568 45.1284 134.288C45.4564 134.008 45.7084 133.608 45.8844 133.088C46.0684 132.568 46.1604 131.964 46.1604 131.276C46.1604 130.596 46.0684 130 45.8844 129.488C45.7084 128.976 45.4564 128.584 45.1284 128.312C44.8084 128.032 44.4284 127.892 43.9884 127.892C43.5484 127.892 43.1644 128.032 42.8364 128.312C42.5164 128.584 42.2644 128.976 42.0804 129.488C41.9044 130 41.8164 130.596 41.8164 131.276Z" fill="white"/>
<path d="M2.77752 185.71C2.38552 186.238 1.74552 186.502 0.857516 186.502H0.713516V185.518H0.857516C1.48952 185.518 1.96952 185.386 2.29752 185.122C2.62552 184.858 2.78952 184.474 2.78952 183.97V183.85H3.78552V192.25H2.77752V185.71ZM8.64664 192.382C7.99864 192.382 7.43064 192.206 6.94264 191.854C6.46264 191.494 6.09064 190.986 5.82664 190.33C5.57064 189.674 5.44264 188.906 5.44264 188.026C5.44264 187.154 5.57064 186.394 5.82664 185.746C6.09064 185.098 6.46264 184.598 6.94264 184.246C7.43064 183.894 7.99864 183.718 8.64664 183.718C9.29464 183.718 9.85864 183.894 10.3386 184.246C10.8266 184.598 11.1986 185.098 11.4546 185.746C11.7186 186.394 11.8506 187.154 11.8506 188.026C11.8506 188.906 11.7186 189.674 11.4546 190.33C11.1986 190.986 10.8266 191.494 10.3386 191.854C9.85864 192.206 9.29464 192.382 8.64664 192.382ZM6.47464 188.026C6.47464 188.714 6.56264 189.318 6.73864 189.838C6.92264 190.358 7.17464 190.758 7.49464 191.038C7.82264 191.318 8.20664 191.458 8.64664 191.458C9.08664 191.458 9.46664 191.318 9.78664 191.038C10.1146 190.758 10.3666 190.358 10.5426 189.838C10.7266 189.318 10.8186 188.714 10.8186 188.026C10.8186 187.346 10.7266 186.75 10.5426 186.238C10.3666 185.726 10.1146 185.334 9.78664 185.062C9.46664 184.782 9.08664 184.642 8.64664 184.642C8.20664 184.642 7.82264 184.782 7.49464 185.062C7.17464 185.334 6.92264 185.726 6.73864 186.238C6.56264 186.75 6.47464 187.346 6.47464 188.026ZM16.3224 192.382C15.6744 192.382 15.1064 192.206 14.6184 191.854C14.1384 191.494 13.7664 190.986 13.5024 190.33C13.2464 189.674 13.1184 188.906 13.1184 188.026C13.1184 187.154 13.2464 186.394 13.5024 185.746C13.7664 185.098 14.1384 184.598 14.6184 184.246C15.1064 183.894 15.6744 183.718 16.3224 183.718C16.9704 183.718 17.5344 183.894 18.0144 184.246C18.5024 184.598 18.8744 185.098 19.1304 185.746C19.3944 186.394 19.5264 187.154 19.5264 188.026C19.5264 188.906 19.3944 189.674 19.1304 190.33C18.8744 190.986 18.5024 191.494 18.0144 191.854C17.5344 192.206 16.9704 192.382 16.3224 192.382ZM14.1504 188.026C14.1504 188.714 14.2384 189.318 14.4144 189.838C14.5984 190.358 14.8504 190.758 15.1704 191.038C15.4984 191.318 15.8824 191.458 16.3224 191.458C16.7624 191.458 17.1424 191.318 17.4624 191.038C17.7904 190.758 18.0424 190.358 18.2184 189.838C18.4024 189.318 18.4944 188.714 18.4944 188.026C18.4944 187.346 18.4024 186.75 18.2184 186.238C18.0424 185.726 17.7904 185.334 17.4624 185.062C17.1424 184.782 16.7624 184.642 16.3224 184.642C15.8824 184.642 15.4984 184.782 15.1704 185.062C14.8504 185.334 14.5984 185.726 14.4144 186.238C14.2384 186.75 14.1504 187.346 14.1504 188.026ZM19.9197 194.194L21.1797 190.174L22.0317 190.438L20.7237 194.446L19.9197 194.194ZM26.4591 192.382C25.8111 192.382 25.2431 192.206 24.7551 191.854C24.2751 191.494 23.9031 190.986 23.6391 190.33C23.3831 189.674 23.2551 188.906 23.2551 188.026C23.2551 187.154 23.3831 186.394 23.6391 185.746C23.9031 185.098 24.2751 184.598 24.7551 184.246C25.2431 183.894 25.8111 183.718 26.4591 183.718C27.1071 183.718 27.6711 183.894 28.1511 184.246C28.6391 184.598 29.0111 185.098 29.2671 185.746C29.5311 186.394 29.6631 187.154 29.6631 188.026C29.6631 188.906 29.5311 189.674 29.2671 190.33C29.0111 190.986 28.6391 191.494 28.1511 191.854C27.6711 192.206 27.1071 192.382 26.4591 192.382ZM24.2871 188.026C24.2871 188.714 24.3751 189.318 24.5511 189.838C24.7351 190.358 24.9871 190.758 25.3071 191.038C25.6351 191.318 26.0191 191.458 26.4591 191.458C26.8991 191.458 27.2791 191.318 27.5991 191.038C27.9271 190.758 28.1791 190.358 28.3551 189.838C28.5391 189.318 28.6311 188.714 28.6311 188.026C28.6311 187.346 28.5391 186.75 28.3551 186.238C28.1791 185.726 27.9271 185.334 27.5991 185.062C27.2791 184.782 26.8991 184.642 26.4591 184.642C26.0191 184.642 25.6351 184.782 25.3071 185.062C24.9871 185.334 24.7351 185.726 24.5511 186.238C24.3751 186.75 24.2871 187.346 24.2871 188.026ZM34.1349 192.382C33.4869 192.382 32.9189 192.206 32.4309 191.854C31.9509 191.494 31.5789 190.986 31.3149 190.33C31.0589 189.674 30.9309 188.906 30.9309 188.026C30.9309 187.154 31.0589 186.394 31.3149 185.746C31.5789 185.098 31.9509 184.598 32.4309 184.246C32.9189 183.894 33.4869 183.718 34.1349 183.718C34.7829 183.718 35.3469 183.894 35.8269 184.246C36.3149 184.598 36.6869 185.098 36.9429 185.746C37.2069 186.394 37.3389 187.154 37.3389 188.026C37.3389 188.906 37.2069 189.674 36.9429 190.33C36.6869 190.986 36.3149 191.494 35.8269 191.854C35.3469 192.206 34.7829 192.382 34.1349 192.382ZM31.9629 188.026C31.9629 188.714 32.0509 189.318 32.2269 189.838C32.4109 190.358 32.6629 190.758 32.9829 191.038C33.3109 191.318 33.6949 191.458 34.1349 191.458C34.5749 191.458 34.9549 191.318 35.2749 191.038C35.6029 190.758 35.8549 190.358 36.0309 189.838C36.2149 189.318 36.3069 188.714 36.3069 188.026C36.3069 187.346 36.2149 186.75 36.0309 186.238C35.8549 185.726 35.6029 185.334 35.2749 185.062C34.9549 184.782 34.5749 184.642 34.1349 184.642C33.6949 184.642 33.3109 184.782 32.9829 185.062C32.6629 185.334 32.4109 185.726 32.2269 186.238C32.0509 186.75 31.9629 187.346 31.9629 188.026ZM41.8107 192.382C41.1627 192.382 40.5947 192.206 40.1067 191.854C39.6267 191.494 39.2547 190.986 38.9907 190.33C38.7347 189.674 38.6067 188.906 38.6067 188.026C38.6067 187.154 38.7347 186.394 38.9907 185.746C39.2547 185.098 39.6267 184.598 40.1067 184.246C40.5947 183.894 41.1627 183.718 41.8107 183.718C42.4587 183.718 43.0227 183.894 43.5027 184.246C43.9907 184.598 44.3627 185.098 44.6187 185.746C44.8827 186.394 45.0147 187.154 45.0147 188.026C45.0147 188.906 44.8827 189.674 44.6187 190.33C44.3627 190.986 43.9907 191.494 43.5027 191.854C43.0227 192.206 42.4587 192.382 41.8107 192.382ZM39.6387 188.026C39.6387 188.714 39.7267 189.318 39.9027 189.838C40.0867 190.358 40.3387 190.758 40.6587 191.038C40.9867 191.318 41.3707 191.458 41.8107 191.458C42.2507 191.458 42.6307 191.318 42.9507 191.038C43.2787 190.758 43.5307 190.358 43.7067 189.838C43.8907 189.318 43.9827 188.714 43.9827 188.026C43.9827 187.346 43.8907 186.75 43.7067 186.238C43.5307 185.726 43.2787 185.334 42.9507 185.062C42.6307 184.782 42.2507 184.642 41.8107 184.642C41.3707 184.642 40.9867 184.782 40.6587 185.062C40.3387 185.334 40.0867 185.726 39.9027 186.238C39.7267 186.75 39.6387 187.346 39.6387 188.026Z" fill="white"/>
<path d="M4.00211 249.132C3.35411 249.132 2.78611 248.956 2.29811 248.604C1.81811 248.244 1.44611 247.736 1.18211 247.08C0.926109 246.424 0.798109 245.656 0.798109 244.776C0.798109 243.904 0.926109 243.144 1.18211 242.496C1.44611 241.848 1.81811 241.348 2.29811 240.996C2.78611 240.644 3.35411 240.468 4.00211 240.468C4.65011 240.468 5.21411 240.644 5.69411 240.996C6.18211 241.348 6.55411 241.848 6.81011 242.496C7.07411 243.144 7.20611 243.904 7.20611 244.776C7.20611 245.656 7.07411 246.424 6.81011 247.08C6.55411 247.736 6.18211 248.244 5.69411 248.604C5.21411 248.956 4.65011 249.132 4.00211 249.132ZM1.83011 244.776C1.83011 245.464 1.91811 246.068 2.09411 246.588C2.27811 247.108 2.53011 247.508 2.85011 247.788C3.17811 248.068 3.56211 248.208 4.00211 248.208C4.44211 248.208 4.82211 248.068 5.14211 247.788C5.47011 247.508 5.72211 247.108 5.89811 246.588C6.08211 246.068 6.17411 245.464 6.17411 244.776C6.17411 244.096 6.08211 243.5 5.89811 242.988C5.72211 242.476 5.47011 242.084 5.14211 241.812C4.82211 241.532 4.44211 241.392 4.00211 241.392C3.56211 241.392 3.17811 241.532 2.85011 241.812C2.53011 242.084 2.27811 242.476 2.09411 242.988C1.91811 243.5 1.83011 244.096 1.83011 244.776Z" fill="white"/>
<g opacity="0.3">
<rect x="82.8496" y="0.25" width="0.5" height="252.5" stroke="#445657" stroke-width="0.5" stroke-dasharray="8 8"/>
<rect x="135.049" y="0.25" width="0.5" height="252.5" stroke="#445657" stroke-width="0.5" stroke-dasharray="8 8"/>
<rect x="187.25" y="0.25" width="0.5" height="252.5" stroke="#445657" stroke-width="0.5" stroke-dasharray="8 8"/>
<rect x="239.449" y="0.25" width="0.5" height="252.5" stroke="#445657" stroke-width="0.5" stroke-dasharray="8 8"/>
<rect x="291.65" y="0.25" width="0.5" height="252.5" stroke="#445657" stroke-width="0.5" stroke-dasharray="8 8"/>
<rect x="343.85" y="0.25" width="0.5" height="252.5" stroke="#445657" stroke-width="0.5" stroke-dasharray="8 8"/>
<rect x="396.049" y="0.25" width="0.5" height="252.5" stroke="#445657" stroke-width="0.5" stroke-dasharray="8 8"/>
<rect x="448.25" y="0.25" width="0.5" height="252.5" stroke="#445657" stroke-width="0.5" stroke-dasharray="8 8"/>
<rect x="500.449" y="0.25" width="0.5" height="252.5" stroke="#445657" stroke-width="0.5" stroke-dasharray="8 8"/>
<rect x="552.65" y="0.25" width="0.5" height="252.5" stroke="#445657" stroke-width="0.5" stroke-dasharray="8 8"/>
</g>
<path d="M109 3.99999C109 1.79085 110.791 0 113 0H155C157.209 0 159 1.79086 159 4V253H109V3.99999Z" fill="url(#paint0_linear_1190_6370)"/>
<path d="M233 182C233 179.791 234.791 178 237 178H279C281.209 178 283 179.791 283 182V253H233V182Z" fill="url(#paint1_linear_1190_6370)"/>
<path d="M365 242C365 239.791 366.791 238 369 238H411C413.209 238 415 239.791 415 242V253H365V242Z" fill="url(#paint2_linear_1190_6370)"/>
<path d="M475 253C475 251.895 475.895 251 477 251H523C524.105 251 525 251.895 525 253H475Z" fill="url(#paint3_linear_1190_6370)"/>
<path d="M115.233 273.132C114.585 273.132 114.017 272.956 113.529 272.604C113.049 272.244 112.677 271.736 112.413 271.08C112.157 270.424 112.029 269.656 112.029 268.776C112.029 267.904 112.157 267.144 112.413 266.496C112.677 265.848 113.049 265.348 113.529 264.996C114.017 264.644 114.585 264.468 115.233 264.468C115.881 264.468 116.445 264.644 116.925 264.996C117.413 265.348 117.785 265.848 118.041 266.496C118.305 267.144 118.437 267.904 118.437 268.776C118.437 269.656 118.305 270.424 118.041 271.08C117.785 271.736 117.413 272.244 116.925 272.604C116.445 272.956 115.881 273.132 115.233 273.132ZM113.061 268.776C113.061 269.464 113.149 270.068 113.325 270.588C113.509 271.108 113.761 271.508 114.081 271.788C114.409 272.068 114.793 272.208 115.233 272.208C115.673 272.208 116.053 272.068 116.373 271.788C116.701 271.508 116.953 271.108 117.129 270.588C117.313 270.068 117.405 269.464 117.405 268.776C117.405 268.096 117.313 267.5 117.129 266.988C116.953 266.476 116.701 266.084 116.373 265.812C116.053 265.532 115.673 265.392 115.233 265.392C114.793 265.392 114.409 265.532 114.081 265.812C113.761 266.084 113.509 266.476 113.325 266.988C113.149 267.5 113.061 268.096 113.061 268.776ZM119.608 268.848H124.744V269.688H119.608V268.848ZM128.963 273.132C128.115 273.132 127.407 272.892 126.839 272.412C126.279 271.924 125.955 271.276 125.867 270.468H126.911C126.975 270.996 127.195 271.42 127.571 271.74C127.947 272.052 128.411 272.208 128.963 272.208C129.555 272.208 130.031 272.028 130.391 271.668C130.759 271.308 130.943 270.84 130.943 270.264C130.943 269.696 130.763 269.232 130.403 268.872C130.043 268.512 129.579 268.332 129.011 268.332C128.371 268.332 127.791 268.608 127.271 269.16H126.155L126.839 264.6H131.603V265.524H127.679L127.247 268.356C127.791 267.764 128.467 267.468 129.275 267.468C129.795 267.468 130.259 267.588 130.667 267.828C131.075 268.06 131.391 268.388 131.615 268.812C131.847 269.236 131.963 269.716 131.963 270.252C131.963 270.812 131.835 271.312 131.579 271.752C131.331 272.184 130.979 272.524 130.523 272.772C130.075 273.012 129.555 273.132 128.963 273.132ZM139.465 273.132C138.769 273.132 138.149 273.02 137.605 272.796C137.061 272.572 136.629 272.26 136.309 271.86C135.997 271.452 135.825 270.984 135.793 270.456H136.849C136.905 270.992 137.169 271.42 137.641 271.74C138.121 272.06 138.729 272.22 139.465 272.22C140.097 272.22 140.581 272.096 140.917 271.848C141.253 271.6 141.421 271.256 141.421 270.816C141.421 270.432 141.285 270.136 141.013 269.928C140.749 269.72 140.369 269.54 139.873 269.388L138.421 268.932C138.365 268.916 138.113 268.84 137.665 268.704C137.225 268.568 136.845 268.328 136.525 267.984C136.213 267.632 136.057 267.208 136.057 266.712C136.057 266.264 136.173 265.872 136.405 265.536C136.645 265.192 136.977 264.928 137.401 264.744C137.833 264.56 138.337 264.468 138.913 264.468C139.881 264.468 140.645 264.708 141.205 265.188C141.773 265.66 142.089 266.34 142.153 267.228H141.109C141.069 266.636 140.853 266.18 140.461 265.86C140.069 265.54 139.537 265.38 138.865 265.38C138.329 265.38 137.893 265.496 137.557 265.728C137.229 265.952 137.065 266.264 137.065 266.664C137.065 266.944 137.145 267.172 137.305 267.348C137.473 267.516 137.641 267.632 137.809 267.696C137.977 267.76 138.289 267.864 138.745 268.008L140.101 268.428C140.581 268.58 140.981 268.736 141.301 268.896C141.621 269.048 141.893 269.276 142.117 269.58C142.341 269.884 142.453 270.28 142.453 270.768C142.453 271.504 142.185 272.084 141.649 272.508C141.121 272.924 140.393 273.132 139.465 273.132ZM147.643 273.132C146.851 273.132 146.147 272.956 145.531 272.604C144.923 272.244 144.447 271.736 144.103 271.08C143.767 270.416 143.599 269.648 143.599 268.776C143.599 267.944 143.759 267.204 144.079 266.556C144.407 265.9 144.875 265.388 145.483 265.02C146.099 264.652 146.819 264.468 147.643 264.468C148.443 264.468 149.151 264.648 149.767 265.008C150.383 265.36 150.859 265.864 151.195 266.52C151.539 267.168 151.711 267.92 151.711 268.776C151.711 269.616 151.547 270.368 151.219 271.032C150.891 271.688 150.419 272.204 149.803 272.58C149.195 272.948 148.475 273.132 147.643 273.132ZM144.631 268.776C144.631 269.472 144.751 270.08 144.991 270.6C145.239 271.112 145.591 271.508 146.047 271.788C146.503 272.068 147.035 272.208 147.643 272.208C148.259 272.208 148.795 272.068 149.251 271.788C149.715 271.508 150.067 271.112 150.307 270.6C150.555 270.08 150.679 269.472 150.679 268.776C150.679 268.088 150.555 267.492 150.307 266.988C150.059 266.476 149.707 266.084 149.251 265.812C148.795 265.532 148.259 265.392 147.643 265.392C147.035 265.392 146.503 265.532 146.047 265.812C145.591 266.084 145.239 266.476 144.991 266.988C144.751 267.492 144.631 268.088 144.631 268.776ZM153.37 264.6H154.378V272.076H158.878V273H153.37V264.6Z" fill="white"/>
<path d="M234.379 273.132C233.531 273.132 232.823 272.892 232.255 272.412C231.695 271.924 231.371 271.276 231.283 270.468H232.327C232.391 270.996 232.611 271.42 232.987 271.74C233.363 272.052 233.827 272.208 234.379 272.208C234.971 272.208 235.447 272.028 235.807 271.668C236.175 271.308 236.359 270.84 236.359 270.264C236.359 269.696 236.179 269.232 235.819 268.872C235.459 268.512 234.995 268.332 234.427 268.332C233.787 268.332 233.207 268.608 232.687 269.16H231.571L232.255 264.6H237.019V265.524H233.095L232.663 268.356C233.207 267.764 233.883 267.468 234.691 267.468C235.211 267.468 235.675 267.588 236.083 267.828C236.491 268.06 236.807 268.388 237.031 268.812C237.263 269.236 237.379 269.716 237.379 270.252C237.379 270.812 237.251 271.312 236.995 271.752C236.747 272.184 236.395 272.524 235.939 272.772C235.491 273.012 234.971 273.132 234.379 273.132ZM238.454 268.848H243.59V269.688H238.454V268.848ZM247.809 273.132C246.961 273.132 246.253 272.892 245.685 272.412C245.125 271.924 244.801 271.276 244.713 270.468H245.757C245.821 270.996 246.041 271.42 246.417 271.74C246.793 272.052 247.257 272.208 247.809 272.208C248.401 272.208 248.877 272.028 249.237 271.668C249.605 271.308 249.789 270.84 249.789 270.264C249.789 269.696 249.609 269.232 249.249 268.872C248.889 268.512 248.425 268.332 247.857 268.332C247.217 268.332 246.637 268.608 246.117 269.16H245.001L245.685 264.6H250.449V265.524H246.525L246.093 268.356C246.637 267.764 247.313 267.468 248.121 267.468C248.641 267.468 249.105 267.588 249.513 267.828C249.921 268.06 250.237 268.388 250.461 268.812C250.693 269.236 250.809 269.716 250.809 270.252C250.809 270.812 250.681 271.312 250.425 271.752C250.177 272.184 249.825 272.524 249.369 272.772C248.921 273.012 248.401 273.132 247.809 273.132ZM255.184 273.132C254.536 273.132 253.968 272.956 253.48 272.604C253 272.244 252.628 271.736 252.364 271.08C252.108 270.424 251.98 269.656 251.98 268.776C251.98 267.904 252.108 267.144 252.364 266.496C252.628 265.848 253 265.348 253.48 264.996C253.968 264.644 254.536 264.468 255.184 264.468C255.832 264.468 256.396 264.644 256.876 264.996C257.364 265.348 257.736 265.848 257.992 266.496C258.256 267.144 258.388 267.904 258.388 268.776C258.388 269.656 258.256 270.424 257.992 271.08C257.736 271.736 257.364 272.244 256.876 272.604C256.396 272.956 255.832 273.132 255.184 273.132ZM253.012 268.776C253.012 269.464 253.1 270.068 253.276 270.588C253.46 271.108 253.712 271.508 254.032 271.788C254.36 272.068 254.744 272.208 255.184 272.208C255.624 272.208 256.004 272.068 256.324 271.788C256.652 271.508 256.904 271.108 257.08 270.588C257.264 270.068 257.356 269.464 257.356 268.776C257.356 268.096 257.264 267.5 257.08 266.988C256.904 266.476 256.652 266.084 256.324 265.812C256.004 265.532 255.624 265.392 255.184 265.392C254.744 265.392 254.36 265.532 254.032 265.812C253.712 266.084 253.46 266.476 253.276 266.988C253.1 267.5 253.012 268.096 253.012 268.776ZM262.86 273.132C262.212 273.132 261.644 272.956 261.156 272.604C260.676 272.244 260.304 271.736 260.04 271.08C259.784 270.424 259.656 269.656 259.656 268.776C259.656 267.904 259.784 267.144 260.04 266.496C260.304 265.848 260.676 265.348 261.156 264.996C261.644 264.644 262.212 264.468 262.86 264.468C263.508 264.468 264.072 264.644 264.552 264.996C265.04 265.348 265.412 265.848 265.668 266.496C265.932 267.144 266.064 267.904 266.064 268.776C266.064 269.656 265.932 270.424 265.668 271.08C265.412 271.736 265.04 272.244 264.552 272.604C264.072 272.956 263.508 273.132 262.86 273.132ZM260.688 268.776C260.688 269.464 260.776 270.068 260.952 270.588C261.136 271.108 261.388 271.508 261.708 271.788C262.036 272.068 262.42 272.208 262.86 272.208C263.3 272.208 263.68 272.068 264 271.788C264.328 271.508 264.58 271.108 264.756 270.588C264.94 270.068 265.032 269.464 265.032 268.776C265.032 268.096 264.94 267.5 264.756 266.988C264.58 266.476 264.328 266.084 264 265.812C263.68 265.532 263.3 265.392 262.86 265.392C262.42 265.392 262.036 265.532 261.708 265.812C261.388 266.084 261.136 266.476 260.952 266.988C260.776 267.5 260.688 268.096 260.688 268.776ZM273.663 273.132C272.967 273.132 272.347 273.02 271.803 272.796C271.259 272.572 270.827 272.26 270.507 271.86C270.195 271.452 270.023 270.984 269.991 270.456H271.047C271.103 270.992 271.367 271.42 271.839 271.74C272.319 272.06 272.927 272.22 273.663 272.22C274.295 272.22 274.779 272.096 275.115 271.848C275.451 271.6 275.619 271.256 275.619 270.816C275.619 270.432 275.483 270.136 275.211 269.928C274.947 269.72 274.567 269.54 274.071 269.388L272.619 268.932C272.563 268.916 272.311 268.84 271.863 268.704C271.423 268.568 271.043 268.328 270.723 267.984C270.411 267.632 270.255 267.208 270.255 266.712C270.255 266.264 270.371 265.872 270.603 265.536C270.843 265.192 271.175 264.928 271.599 264.744C272.031 264.56 272.535 264.468 273.111 264.468C274.079 264.468 274.843 264.708 275.403 265.188C275.971 265.66 276.287 266.34 276.351 267.228H275.307C275.267 266.636 275.051 266.18 274.659 265.86C274.267 265.54 273.735 265.38 273.063 265.38C272.527 265.38 272.091 265.496 271.755 265.728C271.427 265.952 271.263 266.264 271.263 266.664C271.263 266.944 271.343 267.172 271.503 267.348C271.671 267.516 271.839 267.632 272.007 267.696C272.175 267.76 272.487 267.864 272.943 268.008L274.299 268.428C274.779 268.58 275.179 268.736 275.499 268.896C275.819 269.048 276.091 269.276 276.315 269.58C276.539 269.884 276.651 270.28 276.651 270.768C276.651 271.504 276.383 272.084 275.847 272.508C275.319 272.924 274.591 273.132 273.663 273.132ZM281.84 273.132C281.048 273.132 280.344 272.956 279.728 272.604C279.12 272.244 278.644 271.736 278.3 271.08C277.964 270.416 277.796 269.648 277.796 268.776C277.796 267.944 277.956 267.204 278.276 266.556C278.604 265.9 279.072 265.388 279.68 265.02C280.296 264.652 281.016 264.468 281.84 264.468C282.64 264.468 283.348 264.648 283.964 265.008C284.58 265.36 285.056 265.864 285.392 266.52C285.736 267.168 285.908 267.92 285.908 268.776C285.908 269.616 285.744 270.368 285.416 271.032C285.088 271.688 284.616 272.204 284 272.58C283.392 272.948 282.672 273.132 281.84 273.132ZM278.828 268.776C278.828 269.472 278.948 270.08 279.188 270.6C279.436 271.112 279.788 271.508 280.244 271.788C280.7 272.068 281.232 272.208 281.84 272.208C282.456 272.208 282.992 272.068 283.448 271.788C283.912 271.508 284.264 271.112 284.504 270.6C284.752 270.08 284.876 269.472 284.876 268.776C284.876 268.088 284.752 267.492 284.504 266.988C284.256 266.476 283.904 266.084 283.448 265.812C282.992 265.532 282.456 265.392 281.84 265.392C281.232 265.392 280.7 265.532 280.244 265.812C279.788 266.084 279.436 266.476 279.188 266.988C278.948 267.492 278.828 268.088 278.828 268.776ZM287.567 264.6H288.575V272.076H293.075V273H287.567V264.6Z" fill="white"/>
<path d="M344.547 273.132C343.699 273.132 342.991 272.892 342.423 272.412C341.863 271.924 341.539 271.276 341.451 270.468H342.495C342.559 270.996 342.779 271.42 343.155 271.74C343.531 272.052 343.995 272.208 344.547 272.208C345.139 272.208 345.615 272.028 345.975 271.668C346.343 271.308 346.527 270.84 346.527 270.264C346.527 269.696 346.347 269.232 345.987 268.872C345.627 268.512 345.163 268.332 344.595 268.332C343.955 268.332 343.375 268.608 342.855 269.16H341.739L342.423 264.6H347.187V265.524H343.263L342.831 268.356C343.375 267.764 344.051 267.468 344.859 267.468C345.379 267.468 345.843 267.588 346.251 267.828C346.659 268.06 346.975 268.388 347.199 268.812C347.431 269.236 347.547 269.716 347.547 270.252C347.547 270.812 347.419 271.312 347.163 271.752C346.915 272.184 346.563 272.524 346.107 272.772C345.659 273.012 345.139 273.132 344.547 273.132ZM351.922 273.132C351.274 273.132 350.706 272.956 350.218 272.604C349.738 272.244 349.366 271.736 349.102 271.08C348.846 270.424 348.718 269.656 348.718 268.776C348.718 267.904 348.846 267.144 349.102 266.496C349.366 265.848 349.738 265.348 350.218 264.996C350.706 264.644 351.274 264.468 351.922 264.468C352.57 264.468 353.134 264.644 353.614 264.996C354.102 265.348 354.474 265.848 354.73 266.496C354.994 267.144 355.126 267.904 355.126 268.776C355.126 269.656 354.994 270.424 354.73 271.08C354.474 271.736 354.102 272.244 353.614 272.604C353.134 272.956 352.57 273.132 351.922 273.132ZM349.75 268.776C349.75 269.464 349.838 270.068 350.014 270.588C350.198 271.108 350.45 271.508 350.77 271.788C351.098 272.068 351.482 272.208 351.922 272.208C352.362 272.208 352.742 272.068 353.062 271.788C353.39 271.508 353.642 271.108 353.818 270.588C354.002 270.068 354.094 269.464 354.094 268.776C354.094 268.096 354.002 267.5 353.818 266.988C353.642 266.476 353.39 266.084 353.062 265.812C352.742 265.532 352.362 265.392 351.922 265.392C351.482 265.392 351.098 265.532 350.77 265.812C350.45 266.084 350.198 266.476 350.014 266.988C349.838 267.5 349.75 268.096 349.75 268.776ZM359.598 273.132C358.95 273.132 358.382 272.956 357.894 272.604C357.414 272.244 357.042 271.736 356.778 271.08C356.522 270.424 356.394 269.656 356.394 268.776C356.394 267.904 356.522 267.144 356.778 266.496C357.042 265.848 357.414 265.348 357.894 264.996C358.382 264.644 358.95 264.468 359.598 264.468C360.246 264.468 360.81 264.644 361.29 264.996C361.778 265.348 362.15 265.848 362.406 266.496C362.67 267.144 362.802 267.904 362.802 268.776C362.802 269.656 362.67 270.424 362.406 271.08C362.15 271.736 361.778 272.244 361.29 272.604C360.81 272.956 360.246 273.132 359.598 273.132ZM357.426 268.776C357.426 269.464 357.514 270.068 357.69 270.588C357.874 271.108 358.126 271.508 358.446 271.788C358.774 272.068 359.158 272.208 359.598 272.208C360.038 272.208 360.418 272.068 360.738 271.788C361.066 271.508 361.318 271.108 361.494 270.588C361.678 270.068 361.77 269.464 361.77 268.776C361.77 268.096 361.678 267.5 361.494 266.988C361.318 266.476 361.066 266.084 360.738 265.812C360.418 265.532 360.038 265.392 359.598 265.392C359.158 265.392 358.774 265.532 358.446 265.812C358.126 266.084 357.874 266.476 357.69 266.988C357.514 267.5 357.426 268.096 357.426 268.776ZM363.974 268.848H369.11V269.688H363.974V268.848ZM373.329 273.132C372.481 273.132 371.773 272.892 371.205 272.412C370.645 271.924 370.321 271.276 370.233 270.468H371.277C371.341 270.996 371.561 271.42 371.937 271.74C372.313 272.052 372.777 272.208 373.329 272.208C373.921 272.208 374.397 272.028 374.757 271.668C375.125 271.308 375.309 270.84 375.309 270.264C375.309 269.696 375.129 269.232 374.769 268.872C374.409 268.512 373.945 268.332 373.377 268.332C372.737 268.332 372.157 268.608 371.637 269.16H370.521L371.205 264.6H375.969V265.524H372.045L371.613 268.356C372.157 267.764 372.833 267.468 373.641 267.468C374.161 267.468 374.625 267.588 375.033 267.828C375.441 268.06 375.757 268.388 375.981 268.812C376.213 269.236 376.329 269.716 376.329 270.252C376.329 270.812 376.201 271.312 375.945 271.752C375.697 272.184 375.345 272.524 374.889 272.772C374.441 273.012 373.921 273.132 373.329 273.132ZM380.703 273.132C380.055 273.132 379.487 272.956 378.999 272.604C378.519 272.244 378.147 271.736 377.883 271.08C377.627 270.424 377.499 269.656 377.499 268.776C377.499 267.904 377.627 267.144 377.883 266.496C378.147 265.848 378.519 265.348 378.999 264.996C379.487 264.644 380.055 264.468 380.703 264.468C381.351 264.468 381.915 264.644 382.395 264.996C382.883 265.348 383.255 265.848 383.511 266.496C383.775 267.144 383.907 267.904 383.907 268.776C383.907 269.656 383.775 270.424 383.511 271.08C383.255 271.736 382.883 272.244 382.395 272.604C381.915 272.956 381.351 273.132 380.703 273.132ZM378.531 268.776C378.531 269.464 378.619 270.068 378.795 270.588C378.979 271.108 379.231 271.508 379.551 271.788C379.879 272.068 380.263 272.208 380.703 272.208C381.143 272.208 381.523 272.068 381.843 271.788C382.171 271.508 382.423 271.108 382.599 270.588C382.783 270.068 382.875 269.464 382.875 268.776C382.875 268.096 382.783 267.5 382.599 266.988C382.423 266.476 382.171 266.084 381.843 265.812C381.523 265.532 381.143 265.392 380.703 265.392C380.263 265.392 379.879 265.532 379.551 265.812C379.231 266.084 378.979 266.476 378.795 266.988C378.619 267.5 378.531 268.096 378.531 268.776ZM384.301 274.944L385.561 270.924L386.413 271.188L385.105 275.196L384.301 274.944ZM390.84 273.132C390.192 273.132 389.624 272.956 389.136 272.604C388.656 272.244 388.284 271.736 388.02 271.08C387.764 270.424 387.636 269.656 387.636 268.776C387.636 267.904 387.764 267.144 388.02 266.496C388.284 265.848 388.656 265.348 389.136 264.996C389.624 264.644 390.192 264.468 390.84 264.468C391.488 264.468 392.052 264.644 392.532 264.996C393.02 265.348 393.392 265.848 393.648 266.496C393.912 267.144 394.044 267.904 394.044 268.776C394.044 269.656 393.912 270.424 393.648 271.08C393.392 271.736 393.02 272.244 392.532 272.604C392.052 272.956 391.488 273.132 390.84 273.132ZM388.668 268.776C388.668 269.464 388.756 270.068 388.932 270.588C389.116 271.108 389.368 271.508 389.688 271.788C390.016 272.068 390.4 272.208 390.84 272.208C391.28 272.208 391.66 272.068 391.98 271.788C392.308 271.508 392.56 271.108 392.736 270.588C392.92 270.068 393.012 269.464 393.012 268.776C393.012 268.096 392.92 267.5 392.736 266.988C392.56 266.476 392.308 266.084 391.98 265.812C391.66 265.532 391.28 265.392 390.84 265.392C390.4 265.392 390.016 265.532 389.688 265.812C389.368 266.084 389.116 266.476 388.932 266.988C388.756 267.5 388.668 268.096 388.668 268.776ZM398.516 273.132C397.868 273.132 397.3 272.956 396.812 272.604C396.332 272.244 395.96 271.736 395.696 271.08C395.44 270.424 395.312 269.656 395.312 268.776C395.312 267.904 395.44 267.144 395.696 266.496C395.96 265.848 396.332 265.348 396.812 264.996C397.3 264.644 397.868 264.468 398.516 264.468C399.164 264.468 399.728 264.644 400.208 264.996C400.696 265.348 401.068 265.848 401.324 266.496C401.588 267.144 401.72 267.904 401.72 268.776C401.72 269.656 401.588 270.424 401.324 271.08C401.068 271.736 400.696 272.244 400.208 272.604C399.728 272.956 399.164 273.132 398.516 273.132ZM396.344 268.776C396.344 269.464 396.432 270.068 396.608 270.588C396.792 271.108 397.044 271.508 397.364 271.788C397.692 272.068 398.076 272.208 398.516 272.208C398.956 272.208 399.336 272.068 399.656 271.788C399.984 271.508 400.236 271.108 400.412 270.588C400.596 270.068 400.688 269.464 400.688 268.776C400.688 268.096 400.596 267.5 400.412 266.988C400.236 266.476 399.984 266.084 399.656 265.812C399.336 265.532 398.956 265.392 398.516 265.392C398.076 265.392 397.692 265.532 397.364 265.812C397.044 266.084 396.792 266.476 396.608 266.988C396.432 267.5 396.344 268.096 396.344 268.776ZM406.192 273.132C405.544 273.132 404.976 272.956 404.488 272.604C404.008 272.244 403.636 271.736 403.372 271.08C403.116 270.424 402.988 269.656 402.988 268.776C402.988 267.904 403.116 267.144 403.372 266.496C403.636 265.848 404.008 265.348 404.488 264.996C404.976 264.644 405.544 264.468 406.192 264.468C406.84 264.468 407.404 264.644 407.884 264.996C408.372 265.348 408.744 265.848 409 266.496C409.264 267.144 409.396 267.904 409.396 268.776C409.396 269.656 409.264 270.424 409 271.08C408.744 271.736 408.372 272.244 407.884 272.604C407.404 272.956 406.84 273.132 406.192 273.132ZM404.02 268.776C404.02 269.464 404.108 270.068 404.284 270.588C404.468 271.108 404.72 271.508 405.04 271.788C405.368 272.068 405.752 272.208 406.192 272.208C406.632 272.208 407.012 272.068 407.332 271.788C407.66 271.508 407.912 271.108 408.088 270.588C408.272 270.068 408.364 269.464 408.364 268.776C408.364 268.096 408.272 267.5 408.088 266.988C407.912 266.476 407.66 266.084 407.332 265.812C407.012 265.532 406.632 265.392 406.192 265.392C405.752 265.392 405.368 265.532 405.04 265.812C404.72 266.084 404.468 266.476 404.284 266.988C404.108 267.5 404.02 268.096 404.02 268.776ZM416.995 273.132C416.299 273.132 415.679 273.02 415.135 272.796C414.591 272.572 414.159 272.26 413.839 271.86C413.527 271.452 413.355 270.984 413.323 270.456H414.379C414.435 270.992 414.699 271.42 415.171 271.74C415.651 272.06 416.259 272.22 416.995 272.22C417.627 272.22 418.111 272.096 418.447 271.848C418.783 271.6 418.951 271.256 418.951 270.816C418.951 270.432 418.815 270.136 418.543 269.928C418.279 269.72 417.899 269.54 417.403 269.388L415.951 268.932C415.895 268.916 415.643 268.84 415.195 268.704C414.755 268.568 414.375 268.328 414.055 267.984C413.743 267.632 413.587 267.208 413.587 266.712C413.587 266.264 413.703 265.872 413.935 265.536C414.175 265.192 414.507 264.928 414.931 264.744C415.363 264.56 415.867 264.468 416.443 264.468C417.411 264.468 418.175 264.708 418.735 265.188C419.303 265.66 419.619 266.34 419.683 267.228H418.639C418.599 266.636 418.383 266.18 417.991 265.86C417.599 265.54 417.067 265.38 416.395 265.38C415.859 265.38 415.423 265.496 415.087 265.728C414.759 265.952 414.595 266.264 414.595 266.664C414.595 266.944 414.675 267.172 414.835 267.348C415.003 267.516 415.171 267.632 415.339 267.696C415.507 267.76 415.819 267.864 416.275 268.008L417.631 268.428C418.111 268.58 418.511 268.736 418.831 268.896C419.151 269.048 419.423 269.276 419.647 269.58C419.871 269.884 419.983 270.28 419.983 270.768C419.983 271.504 419.715 272.084 419.179 272.508C418.651 272.924 417.923 273.132 416.995 273.132ZM425.172 273.132C424.38 273.132 423.676 272.956 423.06 272.604C422.452 272.244 421.976 271.736 421.632 271.08C421.296 270.416 421.128 269.648 421.128 268.776C421.128 267.944 421.288 267.204 421.608 266.556C421.936 265.9 422.404 265.388 423.012 265.02C423.628 264.652 424.348 264.468 425.172 264.468C425.972 264.468 426.68 264.648 427.296 265.008C427.912 265.36 428.388 265.864 428.724 266.52C429.068 267.168 429.24 267.92 429.24 268.776C429.24 269.616 429.076 270.368 428.748 271.032C428.42 271.688 427.948 272.204 427.332 272.58C426.724 272.948 426.004 273.132 425.172 273.132ZM422.16 268.776C422.16 269.472 422.28 270.08 422.52 270.6C422.768 271.112 423.12 271.508 423.576 271.788C424.032 272.068 424.564 272.208 425.172 272.208C425.788 272.208 426.324 272.068 426.78 271.788C427.244 271.508 427.596 271.112 427.836 270.6C428.084 270.08 428.208 269.472 428.208 268.776C428.208 268.088 428.084 267.492 427.836 266.988C427.588 266.476 427.236 266.084 426.78 265.812C426.324 265.532 425.788 265.392 425.172 265.392C424.564 265.392 424.032 265.532 423.576 265.812C423.12 266.084 422.768 266.476 422.52 266.988C422.28 267.492 422.16 268.088 422.16 268.776ZM430.899 264.6H431.907V272.076H436.407V273H430.899V264.6Z" fill="white"/>
<path d="M478.463 273.132C477.615 273.132 476.907 272.892 476.339 272.412C475.779 271.924 475.455 271.276 475.367 270.468H476.411C476.475 270.996 476.695 271.42 477.071 271.74C477.447 272.052 477.911 272.208 478.463 272.208C479.055 272.208 479.531 272.028 479.891 271.668C480.259 271.308 480.443 270.84 480.443 270.264C480.443 269.696 480.263 269.232 479.903 268.872C479.543 268.512 479.079 268.332 478.511 268.332C477.871 268.332 477.291 268.608 476.771 269.16H475.655L476.339 264.6H481.103V265.524H477.179L476.747 268.356C477.291 267.764 477.967 267.468 478.775 267.468C479.295 267.468 479.759 267.588 480.167 267.828C480.575 268.06 480.891 268.388 481.115 268.812C481.347 269.236 481.463 269.716 481.463 270.252C481.463 270.812 481.335 271.312 481.079 271.752C480.831 272.184 480.479 272.524 480.023 272.772C479.575 273.012 479.055 273.132 478.463 273.132ZM485.838 273.132C485.19 273.132 484.622 272.956 484.134 272.604C483.654 272.244 483.282 271.736 483.018 271.08C482.762 270.424 482.634 269.656 482.634 268.776C482.634 267.904 482.762 267.144 483.018 266.496C483.282 265.848 483.654 265.348 484.134 264.996C484.622 264.644 485.19 264.468 485.838 264.468C486.486 264.468 487.05 264.644 487.53 264.996C488.018 265.348 488.39 265.848 488.646 266.496C488.91 267.144 489.042 267.904 489.042 268.776C489.042 269.656 488.91 270.424 488.646 271.08C488.39 271.736 488.018 272.244 487.53 272.604C487.05 272.956 486.486 273.132 485.838 273.132ZM483.666 268.776C483.666 269.464 483.754 270.068 483.93 270.588C484.114 271.108 484.366 271.508 484.686 271.788C485.014 272.068 485.398 272.208 485.838 272.208C486.278 272.208 486.658 272.068 486.978 271.788C487.306 271.508 487.558 271.108 487.734 270.588C487.918 270.068 488.01 269.464 488.01 268.776C488.01 268.096 487.918 267.5 487.734 266.988C487.558 266.476 487.306 266.084 486.978 265.812C486.658 265.532 486.278 265.392 485.838 265.392C485.398 265.392 485.014 265.532 484.686 265.812C484.366 266.084 484.114 266.476 483.93 266.988C483.754 267.5 483.666 268.096 483.666 268.776ZM493.514 273.132C492.866 273.132 492.298 272.956 491.81 272.604C491.33 272.244 490.958 271.736 490.694 271.08C490.438 270.424 490.31 269.656 490.31 268.776C490.31 267.904 490.438 267.144 490.694 266.496C490.958 265.848 491.33 265.348 491.81 264.996C492.298 264.644 492.866 264.468 493.514 264.468C494.162 264.468 494.726 264.644 495.206 264.996C495.694 265.348 496.066 265.848 496.322 266.496C496.586 267.144 496.718 267.904 496.718 268.776C496.718 269.656 496.586 270.424 496.322 271.08C496.066 271.736 495.694 272.244 495.206 272.604C494.726 272.956 494.162 273.132 493.514 273.132ZM491.342 268.776C491.342 269.464 491.43 270.068 491.606 270.588C491.79 271.108 492.042 271.508 492.362 271.788C492.69 272.068 493.074 272.208 493.514 272.208C493.954 272.208 494.334 272.068 494.654 271.788C494.982 271.508 495.234 271.108 495.41 270.588C495.594 270.068 495.686 269.464 495.686 268.776C495.686 268.096 495.594 267.5 495.41 266.988C495.234 266.476 494.982 266.084 494.654 265.812C494.334 265.532 493.954 265.392 493.514 265.392C493.074 265.392 492.69 265.532 492.362 265.812C492.042 266.084 491.79 266.476 491.606 266.988C491.43 267.5 491.342 268.096 491.342 268.776ZM497.111 274.944L498.371 270.924L499.223 271.188L497.915 275.196L497.111 274.944ZM503.651 273.132C503.003 273.132 502.435 272.956 501.947 272.604C501.467 272.244 501.095 271.736 500.831 271.08C500.575 270.424 500.447 269.656 500.447 268.776C500.447 267.904 500.575 267.144 500.831 266.496C501.095 265.848 501.467 265.348 501.947 264.996C502.435 264.644 503.003 264.468 503.651 264.468C504.299 264.468 504.863 264.644 505.343 264.996C505.831 265.348 506.203 265.848 506.459 266.496C506.723 267.144 506.855 267.904 506.855 268.776C506.855 269.656 506.723 270.424 506.459 271.08C506.203 271.736 505.831 272.244 505.343 272.604C504.863 272.956 504.299 273.132 503.651 273.132ZM501.479 268.776C501.479 269.464 501.567 270.068 501.743 270.588C501.927 271.108 502.179 271.508 502.499 271.788C502.827 272.068 503.211 272.208 503.651 272.208C504.091 272.208 504.471 272.068 504.791 271.788C505.119 271.508 505.371 271.108 505.547 270.588C505.731 270.068 505.823 269.464 505.823 268.776C505.823 268.096 505.731 267.5 505.547 266.988C505.371 266.476 505.119 266.084 504.791 265.812C504.471 265.532 504.091 265.392 503.651 265.392C503.211 265.392 502.827 265.532 502.499 265.812C502.179 266.084 501.927 266.476 501.743 266.988C501.567 267.5 501.479 268.096 501.479 268.776ZM511.326 273.132C510.678 273.132 510.11 272.956 509.622 272.604C509.142 272.244 508.77 271.736 508.506 271.08C508.25 270.424 508.122 269.656 508.122 268.776C508.122 267.904 508.25 267.144 508.506 266.496C508.77 265.848 509.142 265.348 509.622 264.996C510.11 264.644 510.678 264.468 511.326 264.468C511.974 264.468 512.538 264.644 513.018 264.996C513.506 265.348 513.878 265.848 514.134 266.496C514.398 267.144 514.53 267.904 514.53 268.776C514.53 269.656 514.398 270.424 514.134 271.08C513.878 271.736 513.506 272.244 513.018 272.604C512.538 272.956 511.974 273.132 511.326 273.132ZM509.154 268.776C509.154 269.464 509.242 270.068 509.418 270.588C509.602 271.108 509.854 271.508 510.174 271.788C510.502 272.068 510.886 272.208 511.326 272.208C511.766 272.208 512.146 272.068 512.466 271.788C512.794 271.508 513.046 271.108 513.222 270.588C513.406 270.068 513.498 269.464 513.498 268.776C513.498 268.096 513.406 267.5 513.222 266.988C513.046 266.476 512.794 266.084 512.466 265.812C512.146 265.532 511.766 265.392 511.326 265.392C510.886 265.392 510.502 265.532 510.174 265.812C509.854 266.084 509.602 266.476 509.418 266.988C509.242 267.5 509.154 268.096 509.154 268.776ZM519.002 273.132C518.354 273.132 517.786 272.956 517.298 272.604C516.818 272.244 516.446 271.736 516.182 271.08C515.926 270.424 515.798 269.656 515.798 268.776C515.798 267.904 515.926 267.144 516.182 266.496C516.446 265.848 516.818 265.348 517.298 264.996C517.786 264.644 518.354 264.468 519.002 264.468C519.65 264.468 520.214 264.644 520.694 264.996C521.182 265.348 521.554 265.848 521.81 266.496C522.074 267.144 522.206 267.904 522.206 268.776C522.206 269.656 522.074 270.424 521.81 271.08C521.554 271.736 521.182 272.244 520.694 272.604C520.214 272.956 519.65 273.132 519.002 273.132ZM516.83 268.776C516.83 269.464 516.918 270.068 517.094 270.588C517.278 271.108 517.53 271.508 517.85 271.788C518.178 272.068 518.562 272.208 519.002 272.208C519.442 272.208 519.822 272.068 520.142 271.788C520.47 271.508 520.722 271.108 520.898 270.588C521.082 270.068 521.174 269.464 521.174 268.776C521.174 268.096 521.082 267.5 520.898 266.988C520.722 266.476 520.47 266.084 520.142 265.812C519.822 265.532 519.442 265.392 519.002 265.392C518.562 265.392 518.178 265.532 517.85 265.812C517.53 266.084 517.278 266.476 517.094 266.988C516.918 267.5 516.83 268.096 516.83 268.776ZM525.766 269.688H523.378V268.848H525.766V266.568H526.678V268.848H529.066V269.688H526.678V271.968H525.766V269.688ZM536.579 273.132C535.883 273.132 535.263 273.02 534.719 272.796C534.175 272.572 533.743 272.26 533.423 271.86C533.111 271.452 532.939 270.984 532.907 270.456H533.963C534.019 270.992 534.283 271.42 534.755 271.74C535.235 272.06 535.843 272.22 536.579 272.22C537.211 272.22 537.695 272.096 538.031 271.848C538.367 271.6 538.535 271.256 538.535 270.816C538.535 270.432 538.399 270.136 538.127 269.928C537.863 269.72 537.483 269.54 536.987 269.388L535.535 268.932C535.479 268.916 535.227 268.84 534.779 268.704C534.339 268.568 533.959 268.328 533.639 267.984C533.327 267.632 533.171 267.208 533.171 266.712C533.171 266.264 533.287 265.872 533.519 265.536C533.759 265.192 534.091 264.928 534.515 264.744C534.947 264.56 535.451 264.468 536.027 264.468C536.995 264.468 537.759 264.708 538.319 265.188C538.887 265.66 539.203 266.34 539.267 267.228H538.223C538.183 266.636 537.967 266.18 537.575 265.86C537.183 265.54 536.651 265.38 535.979 265.38C535.443 265.38 535.007 265.496 534.671 265.728C534.343 265.952 534.179 266.264 534.179 266.664C534.179 266.944 534.259 267.172 534.419 267.348C534.587 267.516 534.755 267.632 534.923 267.696C535.091 267.76 535.403 267.864 535.859 268.008L537.215 268.428C537.695 268.58 538.095 268.736 538.415 268.896C538.735 269.048 539.007 269.276 539.231 269.58C539.455 269.884 539.567 270.28 539.567 270.768C539.567 271.504 539.299 272.084 538.763 272.508C538.235 272.924 537.507 273.132 536.579 273.132ZM544.756 273.132C543.964 273.132 543.26 272.956 542.644 272.604C542.036 272.244 541.56 271.736 541.216 271.08C540.88 270.416 540.712 269.648 540.712 268.776C540.712 267.944 540.872 267.204 541.192 266.556C541.52 265.9 541.988 265.388 542.596 265.02C543.212 264.652 543.932 264.468 544.756 264.468C545.556 264.468 546.264 264.648 546.88 265.008C547.496 265.36 547.972 265.864 548.308 266.52C548.652 267.168 548.824 267.92 548.824 268.776C548.824 269.616 548.66 270.368 548.332 271.032C548.004 271.688 547.532 272.204 546.916 272.58C546.308 272.948 545.588 273.132 544.756 273.132ZM541.744 268.776C541.744 269.472 541.864 270.08 542.104 270.6C542.352 271.112 542.704 271.508 543.16 271.788C543.616 272.068 544.148 272.208 544.756 272.208C545.372 272.208 545.908 272.068 546.364 271.788C546.828 271.508 547.18 271.112 547.42 270.6C547.668 270.08 547.792 269.472 547.792 268.776C547.792 268.088 547.668 267.492 547.42 266.988C547.172 266.476 546.82 266.084 546.364 265.812C545.908 265.532 545.372 265.392 544.756 265.392C544.148 265.392 543.616 265.532 543.16 265.812C542.704 266.084 542.352 266.476 542.104 266.988C541.864 267.492 541.744 268.088 541.744 268.776ZM550.483 264.6H551.491V272.076H555.991V273H550.483V264.6Z" fill="white"/>
<defs>
<linearGradient id="paint0_linear_1190_6370" x1="109" y1="126.5" x2="159" y2="126.5" gradientUnits="userSpaceOnUse">
<stop stop-color="#0C9790"/>
<stop offset="1" stop-color="#42D5CE"/>
</linearGradient>
<linearGradient id="paint1_linear_1190_6370" x1="233" y1="215.5" x2="283" y2="215.5" gradientUnits="userSpaceOnUse">
<stop stop-color="#0C9790"/>
<stop offset="1" stop-color="#42D5CE"/>
</linearGradient>
<linearGradient id="paint2_linear_1190_6370" x1="365" y1="245.5" x2="415" y2="245.5" gradientUnits="userSpaceOnUse">
<stop stop-color="#0C9790"/>
<stop offset="1" stop-color="#42D5CE"/>
</linearGradient>
<linearGradient id="paint3_linear_1190_6370" x1="475" y1="252" x2="525" y2="252" gradientUnits="userSpaceOnUse">
<stop stop-color="#0C9790"/>
<stop offset="1" stop-color="#42D5CE"/>
</linearGradient>
</defs>
</svg>
