<svg width="141" height="48" viewBox="0 0 141 48" fill="none" xmlns="http://www.w3.org/2000/svg">
<path fill-rule="evenodd" clip-rule="evenodd" d="M70.9819 23.9087C70.9819 22.2233 69.8409 21.0435 68.31 21.0435C66.779 21.0435 65.638 22.2233 65.638 23.9087C65.638 25.5942 66.779 26.774 68.31 26.774C69.8265 26.774 70.9819 25.5801 70.9819 23.9087ZM63.3705 23.9087C63.3705 21.17 65.5225 19.0632 68.31 19.0632C71.0974 19.0632 73.2494 21.17 73.2494 23.9087C73.2494 26.6476 71.0974 28.7543 68.31 28.7543C65.5225 28.7543 63.3705 26.6476 63.3705 23.9087Z" fill="#8CA4A6"/>
<path fill-rule="evenodd" clip-rule="evenodd" d="M76.3836 23.8807C76.3836 25.5942 77.5534 26.774 79.041 26.774C80.5287 26.774 81.6985 25.6082 81.6985 23.8807C81.6985 22.1531 80.5287 20.9874 79.041 20.9874C77.5534 21.0014 76.3836 22.1672 76.3836 23.8807ZM76.4558 27.5183H76.4124V32.0409H74.2316V19.1896H76.4124V20.257H76.4558C77.0768 19.6531 78.0156 19.021 79.4743 19.021C81.9874 19.021 83.9516 20.9733 83.9516 23.8947C83.9516 26.8161 81.9874 28.7684 79.4743 28.7684C78.03 28.7543 77.0768 28.1223 76.4558 27.5183Z" fill="#8CA4A6"/>
<path fill-rule="evenodd" clip-rule="evenodd" d="M87.2013 23.8807C87.2013 25.5942 88.3712 26.774 89.8588 26.774C91.3464 26.774 92.5163 25.6082 92.5163 23.8807C92.5163 22.1531 91.3464 20.9874 89.8588 20.9874C88.3712 20.9874 87.2013 22.1672 87.2013 23.8807ZM87.2735 27.5183H87.2302V32.0409H85.0493V19.1896H87.2302V20.257H87.2735C87.8946 19.6531 88.8333 19.021 90.2921 19.021C92.8051 19.021 94.7694 20.9733 94.7694 23.8947C94.7694 26.8161 92.8051 28.7684 90.2921 28.7684C88.8478 28.7543 87.8946 28.1223 87.2735 27.5183Z" fill="#8CA4A6"/>
<path fill-rule="evenodd" clip-rule="evenodd" d="M97.9035 22.9396H102.641C102.41 21.7598 101.428 20.9031 100.272 20.9031C99.1167 20.9031 98.1346 21.7598 97.9035 22.9396ZM102.569 25.5661L104.851 25.861C103.941 28.0099 102.352 28.7543 100.402 28.7543C97.6146 28.7543 95.5637 26.802 95.5637 23.8807C95.5637 20.9593 97.6146 19.007 100.243 19.007C102.872 19.007 105.067 20.7767 105.067 24.5689H97.9324C98.0913 26.0717 99.1889 26.8723 100.431 26.8723C101.428 26.8723 102.193 26.3807 102.569 25.5661Z" fill="#8CA4A6"/>
<path fill-rule="evenodd" clip-rule="evenodd" d="M108.288 19.1896V20.257H108.331C108.822 19.6531 109.53 19.1194 110.83 19.1194C110.989 19.1194 111.321 19.1615 111.538 19.2317V21.3525C111.249 21.2823 110.859 21.2402 110.613 21.2402C108.981 21.2402 108.302 21.9284 108.302 23.4593V28.5717H106.122V19.1896H108.288Z" fill="#8CA4A6"/>
<path fill-rule="evenodd" clip-rule="evenodd" d="M59.9475 25.3694C59.5431 26.2683 58.7632 26.802 57.7377 26.8161C56.8134 26.802 56.0768 26.3526 55.6435 25.5942C55.5569 25.4256 55.4702 25.229 55.4124 25.0183H55.398C55.2969 24.6812 55.2391 24.302 55.2391 23.8807C55.2391 23.4593 55.2969 23.0801 55.398 22.743H55.4124C55.4702 22.5323 55.5569 22.3497 55.6435 22.1672C56.0768 21.4087 56.8134 20.9593 57.7377 20.9452C58.7488 20.9593 59.5431 21.507 59.9475 22.4059C59.9908 22.5042 60.0342 22.6166 60.0631 22.743C60.0631 22.7571 60.0631 22.7711 60.0775 22.7711H62.3884C62.3306 22.4621 62.2439 22.1531 62.1284 21.8722C61.4496 20.1306 59.8753 19.0351 57.8388 19.0351H57.6366C55.8457 19.0351 54.4159 19.8918 53.636 21.3104C53.2171 22.0407 52.986 22.9115 52.986 23.9087C52.986 24.906 53.2171 25.7768 53.636 26.5071C54.4159 27.9257 55.8457 28.7824 57.6366 28.7824H57.8388C59.8753 28.7824 61.4351 27.6728 62.1139 25.9172C62.1862 25.7487 62.2439 25.5661 62.2873 25.3975H59.9475V25.3694Z" fill="#8CA4A6"/>
<path fill-rule="evenodd" clip-rule="evenodd" d="M109.934 27.3077C109.934 26.5773 110.613 25.8891 111.393 25.8891C112.173 25.8891 112.852 26.5773 112.852 27.3077C112.852 28.038 112.159 28.7262 111.393 28.7262C110.628 28.7262 109.934 28.0521 109.934 27.3077Z" fill="#8CA4A6"/>
<path fill-rule="evenodd" clip-rule="evenodd" d="M131.382 23.9087C131.382 22.2233 130.241 21.0435 128.71 21.0435C127.179 21.0435 126.038 22.2233 126.038 23.9087C126.038 25.5942 127.179 26.774 128.71 26.774C130.241 26.774 131.382 25.5801 131.382 23.9087ZM123.756 23.9087C123.756 21.17 125.908 19.0632 128.696 19.0632C131.483 19.0632 133.635 21.17 133.635 23.9087C133.635 26.6476 131.483 28.7543 128.696 28.7543C125.908 28.7543 123.756 26.6476 123.756 23.9087Z" fill="#8CA4A6"/>
<path fill-rule="evenodd" clip-rule="evenodd" d="M120.276 25.3694C119.871 26.2683 119.091 26.802 118.066 26.8161C117.141 26.802 116.405 26.3526 115.972 25.5942C115.885 25.4256 115.798 25.229 115.74 25.0183H115.726C115.625 24.6812 115.567 24.302 115.567 23.8807C115.567 23.4593 115.625 23.0801 115.726 22.743H115.74C115.798 22.5323 115.885 22.3497 115.972 22.1672C116.405 21.4087 117.141 20.9593 118.066 20.9452C119.077 20.9593 119.871 21.507 120.276 22.4059C120.319 22.5042 120.362 22.6166 120.391 22.743C120.391 22.7571 120.391 22.7711 120.406 22.7711H122.716C122.659 22.4621 122.572 22.1531 122.456 21.8722C121.763 20.1306 120.203 19.0351 118.167 19.0351H117.965C116.174 19.0351 114.744 19.8918 113.964 21.3104C113.545 22.0407 113.314 22.9115 113.314 23.9087C113.314 24.906 113.545 25.7768 113.964 26.5071C114.744 27.9257 116.174 28.7824 117.965 28.7824H118.167C120.203 28.7824 121.763 27.6728 122.442 25.9172C122.514 25.7487 122.572 25.5661 122.615 25.3975H120.276V25.3694Z" fill="#8CA4A6"/>
<path fill-rule="evenodd" clip-rule="evenodd" d="M38.0232 33.5999C36.4778 35.2993 34.7591 36.1701 33.5892 36.6055C30.3251 37.7994 27.0177 37.7572 23.7824 36.4651C20.475 35.1449 17.5142 32.4061 16.0699 29.3302C15.42 27.9537 15.0734 26.5071 15.03 25.0324C15.0156 24.7234 15.0156 24.3722 15.0156 24.302V23.8385C15.0589 21.7318 15.9255 19.6952 17.4276 18.1222C18.1064 17.4199 18.8863 16.8721 19.7818 16.4929C20.6628 16.1137 21.6305 15.9171 22.6703 15.889C22.3093 16.1699 21.9771 16.4648 21.6593 16.8019C19.854 18.684 18.8574 21.2683 18.8574 24.0913C18.8574 26.9144 19.854 29.4987 21.6593 31.3808C22.6992 32.4622 23.9413 33.2628 25.3567 33.7403C26.3533 34.0774 27.4365 34.246 28.5631 34.246C30.4551 34.246 33.1848 33.7544 35.4234 31.3948C36.1889 30.5942 36.81 29.6532 37.2721 28.6139H40.9695C40.334 30.4819 39.3375 32.1954 38.0232 33.5999ZM13.3835 33.5999C10.986 31.1139 9.65728 27.729 9.65728 24.0632C9.65728 20.3975 10.986 16.9845 13.3835 14.4704C15.81 11.9283 19.1752 10.5378 22.8292 10.5378C23.7391 10.5378 24.649 10.6221 25.5156 10.7906C30.1373 11.7035 33.7769 15.0041 35.2501 19.5407H31.5527C31.0906 18.5014 30.4695 17.5744 29.704 16.7598C28.6786 15.6783 27.451 14.8918 26.05 14.4142C25.0534 14.0772 23.9702 13.9086 22.8437 13.9086C21.4571 13.9086 20.1573 14.1614 18.9585 14.6811C17.8175 15.1727 16.8065 15.8749 15.9399 16.7738C15.7233 16.9985 15.5211 17.2233 15.3333 17.462C14.1201 18.7682 13.3402 20.4958 13.0802 22.6306C13.0225 23.0099 12.9936 23.3891 12.9936 23.7683V24.2458C12.9936 24.4846 12.9936 24.7234 13.008 24.9481V25.0464C13.0514 26.788 13.4558 28.5015 14.2212 30.1167C15.5933 33.0381 18.1497 35.6786 21.125 37.3499C18.1208 37.0129 15.42 35.7067 13.3835 33.5999ZM36.8677 13.403C38.832 15.0041 40.1896 17.1109 40.854 19.5548H37.3443C36.2756 15.7485 33.8925 12.6446 30.7006 10.7204C33.0115 11.0575 35.1201 11.9704 36.8677 13.403ZM29.6896 31.3667C30.4551 30.5661 31.0761 29.6251 31.5383 28.5858H35.0046C34.7013 29.1195 34.3402 29.597 33.9214 30.0324C32.2316 31.8021 30.1807 32.2235 28.7075 32.2516C29.0541 31.9987 29.3863 31.6898 29.6896 31.3667ZM43.2948 26.6335H30.1373L29.8918 27.2936C29.5018 28.347 28.9386 29.274 28.202 30.0465C27.4654 30.819 26.6133 31.3948 25.6456 31.76C24.6779 31.3808 23.8258 30.8049 23.1036 30.0465C21.6449 28.5296 20.8505 26.4088 20.8505 24.0913C20.8505 21.7739 21.6449 19.6671 23.1036 18.1362C23.7824 17.4339 24.5624 16.8862 25.4578 16.507C25.53 16.4789 25.6167 16.4367 25.6889 16.4087C26.6421 16.7879 27.4798 17.3497 28.202 18.1081C28.9386 18.8806 29.5018 19.8076 29.8918 20.861L30.1373 21.5211H43.3093C43.3093 17.6587 40.7818 14.021 38.182 11.9002C35.5101 9.72317 32.1738 8.58552 28.5342 8.58552C27.5809 8.58552 26.6421 8.66979 25.7178 8.83833C24.779 8.66979 23.8113 8.57147 22.8292 8.57147C18.6119 8.57147 14.7267 10.1867 11.9104 13.1361C9.15178 16.0154 7.63527 19.8918 7.63527 24.0632C7.63527 28.2346 9.15178 32.0971 11.9104 34.9342C14.7123 37.8275 18.583 39.4286 22.8148 39.4286C23.7824 39.4286 25.1979 39.4286 26.2522 39.2039C27.1188 39.3584 27.9853 39.4286 28.8519 39.4286C30.6717 39.4286 32.4771 39.0915 34.2969 38.4314C35.6834 37.9258 37.7054 36.9005 39.5108 34.9061L39.5252 34.892C41.345 32.9679 43.0782 30.1027 43.2948 26.6335Z" fill="#8CA4A6"/>
</svg>
