<svg width="235" height="81" viewBox="0 0 235 81" fill="none" xmlns="http://www.w3.org/2000/svg">
<path fill-rule="evenodd" clip-rule="evenodd" d="M118.216 40.5786C118.216 37.7539 116.304 35.7766 113.738 35.7766C111.172 35.7766 109.26 37.7539 109.26 40.5786C109.26 43.4032 111.172 45.3805 113.738 45.3805C116.28 45.3805 118.216 43.3797 118.216 40.5786ZM105.46 40.5786C105.46 35.9885 109.066 32.4576 113.738 32.4576C118.41 32.4576 122.016 35.9885 122.016 40.5786C122.016 45.1687 118.41 48.6995 113.738 48.6995C109.066 48.6995 105.46 45.1687 105.46 40.5786Z" fill="white"/>
<path fill-rule="evenodd" clip-rule="evenodd" d="M127.269 40.5315C127.269 43.4032 129.23 45.3805 131.723 45.3805C134.216 45.3805 136.177 43.4268 136.177 40.5315C136.177 37.6362 134.216 35.6825 131.723 35.6825C129.23 35.706 127.269 37.6597 127.269 40.5315ZM127.39 46.6281H127.317V54.2076H123.662V32.6695H127.317V34.4584H127.39C128.431 33.4463 130.004 32.387 132.449 32.387C136.661 32.387 139.953 35.6589 139.953 40.555C139.953 45.4511 136.661 48.723 132.449 48.723C130.028 48.6995 128.431 47.6402 127.39 46.6281Z" fill="white"/>
<path fill-rule="evenodd" clip-rule="evenodd" d="M145.399 40.5315C145.399 43.4032 147.36 45.3805 149.853 45.3805C152.346 45.3805 154.307 43.4268 154.307 40.5315C154.307 37.6362 152.346 35.6825 149.853 35.6825C147.36 35.6825 145.399 37.6597 145.399 40.5315ZM145.52 46.6281H145.447V54.2076H141.792V32.6695H145.447V34.4584H145.52C146.561 33.4463 148.134 32.387 150.579 32.387C154.791 32.387 158.083 35.6589 158.083 40.555C158.083 45.4511 154.791 48.723 150.579 48.723C148.158 48.6995 146.561 47.6402 145.52 46.6281Z" fill="white"/>
<path fill-rule="evenodd" clip-rule="evenodd" d="M163.335 38.9544H171.275C170.887 36.9771 169.241 35.5412 167.305 35.5412C165.369 35.5412 163.723 36.9771 163.335 38.9544ZM171.154 43.3562L174.978 43.8505C173.453 47.4519 170.791 48.6995 167.523 48.6995C162.851 48.6995 159.414 45.4276 159.414 40.5315C159.414 35.6354 162.851 32.3635 167.257 32.3635C171.662 32.3635 175.341 35.3294 175.341 41.6849H163.384C163.65 44.2036 165.49 45.5453 167.571 45.5453C169.241 45.5453 170.524 44.7214 171.154 43.3562Z" fill="white"/>
<path fill-rule="evenodd" clip-rule="evenodd" d="M180.739 32.6695V34.4584H180.812C181.635 33.4463 182.821 32.5518 184.999 32.5518C185.266 32.5518 185.822 32.6224 186.185 32.7401V36.2945C185.701 36.1768 185.048 36.1062 184.636 36.1062C181.901 36.1062 180.763 37.2596 180.763 39.8253V48.3935H177.108V32.6695H180.739Z" fill="white"/>
<path fill-rule="evenodd" clip-rule="evenodd" d="M99.7229 43.0266C99.0451 44.5331 97.738 45.4276 96.0194 45.4511C94.4702 45.4276 93.2357 44.6743 92.5096 43.4032C92.3643 43.1208 92.2191 42.7912 92.1223 42.4381H92.0981C91.9286 41.8732 91.8318 41.2376 91.8318 40.5315C91.8318 39.8253 91.9286 39.1898 92.0981 38.6248H92.1223C92.2191 38.2717 92.3643 37.9657 92.5096 37.6597C93.2357 36.3886 94.4702 35.6354 96.0194 35.6118C97.7138 35.6354 99.0451 36.5534 99.7229 38.0599C99.7955 38.2247 99.8681 38.413 99.9165 38.6248C99.9165 38.6484 99.9165 38.6719 99.9407 38.6719H103.814C103.717 38.154 103.572 37.6362 103.378 37.1654C102.24 34.2466 99.6018 32.4105 96.1888 32.4105H95.85C92.8485 32.4105 90.4521 33.8464 89.145 36.2239C88.443 37.4479 88.0557 38.9073 88.0557 40.5786C88.0557 42.2498 88.443 43.7092 89.145 44.9333C90.4521 47.3107 92.8485 48.7466 95.85 48.7466H96.1888C99.6018 48.7466 102.216 46.887 103.354 43.9446C103.475 43.6622 103.572 43.3562 103.644 43.0737H99.7229V43.0266Z" fill="white"/>
<path fill-rule="evenodd" clip-rule="evenodd" d="M183.499 46.275C183.499 45.051 184.636 43.8976 185.943 43.8976C187.25 43.8976 188.388 45.051 188.388 46.275C188.388 47.499 187.226 48.6524 185.943 48.6524C184.66 48.6524 183.499 47.5225 183.499 46.275Z" fill="white"/>
<path fill-rule="evenodd" clip-rule="evenodd" d="M219.444 40.5786C219.444 37.7539 217.532 35.7766 214.966 35.7766C212.4 35.7766 210.488 37.7539 210.488 40.5786C210.488 43.4032 212.4 45.3805 214.966 45.3805C217.532 45.3805 219.444 43.3797 219.444 40.5786ZM206.663 40.5786C206.663 35.9885 210.27 32.4576 214.942 32.4576C219.613 32.4576 223.22 35.9885 223.22 40.5786C223.22 45.1687 219.613 48.6995 214.942 48.6995C210.27 48.6995 206.663 45.1687 206.663 40.5786Z" fill="white"/>
<path fill-rule="evenodd" clip-rule="evenodd" d="M200.83 43.0266C200.152 44.5331 198.845 45.4276 197.126 45.4511C195.577 45.4276 194.343 44.6743 193.616 43.4032C193.471 43.1208 193.326 42.7912 193.229 42.4381H193.205C193.036 41.8732 192.939 41.2376 192.939 40.5315C192.939 39.8253 193.036 39.1898 193.205 38.6248H193.229C193.326 38.2717 193.471 37.9657 193.616 37.6597C194.343 36.3886 195.577 35.6354 197.126 35.6118C198.821 35.6354 200.152 36.5534 200.83 38.0599C200.902 38.2247 200.975 38.413 201.023 38.6248C201.023 38.6484 201.023 38.6719 201.048 38.6719H204.921C204.824 38.154 204.678 37.6362 204.485 37.1654C203.323 34.2466 200.709 32.4105 197.296 32.4105H196.957C193.955 32.4105 191.559 33.8464 190.252 36.2239C189.55 37.4479 189.163 38.9073 189.163 40.5786C189.163 42.2498 189.55 43.7092 190.252 44.9333C191.559 47.3107 193.955 48.7466 196.957 48.7466H197.296C200.709 48.7466 203.323 46.887 204.461 43.9446C204.582 43.6622 204.678 43.3562 204.751 43.0737H200.83V43.0266Z" fill="white"/>
<path fill-rule="evenodd" clip-rule="evenodd" d="M62.9787 56.8204C60.3887 59.6686 57.5082 61.1281 55.5476 61.8578C50.0771 63.8586 44.534 63.788 39.112 61.6224C33.5689 59.4097 28.6067 54.8196 26.1862 49.6646C25.0969 47.3578 24.516 44.9333 24.4434 42.4617C24.4192 41.9438 24.4192 41.3553 24.4192 41.2376V40.4609C24.4918 36.93 25.9441 33.5169 28.4615 30.8805C29.5992 29.7036 30.9063 28.7855 32.407 28.15C33.8836 27.5144 35.5053 27.1849 37.2481 27.1378C36.643 27.6086 36.0863 28.1029 35.5537 28.6678C32.528 31.8221 30.8578 36.1532 30.8578 40.8846C30.8578 45.6159 32.528 49.9471 35.5537 53.1013C37.2965 54.9138 39.3782 56.2555 41.7504 57.0558C43.4206 57.6208 45.236 57.9032 47.124 57.9032C50.295 57.9032 54.8698 57.0794 58.6217 53.1248C59.9046 51.7831 60.9454 50.206 61.72 48.4641H67.9167C66.8516 51.5948 65.1814 54.4665 62.9787 56.8204ZM21.6839 56.8204C17.6658 52.654 15.4389 46.9812 15.4389 40.8375C15.4389 34.6938 17.6658 28.9739 21.6839 24.7604C25.7505 20.4998 31.3904 18.1695 37.5144 18.1695C39.0394 18.1695 40.5643 18.3107 42.0166 18.5932C49.7624 20.1232 55.8623 25.6549 58.3312 33.2579H52.1346C51.36 31.5161 50.3192 29.9625 49.0363 28.5972C47.3177 26.7847 45.2602 25.4666 42.9123 24.6662C41.2421 24.1013 39.4266 23.8188 37.5386 23.8188C35.2149 23.8188 33.0364 24.2425 31.0273 25.1135C29.115 25.9373 27.4207 27.1143 25.9683 28.6208C25.6052 28.9974 25.2664 29.374 24.9517 29.7742C22.9184 31.9633 21.6113 34.8586 21.1756 38.4365C21.0788 39.0721 21.0304 39.7076 21.0304 40.3432V41.1435C21.0304 41.5437 21.0304 41.9438 21.0546 42.3204V42.4852C21.1272 45.404 21.8049 48.2758 23.0878 50.9828C25.3874 55.8789 29.6718 60.3042 34.6581 63.1053C29.6234 62.5404 25.0969 60.3513 21.6839 56.8204ZM61.0423 22.9714C64.3342 25.6549 66.6096 29.1857 67.723 33.2815H61.8411C60.0498 26.9024 56.0559 21.7003 50.7065 18.4755C54.5794 19.0404 58.1134 20.5704 61.0423 22.9714ZM49.0121 53.0777C50.295 51.736 51.3358 50.1589 52.1104 48.417H57.9197C57.4114 49.3115 56.8063 50.1118 56.1043 50.8415C53.2723 53.8074 49.8351 54.5136 47.3661 54.5607C47.947 54.137 48.5037 53.6191 49.0121 53.0777ZM71.8138 45.1451H49.7624L49.3509 46.2514C48.6974 48.0169 47.7534 49.5704 46.5189 50.8651C45.2844 52.1597 43.8563 53.1248 42.2345 53.7368C40.6127 53.1013 39.1846 52.1362 37.9743 50.8651C35.5295 48.3229 34.1982 44.7685 34.1982 40.8846C34.1982 37.0006 35.5295 33.4698 37.9743 30.904C39.112 29.7271 40.4191 28.8091 41.9198 28.1735C42.0409 28.1265 42.1861 28.0558 42.3071 28.0088C43.9047 28.6443 45.3086 29.5859 46.5189 30.857C47.7534 32.1516 48.6974 33.7052 49.3509 35.4706L49.7624 36.5769H71.838C71.838 30.1037 67.602 24.0071 63.245 20.4528C58.7669 16.8042 53.1754 14.8976 47.0756 14.8976C45.4781 14.8976 43.9047 15.0388 42.3555 15.3213C40.7822 15.0388 39.1604 14.874 37.5144 14.874C30.4464 14.874 23.935 17.581 19.2149 22.5242C14.5917 27.3497 12.0501 33.8464 12.0501 40.8375C12.0501 47.8286 14.5917 54.3018 19.2149 59.0566C23.9108 63.9057 30.3979 66.5891 37.4902 66.5891C39.112 66.5891 41.4841 66.5891 43.2511 66.2125C44.7035 66.4714 46.1558 66.5891 47.6081 66.5891C50.6581 66.5891 53.6838 66.0242 56.7337 64.9178C59.0574 64.0704 62.4462 62.3521 65.4719 59.0096L65.4961 58.986C68.546 55.7612 71.4507 50.9592 71.8138 45.1451Z" fill="white"/>
</svg>
