<svg width="139" height="31" viewBox="0 0 139 31" fill="none" xmlns="http://www.w3.org/2000/svg">
<g clip-path="url(#clip0_670_3840)">
<path opacity="0.82" d="M16.1236 5.67045L11.1343 0.71579L6.14493 5.67045L11.1343 10.6251L16.1236 5.67045Z" fill="#151A1A"/>
<path opacity="0.82" d="M11.1305 10.6251L6.14111 5.67043L1.15177 10.6251L6.14111 15.5797L11.1305 10.6251Z" fill="#151A1A"/>
<path d="M16.1236 15.5795L11.1343 10.6249L6.14493 15.5795L11.1343 20.5342L16.1236 15.5795Z" fill="#151A1A"/>
<path opacity="0.64" d="M26.1031 15.5795L21.1138 10.6249L16.1244 15.5795L21.1138 20.5342L26.1031 15.5795Z" fill="#151A1A"/>
<path opacity="0.64" d="M11.1305 20.5343L6.14111 15.5797L1.15177 20.5343L6.14111 25.489L11.1305 20.5343Z" fill="#151A1A"/>
<path opacity="0.56" d="M16.1236 25.4912L11.1343 20.5365L6.14493 25.4912L11.1343 30.4459L16.1236 25.4912Z" fill="#151A1A"/>
<path d="M34.6069 9.7229V12.2263H45.7837V9.7229H34.6069ZM37.2591 16.4821H44.666V13.9787H37.2591L34.6069 13.9608V21.5247H45.7837V19.0213H37.2591V16.4821Z" fill="#151A1A"/>
<path d="M58.9769 14.8191C58.7685 13.4244 58.0486 12.1369 56.931 11.2071C55.908 10.3487 54.601 9.83019 53.256 9.74078L47.6865 9.7229V12.2263H52.9339C53.1233 12.2442 53.3127 12.262 53.4833 12.2978C54.0136 12.4051 54.5062 12.6197 54.9419 12.9237C55.6617 13.4244 56.1353 14.1575 56.3248 14.9801C56.3626 15.1946 56.3817 15.4271 56.3817 15.6417C56.3817 15.892 56.3626 16.1245 56.3058 16.357C56.0027 17.7338 54.8093 18.8066 53.3317 19.0213H50.3387V13.9787H47.6865V21.5247H53.5401C56.3248 21.2028 58.579 19.1464 58.9769 16.5179C59.0148 16.2317 59.0526 15.9456 59.0526 15.6417C59.0526 15.3735 59.0337 15.0874 58.9769 14.8191Z" fill="#151A1A"/>
<path d="M64.9861 13.9963L65.3082 14.6758L66.0659 16.2315L66.2175 16.5176H69.3053V19.021H65.9523C64.1147 18.7707 62.7319 17.3223 62.7319 15.6415C62.7319 13.9427 64.1147 12.4943 65.9523 12.2439H71.9384V9.74052H66.5017C64.7968 9.74052 63.2054 10.3485 62.012 11.4393C60.7807 12.5658 60.1177 14.0499 60.1177 15.6415C60.1177 17.2329 60.7807 18.717 62.012 19.8257C63.2054 20.9343 64.7968 21.5244 66.5017 21.5244H71.9764V13.9963H64.9861Z" fill="#151A1A"/>
<path d="M73.8633 9.7229V12.2263H85.04V9.7229H73.8633ZM76.5154 16.4821H83.9223V13.9787H76.5154L73.8633 13.9608V21.5247H85.04V19.0213H76.5154V16.4821Z" fill="#151A1A"/>
<path d="M89.4241 9.7229H86.1089L86.4689 10.3309L90.5606 17.3225L92.2277 14.4973L89.4241 9.7229ZM97.153 9.7229L97.0583 9.88383L94.1599 14.837L93.6105 15.7669L93.2886 16.3033L91.6215 19.1286L92.9665 21.5247H93.6674L100.128 10.3309L100.487 9.7229H97.153Z" fill="#151A1A"/>
<path d="M97.3852 20.8285L96.9873 21.5259H100.321L100.454 21.2934L103.163 16.6621L101.496 13.8369L97.3852 20.8285ZM111.062 20.8285L105.759 11.7984L104.66 9.9387L104.546 9.68835H103.902L103.769 9.9387L102.69 11.7984L102.557 12.0308L104.224 14.874L104.261 14.9455L107.993 21.2934L108.126 21.5259H111.46L111.062 20.8285Z" fill="#151A1A"/>
<path d="M112.99 21.5255H115.641V17.5379L112.99 15.0345V21.5255ZM120.472 9.70582V16.0716L113.634 9.63429H112.99V12.5669L122.481 21.5255H123.125V9.70582H120.472Z" fill="#151A1A"/>
<path d="M124.579 20.8285L124.182 21.5259H127.515L127.648 21.2934L130.357 16.6621L128.689 13.8369L124.579 20.8285ZM138.257 20.8285L132.952 11.7984L131.853 9.9387L131.739 9.68835H131.095L130.964 9.9387L129.883 11.7984L129.751 12.0308L131.417 14.874L131.456 14.9455L135.188 21.2934L135.32 21.5259H138.654L138.257 20.8285Z" fill="#151A1A"/>
</g>
<defs>
<clipPath id="clip0_670_3840">
<rect width="137.74" height="29.728" fill="white" transform="translate(0.915039 0.715958)"/>
</clipPath>
</defs>
</svg>
