<svg width="98" height="22" viewBox="0 0 98 22" fill="none" xmlns="http://www.w3.org/2000/svg">
<g clip-path="url(#clip0_649_3799)">
<path opacity="0.82" d="M11.2727 3.76357L7.74658 0.261963L4.22046 3.76357L7.74658 7.26518L11.2727 3.76357Z" fill="white"/>
<path opacity="0.82" d="M7.7439 7.26504L4.21777 3.76343L0.69165 7.26504L4.21777 10.7666L7.7439 7.26504Z" fill="white"/>
<path d="M11.2727 10.7665L7.74658 7.26489L4.22046 10.7665L7.74658 14.2681L11.2727 10.7665Z" fill="white"/>
<path opacity="0.64" d="M18.3254 10.7665L14.7993 7.26489L11.2732 10.7665L14.7993 14.2681L18.3254 10.7665Z" fill="white"/>
<path opacity="0.64" d="M7.7439 14.2682L4.21777 10.7666L0.69165 14.2682L4.21777 17.7698L7.7439 14.2682Z" fill="white"/>
<path opacity="0.56" d="M11.2727 17.7714L7.74658 14.2698L4.22046 17.7714L7.74658 21.273L11.2727 17.7714Z" fill="white"/>
<path d="M24.3354 6.62744V8.39664H32.2344V6.62744H24.3354ZM26.2098 11.4044H31.4445V9.63516H26.2098L24.3354 9.62249V14.9681H32.2344V13.1989H26.2098V11.4044Z" fill="white"/>
<path d="M41.5584 10.2291C41.4111 9.2434 40.9023 8.33348 40.1125 7.67636C39.3895 7.06974 38.4657 6.70327 37.5152 6.64008L33.5791 6.62744V8.39664H37.2876C37.4214 8.40932 37.5553 8.42193 37.6758 8.44721C38.0507 8.52305 38.3988 8.67467 38.7067 8.88953C39.2154 9.2434 39.5501 9.7615 39.684 10.3428C39.7108 10.4945 39.7242 10.6588 39.7242 10.8104C39.7242 10.9873 39.7108 11.1516 39.6706 11.3159C39.4564 12.289 38.613 13.0472 37.5687 13.1989H35.4534V9.63516H33.5791V14.9681H37.716C39.684 14.7407 41.2772 13.2873 41.5584 11.4297C41.5851 11.2274 41.6119 11.0252 41.6119 10.8104C41.6119 10.6209 41.5985 10.4187 41.5584 10.2291Z" fill="white"/>
<path d="M45.8054 9.64759L46.033 10.1278L46.5686 11.2272L46.6756 11.4295H48.8579V13.1987H46.4882C45.1896 13.0218 44.2123 11.9981 44.2123 10.8103C44.2123 9.6097 45.1896 8.58604 46.4882 8.40914H50.7188V6.63989H46.8765C45.6716 6.63989 44.547 7.06956 43.7036 7.84048C42.8333 8.6366 42.3647 9.68547 42.3647 10.8103C42.3647 11.935 42.8333 12.9839 43.7036 13.7674C44.547 14.5509 45.6716 14.9679 46.8765 14.9679H50.7456V9.64759H45.8054Z" fill="white"/>
<path d="M52.0791 6.62744V8.39664H59.978V6.62744H52.0791ZM53.9534 11.4044H59.1881V9.63516H53.9534L52.0791 9.62249V14.9681H59.978V13.1989H53.9534V11.4044Z" fill="white"/>
<path d="M63.0763 6.62744H60.7334L60.9878 7.05711L63.8796 11.9983L65.0578 10.0016L63.0763 6.62744ZM68.5386 6.62744L68.4717 6.74117L66.4233 10.2417L66.0351 10.8989L65.8075 11.278L64.6294 13.2747L65.5799 14.9681H66.0752L70.6408 7.05711L70.895 6.62744H68.5386Z" fill="white"/>
<path d="M68.7026 14.4761L68.4214 14.969H70.7777L70.8715 14.8047L72.7862 11.5316L71.6076 9.5349L68.7026 14.4761ZM78.3685 14.4761L74.6204 8.09427L73.8437 6.77996L73.7632 6.60303H73.308L73.2141 6.77996L72.4515 8.09427L72.3576 8.2585L73.5356 10.2679L73.5622 10.3184L76.1996 14.8047L76.2934 14.969H78.65L78.3685 14.4761Z" fill="white"/>
<path d="M79.731 14.9686H81.605V12.1504L79.731 10.3812V14.9686ZM85.0191 6.61525V11.1141L80.1862 6.5647H79.731V8.63723L86.4386 14.9686H86.8939V6.61525H85.0191Z" fill="white"/>
<path d="M87.9215 14.4761L87.6406 14.969H89.9965L90.0904 14.8047L92.005 11.5316L90.8264 9.5349L87.9215 14.4761ZM97.588 14.4761L93.8392 8.09427L93.0625 6.77996L92.982 6.60303H92.5268L92.4336 6.77996L91.6703 8.09427L91.5764 8.2585L92.7544 10.2679L92.7817 10.3184L95.4191 14.8047L95.5122 14.969H97.8688L97.588 14.4761Z" fill="white"/>
</g>
<defs>
<clipPath id="clip0_649_3799">
<rect width="97.3448" height="21.0097" fill="white" transform="translate(0.524414 0.261963)"/>
</clipPath>
</defs>
</svg>
