<svg width="173" height="48" viewBox="0 0 173 48" fill="none" xmlns="http://www.w3.org/2000/svg">
<path d="M93.1299 16.8096V21.918H93.1757C94.0207 20.8087 95.2271 20.2538 96.795 20.2538C97.4946 20.2538 98.1567 20.368 98.7797 20.5958C99.4032 20.8236 99.9575 21.1672 100.441 21.6269C100.924 22.0862 101.303 22.6601 101.576 23.3493C101.85 24.0379 101.986 24.8335 101.986 25.7356C101.986 26.7523 101.799 27.6971 101.424 28.5698C101.049 29.4431 100.466 30.142 99.6746 30.6681C98.8828 31.1937 97.9004 31.4575 96.7268 31.4575C95.0323 31.4575 93.8258 30.918 93.1065 29.8401H93.0611V31.1783H89.843V16.8096H93.1299ZM80.7821 19.9538C87.0356 19.9538 86.5006 26.6653 86.5006 26.6653H77.94C78.2864 28.0009 79.4371 28.8787 81.0227 28.8787C82.9329 28.8787 83.9622 27.7257 83.9622 27.7257L85.7797 29.5813C84.8441 30.5095 83.5877 31.3576 80.9951 31.3576C76.9862 31.3576 74.8484 28.7065 74.8484 25.8964C74.8484 23.0863 76.4523 19.9538 80.7821 19.9538ZM158.65 19.9489C161.34 19.9489 163.051 20.9739 163.051 20.9739L161.946 23.3422C158.365 21.4867 156.743 22.7945 156.743 23.4481C156.743 24.1023 157.385 24.1553 159.879 24.6151C162.373 25.0748 163.532 26.1168 163.532 27.7959C163.532 29.4751 162.088 31.3311 158.561 31.3311C155.032 31.3311 153.429 30.1997 153.429 30.1997L154.498 27.8489C157.26 29.599 160.396 29.0328 160.396 27.9908C160.396 27.2086 159.353 27.0428 158.231 26.9119L157.748 26.8562C157.533 26.8308 157.321 26.8038 157.117 26.7709C155.692 26.5411 153.572 25.7815 153.572 23.5896C153.572 21.3982 155.96 19.9489 158.65 19.9489ZM142.898 16.061V24.7391L147.575 20.2494H151.397L146.762 24.699L151.851 31.3312H148.056L144.576 26.7973L142.898 28.4075V31.3312H139.771V16.061H142.898ZM131.691 19.8787C133.909 19.8787 135.851 20.9818 136.924 22.6353L134.281 24.1884C133.785 23.2483 132.811 22.609 131.691 22.609C130.067 22.609 128.751 23.9503 128.751 25.6047C128.751 27.2587 130.067 28.6005 131.691 28.6005C132.759 28.6005 133.692 28.0178 134.207 27.1486L136.862 28.6658C135.777 30.2673 133.868 31.3313 131.691 31.3313C128.311 31.3313 125.571 28.7671 125.571 25.6047C125.571 22.4419 128.311 19.8787 131.691 19.8787ZM117.159 19.8782C120.538 19.8782 123.279 22.4424 123.279 25.6042C123.279 28.7671 120.538 31.3308 117.159 31.3308C113.778 31.3308 111.039 28.7671 111.039 25.6042C111.039 22.4424 113.778 19.8782 117.159 19.8782ZM61.5901 20.1965V31.2254H58.1959V20.1965H61.5901ZM55.148 16.856V19.6131H47.5578V23.2717H54.2656V26.0026H47.5578V31.2252H44.163V16.856H55.148ZM68.834 21.5747C68.834 21.5747 70.0368 19.6924 72.5221 19.9845V23.0594C72.5221 23.0594 69.8227 22.3703 68.834 25.1541V31.2248H65.6002V20.1964H68.6918L68.834 21.4955V21.5747ZM107.803 16.0077V31.1451H104.382V16.0077H107.803ZM95.8063 22.6771C93.9305 22.6771 92.9924 23.8178 92.9924 26.1002C92.9924 26.9652 93.2341 27.6909 93.717 28.2772C94.2004 28.8629 94.9286 29.1561 95.9032 29.1561C96.5528 29.1561 97.08 28.9869 97.4852 28.6485C97.89 28.3096 98.177 27.8956 98.3468 27.4055C98.5172 26.9159 98.6021 26.4268 98.6021 25.9387C98.6021 25.0007 98.3796 24.2236 97.9348 23.6049C97.4899 22.9862 96.7799 22.6771 95.8063 22.6771ZM117.159 22.609C115.534 22.609 114.218 23.9498 114.218 25.6042C114.218 27.2592 115.534 28.6005 117.159 28.6005C118.782 28.6005 120.098 27.2592 120.098 25.6042C120.098 23.9498 118.782 22.609 117.159 22.609ZM80.8352 22.3571C79.1813 22.3571 78.2619 23.3759 77.9515 24.7033H83.4945C83.4674 24.3582 82.9199 22.3571 80.8352 22.3571ZM59.8931 15C60.9943 15 61.8881 15.8193 61.8881 16.8293C61.8881 17.8394 60.9943 18.6586 59.8931 18.6586C58.7913 18.6586 57.8974 17.8394 57.8974 16.8293C57.8974 15.8193 58.7913 15 59.8931 15Z" fill="#778A96"/>
<path d="M32.8191 12.4286C33.3303 12.4286 33.7448 12.843 33.7448 13.3543V34.6457C33.7448 35.157 33.3303 35.5714 32.8191 35.5714H11.2295C10.7183 35.5714 10.3038 35.157 10.3038 34.6457V13.3543C10.3038 12.843 10.7183 12.4286 11.2295 12.4286H32.8191ZM22.0243 18.8572L15.5129 29.1429H28.5356L22.0243 18.8572Z" fill="#778A96"/>
</svg>
