<svg width="173" height="48" viewBox="0 0 173 48" fill="none" xmlns="http://www.w3.org/2000/svg">
<path d="M92.364 16.8096V21.918H92.4098C93.2547 20.8087 94.4612 20.2538 96.0291 20.2538C96.7287 20.2538 97.3908 20.368 98.0138 20.5958C98.6373 20.8236 99.1916 21.1672 99.6755 21.6269C100.158 22.0862 100.537 22.6601 100.81 23.3493C101.084 24.0379 101.22 24.8335 101.22 25.7356C101.22 26.7523 101.034 27.6971 100.658 28.5698C100.283 29.4431 99.7 30.142 98.9087 30.6681C98.1169 31.1937 97.1345 31.4575 95.9609 31.4575C94.2664 31.4575 93.0599 30.918 92.3405 29.8401H92.2952V31.1783H89.0771V16.8096H92.364ZM80.0162 19.9538C86.2697 19.9538 85.7347 26.6653 85.7347 26.6653H77.1741C77.5205 28.0009 78.6712 28.8787 80.2568 28.8787C82.167 28.8787 83.1963 27.7257 83.1963 27.7257L85.0138 29.5813C84.0782 30.5095 82.8218 31.3576 80.2292 31.3576C76.2203 31.3576 74.0825 28.7065 74.0825 25.8964C74.0825 23.0863 75.6864 19.9538 80.0162 19.9538ZM157.884 19.9489C160.575 19.9489 162.285 20.9739 162.285 20.9739L161.18 23.3422C157.599 21.4867 155.978 22.7945 155.978 23.4481C155.978 24.1023 156.619 24.1553 159.113 24.6151C161.608 25.0748 162.766 26.1168 162.766 27.7959C162.766 29.4751 161.322 31.3311 157.795 31.3311C154.266 31.3311 152.663 30.1997 152.663 30.1997L153.732 27.8489C156.494 29.599 159.63 29.0328 159.63 27.9908C159.63 27.2086 158.587 27.0428 157.465 26.9119L156.982 26.8562C156.767 26.8308 156.555 26.8038 156.352 26.7709C154.926 26.5411 152.806 25.7815 152.806 23.5896C152.806 21.3982 155.194 19.9489 157.884 19.9489ZM142.132 16.061V24.7391L146.809 20.2494H150.631L145.996 24.699L151.085 31.3312H147.29L143.81 26.7973L142.132 28.4075V31.3312H139.005V16.061H142.132ZM130.925 19.8787C133.143 19.8787 135.085 20.9818 136.158 22.6353L133.515 24.1884C133.019 23.2483 132.045 22.609 130.925 22.609C129.301 22.609 127.985 23.9503 127.985 25.6047C127.985 27.2587 129.301 28.6005 130.925 28.6005C131.993 28.6005 132.926 28.0178 133.441 27.1486L136.096 28.6658C135.011 30.2673 133.102 31.3313 130.925 31.3313C127.545 31.3313 124.805 28.7671 124.805 25.6047C124.805 22.4419 127.545 19.8787 130.925 19.8787ZM116.393 19.8782C119.772 19.8782 122.513 22.4424 122.513 25.6042C122.513 28.7671 119.772 31.3308 116.393 31.3308C113.012 31.3308 110.273 28.7671 110.273 25.6042C110.273 22.4424 113.012 19.8782 116.393 19.8782ZM60.8242 20.1965V31.2254H57.43V20.1965H60.8242ZM54.3821 16.856V19.6131H46.7919V23.2717H53.4996V26.0026H46.7919V31.2252H43.3971V16.856H54.3821ZM68.0681 21.5747C68.0681 21.5747 69.2709 19.6924 71.7562 19.9845V23.0594C71.7562 23.0594 69.0568 22.3703 68.0681 25.1541V31.2248H64.8343V20.1964H67.9259L68.0681 21.4955V21.5747ZM107.037 16.0077V31.1451H103.616V16.0077H107.037ZM95.0404 22.6771C93.1646 22.6771 92.2265 23.8178 92.2265 26.1002C92.2265 26.9652 92.4682 27.6909 92.9511 28.2772C93.4345 28.8629 94.1627 29.1561 95.1373 29.1561C95.7869 29.1561 96.3141 28.9869 96.7193 28.6485C97.1241 28.3096 97.4111 27.8956 97.5809 27.4055C97.7513 26.9159 97.8362 26.4268 97.8362 25.9387C97.8362 25.0007 97.6137 24.2236 97.1689 23.6049C96.724 22.9862 96.014 22.6771 95.0404 22.6771ZM116.393 22.609C114.768 22.609 113.452 23.9498 113.452 25.6042C113.452 27.2592 114.768 28.6005 116.393 28.6005C118.016 28.6005 119.332 27.2592 119.332 25.6042C119.332 23.9498 118.016 22.609 116.393 22.609ZM80.0693 22.3571C78.4154 22.3571 77.496 23.3759 77.1856 24.7033H82.7286C82.7015 24.3582 82.154 22.3571 80.0693 22.3571ZM59.1271 15C60.2284 15 61.1222 15.8193 61.1222 16.8293C61.1222 17.8394 60.2284 18.6586 59.1271 18.6586C58.0254 18.6586 57.1315 17.8394 57.1315 16.8293C57.1315 15.8193 58.0254 15 59.1271 15Z" fill="#8CA4A6"/>
<path d="M32.0532 12.4286C32.5644 12.4286 32.9789 12.843 32.9789 13.3543V34.6457C32.9789 35.157 32.5644 35.5714 32.0532 35.5714H10.4636C9.95239 35.5714 9.53793 35.157 9.53793 34.6457V13.3543C9.53793 12.843 9.95239 12.4286 10.4636 12.4286H32.0532ZM21.2584 18.8572L14.747 29.1429H27.7697L21.2584 18.8572Z" fill="#8CA4A6"/>
</svg>
