<svg width="648" height="430" viewBox="0 0 648 430" fill="none" xmlns="http://www.w3.org/2000/svg">
<path opacity="0.24" d="M506.312 416.168C505.583 416.168 504.938 416.056 504.378 415.832C503.818 415.6 503.373 415.275 503.045 414.859C502.725 414.443 502.548 413.958 502.516 413.406H503.994C504.058 413.87 504.294 414.235 504.702 414.499C505.111 414.763 505.647 414.895 506.312 414.895C506.856 414.895 507.268 414.799 507.549 414.607C507.837 414.407 507.981 414.126 507.981 413.766C507.981 413.462 507.873 413.226 507.657 413.058C507.441 412.889 507.104 412.733 506.648 412.589L505.279 412.181C504.782 412.029 504.366 411.877 504.03 411.724C503.701 411.572 503.405 411.34 503.141 411.028C502.885 410.716 502.757 410.307 502.757 409.803C502.757 409.338 502.877 408.926 503.117 408.566C503.365 408.206 503.713 407.925 504.162 407.725C504.618 407.517 505.151 407.413 505.759 407.413C506.776 407.413 507.589 407.669 508.197 408.181C508.806 408.694 509.138 409.394 509.194 410.283H507.729C507.697 409.795 507.505 409.411 507.152 409.13C506.808 408.842 506.328 408.698 505.711 408.698C505.247 408.698 504.874 408.79 504.594 408.974C504.322 409.158 504.186 409.411 504.186 409.731C504.186 409.955 504.25 410.139 504.378 410.283C504.514 410.419 504.67 410.523 504.846 410.595C505.031 410.668 505.327 410.772 505.735 410.908L507.008 411.304C507.521 411.464 507.941 411.628 508.269 411.796C508.606 411.957 508.886 412.189 509.11 412.493C509.334 412.797 509.446 413.198 509.446 413.694C509.446 414.455 509.162 415.059 508.593 415.508C508.033 415.948 507.272 416.168 506.312 416.168ZM513.509 416.168C512.837 416.168 512.252 416.024 511.756 415.736C511.267 415.44 510.891 415.035 510.627 414.523C510.371 414.002 510.242 413.414 510.242 412.757C510.242 412.077 510.383 411.488 510.663 410.992C510.951 410.487 511.339 410.103 511.828 409.839C512.324 409.575 512.885 409.443 513.509 409.443C514.174 409.443 514.75 409.587 515.239 409.875C515.735 410.163 516.111 410.559 516.368 411.064C516.632 411.56 516.764 412.125 516.764 412.757C516.764 413.462 516.624 414.07 516.344 414.583C516.071 415.095 515.687 415.488 515.191 415.76C514.702 416.032 514.142 416.168 513.509 416.168ZM511.684 412.757C511.684 413.438 511.852 413.978 512.188 414.379C512.532 414.771 512.973 414.967 513.509 414.967C514.07 414.967 514.51 414.763 514.83 414.355C515.159 413.938 515.323 413.406 515.323 412.757C515.323 412.125 515.159 411.616 514.83 411.232C514.502 410.848 514.062 410.656 513.509 410.656C512.957 410.656 512.512 410.848 512.176 411.232C511.848 411.616 511.684 412.125 511.684 412.757ZM520.156 416.168C519.411 416.168 518.827 415.96 518.402 415.544C517.978 415.119 517.766 414.555 517.766 413.85V409.635H519.183V413.79C519.183 414.142 519.295 414.423 519.519 414.631C519.751 414.831 520.06 414.931 520.444 414.931C520.916 414.931 521.293 414.795 521.573 414.523C521.853 414.251 521.997 413.902 522.005 413.478V409.635H523.422V416H522.282L522.173 415.075C521.989 415.42 521.717 415.688 521.357 415.88C521.004 416.072 520.604 416.168 520.156 416.168ZM524.864 409.635H526.005L526.173 410.884C526.589 410.003 527.326 409.563 528.383 409.563H528.623V410.944H528.383C527.718 410.944 527.202 411.112 526.834 411.448C526.465 411.784 526.281 412.253 526.281 412.853V416H524.864V409.635ZM532.334 416.168C531.661 416.168 531.077 416.02 530.581 415.724C530.084 415.428 529.704 415.023 529.44 414.511C529.175 413.998 529.043 413.418 529.043 412.769C529.043 412.089 529.183 411.5 529.464 411.004C529.744 410.499 530.132 410.115 530.629 409.851C531.125 409.579 531.681 409.443 532.298 409.443C532.874 409.443 533.383 409.555 533.823 409.779C534.272 409.995 534.624 410.303 534.88 410.704C535.144 411.104 535.296 411.568 535.336 412.097H533.943C533.879 411.656 533.699 411.308 533.403 411.052C533.107 410.788 532.734 410.656 532.286 410.656C531.741 410.656 531.305 410.848 530.977 411.232C530.649 411.608 530.484 412.121 530.484 412.769C530.484 413.45 530.657 413.986 531.001 414.379C531.345 414.771 531.79 414.967 532.334 414.967C532.766 414.967 533.123 414.839 533.403 414.583C533.691 414.319 533.871 413.958 533.943 413.502H535.336C535.248 414.327 534.936 414.979 534.4 415.46C533.871 415.932 533.183 416.168 532.334 416.168ZM539.383 416.168C538.742 416.168 538.174 416.028 537.677 415.748C537.181 415.46 536.792 415.063 536.512 414.559C536.24 414.054 536.104 413.482 536.104 412.841C536.104 412.161 536.24 411.564 536.512 411.052C536.792 410.531 537.173 410.135 537.653 409.863C538.133 409.583 538.67 409.443 539.262 409.443C539.863 409.443 540.387 409.579 540.836 409.851C541.292 410.115 541.648 410.499 541.905 411.004C542.161 411.5 542.293 412.089 542.301 412.769V413.106H537.521C537.569 413.674 537.757 414.13 538.085 414.475C538.422 414.811 538.858 414.979 539.395 414.979C539.763 414.979 540.079 414.895 540.343 414.727C540.608 414.551 540.792 414.303 540.896 413.982H542.277C542.117 414.671 541.781 415.207 541.268 415.592C540.764 415.976 540.135 416.168 539.383 416.168ZM540.836 412.109C540.748 411.644 540.564 411.284 540.283 411.028C540.011 410.772 539.671 410.644 539.262 410.644C538.846 410.644 538.49 410.776 538.194 411.04C537.897 411.296 537.693 411.652 537.581 412.109H540.836ZM544.055 416.156C543.799 416.156 543.583 416.068 543.407 415.892C543.231 415.716 543.143 415.496 543.143 415.231C543.143 414.975 543.231 414.759 543.407 414.583C543.583 414.407 543.799 414.319 544.055 414.319C544.32 414.319 544.54 414.407 544.716 414.583C544.892 414.759 544.98 414.975 544.98 415.231C544.98 415.496 544.892 415.716 544.716 415.892C544.54 416.068 544.32 416.156 544.055 416.156ZM544.055 411.28C543.799 411.28 543.583 411.192 543.407 411.016C543.231 410.84 543.143 410.62 543.143 410.355C543.143 410.099 543.231 409.883 543.407 409.707C543.583 409.531 543.799 409.443 544.055 409.443C544.32 409.443 544.54 409.531 544.716 409.707C544.892 409.883 544.98 410.099 544.98 410.355C544.98 410.62 544.892 410.84 544.716 411.016C544.54 411.192 544.32 411.28 544.055 411.28ZM551.721 416.168C551.049 416.168 550.464 416.02 549.968 415.724C549.471 415.428 549.091 415.023 548.827 414.511C548.563 413.998 548.43 413.418 548.43 412.769C548.43 412.089 548.571 411.5 548.851 411.004C549.131 410.499 549.519 410.115 550.016 409.851C550.512 409.579 551.069 409.443 551.685 409.443C552.262 409.443 552.77 409.555 553.21 409.779C553.659 409.995 554.011 410.303 554.267 410.704C554.532 411.104 554.684 411.568 554.724 412.097H553.331C553.267 411.656 553.086 411.308 552.79 411.052C552.494 410.788 552.122 410.656 551.673 410.656C551.129 410.656 550.692 410.848 550.364 411.232C550.036 411.608 549.872 412.121 549.872 412.769C549.872 413.45 550.044 413.986 550.388 414.379C550.732 414.771 551.177 414.967 551.721 414.967C552.154 414.967 552.51 414.839 552.79 414.583C553.078 414.319 553.258 413.958 553.331 413.502H554.724C554.636 414.327 554.323 414.979 553.787 415.46C553.258 415.932 552.57 416.168 551.721 416.168ZM558.758 416.168C558.085 416.168 557.501 416.024 557.004 415.736C556.516 415.44 556.14 415.035 555.875 414.523C555.619 414.002 555.491 413.414 555.491 412.757C555.491 412.077 555.631 411.488 555.911 410.992C556.2 410.487 556.588 410.103 557.076 409.839C557.573 409.575 558.133 409.443 558.758 409.443C559.422 409.443 559.999 409.587 560.487 409.875C560.984 410.163 561.36 410.559 561.616 411.064C561.88 411.56 562.012 412.125 562.012 412.757C562.012 413.462 561.872 414.07 561.592 414.583C561.32 415.095 560.936 415.488 560.439 415.76C559.951 416.032 559.39 416.168 558.758 416.168ZM556.932 412.757C556.932 413.438 557.1 413.978 557.437 414.379C557.781 414.771 558.221 414.967 558.758 414.967C559.318 414.967 559.759 414.763 560.079 414.355C560.407 413.938 560.571 413.406 560.571 412.757C560.571 412.125 560.407 411.616 560.079 411.232C559.751 410.848 559.31 410.656 558.758 410.656C558.205 410.656 557.761 410.848 557.425 411.232C557.096 411.616 556.932 412.125 556.932 412.757ZM563.122 409.635H564.54V416H563.122V409.635ZM562.918 407.857C562.918 407.601 563.006 407.385 563.183 407.209C563.359 407.033 563.575 406.944 563.831 406.944C564.095 406.944 564.311 407.033 564.48 407.209C564.656 407.385 564.744 407.601 564.744 407.857C564.744 408.121 564.656 408.342 564.48 408.518C564.311 408.694 564.095 408.782 563.831 408.782C563.575 408.782 563.359 408.694 563.183 408.518C563.006 408.334 562.918 408.113 562.918 407.857ZM565.984 409.635H567.125L567.245 410.571C567.445 410.235 567.738 409.963 568.122 409.755C568.506 409.547 568.931 409.443 569.395 409.443C570.076 409.443 570.62 409.655 571.028 410.079C571.437 410.503 571.641 411.072 571.641 411.784V416H570.224V411.857C570.224 411.496 570.112 411.212 569.887 411.004C569.663 410.788 569.355 410.68 568.963 410.68C568.506 410.68 568.134 410.82 567.846 411.1C567.558 411.372 567.409 411.72 567.401 412.145V416H565.984V409.635ZM575.904 418.582C575.312 418.582 574.787 418.49 574.331 418.306C573.883 418.13 573.53 417.874 573.274 417.537C573.026 417.201 572.902 416.805 572.902 416.348H574.319C574.319 416.661 574.463 416.917 574.751 417.117C575.048 417.325 575.432 417.429 575.904 417.429C576.457 417.429 576.881 417.281 577.177 416.985C577.474 416.697 577.622 416.304 577.622 415.808V414.907C577.414 415.219 577.133 415.464 576.781 415.64C576.437 415.816 576.04 415.904 575.592 415.904C575.032 415.904 574.527 415.768 574.079 415.496C573.638 415.223 573.29 414.843 573.034 414.355C572.786 413.866 572.662 413.31 572.662 412.685C572.662 412.061 572.786 411.504 573.034 411.016C573.282 410.519 573.626 410.135 574.067 409.863C574.515 409.583 575.02 409.443 575.58 409.443C576.068 409.443 576.505 409.551 576.889 409.767C577.281 409.975 577.578 410.259 577.778 410.62L577.898 409.635H579.027V415.808C579.027 416.36 578.899 416.845 578.643 417.261C578.394 417.685 578.034 418.01 577.562 418.234C577.089 418.466 576.537 418.582 575.904 418.582ZM574.127 412.685C574.127 413.286 574.287 413.774 574.607 414.15C574.935 414.527 575.356 414.715 575.868 414.715C576.381 414.715 576.801 414.527 577.129 414.15C577.458 413.766 577.622 413.274 577.622 412.673C577.622 412.073 577.458 411.584 577.129 411.208C576.809 410.832 576.389 410.644 575.868 410.644C575.348 410.644 574.927 410.832 574.607 411.208C574.287 411.584 574.127 412.077 574.127 412.685ZM583.4 416.168C582.759 416.168 582.191 416.028 581.694 415.748C581.198 415.46 580.809 415.063 580.529 414.559C580.257 414.054 580.121 413.482 580.121 412.841C580.121 412.161 580.257 411.564 580.529 411.052C580.809 410.531 581.19 410.135 581.67 409.863C582.151 409.583 582.687 409.443 583.28 409.443C583.88 409.443 584.404 409.579 584.853 409.851C585.309 410.115 585.666 410.499 585.922 411.004C586.178 411.5 586.31 412.089 586.318 412.769V413.106H581.538C581.586 413.674 581.774 414.13 582.103 414.475C582.439 414.811 582.875 414.979 583.412 414.979C583.78 414.979 584.096 414.895 584.36 414.727C584.625 414.551 584.809 414.303 584.913 413.982H586.294C586.134 414.671 585.798 415.207 585.285 415.592C584.781 415.976 584.152 416.168 583.4 416.168ZM584.853 412.109C584.765 411.644 584.581 411.284 584.3 411.028C584.028 410.772 583.688 410.644 583.28 410.644C582.863 410.644 582.507 410.776 582.211 411.04C581.914 411.296 581.71 411.652 581.598 412.109H584.853ZM590.378 416.168C589.706 416.168 589.121 416.02 588.625 415.724C588.129 415.428 587.748 415.023 587.484 414.511C587.22 413.998 587.088 413.418 587.088 412.769C587.088 412.089 587.228 411.5 587.508 411.004C587.788 410.499 588.177 410.115 588.673 409.851C589.169 409.579 589.726 409.443 590.342 409.443C590.919 409.443 591.427 409.555 591.868 409.779C592.316 409.995 592.668 410.303 592.925 410.704C593.189 411.104 593.341 411.568 593.381 412.097H591.988C591.924 411.656 591.744 411.308 591.447 411.052C591.151 410.788 590.779 410.656 590.33 410.656C589.786 410.656 589.35 410.848 589.021 411.232C588.693 411.608 588.529 412.121 588.529 412.769C588.529 413.45 588.701 413.986 589.045 414.379C589.39 414.771 589.834 414.967 590.378 414.967C590.811 414.967 591.167 414.839 591.447 414.583C591.736 414.319 591.916 413.958 591.988 413.502H593.381C593.293 414.327 592.981 414.979 592.444 415.46C591.916 415.932 591.227 416.168 590.378 416.168ZM594.509 406.992H595.926V412.397L598.64 409.635H600.369L598.063 411.929L600.682 416H599.036L597.079 412.913L595.926 414.066V416H594.509V406.992ZM603.913 416.168C603.24 416.168 602.655 416.024 602.159 415.736C601.671 415.44 601.294 415.035 601.03 414.523C600.774 414.002 600.646 413.414 600.646 412.757C600.646 412.077 600.786 411.488 601.066 410.992C601.354 410.487 601.743 410.103 602.231 409.839C602.728 409.575 603.288 409.443 603.913 409.443C604.577 409.443 605.154 409.587 605.642 409.875C606.138 410.163 606.515 410.559 606.771 411.064C607.035 411.56 607.167 412.125 607.167 412.757C607.167 413.462 607.027 414.07 606.747 414.583C606.475 415.095 606.09 415.488 605.594 415.76C605.106 416.032 604.545 416.168 603.913 416.168ZM602.087 412.757C602.087 413.438 602.255 413.978 602.591 414.379C602.936 414.771 603.376 414.967 603.913 414.967C604.473 414.967 604.913 414.763 605.234 414.355C605.562 413.938 605.726 413.406 605.726 412.757C605.726 412.125 605.562 411.616 605.234 411.232C604.905 410.848 604.465 410.656 603.913 410.656C603.36 410.656 602.916 410.848 602.579 411.232C602.251 411.616 602.087 412.125 602.087 412.757ZM608.926 416.156C608.67 416.156 608.453 416.068 608.277 415.892C608.101 415.716 608.013 415.496 608.013 415.231C608.013 414.975 608.101 414.759 608.277 414.583C608.453 414.407 608.67 414.319 608.926 414.319C609.19 414.319 609.41 414.407 609.586 414.583C609.762 414.759 609.851 414.975 609.851 415.231C609.851 415.496 609.762 415.716 609.586 415.892C609.41 416.068 609.19 416.156 608.926 416.156ZM613.976 416.168C613.304 416.168 612.719 416.02 612.223 415.724C611.726 415.428 611.346 415.023 611.082 414.511C610.818 413.998 610.685 413.418 610.685 412.769C610.685 412.089 610.826 411.5 611.106 411.004C611.386 410.499 611.774 410.115 612.271 409.851C612.767 409.579 613.324 409.443 613.94 409.443C614.517 409.443 615.025 409.555 615.465 409.779C615.914 409.995 616.266 410.303 616.522 410.704C616.787 411.104 616.939 411.568 616.979 412.097H615.586C615.521 411.656 615.341 411.308 615.045 411.052C614.749 410.788 614.377 410.656 613.928 410.656C613.384 410.656 612.947 410.848 612.619 411.232C612.291 411.608 612.127 412.121 612.127 412.769C612.127 413.45 612.299 413.986 612.643 414.379C612.987 414.771 613.432 414.967 613.976 414.967C614.409 414.967 614.765 414.839 615.045 414.583C615.333 414.319 615.513 413.958 615.586 413.502H616.979C616.891 414.327 616.578 414.979 616.042 415.46C615.513 415.932 614.825 416.168 613.976 416.168ZM621.013 416.168C620.34 416.168 619.756 416.024 619.259 415.736C618.771 415.44 618.395 415.035 618.13 414.523C617.874 414.002 617.746 413.414 617.746 412.757C617.746 412.077 617.886 411.488 618.166 410.992C618.455 410.487 618.843 410.103 619.331 409.839C619.828 409.575 620.388 409.443 621.013 409.443C621.677 409.443 622.254 409.587 622.742 409.875C623.239 410.163 623.615 410.559 623.871 411.064C624.135 411.56 624.267 412.125 624.267 412.757C624.267 413.462 624.127 414.07 623.847 414.583C623.575 415.095 623.191 415.488 622.694 415.76C622.206 416.032 621.645 416.168 621.013 416.168ZM619.187 412.757C619.187 413.438 619.355 413.978 619.692 414.379C620.036 414.771 620.476 414.967 621.013 414.967C621.573 414.967 622.014 414.763 622.334 414.355C622.662 413.938 622.826 413.406 622.826 412.757C622.826 412.125 622.662 411.616 622.334 411.232C622.006 410.848 621.565 410.656 621.013 410.656C620.46 410.656 620.016 410.848 619.68 411.232C619.351 411.616 619.187 412.125 619.187 412.757ZM625.377 409.635H626.518L626.626 410.523C626.835 410.203 627.123 409.943 627.491 409.743C627.867 409.543 628.288 409.443 628.752 409.443C629.201 409.443 629.593 409.551 629.929 409.767C630.273 409.975 630.53 410.263 630.698 410.632C630.882 410.279 631.17 409.995 631.563 409.779C631.955 409.555 632.395 409.443 632.884 409.443C633.548 409.443 634.077 409.659 634.469 410.091C634.869 410.515 635.069 411.072 635.069 411.76V416H633.64V411.833C633.64 411.48 633.54 411.2 633.34 410.992C633.14 410.776 632.868 410.668 632.523 410.668C632.043 410.668 631.659 410.808 631.37 411.088C631.082 411.36 630.934 411.712 630.926 412.145V416H629.509V411.833C629.509 411.48 629.409 411.2 629.209 410.992C629.008 410.776 628.736 410.668 628.392 410.668C627.912 410.668 627.527 410.808 627.239 411.088C626.951 411.36 626.803 411.712 626.795 412.145V416H625.377V409.635Z" fill="white"/>
<path d="M160.35 56.336C158.894 56.336 157.606 56.112 156.486 55.664C155.366 55.2 154.478 54.552 153.822 53.72C153.182 52.888 152.83 51.92 152.766 50.816H155.718C155.846 51.744 156.318 52.472 157.134 53C157.95 53.528 159.022 53.792 160.35 53.792C161.438 53.792 162.262 53.6 162.822 53.216C163.398 52.816 163.686 52.256 163.686 51.536C163.686 50.928 163.47 50.456 163.038 50.12C162.606 49.784 161.934 49.472 161.022 49.184L158.286 48.368C157.294 48.064 156.462 47.76 155.79 47.456C155.134 47.152 154.542 46.688 154.014 46.064C153.502 45.44 153.246 44.624 153.246 43.616C153.246 42.688 153.486 41.864 153.966 41.144C154.462 40.424 155.158 39.864 156.054 39.464C156.966 39.048 158.03 38.84 159.246 38.84C161.278 38.84 162.902 39.352 164.118 40.376C165.334 41.4 165.998 42.8 166.11 44.576H163.182C163.118 43.6 162.734 42.832 162.03 42.272C161.342 41.696 160.382 41.408 159.15 41.408C158.222 41.408 157.478 41.592 156.918 41.96C156.374 42.328 156.102 42.832 156.102 43.472C156.102 43.92 156.23 44.288 156.486 44.576C156.758 44.848 157.07 45.056 157.422 45.2C157.79 45.344 158.382 45.552 159.198 45.824L161.742 46.616C162.766 46.936 163.606 47.264 164.262 47.6C164.934 47.92 165.494 48.384 165.942 48.992C166.39 49.6 166.614 50.4 166.614 51.392C166.614 52.912 166.046 54.12 164.91 55.016C163.79 55.896 162.27 56.336 160.35 56.336ZM176.798 56.336C175.15 56.336 173.694 55.976 172.43 55.256C171.166 54.536 170.182 53.512 169.478 52.184C168.774 50.856 168.422 49.312 168.422 47.552C168.422 45.856 168.758 44.352 169.43 43.04C170.118 41.712 171.094 40.68 172.358 39.944C173.622 39.208 175.102 38.84 176.798 38.84C178.446 38.84 179.91 39.2 181.19 39.92C182.47 40.64 183.462 41.656 184.166 42.968C184.87 44.28 185.222 45.808 185.222 47.552C185.222 49.264 184.878 50.784 184.19 52.112C183.502 53.44 182.518 54.48 181.238 55.232C179.974 55.968 178.494 56.336 176.798 56.336ZM171.35 47.552C171.35 48.8 171.566 49.896 171.998 50.84C172.446 51.768 173.078 52.488 173.894 53C174.726 53.496 175.694 53.744 176.798 53.744C177.902 53.744 178.87 53.496 179.702 53C180.534 52.488 181.174 51.768 181.622 50.84C182.07 49.896 182.294 48.8 182.294 47.552C182.294 46.32 182.07 45.24 181.622 44.312C181.174 43.384 180.534 42.672 179.702 42.176C178.87 41.68 177.902 41.432 176.798 41.432C175.694 41.432 174.726 41.68 173.894 42.176C173.078 42.672 172.446 43.384 171.998 44.312C171.566 45.24 171.35 46.32 171.35 47.552ZM187.94 39.2H190.82V53.408H199.388V56H187.94V39.2ZM212.51 56C211.134 56 210.078 55.672 209.342 55.016C208.622 54.344 208.262 53.376 208.262 52.112V45.68H206.03V43.28H208.262V38.936H211.094V43.28H214.382V45.68H211.094V51.92C211.094 52.464 211.23 52.88 211.502 53.168C211.774 53.456 212.174 53.6 212.702 53.6H214.142V56H212.51ZM216.456 43.28H218.736L219.072 45.776C219.904 44.016 221.376 43.136 223.488 43.136H223.968V45.896H223.488C222.16 45.896 221.128 46.232 220.392 46.904C219.656 47.576 219.288 48.512 219.288 49.712V56H216.456V43.28ZM231.359 56.336C230.079 56.336 228.943 56.056 227.951 55.496C226.959 54.92 226.183 54.128 225.623 53.12C225.079 52.112 224.807 50.968 224.807 49.688C224.807 48.328 225.079 47.136 225.623 46.112C226.183 45.072 226.943 44.28 227.903 43.736C228.863 43.176 229.935 42.896 231.119 42.896C232.319 42.896 233.367 43.168 234.263 43.712C235.175 44.24 235.887 45.008 236.399 46.016C236.911 47.008 237.175 48.184 237.191 49.544V50.216H227.639C227.735 51.352 228.111 52.264 228.767 52.952C229.439 53.624 230.311 53.96 231.383 53.96C232.119 53.96 232.751 53.792 233.279 53.456C233.807 53.104 234.175 52.608 234.383 51.968H237.143C236.823 53.344 236.151 54.416 235.127 55.184C234.119 55.952 232.863 56.336 231.359 56.336ZM234.263 48.224C234.087 47.296 233.719 46.576 233.159 46.064C232.615 45.552 231.935 45.296 231.119 45.296C230.287 45.296 229.575 45.56 228.983 46.088C228.391 46.6 227.983 47.312 227.759 48.224H234.263ZM243.601 56.264C242.129 56.264 240.953 55.936 240.073 55.28C239.209 54.608 238.777 53.688 238.777 52.52C238.777 51.176 239.273 50.232 240.265 49.688C241.273 49.144 242.593 48.776 244.225 48.584C244.369 48.568 244.801 48.52 245.521 48.44C246.257 48.36 246.785 48.232 247.105 48.056C247.425 47.864 247.585 47.608 247.585 47.288C247.569 46.664 247.329 46.168 246.865 45.8C246.401 45.416 245.769 45.224 244.969 45.224C244.137 45.224 243.441 45.432 242.881 45.848C242.321 46.248 242.001 46.784 241.921 47.456H239.065C239.145 46.576 239.449 45.792 239.977 45.104C240.505 44.4 241.201 43.856 242.065 43.472C242.945 43.088 243.929 42.896 245.017 42.896C246.697 42.896 248.001 43.312 248.929 44.144C249.873 44.976 250.345 46.088 250.345 47.48V53.24C250.345 53.608 250.553 53.792 250.969 53.792H251.665V56H250.321C249.681 56 249.161 55.872 248.761 55.616C248.377 55.36 248.129 54.992 248.017 54.512C247.969 54.368 247.929 54.224 247.897 54.08C247.113 55.536 245.681 56.264 243.601 56.264ZM241.633 52.28C241.633 52.84 241.849 53.272 242.281 53.576C242.729 53.88 243.361 54.032 244.177 54.032C245.169 54.032 245.985 53.776 246.625 53.264C247.265 52.752 247.585 52.072 247.585 51.224V49.448C247.377 49.784 247.033 50.024 246.553 50.168C246.073 50.296 245.401 50.416 244.537 50.528C243.545 50.64 242.809 50.808 242.329 51.032C241.865 51.256 241.633 51.672 241.633 52.28ZM258.598 56.336C256.854 56.336 255.486 55.952 254.494 55.184C253.502 54.416 252.966 53.336 252.886 51.944H255.622C255.67 52.616 255.95 53.136 256.462 53.504C256.99 53.856 257.654 54.032 258.454 54.032C259.174 54.032 259.718 53.904 260.086 53.648C260.47 53.376 260.662 52.992 260.662 52.496C260.662 52.192 260.582 51.952 260.422 51.776C260.278 51.584 260.094 51.448 259.87 51.368C259.646 51.272 259.27 51.136 258.742 50.96L257.062 50.408C256.198 50.12 255.494 49.84 254.95 49.568C254.422 49.296 253.982 48.928 253.63 48.464C253.294 47.984 253.126 47.376 253.126 46.64C253.126 45.488 253.542 44.576 254.374 43.904C255.222 43.232 256.398 42.896 257.902 42.896C259.39 42.896 260.606 43.28 261.55 44.048C262.494 44.816 263.046 45.912 263.206 47.336H260.518C260.454 46.632 260.182 46.104 259.702 45.752C259.238 45.4 258.63 45.224 257.878 45.224C257.254 45.224 256.766 45.352 256.414 45.608C256.078 45.848 255.91 46.184 255.91 46.616C255.91 46.92 256.006 47.168 256.198 47.36C256.39 47.552 256.59 47.688 256.798 47.768C257.006 47.848 257.382 47.984 257.926 48.176L259.462 48.68C260.406 49 261.158 49.312 261.718 49.616C262.278 49.92 262.71 50.304 263.014 50.768C263.334 51.232 263.494 51.832 263.494 52.568C263.494 53.752 263.062 54.68 262.198 55.352C261.35 56.008 260.15 56.336 258.598 56.336ZM270.094 56.336C268.606 56.336 267.438 55.92 266.59 55.088C265.742 54.24 265.318 53.112 265.318 51.704V43.28H268.15V51.584C268.15 52.288 268.374 52.848 268.822 53.264C269.286 53.664 269.902 53.864 270.67 53.864C271.614 53.864 272.366 53.592 272.926 53.048C273.486 52.504 273.774 51.808 273.79 50.96V43.28H276.622V56H274.342L274.126 54.152C273.758 54.84 273.214 55.376 272.494 55.76C271.79 56.144 270.99 56.336 270.094 56.336ZM279.503 43.28H281.783L282.119 45.776C282.951 44.016 284.423 43.136 286.535 43.136H287.015V45.896H286.535C285.207 45.896 284.175 46.232 283.439 46.904C282.703 47.576 282.335 48.512 282.335 49.712V56H279.503V43.28ZM289.036 58.4H291.34C292.332 58.4 292.956 58.04 293.212 57.32L293.716 56H293.188L288.148 43.28H291.196L294.844 52.928L298.42 43.28H301.372L295.828 58.184C295.492 59.064 294.964 59.72 294.244 60.152C293.524 60.584 292.556 60.8 291.34 60.8H289.036V58.4ZM308.402 38H311.234V44.648C311.682 44.104 312.25 43.68 312.938 43.376C313.642 43.056 314.402 42.896 315.218 42.896C316.578 42.896 317.666 43.32 318.482 44.168C319.298 45.016 319.706 46.152 319.706 47.576V56H316.874V47.72C316.874 47 316.65 46.432 316.202 46.016C315.77 45.584 315.178 45.368 314.426 45.368C313.482 45.368 312.714 45.648 312.122 46.208C311.546 46.752 311.25 47.448 311.234 48.296V56H308.402V38ZM328.273 56.336C326.929 56.336 325.761 56.048 324.769 55.472C323.793 54.88 323.041 54.072 322.513 53.048C322.001 52.008 321.745 50.832 321.745 49.52C321.745 48.16 322.025 46.984 322.585 45.992C323.161 44.984 323.937 44.216 324.913 43.688C325.905 43.16 327.025 42.896 328.273 42.896C329.601 42.896 330.753 43.184 331.729 43.76C332.721 44.336 333.473 45.128 333.985 46.136C334.513 47.128 334.777 48.256 334.777 49.52C334.777 50.928 334.497 52.144 333.937 53.168C333.393 54.192 332.625 54.976 331.633 55.52C330.657 56.064 329.537 56.336 328.273 56.336ZM324.625 49.52C324.625 50.88 324.961 51.96 325.633 52.76C326.321 53.544 327.201 53.936 328.273 53.936C329.393 53.936 330.273 53.528 330.913 52.712C331.569 51.88 331.897 50.816 331.897 49.52C331.897 48.256 331.569 47.24 330.913 46.472C330.257 45.704 329.377 45.32 328.273 45.32C327.169 45.32 326.281 45.704 325.609 46.472C324.953 47.24 324.625 48.256 324.625 49.52ZM337.043 38H339.875V56H337.043V38ZM348.039 56.336C346.903 56.336 345.887 56.056 344.991 55.496C344.095 54.92 343.391 54.12 342.879 53.096C342.383 52.056 342.135 50.88 342.135 49.568C342.135 48.272 342.383 47.12 342.879 46.112C343.375 45.104 344.063 44.32 344.943 43.76C345.823 43.184 346.823 42.896 347.943 42.896C348.823 42.896 349.623 43.072 350.343 43.424C351.079 43.76 351.671 44.232 352.119 44.84V38H354.951V56H352.671L352.407 53.744C352.039 54.56 351.471 55.2 350.703 55.664C349.951 56.112 349.063 56.336 348.039 56.336ZM345.039 49.592C345.039 50.872 345.367 51.92 346.023 52.736C346.679 53.552 347.527 53.96 348.567 53.96C349.255 53.96 349.863 53.776 350.391 53.408C350.935 53.024 351.359 52.496 351.663 51.824C351.967 51.152 352.119 50.392 352.119 49.544C352.119 48.28 351.791 47.256 351.135 46.472C350.495 45.672 349.655 45.272 348.615 45.272C347.559 45.272 346.695 45.672 346.023 46.472C345.367 47.272 345.039 48.312 345.039 49.592ZM357.878 43.28H360.71V56H357.878V43.28ZM357.47 39.728C357.47 39.216 357.646 38.784 357.998 38.432C358.35 38.08 358.782 37.904 359.294 37.904C359.822 37.904 360.254 38.08 360.59 38.432C360.942 38.784 361.118 39.216 361.118 39.728C361.118 40.256 360.942 40.696 360.59 41.048C360.254 41.4 359.822 41.576 359.294 41.576C358.782 41.576 358.35 41.4 357.998 41.048C357.646 40.68 357.47 40.24 357.47 39.728ZM363.596 43.28H365.876L366.116 45.152C366.516 44.48 367.1 43.936 367.868 43.52C368.636 43.104 369.484 42.896 370.412 42.896C371.772 42.896 372.86 43.32 373.676 44.168C374.492 45.016 374.9 46.152 374.9 47.576V56H372.068V47.72C372.068 47 371.844 46.432 371.396 46.016C370.948 45.584 370.332 45.368 369.548 45.368C368.636 45.368 367.892 45.648 367.316 46.208C366.74 46.752 366.444 47.448 366.428 48.296V56H363.596V43.28ZM383.42 61.16C382.236 61.16 381.188 60.976 380.276 60.608C379.38 60.256 378.676 59.744 378.164 59.072C377.668 58.4 377.42 57.608 377.42 56.696H380.252C380.252 57.32 380.54 57.832 381.116 58.232C381.708 58.648 382.476 58.856 383.42 58.856C384.524 58.856 385.372 58.56 385.964 57.968C386.556 57.392 386.852 56.608 386.852 55.616V53.816C386.436 54.44 385.876 54.928 385.172 55.28C384.484 55.632 383.692 55.808 382.796 55.808C381.676 55.808 380.668 55.536 379.772 54.992C378.892 54.448 378.196 53.688 377.684 52.712C377.188 51.736 376.94 50.624 376.94 49.376C376.94 48.128 377.188 47.016 377.684 46.04C378.18 45.048 378.868 44.28 379.748 43.736C380.644 43.176 381.652 42.896 382.772 42.896C383.748 42.896 384.62 43.112 385.388 43.544C386.172 43.96 386.764 44.528 387.164 45.248L387.404 43.28H389.66V55.616C389.66 56.72 389.404 57.688 388.892 58.52C388.396 59.368 387.676 60.016 386.732 60.464C385.788 60.928 384.684 61.16 383.42 61.16ZM379.868 49.376C379.868 50.576 380.188 51.552 380.828 52.304C381.484 53.056 382.324 53.432 383.348 53.432C384.372 53.432 385.212 53.056 385.868 52.304C386.524 51.536 386.852 50.552 386.852 49.352C386.852 48.152 386.524 47.176 385.868 46.424C385.228 45.672 384.388 45.296 383.348 45.296C382.308 45.296 381.468 45.672 380.828 46.424C380.188 47.176 379.868 48.16 379.868 49.376ZM397.582 56.336C395.838 56.336 394.47 55.952 393.478 55.184C392.486 54.416 391.95 53.336 391.87 51.944H394.606C394.654 52.616 394.934 53.136 395.446 53.504C395.974 53.856 396.638 54.032 397.438 54.032C398.158 54.032 398.702 53.904 399.07 53.648C399.454 53.376 399.646 52.992 399.646 52.496C399.646 52.192 399.566 51.952 399.406 51.776C399.262 51.584 399.078 51.448 398.854 51.368C398.63 51.272 398.254 51.136 397.726 50.96L396.046 50.408C395.182 50.12 394.478 49.84 393.934 49.568C393.406 49.296 392.966 48.928 392.614 48.464C392.278 47.984 392.11 47.376 392.11 46.64C392.11 45.488 392.526 44.576 393.358 43.904C394.206 43.232 395.382 42.896 396.886 42.896C398.374 42.896 399.59 43.28 400.534 44.048C401.478 44.816 402.03 45.912 402.19 47.336H399.502C399.438 46.632 399.166 46.104 398.686 45.752C398.222 45.4 397.614 45.224 396.862 45.224C396.238 45.224 395.75 45.352 395.398 45.608C395.062 45.848 394.894 46.184 394.894 46.616C394.894 46.92 394.99 47.168 395.182 47.36C395.374 47.552 395.574 47.688 395.782 47.768C395.99 47.848 396.366 47.984 396.91 48.176L398.446 48.68C399.39 49 400.142 49.312 400.702 49.616C401.262 49.92 401.694 50.304 401.998 50.768C402.318 51.232 402.478 51.832 402.478 52.568C402.478 53.752 402.046 54.68 401.182 55.352C400.334 56.008 399.134 56.336 397.582 56.336ZM409.745 43.28H412.577V56H409.745V43.28ZM409.337 39.728C409.337 39.216 409.513 38.784 409.865 38.432C410.217 38.08 410.649 37.904 411.161 37.904C411.689 37.904 412.121 38.08 412.457 38.432C412.809 38.784 412.985 39.216 412.985 39.728C412.985 40.256 412.809 40.696 412.457 41.048C412.121 41.4 411.689 41.576 411.161 41.576C410.649 41.576 410.217 41.4 409.865 41.048C409.513 40.68 409.337 40.24 409.337 39.728ZM415.463 43.28H417.743L417.983 45.152C418.383 44.48 418.967 43.936 419.735 43.52C420.503 43.104 421.351 42.896 422.279 42.896C423.639 42.896 424.727 43.32 425.543 44.168C426.359 45.016 426.767 46.152 426.767 47.576V56H423.935V47.72C423.935 47 423.711 46.432 423.263 46.016C422.815 45.584 422.199 45.368 421.415 45.368C420.503 45.368 419.759 45.648 419.183 46.208C418.607 46.752 418.311 47.448 418.295 48.296V56H415.463V43.28ZM434.61 54.416C434.61 53.312 434.842 52.376 435.306 51.608C435.77 50.824 436.322 50.184 436.962 49.688C437.618 49.192 438.474 48.64 439.53 48.032C440.346 47.568 440.994 47.168 441.474 46.832C441.954 46.48 442.354 46.08 442.674 45.632C442.994 45.168 443.154 44.64 443.154 44.048C443.154 43.264 442.906 42.632 442.41 42.152C441.914 41.672 441.25 41.432 440.418 41.432C439.506 41.432 438.754 41.728 438.162 42.32C437.57 42.896 437.266 43.712 437.25 44.768H434.226C434.306 43.536 434.626 42.472 435.186 41.576C435.746 40.68 436.482 40 437.394 39.536C438.306 39.072 439.33 38.84 440.466 38.84C441.57 38.84 442.546 39.056 443.394 39.488C444.242 39.904 444.898 40.504 445.362 41.288C445.842 42.056 446.082 42.944 446.082 43.952C446.082 44.912 445.874 45.744 445.458 46.448C445.042 47.136 444.53 47.704 443.922 48.152C443.33 48.6 442.546 49.112 441.57 49.688C440.802 50.136 440.186 50.52 439.722 50.84C439.274 51.16 438.874 51.536 438.522 51.968C438.186 52.384 437.97 52.864 437.874 53.408H445.77V56H434.61V54.416ZM454.679 56.336C453.351 56.336 452.183 55.976 451.175 55.256C450.167 54.536 449.383 53.512 448.823 52.184C448.279 50.856 448.007 49.312 448.007 47.552C448.007 45.824 448.279 44.304 448.823 42.992C449.367 41.664 450.143 40.64 451.151 39.92C452.159 39.2 453.335 38.84 454.679 38.84C455.991 38.84 457.151 39.2 458.159 39.92C459.167 40.624 459.943 41.64 460.487 42.968C461.047 44.28 461.327 45.808 461.327 47.552C461.327 49.296 461.055 50.832 460.511 52.16C459.967 53.488 459.191 54.52 458.183 55.256C457.175 55.976 456.007 56.336 454.679 56.336ZM450.911 47.552C450.911 49.424 451.247 50.92 451.919 52.04C452.607 53.144 453.527 53.696 454.679 53.696C455.431 53.696 456.087 53.448 456.647 52.952C457.223 52.44 457.663 51.72 457.967 50.792C458.271 49.864 458.423 48.784 458.423 47.552C458.423 46.336 458.271 45.272 457.967 44.36C457.663 43.432 457.223 42.72 456.647 42.224C456.087 41.728 455.431 41.48 454.679 41.48C453.527 41.48 452.607 42.032 451.919 43.136C451.247 44.224 450.911 45.696 450.911 47.552ZM463.297 54.416C463.297 53.312 463.529 52.376 463.993 51.608C464.457 50.824 465.009 50.184 465.649 49.688C466.305 49.192 467.161 48.64 468.217 48.032C469.033 47.568 469.681 47.168 470.161 46.832C470.641 46.48 471.041 46.08 471.361 45.632C471.681 45.168 471.841 44.64 471.841 44.048C471.841 43.264 471.593 42.632 471.097 42.152C470.601 41.672 469.937 41.432 469.105 41.432C468.193 41.432 467.441 41.728 466.849 42.32C466.257 42.896 465.953 43.712 465.937 44.768H462.913C462.993 43.536 463.313 42.472 463.873 41.576C464.433 40.68 465.169 40 466.081 39.536C466.993 39.072 468.017 38.84 469.153 38.84C470.257 38.84 471.233 39.056 472.081 39.488C472.929 39.904 473.585 40.504 474.049 41.288C474.529 42.056 474.769 42.944 474.769 43.952C474.769 44.912 474.561 45.744 474.145 46.448C473.729 47.136 473.217 47.704 472.609 48.152C472.017 48.6 471.233 49.112 470.257 49.688C469.489 50.136 468.873 50.52 468.409 50.84C467.961 51.16 467.561 51.536 467.209 51.968C466.873 52.384 466.657 52.864 466.561 53.408H474.457V56H463.297V54.416ZM483.153 56.36C481.393 56.36 479.913 55.872 478.713 54.896C477.529 53.904 476.833 52.56 476.625 50.864H479.673C479.801 51.728 480.185 52.424 480.825 52.952C481.481 53.48 482.265 53.744 483.177 53.744C484.169 53.744 484.961 53.44 485.553 52.832C486.145 52.208 486.441 51.424 486.441 50.48C486.441 49.568 486.145 48.8 485.553 48.176C484.977 47.552 484.201 47.24 483.225 47.24C482.137 47.24 481.169 47.688 480.321 48.584H477.105L478.593 39.2H488.577V41.816H480.969L480.225 46.592C480.705 46.064 481.273 45.648 481.929 45.344C482.585 45.04 483.313 44.888 484.113 44.888C485.121 44.888 486.017 45.128 486.801 45.608C487.601 46.072 488.225 46.728 488.673 47.576C489.121 48.424 489.345 49.384 489.345 50.456C489.345 51.608 489.081 52.632 488.553 53.528C488.041 54.424 487.313 55.12 486.369 55.616C485.441 56.112 484.369 56.36 483.153 56.36Z" fill="white"/>
<path d="M34.7937 127.208C34.7937 126.696 34.9057 126.252 35.1297 125.876C35.3617 125.5 35.6377 125.188 35.9577 124.94C36.2857 124.692 36.7177 124.412 37.2537 124.1C37.7097 123.828 38.0657 123.6 38.3217 123.416C38.5777 123.232 38.7897 123.012 38.9577 122.756C39.1337 122.5 39.2217 122.208 39.2217 121.88C39.2217 121.432 39.0737 121.072 38.7777 120.8C38.4817 120.528 38.0857 120.392 37.5897 120.392C37.0377 120.392 36.5817 120.568 36.2217 120.92C35.8617 121.264 35.6777 121.76 35.6697 122.408H34.6137C34.6457 121.784 34.7937 121.252 35.0577 120.812C35.3217 120.372 35.6737 120.04 36.1137 119.816C36.5537 119.584 37.0497 119.468 37.6017 119.468C38.1297 119.468 38.5937 119.568 38.9937 119.768C39.4017 119.968 39.7137 120.252 39.9297 120.62C40.1537 120.988 40.2657 121.408 40.2657 121.88C40.2657 122.344 40.1577 122.748 39.9417 123.092C39.7257 123.428 39.4657 123.712 39.1617 123.944C38.8577 124.168 38.4457 124.428 37.9257 124.724C37.4697 124.988 37.1017 125.22 36.8217 125.42C36.5497 125.612 36.3217 125.848 36.1377 126.128C35.9537 126.4 35.8617 126.716 35.8617 127.076H40.1457V128H34.7937V127.208ZM44.6623 128.132C44.0143 128.132 43.4463 127.956 42.9583 127.604C42.4783 127.244 42.1063 126.736 41.8423 126.08C41.5863 125.424 41.4583 124.656 41.4583 123.776C41.4583 122.904 41.5863 122.144 41.8423 121.496C42.1063 120.848 42.4783 120.348 42.9583 119.996C43.4463 119.644 44.0143 119.468 44.6623 119.468C45.3103 119.468 45.8743 119.644 46.3543 119.996C46.8423 120.348 47.2143 120.848 47.4703 121.496C47.7343 122.144 47.8663 122.904 47.8663 123.776C47.8663 124.656 47.7343 125.424 47.4703 126.08C47.2143 126.736 46.8423 127.244 46.3543 127.604C45.8743 127.956 45.3103 128.132 44.6623 128.132ZM42.4903 123.776C42.4903 124.464 42.5783 125.068 42.7543 125.588C42.9383 126.108 43.1903 126.508 43.5103 126.788C43.8383 127.068 44.2223 127.208 44.6623 127.208C45.1023 127.208 45.4823 127.068 45.8023 126.788C46.1303 126.508 46.3823 126.108 46.5583 125.588C46.7423 125.068 46.8343 124.464 46.8343 123.776C46.8343 123.096 46.7423 122.5 46.5583 121.988C46.3823 121.476 46.1303 121.084 45.8023 120.812C45.4823 120.532 45.1023 120.392 44.6623 120.392C44.2223 120.392 43.8383 120.532 43.5103 120.812C43.1903 121.084 42.9383 121.476 42.7543 121.988C42.5783 122.5 42.4903 123.096 42.4903 123.776ZM49.518 119.6H50.778L53.742 126.8L56.694 119.6H57.966V128H56.958V121.352L54.222 128H53.25L50.526 121.376V128H49.518V119.6Z" fill="white"/>
<path d="M36.633 166.86C36.241 167.388 35.601 167.652 34.713 167.652H34.569V166.668H34.713C35.345 166.668 35.825 166.536 36.153 166.272C36.481 166.008 36.645 165.624 36.645 165.12V165H37.641V173.4H36.633V166.86ZM42.7781 173.532C42.0341 173.532 41.3981 173.344 40.8701 172.968C40.3501 172.592 39.9581 172.076 39.6941 171.42C39.4301 170.756 39.2981 169.996 39.2981 169.14C39.2981 168.252 39.4381 167.488 39.7181 166.848C40.0061 166.2 40.4101 165.708 40.9301 165.372C41.4501 165.036 42.0621 164.868 42.7661 164.868C43.2941 164.868 43.7741 164.98 44.2061 165.204C44.6381 165.42 44.9901 165.728 45.2621 166.128C45.5341 166.52 45.6941 166.972 45.7421 167.484H44.6981C44.6341 166.988 44.4221 166.584 44.0621 166.272C43.7101 165.952 43.2781 165.792 42.7661 165.792C41.9581 165.792 41.3301 166.104 40.8821 166.728C40.4421 167.352 40.2221 168.176 40.2221 169.2C40.2221 169.312 40.2301 169.472 40.2461 169.68C40.3981 169.16 40.7181 168.724 41.2061 168.372C41.6941 168.02 42.2701 167.844 42.9341 167.844C43.4621 167.844 43.9341 167.964 44.3501 168.204C44.7661 168.444 45.0901 168.78 45.3221 169.212C45.5621 169.636 45.6821 170.12 45.6821 170.664C45.6821 171.224 45.5581 171.72 45.3101 172.152C45.0701 172.584 44.7301 172.924 44.2901 173.172C43.8501 173.412 43.3461 173.532 42.7781 173.532ZM40.7381 170.676C40.7381 171.084 40.8301 171.436 41.0141 171.732C41.1981 172.028 41.4421 172.252 41.7461 172.404C42.0501 172.548 42.3701 172.62 42.7061 172.62C43.0421 172.62 43.3581 172.548 43.6541 172.404C43.9501 172.252 44.1901 172.028 44.3741 171.732C44.5581 171.436 44.6501 171.08 44.6501 170.664C44.6501 170.24 44.5581 169.884 44.3741 169.596C44.1981 169.3 43.9621 169.08 43.6661 168.936C43.3781 168.784 43.0661 168.708 42.7301 168.708C42.3941 168.708 42.0701 168.784 41.7581 168.936C41.4541 169.088 41.2061 169.312 41.0141 169.608C40.8301 169.904 40.7381 170.26 40.7381 170.676ZM47.3227 165H48.5827L51.5467 172.2L54.4987 165H55.7707V173.4H54.7627V166.752L52.0267 173.4H51.0547L48.3307 166.776V173.4H47.3227V165Z" fill="white"/>
<path d="M36.549 212.26C36.157 212.788 35.517 213.052 34.629 213.052H34.485V212.068H34.629C35.261 212.068 35.741 211.936 36.069 211.672C36.397 211.408 36.561 211.024 36.561 210.52V210.4H37.557V218.8H36.549V212.26ZM39.3581 218.008C39.3581 217.496 39.4701 217.052 39.6941 216.676C39.9261 216.3 40.2021 215.988 40.5221 215.74C40.8501 215.492 41.2821 215.212 41.8181 214.9C42.2741 214.628 42.6301 214.4 42.8861 214.216C43.1421 214.032 43.3541 213.812 43.5221 213.556C43.6981 213.3 43.7861 213.008 43.7861 212.68C43.7861 212.232 43.6381 211.872 43.3421 211.6C43.0461 211.328 42.6501 211.192 42.1541 211.192C41.6021 211.192 41.1461 211.368 40.7861 211.72C40.4261 212.064 40.2421 212.56 40.2341 213.208H39.1781C39.2101 212.584 39.3581 212.052 39.6221 211.612C39.8861 211.172 40.2381 210.84 40.6781 210.616C41.1181 210.384 41.6141 210.268 42.1661 210.268C42.6941 210.268 43.1581 210.368 43.5581 210.568C43.9661 210.768 44.2781 211.052 44.4941 211.42C44.7181 211.788 44.8301 212.208 44.8301 212.68C44.8301 213.144 44.7221 213.548 44.5061 213.892C44.2901 214.228 44.0301 214.512 43.7261 214.744C43.4221 214.968 43.0101 215.228 42.4901 215.524C42.0341 215.788 41.6661 216.02 41.3861 216.22C41.1141 216.412 40.8861 216.648 40.7021 216.928C40.5181 217.2 40.4261 217.516 40.4261 217.876H44.7101V218.8H39.3581V218.008ZM46.4067 210.4H47.6667L50.6307 217.6L53.5827 210.4H54.8547V218.8H53.8467V212.152L51.1107 218.8H50.1387L47.4147 212.176V218.8H46.4067V210.4Z" fill="white"/>
<path d="M37.7674 264.332C37.1354 264.332 36.5754 264.232 36.0874 264.032C35.6074 263.832 35.2314 263.548 34.9594 263.18C34.6954 262.804 34.5634 262.368 34.5634 261.872C34.5634 261.392 34.7074 260.972 34.9954 260.612C35.2914 260.244 35.6994 259.964 36.2194 259.772C35.8194 259.588 35.5074 259.336 35.2834 259.016C35.0594 258.688 34.9474 258.32 34.9474 257.912C34.9474 257.48 35.0634 257.096 35.2954 256.76C35.5354 256.416 35.8674 256.148 36.2914 255.956C36.7234 255.764 37.2154 255.668 37.7674 255.668C38.3114 255.668 38.7954 255.764 39.2194 255.956C39.6434 256.148 39.9714 256.416 40.2034 256.76C40.4434 257.096 40.5634 257.48 40.5634 257.912C40.5634 258.32 40.4514 258.684 40.2274 259.004C40.0114 259.324 39.7034 259.58 39.3034 259.772C39.8154 259.964 40.2154 260.244 40.5034 260.612C40.7994 260.972 40.9474 261.392 40.9474 261.872C40.9474 262.352 40.8154 262.78 40.5514 263.156C40.2954 263.524 39.9274 263.812 39.4474 264.02C38.9674 264.228 38.4074 264.332 37.7674 264.332ZM35.6074 261.812C35.6074 262.284 35.8074 262.668 36.2074 262.964C36.6154 263.26 37.1354 263.408 37.7674 263.408C38.3994 263.408 38.9114 263.26 39.3034 262.964C39.7034 262.668 39.9034 262.284 39.9034 261.812C39.9034 261.34 39.7034 260.956 39.3034 260.66C38.9114 260.356 38.3994 260.204 37.7674 260.204C37.1274 260.204 36.6074 260.356 36.2074 260.66C35.8074 260.956 35.6074 261.34 35.6074 261.812ZM35.9554 257.96C35.9554 258.392 36.1234 258.744 36.4594 259.016C36.7954 259.288 37.2314 259.424 37.7674 259.424C38.2954 259.424 38.7234 259.288 39.0514 259.016C39.3874 258.744 39.5554 258.392 39.5554 257.96C39.5554 257.552 39.3874 257.22 39.0514 256.964C38.7234 256.7 38.2954 256.568 37.7674 256.568C37.2314 256.568 36.7954 256.7 36.4594 256.964C36.1234 257.22 35.9554 257.552 35.9554 257.96ZM42.5083 255.8H43.7683L46.7323 263L49.6843 255.8H50.9563V264.2H49.9483V257.552L47.2123 264.2H46.2403L43.5163 257.576V264.2H42.5083V255.8Z" fill="white"/>
<path d="M38.685 307.5H34.521V306.6L38.673 301.2H39.693V306.576H41.169V307.5H39.693V309.6H38.685V307.5ZM38.685 306.576V302.604L35.625 306.576H38.685ZM42.4907 301.2H43.7507L46.7147 308.4L49.6667 301.2H50.9387V309.6H49.9307V302.952L47.1947 309.6H46.2227L43.4987 302.976V309.6H42.4907V301.2Z" fill="white"/>
<path d="M38.0021 355.132C37.3541 355.132 36.7861 354.956 36.2981 354.604C35.8181 354.244 35.4461 353.736 35.1821 353.08C34.9261 352.424 34.7981 351.656 34.7981 350.776C34.7981 349.904 34.9261 349.144 35.1821 348.496C35.4461 347.848 35.8181 347.348 36.2981 346.996C36.7861 346.644 37.3541 346.468 38.0021 346.468C38.6501 346.468 39.2141 346.644 39.6941 346.996C40.1821 347.348 40.5541 347.848 40.8101 348.496C41.0741 349.144 41.2061 349.904 41.2061 350.776C41.2061 351.656 41.0741 352.424 40.8101 353.08C40.5541 353.736 40.1821 354.244 39.6941 354.604C39.2141 354.956 38.6501 355.132 38.0021 355.132ZM35.8301 350.776C35.8301 351.464 35.9181 352.068 36.0941 352.588C36.2781 353.108 36.5301 353.508 36.8501 353.788C37.1781 354.068 37.5621 354.208 38.0021 354.208C38.4421 354.208 38.8221 354.068 39.1421 353.788C39.4701 353.508 39.7221 353.108 39.8981 352.588C40.0821 352.068 40.1741 351.464 40.1741 350.776C40.1741 350.096 40.0821 349.5 39.8981 348.988C39.7221 348.476 39.4701 348.084 39.1421 347.812C38.8221 347.532 38.4421 347.392 38.0021 347.392C37.5621 347.392 37.1781 347.532 36.8501 347.812C36.5301 348.084 36.2781 348.476 36.0941 348.988C35.9181 349.5 35.8301 350.096 35.8301 350.776Z" fill="white"/>
<g opacity="0.3">
<rect x="94.0508" y="106.25" width="0.5" height="252.5" stroke="#97BFBF" stroke-width="0.5" stroke-dasharray="8 8"/>
<rect x="148.65" y="106.25" width="0.5" height="252.5" stroke="#97BFBF" stroke-width="0.5" stroke-dasharray="8 8"/>
<rect x="203.25" y="106.25" width="0.5" height="252.5" stroke="#97BFBF" stroke-width="0.5" stroke-dasharray="8 8"/>
<rect x="257.852" y="106.25" width="0.5" height="252.5" stroke="#97BFBF" stroke-width="0.5" stroke-dasharray="8 8"/>
<rect x="312.451" y="106.25" width="0.5" height="252.5" stroke="#97BFBF" stroke-width="0.5" stroke-dasharray="8 8"/>
<rect x="367.051" y="106.25" width="0.5" height="252.5" stroke="#97BFBF" stroke-width="0.5" stroke-dasharray="8 8"/>
<rect x="421.65" y="106.25" width="0.5" height="252.5" stroke="#97BFBF" stroke-width="0.5" stroke-dasharray="8 8"/>
<rect x="476.25" y="106.25" width="0.5" height="252.5" stroke="#97BFBF" stroke-width="0.5" stroke-dasharray="8 8"/>
<rect x="530.852" y="106.25" width="0.5" height="252.5" stroke="#97BFBF" stroke-width="0.5" stroke-dasharray="8 8"/>
<rect x="585.451" y="106.25" width="0.5" height="252.5" stroke="#97BFBF" stroke-width="0.5" stroke-dasharray="8 8"/>
</g>
<path d="M67 359C67 357.343 68.3431 356 70 356H91C92.6569 356 94 357.343 94 359V359H67V359Z" fill="url(#paint0_linear_3735_339)"/>
<path d="M112 359C112 357.343 113.343 356 115 356H136C137.657 356 139 357.343 139 359V359H112V359Z" fill="url(#paint1_linear_3735_339)"/>
<path d="M157 359C157 357.343 158.343 356 160 356H181C182.657 356 184 357.343 184 359V359H157V359Z" fill="url(#paint2_linear_3735_339)"/>
<path d="M202 352C202 349.791 203.791 348 206 348H225C227.209 348 229 349.791 229 352V359H202V352Z" fill="url(#paint3_linear_3735_339)"/>
<path d="M247 340C247 337.791 248.791 336 251 336H270C272.209 336 274 337.791 274 340V359H247V340Z" fill="url(#paint4_linear_3735_339)"/>
<path d="M292 340C292 337.791 293.791 336 296 336H315C317.209 336 319 337.791 319 340V359H292V340Z" fill="url(#paint5_linear_3735_339)"/>
<path d="M337 311C337 308.791 338.791 307 341 307H360C362.209 307 364 308.791 364 311V359H337V311Z" fill="url(#paint6_linear_3735_339)"/>
<path d="M382 300C382 297.791 383.791 296 386 296H405C407.209 296 409 297.791 409 300V359H382V300Z" fill="url(#paint7_linear_3735_339)"/>
<path d="M427 203C427 200.791 428.791 199 431 199H450C452.209 199 454 200.791 454 203V359H427V203Z" fill="url(#paint8_linear_3735_339)"/>
<path d="M472 187C472 184.791 473.791 183 476 183H495C497.209 183 499 184.791 499 187V359H472V187Z" fill="url(#paint9_linear_3735_339)"/>
<path d="M517 166C517 163.791 518.791 162 521 162H540C542.209 162 544 163.791 544 166V359H517V166Z" fill="url(#paint10_linear_3735_339)"/>
<path d="M562 150C562 147.791 563.791 146 566 146H585C587.209 146 589 147.791 589 150V359H562V150Z" fill="url(#paint11_linear_3735_339)"/>
<rect x="517" y="114" width="113" height="24" rx="10" fill="#102825" fill-opacity="0.5"/>
<path d="M528.223 126.688H525.835V125.848H528.223V123.568H529.135V125.848H531.523V126.688H529.135V128.968H528.223V126.688ZM534.492 123.46C534.1 123.988 533.46 124.252 532.572 124.252H532.428V123.268H532.572C533.204 123.268 533.684 123.136 534.012 122.872C534.34 122.608 534.504 122.224 534.504 121.72V121.6H535.5V130H534.492V123.46ZM540.265 130.132C539.633 130.132 539.073 130.032 538.585 129.832C538.105 129.632 537.729 129.348 537.457 128.98C537.193 128.604 537.061 128.168 537.061 127.672C537.061 127.192 537.205 126.772 537.493 126.412C537.789 126.044 538.197 125.764 538.717 125.572C538.317 125.388 538.005 125.136 537.781 124.816C537.557 124.488 537.445 124.12 537.445 123.712C537.445 123.28 537.561 122.896 537.793 122.56C538.033 122.216 538.365 121.948 538.789 121.756C539.221 121.564 539.713 121.468 540.265 121.468C540.809 121.468 541.293 121.564 541.717 121.756C542.141 121.948 542.469 122.216 542.701 122.56C542.941 122.896 543.061 123.28 543.061 123.712C543.061 124.12 542.949 124.484 542.725 124.804C542.509 125.124 542.201 125.38 541.801 125.572C542.313 125.764 542.713 126.044 543.001 126.412C543.297 126.772 543.445 127.192 543.445 127.672C543.445 128.152 543.313 128.58 543.049 128.956C542.793 129.324 542.425 129.612 541.945 129.82C541.465 130.028 540.905 130.132 540.265 130.132ZM538.105 127.612C538.105 128.084 538.305 128.468 538.705 128.764C539.113 129.06 539.633 129.208 540.265 129.208C540.897 129.208 541.409 129.06 541.801 128.764C542.201 128.468 542.401 128.084 542.401 127.612C542.401 127.14 542.201 126.756 541.801 126.46C541.409 126.156 540.897 126.004 540.265 126.004C539.625 126.004 539.105 126.156 538.705 126.46C538.305 126.756 538.105 127.14 538.105 127.612ZM538.453 123.76C538.453 124.192 538.621 124.544 538.957 124.816C539.293 125.088 539.729 125.224 540.265 125.224C540.793 125.224 541.221 125.088 541.549 124.816C541.885 124.544 542.053 124.192 542.053 123.76C542.053 123.352 541.885 123.02 541.549 122.764C541.221 122.5 540.793 122.368 540.265 122.368C539.729 122.368 539.293 122.5 538.957 122.764C538.621 123.02 538.453 123.352 538.453 123.76ZM544.029 131.944L545.289 127.924L546.141 128.188L544.833 132.196L544.029 131.944ZM550.497 130.132C549.873 130.132 549.317 130.02 548.829 129.796C548.349 129.564 547.965 129.236 547.677 128.812C547.397 128.388 547.241 127.892 547.209 127.324H548.253C548.293 127.9 548.513 128.36 548.913 128.704C549.321 129.04 549.853 129.208 550.509 129.208C551.109 129.208 551.589 129.064 551.949 128.776C552.309 128.48 552.489 128.092 552.489 127.612C552.489 127.14 552.309 126.772 551.949 126.508C551.597 126.236 551.105 126.1 550.473 126.1H549.345V125.272H550.473C550.969 125.272 551.373 125.14 551.685 124.876C552.005 124.612 552.165 124.268 552.165 123.844C552.165 123.42 552.005 123.072 551.685 122.8C551.373 122.528 550.965 122.392 550.461 122.392C549.941 122.392 549.501 122.548 549.141 122.86C548.781 123.164 548.561 123.572 548.481 124.084H547.437C547.549 123.284 547.881 122.648 548.433 122.176C548.993 121.704 549.689 121.468 550.521 121.468C551.033 121.468 551.489 121.56 551.889 121.744C552.297 121.928 552.613 122.188 552.837 122.524C553.061 122.852 553.173 123.224 553.173 123.64C553.173 124.12 553.029 124.536 552.741 124.888C552.453 125.24 552.073 125.48 551.601 125.608C552.201 125.744 552.665 125.996 552.993 126.364C553.321 126.732 553.485 127.184 553.485 127.72C553.485 128.192 553.361 128.612 553.113 128.98C552.865 129.34 552.513 129.624 552.057 129.832C551.609 130.032 551.089 130.132 550.497 130.132ZM557.846 130.132C557.198 130.132 556.63 129.956 556.142 129.604C555.662 129.244 555.29 128.736 555.026 128.08C554.77 127.424 554.642 126.656 554.642 125.776C554.642 124.904 554.77 124.144 555.026 123.496C555.29 122.848 555.662 122.348 556.142 121.996C556.63 121.644 557.198 121.468 557.846 121.468C558.494 121.468 559.058 121.644 559.538 121.996C560.026 122.348 560.398 122.848 560.654 123.496C560.918 124.144 561.05 124.904 561.05 125.776C561.05 126.656 560.918 127.424 560.654 128.08C560.398 128.736 560.026 129.244 559.538 129.604C559.058 129.956 558.494 130.132 557.846 130.132ZM555.674 125.776C555.674 126.464 555.762 127.068 555.938 127.588C556.122 128.108 556.374 128.508 556.694 128.788C557.022 129.068 557.406 129.208 557.846 129.208C558.286 129.208 558.666 129.068 558.986 128.788C559.314 128.508 559.566 128.108 559.742 127.588C559.926 127.068 560.018 126.464 560.018 125.776C560.018 125.096 559.926 124.5 559.742 123.988C559.566 123.476 559.314 123.084 558.986 122.812C558.666 122.532 558.286 122.392 557.846 122.392C557.406 122.392 557.022 122.532 556.694 122.812C556.374 123.084 556.122 123.476 555.938 123.988C555.762 124.5 555.674 125.096 555.674 125.776ZM565.522 130.132C564.874 130.132 564.306 129.956 563.818 129.604C563.338 129.244 562.966 128.736 562.702 128.08C562.446 127.424 562.318 126.656 562.318 125.776C562.318 124.904 562.446 124.144 562.702 123.496C562.966 122.848 563.338 122.348 563.818 121.996C564.306 121.644 564.874 121.468 565.522 121.468C566.17 121.468 566.734 121.644 567.214 121.996C567.702 122.348 568.074 122.848 568.33 123.496C568.594 124.144 568.726 124.904 568.726 125.776C568.726 126.656 568.594 127.424 568.33 128.08C568.074 128.736 567.702 129.244 567.214 129.604C566.734 129.956 566.17 130.132 565.522 130.132ZM563.35 125.776C563.35 126.464 563.438 127.068 563.614 127.588C563.798 128.108 564.05 128.508 564.37 128.788C564.698 129.068 565.082 129.208 565.522 129.208C565.962 129.208 566.342 129.068 566.662 128.788C566.99 128.508 567.242 128.108 567.418 127.588C567.602 127.068 567.694 126.464 567.694 125.776C567.694 125.096 567.602 124.5 567.418 123.988C567.242 123.476 566.99 123.084 566.662 122.812C566.342 122.532 565.962 122.392 565.522 122.392C565.082 122.392 564.698 122.532 564.37 122.812C564.05 123.084 563.798 123.476 563.614 123.988C563.438 124.5 563.35 125.096 563.35 125.776ZM569.119 131.944L570.379 127.924L571.231 128.188L569.923 132.196L569.119 131.944ZM575.658 130.132C575.01 130.132 574.442 129.956 573.954 129.604C573.474 129.244 573.102 128.736 572.838 128.08C572.582 127.424 572.454 126.656 572.454 125.776C572.454 124.904 572.582 124.144 572.838 123.496C573.102 122.848 573.474 122.348 573.954 121.996C574.442 121.644 575.01 121.468 575.658 121.468C576.306 121.468 576.87 121.644 577.35 121.996C577.838 122.348 578.21 122.848 578.466 123.496C578.73 124.144 578.862 124.904 578.862 125.776C578.862 126.656 578.73 127.424 578.466 128.08C578.21 128.736 577.838 129.244 577.35 129.604C576.87 129.956 576.306 130.132 575.658 130.132ZM573.486 125.776C573.486 126.464 573.574 127.068 573.75 127.588C573.934 128.108 574.186 128.508 574.506 128.788C574.834 129.068 575.218 129.208 575.658 129.208C576.098 129.208 576.478 129.068 576.798 128.788C577.126 128.508 577.378 128.108 577.554 127.588C577.738 127.068 577.83 126.464 577.83 125.776C577.83 125.096 577.738 124.5 577.554 123.988C577.378 123.476 577.126 123.084 576.798 122.812C576.478 122.532 576.098 122.392 575.658 122.392C575.218 122.392 574.834 122.532 574.506 122.812C574.186 123.084 573.934 123.476 573.75 123.988C573.574 124.5 573.486 125.096 573.486 125.776ZM583.334 130.132C582.686 130.132 582.118 129.956 581.63 129.604C581.15 129.244 580.778 128.736 580.514 128.08C580.258 127.424 580.13 126.656 580.13 125.776C580.13 124.904 580.258 124.144 580.514 123.496C580.778 122.848 581.15 122.348 581.63 121.996C582.118 121.644 582.686 121.468 583.334 121.468C583.982 121.468 584.546 121.644 585.026 121.996C585.514 122.348 585.886 122.848 586.142 123.496C586.406 124.144 586.538 124.904 586.538 125.776C586.538 126.656 586.406 127.424 586.142 128.08C585.886 128.736 585.514 129.244 585.026 129.604C584.546 129.956 583.982 130.132 583.334 130.132ZM581.162 125.776C581.162 126.464 581.25 127.068 581.426 127.588C581.61 128.108 581.862 128.508 582.182 128.788C582.51 129.068 582.894 129.208 583.334 129.208C583.774 129.208 584.154 129.068 584.474 128.788C584.802 128.508 585.054 128.108 585.23 127.588C585.414 127.068 585.506 126.464 585.506 125.776C585.506 125.096 585.414 124.5 585.23 123.988C585.054 123.476 584.802 123.084 584.474 122.812C584.154 122.532 583.774 122.392 583.334 122.392C582.894 122.392 582.51 122.532 582.182 122.812C581.862 123.084 581.61 123.476 581.426 123.988C581.25 124.5 581.162 125.096 581.162 125.776ZM591.01 130.132C590.362 130.132 589.794 129.956 589.306 129.604C588.826 129.244 588.454 128.736 588.19 128.08C587.934 127.424 587.806 126.656 587.806 125.776C587.806 124.904 587.934 124.144 588.19 123.496C588.454 122.848 588.826 122.348 589.306 121.996C589.794 121.644 590.362 121.468 591.01 121.468C591.658 121.468 592.222 121.644 592.702 121.996C593.19 122.348 593.562 122.848 593.818 123.496C594.082 124.144 594.214 124.904 594.214 125.776C594.214 126.656 594.082 127.424 593.818 128.08C593.562 128.736 593.19 129.244 592.702 129.604C592.222 129.956 591.658 130.132 591.01 130.132ZM588.838 125.776C588.838 126.464 588.926 127.068 589.102 127.588C589.286 128.108 589.538 128.508 589.858 128.788C590.186 129.068 590.57 129.208 591.01 129.208C591.45 129.208 591.83 129.068 592.15 128.788C592.478 128.508 592.73 128.108 592.906 127.588C593.09 127.068 593.182 126.464 593.182 125.776C593.182 125.096 593.09 124.5 592.906 123.988C592.73 123.476 592.478 123.084 592.15 122.812C591.83 122.532 591.45 122.392 591.01 122.392C590.57 122.392 590.186 122.532 589.858 122.812C589.538 123.084 589.286 123.476 589.102 123.988C588.926 124.5 588.838 125.096 588.838 125.776ZM601.813 130.132C601.117 130.132 600.497 130.02 599.953 129.796C599.409 129.572 598.977 129.26 598.657 128.86C598.345 128.452 598.173 127.984 598.141 127.456H599.197C599.253 127.992 599.517 128.42 599.989 128.74C600.469 129.06 601.077 129.22 601.813 129.22C602.445 129.22 602.929 129.096 603.265 128.848C603.601 128.6 603.769 128.256 603.769 127.816C603.769 127.432 603.633 127.136 603.361 126.928C603.097 126.72 602.717 126.54 602.221 126.388L600.769 125.932C600.713 125.916 600.461 125.84 600.013 125.704C599.573 125.568 599.193 125.328 598.873 124.984C598.561 124.632 598.405 124.208 598.405 123.712C598.405 123.264 598.521 122.872 598.753 122.536C598.993 122.192 599.325 121.928 599.749 121.744C600.181 121.56 600.685 121.468 601.261 121.468C602.229 121.468 602.993 121.708 603.553 122.188C604.121 122.66 604.437 123.34 604.501 124.228H603.457C603.417 123.636 603.201 123.18 602.809 122.86C602.417 122.54 601.885 122.38 601.213 122.38C600.677 122.38 600.241 122.496 599.905 122.728C599.577 122.952 599.413 123.264 599.413 123.664C599.413 123.944 599.493 124.172 599.653 124.348C599.821 124.516 599.989 124.632 600.157 124.696C600.325 124.76 600.637 124.864 601.093 125.008L602.449 125.428C602.929 125.58 603.329 125.736 603.649 125.896C603.969 126.048 604.241 126.276 604.465 126.58C604.689 126.884 604.801 127.28 604.801 127.768C604.801 128.504 604.533 129.084 603.997 129.508C603.469 129.924 602.741 130.132 601.813 130.132ZM609.991 130.132C609.199 130.132 608.495 129.956 607.879 129.604C607.271 129.244 606.795 128.736 606.451 128.08C606.115 127.416 605.947 126.648 605.947 125.776C605.947 124.944 606.107 124.204 606.427 123.556C606.755 122.9 607.223 122.388 607.831 122.02C608.447 121.652 609.167 121.468 609.991 121.468C610.791 121.468 611.499 121.648 612.115 122.008C612.731 122.36 613.207 122.864 613.543 123.52C613.887 124.168 614.059 124.92 614.059 125.776C614.059 126.616 613.895 127.368 613.567 128.032C613.239 128.688 612.767 129.204 612.151 129.58C611.543 129.948 610.823 130.132 609.991 130.132ZM606.979 125.776C606.979 126.472 607.099 127.08 607.339 127.6C607.587 128.112 607.939 128.508 608.395 128.788C608.851 129.068 609.383 129.208 609.991 129.208C610.607 129.208 611.143 129.068 611.599 128.788C612.063 128.508 612.415 128.112 612.655 127.6C612.903 127.08 613.027 126.472 613.027 125.776C613.027 125.088 612.903 124.492 612.655 123.988C612.407 123.476 612.055 123.084 611.599 122.812C611.143 122.532 610.607 122.392 609.991 122.392C609.383 122.392 608.851 122.532 608.395 122.812C607.939 123.084 607.587 123.476 607.339 123.988C607.099 124.492 606.979 125.088 606.979 125.776ZM615.717 121.6H616.725V129.076H621.225V130H615.717V121.6Z" fill="white"/>
<path d="M69.2785 379.132C68.7425 379.132 68.2625 379.032 67.8385 378.832C67.4225 378.632 67.0945 378.352 66.8545 377.992C66.6225 377.632 66.5065 377.22 66.5065 376.756V375.556H67.5025V376.744C67.5025 377.176 67.6665 377.528 67.9945 377.8C68.3305 378.072 68.7585 378.208 69.2785 378.208C69.7825 378.208 70.1905 378.064 70.5025 377.776C70.8225 377.48 70.9825 377.096 70.9825 376.624V370.6H71.9905V376.648C71.9905 377.128 71.8745 377.556 71.6425 377.932C71.4185 378.308 71.0985 378.604 70.6825 378.82C70.2745 379.028 69.8065 379.132 69.2785 379.132ZM75.8075 379.096C75.0875 379.096 74.5115 378.924 74.0795 378.58C73.6555 378.236 73.4435 377.772 73.4435 377.188C73.4435 376.732 73.5675 376.376 73.8155 376.12C74.0715 375.856 74.3875 375.672 74.7635 375.568C75.1475 375.456 75.6035 375.372 76.1315 375.316L76.5275 375.28C77.0315 375.232 77.3915 375.176 77.6075 375.112C77.8315 375.048 77.9475 374.916 77.9555 374.716C77.9475 374.316 77.7915 373.988 77.4875 373.732C77.1915 373.476 76.8035 373.348 76.3235 373.348C75.8595 373.348 75.4635 373.468 75.1355 373.708C74.8155 373.94 74.6275 374.244 74.5715 374.62H73.5875C73.6275 374.212 73.7715 373.848 74.0195 373.528C74.2675 373.2 74.5915 372.948 74.9915 372.772C75.3995 372.588 75.8515 372.496 76.3475 372.496C76.8675 372.496 77.3195 372.592 77.7035 372.784C78.0955 372.976 78.3955 373.244 78.6035 373.588C78.8195 373.932 78.9275 374.328 78.9275 374.776V377.872C78.9275 378.08 79.0355 378.184 79.2515 378.184H79.6115V379H79.0475C78.7035 379 78.4435 378.924 78.2675 378.772C78.0915 378.62 78.0035 378.396 78.0035 378.1V377.908C77.8115 378.284 77.5315 378.576 77.1635 378.784C76.7955 378.992 76.3435 379.096 75.8075 379.096ZM74.4395 377.164C74.4395 377.492 74.5755 377.756 74.8475 377.956C75.1275 378.148 75.4955 378.244 75.9515 378.244C76.5435 378.244 77.0235 378.076 77.3915 377.74C77.7675 377.396 77.9555 376.96 77.9555 376.432V375.604C77.8355 375.772 77.6395 375.888 77.3675 375.952C77.0955 376.016 76.7035 376.076 76.1915 376.132C75.8155 376.172 75.5075 376.22 75.2675 376.276C75.0355 376.332 74.8395 376.432 74.6795 376.576C74.5195 376.712 74.4395 376.908 74.4395 377.164ZM80.7281 372.64H81.5201L81.6161 373.612C81.8321 373.268 82.1361 372.996 82.5281 372.796C82.9281 372.596 83.3601 372.496 83.8241 372.496C84.5121 372.496 85.0641 372.704 85.4801 373.12C85.8961 373.536 86.1041 374.092 86.1041 374.788V379H85.1081V374.824C85.1081 374.376 84.9721 374.024 84.7001 373.768C84.4281 373.504 84.0521 373.372 83.5721 373.372C83.0201 373.372 82.5761 373.54 82.2401 373.876C81.9041 374.212 81.7321 374.632 81.7241 375.136V379H80.7281V372.64ZM90.3249 378.208C90.3249 377.696 90.4369 377.252 90.6609 376.876C90.8929 376.5 91.1689 376.188 91.4889 375.94C91.8169 375.692 92.2489 375.412 92.7849 375.1C93.2409 374.828 93.5969 374.6 93.8529 374.416C94.1089 374.232 94.3209 374.012 94.4889 373.756C94.6649 373.5 94.7529 373.208 94.7529 372.88C94.7529 372.432 94.6049 372.072 94.3089 371.8C94.0129 371.528 93.6169 371.392 93.1209 371.392C92.5689 371.392 92.1129 371.568 91.7529 371.92C91.3929 372.264 91.2089 372.76 91.2009 373.408H90.1449C90.1769 372.784 90.3249 372.252 90.5889 371.812C90.8529 371.372 91.2049 371.04 91.6449 370.816C92.0849 370.584 92.5809 370.468 93.1329 370.468C93.6609 370.468 94.1249 370.568 94.5249 370.768C94.9329 370.968 95.2449 371.252 95.4609 371.62C95.6849 371.988 95.7969 372.408 95.7969 372.88C95.7969 373.344 95.6889 373.748 95.4729 374.092C95.2569 374.428 94.9969 374.712 94.6929 374.944C94.3889 375.168 93.9769 375.428 93.4569 375.724C93.0009 375.988 92.6329 376.22 92.3529 376.42C92.0809 376.612 91.8529 376.848 91.6689 377.128C91.4849 377.4 91.3929 377.716 91.3929 378.076H95.6769V379H90.3249V378.208ZM100.194 379.132C99.5455 379.132 98.9775 378.956 98.4895 378.604C98.0095 378.244 97.6375 377.736 97.3735 377.08C97.1175 376.424 96.9895 375.656 96.9895 374.776C96.9895 373.904 97.1175 373.144 97.3735 372.496C97.6375 371.848 98.0095 371.348 98.4895 370.996C98.9775 370.644 99.5455 370.468 100.194 370.468C100.842 370.468 101.406 370.644 101.886 370.996C102.374 371.348 102.746 371.848 103.002 372.496C103.266 373.144 103.398 373.904 103.398 374.776C103.398 375.656 103.266 376.424 103.002 377.08C102.746 377.736 102.374 378.244 101.886 378.604C101.406 378.956 100.842 379.132 100.194 379.132ZM98.0215 374.776C98.0215 375.464 98.1095 376.068 98.2855 376.588C98.4695 377.108 98.7215 377.508 99.0415 377.788C99.3695 378.068 99.7535 378.208 100.194 378.208C100.634 378.208 101.014 378.068 101.334 377.788C101.662 377.508 101.914 377.108 102.09 376.588C102.274 376.068 102.366 375.464 102.366 374.776C102.366 374.096 102.274 373.5 102.09 372.988C101.914 372.476 101.662 372.084 101.334 371.812C101.014 371.532 100.634 371.392 100.194 371.392C99.7535 371.392 99.3695 371.532 99.0415 371.812C98.7215 372.084 98.4695 372.476 98.2855 372.988C98.1095 373.5 98.0215 374.096 98.0215 374.776ZM104.575 378.208C104.575 377.696 104.687 377.252 104.911 376.876C105.143 376.5 105.419 376.188 105.739 375.94C106.067 375.692 106.499 375.412 107.035 375.1C107.491 374.828 107.847 374.6 108.103 374.416C108.359 374.232 108.571 374.012 108.739 373.756C108.915 373.5 109.003 373.208 109.003 372.88C109.003 372.432 108.855 372.072 108.559 371.8C108.263 371.528 107.867 371.392 107.371 371.392C106.819 371.392 106.363 371.568 106.003 371.92C105.643 372.264 105.459 372.76 105.451 373.408H104.395C104.427 372.784 104.575 372.252 104.839 371.812C105.103 371.372 105.455 371.04 105.895 370.816C106.335 370.584 106.831 370.468 107.383 370.468C107.911 370.468 108.375 370.568 108.775 370.768C109.183 370.968 109.495 371.252 109.711 371.62C109.935 371.988 110.047 372.408 110.047 372.88C110.047 373.344 109.939 373.748 109.723 374.092C109.507 374.428 109.247 374.712 108.943 374.944C108.639 375.168 108.227 375.428 107.707 375.724C107.251 375.988 106.883 376.22 106.603 376.42C106.331 376.612 106.103 376.848 105.919 377.128C105.735 377.4 105.643 377.716 105.643 378.076H109.927V379H104.575V378.208ZM114.288 379.132C113.44 379.132 112.732 378.892 112.164 378.412C111.604 377.924 111.28 377.276 111.192 376.468H112.236C112.3 376.996 112.52 377.42 112.896 377.74C113.272 378.052 113.736 378.208 114.288 378.208C114.88 378.208 115.356 378.028 115.716 377.668C116.084 377.308 116.268 376.84 116.268 376.264C116.268 375.696 116.088 375.232 115.728 374.872C115.368 374.512 114.904 374.332 114.336 374.332C113.696 374.332 113.116 374.608 112.596 375.16H111.48L112.164 370.6H116.928V371.524H113.004L112.572 374.356C113.116 373.764 113.792 373.468 114.6 373.468C115.12 373.468 115.584 373.588 115.992 373.828C116.4 374.06 116.716 374.388 116.94 374.812C117.172 375.236 117.288 375.716 117.288 376.252C117.288 376.812 117.16 377.312 116.904 377.752C116.656 378.184 116.304 378.524 115.848 378.772C115.4 379.012 114.88 379.132 114.288 379.132Z" fill="white"/>
<path d="M201.239 370.6H202.259L205.727 379H204.683L203.699 376.6H199.811L198.827 379H197.783L201.239 370.6ZM203.315 375.688L201.755 371.884L200.195 375.688H203.315ZM206.901 372.64H207.693L207.801 373.792C208.033 373.392 208.349 373.076 208.749 372.844C209.157 372.612 209.617 372.496 210.129 372.496C210.681 372.496 211.173 372.636 211.605 372.916C212.045 373.188 212.385 373.576 212.625 374.08C212.865 374.576 212.985 375.144 212.985 375.784C212.985 376.432 212.865 377.012 212.625 377.524C212.385 378.028 212.045 378.424 211.605 378.712C211.173 378.992 210.681 379.132 210.129 379.132C209.649 379.132 209.213 379.028 208.821 378.82C208.437 378.612 208.129 378.32 207.897 377.944V381.4H206.901V372.64ZM207.897 375.736C207.897 376.224 207.985 376.66 208.161 377.044C208.337 377.428 208.581 377.728 208.893 377.944C209.213 378.16 209.573 378.268 209.973 378.268C210.357 378.268 210.697 378.164 210.993 377.956C211.297 377.748 211.533 377.456 211.701 377.08C211.869 376.696 211.953 376.264 211.953 375.784C211.953 375.312 211.869 374.892 211.701 374.524C211.533 374.156 211.297 373.872 210.993 373.672C210.697 373.464 210.353 373.36 209.961 373.36C209.561 373.36 209.205 373.46 208.893 373.66C208.581 373.86 208.337 374.14 208.161 374.5C207.985 374.86 207.897 375.272 207.897 375.736ZM214.295 372.64H215.087L215.207 373.852C215.623 373.02 216.359 372.604 217.415 372.604H217.631V373.588H217.415C216.743 373.588 216.219 373.772 215.843 374.14C215.475 374.5 215.291 375.008 215.291 375.664V379H214.295V372.64Z" fill="white"/>
<path d="M318.527 379.132C317.991 379.132 317.511 379.032 317.087 378.832C316.671 378.632 316.343 378.352 316.103 377.992C315.871 377.632 315.755 377.22 315.755 376.756V375.556H316.751V376.744C316.751 377.176 316.915 377.528 317.243 377.8C317.579 378.072 318.007 378.208 318.527 378.208C319.031 378.208 319.439 378.064 319.751 377.776C320.071 377.48 320.231 377.096 320.231 376.624V370.6H321.239V376.648C321.239 377.128 321.123 377.556 320.891 377.932C320.667 378.308 320.347 378.604 319.931 378.82C319.523 379.028 319.055 379.132 318.527 379.132ZM325.32 379.132C324.56 379.132 323.964 378.924 323.532 378.508C323.1 378.092 322.884 377.552 322.884 376.888V372.64H323.88V376.852C323.88 377.3 324.02 377.648 324.3 377.896C324.58 378.136 324.952 378.256 325.416 378.256C325.992 378.256 326.44 378.092 326.76 377.764C327.088 377.428 327.256 377.008 327.264 376.504V372.64H328.26V379H327.468L327.384 378.04C327.176 378.392 326.892 378.664 326.532 378.856C326.172 379.04 325.768 379.132 325.32 379.132ZM329.93 370H330.926V379H329.93V370Z" fill="white"/>
<path d="M433.557 379.132C432.765 379.132 432.061 378.956 431.445 378.604C430.837 378.244 430.361 377.736 430.017 377.08C429.681 376.416 429.513 375.648 429.513 374.776C429.513 373.944 429.673 373.204 429.993 372.556C430.321 371.9 430.789 371.388 431.397 371.02C432.013 370.652 432.733 370.468 433.557 370.468C434.357 370.468 435.065 370.648 435.681 371.008C436.297 371.36 436.773 371.864 437.109 372.52C437.453 373.168 437.625 373.92 437.625 374.776C437.625 375.616 437.461 376.368 437.133 377.032C436.805 377.688 436.333 378.204 435.717 378.58C435.109 378.948 434.389 379.132 433.557 379.132ZM430.545 374.776C430.545 375.472 430.665 376.08 430.905 376.6C431.153 377.112 431.505 377.508 431.961 377.788C432.417 378.068 432.949 378.208 433.557 378.208C434.173 378.208 434.709 378.068 435.165 377.788C435.629 377.508 435.981 377.112 436.221 376.6C436.469 376.08 436.593 375.472 436.593 374.776C436.593 374.088 436.469 373.492 436.221 372.988C435.973 372.476 435.621 372.084 435.165 371.812C434.709 371.532 434.173 371.392 433.557 371.392C432.949 371.392 432.417 371.532 431.961 371.812C431.505 372.084 431.153 372.476 430.905 372.988C430.665 373.492 430.545 374.088 430.545 374.776ZM441.924 379.132C441.26 379.132 440.688 378.984 440.208 378.688C439.728 378.392 439.364 377.992 439.116 377.488C438.876 376.976 438.756 376.408 438.756 375.784C438.756 375.096 438.892 374.504 439.164 374.008C439.444 373.512 439.82 373.136 440.292 372.88C440.772 372.624 441.304 372.496 441.888 372.496C442.696 372.496 443.36 372.728 443.88 373.192C444.408 373.648 444.716 374.28 444.804 375.088H443.832C443.744 374.552 443.524 374.132 443.172 373.828C442.828 373.516 442.392 373.36 441.864 373.36C441.232 373.36 440.724 373.58 440.34 374.02C439.956 374.452 439.764 375.04 439.764 375.784C439.764 376.304 439.86 376.752 440.052 377.128C440.244 377.504 440.504 377.788 440.832 377.98C441.168 378.172 441.536 378.268 441.936 378.268C442.448 378.268 442.868 378.116 443.196 377.812C443.532 377.5 443.744 377.068 443.832 376.516H444.804C444.716 377.34 444.42 377.984 443.916 378.448C443.412 378.904 442.748 379.132 441.924 379.132ZM448.551 379C447.935 379 447.463 378.848 447.135 378.544C446.815 378.232 446.655 377.78 446.655 377.188V373.48H445.479V372.64H446.655V370.468H447.651V372.64H449.367V373.48H447.651V377.188C447.651 377.508 447.727 377.752 447.879 377.92C448.031 378.08 448.255 378.16 448.551 378.16H449.259V379H448.551Z" fill="white"/>
<path d="M544.793 370.6H547.757C548.549 370.6 549.253 370.776 549.869 371.128C550.493 371.48 550.977 371.972 551.321 372.604C551.673 373.228 551.849 373.944 551.849 374.752C551.849 375.576 551.673 376.312 551.321 376.96C550.977 377.6 550.493 378.1 549.869 378.46C549.253 378.82 548.549 379 547.757 379H544.793V370.6ZM547.817 378.076C548.393 378.076 548.905 377.936 549.353 377.656C549.801 377.376 550.149 376.984 550.397 376.48C550.653 375.976 550.781 375.4 550.781 374.752C550.781 374.152 550.653 373.608 550.397 373.12C550.149 372.624 549.797 372.236 549.341 371.956C548.893 371.668 548.385 371.524 547.817 371.524H545.801V378.076H547.817ZM556.104 379.132C555.488 379.132 554.94 378.992 554.46 378.712C553.988 378.432 553.62 378.044 553.356 377.548C553.1 377.044 552.972 376.476 552.972 375.844C552.972 375.148 553.108 374.548 553.38 374.044C553.652 373.532 554.016 373.148 554.472 372.892C554.936 372.628 555.44 372.496 555.984 372.496C556.864 372.496 557.564 372.78 558.084 373.348C558.612 373.916 558.884 374.704 558.9 375.712V375.988H553.968C554 376.676 554.204 377.228 554.58 377.644C554.964 378.06 555.472 378.268 556.104 378.268C556.552 378.268 556.932 378.16 557.244 377.944C557.556 377.72 557.776 377.404 557.904 376.996H558.876C558.732 377.652 558.412 378.172 557.916 378.556C557.428 378.94 556.824 379.132 556.104 379.132ZM557.856 375.16C557.768 374.6 557.56 374.16 557.232 373.84C556.904 373.52 556.488 373.36 555.984 373.36C555.48 373.36 555.052 373.52 554.7 373.84C554.356 374.152 554.132 374.592 554.028 375.16H557.856ZM563.055 379.132C562.391 379.132 561.819 378.984 561.339 378.688C560.859 378.392 560.495 377.992 560.247 377.488C560.007 376.976 559.887 376.408 559.887 375.784C559.887 375.096 560.023 374.504 560.295 374.008C560.575 373.512 560.951 373.136 561.423 372.88C561.903 372.624 562.435 372.496 563.019 372.496C563.827 372.496 564.491 372.728 565.011 373.192C565.539 373.648 565.847 374.28 565.935 375.088H564.963C564.875 374.552 564.655 374.132 564.303 373.828C563.959 373.516 563.523 373.36 562.995 373.36C562.363 373.36 561.855 373.58 561.471 374.02C561.087 374.452 560.895 375.04 560.895 375.784C560.895 376.304 560.991 376.752 561.183 377.128C561.375 377.504 561.635 377.788 561.963 377.98C562.299 378.172 562.667 378.268 563.067 378.268C563.579 378.268 563.999 378.116 564.327 377.812C564.663 377.5 564.875 377.068 564.963 376.516H565.935C565.847 377.34 565.551 377.984 565.047 378.448C564.543 378.904 563.879 379.132 563.055 379.132Z" fill="white"/>
<defs>
<linearGradient id="paint0_linear_3735_339" x1="67" y1="357.5" x2="94" y2="357.5" gradientUnits="userSpaceOnUse">
<stop stop-color="#0C9790"/>
<stop offset="1" stop-color="#42D5CE"/>
</linearGradient>
<linearGradient id="paint1_linear_3735_339" x1="112" y1="357.5" x2="139" y2="357.5" gradientUnits="userSpaceOnUse">
<stop stop-color="#0C9790"/>
<stop offset="1" stop-color="#42D5CE"/>
</linearGradient>
<linearGradient id="paint2_linear_3735_339" x1="157" y1="357.5" x2="184" y2="357.5" gradientUnits="userSpaceOnUse">
<stop stop-color="#0C9790"/>
<stop offset="1" stop-color="#42D5CE"/>
</linearGradient>
<linearGradient id="paint3_linear_3735_339" x1="202" y1="353.5" x2="229" y2="353.5" gradientUnits="userSpaceOnUse">
<stop stop-color="#0C9790"/>
<stop offset="1" stop-color="#42D5CE"/>
</linearGradient>
<linearGradient id="paint4_linear_3735_339" x1="247" y1="347.5" x2="274" y2="347.5" gradientUnits="userSpaceOnUse">
<stop stop-color="#0C9790"/>
<stop offset="1" stop-color="#42D5CE"/>
</linearGradient>
<linearGradient id="paint5_linear_3735_339" x1="292" y1="347.5" x2="319" y2="347.5" gradientUnits="userSpaceOnUse">
<stop stop-color="#0C9790"/>
<stop offset="1" stop-color="#42D5CE"/>
</linearGradient>
<linearGradient id="paint6_linear_3735_339" x1="337" y1="333" x2="364" y2="333" gradientUnits="userSpaceOnUse">
<stop stop-color="#0C9790"/>
<stop offset="1" stop-color="#42D5CE"/>
</linearGradient>
<linearGradient id="paint7_linear_3735_339" x1="382" y1="327.5" x2="409" y2="327.5" gradientUnits="userSpaceOnUse">
<stop stop-color="#0C9790"/>
<stop offset="1" stop-color="#42D5CE"/>
</linearGradient>
<linearGradient id="paint8_linear_3735_339" x1="427" y1="279" x2="454" y2="279" gradientUnits="userSpaceOnUse">
<stop stop-color="#0C9790"/>
<stop offset="1" stop-color="#42D5CE"/>
</linearGradient>
<linearGradient id="paint9_linear_3735_339" x1="472" y1="271" x2="499" y2="271" gradientUnits="userSpaceOnUse">
<stop stop-color="#0C9790"/>
<stop offset="1" stop-color="#42D5CE"/>
</linearGradient>
<linearGradient id="paint10_linear_3735_339" x1="517" y1="260.5" x2="544" y2="260.5" gradientUnits="userSpaceOnUse">
<stop stop-color="#0C9790"/>
<stop offset="1" stop-color="#42D5CE"/>
</linearGradient>
<linearGradient id="paint11_linear_3735_339" x1="562" y1="252.5" x2="589" y2="252.5" gradientUnits="userSpaceOnUse">
<stop stop-color="#0C9790"/>
<stop offset="1" stop-color="#42D5CE"/>
</linearGradient>
</defs>
</svg>
