<svg width="175" height="48" viewBox="0 0 175 48" fill="none" xmlns="http://www.w3.org/2000/svg">
<g clip-path="url(#clip0_3391_196761)">
<g clip-path="url(#clip1_3391_196761)">
<mask id="mask0_3391_196761" style="mask-type:luminance" maskUnits="userSpaceOnUse" x="0" y="15" width="175" height="18">
<path d="M174.875 15H0.125V33H174.875V15Z" fill="white"/>
</mask>
<g mask="url(#mask0_3391_196761)">
<path d="M156.411 15H152.15L148.168 33H152.429L156.411 15Z" fill="#778A96"/>
<path d="M174.876 15H170.615L166.633 33H170.894L174.876 15Z" fill="#778A96"/>
<path d="M160.673 15L166.633 33H162.372L156.412 15H160.673Z" fill="#778A96"/>
<path d="M55.2803 28.7363L58.3193 15H54.0586L50.0762 33H72.8011L73.7441 28.7363H55.2803Z" fill="#778A96"/>
<path d="M78.5823 15L74.5996 33H90.4503C94.2468 33 98.0058 29.9201 98.8458 26.1212L95.5285 21.8576H99.7893C100.627 18.0704 98.2383 15.0004 94.4538 15.0004L78.5823 15ZM91.4155 28.736H79.804L80.3823 26.1209H94.5858L94.5813 26.1424C94.264 27.5747 92.8465 28.736 91.4155 28.736ZM95.5293 21.8573H81.3258L81.8995 19.2636H93.511C94.9428 19.2636 95.8458 20.4249 95.5293 21.8573Z" fill="#778A96"/>
<path d="M146.37 33L147.891 26.1212L144.574 21.8576H148.835C149.673 18.0704 147.284 15 143.499 15H127.627L123.645 32.9996H127.905L129.428 26.1209H143.631L142.109 32.9996L146.37 33ZM144.574 21.8576H130.371L130.945 19.264H142.556C143.988 19.264 144.891 20.4252 144.574 21.8576Z" fill="#778A96"/>
<path d="M103.104 15L99.1211 33H121.846L125.829 15H103.104ZM118.528 28.7363H104.325L106.421 19.264H120.624L118.528 28.7363Z" fill="#778A96"/>
<path d="M40.4452 15H35.7322L24.6484 33H28.9092L40.4452 15H45.1577L48.277 33H44.0162L40.4452 15Z" fill="#778A96"/>
<path d="M22.5713 15L21.0519 21.8682H6.84882L8.36818 15H4.10742L0.125 33H4.3861L6.84882 21.8682L10.1662 26.1322H20.1086L18.5889 33H22.8499L26.8321 15H22.5713Z" fill="#778A96"/>
</g>
</g>
</g>
<defs>
<clipPath id="clip0_3391_196761">
<rect width="174.75" height="48" fill="white" transform="translate(0.125)"/>
</clipPath>
<clipPath id="clip1_3391_196761">
<rect width="174.75" height="18" fill="white" transform="translate(0.125 15)"/>
</clipPath>
</defs>
</svg>
