<svg width="86" height="27" viewBox="0 0 86 27" fill="none" xmlns="http://www.w3.org/2000/svg">
<g clip-path="url(#clip0_670_3873)">
<mask id="mask0_670_3873" style="mask-type:luminance" maskUnits="userSpaceOnUse" x="0" y="0" width="85" height="27">
<path d="M84.9261 0.592804H0.969238V26.567H84.9261V0.592804Z" fill="white"/>
</mask>
<g mask="url(#mask0_670_3873)">
<mask id="mask1_670_3873" style="mask-type:luminance" maskUnits="userSpaceOnUse" x="0" y="0" width="85" height="27">
<path d="M84.9261 0.592789H0.969238V26.567H84.9261V0.592789Z" fill="white"/>
</mask>
<g mask="url(#mask1_670_3873)">
<path d="M4.49512 1.36814L1.08077 0.595082C1.02362 0.582143 0.969238 0.625589 0.969238 0.684186V14.155C0.969238 14.2128 1.02234 14.2562 1.07902 14.2445L4.49336 13.5417C4.53581 13.533 4.5663 13.4956 4.5663 13.4522V1.45724C4.5663 1.41456 4.53673 1.37757 4.49512 1.36814Z" fill="#151A1A"/>
<path d="M10.3329 1.36815L13.7473 0.595098C13.8044 0.582158 13.8588 0.625605 13.8588 0.684202V14.155C13.8588 14.2129 13.8057 14.2562 13.749 14.2445L10.3347 13.5418C10.2922 13.533 10.2617 13.4956 10.2617 13.4522V1.45726C10.2617 1.41458 10.2912 1.37759 10.3329 1.36815Z" fill="#151A1A"/>
<mask id="mask2_670_3873" style="mask-type:alpha" maskUnits="userSpaceOnUse" x="5" y="5" width="5" height="5">
<path d="M9.21326 9.09611C9.21326 9.13959 9.17799 9.17486 9.13452 9.17486H5.69492C5.65145 9.17486 5.61621 9.13959 5.61621 9.09611V5.65653C5.61621 5.61306 5.65145 5.57782 5.69492 5.57782H9.13452C9.17799 5.57782 9.21326 5.61306 9.21326 5.65653V9.09611Z" fill="#0072E5"/>
</mask>
<g mask="url(#mask2_670_3873)">
<path d="M5.61621 5.57782H9.21326L5.61621 9.17486V5.57782Z" fill="#151A1A"/>
<path d="M9.21326 9.17486H5.61621L9.21326 5.57782V9.17486Z" fill="#151A1A"/>
</g>
<path d="M49.2015 0.912521C49.1508 0.912521 49.1099 0.953425 49.1099 1.00388V5.95374C49.1099 6.00421 49.069 6.04512 49.0187 6.04512H43.9387C43.8883 6.04512 43.8474 6.00421 43.8474 5.95374V1.00388C43.8474 0.953425 43.8065 0.912521 43.7561 0.912521H41.085C41.0346 0.912521 40.9937 0.953425 40.9937 1.00388V13.7921C40.9937 13.8425 41.0346 13.8834 41.085 13.8834H43.7561C43.8065 13.8834 43.8474 13.8425 43.8474 13.7921V8.76803C43.8474 8.71758 43.8883 8.67664 43.9387 8.67664H49.0187C49.069 8.67664 49.1099 8.71758 49.1099 8.76803V13.7921C49.1099 13.8425 49.1508 13.8834 49.2015 13.8834H51.8719C51.9222 13.8834 51.9632 13.8425 51.9632 13.7921V1.00388C51.9632 0.953425 51.9222 0.912521 51.8719 0.912521H49.2015Z" fill="#151A1A"/>
<path d="M21.9211 4.37188C21.9397 4.32649 22.004 4.32649 22.0226 4.37188L23.6639 8.37856C23.6786 8.41465 23.6521 8.45416 23.6131 8.45416H20.3304C20.2914 8.45416 20.2649 8.41465 20.2796 8.37856L21.9211 4.37188ZM20.7537 0.820282C20.7171 0.820282 20.684 0.842162 20.6696 0.875868L15.1885 13.7561C15.1629 13.8164 15.2071 13.8832 15.2726 13.8832H17.9823C18.0194 13.8832 18.0528 13.8608 18.0668 13.8264L19.2062 11.0311C19.2203 10.9968 19.2537 10.9743 19.2908 10.9743H24.6526C24.6898 10.9743 24.7233 10.9968 24.7373 11.0311L25.8769 13.8264C25.8909 13.8608 25.9244 13.8832 25.9615 13.8832H28.7456C28.8109 13.8832 28.8553 13.8163 28.8296 13.7561L23.3481 0.875865C23.3337 0.84216 23.3006 0.820282 23.264 0.820282H20.7537Z" fill="#151A1A"/>
<path d="M29.1347 12.0523C29.0978 12.0199 29.0936 11.9637 29.1253 11.9259L30.6969 10.0434C30.7289 10.0047 30.7864 9.99955 30.8254 10.0313C31.9712 10.9616 33.175 11.5491 34.6277 11.5491C35.7949 11.5491 36.4991 11.0862 36.4991 10.3261V10.2892C36.4991 9.56639 36.0544 9.19599 33.8862 8.64021C31.2736 7.97301 29.5874 7.25021 29.5874 4.67499V4.63755C29.5874 2.2839 31.4774 0.727692 34.127 0.727692C35.9852 0.727692 37.5753 1.30116 38.8785 2.32409C38.916 2.35365 38.9239 2.40744 38.8966 2.44686L37.5147 4.45075C37.4858 4.49236 37.4289 4.50267 37.3872 4.4742C36.2638 3.70854 35.1592 3.24759 34.0901 3.24759C32.9968 3.24759 32.4227 3.74755 32.4227 4.37825V4.41498C32.4227 5.26752 32.9784 5.54542 35.2208 6.11958C37.8516 6.80558 39.3343 7.75046 39.3343 10.0108V10.0475C39.3343 12.6235 37.3701 14.069 34.572 14.069C32.6361 14.0692 30.6809 13.4027 29.1347 12.0523Z" fill="#151A1A"/>
<path d="M61.9314 0.912521C61.8808 0.912521 61.8398 0.953425 61.8398 1.00388V13.7921C61.8398 13.8425 61.8808 13.8834 61.9314 13.8834H71.6248C71.6754 13.8834 71.7164 13.8425 71.7164 13.7921V11.4361C71.7164 11.3855 71.6754 11.3447 71.6248 11.3447H64.7655C64.7151 11.3447 64.6742 11.3038 64.6742 11.2533V8.71218C64.6742 8.66174 64.7151 8.62079 64.7655 8.62079H70.6986C70.7492 8.62079 70.7902 8.57992 70.7902 8.52947V6.17368C70.7902 6.12322 70.7492 6.08232 70.6986 6.08232H64.7655C64.7151 6.08232 64.6742 6.04142 64.6742 5.99097V3.54262C64.6742 3.49217 64.7151 3.45127 64.7655 3.45127H71.5325C71.5831 3.45127 71.6234 3.41036 71.6234 3.35991V1.00388C71.6234 0.953425 71.5831 0.912521 71.5325 0.912521H61.9314Z" fill="#151A1A"/>
<path d="M81.8105 0.912521C81.7784 0.912521 81.7483 0.929234 81.7319 0.956591L78.6881 5.98894C78.6519 6.04795 78.5664 6.04764 78.5309 5.98832L75.5404 0.957202C75.524 0.9295 75.4946 0.912521 75.4625 0.912521H72.3449C72.2725 0.912521 72.2294 0.991992 72.2677 1.05282L77.1488 8.74677C77.1577 8.7614 77.1625 8.77842 77.1625 8.79571V13.7921C77.1625 13.8425 77.2035 13.8834 77.2541 13.8834H79.9253C79.9759 13.8834 80.0169 13.8425 80.0169 13.7921V8.74055C80.0169 8.72312 80.0217 8.70603 80.0312 8.69133L84.9117 1.05307C84.9499 0.992257 84.9069 0.912521 84.8344 0.912521H81.8105Z" fill="#151A1A"/>
<path d="M56.7726 0.913025C56.7485 0.913025 56.7252 0.922648 56.7081 0.939776L54.718 2.92918L52.766 4.8812C52.7303 4.91688 52.7303 4.97473 52.766 5.01041L54.6535 6.89761C54.6892 6.93327 54.7472 6.93327 54.7828 6.89761L56.7349 4.94579L58.7512 2.92918L60.6743 1.00661C60.7087 0.972075 60.6843 0.913025 60.6354 0.913025H56.7726Z" fill="#151A1A"/>
<mask id="mask3_670_3873" style="mask-type:alpha" maskUnits="userSpaceOnUse" x="52" y="7" width="9" height="7">
<path d="M54.8074 7.9749C54.7717 7.93922 54.714 7.93922 54.6783 7.9749L52.8168 9.83656C52.7811 9.87224 52.7811 9.93014 52.8168 9.96582L56.7075 13.8563C56.7245 13.8735 56.7479 13.8831 56.772 13.8831L60.5831 13.8834C60.6319 13.8834 60.6566 13.8244 60.6219 13.7898L54.8074 7.9749Z" fill="#66B3FF"/>
</mask>
<g mask="url(#mask3_670_3873)">
<path d="M56.7344 9.90154L54.7433 7.91083L52.7524 9.90154H56.7344Z" fill="#151A1A"/>
<path d="M52.7524 9.90182L54.7433 11.8928L56.7344 9.90182H52.7524Z" fill="#151A1A"/>
<path d="M58.7258 11.8928L56.7348 9.90182L54.7437 11.8928H58.7258Z" fill="#151A1A"/>
<path d="M54.7437 11.8927L56.7348 13.8837L58.7258 11.8927H54.7437Z" fill="#151A1A"/>
<path d="M56.7339 13.8839H60.7155L58.7247 11.8927L56.7339 13.8839Z" fill="#151A1A"/>
</g>
<path d="M40.8496 19.715C40.8496 19.645 40.9341 19.6098 40.9836 19.6591L44.1263 22.7807C44.1572 22.8114 44.1572 22.8613 44.1268 22.8921L40.9842 26.0557C40.9346 26.1055 40.8496 26.0704 40.8496 26.0002V19.715Z" fill="#151A1A"/>
<path d="M74.2904 26.2863C74.2159 26.2863 74.1694 26.2398 74.1694 26.1654V19.5835C74.1694 19.5092 74.2159 19.4627 74.2904 19.4627H76.5584C78.827 19.4627 80.0075 20.727 80.0075 22.8745C80.0075 25.0127 78.827 26.2863 76.5584 26.2863H74.2904ZM76.4189 20.6434H75.4244V25.1057H76.4189C77.9343 25.1057 78.706 24.3061 78.706 22.8745C78.706 21.4429 77.9343 20.6434 76.4189 20.6434Z" fill="#151A1A"/>
<path d="M69.8468 26.4165C68.5077 26.4165 67.0854 25.6727 67.0854 23.5067V19.5835C67.0854 19.5092 67.1319 19.4627 67.2064 19.4627H68.2196C68.2939 19.4627 68.3403 19.5092 68.3403 19.5835V23.2836C68.3403 24.6222 68.9912 25.1893 69.8468 25.1893C70.6924 25.1893 71.3616 24.6222 71.3616 23.2836V19.5835C71.3616 19.5092 71.408 19.4627 71.4825 19.4627H72.4962C72.57 19.4627 72.6172 19.5092 72.6172 19.5835V23.5067C72.6172 25.6727 71.1852 26.4165 69.8468 26.4165Z" fill="#151A1A"/>
<path d="M62.1296 26.4164C60.1403 26.4164 58.6899 25.0126 58.6899 22.8744C58.6899 20.7362 60.1403 19.3325 62.1296 19.3325C64.1191 19.3325 65.5692 20.7362 65.5692 22.8744C65.5692 25.0126 64.1191 26.4164 62.1296 26.4164ZM62.1296 25.1892C63.4404 25.1892 64.2678 24.2224 64.2678 22.8744C64.2678 21.5264 63.4404 20.5596 62.1296 20.5596C60.8188 20.5596 59.9916 21.5264 59.9916 22.8744C59.9916 24.2224 60.8188 25.1892 62.1296 25.1892Z" fill="#151A1A"/>
<path d="M53.5113 26.2863C53.4371 26.2863 53.3906 26.2398 53.3906 26.1654V19.5835C53.3906 19.5092 53.4371 19.4627 53.5113 19.4627H54.5249C54.5991 19.4627 54.6455 19.5092 54.6455 19.5835V25.0871H57.9367C58.0109 25.0871 58.0574 25.1335 58.0574 25.2079V26.1654C58.0574 26.2398 58.0109 26.2863 57.9367 26.2863H53.5113Z" fill="#151A1A"/>
<path fill-rule="evenodd" clip-rule="evenodd" d="M51.3634 21.4039C51.397 21.4393 51.4545 21.4377 51.4846 21.3995L52.1896 20.5141C52.2143 20.4829 52.2119 20.4381 52.1836 20.4103C51.483 19.7267 50.5031 19.3259 49.524 19.3259C47.441 19.3259 45.8335 20.8517 45.8335 22.8481C45.8335 24.8636 47.4206 26.4098 49.4744 26.4098C50.4876 26.4098 51.4733 25.951 52.1914 25.2483C52.2211 25.2192 52.2221 25.1719 52.1943 25.1409L51.4817 24.347C51.4516 24.3136 51.4001 24.312 51.3671 24.3425C50.8754 24.7998 50.2229 25.1095 49.5439 25.1095C48.2509 25.1095 47.2427 24.1109 47.2427 22.8282C47.2427 21.5556 48.2507 20.5569 49.5439 20.5569C50.24 20.5569 50.8916 20.9072 51.3634 21.4039Z" fill="#151A1A"/>
</g>
</g>
</g>
<defs>
<clipPath id="clip0_670_3873">
<rect width="84.0744" height="25.9742" fill="white" transform="translate(0.969238 0.592789)"/>
</clipPath>
</defs>
</svg>
