<svg width="61" height="20" viewBox="0 0 61 20" fill="none" xmlns="http://www.w3.org/2000/svg">
<g clip-path="url(#clip0_649_3832)">
<mask id="mask0_649_3832" style="mask-type:luminance" maskUnits="userSpaceOnUse" x="0" y="0" width="61" height="20">
<path d="M60.1947 0.970947H0.859863V19.3277H60.1947V0.970947Z" fill="white"/>
</mask>
<g mask="url(#mask0_649_3832)">
<mask id="mask1_649_3832" style="mask-type:luminance" maskUnits="userSpaceOnUse" x="0" y="0" width="61" height="20">
<path d="M60.1947 0.970947H0.859863V19.3277H60.1947V0.970947Z" fill="white"/>
</mask>
<g mask="url(#mask1_649_3832)">
<path d="M3.35171 1.51891L0.938688 0.972568C0.898298 0.963423 0.859863 0.994129 0.859863 1.03554V10.5558C0.859863 10.5967 0.897394 10.6273 0.937447 10.619L3.35047 10.1224C3.38047 10.1162 3.40201 10.0898 3.40201 10.0591V1.58188C3.40201 1.55172 3.38112 1.52558 3.35171 1.51891Z" fill="white"/>
<path d="M7.47758 1.51891L9.89058 0.972568C9.93096 0.963423 9.96942 0.994129 9.96942 1.03554V10.5558C9.96942 10.5967 9.93188 10.6273 9.89184 10.619L7.47879 10.1224C7.44879 10.1162 7.42725 10.0898 7.42725 10.0591V1.58188C7.42725 1.55172 7.44812 1.52558 7.47758 1.51891Z" fill="white"/>
<mask id="mask2_649_3832" style="mask-type:alpha" maskUnits="userSpaceOnUse" x="4" y="4" width="3" height="4">
<path d="M6.68619 6.98038C6.68619 7.01111 6.66126 7.03603 6.63054 7.03603H4.19967C4.16895 7.03603 4.14404 7.01111 4.14404 6.98038V4.54952C4.14404 4.5188 4.16895 4.4939 4.19967 4.4939H6.63054C6.66126 4.4939 6.68619 4.5188 6.68619 4.54952V6.98038Z" fill="#0072E5"/>
</mask>
<g mask="url(#mask2_649_3832)">
<path d="M4.14404 4.4939H6.68619L4.14404 7.03603V4.4939Z" fill="#CCCDCD"/>
<path d="M6.68619 7.03603H4.14404L6.68619 4.4939V7.03603Z" fill="#BFC1C0"/>
</g>
<path d="M34.9472 1.19678C34.9114 1.19678 34.8825 1.22568 34.8825 1.26134V4.75956C34.8825 4.79523 34.8536 4.82414 34.818 4.82414H31.2279C31.1923 4.82414 31.1633 4.79523 31.1633 4.75956V1.26134C31.1633 1.22568 31.1344 1.19678 31.0988 1.19678H29.211C29.1754 1.19678 29.1465 1.22568 29.1465 1.26134V10.2991C29.1465 10.3348 29.1754 10.3637 29.211 10.3637H31.0988C31.1344 10.3637 31.1633 10.3348 31.1633 10.2991V6.7485C31.1633 6.71285 31.1923 6.68392 31.2279 6.68392H34.818C34.8536 6.68392 34.8825 6.71285 34.8825 6.7485V10.2991C34.8825 10.3348 34.9114 10.3637 34.9472 10.3637H36.8344C36.87 10.3637 36.899 10.3348 36.899 10.2991V1.26134C36.899 1.22568 36.87 1.19678 36.8344 1.19678H34.9472Z" fill="white"/>
<path d="M15.6672 3.64161C15.6803 3.60954 15.7257 3.60954 15.7388 3.64161L16.8988 6.47326C16.9092 6.49877 16.8905 6.52669 16.8629 6.52669H14.5429C14.5154 6.52669 14.4966 6.49877 14.5071 6.47326L15.6672 3.64161ZM14.8421 1.13159C14.8162 1.13159 14.7928 1.14705 14.7827 1.17088L10.909 10.2737C10.8909 10.3163 10.9222 10.3636 10.9684 10.3636H12.8834C12.9097 10.3636 12.9333 10.3477 12.9432 10.3234L13.7484 8.34792C13.7584 8.32362 13.782 8.30773 13.8082 8.30773H17.5976C17.6238 8.30773 17.6475 8.32362 17.6574 8.34792L18.4628 10.3234C18.4727 10.3477 18.4964 10.3636 18.5226 10.3636H20.4902C20.5364 10.3636 20.5677 10.3163 20.5496 10.2737L16.6756 1.17087C16.6655 1.14705 16.6421 1.13159 16.6162 1.13159H14.8421Z" fill="white"/>
<path d="M20.7654 9.06988C20.7392 9.04698 20.7363 9.00727 20.7587 8.98056L21.8694 7.65008C21.892 7.62278 21.9326 7.61911 21.9603 7.64153C22.77 8.29904 23.6207 8.71424 24.6474 8.71424C25.4723 8.71424 25.97 8.38705 25.97 7.84992V7.82379C25.97 7.31299 25.6557 7.05121 24.1234 6.65843C22.277 6.1869 21.0853 5.67607 21.0853 3.85608V3.82962C21.0853 2.16623 22.421 1.06641 24.2936 1.06641C25.6068 1.06641 26.7306 1.47169 27.6516 2.19463C27.6781 2.21552 27.6836 2.25354 27.6644 2.28139L26.6877 3.6976C26.6674 3.72701 26.6271 3.7343 26.5977 3.71418C25.8037 3.17306 25.023 2.84729 24.2675 2.84729C23.4948 2.84729 23.0891 3.20063 23.0891 3.64637V3.67233C23.0891 4.27484 23.4818 4.47124 25.0666 4.87702C26.9259 5.36184 27.9737 6.02961 27.9737 7.62708V7.65302C27.9737 9.47353 26.5856 10.4951 24.6081 10.4951C23.2399 10.4953 21.8581 10.0242 20.7654 9.06988Z" fill="white"/>
<path d="M43.9436 1.19678C43.9078 1.19678 43.8789 1.22568 43.8789 1.26134V10.2991C43.8789 10.3348 43.9078 10.3637 43.9436 10.3637H50.7942C50.83 10.3637 50.859 10.3348 50.859 10.2991V8.63408C50.859 8.59838 50.83 8.5695 50.7942 8.5695H45.9466C45.911 8.5695 45.882 8.54061 45.882 8.50491V6.70904C45.882 6.67339 45.911 6.64445 45.9466 6.64445H50.1397C50.1754 6.64445 50.2044 6.61556 50.2044 6.57991V4.915C50.2044 4.87934 50.1754 4.85043 50.1397 4.85043H45.9466C45.911 4.85043 45.882 4.82153 45.882 4.78587V3.05555C45.882 3.01989 45.911 2.99099 45.9466 2.99099H50.729C50.7648 2.99099 50.7933 2.96208 50.7933 2.92642V1.26134C50.7933 1.22568 50.7648 1.19678 50.729 1.19678H43.9436Z" fill="white"/>
<path d="M57.993 1.19678C57.9703 1.19678 57.9491 1.20859 57.9375 1.22792L55.7864 4.78444C55.7608 4.82615 55.7004 4.82592 55.6753 4.784L53.5618 1.22835C53.5502 1.20878 53.5294 1.19678 53.5067 1.19678H51.3034C51.2522 1.19678 51.2218 1.25294 51.2489 1.29593L54.6985 6.73348C54.7048 6.74382 54.7081 6.75585 54.7081 6.76807V10.2991C54.7081 10.3348 54.7371 10.3637 54.7729 10.3637H56.6607C56.6965 10.3637 56.7255 10.3348 56.7255 10.2991V6.72908C56.7255 6.71677 56.7288 6.70469 56.7356 6.6943L60.1847 1.29611C60.2118 1.25313 60.1814 1.19678 60.1302 1.19678H57.993Z" fill="white"/>
<path d="M40.2978 1.19727C40.2807 1.19727 40.2642 1.20407 40.2522 1.21617L38.8457 2.62215L37.4662 4.0017C37.441 4.02691 37.441 4.0678 37.4662 4.09302L38.8001 5.42676C38.8254 5.45196 38.8663 5.45196 38.8915 5.42676L40.2711 4.04735L41.6961 2.62215L43.0552 1.2634C43.0795 1.239 43.0622 1.19727 43.0277 1.19727H40.2978Z" fill="white"/>
<mask id="mask3_649_3832" style="mask-type:alpha" maskUnits="userSpaceOnUse" x="37" y="6" width="7" height="5">
<path d="M38.9091 6.1881C38.8839 6.16289 38.8431 6.16289 38.8179 6.1881L37.5023 7.5038C37.4771 7.52902 37.4771 7.56993 37.5023 7.59515L40.252 10.3447C40.264 10.3568 40.2805 10.3636 40.2976 10.3636L42.991 10.3638C43.0255 10.3638 43.0429 10.3221 43.0184 10.2977L38.9091 6.1881Z" fill="#66B3FF"/>
</mask>
<g mask="url(#mask3_649_3832)">
<path d="M40.2707 7.54948L38.8635 6.14258L37.4565 7.54948H40.2707Z" fill="#D1D3D2"/>
<path d="M37.4565 7.5498L38.8635 8.9569L40.2707 7.5498H37.4565Z" fill="#BFC1C0"/>
<path d="M41.6781 8.9569L40.271 7.5498L38.8638 8.9569H41.6781Z" fill="#CCCDCD"/>
<path d="M38.8638 8.95679L40.271 10.3639L41.6781 8.95679H38.8638Z" fill="#BFC1BE"/>
<path d="M40.2705 10.3641H43.0845L41.6775 8.95679L40.2705 10.3641Z" fill="#C5C7C6"/>
</g>
<path d="M29.0444 14.4852C29.0444 14.4357 29.1041 14.4109 29.1392 14.4457L31.3601 16.6518C31.382 16.6735 31.382 16.7088 31.3605 16.7305L29.1396 18.9663C29.1045 19.0016 29.0444 18.9768 29.0444 18.9271V14.4852Z" fill="white"/>
<path d="M52.6783 19.1294C52.6256 19.1294 52.5928 19.0965 52.5928 19.0439V14.3923C52.5928 14.3398 52.6256 14.3069 52.6783 14.3069H54.2811C55.8844 14.3069 56.7187 15.2004 56.7187 16.7181C56.7187 18.2292 55.8844 19.1294 54.2811 19.1294H52.6783ZM54.1826 15.1413H53.4797V18.2949H54.1826C55.2535 18.2949 55.7989 17.7299 55.7989 16.7181C55.7989 15.7063 55.2535 15.1413 54.1826 15.1413Z" fill="#D1D3D2"/>
<path d="M49.538 19.2213C48.5916 19.2213 47.5864 18.6957 47.5864 17.1649V14.3923C47.5864 14.3398 47.6192 14.3069 47.6719 14.3069H48.388C48.4405 14.3069 48.4733 14.3398 48.4733 14.3923V17.0072C48.4733 17.9533 48.9333 18.3541 49.538 18.3541C50.1356 18.3541 50.6085 17.9533 50.6085 17.0072V14.3923C50.6085 14.3398 50.6413 14.3069 50.694 14.3069H51.4104C51.4626 14.3069 51.4959 14.3398 51.4959 14.3923V17.1649C51.4959 18.6957 50.4838 19.2213 49.538 19.2213Z" fill="#D1D3D2"/>
<path d="M44.0838 19.2213C42.6779 19.2213 41.6528 18.2292 41.6528 16.718C41.6528 15.2069 42.6779 14.2148 44.0838 14.2148C45.4898 14.2148 46.5146 15.2069 46.5146 16.718C46.5146 18.2292 45.4898 19.2213 44.0838 19.2213ZM44.0838 18.354C45.0101 18.354 45.5949 17.6707 45.5949 16.718C45.5949 15.7654 45.0101 15.0821 44.0838 15.0821C43.1574 15.0821 42.5727 15.7654 42.5727 16.718C42.5727 17.6707 43.1574 18.354 44.0838 18.354Z" fill="#D1D3D2"/>
<path d="M37.993 19.1294C37.9406 19.1294 37.9077 19.0965 37.9077 19.0439V14.3923C37.9077 14.3398 37.9406 14.3069 37.993 14.3069H38.7093C38.7618 14.3069 38.7946 14.3398 38.7946 14.3923V18.2818H41.1205C41.173 18.2818 41.2058 18.3147 41.2058 18.3672V19.0439C41.2058 19.0965 41.173 19.1294 41.1205 19.1294H37.993Z" fill="#D1D3D2"/>
<path fill-rule="evenodd" clip-rule="evenodd" d="M36.4751 15.6788C36.4988 15.7038 36.5394 15.7027 36.5607 15.6757L37.0589 15.0499C37.0764 15.0279 37.0747 14.9962 37.0547 14.9766C36.5596 14.4934 35.8671 14.2102 35.1751 14.2102C33.703 14.2102 32.5669 15.2886 32.5669 16.6994C32.5669 18.1239 33.6885 19.2166 35.14 19.2166C35.8561 19.2166 36.5527 18.8923 37.0602 18.3957C37.0812 18.3752 37.0819 18.3417 37.0623 18.3199L36.5587 17.7588C36.5374 17.7351 36.501 17.734 36.4777 17.7556C36.1302 18.0788 35.669 18.2976 35.1892 18.2976C34.2754 18.2976 33.5628 17.5919 33.5628 16.6854C33.5628 15.786 34.2752 15.0802 35.1892 15.0802C35.6811 15.0802 36.1416 15.3278 36.4751 15.6788Z" fill="#D1D3D2"/>
</g>
</g>
</g>
<defs>
<clipPath id="clip0_649_3832">
<rect width="59.418" height="18.3568" fill="white" transform="translate(0.859863 0.970947)"/>
</clipPath>
</defs>
</svg>
