<svg width="1440" height="800" viewBox="0 0 1440 800" fill="none" xmlns="http://www.w3.org/2000/svg">
<g opacity="0.3">
<path opacity="0.3" d="M696 -465.5C939.864 -465.5 1137.5 -279.93 1137.5 -51.084C1137.5 177.762 939.864 363.331 696 363.331C452.136 363.331 254.5 177.762 254.5 -51.084C254.5 -279.93 452.136 -465.5 696 -465.5Z" stroke="url(#paint0_linear_3364_10228)"/>
<path d="M207 3.36182L1407 3.36155" stroke="url(#paint1_radial_3364_10228)"/>
<path opacity="0.32" d="M1127.67 3.42285C1204.42 3.42285 1269.51 24.1623 1315.4 59.668C1361.26 95.1606 1387.97 145.429 1387.97 204.631V205.631H1387.99C1387.55 259.394 1351.22 320.117 1279.54 386.166C1259.48 404.662 1239.75 420.688 1222.57 433.858C1205.09 447.251 1196.2 468.154 1198.98 489.228V489.229C1200.43 500.131 1201.81 511.942 1202.84 523.897C1204.22 539.833 1205.25 557.6 1205.88 576.667C1207.21 616.86 1174.85 650.341 1132.04 652.82C882.689 667.163 664.356 736.893 525.093 792.867V792.868C515.767 796.623 505.974 798.399 496.301 798.399C469.469 798.399 443.546 784.642 430.461 761.219H430.46C418.067 738.965 407.089 718.012 397.901 698.923C389.6 681.678 382.894 664.9 377.22 649.231C371.42 633.217 357.752 620.938 340.577 616.02H340.576C319.567 610.03 293.948 601.335 268.078 589.214L265.574 588.03C178.696 546.574 133 486.692 133 414.95C133 369.602 143.953 320.037 180.878 281.807C217.797 243.582 280.848 216.515 385.416 216.515C479.575 216.515 556.164 243.068 594.83 259.641C600.334 262.008 606.728 261.603 611.871 258.549C660.572 229.67 713.956 196.984 765.332 163.47C778.688 154.751 791.744 145.999 804.482 137.415L817.114 128.895C916.975 61.454 1002.94 3.42296 1127.67 3.42285ZM1127.55 65.6895C1027.33 65.6895 954.313 112.931 864.459 173.535L855.709 179.44C838.786 190.855 821.274 202.678 803.011 214.588C742.128 254.271 678.544 292.838 622.957 325.421C622.71 325.56 622.464 325.707 622.23 325.846C621.993 325.987 621.767 326.121 621.544 326.247L621.537 326.251L621.529 326.255C531.535 379.011 462.95 415.96 461.858 416.546V416.547C445.946 425.097 425.662 419.881 416.597 404.992C407.556 390.143 413.019 371.157 428.899 362.624L428.911 362.618C429.543 362.268 453.442 349.402 491.116 328.232L498.832 323.89C512.911 315.96 509.836 296.032 494.09 292.17L491.161 291.463C460.719 284.215 424.676 278.722 385.29 278.722C303.125 278.722 256.521 296.815 230.478 323.036C204.425 349.267 199.157 383.423 199.157 415.009C199.157 451.017 218.001 479.138 244.039 500.782C270.066 522.417 303.36 537.654 332.497 547.936C358.109 556.97 386.469 554.283 410.158 541.502C426.172 532.863 446.559 524.183 471.996 514.989C514.869 499.491 556.023 488.764 557.736 488.325L557.741 488.324C570.904 484.881 584.395 489.421 592.429 498.788C600.421 508.108 603.096 522.314 594.407 538.438L594.406 538.439C592.395 542.192 588.571 544.898 584.123 545.992L584.12 545.993C536.421 557.85 487.124 574.8 456.182 588.946L454.723 589.618C440.499 596.193 433.675 611.698 438.69 625.926V625.927C443.721 640.165 450.297 656.982 458.197 673.394L458.198 673.396C461.926 681.077 465.496 689.197 469.3 697.644V697.645C476.623 713.878 492.884 724.309 510.703 725.571H510.704C517.086 726.016 523.419 724.962 529.409 723.02L529.254 723.264L532.065 722.207C559.77 711.79 682.675 662.68 820.479 631.671C1001.1 591.018 1091.32 590.579 1111.93 589.666C1123.96 589.133 1130.81 583.351 1134.54 576.406C1138.22 569.534 1138.8 561.594 1138.53 556.642C1138 546.93 1137.37 537.717 1136.61 529.092V529.089L1136.29 525.549C1135.5 517.298 1134.58 509.132 1133.59 501.329V501.327C1130.92 480.516 1112.94 464.597 1090.83 462.883C1033.31 458.421 973.766 463.564 924.971 470.736L924.96 470.737L924.948 470.739C924.207 470.866 908.843 473.564 905.919 473.796L905.893 473.798L905.867 473.801L904.297 474.008L904.279 474.01L904.262 474.013C853.418 482.558 818.409 492.281 817.443 492.559C799.835 497.556 781.382 488.147 776.129 471.773V471.772L775.893 471.005C771.164 454.863 780.959 437.991 798.243 433.077C801.329 432.199 830.714 423.978 874.659 415.845L874.663 415.844C881.232 414.603 886.716 410.131 888.886 404.11C898.329 378.042 903.723 359.718 906.758 347.871C908.275 341.947 909.203 337.642 909.752 334.797C910.026 333.374 910.207 332.316 910.318 331.603C910.374 331.246 910.413 330.975 910.438 330.786C910.451 330.692 910.46 330.617 910.467 330.562C910.468 330.551 910.471 330.504 910.475 330.451L910.479 330.452C912.024 313.398 927.932 300.9 946.322 302.337V302.338C964.336 303.779 977.612 318.631 976.548 335.344L976.486 336.142C976.305 338.155 974.877 351.096 966.478 379.45V379.451C963.105 390.852 972.597 401.84 984.881 401.294L985.468 401.26C991.314 400.825 996.628 397.813 999.729 393.115V393.114C1047.64 320.37 1066.98 272.732 1067.45 271.538C1073.83 255.497 1092.9 247.236 1110.08 253.266L1110.08 253.267C1127.26 259.259 1135.9 277.093 1129.6 293.126C1128.93 294.825 1116.64 325.6 1087.35 375.602L1087.35 375.603C1080.87 386.693 1088.64 400.227 1101.81 401.375V401.376C1107.73 401.906 1113.66 402.524 1119.55 403.23V403.231C1140.35 405.738 1161.4 400.429 1177.69 387.991C1207.08 365.569 1243.01 334.895 1271.61 302.307C1285.91 286.012 1298.39 269.216 1307.3 252.715C1316.22 236.221 1321.59 219.959 1321.59 204.749C1321.59 163.106 1302.02 128.3 1267.95 103.938C1233.91 79.5928 1185.43 65.6895 1127.55 65.6895Z" stroke="url(#paint2_linear_3364_10228)" stroke-width="2"/>
<path d="M773 3.36182V641.694" stroke="url(#paint3_linear_3364_10228)" stroke-opacity="0.5"/>
<path d="M132 3.36182V799.399" stroke="url(#paint4_linear_3364_10228)" stroke-opacity="0.5"/>
<path d="M0 799.399L1463 799.399" stroke="url(#paint5_linear_3364_10228)" stroke-opacity="0.5"/>
<path d="M1389 3.36182V799.399" stroke="url(#paint6_linear_3364_10228)" stroke-opacity="0.5"/>
<path d="M600 3.36182V695.201" stroke="url(#paint7_linear_3364_10228)" stroke-opacity="0.5"/>
<path opacity="0.3" d="M593.5 354.944C632.742 354.944 664.5 384.8 664.5 421.563C664.5 458.326 632.742 488.182 593.5 488.182C554.258 488.182 522.5 458.326 522.5 421.563C522.5 384.8 554.258 354.944 593.5 354.944Z" stroke="url(#paint8_linear_3364_10228)"/>
</g>
<defs>
<linearGradient id="paint0_linear_3364_10228" x1="683.909" y1="374.551" x2="160.856" y2="-65.6264" gradientUnits="userSpaceOnUse">
<stop stop-color="#235654"/>
<stop offset="1" stop-color="#4EBCB8"/>
</linearGradient>
<radialGradient id="paint1_radial_3364_10228" cx="0" cy="0" r="1" gradientUnits="userSpaceOnUse" gradientTransform="translate(807 3.86168) rotate(90) scale(0.5 600)">
<stop stop-color="#4EBCB8"/>
<stop offset="1" stop-color="#235654"/>
</radialGradient>
<linearGradient id="paint2_linear_3364_10228" x1="760.5" y1="2.42285" x2="760.5" y2="799.399" gradientUnits="userSpaceOnUse">
<stop stop-color="#4EBCB8"/>
<stop offset="1" stop-color="#235654"/>
</linearGradient>
<linearGradient id="paint3_linear_3364_10228" x1="773.5" y1="3.36182" x2="773.5" y2="641.694" gradientUnits="userSpaceOnUse">
<stop stop-color="#235654"/>
<stop offset="1" stop-color="#4EBCB8"/>
</linearGradient>
<linearGradient id="paint4_linear_3364_10228" x1="132.5" y1="3.36182" x2="132.5" y2="799.4" gradientUnits="userSpaceOnUse">
<stop stop-color="#235654"/>
<stop offset="1" stop-color="#4EBCB8"/>
</linearGradient>
<linearGradient id="paint5_linear_3364_10228" x1="-8.58217e-09" y1="798.899" x2="1463" y2="798.899" gradientUnits="userSpaceOnUse">
<stop stop-color="#235654"/>
<stop offset="1" stop-color="#4EBCB8"/>
</linearGradient>
<linearGradient id="paint6_linear_3364_10228" x1="1389.5" y1="3.36182" x2="1389.5" y2="799.4" gradientUnits="userSpaceOnUse">
<stop stop-color="#235654"/>
<stop offset="1" stop-color="#4EBCB8"/>
</linearGradient>
<linearGradient id="paint7_linear_3364_10228" x1="600.5" y1="3.36182" x2="600.5" y2="695.201" gradientUnits="userSpaceOnUse">
<stop stop-color="#235654"/>
<stop offset="1" stop-color="#4EBCB8"/>
</linearGradient>
<linearGradient id="paint8_linear_3364_10228" x1="591.544" y1="490.416" x2="506.933" y2="419.211" gradientUnits="userSpaceOnUse">
<stop stop-color="#4EBCB8"/>
<stop offset="1" stop-color="#235654"/>
</linearGradient>
</defs>
</svg>
