<svg width="1463" height="1434" viewBox="0 0 1463 1434" fill="none" xmlns="http://www.w3.org/2000/svg">
<g opacity="0.3">
<path opacity="0.3" d="M696 0.5C939.805 0.5 1137.5 210.616 1137.5 469.871C1137.5 729.126 939.805 939.241 696 939.241C452.195 939.241 254.5 729.126 254.5 469.871C254.5 210.616 452.195 0.5 696 0.5Z" stroke="url(#paint0_linear_3619_3554)"/>
<path d="M207 531.527L1407 531.527" stroke="url(#paint1_radial_3619_3554)"/>
<path opacity="0.32" d="M1127.67 531.465C1204.39 531.465 1269.47 554.94 1315.35 595.148C1361.22 635.348 1387.97 692.32 1387.97 759.455V760.455H1388C1387.6 820.998 1351.79 889.252 1281.18 963.413L1279.5 965.176C1259.43 986.123 1239.71 1004.27 1222.52 1019.19C1205.33 1034.11 1196.49 1057.22 1198.86 1080.6L1198.98 1081.71C1200.42 1094.06 1201.8 1107.44 1202.84 1120.99C1204.22 1139.04 1205.25 1159.16 1205.88 1180.76C1207.21 1226.11 1175.24 1263.75 1133.03 1267.07L1132.03 1267.14C882.663 1283.38 664.318 1362.35 525.052 1425.74H525.051C515.735 1429.99 505.956 1432 496.301 1432C469.951 1432 444.41 1416.94 431.108 1391.11L430.484 1389.87C418.09 1364.67 407.111 1340.94 397.921 1319.32H397.92C389.616 1299.78 382.908 1280.77 377.232 1263.02C371.457 1244.96 357.821 1231.05 340.61 1225.47L340.609 1225.47L338.562 1224.8C317.951 1218.05 293.155 1208.4 268.123 1195.12L265.619 1193.78C178.773 1146.85 133 1079.01 133 997.631C133 946.23 143.966 890.043 180.92 846.715C217.848 803.417 280.884 772.78 385.416 772.78C478.08 772.78 553.727 801.912 592.947 820.723L594.788 821.61C600.323 824.306 606.76 823.84 611.918 820.371L611.919 820.372C660.62 787.668 714.003 750.652 765.38 712.698V712.697C783.188 699.532 800.462 686.301 817.162 673.544V673.543C917.036 597.16 1002.99 531.465 1127.67 531.465ZM1127.55 602.243C1024.05 602.243 949.569 659.272 855.661 731.072C838.739 743.999 821.227 757.387 802.964 770.875C745.881 813.01 686.424 854.032 633.409 889.4L622.895 896.397C622.652 896.553 622.411 896.714 622.183 896.868C621.945 897.028 621.72 897.18 621.497 897.322L621.489 897.327L621.482 897.332C531.489 957.075 462.904 998.919 461.812 999.582H461.812C445.972 1009.22 425.722 1003.39 416.623 986.469C407.506 969.511 413.067 947.894 428.945 938.231L428.952 938.228L428.958 938.224C429.631 937.801 456.778 921.252 498.878 894.365L498.879 894.366C505.879 889.901 508.606 882.068 507.648 874.858C506.691 867.648 502.026 860.921 494.119 858.725L491.189 857.924C460.741 849.714 424.688 843.491 385.29 843.491C303.094 843.491 256.472 863.994 230.435 893.682C204.416 923.347 199.157 961.961 199.157 997.697C199.157 1038.37 217.953 1070.18 243.993 1094.69C270.018 1119.19 303.314 1136.44 332.459 1148.09C358.105 1158.33 386.501 1155.28 410.205 1140.8C426.216 1131.02 446.6 1121.19 472.035 1110.78C514.902 1093.23 556.051 1081.09 557.767 1080.59L557.772 1080.59C570.871 1076.71 584.336 1081.8 592.391 1092.44C600.425 1103.05 603.11 1119.24 594.384 1137.58L594.383 1137.58C592.348 1141.88 588.508 1144.94 584.094 1146.17L584.091 1146.17C536.387 1159.59 487.085 1178.79 456.138 1194.81L454.678 1195.58C440.435 1203.03 433.712 1220.52 438.679 1236.47V1236.47C443.708 1252.59 450.281 1271.63 458.178 1290.21L458.179 1290.21C461.908 1298.91 465.479 1308.11 469.282 1317.67H469.283C476.576 1335.98 492.812 1347.83 510.693 1349.26H510.694C517.133 1349.77 523.518 1348.56 529.546 1346.33L529.396 1346.6L532.105 1345.44C559.812 1333.65 682.71 1278.04 820.506 1242.92C1001.12 1196.89 1091.33 1196.39 1111.93 1195.36C1124.03 1194.75 1130.87 1188.17 1134.56 1180.36C1138.22 1172.63 1138.8 1163.68 1138.53 1158.1C1138 1147.11 1137.37 1136.68 1136.61 1126.91V1126.91L1136.29 1122.9C1135.5 1113.56 1134.59 1104.32 1133.6 1095.48V1095.48L1133.46 1094.39C1130.38 1071.5 1112.69 1053.96 1090.84 1052.04C1033.3 1046.99 973.752 1052.82 924.952 1060.94L924.927 1060.94C924.573 1061.01 920.55 1061.81 916.23 1062.63C911.881 1063.45 907.337 1064.28 905.908 1064.4L905.879 1064.41L905.85 1064.41L904.28 1064.64L904.261 1064.65L904.24 1064.65C859.668 1073.13 827.264 1082.64 819.291 1085.07L817.41 1085.66C799.916 1091.28 781.43 1080.73 776.139 1062.05V1062.05C770.811 1043.32 780.779 1023.65 798.275 1018.02H798.276C801.361 1017.03 830.742 1007.72 874.683 998.509L874.687 998.508C881.304 997.093 886.755 992.011 888.898 985.276C898.34 955.761 903.732 935.016 906.765 921.607C908.281 914.903 909.208 910.032 909.756 906.814C910.03 905.206 910.21 904.011 910.321 903.206C910.377 902.804 910.415 902.498 910.44 902.286C910.453 902.181 910.462 902.097 910.469 902.036C910.471 902.018 910.473 901.97 910.477 901.918L910.479 901.919C912.039 882.42 928.044 868.353 946.312 869.969V869.97C964.506 871.618 978.048 888.912 976.485 908.406V908.407C976.308 910.636 974.959 924.474 967.236 954.538L966.469 957.498C963.17 970.126 972.434 982.664 984.882 982.034L985.478 981.994C991.374 981.498 996.681 978.062 999.758 972.783V972.782C1047.7 890.341 1067.03 836.384 1067.46 835.137C1073.88 816.855 1092.97 807.607 1110.04 814.393L1110.04 814.394C1127.18 821.162 1135.95 841.421 1129.59 859.759C1128.91 861.692 1116.62 896.551 1087.32 953.184L1087.32 953.185C1080.98 965.491 1088.49 980.81 1101.8 982.125V982.126C1107.72 982.726 1113.64 983.426 1119.53 984.226V984.227C1140.38 987.07 1161.45 981.043 1177.74 966.958C1207.12 941.566 1243.05 906.831 1271.65 869.933C1300.2 833.08 1321.59 793.88 1321.59 759.589C1321.59 712.528 1302.06 673.156 1268 645.569C1233.96 617.997 1185.46 602.243 1127.55 602.243Z" stroke="url(#paint2_linear_3619_3554)" stroke-width="2"/>
<path d="M773 531.527V1254.41" stroke="url(#paint3_linear_3619_3554)" stroke-opacity="0.5"/>
<path d="M132 531.527V1433" stroke="url(#paint4_linear_3619_3554)" stroke-opacity="0.5"/>
<path d="M0 1433L1463 1433" stroke="url(#paint5_linear_3619_3554)" stroke-opacity="0.5"/>
<path d="M1389 531.527V1433" stroke="url(#paint6_linear_3619_3554)" stroke-opacity="0.5"/>
<path d="M600 531.527V1315" stroke="url(#paint7_linear_3619_3554)" stroke-opacity="0.5"/>
<path opacity="0.3" d="M593.5 929.609C632.684 929.609 664.5 963.387 664.5 1005.12C664.5 1046.85 632.684 1080.63 593.5 1080.63C554.316 1080.63 522.5 1046.85 522.5 1005.12C522.5 963.387 554.316 929.609 593.5 929.609Z" stroke="url(#paint8_linear_3619_3554)"/>
</g>
<defs>
<linearGradient id="paint0_linear_3619_3554" x1="683.909" y1="951.881" x2="108.298" y2="524.128" gradientUnits="userSpaceOnUse">
<stop stop-color="#235654"/>
<stop offset="1" stop-color="#4EBCB8"/>
</linearGradient>
<radialGradient id="paint1_radial_3619_3554" cx="0" cy="0" r="1" gradientUnits="userSpaceOnUse" gradientTransform="translate(807 532.027) rotate(90) scale(0.5 600)">
<stop stop-color="#4EBCB8"/>
<stop offset="1" stop-color="#235654"/>
</radialGradient>
<linearGradient id="paint2_linear_3619_3554" x1="760.5" y1="530.465" x2="760.5" y2="1433" gradientUnits="userSpaceOnUse">
<stop stop-color="#4EBCB8"/>
<stop offset="1" stop-color="#235654"/>
</linearGradient>
<linearGradient id="paint3_linear_3619_3554" x1="773.5" y1="531.527" x2="773.5" y2="1254.41" gradientUnits="userSpaceOnUse">
<stop stop-color="#235654"/>
<stop offset="1" stop-color="#4EBCB8"/>
</linearGradient>
<linearGradient id="paint4_linear_3619_3554" x1="132.5" y1="531.527" x2="132.5" y2="1433" gradientUnits="userSpaceOnUse">
<stop stop-color="#235654"/>
<stop offset="1" stop-color="#4EBCB8"/>
</linearGradient>
<linearGradient id="paint5_linear_3619_3554" x1="-3.46031e-08" y1="1432.5" x2="1463" y2="1432.5" gradientUnits="userSpaceOnUse">
<stop stop-color="#235654"/>
<stop offset="1" stop-color="#4EBCB8"/>
</linearGradient>
<linearGradient id="paint6_linear_3619_3554" x1="1389.5" y1="531.527" x2="1389.5" y2="1433" gradientUnits="userSpaceOnUse">
<stop stop-color="#235654"/>
<stop offset="1" stop-color="#4EBCB8"/>
</linearGradient>
<linearGradient id="paint7_linear_3619_3554" x1="600.5" y1="531.527" x2="600.5" y2="1315" gradientUnits="userSpaceOnUse">
<stop stop-color="#235654"/>
<stop offset="1" stop-color="#4EBCB8"/>
</linearGradient>
<linearGradient id="paint8_linear_3619_3554" x1="591.544" y1="1083.09" x2="498.431" y2="1013.89" gradientUnits="userSpaceOnUse">
<stop stop-color="#4EBCB8"/>
<stop offset="1" stop-color="#235654"/>
</linearGradient>
</defs>
</svg>
