<svg width="114" height="19" viewBox="0 0 114 19" fill="none" xmlns="http://www.w3.org/2000/svg">
<g clip-path="url(#clip0_670_3914)">
<path d="M98.9263 17.6496V1.26285H101.726V3.3629C102.649 1.77196 104.59 0.785568 106.785 0.785568C110.381 0.785568 112.99 2.6947 112.99 7.62664V17.6496H110.127V8.04029C110.127 4.98567 108.631 3.49018 106.149 3.49018C103.349 3.49018 101.79 5.39931 101.79 8.13574V17.6496H98.9263Z" fill="#151A1A"/>
<path d="M89.0615 18.1268C84.0023 18.1268 80.7886 14.7223 80.7886 9.37667C80.7886 4.25383 84.0658 0.785568 88.8069 0.785568C93.5161 0.785568 96.8252 3.96746 96.8252 8.51757C96.8252 9.82214 96.8252 10.1085 96.7617 10.3949H83.7795C83.9705 13.6086 85.975 15.5814 89.0932 15.5814C91.2887 15.5814 92.816 14.6268 93.5798 12.8768H96.5388C95.6798 16.1541 92.9115 18.1268 89.0615 18.1268ZM83.7795 8.04029H93.8025C93.6752 5.11294 91.766 3.29926 88.8069 3.29926C85.975 3.29926 84.0977 5.04931 83.7795 8.04029Z" fill="#151A1A"/>
<path d="M55.5633 18.1268C52.2542 18.1268 49.8359 16.345 49.8359 13.2585C49.8359 10.1722 52.0315 8.77212 54.6088 8.29483L58.6179 7.53118C59.9862 7.27663 60.7816 6.92662 60.7816 5.68568C60.7816 4.25382 59.5725 3.29926 57.1542 3.29926C55.1815 3.29926 53.4632 4.09473 53.2405 5.90841H50.2814C50.4722 2.69471 53.3996 0.785568 57.186 0.785568C61.768 0.785568 63.6453 3.07654 63.6453 5.78114V14.1813C63.6453 14.945 63.9954 15.3268 64.6317 15.3268C65.1726 15.3268 65.4908 15.1995 65.7772 15.0086V17.3314C65.3318 17.7133 64.5681 17.9678 63.6453 17.9678C62.3089 17.9678 61.1634 17.1087 60.877 15.7086C60.1134 16.7904 58.5224 18.1268 55.5633 18.1268ZM52.7951 13.1631C52.7951 14.8178 54.195 15.6132 56.0724 15.6132C58.7134 15.6132 60.7816 14.1177 60.7816 11.7949V9.15395C60.4634 9.50396 59.4771 9.79032 58.2997 10.0131L55.6269 10.5222C53.7178 10.8722 52.7951 11.6995 52.7951 13.1631Z" fill="#151A1A"/>
<path d="M41.2324 17.6482V1.26149H44.0324V3.99792C44.8279 2.05697 46.2598 0.911484 48.5189 0.911484C48.9962 0.911484 49.4735 1.00694 49.7281 1.07058V3.99792C49.4735 3.93428 48.9326 3.83883 48.3917 3.83883C45.5915 3.83883 44.0961 6.03434 44.0961 9.53441V17.6482H41.2324Z" fill="#151A1A"/>
<path d="M36.2145 1.26228H39.9055L33.2872 7.75334L40.2556 17.649H36.9145L31.3462 9.72612L28.6099 12.3353V17.649H25.7461V1.26228H28.6099V8.77155L36.2145 1.26228Z" fill="#151A1A"/>
<path d="M77.571 1.26228H81.262L74.6437 7.75334L81.6119 17.649H78.271L72.7027 9.72612L69.9662 12.3353V17.649H67.1025V1.26228H69.9662V8.77155L77.571 1.26228Z" fill="#151A1A"/>
<path d="M11.3079 0.785568C5.2909 0.785568 0.413574 5.72686 0.413574 11.8221V16.5518C0.413574 17.4218 1.10961 18.1265 1.96882 18.1265C2.82802 18.1265 3.52915 17.4218 3.52915 16.5518V11.8221C3.52915 10.9495 4.22263 10.2448 5.08438 10.2448C5.94359 10.2448 6.63962 10.9495 6.63962 11.8221V16.5518C6.63962 17.4218 7.33566 18.1265 8.19487 18.1265C9.05662 18.1265 9.75265 17.4218 9.75265 16.5518V11.8221C9.75265 10.9495 10.4487 10.2448 11.3079 10.2448C12.1696 10.2448 12.8682 10.9495 12.8682 11.8221V16.5518C12.8682 17.4218 13.5642 18.1265 14.4235 18.1265C15.2826 18.1265 15.9788 17.4218 15.9788 16.5518V11.8221C15.9788 10.9495 16.6748 10.2448 17.539 10.2448C18.3982 10.2448 19.0943 10.9495 19.0943 11.8221V16.5518C19.0943 17.4218 19.7903 18.1265 20.6521 18.1265C21.5113 18.1265 22.2073 17.4218 22.2073 16.5518V11.8221C22.2073 5.72686 17.3274 0.785568 11.3079 0.785568Z" fill="#151A1A"/>
</g>
<defs>
<clipPath id="clip0_670_3914">
<rect width="112.719" height="18.58" fill="white" transform="translate(0.413574 0.289963)"/>
</clipPath>
</defs>
</svg>
