<svg width="81" height="14" viewBox="0 0 81 14" fill="none" xmlns="http://www.w3.org/2000/svg">
<g clip-path="url(#clip0_649_3873)">
<path d="M70.5171 12.8524V1.27139H72.4959V2.75556C73.1481 1.6312 74.5198 0.934082 76.0714 0.934082C78.6126 0.934082 80.4565 2.28333 80.4565 5.76887V12.8524H78.4327V6.06122C78.4327 3.90242 77.3757 2.84551 75.6217 2.84551C73.6428 2.84551 72.5409 4.19475 72.5409 6.12867V12.8524H70.5171Z" fill="white"/>
<path d="M63.5455 13.1897C59.97 13.1897 57.6987 10.7836 57.6987 7.00568C57.6987 3.38521 60.0149 0.934082 63.3656 0.934082C66.6937 0.934082 69.0323 3.18282 69.0323 6.39853C69.0323 7.32051 69.0323 7.52289 68.9874 7.72528H59.8125C59.9475 9.99649 61.3641 11.3907 63.5679 11.3907C65.1195 11.3907 66.1989 10.7161 66.7387 9.4793H68.8299C68.2228 11.7955 66.2664 13.1897 63.5455 13.1897ZM59.8125 6.06121H66.8961C66.8061 3.99237 65.4568 2.71059 63.3656 2.71059C61.3641 2.71059 60.0374 3.9474 59.8125 6.06121Z" fill="white"/>
<path d="M39.8709 13.1897C37.5323 13.1897 35.8232 11.9304 35.8232 9.7491C35.8232 7.56787 37.3749 6.57842 39.1963 6.24111L42.0298 5.70142C42.9967 5.52151 43.5589 5.27415 43.5589 4.39714C43.5589 3.38521 42.7043 2.71059 40.9953 2.71059C39.6011 2.71059 38.3868 3.27277 38.2294 4.55455H36.138C36.2729 2.28333 38.3418 0.934082 41.0178 0.934082C44.256 0.934082 45.5828 2.55318 45.5828 4.4646V10.4013C45.5828 10.941 45.8301 11.2108 46.2798 11.2108C46.6621 11.2108 46.887 11.1209 47.0894 10.986V12.6275C46.7746 12.8974 46.2349 13.0773 45.5828 13.0773C44.6383 13.0773 43.8287 12.4701 43.6263 11.4806C43.0866 12.2452 41.9623 13.1897 39.8709 13.1897ZM37.9146 9.6817C37.9146 10.8511 38.904 11.4132 40.2307 11.4132C42.0973 11.4132 43.5589 10.3563 43.5589 8.71473V6.84827C43.334 7.09563 42.6369 7.29802 41.8049 7.45543L39.9159 7.81522C38.5667 8.06259 37.9146 8.64726 37.9146 9.6817Z" fill="white"/>
<path d="M29.7432 12.8513V1.27031H31.722V3.20423C32.2842 1.8325 33.2962 1.02295 34.8927 1.02295C35.2301 1.02295 35.5674 1.09041 35.7473 1.13539V3.20423C35.5674 3.15925 35.1851 3.09179 34.8028 3.09179C32.8239 3.09179 31.767 4.64343 31.767 7.11703V12.8513H29.7432Z" fill="white"/>
<path d="M26.1967 1.271H28.8052L24.1279 5.85843L29.0526 12.852H26.6914L22.7561 7.25265L20.8223 9.09661V12.852H18.7983V1.271H20.8223V6.57803L26.1967 1.271Z" fill="white"/>
<path d="M55.4247 1.271H58.0333L53.3559 5.85843L58.2806 12.852H55.9194L51.9841 7.25265L50.0502 9.09661V12.852H48.0264V1.271H50.0502V6.57803L55.4247 1.271Z" fill="white"/>
<path d="M8.59437 0.934082C4.34198 0.934082 0.89502 4.42624 0.89502 8.73397V12.0765C0.89502 12.6914 1.38693 13.1894 1.99416 13.1894C2.60138 13.1894 3.09689 12.6914 3.09689 12.0765V8.73397C3.09689 8.11727 3.587 7.61918 4.19602 7.61918C4.80325 7.61918 5.29516 8.11727 5.29516 8.73397V12.0765C5.29516 12.6914 5.78707 13.1894 6.3943 13.1894C7.00333 13.1894 7.49523 12.6914 7.49523 12.0765V8.73397C7.49523 8.11727 7.98714 7.61918 8.59437 7.61918C9.2034 7.61918 9.69711 8.11727 9.69711 8.73397V12.0765C9.69711 12.6914 10.189 13.1894 10.7963 13.1894C11.4034 13.1894 11.8954 12.6914 11.8954 12.0765V8.73397C11.8954 8.11727 12.3873 7.61918 12.9981 7.61918C13.6053 7.61918 14.0972 8.11727 14.0972 8.73397V12.0765C14.0972 12.6914 14.5891 13.1894 15.1982 13.1894C15.8054 13.1894 16.2973 12.6914 16.2973 12.0765V8.73397C16.2973 4.42624 12.8486 0.934082 8.59437 0.934082Z" fill="white"/>
</g>
<defs>
<clipPath id="clip0_649_3873">
<rect width="79.6616" height="13.131" fill="white" transform="translate(0.89502 0.58374)"/>
</clipPath>
</defs>
</svg>
