<svg width="107" height="48" viewBox="0 0 107 48" fill="none" xmlns="http://www.w3.org/2000/svg">
<g clip-path="url(#clip0_3391_196754)">
<path opacity="0.5" d="M86.581 10.3336C87.2861 10.09 88.2348 9.80794 88.6963 9.7182C89.1707 9.61564 90.3502 9.53871 91.4528 9.53871C92.7092 9.52589 93.7092 9.58999 94.3374 9.73102C94.863 9.83358 95.7861 10.1028 96.3887 10.3079C96.9912 10.5131 97.9656 10.949 98.5681 11.2823C99.1707 11.6028 99.9784 12.1028 100.363 12.3977C100.748 12.6926 101.504 13.3592 102.03 13.8849C102.555 14.4105 103.325 15.3208 103.722 15.9233C104.119 16.5259 104.684 17.5387 104.966 18.1669C105.248 18.8079 105.594 19.7823 105.735 20.3464C105.876 20.9105 106.055 21.8592 106.119 22.4618C106.196 23.0644 106.26 23.8977 106.26 24.3208C106.26 24.7438 106.171 25.6413 106.055 26.3079C105.94 26.9746 105.709 27.9618 105.53 28.4874C105.363 29.0131 105.081 29.6413 104.901 29.872C104.696 30.1413 104.414 30.3336 104.055 30.4361C103.619 30.5515 103.389 30.5387 102.991 30.4105C102.581 30.2823 101.671 29.4618 98.504 26.3208C94.7604 22.6156 94.4784 22.3592 93.5681 21.949C92.7092 21.5515 92.4784 21.5002 91.5169 21.5002C90.5169 21.5002 90.3502 21.5387 89.4015 21.9874C88.4271 22.4618 88.1707 22.6926 84.5938 26.2438C81.8502 28.9746 80.6579 30.0772 80.2348 30.2695C79.9143 30.4105 79.5169 30.5387 79.3374 30.5387C79.1579 30.5387 78.8245 30.4233 78.6066 30.2823C78.3245 30.1156 78.0553 29.7567 77.7989 29.231C77.5938 28.7823 77.3374 28.1028 77.2348 27.7182C77.1451 27.3336 76.9784 26.4105 76.9015 25.6669C76.8117 24.9233 76.7733 23.8079 76.8117 23.1669C76.8502 22.5259 76.9784 21.5515 77.0938 20.9874C77.2092 20.4233 77.5297 19.4105 77.7989 18.7438C78.0681 18.0772 78.5425 17.09 78.863 16.5644C79.1835 16.0387 79.8117 15.1669 80.2604 14.6413C80.7092 14.1156 81.5681 13.2951 82.1579 12.8208C82.7604 12.3336 83.7092 11.6926 84.2733 11.3592C84.8374 11.0387 85.8758 10.5772 86.581 10.3336Z" fill="#778A96"/>
<path d="M51.093 9.23077C51.1827 9.24359 51.2596 9.19231 51.2596 9.12821C51.2596 9.05128 51.9391 9 53.0545 9C54.0417 9 54.8494 9.03846 54.8494 9.08974C54.8494 9.15385 54.9647 9.20513 55.1058 9.21795C55.2468 9.24359 55.5801 9.39744 55.8365 9.5641C56.1058 9.74359 56.4519 10.1154 56.6058 10.3974C56.8237 10.7821 56.9135 11.2051 56.9647 11.9744C56.9904 12.5641 56.9904 13.141 56.9647 13.2564C56.9135 13.4615 56.7212 13.4872 53.8237 13.4872V12.7821C53.8237 12.3974 53.7724 11.9359 53.6955 11.7564C53.6058 11.5385 53.4391 11.4103 53.1442 11.359C52.875 11.3205 52.6314 11.359 52.4391 11.4872C52.1955 11.6667 52.1571 11.8077 52.1571 12.4615C52.1571 12.8846 52.2083 13.3333 52.2724 13.4487C52.3237 13.5769 53.234 14.2949 54.2853 15.0385C55.3365 15.7949 56.3878 16.6154 56.6186 16.8718C56.8365 17.1282 57.093 17.5769 57.1699 17.8718C57.2596 18.1923 57.2853 18.9231 57.2468 19.641C57.2212 20.3077 57.1058 21.0641 56.9904 21.3077C56.8878 21.5513 56.6058 21.9359 56.375 22.1538C56.1314 22.3718 55.6827 22.6538 55.3622 22.7692C55.0417 22.8974 54.3878 23.0385 53.8878 23.1026C53.3878 23.1667 52.5545 23.1667 52.0289 23.1026C51.5032 23.0513 50.7596 22.859 50.375 22.7051C49.9904 22.5385 49.516 22.2051 49.3109 21.9744C49.1186 21.7564 48.9006 21.3462 48.8237 21.0897C48.7596 20.8205 48.6955 20.1538 48.6955 18.6154H51.8365L51.9135 19.3462C51.9519 19.7564 52.0673 20.2179 52.1699 20.3718C52.2724 20.5385 52.4904 20.6923 52.6699 20.7308C52.8494 20.7692 53.1314 20.7564 53.3109 20.6923C53.4904 20.6282 53.7212 20.4744 53.8237 20.3462C53.9647 20.1795 53.9904 19.9487 53.9391 19.3974C53.8622 18.7692 53.7981 18.6282 53.3622 18.2564C53.0801 18.0256 52.1058 17.3077 51.1955 16.6538C49.7468 15.6282 49.4904 15.3846 49.2212 14.8333C49.016 14.4359 48.8878 13.8846 48.8494 13.359C48.8109 12.8974 48.8622 12.1538 48.9519 11.6923C49.0289 11.2308 49.1827 10.7051 49.2853 10.5C49.3878 10.3077 49.593 10.0256 49.7468 9.88462C49.9135 9.73077 50.2468 9.52564 50.4904 9.41026C50.734 9.29487 51.0032 9.21795 51.093 9.23077Z" fill="#778A96"/>
<path d="M2.95192 25.1026C3.28526 25.0128 3.69551 24.9103 3.84936 24.8718C4.01603 24.8333 4.63141 24.7949 5.23397 24.7821C5.84936 24.7821 6.64423 24.8462 7.06731 24.9615C7.46474 25.0641 8.00321 25.3077 8.25962 25.5C8.54167 25.7308 8.79808 26.0769 8.92628 26.4487C9.06731 26.8333 9.14423 27.4359 9.14423 29.1923L6.00321 29.2564V28.4231C6.00321 27.7564 5.95192 27.5385 5.7468 27.3333C5.60577 27.1923 5.34936 27.0769 5.16987 27.0769C4.99039 27.0769 4.73397 27.1923 4.59295 27.3333C4.38782 27.5385 4.33654 27.7564 4.33654 28.3846C4.34936 29.1282 4.375 29.218 4.75962 29.5513C4.99038 29.7436 5.97756 30.4744 6.96474 31.1667C8.55449 32.2821 8.79808 32.5 9.11859 33.1154C9.46474 33.7692 9.49039 33.8718 9.4391 35.218C9.40064 36.359 9.33654 36.7308 9.10577 37.2051C8.95192 37.5256 8.60577 37.9487 8.33654 38.141C8.08013 38.3333 7.63141 38.5513 7.34936 38.6282C7.06731 38.6923 6.73397 38.8077 6.61859 38.8718C6.49039 38.9487 5.8109 39 5.10577 39C4.375 39 3.79808 38.9487 3.75962 38.8718C3.72115 38.7949 3.56731 38.7436 3.41346 38.7436C3.24679 38.7436 2.86218 38.6154 2.54167 38.4744C2.22115 38.3333 1.79808 38.0641 1.60577 37.8718C1.41346 37.6795 1.15705 37.2436 1.05449 36.8846C0.951923 36.5385 0.875 35.8205 0.875 34.3846H4.20833V35.1538C4.20833 35.5769 4.24679 36.0128 4.3109 36.1282C4.36218 36.2308 4.58013 36.3718 4.78526 36.4487C5.04167 36.5385 5.29808 36.5256 5.55449 36.4359C5.77244 36.3462 5.97756 36.218 6.02885 36.141C6.08013 36.0513 6.13141 35.6667 6.11859 35.2821C6.11859 34.641 6.08013 34.5385 5.64423 34.1282C5.375 33.8846 4.41346 33.1282 3.47756 32.4615C2.55449 31.7949 1.68269 31.0769 1.52885 30.859C1.38782 30.641 1.20833 30.1282 1.11859 29.7051C1.04167 29.2821 1.01603 28.5641 1.04167 28.1026C1.08013 27.641 1.20833 27.0128 1.32372 26.6923C1.4391 26.3718 1.70833 25.9231 1.9391 25.6923C2.18269 25.4487 2.59295 25.2051 2.95192 25.1026Z" fill="#778A96"/>
<path d="M20.8237 25.359C21.093 25.2179 21.5801 25.0385 21.9006 24.9487C22.2724 24.8333 22.9904 24.7949 23.8878 24.8205C24.8622 24.8462 25.4776 24.9359 25.875 25.0897C26.1955 25.2179 26.6442 25.4615 26.875 25.6282C27.1058 25.7949 27.4391 26.2436 27.6314 26.6538C27.9135 27.2564 27.9904 27.641 28.1186 30.0256H26.4263C24.9135 30.0256 24.7083 30 24.6571 29.7949C24.6186 29.6795 24.6058 29.1667 24.6186 28.6538C24.6571 27.8846 24.6186 27.7051 24.4006 27.4744C24.2212 27.2821 23.9904 27.1923 23.6314 27.2051C23.3494 27.2051 23.0032 27.2821 22.8622 27.3846C22.6186 27.5641 22.6058 27.7436 22.5673 31.5256C22.5417 34.0513 22.5801 35.6538 22.6571 35.9487C22.7724 36.359 22.8622 36.4487 23.2212 36.5128C23.4391 36.5641 23.7724 36.5641 23.9519 36.5128C24.1314 36.4744 24.3622 36.3846 24.4647 36.3077C24.5801 36.2436 24.6571 35.9744 24.6699 35.7051C24.6827 35.4359 24.6955 34.8333 24.7212 33.4872H28.0545V34.7308C28.0545 35.4231 27.9776 36.2436 27.8878 36.5641C27.7981 36.8846 27.5801 37.3333 27.4135 37.5769C27.234 37.8205 26.875 38.1538 26.6186 38.3205C26.3494 38.4872 25.8622 38.6795 25.5288 38.7564C25.1827 38.8462 24.3109 38.9359 23.5673 38.9615C22.8237 38.9872 22.1699 38.9487 22.093 38.8846C22.0288 38.8205 21.7468 38.7308 21.4904 38.6923C21.2212 38.6538 20.7468 38.4487 20.4263 38.2308C20.016 37.9615 19.7596 37.6538 19.2212 36.5L19.2596 31.9487C19.2853 28.3462 19.3237 27.2949 19.4776 26.8974C19.5673 26.6282 19.8109 26.2308 19.9904 26C20.1699 25.7821 20.5417 25.4872 20.8237 25.359Z" fill="#778A96"/>
<path d="M29.4006 36.3718L29.3622 30.6923L29.3237 25.0256H32.6699V35.9231L32.9904 36.2436C33.1699 36.4231 33.4647 36.5641 33.6699 36.5641C33.8622 36.5769 34.1571 36.4615 34.6571 36.0769L34.7212 25.0256H38.0288L38.0032 30.7051C37.9904 34.6538 37.9263 36.5128 37.8237 36.859C37.734 37.1154 37.4519 37.5641 37.1955 37.859C36.9006 38.1667 36.4776 38.4487 36.1314 38.5641C35.8109 38.6795 35.4519 38.8205 35.3365 38.8846C35.2083 38.9487 34.5545 39 33.8878 39C32.9904 39 32.4391 38.9231 31.8109 38.7308C31.3237 38.5769 30.734 38.2949 30.4904 38.1026C30.234 37.9103 29.9006 37.4487 29.4006 36.3718Z" fill="#778A96"/>
<path d="M81.6824 13.1408C81.7337 13.0511 82.1055 12.7177 82.5157 12.3972C82.9132 12.0767 83.2721 11.8203 83.3106 11.8203C83.3362 11.8203 83.3106 11.8716 83.2465 11.9357L83.225 11.9536C83.1122 12.0478 82.7417 12.3571 82.3491 12.6665C81.926 13.0126 81.6311 13.2177 81.6824 13.1408Z" fill="#778A96"/>
<path d="M51.9003 18.628L50.2721 18.5767L48.6311 18.5383L52.0285 18.487L51.9773 19.8331L51.9003 18.628Z" fill="#778A96"/>
<path d="M102.323 30.1793C102.246 30.128 100.426 28.346 98.285 26.2306C96.1568 24.1024 94.5542 22.4742 94.7209 22.6152C94.9003 22.7434 96.7209 24.5254 98.7593 26.5639C100.811 28.5895 102.413 30.2177 102.323 30.1793Z" fill="#778A96"/>
<path d="M80.6183 30.0383C80.9388 29.8331 82.7337 28.128 84.5927 26.2562C86.4644 24.3844 88.0285 22.846 88.067 22.846C88.1055 22.846 86.5157 24.4485 84.5414 26.4101C82.5542 28.3844 80.7978 30.0767 80.6183 30.2049C80.4516 30.3203 80.2465 30.4101 80.1696 30.4101C80.1055 30.4101 80.3106 30.2434 80.6183 30.0383Z" fill="#778A96"/>
<path d="M34.6952 33.1024C34.6696 34.6152 34.6567 33.4357 34.6567 30.4742C34.6567 27.5126 34.6696 26.269 34.6952 27.7177C34.708 29.1665 34.708 31.5895 34.6952 33.1024Z" fill="#778A96"/>
<path d="M22.6439 33.8716C22.6183 34.9613 22.6055 34.0383 22.6055 31.8203C22.6055 29.6024 22.6183 28.7049 22.6439 29.8331C22.6568 30.9613 22.6568 32.7818 22.6439 33.8716Z" fill="#778A96"/>
<path d="M19.1824 33.8716C19.1567 34.9613 19.1439 34.1024 19.1439 31.9485C19.1439 29.7947 19.1567 28.8972 19.1824 29.9613C19.1952 31.0126 19.1952 32.7818 19.1824 33.8716Z" fill="#778A96"/>
<path d="M27.3491 30.1152C26.926 30.1408 26.1824 30.1408 25.6824 30.1152C25.1952 30.0895 25.5414 30.0767 26.4516 30.0767C27.3747 30.0767 27.7721 30.0895 27.3491 30.1152Z" fill="#778A96"/>
<path d="M28.1568 35.1536C28.1183 35.3972 28.1055 35.1665 28.1055 34.6408C28.1055 34.1152 28.1183 33.9101 28.1568 34.1921C28.1824 34.4742 28.1824 34.9101 28.1568 35.1536Z" fill="#778A96"/>
<path d="M3.3106 34.346C2.92598 34.3716 2.23367 34.3716 1.77213 34.346C1.32342 34.3203 1.63111 34.3075 2.47726 34.3075C3.32342 34.3075 3.70803 34.3203 3.3106 34.346Z" fill="#778A96"/>
<path fill-rule="evenodd" clip-rule="evenodd" d="M6.99109 9.19246L8.58083 9.25657C9.90134 9.30785 10.1706 9.35913 10.1449 9.51298C10.1321 9.61554 9.64493 10.8078 9.06801 12.1412C8.50391 13.4873 7.91416 14.8463 7.54237 15.795L8.26032 17.4361C8.64493 18.3335 9.22185 19.6412 9.52955 20.3463C9.83724 21.0514 10.209 21.9232 10.3501 22.2694C10.5039 22.6284 10.6193 22.9232 10.6193 22.9489C10.6193 22.9617 9.85006 22.9745 7.22185 22.9873L5.9398 19.9104C5.23468 18.2181 4.61929 16.8207 4.55519 16.8207C4.50391 16.8207 4.46544 18.2053 4.46544 22.9745H2.79878C1.42698 22.9745 1.11929 22.9361 1.06801 22.7822C1.02955 22.6796 1.00391 19.6796 1.00391 16.1155C1.00391 12.5514 1.02955 9.55144 1.06801 9.44887C1.11929 9.29503 1.42698 9.25657 4.46544 9.25657V12.0771C4.46544 13.6284 4.50391 14.8976 4.55519 14.8976C4.61929 14.8976 5.05519 13.8976 5.54237 12.6796C6.02955 11.4745 6.55519 10.1925 6.70903 9.83349L6.99109 9.19246ZM72.2218 9.19246L72.2859 22.9745H68.9526L68.927 16.1284C68.9013 10.2437 68.927 9.26939 69.0936 9.20529C69.1962 9.17964 69.9398 9.154 72.2218 9.19246ZM15.1065 9.25657L15.1449 14.8463C15.1706 20.2694 15.1834 20.4361 15.427 20.6155C15.568 20.7181 15.8372 20.795 16.0424 20.795C16.2347 20.795 16.5039 20.7309 16.6449 20.6668C16.786 20.5899 16.9654 20.3207 17.0295 20.0514C17.1065 19.7822 17.1578 17.4232 17.1578 9.25657H20.4911V14.2309C20.4911 16.9617 20.427 19.6284 20.3629 20.154C20.2731 20.7566 20.1065 21.3207 19.9142 21.6668C19.7347 21.9617 19.4398 22.3207 19.2475 22.4489C19.0424 22.5899 18.6321 22.795 18.3116 22.9232C17.8885 23.0771 17.3244 23.1412 16.2603 23.1412C15.2603 23.154 14.5808 23.0899 14.1449 22.9489C13.7988 22.8463 13.3244 22.6412 13.1065 22.513C12.8757 22.372 12.5808 22.1284 12.4398 21.9489C12.2988 21.7694 12.1193 21.4617 12.0295 21.2437C11.9526 21.0258 11.8501 20.7181 11.8116 20.5386C11.7731 20.3591 11.709 17.8848 11.6578 15.0258C11.6193 12.1796 11.6321 9.70529 11.6834 9.55144C11.7731 9.26939 11.8244 9.25657 15.1065 9.25657ZM22.1706 9.24375L25.4013 9.26939C27.7603 9.28221 28.7731 9.33349 29.1449 9.4617C29.427 9.55144 29.8757 9.83349 30.1449 10.0899C30.4654 10.3976 30.6834 10.7566 30.8116 11.2181C30.9783 11.7694 31.0039 12.6668 30.9398 20.9873L30.6193 21.5643C30.4398 21.872 30.068 22.2822 29.786 22.4745C29.5039 22.654 29.2219 22.8207 29.1449 22.8463C29.0808 22.8591 27.4783 22.8976 22.1578 22.9745L22.1706 9.24375ZM25.4911 20.5386C26.9142 20.4745 27.2219 20.3976 27.3885 20.2437C27.5936 20.0386 27.6193 19.6668 27.6577 16.5258C27.6834 14.3078 27.6449 12.8335 27.5552 12.4873C27.4398 12.0386 27.3501 11.9232 27.0039 11.8078C26.7731 11.7437 26.3372 11.6796 26.0424 11.6796L25.4911 11.6925V20.5386ZM32.6706 9.25657H36.1962C39.2219 9.25657 39.7347 9.28221 39.786 9.44887C39.8244 9.55144 39.8501 10.013 39.8501 10.4745C39.8501 10.9232 39.8244 11.3848 39.786 11.5002C39.7347 11.654 39.4013 11.6925 36.0039 11.6925V14.7694H39.5936L39.6065 17.2694L36.0039 17.2053V20.5386H37.8629C39.4013 20.5386 39.7347 20.5643 39.786 20.7309C39.8244 20.8335 39.8501 21.295 39.8501 21.7566C39.8501 22.2053 39.8244 22.6668 39.786 22.7822C39.7347 22.9361 39.2219 22.9745 32.6706 22.9745V9.25657ZM41.5167 9.25657H44.8501V20.5386H46.5167C47.8885 20.5386 48.1962 20.5643 48.2475 20.7309C48.286 20.8335 48.3116 21.295 48.3116 21.7566C48.3116 22.2053 48.286 22.6668 48.2475 22.7822C48.1962 22.9361 47.709 22.9745 41.5167 22.9745V9.25657ZM58.568 9.25657H61.7731V12.013C61.7731 13.7566 61.8244 14.7694 61.9013 14.7694C61.9783 14.7694 62.1321 14.5514 62.2475 14.2822C62.3629 14.013 62.8757 12.795 64.2988 9.32067L65.8885 9.28221C67.2475 9.24375 67.4911 9.26939 67.5167 9.43605C67.5295 9.55144 66.9654 10.9745 66.2603 12.6155C65.5552 14.2566 64.9783 15.654 64.9783 15.7309C64.9783 15.795 65.3885 16.8078 65.8885 17.9745C66.3885 19.1284 67.0552 20.6796 67.3629 21.3976C67.6834 22.1155 67.927 22.7694 67.927 22.8463C67.927 22.9232 67.3116 22.9617 64.5552 22.9104L63.3244 19.9232C62.6577 18.295 62.0295 16.9489 61.9398 16.9489C61.8116 16.9489 61.7731 17.6284 61.7731 22.9745H58.568V9.25657ZM10.8757 25.0258H18.0552V27.4617H14.3372L14.3116 29.0002C14.2988 29.8591 14.3116 30.5771 14.3372 30.6155C14.3757 30.6412 15.1706 30.6668 17.7988 30.6668L17.7347 33.0386L14.3372 33.1027V36.3079H18.0552V38.7437H10.8757V25.0258ZM42.568 25.0258C44.3757 25.0258 45.6065 25.0771 46.0295 25.1796C46.4911 25.295 46.8244 25.4745 47.1193 25.795C47.3629 26.0386 47.6449 26.5258 47.7603 26.8848C47.9013 27.3335 47.9526 27.8463 47.9142 28.6796C47.8885 29.3976 47.786 30.0002 47.6449 30.2822C47.5295 30.5258 47.1962 30.8976 46.9142 31.1155C46.6193 31.3207 46.3885 31.5386 46.3885 31.5899C46.3885 31.6412 46.4398 31.6668 46.4911 31.6284C46.5424 31.6027 46.7731 31.6796 47.0039 31.8207C47.2347 31.9617 47.5295 32.2566 47.6706 32.4873C47.9013 32.8591 47.927 33.1412 47.9398 35.2822C47.9398 37.0386 47.9911 37.7694 48.1321 38.1284C48.2731 38.513 48.286 38.6284 48.1577 38.6796C48.068 38.7181 47.3885 38.7309 45.3116 38.6796L45.1193 38.1668C44.9911 37.8079 44.927 36.9617 44.9013 35.4745C44.8757 34.2694 44.8116 33.2437 44.7603 33.1925C44.709 33.1412 44.427 33.0386 44.1449 32.9745C43.8629 32.8976 43.4526 32.8463 42.7988 32.8463V38.7437H41.2603C40.0167 38.7437 39.7219 38.7053 39.6577 38.5514C39.6321 38.4361 39.5936 35.3976 39.5808 31.7694C39.568 28.154 39.6065 25.154 39.6577 25.1027C39.7219 25.0643 41.0295 25.0258 42.568 25.0258ZM42.927 30.4104C43.6321 30.4104 43.9142 30.4361 44.0167 30.4745C44.1321 30.5002 44.3629 30.3848 44.5295 30.2181C44.8244 29.9361 44.8501 29.7822 44.8629 28.9617C44.8629 28.3463 44.7988 27.9361 44.6706 27.7437C44.5039 27.5002 44.3629 27.4617 43.6962 27.4617H42.927V30.4104ZM49.8501 25.0258H53.1834V38.7437L49.9142 38.6796L49.8501 25.0258ZM54.2219 25.0258H63.068V27.4617H60.2475L60.3116 38.7437L56.9783 38.6796L56.9142 27.4617H54.2219V25.0258ZM66.4013 25.0258L66.4783 25.5002C66.5167 25.7694 66.786 26.872 67.0552 27.9745C67.3372 29.0643 67.5936 30.0771 67.6193 30.2181C67.6577 30.3591 67.709 30.5002 67.7475 30.5386C67.7859 30.5643 67.8244 30.5643 67.8501 30.5386C67.8757 30.5002 68.1706 29.372 68.5039 28.0386C68.8501 26.6925 69.1449 25.4617 69.1706 25.3078C69.2219 25.0258 69.2603 25.0258 70.7603 25.0258C71.6065 25.0258 72.2988 25.0386 72.2988 25.0514C72.2988 25.0643 71.6321 27.0771 69.3501 33.9361V38.7437H66.0808L66.1193 36.3976C66.1577 34.0771 66.1449 34.0514 65.7475 32.7822C65.5295 32.0771 65.1578 30.8848 64.927 30.154C64.6834 29.4104 64.2603 28.0514 63.9783 27.1412C63.6962 26.2181 63.427 25.372 63.3757 25.2437C63.286 25.0386 63.4013 25.0258 66.4013 25.0258Z" fill="#778A96"/>
<path d="M3.50258 9.21815C3.0795 9.24379 2.41283 9.24379 2.02822 9.21815C1.6436 9.19251 1.98976 9.17969 2.79745 9.17969C3.60514 9.17969 3.92565 9.19251 3.50258 9.21815Z" fill="#778A96"/>
<path d="M9.27181 9.21815C8.84873 9.24379 8.18206 9.24379 7.79745 9.21815C7.41283 9.19251 7.75899 9.17969 8.56668 9.17969C9.37437 9.17969 9.69489 9.19251 9.27181 9.21815Z" fill="#778A96"/>
<path d="M14.1436 9.21815C13.7205 9.24379 13.0539 9.24379 12.6692 9.21815C12.2846 9.19251 12.6308 9.17969 13.4385 9.17969C14.2462 9.17969 14.5667 9.19251 14.1436 9.21815Z" fill="#778A96"/>
<path d="M19.5282 9.21815C19.1051 9.24379 18.4385 9.24379 18.0539 9.21815C17.6692 9.19251 18.0154 9.17969 18.8231 9.17969C19.6308 9.17969 19.9513 9.19251 19.5282 9.21815Z" fill="#778A96"/>
<path d="M26.8359 9.21815C26.0539 9.24379 24.7333 9.24379 23.8872 9.21815C23.041 9.20533 23.6692 9.17969 25.2975 9.17969C26.9257 9.17969 27.618 9.20533 26.8359 9.21815Z" fill="#778A96"/>
<path d="M37.7974 9.21815C36.8487 9.24379 35.3487 9.24379 34.4641 9.21815C33.5795 9.20533 34.3616 9.17969 36.1949 9.17969C38.0282 9.17969 38.7462 9.20533 37.7974 9.21815Z" fill="#778A96"/>
<path d="M43.9513 9.21815C43.5667 9.24379 42.8744 9.24379 42.4128 9.21815C41.9513 9.19251 42.2718 9.17969 43.118 9.17969C43.9641 9.17969 44.3359 9.19251 43.9513 9.21815Z" fill="#778A96"/>
<path d="M60.8103 9.21815C60.3872 9.24379 59.7205 9.24379 59.3359 9.21815C58.9513 9.19251 59.2975 9.17969 60.1051 9.17969C60.9128 9.17969 61.2333 9.19251 60.8103 9.21815Z" fill="#778A96"/>
<path d="M66.7077 9.21815C66.3616 9.24379 65.7205 9.24379 65.2975 9.21815C64.8744 9.19251 65.1564 9.17969 65.9385 9.17969C66.7077 9.17969 67.0667 9.19251 66.7077 9.21815Z" fill="#778A96"/>
<path d="M58.5282 19.513C58.5154 21.4489 58.5026 19.9233 58.5026 16.1156C58.5026 12.3079 58.5154 10.7181 58.5282 12.5899C58.5539 14.4617 58.5539 17.5771 58.5282 19.513Z" fill="#778A96"/>
<path d="M72.3744 19.513C72.3616 21.4489 72.3487 19.9233 72.3487 16.1156C72.3487 12.3079 72.3616 10.7181 72.3744 12.5899C72.4 14.4617 72.4 17.5771 72.3744 19.513Z" fill="#778A96"/>
<path d="M17.118 17.2694C17.1051 18.6797 17.0923 17.4746 17.0923 14.5771C17.0923 11.6797 17.1051 10.5258 17.118 12.013C17.1436 13.5002 17.1436 15.8592 17.118 17.2694Z" fill="#778A96"/>
<path d="M44.8487 20.5387L44.8744 15.0002L44.9128 9.44892L44.9769 20.4105L47.9898 20.4874L44.8487 20.5387Z" fill="#778A96"/>
<path d="M61.8231 12.1476C61.8231 12.1455 61.8231 12.1434 61.8231 12.1412V12.154C61.8231 12.1519 61.8231 12.1498 61.8231 12.1476Z" fill="#778A96"/>
<path d="M61.8231 12.1412C61.8231 12.1434 61.8231 12.1455 61.8231 12.1476C61.8231 10.6651 61.836 10.0397 61.8616 10.731C61.8872 11.4489 61.8872 12.654 61.8616 13.4361C61.836 14.2042 61.8231 13.6301 61.8231 12.1476C61.8231 12.1498 61.8231 12.1519 61.8231 12.154V12.1412Z" fill="#778A96"/>
<path d="M36.0923 14.0002C36.0667 14.4489 36.041 14.1028 36.041 13.231C36.041 12.3464 36.0667 11.9746 36.0923 12.3976C36.118 12.8207 36.118 13.5387 36.0923 14.0002Z" fill="#778A96"/>
<path d="M31.0923 18.231C31.0667 19.3207 31.0539 18.3976 31.0539 16.1797C31.0539 13.9489 31.0667 13.0643 31.0923 14.1925C31.118 15.3079 31.118 17.1284 31.0923 18.231Z" fill="#778A96"/>
<path d="M39.6821 16.5643C39.6564 16.872 39.6308 16.6412 39.6308 16.0515C39.6308 15.4489 39.6564 15.1797 39.6821 15.4746C39.7077 15.7566 39.7077 16.2438 39.6821 16.5643Z" fill="#778A96"/>
<path d="M61.8616 21.2438C61.8359 22.0771 61.8231 21.4489 61.8231 19.8335C61.8231 18.2053 61.8359 17.513 61.8616 18.2951C61.8872 19.0643 61.8872 20.3976 61.8616 21.2438Z" fill="#778A96"/>
<path d="M35.9898 20.5387L36.0282 18.8335L36.0539 17.1412L36.118 20.4105L39.5154 20.4746L35.9898 20.5387Z" fill="#778A96"/>
<path d="M85.9513 28.1925C88.4513 25.7053 90.2077 24.0515 90.4898 23.9361C90.7334 23.8335 91.1949 23.7438 91.5154 23.7438C91.8231 23.7438 92.3231 23.8464 92.6051 23.9746C92.9385 24.1284 94.541 25.654 97.2975 28.4233C100.81 31.9617 101.503 32.7182 101.618 33.154C101.708 33.4874 101.721 33.8207 101.644 34.1156C101.58 34.3592 101.336 34.7566 101.105 34.9874C100.862 35.2182 100.272 35.6797 99.7846 36.0002C99.2846 36.3335 98.3616 36.8335 97.7334 37.1284C97.0923 37.4233 95.9385 37.8335 95.1693 38.0387C93.8744 38.372 93.5667 38.3976 91.5154 38.4105C89.4385 38.4105 89.1564 38.3848 87.8616 38.0387C87.0795 37.8335 85.9257 37.4233 85.2975 37.1284C84.6564 36.8335 83.7334 36.3335 83.2462 36.0002C82.7462 35.6797 82.1436 35.2053 81.9 34.9489C81.541 34.5771 81.4385 34.3592 81.4 33.8848C81.3616 33.4489 81.4257 33.1284 81.618 32.7694C81.7718 32.4746 83.5667 30.5771 85.9513 28.1925Z" fill="#778A96"/>
<path d="M53.2718 35.2694C53.259 37.2053 53.2333 35.6797 53.2333 31.872C53.2333 28.0643 53.2462 26.4746 53.2718 28.3464C53.2975 30.2182 53.2975 33.3335 53.2718 35.2694Z" fill="#778A96"/>
<path d="M56.8616 35.654C56.8359 37.1669 56.8231 35.9617 56.8231 32.9617C56.8231 29.9617 56.8359 28.7181 56.8616 30.2053C56.8872 31.6925 56.8872 34.1412 56.8616 35.654Z" fill="#778A96"/>
<path d="M16.0667 30.6284C15.1436 30.6412 14.3487 30.6156 14.3103 30.5643C14.259 30.5002 15.0026 30.4874 17.7333 30.5899L16.0667 30.6284Z" fill="#778A96"/>
<path d="M42.8487 38.5387L42.8231 35.6925L42.7975 32.8335L43.8872 32.872L42.9257 32.9617L42.8487 38.5387Z" fill="#778A96"/>
<path d="M48.0154 36.6284C47.9898 37.2566 47.9641 36.7694 47.9641 35.5387C47.9641 34.2951 47.9898 33.7823 48.0154 34.3848C48.041 34.9746 48.041 35.9874 48.0154 36.6284Z" fill="#778A96"/>
<path d="M69.4257 37.2694C69.4 37.9746 69.3744 37.4489 69.3744 36.1156C69.3744 34.7694 69.4 34.1925 69.4257 34.8335C69.4513 35.4617 69.4513 36.5643 69.4257 37.2694Z" fill="#778A96"/>
<path d="M16.8872 36.2694C16.3616 36.2951 15.5539 36.2951 15.0923 36.2694C14.6436 36.2438 15.0667 36.2181 16.0539 36.2181C17.041 36.2181 17.4257 36.2438 16.8872 36.2694Z" fill="#778A96"/>
<path d="M25.4128 16.1092C25.4128 16.107 25.4128 16.1049 25.4128 16.1028V16.1156C25.4128 16.1134 25.4128 16.1113 25.4128 16.1092Z" fill="#778A96"/>
<path d="M25.4128 16.1028C25.4128 16.1049 25.4128 16.107 25.4128 16.1092C25.4129 13.6394 25.4257 12.6038 25.4513 13.8079C25.4641 15.0002 25.4641 17.0258 25.4513 18.2951C25.4257 19.5632 25.4129 18.5788 25.4128 16.1092C25.4128 16.1113 25.4128 16.1134 25.4128 16.1156V16.1028Z" fill="#778A96"/>
<path d="M42.7846 30.5258L42.8103 28.9489L42.8487 27.3848L42.9128 30.3976L44.0026 30.4746L42.7846 30.5258Z" fill="#778A96"/>
</g>
<defs>
<clipPath id="clip0_3391_196754">
<rect width="105.75" height="48" fill="white" transform="translate(0.875)"/>
</clipPath>
</defs>
</svg>
