<svg width="120" height="17" viewBox="0 0 120 17" fill="none" xmlns="http://www.w3.org/2000/svg">
<path d="M0.51258 16.4529V2.02365H2.98617V14.2267H10.3451V16.4529H0.51258ZM15.4324 16.6797C12.9175 16.6797 11.2685 15.4635 11.2891 13.4228C11.3097 10.8667 13.8451 10.3308 15.9683 10.0834C17.6174 9.89791 18.8336 9.83607 18.8542 8.97032C18.8336 7.89843 18.009 7.19757 16.6073 7.19757C15.1644 7.19757 14.1337 7.98088 13.9894 9.11461H11.5365C11.7632 6.80592 13.8245 5.19809 16.6485 5.19809C19.5962 5.19809 21.2247 6.80592 21.2247 9.13522V14.0824C21.2247 14.3916 21.3896 14.5565 21.7606 14.5565H22.3584V16.4529H21.2041C20.091 16.4529 19.4107 15.9994 19.2252 15.1749C19.184 15.0718 19.1428 14.9275 19.1221 14.8039C18.4831 15.9788 17.2876 16.6797 15.4324 16.6797ZM13.7421 13.2579C13.7421 14.2061 14.5048 14.7626 15.9271 14.7626C17.5968 14.7626 18.8542 13.8144 18.8542 12.3509V10.8255C18.4419 11.4645 17.3906 11.6088 16.2363 11.7531C14.8758 11.918 13.7421 12.1035 13.7421 13.2579ZM23.5675 16.4529V0.992984H25.9999V10.269L30.6585 5.5279H33.6268L29.669 9.46503L34.1627 16.4529H31.3387L27.9787 11.1553L25.9999 13.1342V16.4529H23.5675ZM39.2914 16.7415C35.952 16.7415 33.6639 14.371 33.6639 11.0316C33.6639 7.42432 36.0345 5.19809 39.0852 5.19809C42.1772 5.19809 44.2385 7.36248 44.3004 10.908V11.4851H36.0963C36.2612 13.4022 37.4568 14.7008 39.312 14.7008C40.5694 14.7008 41.5176 14.0824 41.8886 12.9899H44.2591C43.7026 15.3398 41.868 16.7415 39.2914 16.7415ZM36.1994 9.77423H41.7856C41.4764 8.20762 40.5075 7.25941 39.0852 7.25941C37.6423 7.25941 36.5704 8.20762 36.1994 9.77423ZM51.9245 16.7415C48.1317 16.7415 45.5962 14.8657 45.4107 12.0005H47.9462C48.1729 13.5671 49.6158 14.5565 51.9245 14.5565C53.8003 14.5565 54.7898 13.835 54.7898 12.6189C54.7898 11.4851 53.9034 11.0316 52.5017 10.5988L50.1518 9.89791C48.4615 9.38258 45.823 8.6405 45.823 5.81649C45.823 3.44596 47.7813 1.71445 50.9763 1.71445C54.4599 1.71445 56.6862 3.59026 56.8717 6.64102H54.3569C54.2538 5.01257 53.0582 3.92007 50.8939 3.92007C49.3066 3.92007 48.276 4.57969 48.276 5.69281C48.276 6.95022 49.5334 7.25941 50.9351 7.71291L53.1201 8.39314C55.1608 9.03215 57.3046 9.77423 57.3046 12.4952C57.3046 15.1131 55.2226 16.7415 51.9245 16.7415ZM63.6758 16.4529C61.3053 16.4529 60.0273 15.278 60.0273 13.1136V7.58923H58.1102V5.5279H60.0273V1.7969H62.4596V5.5279H65.2837V7.58923H62.4596V12.9487C62.4596 13.8763 62.9337 14.3916 63.8407 14.3916H65.0775V16.4529H63.6758ZM70.2345 16.6797C67.7197 16.6797 66.0706 15.4635 66.0912 13.4228C66.1119 10.8667 68.6473 10.3308 70.7705 10.0834C72.4195 9.89791 73.6357 9.83607 73.6563 8.97032C73.6357 7.89843 72.8112 7.19757 71.4095 7.19757C69.9665 7.19757 68.9359 7.98088 68.7916 9.11461H66.3386C66.5654 6.80592 68.6267 5.19809 71.4507 5.19809C74.3984 5.19809 76.0268 6.80592 76.0268 9.13522V14.0824C76.0268 14.3916 76.1917 14.5565 76.5628 14.5565H77.1606V16.4529H76.0062C74.8931 16.4529 74.2129 15.9994 74.0274 15.1749C73.9861 15.0718 73.9449 14.9275 73.9243 14.8039C73.2853 15.9788 72.0897 16.6797 70.2345 16.6797ZM68.5442 13.2579C68.5442 14.2061 69.3069 14.7626 70.7292 14.7626C72.3989 14.7626 73.6563 13.8144 73.6563 12.3509V10.8255C73.244 11.4645 72.1928 11.6088 71.0384 11.7531C69.678 11.918 68.5442 12.1035 68.5442 13.2579ZM78.3696 16.4529V0.992984H80.802V10.269L85.4606 5.5279H88.4289L84.4712 9.46503L88.9649 16.4529H86.1408L82.7809 11.1553L80.802 13.1342V16.4529H78.3696ZM94.0935 16.7415C90.7542 16.7415 88.4661 14.371 88.4661 11.0316C88.4661 7.42432 90.8366 5.19809 93.8874 5.19809C96.9794 5.19809 99.0407 7.36248 99.1025 10.908V11.4851H90.8984C91.0634 13.4022 92.2589 14.7008 94.1141 14.7008C95.3715 14.7008 96.3197 14.0824 96.6908 12.9899H99.0613C98.5047 15.3398 96.6702 16.7415 94.0935 16.7415ZM91.0015 9.77423H96.5877C96.2785 8.20762 95.3097 7.25941 93.8874 7.25941C92.4444 7.25941 91.3726 8.20762 91.0015 9.77423ZM101.676 16.7209C100.79 16.7209 100.11 16.0407 100.11 15.1337C100.11 14.2473 100.79 13.5671 101.676 13.5671C102.583 13.5671 103.264 14.2473 103.264 15.1337C103.264 16.0407 102.583 16.7209 101.676 16.7209ZM104.837 16.4529V5.5279H107.269V16.4529H104.837ZM104.486 2.47714C104.486 1.59077 105.166 0.910533 106.053 0.910533C106.96 0.910533 107.619 1.59077 107.619 2.47714C107.619 3.36351 106.96 4.06436 106.053 4.06436C105.166 4.06436 104.486 3.36351 104.486 2.47714ZM114.341 16.7415C110.795 16.7415 108.734 14.2679 108.734 10.8873C108.734 7.32125 111.146 5.19809 114.341 5.19809C117.866 5.19809 119.927 7.67168 119.927 10.8873C119.927 14.5771 117.598 16.7415 114.341 16.7415ZM111.207 10.8873C111.207 13.2785 112.547 14.6802 114.341 14.6802C116.299 14.6802 117.453 13.0724 117.453 10.8873C117.453 8.72296 116.237 7.28003 114.341 7.28003C112.444 7.28003 111.207 8.72296 111.207 10.8873Z" fill="#151A1A"/>
</svg>
