<svg width="85" height="13" viewBox="0 0 85 13" fill="none" xmlns="http://www.w3.org/2000/svg">
<path d="M0.282704 11.8862V1.68861H2.03087V10.3129H7.23165V11.8862H0.282704ZM10.827 12.0465C9.04968 12.0465 7.88423 11.187 7.8988 9.74473C7.91337 7.9383 9.70524 7.55953 11.2057 7.38471C12.3712 7.2536 13.2307 7.2099 13.2453 6.59804C13.2307 5.8405 12.648 5.34519 11.6574 5.34519C10.6376 5.34519 9.90919 5.89877 9.80721 6.70001H8.07362C8.23387 5.0684 9.69067 3.93209 11.6865 3.93209C13.7697 3.93209 14.9206 5.0684 14.9206 6.71458V10.2109C14.9206 10.4294 15.0371 10.546 15.2994 10.546H15.7218V11.8862H14.906C14.1193 11.8862 13.6386 11.5657 13.5075 10.983C13.4784 10.9102 13.4492 10.8082 13.4347 10.7208C12.983 11.5512 12.1381 12.0465 10.827 12.0465ZM9.6324 9.62819C9.6324 10.2983 10.1714 10.6917 11.1766 10.6917C12.3566 10.6917 13.2453 10.0215 13.2453 8.98719V7.90916C12.9539 8.36077 12.2109 8.46275 11.3951 8.56472C10.4336 8.68127 9.6324 8.81238 9.6324 9.62819ZM16.5763 11.8862V0.960213H18.2953V7.51582L21.5877 4.16518H23.6855L20.8885 6.94767L24.0643 11.8862H22.0685L19.6939 8.14225L18.2953 9.54078V11.8862H16.5763ZM27.6889 12.0902C25.3288 12.0902 23.7118 10.4149 23.7118 8.05484C23.7118 5.50544 25.3871 3.93209 27.5432 3.93209C29.7284 3.93209 31.1852 5.46173 31.2289 7.96743V8.37534H25.4308C25.5474 9.73016 26.3923 10.6479 27.7034 10.6479C28.5921 10.6479 29.2622 10.2109 29.5244 9.4388H31.1998C30.8064 11.0996 29.5099 12.0902 27.6889 12.0902ZM25.5037 7.16619H29.4516C29.2331 6.05902 28.5484 5.38889 27.5432 5.38889C26.5234 5.38889 25.7659 6.05902 25.5037 7.16619ZM36.6171 12.0902C33.9366 12.0902 32.1447 10.7645 32.0136 8.73954H33.8055C33.9657 9.84671 34.9855 10.546 36.6171 10.546C37.9428 10.546 38.6421 10.0361 38.6421 9.17658C38.6421 8.37534 38.0156 8.05484 37.025 7.74891L35.3643 7.2536C34.1697 6.8894 32.305 6.36495 32.305 4.36913C32.305 2.69381 33.6889 1.47009 35.947 1.47009C38.409 1.47009 39.9823 2.79578 40.1134 4.95185H38.3361C38.2633 3.80098 37.4183 3.02887 35.8887 3.02887C34.767 3.02887 34.0386 3.49505 34.0386 4.28172C34.0386 5.17037 34.9272 5.38889 35.9178 5.70939L37.462 6.19013C38.9043 6.64174 40.4194 7.16619 40.4194 9.08917C40.4194 10.9393 38.948 12.0902 36.6171 12.0902ZM44.9221 11.8862C43.2468 11.8862 42.3436 11.0559 42.3436 9.52621V5.62198H40.9887V4.16518H42.3436V1.52837H44.0626V4.16518H46.0584V5.62198H44.0626V9.40967C44.0626 10.0652 44.3977 10.4294 45.0387 10.4294H45.9127V11.8862H44.9221ZM49.5573 12.0465C47.78 12.0465 46.6146 11.187 46.6292 9.74473C46.6437 7.9383 48.4356 7.55953 49.9361 7.38471C51.1016 7.2536 51.9611 7.2099 51.9756 6.59804C51.9611 5.8405 51.3783 5.34519 50.3877 5.34519C49.368 5.34519 48.6396 5.89877 48.5376 6.70001H46.804C46.9642 5.0684 48.421 3.93209 50.4169 3.93209C52.5001 3.93209 53.651 5.0684 53.651 6.71458V10.2109C53.651 10.4294 53.7675 10.546 54.0297 10.546H54.4522V11.8862H53.6364C52.8497 11.8862 52.369 11.5657 52.2379 10.983C52.2087 10.9102 52.1796 10.8082 52.165 10.7208C51.7134 11.5512 50.8685 12.0465 49.5573 12.0465ZM48.3628 9.62819C48.3628 10.2983 48.9018 10.6917 49.907 10.6917C51.087 10.6917 51.9756 10.0215 51.9756 8.98719V7.90916C51.6843 8.36077 50.9413 8.46275 50.1255 8.56472C49.164 8.68127 48.3628 8.81238 48.3628 9.62819ZM55.3067 11.8862V0.960213H57.0257V7.51582L60.3181 4.16518H62.4159L59.6188 6.94767L62.7947 11.8862H60.7988L58.4242 8.14225L57.0257 9.54078V11.8862H55.3067ZM66.4192 12.0902C64.0592 12.0902 62.4422 10.4149 62.4422 8.05484C62.4422 5.50544 64.1175 3.93209 66.2735 3.93209C68.4587 3.93209 69.9156 5.46173 69.9593 7.96743V8.37534H64.1612C64.2777 9.73016 65.1227 10.6479 66.4338 10.6479C67.3224 10.6479 67.9926 10.2109 68.2548 9.4388H69.9301C69.5368 11.0996 68.2402 12.0902 66.4192 12.0902ZM64.234 7.16619H68.182C67.9634 6.05902 67.2787 5.38889 66.2735 5.38889C65.2538 5.38889 64.4962 6.05902 64.234 7.16619ZM71.7783 12.0756C71.1519 12.0756 70.6711 11.5949 70.6711 10.9539C70.6711 10.3275 71.1519 9.84671 71.7783 9.84671C72.4193 9.84671 72.9 10.3275 72.9 10.9539C72.9 11.5949 72.4193 12.0756 71.7783 12.0756ZM74.0116 11.8862V4.16518H75.7307V11.8862H74.0116ZM73.764 2.00911C73.764 1.38269 74.2447 0.901942 74.8711 0.901942C75.5121 0.901942 75.9783 1.38269 75.9783 2.00911C75.9783 2.63554 75.5121 3.13085 74.8711 3.13085C74.2447 3.13085 73.764 2.63554 73.764 2.00911ZM80.7285 12.0902C78.2228 12.0902 76.766 10.342 76.766 7.95286C76.766 5.4326 78.4705 3.93209 80.7285 3.93209C83.2196 3.93209 84.6764 5.68025 84.6764 7.95286C84.6764 10.5605 83.0302 12.0902 80.7285 12.0902ZM78.5142 7.95286C78.5142 9.64275 79.4611 10.6334 80.7285 10.6334C82.1125 10.6334 82.9283 9.49707 82.9283 7.95286C82.9283 6.42322 82.0688 5.40346 80.7285 5.40346C79.3882 5.40346 78.5142 6.42322 78.5142 7.95286Z" fill="white"/>
</svg>
