<svg width="117" height="48" viewBox="0 0 117 48" fill="none" xmlns="http://www.w3.org/2000/svg">
<path d="M95.3281 38.984V41.1424H110.143V31.4076H107.984V38.984H95.3281ZM95.3281 6.85718V9.01569H107.984V16.5925H110.143V6.85718H95.3281ZM87.6883 23.5557V18.54H91.0745C92.7256 18.54 93.3181 19.0901 93.3181 20.593V21.4817C93.3181 23.0266 92.7465 23.5557 91.0745 23.5557H87.6883ZM93.0637 24.4444C94.6084 24.0423 95.6876 22.6029 95.6876 20.889C95.6876 19.8098 95.2646 18.836 94.4605 18.0529C93.4445 17.0791 92.0897 16.5925 90.3334 16.5925H85.5717V31.4071H87.6883V25.5026H90.8629C92.4923 25.5026 93.1486 26.1798 93.1486 27.8732V31.4076H95.3072V28.2118C95.3072 25.8837 94.757 24.995 93.0637 24.741V24.4444ZM75.2442 24.931H81.7628V22.9841H75.2442V18.5395H82.3976V16.5925H73.0853V31.4071H82.715V29.4601H75.2442V24.931ZM68.154 25.7142V26.7299C68.154 28.8675 67.3708 29.5661 65.4028 29.5661H64.9373C62.9688 29.5661 62.0166 28.931 62.0166 25.9892V22.0103C62.0166 19.0476 63.0114 18.4335 64.9794 18.4335H65.4023C67.3285 18.4335 67.9421 19.1531 67.963 21.1426H70.2912C70.0796 18.2219 68.1326 16.381 65.2119 16.381C63.7941 16.381 62.6088 16.8256 61.7201 17.6718C60.3867 18.9206 59.6461 21.0371 59.6461 23.9998C59.6461 26.857 60.2811 28.9735 61.5931 30.2853C62.4819 31.153 63.7094 31.6186 64.9159 31.6186C66.1855 31.6186 67.3499 31.1105 67.9421 30.0102H68.2381V31.4071H70.1852V23.7672H64.4498V25.7142H68.154ZM49.4881 18.5395H51.7952C53.9753 18.5395 55.1605 19.0896 55.1605 22.0528V25.9467C55.1605 28.9095 53.9753 29.4601 51.7952 29.4601H49.4881V18.5395ZM51.9853 31.4076C56.0278 31.4076 57.53 28.3388 57.53 24.0003C57.53 19.5982 55.9218 16.593 51.9427 16.593H47.3712V31.4076H51.9853ZM37.1498 24.931H43.6684V22.9841H37.1498V18.5395H44.3029V16.5925H34.9906V31.4071H44.6206V29.4601H37.1498V24.931ZM24.6632 16.5925H22.5047V31.4071H32.24V29.4601H24.6632V16.5925ZM7.66864 31.4076V41.1429H22.4832V38.984H9.82715V31.4076H7.66864ZM7.66864 6.85718V16.5925H9.82715V9.01569H22.4832V6.85718H7.66864Z" fill="#8CA4A6"/>
</svg>
