<svg width="21" height="20" viewBox="0 0 21 20" fill="none" xmlns="http://www.w3.org/2000/svg">
<path d="M18.8569 0H2.47518C1.47602 0 0.666016 0.81 0.666016 1.80916V18.1908C0.666016 19.19 1.47602 20 2.47518 20H18.8568C19.856 20 20.666 19.19 20.666 18.1908V1.80916C20.666 0.81 19.856 0 18.8569 0ZM6.85486 17.2693C6.85486 17.5601 6.61916 17.7958 6.32837 17.7958H4.08722C3.79643 17.7958 3.56073 17.5601 3.56073 17.2693V7.8745C3.56073 7.58372 3.79643 7.34801 4.08722 7.34801H6.32837C6.61916 7.34801 6.85486 7.58372 6.85486 7.8745V17.2693ZM5.2078 6.46241C4.03193 6.46241 3.07869 5.50916 3.07869 4.3333C3.07869 3.15743 4.03193 2.20419 5.2078 2.20419C6.38366 2.20419 7.33691 3.15743 7.33691 4.3333C7.33691 5.50916 6.38371 6.46241 5.2078 6.46241ZM18.5671 17.3117C18.5671 17.5791 18.3503 17.7958 18.083 17.7958H15.6781C15.4107 17.7958 15.194 17.5791 15.194 17.3117V12.905C15.194 12.2476 15.3868 10.0243 13.476 10.0243C11.9939 10.0243 11.6932 11.5461 11.6329 12.2291V17.3117C11.6329 17.5791 11.4162 17.7958 11.1488 17.7958H8.82282C8.55549 17.7958 8.33874 17.5791 8.33874 17.3117V7.83209C8.33874 7.56476 8.55549 7.34801 8.82282 7.34801H11.1488C11.4161 7.34801 11.6329 7.56476 11.6329 7.83209V8.65173C12.1825 7.82696 12.9992 7.19037 14.7382 7.19037C18.5891 7.19037 18.5671 10.7881 18.5671 12.7648V17.3117Z" fill="#308D8A"/>
</svg>
