<svg width="118" height="48" viewBox="0 0 118 48" fill="none" xmlns="http://www.w3.org/2000/svg">
<g clip-path="url(#clip0_4037_4428)">
<path d="M113.989 24.781C113.989 29.3614 111.006 32.4525 106.801 32.4525C102.596 32.4525 99.6123 29.3614 99.6123 24.781C99.6123 20.2007 102.596 17.1096 106.801 17.1096C111.006 17.1096 113.989 20.2007 113.989 24.781ZM103.05 24.781C103.05 27.7878 104.499 29.6143 106.801 29.6143C109.102 29.6143 110.552 27.7878 110.552 24.781C110.552 21.7743 109.102 19.9478 106.801 19.9478C104.499 19.9478 103.05 21.7743 103.05 24.781Z" fill="#778A96"/>
<path d="M94.7798 32.1434V30.064C93.956 31.4128 91.9669 32.4525 89.2963 32.4525C84.0114 32.4525 80.0903 28.2375 80.0903 22.1397C80.0903 16.0138 84.0396 11.6582 89.5235 11.6582C93.7002 11.6582 96.513 13.8781 97.7635 17.4469L94.297 18.599C93.7002 16.2105 91.9955 14.8336 89.5521 14.8336C86.1138 14.8336 83.7273 17.7279 83.7273 22.0835C83.7273 26.439 86.1138 29.3615 89.609 29.3615C92.5637 29.3615 94.4957 27.2821 94.6093 24.4158H89.2394V21.2686H98.1044V32.1434H94.7798Z" fill="#778A96"/>
<path d="M72.5639 28.4342V20.2569H70.4901V17.3907H72.5639V13.0632H75.9168V17.3907H79.0424V20.2569H75.9168V27.9003C75.9168 29.221 76.6841 29.3615 77.9056 29.3615C78.4742 29.3615 78.7865 29.3334 79.2979 29.2772V32.1153C78.6729 32.2277 77.8205 32.312 76.9396 32.312C74.0985 32.312 72.5639 31.4409 72.5639 28.4342Z" fill="#778A96"/>
<path d="M65.8546 15.4243V11.9679H69.378V15.4243H65.8546ZM69.3211 17.3913V32.144H65.9114V17.3913H69.3211Z" fill="#778A96"/>
<path d="M49.0006 32.144V11.9679H57.0983C61.474 11.9679 63.8037 13.8506 63.8037 17.2789C63.8037 19.7798 62.3263 21.0724 60.9054 21.6345C63.0364 22.3089 64.4574 24.0511 64.4574 26.524C64.4574 30.0646 61.8149 32.144 57.6097 32.144H49.0006ZM52.4954 20.3138H56.7574C59.0871 20.3138 60.3658 19.4145 60.3658 17.6442C60.3658 15.8739 59.0871 15.0028 56.7574 15.0028H52.4954V20.3138ZM52.4954 23.3486V29.1092H57.4107C59.7121 29.1092 60.9626 27.929 60.9626 26.2148C60.9626 24.5288 59.7121 23.3486 57.4107 23.3486H52.4954Z" fill="#778A96"/>
<path fill-rule="evenodd" clip-rule="evenodd" d="M37.0917 26.4418C37.0917 34.7544 21.5593 41.9911 21.5593 41.9911C21.5593 41.9911 6.02671 34.7544 6.02671 26.4418C6.02671 24.2832 6.0276 22.3776 6.02846 20.5557C6.03016 16.9336 6.03171 13.6421 6.02576 9.35062C15.8887 4.9173 27.2312 4.9219 37.0917 9.3603V26.4418ZM20.3467 11.9663H18.3426V13.9189H16.3384V30.1928H18.3426V32.1459H20.3467V30.1928H22.351V32.1459H24.3551V30.0051C26.9016 29.4777 28.3635 27.8625 28.3635 25.4644C28.3635 23.7888 27.2614 22.2739 25.3756 21.7919C27.041 21.3099 27.9962 19.9097 27.9962 18.3489C27.9962 16.1281 26.6295 14.5708 24.3551 14.082V11.9663H22.351V13.9189H20.3467V11.9663ZM22.1183 16.4667C23.8082 16.4667 24.7878 17.2242 24.7878 18.5096C24.7878 19.795 23.8572 20.5524 22.2897 20.5524H19.4732V16.4667H22.1183ZM22.3142 23.0314C24.2 23.0314 25.1552 23.7888 25.1552 25.3037C25.1552 26.681 24.0041 27.5302 22.1428 27.5302H19.4732V23.0314H22.3142Z" fill="#778A96"/>
</g>
<defs>
<clipPath id="clip0_4037_4428">
<rect width="108" height="36" fill="white" transform="translate(6 6)"/>
</clipPath>
</defs>
</svg>
