<svg width="594" height="272" viewBox="0 0 594 272" fill="none" xmlns="http://www.w3.org/2000/svg">
<g clip-path="url(#clip0_3104_59687)">
<path d="M634.001 -66.0013C554.501 -43.001 415.671 123.317 295.5 172.5C157 229.183 33.1337 233.936 -31.9998 219" stroke="#DCE9EF" stroke-width="2" stroke-linecap="round" stroke-linejoin="round"/>
<path d="M635 116C627.256 117.282 618.903 125.017 611.931 127.126C336.5 248.5 630.858 250.15 620.5 294.5" stroke="#DCE9EF" stroke-width="2" stroke-linecap="round" stroke-linejoin="round"/>
<path d="M-27 222.99C-25.02 186.14 -13.21 125.93 43.79 68.75C82.87 29.55 132.42 2.58 180.55 -16" stroke="#DCE9EF" stroke-width="2" stroke-linecap="round" stroke-linejoin="round"/>
<g filter="url(#filter0_d_3104_59687)">
<rect x="129.59" y="97.8516" width="334.616" height="152.204" rx="14.6611" fill="#F2F7F9"/>
</g>
<g filter="url(#filter1_dd_3104_59687)">
<rect x="111" y="71.3955" width="371.795" height="169.115" rx="13.8895" fill="#F6F9FB"/>
</g>
<g filter="url(#filter2_dddd_3104_59687)">
<rect x="90" y="41" width="413.106" height="187.906" rx="20.5412" fill="white"/>
<path d="M124.926 56.1412H468.18C471.861 56.1412 474.553 56.1421 476.677 56.3156C478.787 56.488 480.236 56.8252 481.447 57.4423C483.693 58.5868 485.519 60.413 486.664 62.6592C487.281 63.8703 487.618 65.3184 487.79 67.4287C487.964 69.5524 487.965 72.2446 487.965 75.9258V110.027C487.965 113.708 487.964 116.401 487.79 118.524C487.618 120.635 487.281 122.083 486.664 123.294C485.519 125.54 483.693 127.366 481.447 128.511C480.236 129.128 478.787 129.465 476.677 129.637C474.554 129.811 471.861 129.812 468.18 129.812H124.926C121.245 129.812 118.552 129.811 116.429 129.637C114.318 129.465 112.87 129.128 111.659 128.511C109.413 127.366 107.587 125.54 106.442 123.294C105.825 122.083 105.488 120.635 105.316 118.524C105.142 116.401 105.141 113.708 105.141 110.027V75.9259C105.141 72.2447 105.142 69.5524 105.316 67.4287C105.488 65.3184 105.825 63.8703 106.442 62.6592C107.587 60.413 109.413 58.5868 111.659 57.4423C112.87 56.8252 114.318 56.488 116.429 56.3156C118.552 56.1421 121.245 56.1412 124.926 56.1412Z" fill="#49A6A3" fill-opacity="0.15"/>
<path d="M124.926 56.1412H468.18C471.861 56.1412 474.553 56.1421 476.677 56.3156C478.787 56.488 480.236 56.8252 481.447 57.4423C483.693 58.5868 485.519 60.413 486.664 62.6592C487.281 63.8703 487.618 65.3184 487.79 67.4287C487.964 69.5524 487.965 72.2446 487.965 75.9258V110.027C487.965 113.708 487.964 116.401 487.79 118.524C487.618 120.635 487.281 122.083 486.664 123.294C485.519 125.54 483.693 127.366 481.447 128.511C480.236 129.128 478.787 129.465 476.677 129.637C474.554 129.811 471.861 129.812 468.18 129.812H124.926C121.245 129.812 118.552 129.811 116.429 129.637C114.318 129.465 112.87 129.128 111.659 128.511C109.413 127.366 107.587 125.54 106.442 123.294C105.825 122.083 105.488 120.635 105.316 118.524C105.142 116.401 105.141 113.708 105.141 110.027V75.9259C105.141 72.2447 105.142 69.5524 105.316 67.4287C105.488 65.3184 105.825 63.8703 106.442 62.6592C107.587 60.413 109.413 58.5868 111.659 57.4423C112.87 56.8252 114.318 56.488 116.429 56.3156C118.552 56.1421 121.245 56.1412 124.926 56.1412Z" stroke="#308D8A" stroke-width="2.28235"/>
<path d="M123.628 85.6943V73.4974H125.728V85.6943H123.628ZM134.157 85.6943V80.6549C134.157 79.9611 134.011 79.4559 133.719 79.1394C133.439 78.8108 133.007 78.6464 132.423 78.6464C131.741 78.6464 131.205 78.8777 130.816 79.3403C130.438 79.8028 130.25 80.448 130.25 81.2757V85.6943H128.278V77.1127H130.177V78.3178C130.432 77.8917 130.791 77.557 131.254 77.3135C131.729 77.0579 132.307 76.9301 132.989 76.9301C133.975 76.9301 134.741 77.2101 135.289 77.77C135.849 78.3299 136.129 79.2003 136.129 80.381V85.6943H134.157ZM141.704 85.8769C141.046 85.8769 140.426 85.7795 139.841 85.5848C139.257 85.39 138.691 85.104 138.143 84.7266L138.91 83.2294C139.981 83.9354 140.925 84.2884 141.74 84.2884C142.872 84.2884 143.438 83.9537 143.438 83.2842C143.438 83.0042 143.347 82.7973 143.164 82.6634C142.994 82.5173 142.684 82.4077 142.233 82.3347L140.882 82.0791C139.239 81.7748 138.417 80.9957 138.417 79.742C138.417 79.3646 138.484 79.0055 138.618 78.6647C138.764 78.3239 138.977 78.0256 139.257 77.77C139.549 77.5144 139.914 77.3135 140.353 77.1675C140.791 77.0092 141.302 76.9301 141.886 76.9301C142.507 76.9301 143.097 77.0214 143.657 77.204C144.217 77.3744 144.723 77.6178 145.173 77.9343L144.443 79.3768C144.053 79.1333 143.645 78.9325 143.219 78.7742C142.805 78.6038 142.385 78.5186 141.959 78.5186C141.485 78.5186 141.107 78.5977 140.827 78.756C140.56 78.9142 140.426 79.1638 140.426 79.5046C140.426 79.7237 140.511 79.9002 140.681 80.0341C140.852 80.1558 141.138 80.2532 141.539 80.3262L142.891 80.5819C143.718 80.7401 144.351 81.014 144.789 81.4035C145.228 81.793 145.447 82.3469 145.447 83.0651C145.447 83.8806 145.13 84.5562 144.497 85.0918C143.864 85.6152 142.933 85.8769 141.704 85.8769ZM151.184 85.8039C150.235 85.8039 149.535 85.5909 149.085 85.1648C148.646 84.7266 148.427 84.051 148.427 83.1381V78.7742H146.583V77.1127H148.427V74.666H150.399V77.1127H152.59V78.7742H150.399V82.9738C150.399 83.7528 150.801 84.1423 151.604 84.1423C151.75 84.1423 151.921 84.1362 152.116 84.1241C152.31 84.1119 152.469 84.0936 152.59 84.0693V85.6396C152.42 85.6882 152.207 85.7248 151.951 85.7491C151.696 85.7856 151.44 85.8039 151.184 85.8039ZM157.185 85.8769C156.723 85.8769 156.297 85.8221 155.907 85.7126C155.518 85.603 155.183 85.4387 154.903 85.2196C154.623 85.0005 154.404 84.7327 154.246 84.4162C154.088 84.0876 154.008 83.7163 154.008 83.3024C154.008 82.8886 154.088 82.5295 154.246 82.2252C154.404 81.9208 154.623 81.6652 154.903 81.4583C155.183 81.2392 155.518 81.0688 155.907 80.947C156.297 80.8131 156.723 80.7158 157.185 80.6549L160.125 80.2897C160.052 79.7054 159.821 79.2794 159.431 79.0116C159.042 78.7438 158.567 78.6099 158.007 78.6099C157.593 78.6099 157.167 78.689 156.729 78.8473C156.303 78.9933 155.834 79.2368 155.323 79.5776L154.629 78.1169C155.141 77.7396 155.688 77.4474 156.273 77.2405C156.857 77.0336 157.459 76.9301 158.08 76.9301C159.407 76.9301 160.411 77.2283 161.093 77.8248C161.787 78.4091 162.134 79.2916 162.134 80.4723V85.6943H160.235V84.544C159.59 85.4326 158.573 85.8769 157.185 85.8769ZM157.715 84.2701C158.105 84.2701 158.451 84.2093 158.756 84.0876C159.06 83.9658 159.316 83.8015 159.523 83.5946C159.73 83.3876 159.888 83.1564 159.997 82.9007C160.107 82.6329 160.162 82.353 160.162 82.0608V81.7139L157.788 82.0243C157.204 82.1095 156.759 82.2373 156.455 82.4077C156.163 82.5782 156.017 82.846 156.017 83.2111C156.017 83.552 156.163 83.8137 156.455 83.9963C156.759 84.1789 157.179 84.2701 157.715 84.2701ZM170.47 85.6943V80.6549C170.47 79.9611 170.324 79.4559 170.032 79.1394C169.752 78.8108 169.32 78.6464 168.735 78.6464C168.054 78.6464 167.518 78.8777 167.129 79.3403C166.751 79.8028 166.563 80.448 166.563 81.2757V85.6943H164.591V77.1127H166.49V78.3178C166.745 77.8917 167.104 77.557 167.567 77.3135C168.042 77.0579 168.62 76.9301 169.302 76.9301C170.287 76.9301 171.054 77.2101 171.602 77.77C172.162 78.3299 172.442 79.2003 172.442 80.381V85.6943H170.47ZM178.37 85.8039C177.421 85.8039 176.721 85.5909 176.27 85.1648C175.832 84.7266 175.613 84.051 175.613 83.1381V78.7742H173.769V77.1127H175.613V74.666H177.585V77.1127H179.776V78.7742H177.585V82.9738C177.585 83.7528 177.987 84.1423 178.79 84.1423C178.936 84.1423 179.106 84.1362 179.301 84.1241C179.496 84.1119 179.654 84.0936 179.776 84.0693V85.6396C179.606 85.6882 179.393 85.7248 179.137 85.7491C178.881 85.7856 178.626 85.8039 178.37 85.8039Z" fill="#151A1A"/>
<path d="M131.621 104.718C131.621 105.634 131.376 106.337 130.886 106.827C130.407 107.306 129.714 107.615 128.809 107.753L132.164 112.259H130.551L127.355 107.849H124.943V112.259H123.569V101.587H127.723C128.98 101.587 129.943 101.842 130.614 102.353C131.285 102.865 131.621 103.653 131.621 104.718ZM130.231 104.734C130.231 104.01 130.013 103.504 129.576 103.216C129.139 102.918 128.431 102.769 127.451 102.769H124.943V106.683H127.451C128.378 106.683 129.07 106.539 129.528 106.252C129.997 105.953 130.231 105.447 130.231 104.734ZM137.144 112.419C136.579 112.419 136.057 112.333 135.578 112.163C135.099 111.982 134.683 111.726 134.332 111.396C133.98 111.066 133.703 110.661 133.501 110.182C133.309 109.692 133.213 109.133 133.213 108.504C133.213 107.908 133.309 107.37 133.501 106.891C133.693 106.401 133.954 105.985 134.284 105.645C134.625 105.304 135.019 105.043 135.466 104.862C135.924 104.681 136.414 104.59 136.936 104.59C137.49 104.59 137.985 104.675 138.422 104.846C138.858 105.005 139.231 105.234 139.54 105.533C139.849 105.82 140.083 106.161 140.243 106.555C140.413 106.949 140.499 107.375 140.499 107.833C140.499 108.004 140.472 108.195 140.419 108.408C140.376 108.611 140.318 108.776 140.243 108.904H134.539C134.614 109.671 134.891 110.262 135.37 110.677C135.85 111.082 136.478 111.284 137.255 111.284C137.756 111.284 138.193 111.21 138.566 111.061C138.949 110.901 139.316 110.677 139.668 110.39L140.179 111.364C139.359 112.067 138.347 112.419 137.144 112.419ZM136.984 105.724C136.398 105.724 135.876 105.911 135.418 106.284C134.971 106.646 134.678 107.157 134.539 107.817H139.157C139.167 107.785 139.173 107.732 139.173 107.658C139.173 107.082 138.992 106.619 138.629 106.268C138.267 105.905 137.719 105.724 136.984 105.724ZM145.956 112.419C145.381 112.419 144.853 112.328 144.374 112.147C143.905 111.955 143.501 111.689 143.16 111.348C142.819 111.007 142.553 110.597 142.361 110.118C142.169 109.639 142.073 109.101 142.073 108.504C142.073 107.908 142.169 107.37 142.361 106.891C142.553 106.411 142.819 106.001 143.16 105.661C143.501 105.32 143.905 105.059 144.374 104.878C144.853 104.686 145.381 104.59 145.956 104.59C146.499 104.59 146.989 104.67 147.426 104.83C147.873 104.989 148.267 105.218 148.608 105.517L148.113 106.491C147.772 106.225 147.415 106.033 147.042 105.916C146.669 105.788 146.307 105.724 145.956 105.724C145.572 105.724 145.221 105.788 144.901 105.916C144.592 106.044 144.326 106.23 144.102 106.475C143.879 106.71 143.703 107.003 143.575 107.354C143.458 107.695 143.4 108.078 143.4 108.504C143.4 108.941 143.458 109.33 143.575 109.671C143.703 110.011 143.879 110.304 144.102 110.549C144.326 110.784 144.592 110.965 144.901 111.093C145.221 111.22 145.572 111.284 145.956 111.284C146.307 111.284 146.669 111.226 147.042 111.108C147.415 110.981 147.772 110.784 148.113 110.517L148.608 111.492C148.267 111.79 147.873 112.019 147.426 112.179C146.989 112.339 146.499 112.419 145.956 112.419ZM154.037 112.419C153.472 112.419 152.95 112.333 152.471 112.163C151.992 111.982 151.576 111.726 151.225 111.396C150.874 111.066 150.597 110.661 150.394 110.182C150.203 109.692 150.107 109.133 150.107 108.504C150.107 107.908 150.203 107.37 150.394 106.891C150.586 106.401 150.847 105.985 151.177 105.645C151.518 105.304 151.912 105.043 152.359 104.862C152.817 104.681 153.307 104.59 153.829 104.59C154.383 104.59 154.878 104.675 155.315 104.846C155.752 105.005 156.124 105.234 156.433 105.533C156.742 105.82 156.977 106.161 157.136 106.555C157.307 106.949 157.392 107.375 157.392 107.833C157.392 108.004 157.365 108.195 157.312 108.408C157.269 108.611 157.211 108.776 157.136 108.904H151.433C151.507 109.671 151.784 110.262 152.263 110.677C152.743 111.082 153.371 111.284 154.149 111.284C154.649 111.284 155.086 111.21 155.459 111.061C155.842 110.901 156.21 110.677 156.561 110.39L157.072 111.364C156.252 112.067 155.24 112.419 154.037 112.419ZM153.877 105.724C153.291 105.724 152.769 105.911 152.311 106.284C151.864 106.646 151.571 107.157 151.433 107.817H156.05C156.061 107.785 156.066 107.732 156.066 107.658C156.066 107.082 155.885 106.619 155.523 106.268C155.161 105.905 154.612 105.724 153.877 105.724ZM159.398 112.259V104.75H160.692V112.259H159.398ZM160.037 103.088C159.803 103.088 159.611 103.019 159.462 102.881C159.313 102.731 159.238 102.545 159.238 102.321C159.238 102.098 159.313 101.917 159.462 101.778C159.611 101.64 159.803 101.571 160.037 101.571C160.282 101.571 160.479 101.64 160.628 101.778C160.777 101.917 160.852 102.098 160.852 102.321C160.852 102.545 160.777 102.731 160.628 102.881C160.479 103.019 160.282 103.088 160.037 103.088ZM165.393 112.259L162.326 104.75H163.716L166.096 110.901L168.477 104.75H169.867L166.799 112.259H165.393ZM174.751 112.419C174.186 112.419 173.664 112.333 173.185 112.163C172.706 111.982 172.29 111.726 171.939 111.396C171.587 111.066 171.31 110.661 171.108 110.182C170.916 109.692 170.821 109.133 170.821 108.504C170.821 107.908 170.916 107.37 171.108 106.891C171.3 106.401 171.561 105.985 171.891 105.645C172.232 105.304 172.626 105.043 173.073 104.862C173.531 104.681 174.021 104.59 174.543 104.59C175.097 104.59 175.592 104.675 176.029 104.846C176.466 105.005 176.838 105.234 177.147 105.533C177.456 105.82 177.69 106.161 177.85 106.555C178.021 106.949 178.106 107.375 178.106 107.833C178.106 108.004 178.079 108.195 178.026 108.408C177.983 108.611 177.925 108.776 177.85 108.904H172.147C172.221 109.671 172.498 110.262 172.977 110.677C173.457 111.082 174.085 111.284 174.863 111.284C175.363 111.284 175.8 111.21 176.173 111.061C176.556 110.901 176.924 110.677 177.275 110.39L177.786 111.364C176.966 112.067 175.954 112.419 174.751 112.419ZM174.591 105.724C174.005 105.724 173.483 105.911 173.025 106.284C172.578 106.646 172.285 107.157 172.147 107.817H176.764C176.774 107.785 176.78 107.732 176.78 107.658C176.78 107.082 176.599 106.619 176.237 106.268C175.874 105.905 175.326 105.724 174.591 105.724ZM187.32 112.419C186.585 112.419 185.914 112.307 185.307 112.083C184.699 111.859 184.098 111.487 183.501 110.965L184.092 109.878C184.668 110.347 185.211 110.688 185.722 110.901C186.233 111.103 186.766 111.204 187.32 111.204C188.14 111.204 188.773 111.039 189.221 110.709C189.668 110.368 189.892 109.889 189.892 109.271C189.892 108.845 189.753 108.494 189.476 108.217C189.21 107.929 188.816 107.732 188.294 107.626L186.457 107.274C185.53 107.104 184.859 106.784 184.444 106.316C184.028 105.836 183.821 105.272 183.821 104.622C183.821 104.185 183.895 103.775 184.044 103.392C184.194 102.998 184.417 102.657 184.715 102.369C185.024 102.082 185.408 101.853 185.866 101.682C186.324 101.512 186.856 101.427 187.463 101.427C188.102 101.427 188.715 101.523 189.301 101.714C189.886 101.895 190.446 102.21 190.978 102.657L190.387 103.743C189.929 103.402 189.471 103.136 189.013 102.945C188.555 102.742 188.049 102.641 187.495 102.641C186.75 102.641 186.185 102.806 185.802 103.136C185.418 103.456 185.227 103.892 185.227 104.446C185.227 104.872 185.36 105.208 185.626 105.453C185.903 105.687 186.302 105.858 186.824 105.964L188.662 106.316C189.12 106.401 189.514 106.534 189.844 106.715C190.174 106.896 190.446 107.114 190.659 107.37C190.882 107.626 191.042 107.908 191.138 108.217C191.244 108.515 191.298 108.824 191.298 109.143C191.298 109.633 191.207 110.081 191.026 110.485C190.856 110.879 190.6 111.22 190.259 111.508C189.929 111.795 189.514 112.019 189.013 112.179C188.523 112.339 187.959 112.419 187.32 112.419ZM198.276 112.419C197.445 112.419 196.695 112.285 196.024 112.019C195.353 111.742 194.783 111.359 194.314 110.869C193.856 110.379 193.499 109.798 193.244 109.127C192.999 108.456 192.876 107.721 192.876 106.923C192.876 106.124 192.999 105.389 193.244 104.718C193.499 104.047 193.856 103.466 194.314 102.976C194.783 102.487 195.353 102.108 196.024 101.842C196.695 101.565 197.445 101.427 198.276 101.427C199.107 101.427 199.858 101.565 200.529 101.842C201.2 102.108 201.764 102.487 202.222 102.976C202.691 103.466 203.048 104.047 203.293 104.718C203.548 105.389 203.676 106.124 203.676 106.923C203.676 107.721 203.548 108.456 203.293 109.127C203.048 109.798 202.691 110.379 202.222 110.869C201.764 111.359 201.2 111.742 200.529 112.019C199.858 112.285 199.107 112.419 198.276 112.419ZM198.276 111.204C198.894 111.204 199.448 111.103 199.938 110.901C200.428 110.688 200.843 110.395 201.184 110.022C201.535 109.649 201.802 109.202 201.983 108.68C202.174 108.148 202.27 107.562 202.27 106.923C202.27 106.284 202.174 105.703 201.983 105.181C201.802 104.649 201.535 104.196 201.184 103.823C200.843 103.45 200.428 103.163 199.938 102.96C199.448 102.747 198.894 102.641 198.276 102.641C197.658 102.641 197.105 102.747 196.615 102.96C196.125 103.163 195.704 103.45 195.353 103.823C195.012 104.196 194.745 104.649 194.554 105.181C194.373 105.703 194.282 106.284 194.282 106.923C194.282 107.562 194.373 108.148 194.554 108.68C194.745 109.202 195.012 109.649 195.353 110.022C195.704 110.395 196.125 110.688 196.615 110.901C197.105 111.103 197.658 111.204 198.276 111.204ZM205.742 112.259V101.587H207.116V111.045H212.228V112.259H205.742ZM217.953 112.259V104.75H219.247V112.259H217.953ZM218.592 103.088C218.358 103.088 218.166 103.019 218.017 102.881C217.868 102.731 217.793 102.545 217.793 102.321C217.793 102.098 217.868 101.917 218.017 101.778C218.166 101.64 218.358 101.571 218.592 101.571C218.837 101.571 219.034 101.64 219.183 101.778C219.332 101.917 219.407 102.098 219.407 102.321C219.407 102.545 219.332 102.731 219.183 102.881C219.034 103.019 218.837 103.088 218.592 103.088ZM226.984 112.259V107.785C226.984 107.061 226.835 106.539 226.537 106.22C226.249 105.89 225.802 105.724 225.195 105.724C224.492 105.724 223.948 105.969 223.565 106.459C223.182 106.939 222.99 107.594 222.99 108.424V112.259H221.696V104.75H222.942V105.932C223.166 105.517 223.496 105.192 223.932 104.958C224.369 104.713 224.896 104.59 225.514 104.59C226.377 104.59 227.053 104.835 227.543 105.325C228.033 105.815 228.278 106.587 228.278 107.642V112.259H226.984ZM233.332 112.419C232.756 112.419 232.224 112.333 231.734 112.163C231.244 111.982 230.765 111.721 230.296 111.38L230.887 110.326C231.345 110.645 231.766 110.885 232.149 111.045C232.543 111.204 232.943 111.284 233.348 111.284C234.54 111.284 235.137 110.917 235.137 110.182C235.137 109.884 235.046 109.665 234.865 109.527C234.695 109.378 234.386 109.261 233.939 109.175L232.581 108.92C231.217 108.664 230.536 108.009 230.536 106.955C230.536 106.635 230.594 106.332 230.711 106.044C230.839 105.756 231.02 105.506 231.255 105.293C231.5 105.08 231.803 104.91 232.165 104.782C232.527 104.654 232.948 104.59 233.427 104.59C233.971 104.59 234.477 104.675 234.945 104.846C235.425 105.005 235.851 105.224 236.223 105.501L235.648 106.523C235.329 106.289 234.988 106.097 234.626 105.948C234.264 105.799 233.88 105.724 233.475 105.724C232.975 105.724 232.581 105.815 232.293 105.996C232.006 106.166 231.862 106.438 231.862 106.811C231.862 107.056 231.947 107.248 232.117 107.386C232.288 107.524 232.575 107.631 232.98 107.705L234.338 107.961C235.02 108.089 235.542 108.313 235.904 108.632C236.277 108.952 236.463 109.426 236.463 110.054C236.463 110.746 236.197 111.316 235.664 111.764C235.132 112.2 234.354 112.419 233.332 112.419ZM241.515 112.355C240.77 112.355 240.211 112.179 239.838 111.827C239.476 111.465 239.295 110.906 239.295 110.15V105.868H237.617V104.75H239.295V102.609H240.589V104.75H242.57V105.868H240.589V110.054C240.589 110.842 240.977 111.236 241.755 111.236C241.883 111.236 242.027 111.231 242.186 111.22C242.346 111.21 242.474 111.194 242.57 111.172V112.227C242.453 112.269 242.293 112.301 242.09 112.323C241.899 112.344 241.707 112.355 241.515 112.355ZM246.803 112.419C245.94 112.419 245.253 112.222 244.742 111.827C244.231 111.433 243.975 110.885 243.975 110.182C243.975 109.479 244.231 108.946 244.742 108.584C245.264 108.222 245.951 107.982 246.803 107.865L249.519 107.53C249.455 106.912 249.232 106.459 248.848 106.172C248.475 105.874 247.996 105.724 247.41 105.724C246.686 105.724 245.898 106.033 245.046 106.651L244.518 105.661C244.913 105.33 245.355 105.069 245.845 104.878C246.345 104.686 246.867 104.59 247.41 104.59C248.539 104.59 249.391 104.851 249.966 105.373C250.542 105.895 250.829 106.667 250.829 107.69V112.259H249.583V111.093C249.306 111.54 248.928 111.875 248.449 112.099C247.969 112.312 247.421 112.419 246.803 112.419ZM247.043 111.284C247.448 111.284 247.804 111.22 248.113 111.093C248.433 110.965 248.694 110.794 248.896 110.581C249.109 110.358 249.269 110.107 249.375 109.83C249.482 109.553 249.535 109.266 249.535 108.968V108.6L247.139 108.904C246.542 108.989 246.084 109.117 245.765 109.287C245.456 109.458 245.301 109.745 245.301 110.15C245.301 110.512 245.456 110.794 245.765 110.997C246.074 111.188 246.5 111.284 247.043 111.284ZM258.555 112.259V107.785C258.555 107.061 258.406 106.539 258.108 106.22C257.82 105.89 257.373 105.724 256.766 105.724C256.063 105.724 255.519 105.969 255.136 106.459C254.753 106.939 254.561 107.594 254.561 108.424V112.259H253.267V104.75H254.513V105.932C254.737 105.517 255.067 105.192 255.503 104.958C255.94 104.713 256.467 104.59 257.085 104.59C257.948 104.59 258.624 104.835 259.114 105.325C259.604 105.815 259.849 106.587 259.849 107.642V112.259H258.555ZM265.069 112.355C264.323 112.355 263.764 112.179 263.391 111.827C263.029 111.465 262.848 110.906 262.848 110.15V105.868H261.17V104.75H262.848V102.609H264.142V104.75H266.123V105.868H264.142V110.054C264.142 110.842 264.531 111.236 265.308 111.236C265.436 111.236 265.58 111.231 265.74 111.22C265.899 111.21 266.027 111.194 266.123 111.172V112.227C266.006 112.269 265.846 112.301 265.644 112.323C265.452 112.344 265.26 112.355 265.069 112.355ZM267.96 112.259V101.587H269.254V112.259H267.96ZM272.198 115.262C271.889 115.262 271.58 115.22 271.271 115.135C270.973 115.06 270.707 114.953 270.473 114.815L270.856 113.793C271.325 114.027 271.745 114.144 272.118 114.144C272.47 114.144 272.794 114.016 273.093 113.761C273.402 113.505 273.71 113.063 274.019 112.435L270.888 104.75H272.278L274.658 110.901L277.039 104.75H278.429L275.361 112.259C275.116 112.855 274.866 113.345 274.61 113.729C274.365 114.123 274.11 114.432 273.844 114.655C273.577 114.879 273.306 115.033 273.029 115.119C272.762 115.214 272.486 115.262 272.198 115.262ZM287.894 112.419C287.255 112.419 286.696 112.291 286.216 112.035C285.737 111.769 285.38 111.423 285.146 110.997V112.259H283.9V101.587H285.194V105.932C285.439 105.527 285.796 105.203 286.264 104.958C286.733 104.713 287.276 104.59 287.894 104.59C288.416 104.59 288.895 104.681 289.332 104.862C289.768 105.043 290.147 105.304 290.466 105.645C290.786 105.985 291.036 106.395 291.217 106.875C291.398 107.354 291.489 107.897 291.489 108.504C291.489 109.111 291.398 109.655 291.217 110.134C291.036 110.613 290.786 111.023 290.466 111.364C290.147 111.705 289.768 111.966 289.332 112.147C288.895 112.328 288.416 112.419 287.894 112.419ZM287.654 111.284C288.389 111.284 288.991 111.039 289.46 110.549C289.928 110.049 290.163 109.367 290.163 108.504C290.163 107.642 289.928 106.965 289.46 106.475C288.991 105.975 288.389 105.724 287.654 105.724C286.919 105.724 286.318 105.975 285.849 106.475C285.38 106.965 285.146 107.642 285.146 108.504C285.146 109.367 285.38 110.049 285.849 110.549C286.318 111.039 286.919 111.284 287.654 111.284ZM293.754 115.262C293.445 115.262 293.137 115.22 292.828 115.135C292.529 115.06 292.263 114.953 292.029 114.815L292.412 113.793C292.881 114.027 293.302 114.144 293.674 114.144C294.026 114.144 294.351 114.016 294.649 113.761C294.958 113.505 295.267 113.063 295.576 112.435L292.444 104.75H293.834L296.215 110.901L298.595 104.75H299.985L296.918 112.259C296.673 112.855 296.422 113.345 296.167 113.729C295.922 114.123 295.666 114.432 295.4 114.655C295.134 114.879 294.862 115.033 294.585 115.119C294.319 115.214 294.042 115.262 293.754 115.262ZM315.186 112.259V107.785C315.186 107.061 315.042 106.539 314.754 106.22C314.467 105.89 314.051 105.724 313.508 105.724C312.89 105.724 312.417 105.969 312.086 106.459C311.767 106.939 311.607 107.594 311.607 108.424V112.259H310.313V107.785C310.313 107.061 310.169 106.539 309.882 106.22C309.594 105.89 309.184 105.724 308.651 105.724C308.023 105.724 307.549 105.969 307.229 106.459C306.91 106.939 306.75 107.594 306.75 108.424V112.259H305.456V104.75H306.702V105.804C306.915 105.421 307.208 105.123 307.581 104.91C307.964 104.697 308.428 104.59 308.971 104.59C309.525 104.59 309.993 104.713 310.377 104.958C310.76 105.192 311.043 105.522 311.224 105.948C311.458 105.501 311.793 105.165 312.23 104.942C312.677 104.707 313.189 104.59 313.764 104.59C314.595 104.59 315.255 104.835 315.745 105.325C316.235 105.815 316.48 106.587 316.48 107.642V112.259H315.186ZM321.315 112.419C320.453 112.419 319.766 112.222 319.254 111.827C318.743 111.433 318.487 110.885 318.487 110.182C318.487 109.479 318.743 108.946 319.254 108.584C319.776 108.222 320.463 107.982 321.315 107.865L324.031 107.53C323.967 106.912 323.744 106.459 323.36 106.172C322.987 105.874 322.508 105.724 321.922 105.724C321.198 105.724 320.41 106.033 319.558 106.651L319.031 105.661C319.425 105.33 319.867 105.069 320.357 104.878C320.857 104.686 321.379 104.59 321.922 104.59C323.051 104.59 323.903 104.851 324.479 105.373C325.054 105.895 325.341 106.667 325.341 107.69V112.259H324.095V111.093C323.818 111.54 323.44 111.875 322.961 112.099C322.482 112.312 321.933 112.419 321.315 112.419ZM321.555 111.284C321.96 111.284 322.316 111.22 322.625 111.093C322.945 110.965 323.206 110.794 323.408 110.581C323.621 110.358 323.781 110.107 323.887 109.83C323.994 109.553 324.047 109.266 324.047 108.968V108.6L321.651 108.904C321.054 108.989 320.596 109.117 320.277 109.287C319.968 109.458 319.813 109.745 319.813 110.15C319.813 110.512 319.968 110.794 320.277 110.997C320.586 111.188 321.012 111.284 321.555 111.284ZM327.779 112.259V104.75H329.025V106.124C329.217 105.645 329.499 105.282 329.872 105.037C330.255 104.782 330.687 104.654 331.166 104.654C331.315 104.654 331.448 104.665 331.565 104.686C331.693 104.697 331.794 104.718 331.869 104.75V105.964C331.592 105.9 331.315 105.868 331.038 105.868C330.474 105.868 330.005 106.113 329.632 106.603C329.259 107.082 329.073 107.759 329.073 108.632V112.259H327.779ZM338.821 112.259L336.153 108.712L334.875 109.942V112.259H333.581V101.587H334.875V108.456L338.661 104.75H340.259L337.064 107.833L340.419 112.259H338.821ZM344.91 112.419C344.346 112.419 343.824 112.333 343.344 112.163C342.865 111.982 342.45 111.726 342.098 111.396C341.747 111.066 341.47 110.661 341.267 110.182C341.076 109.692 340.98 109.133 340.98 108.504C340.98 107.908 341.076 107.37 341.267 106.891C341.459 106.401 341.72 105.985 342.05 105.645C342.391 105.304 342.785 105.043 343.233 104.862C343.691 104.681 344.181 104.59 344.702 104.59C345.256 104.59 345.752 104.675 346.188 104.846C346.625 105.005 346.998 105.234 347.307 105.533C347.615 105.82 347.85 106.161 348.01 106.555C348.18 106.949 348.265 107.375 348.265 107.833C348.265 108.004 348.239 108.195 348.185 108.408C348.143 108.611 348.084 108.776 348.01 108.904H342.306C342.381 109.671 342.657 110.262 343.137 110.677C343.616 111.082 344.244 111.284 345.022 111.284C345.523 111.284 345.959 111.21 346.332 111.061C346.715 110.901 347.083 110.677 347.434 110.39L347.946 111.364C347.126 112.067 346.114 112.419 344.91 112.419ZM344.75 105.724C344.165 105.724 343.643 105.911 343.185 106.284C342.737 106.646 342.444 107.157 342.306 107.817H346.923C346.934 107.785 346.939 107.732 346.939 107.658C346.939 107.082 346.758 106.619 346.396 106.268C346.034 105.905 345.485 105.724 344.75 105.724ZM353.307 112.355C352.561 112.355 352.002 112.179 351.629 111.827C351.267 111.465 351.086 110.906 351.086 110.15V105.868H349.409V104.75H351.086V102.609H352.38V104.75H354.361V105.868H352.38V110.054C352.38 110.842 352.769 111.236 353.547 111.236C353.674 111.236 353.818 111.231 353.978 111.22C354.138 111.21 354.265 111.194 354.361 111.172V112.227C354.244 112.269 354.084 112.301 353.882 112.323C353.69 112.344 353.499 112.355 353.307 112.355ZM364.013 112.419C363.395 112.419 362.852 112.296 362.383 112.051C361.915 111.806 361.558 111.481 361.313 111.077V115.167H360.019V104.75H361.265V106.012C361.499 105.586 361.856 105.245 362.335 104.989C362.815 104.723 363.374 104.59 364.013 104.59C364.535 104.59 365.014 104.681 365.451 104.862C365.888 105.043 366.266 105.304 366.585 105.645C366.905 105.985 367.155 106.395 367.336 106.875C367.517 107.354 367.608 107.897 367.608 108.504C367.608 109.111 367.517 109.655 367.336 110.134C367.155 110.613 366.905 111.023 366.585 111.364C366.266 111.705 365.888 111.966 365.451 112.147C365.014 112.328 364.535 112.419 364.013 112.419ZM363.773 111.284C364.508 111.284 365.11 111.039 365.579 110.549C366.047 110.049 366.282 109.367 366.282 108.504C366.282 107.642 366.047 106.965 365.579 106.475C365.11 105.975 364.508 105.724 363.773 105.724C363.038 105.724 362.437 105.975 361.968 106.475C361.499 106.965 361.265 107.642 361.265 108.504C361.265 109.367 361.499 110.049 361.968 110.549C362.437 111.039 363.038 111.284 363.773 111.284ZM369.643 112.259V104.75H370.89V106.124C371.081 105.645 371.364 105.282 371.736 105.037C372.12 104.782 372.551 104.654 373.03 104.654C373.18 104.654 373.313 104.665 373.43 104.686C373.558 104.697 373.659 104.718 373.733 104.75V105.964C373.457 105.9 373.18 105.868 372.903 105.868C372.338 105.868 371.87 106.113 371.497 106.603C371.124 107.082 370.938 107.759 370.938 108.632V112.259H369.643ZM375.446 112.259V104.75H376.74V112.259H375.446ZM376.085 103.088C375.85 103.088 375.659 103.019 375.509 102.881C375.36 102.731 375.286 102.545 375.286 102.321C375.286 102.098 375.36 101.917 375.509 101.778C375.659 101.64 375.85 101.571 376.085 101.571C376.33 101.571 376.527 101.64 376.676 101.778C376.825 101.917 376.899 102.098 376.899 102.321C376.899 102.545 376.825 102.731 376.676 102.881C376.527 103.019 376.33 103.088 376.085 103.088ZM382.639 112.419C382.064 112.419 381.537 112.328 381.057 112.147C380.589 111.955 380.184 111.689 379.843 111.348C379.502 111.007 379.236 110.597 379.044 110.118C378.853 109.639 378.757 109.101 378.757 108.504C378.757 107.908 378.853 107.37 379.044 106.891C379.236 106.411 379.502 106.001 379.843 105.661C380.184 105.32 380.589 105.059 381.057 104.878C381.537 104.686 382.064 104.59 382.639 104.59C383.182 104.59 383.672 104.67 384.109 104.83C384.556 104.989 384.95 105.218 385.291 105.517L384.796 106.491C384.455 106.225 384.098 106.033 383.725 105.916C383.353 105.788 382.991 105.724 382.639 105.724C382.256 105.724 381.904 105.788 381.585 105.916C381.276 106.044 381.009 106.23 380.786 106.475C380.562 106.71 380.386 107.003 380.259 107.354C380.141 107.695 380.083 108.078 380.083 108.504C380.083 108.941 380.141 109.33 380.259 109.671C380.386 110.011 380.562 110.304 380.786 110.549C381.009 110.784 381.276 110.965 381.585 111.093C381.904 111.22 382.256 111.284 382.639 111.284C382.991 111.284 383.353 111.226 383.725 111.108C384.098 110.981 384.455 110.784 384.796 110.517L385.291 111.492C384.95 111.79 384.556 112.019 384.109 112.179C383.672 112.339 383.182 112.419 382.639 112.419ZM390.72 112.419C390.156 112.419 389.634 112.333 389.154 112.163C388.675 111.982 388.26 111.726 387.908 111.396C387.557 111.066 387.28 110.661 387.078 110.182C386.886 109.692 386.79 109.133 386.79 108.504C386.79 107.908 386.886 107.37 387.078 106.891C387.269 106.401 387.53 105.985 387.86 105.645C388.201 105.304 388.595 105.043 389.043 104.862C389.501 104.681 389.991 104.59 390.512 104.59C391.066 104.59 391.562 104.675 391.998 104.846C392.435 105.005 392.808 105.234 393.117 105.533C393.426 105.82 393.66 106.161 393.82 106.555C393.99 106.949 394.075 107.375 394.075 107.833C394.075 108.004 394.049 108.195 393.995 108.408C393.953 108.611 393.894 108.776 393.82 108.904H388.116C388.191 109.671 388.467 110.262 388.947 110.677C389.426 111.082 390.054 111.284 390.832 111.284C391.333 111.284 391.769 111.21 392.142 111.061C392.525 110.901 392.893 110.677 393.244 110.39L393.756 111.364C392.936 112.067 391.924 112.419 390.72 112.419ZM390.56 105.724C389.975 105.724 389.453 105.911 388.995 106.284C388.547 106.646 388.254 107.157 388.116 107.817H392.733C392.744 107.785 392.749 107.732 392.749 107.658C392.749 107.082 392.568 106.619 392.206 106.268C391.844 105.905 391.295 105.724 390.56 105.724Z" fill="#778A96"/>
<path d="M104 159.879C104 152.554 104 148.892 105.425 146.094C106.679 143.633 108.68 141.633 111.141 140.379C113.939 138.953 117.601 138.953 124.926 138.953H468.18C475.505 138.953 479.167 138.953 481.965 140.379C484.426 141.633 486.427 143.633 487.68 146.094C489.106 148.892 489.106 152.554 489.106 159.879V193.98C489.106 201.305 489.106 204.967 487.68 207.765C486.427 210.226 484.426 212.227 481.965 213.481C479.167 214.906 475.505 214.906 468.18 214.906H124.926C117.601 214.906 113.939 214.906 111.141 213.481C108.68 212.227 106.679 210.226 105.425 207.765C104 204.967 104 201.305 104 193.98V159.879Z" fill="#EDF3F7"/>
<path d="M134.401 163.549C134.401 165.57 133.847 167.091 132.739 168.114C131.632 169.136 130.025 169.647 127.919 169.647H123.628V157.451H127.919C130.025 157.451 131.632 157.962 132.739 158.984C133.847 160.007 134.401 161.528 134.401 163.549ZM132.265 163.549C132.265 162.113 131.918 161.035 131.224 160.317C130.53 159.599 129.398 159.24 127.828 159.24H125.728V167.858H127.828C129.398 167.858 130.53 167.505 131.224 166.799C131.918 166.081 132.265 164.998 132.265 163.549ZM140.608 169.83C139.951 169.83 139.336 169.733 138.764 169.538C138.204 169.343 137.711 169.063 137.285 168.698C136.871 168.321 136.543 167.852 136.299 167.292C136.068 166.732 135.952 166.087 135.952 165.357C135.952 164.675 136.062 164.06 136.281 163.512C136.512 162.953 136.823 162.478 137.212 162.088C137.614 161.699 138.076 161.401 138.6 161.194C139.135 160.987 139.714 160.883 140.334 160.883C140.967 160.883 141.539 160.981 142.051 161.175C142.574 161.358 143.018 161.614 143.384 161.942C143.749 162.271 144.029 162.667 144.223 163.129C144.43 163.579 144.534 164.072 144.534 164.608C144.534 164.815 144.503 165.046 144.443 165.302C144.394 165.545 144.321 165.746 144.223 165.904H137.961C138.046 166.647 138.338 167.213 138.837 167.602C139.336 167.98 139.987 168.168 140.791 168.168C141.339 168.168 141.825 168.089 142.251 167.931C142.69 167.761 143.11 167.529 143.511 167.237L144.169 168.661C143.183 169.441 141.996 169.83 140.608 169.83ZM140.389 162.49C139.793 162.49 139.269 162.667 138.819 163.02C138.381 163.373 138.095 163.859 137.961 164.48H142.489C142.513 164.407 142.525 164.346 142.525 164.298C142.525 163.762 142.349 163.33 141.996 163.001C141.643 162.66 141.107 162.49 140.389 162.49ZM146.534 169.647V157.451H148.506V169.647H146.534ZM153.693 169.83C153.23 169.83 152.804 169.775 152.415 169.666C152.025 169.556 151.69 169.392 151.41 169.173C151.13 168.954 150.911 168.686 150.753 168.369C150.595 168.041 150.516 167.669 150.516 167.256C150.516 166.842 150.595 166.483 150.753 166.178C150.911 165.874 151.13 165.618 151.41 165.411C151.69 165.192 152.025 165.022 152.415 164.9C152.804 164.766 153.23 164.669 153.693 164.608L156.632 164.243C156.559 163.659 156.328 163.233 155.939 162.965C155.549 162.697 155.074 162.563 154.514 162.563C154.101 162.563 153.675 162.642 153.236 162.8C152.81 162.946 152.342 163.19 151.83 163.531L151.137 162.07C151.648 161.693 152.196 161.401 152.78 161.194C153.364 160.987 153.967 160.883 154.587 160.883C155.914 160.883 156.919 161.181 157.6 161.778C158.294 162.362 158.641 163.245 158.641 164.425V169.647H156.742V168.497C156.097 169.386 155.08 169.83 153.693 169.83ZM154.222 168.223C154.612 168.223 154.959 168.162 155.263 168.041C155.567 167.919 155.823 167.755 156.03 167.548C156.237 167.341 156.395 167.109 156.505 166.854C156.614 166.586 156.669 166.306 156.669 166.014V165.667L154.295 165.977C153.711 166.063 153.267 166.19 152.962 166.361C152.67 166.531 152.524 166.799 152.524 167.164C152.524 167.505 152.67 167.767 152.962 167.949C153.267 168.132 153.687 168.223 154.222 168.223ZM161.351 173.08C160.973 173.08 160.59 173.031 160.2 172.934C159.823 172.849 159.494 172.727 159.215 172.569L159.762 171.053C160.006 171.163 160.249 171.248 160.493 171.309C160.736 171.382 160.973 171.419 161.205 171.419C161.594 171.419 161.941 171.315 162.245 171.108C162.55 170.913 162.836 170.573 163.104 170.086L159.561 161.066H161.679L164.035 167.767L166.39 161.066H168.508L165.13 169.647C164.875 170.305 164.601 170.853 164.309 171.291C164.017 171.729 163.712 172.082 163.396 172.35C163.079 172.618 162.751 172.806 162.41 172.916C162.069 173.025 161.716 173.08 161.351 173.08ZM173.961 169.83C173.304 169.83 172.689 169.733 172.117 169.538C171.557 169.343 171.064 169.063 170.638 168.698C170.224 168.321 169.896 167.852 169.652 167.292C169.421 166.732 169.305 166.087 169.305 165.357C169.305 164.675 169.415 164.06 169.634 163.512C169.865 162.953 170.176 162.478 170.565 162.088C170.967 161.699 171.429 161.401 171.953 161.194C172.488 160.987 173.067 160.883 173.687 160.883C174.32 160.883 174.892 160.981 175.404 161.175C175.927 161.358 176.371 161.614 176.737 161.942C177.102 162.271 177.382 162.667 177.576 163.129C177.783 163.579 177.887 164.072 177.887 164.608C177.887 164.815 177.856 165.046 177.796 165.302C177.747 165.545 177.674 165.746 177.576 165.904H171.314C171.399 166.647 171.691 167.213 172.19 167.602C172.689 167.98 173.34 168.168 174.144 168.168C174.692 168.168 175.178 168.089 175.605 167.931C176.043 167.761 176.463 167.529 176.864 167.237L177.522 168.661C176.536 169.441 175.349 169.83 173.961 169.83ZM173.742 162.49C173.146 162.49 172.622 162.667 172.172 163.02C171.734 163.373 171.448 163.859 171.314 164.48H175.842C175.866 164.407 175.878 164.346 175.878 164.298C175.878 163.762 175.702 163.33 175.349 163.001C174.996 162.66 174.46 162.49 173.742 162.49ZM183.539 169.83C182.955 169.83 182.413 169.727 181.914 169.52C181.415 169.313 180.977 169.021 180.6 168.643C180.234 168.254 179.948 167.785 179.741 167.237C179.534 166.677 179.431 166.05 179.431 165.357C179.431 164.663 179.534 164.042 179.741 163.494C179.948 162.934 180.234 162.466 180.6 162.088C180.977 161.699 181.415 161.401 181.914 161.194C182.413 160.987 182.955 160.883 183.539 160.883C184.197 160.883 184.769 161.005 185.256 161.248C185.742 161.492 186.126 161.814 186.406 162.216V157.451H188.378V169.647H186.497V168.369C186.229 168.808 185.84 169.161 185.329 169.428C184.83 169.696 184.233 169.83 183.539 169.83ZM183.977 168.114C184.708 168.114 185.304 167.87 185.767 167.383C186.242 166.884 186.479 166.209 186.479 165.357C186.479 164.505 186.242 163.835 185.767 163.348C185.304 162.849 184.708 162.6 183.977 162.6C183.235 162.6 182.626 162.849 182.152 163.348C181.689 163.835 181.458 164.505 181.458 165.357C181.458 166.209 181.689 166.884 182.152 167.383C182.626 167.87 183.235 168.114 183.977 168.114ZM194.819 165.211C194.819 164.298 194.91 163.385 195.093 162.472C195.276 161.547 195.519 160.682 195.823 159.879C196.128 159.063 196.481 158.333 196.882 157.688C197.296 157.043 197.734 156.538 198.197 156.172H199.694C199.292 156.586 198.915 157.122 198.562 157.779C198.209 158.424 197.893 159.149 197.613 159.952C197.345 160.743 197.132 161.589 196.974 162.49C196.815 163.391 196.736 164.298 196.736 165.211C196.736 166.124 196.815 167.03 196.974 167.931C197.132 168.832 197.345 169.678 197.613 170.469C197.893 171.272 198.209 171.997 198.562 172.642C198.915 173.299 199.292 173.835 199.694 174.249H198.197C197.734 173.884 197.296 173.378 196.882 172.733C196.481 172.088 196.128 171.358 195.823 170.542C195.519 169.739 195.276 168.881 195.093 167.968C194.91 167.043 194.819 166.124 194.819 165.211ZM207.12 165.174C206.731 165.174 206.371 165.095 206.043 164.937C205.726 164.766 205.428 164.584 205.148 164.389C204.88 164.182 204.625 163.993 204.381 163.823C204.15 163.652 203.919 163.567 203.687 163.567C203.395 163.567 203.188 163.701 203.067 163.969C202.957 164.225 202.872 164.626 202.811 165.174H201.314C201.314 164.139 201.496 163.342 201.862 162.782C202.227 162.21 202.799 161.924 203.578 161.924C203.967 161.924 204.32 162.009 204.637 162.18C204.966 162.35 205.264 162.539 205.532 162.746C205.812 162.94 206.067 163.123 206.298 163.293C206.542 163.452 206.779 163.531 207.011 163.531C207.303 163.531 207.504 163.403 207.613 163.147C207.735 162.88 207.826 162.472 207.887 161.924H209.384C209.384 162.959 209.202 163.762 208.836 164.334C208.471 164.894 207.899 165.174 207.12 165.174ZM210.84 169.647V167.931L215.935 163.184C216.3 162.831 216.568 162.484 216.738 162.143C216.908 161.802 216.994 161.474 216.994 161.157C216.994 160.5 216.787 159.976 216.373 159.587C215.959 159.185 215.411 158.984 214.73 158.984C214.243 158.984 213.756 159.106 213.269 159.349C212.794 159.581 212.234 159.928 211.589 160.39L210.84 158.893C211.486 158.333 212.125 157.925 212.758 157.67C213.403 157.402 214.091 157.268 214.821 157.268C215.454 157.268 216.032 157.359 216.555 157.542C217.079 157.712 217.529 157.968 217.907 158.309C218.296 158.65 218.594 159.063 218.801 159.55C219.02 160.025 219.13 160.561 219.13 161.157C219.13 161.705 218.984 162.24 218.692 162.764C218.4 163.287 217.894 163.872 217.176 164.517L213.506 167.931H219.313V169.647H210.84ZM225.899 169.83C225.071 169.83 224.341 169.678 223.708 169.374C223.087 169.057 222.563 168.619 222.137 168.059C221.711 167.499 221.389 166.836 221.17 166.069C220.963 165.302 220.859 164.462 220.859 163.549C220.859 162.636 220.963 161.796 221.17 161.029C221.389 160.262 221.711 159.599 222.137 159.039C222.563 158.479 223.087 158.047 223.708 157.743C224.341 157.426 225.071 157.268 225.899 157.268C226.726 157.268 227.451 157.426 228.072 157.743C228.704 158.047 229.234 158.479 229.66 159.039C230.086 159.599 230.403 160.262 230.61 161.029C230.829 161.796 230.938 162.636 230.938 163.549C230.938 164.462 230.829 165.302 230.61 166.069C230.403 166.836 230.086 167.499 229.66 168.059C229.234 168.619 228.704 169.057 228.072 169.374C227.451 169.678 226.726 169.83 225.899 169.83ZM225.899 168.114C226.325 168.114 226.714 168.022 227.067 167.84C227.432 167.657 227.743 167.377 227.998 167C228.254 166.623 228.449 166.148 228.583 165.576C228.729 165.004 228.802 164.328 228.802 163.549C228.802 162.77 228.729 162.094 228.583 161.522C228.449 160.95 228.254 160.475 227.998 160.098C227.743 159.721 227.432 159.441 227.067 159.258C226.714 159.076 226.325 158.984 225.899 158.984C225.034 158.984 224.335 159.362 223.799 160.116C223.263 160.859 222.996 162.003 222.996 163.549C222.996 164.328 223.063 165.004 223.196 165.576C223.342 166.148 223.543 166.623 223.799 167C224.055 167.377 224.359 167.657 224.712 167.84C225.077 168.022 225.473 168.114 225.899 168.114ZM243.06 169.647V164.608C243.06 163.914 242.914 163.409 242.622 163.093C242.342 162.764 241.91 162.6 241.326 162.6C240.644 162.6 240.108 162.831 239.719 163.293C239.342 163.756 239.153 164.401 239.153 165.229V169.647H237.181V157.451H239.153V162.143C239.421 161.754 239.78 161.449 240.23 161.23C240.693 160.999 241.247 160.883 241.892 160.883C242.878 160.883 243.645 161.163 244.192 161.723C244.752 162.283 245.032 163.153 245.032 164.334V169.647H243.06ZM251.611 169.83C250.942 169.83 250.327 169.727 249.767 169.52C249.207 169.301 248.726 168.996 248.325 168.607C247.923 168.217 247.606 167.749 247.375 167.201C247.156 166.653 247.046 166.038 247.046 165.357C247.046 164.687 247.156 164.079 247.375 163.531C247.606 162.971 247.923 162.496 248.325 162.107C248.726 161.717 249.207 161.419 249.767 161.212C250.327 160.993 250.942 160.883 251.611 160.883C252.281 160.883 252.895 160.993 253.455 161.212C254.015 161.419 254.496 161.717 254.898 162.107C255.299 162.496 255.61 162.971 255.829 163.531C256.06 164.079 256.176 164.687 256.176 165.357C256.176 166.038 256.06 166.653 255.829 167.201C255.61 167.749 255.299 168.217 254.898 168.607C254.496 168.996 254.015 169.301 253.455 169.52C252.895 169.727 252.281 169.83 251.611 169.83ZM251.611 168.114C252.378 168.114 252.993 167.87 253.455 167.383C253.93 166.884 254.167 166.209 254.167 165.357C254.167 164.505 253.93 163.835 253.455 163.348C252.993 162.849 252.378 162.6 251.611 162.6C250.844 162.6 250.223 162.849 249.749 163.348C249.286 163.835 249.055 164.505 249.055 165.357C249.055 166.209 249.286 166.884 249.749 167.383C250.223 167.87 250.844 168.114 251.611 168.114ZM261.322 169.83C260.336 169.83 259.563 169.55 259.003 168.99C258.455 168.43 258.181 167.56 258.181 166.379V161.066H260.153V166.105C260.153 166.799 260.293 167.31 260.573 167.639C260.866 167.955 261.304 168.114 261.888 168.114C262.57 168.114 263.099 167.882 263.477 167.42C263.866 166.957 264.061 166.312 264.061 165.484V161.066H266.033V169.647H264.134V168.442C263.878 168.868 263.513 169.209 263.038 169.465C262.576 169.708 262.004 169.83 261.322 169.83ZM268.503 169.647V161.066H270.402V162.508C270.634 161.985 270.95 161.595 271.352 161.34C271.766 161.084 272.228 160.956 272.739 160.956C272.898 160.956 273.044 160.968 273.178 160.993C273.324 161.005 273.433 161.029 273.506 161.066V162.946C273.336 162.91 273.166 162.88 272.995 162.855C272.837 162.831 272.673 162.819 272.502 162.819C271.918 162.819 271.431 163.05 271.041 163.512C270.664 163.975 270.475 164.638 270.475 165.503V169.647H268.503ZM278.363 169.83C277.706 169.83 277.085 169.733 276.501 169.538C275.916 169.343 275.35 169.057 274.803 168.68L275.57 167.183C276.641 167.889 277.584 168.242 278.4 168.242C279.532 168.242 280.098 167.907 280.098 167.237C280.098 166.957 280.006 166.75 279.824 166.616C279.653 166.47 279.343 166.361 278.893 166.288L277.542 166.032C275.898 165.728 275.077 164.949 275.077 163.695C275.077 163.318 275.144 162.959 275.277 162.618C275.423 162.277 275.637 161.979 275.916 161.723C276.209 161.468 276.574 161.267 277.012 161.121C277.45 160.962 277.961 160.883 278.546 160.883C279.167 160.883 279.757 160.975 280.317 161.157C280.877 161.328 281.382 161.571 281.832 161.887L281.102 163.33C280.712 163.086 280.305 162.886 279.879 162.727C279.465 162.557 279.045 162.472 278.619 162.472C278.144 162.472 277.767 162.551 277.487 162.709C277.219 162.867 277.085 163.117 277.085 163.458C277.085 163.677 277.17 163.853 277.341 163.987C277.511 164.109 277.797 164.206 278.199 164.279L279.55 164.535C280.378 164.693 281.011 164.967 281.449 165.357C281.887 165.746 282.106 166.3 282.106 167.018C282.106 167.834 281.79 168.509 281.157 169.045C280.524 169.568 279.593 169.83 278.363 169.83ZM288.172 165.211C288.172 166.124 288.081 167.043 287.899 167.968C287.716 168.881 287.473 169.739 287.168 170.542C286.864 171.358 286.505 172.088 286.091 172.733C285.677 173.378 285.245 173.884 284.795 174.249H283.279C283.681 173.835 284.058 173.299 284.411 172.642C284.776 171.997 285.093 171.272 285.361 170.469C285.628 169.678 285.841 168.832 286 167.931C286.158 167.03 286.237 166.124 286.237 165.211C286.237 164.298 286.158 163.391 286 162.49C285.841 161.589 285.628 160.743 285.361 159.952C285.093 159.149 284.776 158.424 284.411 157.779C284.058 157.122 283.681 156.586 283.279 156.172H284.795C285.245 156.538 285.677 157.043 286.091 157.688C286.505 158.333 286.864 159.063 287.168 159.879C287.473 160.682 287.716 161.547 287.899 162.472C288.081 163.385 288.172 164.298 288.172 165.211Z" fill="#151A1A"/>
<path d="M133.986 196.212V186.946L130.071 196.212H128.857L124.943 186.946V196.212H123.569V185.54H125.726L129.464 194.518L133.203 185.54H135.359V196.212H133.986ZM140.269 196.372C139.407 196.372 138.72 196.175 138.208 195.781C137.697 195.386 137.442 194.838 137.442 194.135C137.442 193.432 137.697 192.899 138.208 192.537C138.73 192.175 139.417 191.936 140.269 191.818L142.985 191.483C142.921 190.865 142.698 190.412 142.314 190.125C141.942 189.827 141.462 189.678 140.876 189.678C140.152 189.678 139.364 189.986 138.512 190.604L137.985 189.614C138.379 189.283 138.821 189.023 139.311 188.831C139.811 188.639 140.333 188.543 140.876 188.543C142.005 188.543 142.858 188.804 143.433 189.326C144.008 189.848 144.295 190.62 144.295 191.643V196.212H143.049V195.046C142.772 195.493 142.394 195.828 141.915 196.052C141.436 196.265 140.887 196.372 140.269 196.372ZM140.509 195.237C140.914 195.237 141.271 195.173 141.579 195.046C141.899 194.918 142.16 194.747 142.362 194.534C142.575 194.311 142.735 194.06 142.842 193.783C142.948 193.507 143.001 193.219 143.001 192.921V192.553L140.605 192.857C140.008 192.942 139.55 193.07 139.231 193.24C138.922 193.411 138.768 193.698 138.768 194.103C138.768 194.465 138.922 194.747 139.231 194.95C139.54 195.141 139.966 195.237 140.509 195.237ZM152.021 196.212V191.739C152.021 191.014 151.872 190.492 151.574 190.173C151.286 189.843 150.839 189.678 150.232 189.678C149.529 189.678 148.986 189.923 148.602 190.412C148.219 190.892 148.027 191.547 148.027 192.378V196.212H146.733V188.703H147.979V189.885C148.203 189.47 148.533 189.145 148.97 188.911C149.406 188.666 149.934 188.543 150.551 188.543C151.414 188.543 152.09 188.788 152.58 189.278C153.07 189.768 153.315 190.54 153.315 191.595V196.212H152.021ZM158.529 196.372C157.666 196.372 156.99 196.127 156.5 195.637C156.01 195.147 155.765 194.375 155.765 193.32V188.703H157.059V193.176C157.059 193.901 157.203 194.428 157.49 194.758C157.788 195.078 158.241 195.237 158.848 195.237C159.551 195.237 160.094 194.998 160.478 194.518C160.861 194.028 161.053 193.368 161.053 192.537V188.703H162.347V196.212H161.101V195.03C160.877 195.445 160.547 195.775 160.11 196.02C159.674 196.255 159.146 196.372 158.529 196.372ZM167.193 196.372C166.33 196.372 165.643 196.175 165.132 195.781C164.621 195.386 164.365 194.838 164.365 194.135C164.365 193.432 164.621 192.899 165.132 192.537C165.654 192.175 166.341 191.936 167.193 191.818L169.909 191.483C169.845 190.865 169.621 190.412 169.238 190.125C168.865 189.827 168.386 189.678 167.8 189.678C167.076 189.678 166.288 189.986 165.435 190.604L164.908 189.614C165.302 189.283 165.744 189.023 166.234 188.831C166.735 188.639 167.257 188.543 167.8 188.543C168.929 188.543 169.781 188.804 170.356 189.326C170.931 189.848 171.219 190.62 171.219 191.643V196.212H169.973V195.046C169.696 195.493 169.318 195.828 168.838 196.052C168.359 196.265 167.811 196.372 167.193 196.372ZM167.433 195.237C167.837 195.237 168.194 195.173 168.503 195.046C168.822 194.918 169.083 194.747 169.286 194.534C169.499 194.311 169.659 194.06 169.765 193.783C169.872 193.507 169.925 193.219 169.925 192.921V192.553L167.528 192.857C166.932 192.942 166.474 193.07 166.154 193.24C165.846 193.411 165.691 193.698 165.691 194.103C165.691 194.465 165.846 194.747 166.154 194.95C166.463 195.141 166.889 195.237 167.433 195.237ZM173.656 196.212V185.54H174.951V196.212H173.656ZM177.399 196.212V185.54H178.693V196.212H177.399ZM181.637 199.215C181.328 199.215 181.019 199.173 180.71 199.088C180.412 199.013 180.146 198.907 179.912 198.768L180.295 197.746C180.764 197.98 181.184 198.097 181.557 198.097C181.909 198.097 182.233 197.969 182.532 197.714C182.841 197.458 183.149 197.016 183.458 196.388L180.327 188.703H181.717L184.097 194.854L186.478 188.703H187.868L184.8 196.212C184.555 196.808 184.305 197.298 184.049 197.682C183.804 198.076 183.549 198.385 183.283 198.608C183.016 198.832 182.745 198.986 182.468 199.072C182.201 199.168 181.925 199.215 181.637 199.215ZM196.79 196.372C196.214 196.372 195.687 196.281 195.208 196.1C194.739 195.908 194.335 195.642 193.994 195.301C193.653 194.96 193.387 194.55 193.195 194.071C193.003 193.592 192.907 193.054 192.907 192.457C192.907 191.861 193.003 191.323 193.195 190.844C193.387 190.365 193.653 189.954 193.994 189.614C194.335 189.273 194.739 189.012 195.208 188.831C195.687 188.639 196.214 188.543 196.79 188.543C197.333 188.543 197.823 188.623 198.259 188.783C198.707 188.943 199.101 189.172 199.442 189.47L198.946 190.444C198.606 190.178 198.249 189.986 197.876 189.869C197.503 189.741 197.141 189.678 196.79 189.678C196.406 189.678 196.055 189.741 195.735 189.869C195.426 189.997 195.16 190.183 194.936 190.428C194.713 190.663 194.537 190.956 194.409 191.307C194.292 191.648 194.233 192.031 194.233 192.457C194.233 192.894 194.292 193.283 194.409 193.624C194.537 193.965 194.713 194.257 194.936 194.502C195.16 194.737 195.426 194.918 195.735 195.046C196.055 195.173 196.406 195.237 196.79 195.237C197.141 195.237 197.503 195.179 197.876 195.062C198.249 194.934 198.606 194.737 198.946 194.47L199.442 195.445C199.101 195.743 198.707 195.972 198.259 196.132C197.823 196.292 197.333 196.372 196.79 196.372ZM201.372 196.212V185.54H202.666V196.212H201.372ZM207.511 196.372C206.648 196.372 205.961 196.175 205.45 195.781C204.939 195.386 204.683 194.838 204.683 194.135C204.683 193.432 204.939 192.899 205.45 192.537C205.972 192.175 206.659 191.936 207.511 191.818L210.227 191.483C210.163 190.865 209.939 190.412 209.556 190.125C209.183 189.827 208.704 189.678 208.118 189.678C207.394 189.678 206.606 189.986 205.754 190.604L205.226 189.614C205.62 189.283 206.062 189.023 206.552 188.831C207.053 188.639 207.575 188.543 208.118 188.543C209.247 188.543 210.099 188.804 210.674 189.326C211.249 189.848 211.537 190.62 211.537 191.643V196.212H210.291V195.046C210.014 195.493 209.636 195.828 209.157 196.052C208.677 196.265 208.129 196.372 207.511 196.372ZM207.751 195.237C208.155 195.237 208.512 195.173 208.821 195.046C209.141 194.918 209.402 194.747 209.604 194.534C209.817 194.311 209.977 194.06 210.083 193.783C210.19 193.507 210.243 193.219 210.243 192.921V192.553L207.846 192.857C207.25 192.942 206.792 193.07 206.473 193.24C206.164 193.411 206.009 193.698 206.009 194.103C206.009 194.465 206.164 194.747 206.473 194.95C206.781 195.141 207.207 195.237 207.751 195.237ZM213.975 196.212V188.703H215.269V196.212H213.975ZM214.614 187.041C214.379 187.041 214.188 186.972 214.038 186.834C213.889 186.685 213.815 186.498 213.815 186.275C213.815 186.051 213.889 185.87 214.038 185.731C214.188 185.593 214.379 185.524 214.614 185.524C214.859 185.524 215.056 185.593 215.205 185.731C215.354 185.87 215.428 186.051 215.428 186.275C215.428 186.498 215.354 186.685 215.205 186.834C215.056 186.972 214.859 187.041 214.614 187.041ZM227.447 196.212V191.739C227.447 191.014 227.303 190.492 227.016 190.173C226.728 189.843 226.313 189.678 225.769 189.678C225.152 189.678 224.678 189.923 224.347 190.412C224.028 190.892 223.868 191.547 223.868 192.378V196.212H222.574V191.739C222.574 191.014 222.43 190.492 222.143 190.173C221.855 189.843 221.445 189.678 220.912 189.678C220.284 189.678 219.81 189.923 219.491 190.412C219.171 190.892 219.011 191.547 219.011 192.378V196.212H217.717V188.703H218.963V189.757C219.176 189.374 219.469 189.076 219.842 188.863C220.226 188.65 220.689 188.543 221.232 188.543C221.786 188.543 222.255 188.666 222.638 188.911C223.021 189.145 223.304 189.475 223.485 189.901C223.719 189.454 224.055 189.118 224.491 188.895C224.939 188.66 225.45 188.543 226.025 188.543C226.856 188.543 227.516 188.788 228.006 189.278C228.496 189.768 228.741 190.54 228.741 191.595V196.212H227.447ZM238.388 196.372C237.653 196.372 236.982 196.26 236.374 196.036C235.767 195.813 235.166 195.44 234.569 194.918L235.16 193.831C235.735 194.3 236.279 194.641 236.79 194.854C237.301 195.056 237.834 195.157 238.388 195.157C239.208 195.157 239.841 194.992 240.289 194.662C240.736 194.321 240.96 193.842 240.96 193.224C240.96 192.798 240.821 192.447 240.544 192.17C240.278 191.882 239.884 191.685 239.362 191.579L237.525 191.227C236.598 191.057 235.927 190.737 235.512 190.269C235.096 189.789 234.889 189.225 234.889 188.575C234.889 188.138 234.963 187.728 235.112 187.345C235.261 186.951 235.485 186.61 235.783 186.322C236.092 186.035 236.476 185.806 236.934 185.635C237.392 185.465 237.924 185.38 238.531 185.38C239.17 185.38 239.783 185.476 240.369 185.667C240.954 185.849 241.514 186.163 242.046 186.61L241.455 187.696C240.997 187.356 240.539 187.089 240.081 186.898C239.623 186.695 239.117 186.594 238.563 186.594C237.818 186.594 237.253 186.759 236.87 187.089C236.486 187.409 236.295 187.846 236.295 188.399C236.295 188.825 236.428 189.161 236.694 189.406C236.971 189.64 237.37 189.811 237.892 189.917L239.73 190.269C240.188 190.354 240.582 190.487 240.912 190.668C241.242 190.849 241.514 191.067 241.727 191.323C241.95 191.579 242.11 191.861 242.206 192.17C242.312 192.468 242.366 192.777 242.366 193.097C242.366 193.586 242.275 194.034 242.094 194.439C241.924 194.833 241.668 195.173 241.327 195.461C240.997 195.749 240.582 195.972 240.081 196.132C239.591 196.292 239.027 196.372 238.388 196.372ZM249.344 196.372C248.513 196.372 247.762 196.239 247.091 195.972C246.42 195.695 245.851 195.312 245.382 194.822C244.924 194.332 244.567 193.752 244.312 193.081C244.067 192.41 243.944 191.675 243.944 190.876C243.944 190.077 244.067 189.342 244.312 188.671C244.567 188 244.924 187.42 245.382 186.93C245.851 186.44 246.42 186.062 247.091 185.795C247.762 185.518 248.513 185.38 249.344 185.38C250.175 185.38 250.926 185.518 251.597 185.795C252.268 186.062 252.832 186.44 253.29 186.93C253.759 187.42 254.116 188 254.361 188.671C254.616 189.342 254.744 190.077 254.744 190.876C254.744 191.675 254.616 192.41 254.361 193.081C254.116 193.752 253.759 194.332 253.29 194.822C252.832 195.312 252.268 195.695 251.597 195.972C250.926 196.239 250.175 196.372 249.344 196.372ZM249.344 195.157C249.962 195.157 250.516 195.056 251.006 194.854C251.496 194.641 251.911 194.348 252.252 193.975C252.603 193.602 252.87 193.155 253.051 192.633C253.242 192.101 253.338 191.515 253.338 190.876C253.338 190.237 253.242 189.656 253.051 189.134C252.87 188.602 252.603 188.149 252.252 187.776C251.911 187.404 251.496 187.116 251.006 186.914C250.516 186.701 249.962 186.594 249.344 186.594C248.726 186.594 248.173 186.701 247.683 186.914C247.193 187.116 246.772 187.404 246.42 187.776C246.08 188.149 245.813 188.602 245.622 189.134C245.441 189.656 245.35 190.237 245.35 190.876C245.35 191.515 245.441 192.101 245.622 192.633C245.813 193.155 246.08 193.602 246.42 193.975C246.772 194.348 247.193 194.641 247.683 194.854C248.173 195.056 248.726 195.157 249.344 195.157ZM256.81 196.212V185.54H258.183V194.998H263.296V196.212H256.81ZM269.021 196.212V188.703H270.315V196.212H269.021ZM269.66 187.041C269.426 187.041 269.234 186.972 269.085 186.834C268.936 186.685 268.861 186.498 268.861 186.275C268.861 186.051 268.936 185.87 269.085 185.731C269.234 185.593 269.426 185.524 269.66 185.524C269.905 185.524 270.102 185.593 270.251 185.731C270.4 185.87 270.475 186.051 270.475 186.275C270.475 186.498 270.4 186.685 270.251 186.834C270.102 186.972 269.905 187.041 269.66 187.041ZM278.052 196.212V191.739C278.052 191.014 277.903 190.492 277.605 190.173C277.317 189.843 276.87 189.678 276.262 189.678C275.56 189.678 275.016 189.923 274.633 190.412C274.249 190.892 274.058 191.547 274.058 192.378V196.212H272.764V188.703H274.01V189.885C274.233 189.47 274.564 189.145 275 188.911C275.437 188.666 275.964 188.543 276.582 188.543C277.445 188.543 278.121 188.788 278.611 189.278C279.101 189.768 279.346 190.54 279.346 191.595V196.212H278.052ZM288.651 196.308C287.906 196.308 287.347 196.132 286.974 195.781C286.612 195.418 286.431 194.859 286.431 194.103V189.821H284.753V188.703H286.431V186.562H287.725V188.703H289.706V189.821H287.725V194.007C287.725 194.795 288.114 195.189 288.891 195.189C289.019 195.189 289.163 195.184 289.323 195.173C289.482 195.163 289.61 195.147 289.706 195.126V196.18C289.589 196.223 289.429 196.255 289.227 196.276C289.035 196.297 288.843 196.308 288.651 196.308ZM296.831 196.212V191.739C296.831 191.014 296.682 190.492 296.384 190.173C296.096 189.843 295.649 189.678 295.042 189.678C294.339 189.678 293.796 189.923 293.412 190.412C293.029 190.892 292.837 191.547 292.837 192.378V196.212H291.543V185.54H292.837V189.805C293.071 189.411 293.396 189.102 293.812 188.879C294.238 188.655 294.754 188.543 295.361 188.543C296.224 188.543 296.9 188.788 297.39 189.278C297.88 189.768 298.125 190.54 298.125 191.595V196.212H296.831ZM304.073 196.372C303.509 196.372 302.987 196.286 302.508 196.116C302.028 195.935 301.613 195.679 301.262 195.349C300.91 195.019 300.633 194.614 300.431 194.135C300.239 193.645 300.143 193.086 300.143 192.457C300.143 191.861 300.239 191.323 300.431 190.844C300.622 190.354 300.883 189.938 301.214 189.598C301.554 189.257 301.949 188.996 302.396 188.815C302.854 188.634 303.344 188.543 303.866 188.543C304.42 188.543 304.915 188.628 305.352 188.799C305.788 188.959 306.161 189.188 306.47 189.486C306.779 189.773 307.013 190.114 307.173 190.508C307.343 190.902 307.428 191.328 307.428 191.786C307.428 191.957 307.402 192.149 307.349 192.362C307.306 192.564 307.247 192.729 307.173 192.857H301.469C301.544 193.624 301.821 194.215 302.3 194.63C302.779 195.035 303.408 195.237 304.185 195.237C304.686 195.237 305.123 195.163 305.495 195.014C305.879 194.854 306.246 194.63 306.598 194.343L307.109 195.317C306.289 196.02 305.277 196.372 304.073 196.372ZM303.914 189.678C303.328 189.678 302.806 189.864 302.348 190.237C301.901 190.599 301.608 191.11 301.469 191.77H306.086C306.097 191.739 306.102 191.685 306.102 191.611C306.102 191.036 305.921 190.572 305.559 190.221C305.197 189.859 304.649 189.678 303.914 189.678ZM318.543 196.212V191.739C318.543 191.014 318.394 190.492 318.096 190.173C317.809 189.843 317.361 189.678 316.754 189.678C316.051 189.678 315.508 189.923 315.124 190.412C314.741 190.892 314.549 191.547 314.549 192.378V196.212H313.255V188.703H314.501V189.885C314.725 189.47 315.055 189.145 315.492 188.911C315.929 188.666 316.456 188.543 317.074 188.543C317.936 188.543 318.613 188.788 319.103 189.278C319.593 189.768 319.838 190.54 319.838 191.595V196.212H318.543ZM325.786 196.372C325.221 196.372 324.699 196.286 324.22 196.116C323.741 195.935 323.325 195.679 322.974 195.349C322.622 195.019 322.346 194.614 322.143 194.135C321.951 193.645 321.856 193.086 321.856 192.457C321.856 191.861 321.951 191.323 322.143 190.844C322.335 190.354 322.596 189.938 322.926 189.598C323.267 189.257 323.661 188.996 324.108 188.815C324.566 188.634 325.056 188.543 325.578 188.543C326.132 188.543 326.627 188.628 327.064 188.799C327.501 188.959 327.873 189.188 328.182 189.486C328.491 189.773 328.725 190.114 328.885 190.508C329.056 190.902 329.141 191.328 329.141 191.786C329.141 191.957 329.114 192.149 329.061 192.362C329.018 192.564 328.96 192.729 328.885 192.857H323.182C323.256 193.624 323.533 194.215 324.012 194.63C324.492 195.035 325.12 195.237 325.898 195.237C326.398 195.237 326.835 195.163 327.208 195.014C327.591 194.854 327.959 194.63 328.31 194.343L328.821 195.317C328.001 196.02 326.989 196.372 325.786 196.372ZM325.626 189.678C325.04 189.678 324.518 189.864 324.06 190.237C323.613 190.599 323.32 191.11 323.182 191.77H327.799C327.809 191.739 327.815 191.685 327.815 191.611C327.815 191.036 327.634 190.572 327.272 190.221C326.909 189.859 326.361 189.678 325.626 189.678ZM335.872 196.212L333.619 193.224L331.366 196.212H329.849L332.788 192.33L330.008 188.703H331.526L333.619 191.515L335.712 188.703H337.23L334.45 192.33L337.389 196.212H335.872ZM342.075 196.308C341.33 196.308 340.771 196.132 340.398 195.781C340.036 195.418 339.855 194.859 339.855 194.103V189.821H338.177V188.703H339.855V186.562H341.149V188.703H343.13V189.821H341.149V194.007C341.149 194.795 341.537 195.189 342.315 195.189C342.443 195.189 342.587 195.184 342.746 195.173C342.906 195.163 343.034 195.147 343.13 195.126V196.18C343.013 196.223 342.853 196.255 342.65 196.276C342.459 196.297 342.267 196.308 342.075 196.308ZM352.286 196.372C351.722 196.372 351.2 196.286 350.72 196.116C350.241 195.935 349.826 195.679 349.474 195.349C349.123 195.019 348.846 194.614 348.643 194.135C348.452 193.645 348.356 193.086 348.356 192.457C348.356 191.861 348.452 191.323 348.643 190.844C348.835 190.354 349.096 189.938 349.426 189.598C349.767 189.257 350.161 188.996 350.609 188.815C351.067 188.634 351.557 188.543 352.078 188.543C352.632 188.543 353.128 188.628 353.564 188.799C354.001 188.959 354.374 189.188 354.683 189.486C354.991 189.773 355.226 190.114 355.386 190.508C355.556 190.902 355.641 191.328 355.641 191.786C355.641 191.957 355.615 192.149 355.561 192.362C355.519 192.564 355.46 192.729 355.386 192.857H349.682C349.757 193.624 350.033 194.215 350.513 194.63C350.992 195.035 351.62 195.237 352.398 195.237C352.899 195.237 353.335 195.163 353.708 195.014C354.091 194.854 354.459 194.63 354.81 194.343L355.322 195.317C354.502 196.02 353.49 196.372 352.286 196.372ZM352.126 189.678C351.541 189.678 351.019 189.864 350.561 190.237C350.113 190.599 349.82 191.11 349.682 191.77H354.299C354.31 191.739 354.315 191.685 354.315 191.611C354.315 191.036 354.134 190.572 353.772 190.221C353.41 189.859 352.861 189.678 352.126 189.678ZM361.641 196.372C361.024 196.372 360.481 196.249 360.012 196.004C359.543 195.759 359.186 195.434 358.941 195.03V199.12H357.647V188.703H358.894V189.965C359.128 189.539 359.485 189.198 359.964 188.943C360.443 188.676 361.002 188.543 361.641 188.543C362.163 188.543 362.643 188.634 363.079 188.815C363.516 188.996 363.894 189.257 364.214 189.598C364.533 189.938 364.784 190.349 364.965 190.828C365.146 191.307 365.236 191.85 365.236 192.457C365.236 193.065 365.146 193.608 364.965 194.087C364.784 194.566 364.533 194.976 364.214 195.317C363.894 195.658 363.516 195.919 363.079 196.1C362.643 196.281 362.163 196.372 361.641 196.372ZM361.402 195.237C362.137 195.237 362.739 194.992 363.207 194.502C363.676 194.002 363.91 193.32 363.91 192.457C363.91 191.595 363.676 190.918 363.207 190.428C362.739 189.928 362.137 189.678 361.402 189.678C360.667 189.678 360.065 189.928 359.596 190.428C359.128 190.918 358.894 191.595 358.894 192.457C358.894 193.32 359.128 194.002 359.596 194.502C360.065 194.992 360.667 195.237 361.402 195.237ZM370.723 196.372C370.148 196.372 369.62 196.281 369.141 196.1C368.673 195.908 368.268 195.642 367.927 195.301C367.586 194.96 367.32 194.55 367.128 194.071C366.936 193.592 366.841 193.054 366.841 192.457C366.841 191.861 366.936 191.323 367.128 190.844C367.32 190.365 367.586 189.954 367.927 189.614C368.268 189.273 368.673 189.012 369.141 188.831C369.62 188.639 370.148 188.543 370.723 188.543C371.298 188.543 371.82 188.639 372.289 188.831C372.768 189.012 373.178 189.273 373.519 189.614C373.86 189.954 374.126 190.365 374.318 190.844C374.509 191.323 374.605 191.861 374.605 192.457C374.605 193.054 374.509 193.592 374.318 194.071C374.126 194.55 373.86 194.96 373.519 195.301C373.178 195.642 372.768 195.908 372.289 196.1C371.82 196.281 371.298 196.372 370.723 196.372ZM370.723 195.237C371.106 195.237 371.452 195.173 371.761 195.046C372.081 194.918 372.352 194.737 372.576 194.502C372.8 194.257 372.97 193.965 373.087 193.624C373.215 193.283 373.279 192.894 373.279 192.457C373.279 192.031 373.215 191.648 373.087 191.307C372.97 190.956 372.8 190.663 372.576 190.428C372.352 190.183 372.081 189.997 371.761 189.869C371.452 189.741 371.106 189.678 370.723 189.678C370.339 189.678 369.988 189.741 369.668 189.869C369.36 189.997 369.093 190.183 368.87 190.428C368.646 190.663 368.47 190.956 368.342 191.307C368.225 191.648 368.167 192.031 368.167 192.457C368.167 192.894 368.225 193.283 368.342 193.624C368.47 193.965 368.646 194.257 368.87 194.502C369.093 194.737 369.36 194.918 369.668 195.046C369.988 195.173 370.339 195.237 370.723 195.237ZM380.067 196.372C379.491 196.372 378.964 196.281 378.485 196.1C378.016 195.908 377.612 195.642 377.271 195.301C376.93 194.96 376.664 194.55 376.472 194.071C376.28 193.592 376.184 193.054 376.184 192.457C376.184 191.861 376.28 191.323 376.472 190.844C376.664 190.365 376.93 189.954 377.271 189.614C377.612 189.273 378.016 189.012 378.485 188.831C378.964 188.639 379.491 188.543 380.067 188.543C380.61 188.543 381.1 188.623 381.536 188.783C381.984 188.943 382.378 189.172 382.719 189.47L382.223 190.444C381.883 190.178 381.526 189.986 381.153 189.869C380.78 189.741 380.418 189.678 380.067 189.678C379.683 189.678 379.332 189.741 379.012 189.869C378.703 189.997 378.437 190.183 378.213 190.428C377.99 190.663 377.814 190.956 377.686 191.307C377.569 191.648 377.51 192.031 377.51 192.457C377.51 192.894 377.569 193.283 377.686 193.624C377.814 193.965 377.99 194.257 378.213 194.502C378.437 194.737 378.703 194.918 379.012 195.046C379.332 195.173 379.683 195.237 380.067 195.237C380.418 195.237 380.78 195.179 381.153 195.062C381.526 194.934 381.883 194.737 382.223 194.47L382.719 195.445C382.378 195.743 381.984 195.972 381.536 196.132C381.1 196.292 380.61 196.372 380.067 196.372ZM389.937 196.212V191.739C389.937 191.014 389.788 190.492 389.49 190.173C389.202 189.843 388.755 189.678 388.148 189.678C387.445 189.678 386.902 189.923 386.518 190.412C386.135 190.892 385.943 191.547 385.943 192.378V196.212H384.649V185.54H385.943V189.805C386.177 189.411 386.502 189.102 386.918 188.879C387.344 188.655 387.86 188.543 388.467 188.543C389.33 188.543 390.006 188.788 390.496 189.278C390.986 189.768 391.231 190.54 391.231 191.595V196.212H389.937Z" fill="#778A96"/>
</g>
<path d="M499.267 36.7326C502.567 31.4626 506.417 26.6026 510.767 22.1626C511.337 21.5726 510.517 20.6426 509.857 21.1426C507.297 23.0726 505.057 25.4026 503.047 27.8926C501.087 30.4226 499.337 33.1426 498.057 36.0826C497.907 36.4326 498.057 36.8326 498.417 36.9826C498.727 37.1126 499.087 37.0026 499.267 36.7226V36.7326Z" fill="#024240"/>
<path d="M508.197 45.8128C511.457 44.8328 514.667 43.6528 517.677 42.0528C518.047 41.8428 518.167 41.3828 517.967 41.0228C517.797 40.7228 517.447 40.5828 517.127 40.6628C515.477 41.0928 513.877 41.6728 512.297 42.3228C510.717 42.9728 509.157 43.6328 507.647 44.4228C507.277 44.6128 507.137 45.0728 507.327 45.4428C507.497 45.7628 507.867 45.9128 508.197 45.8228V45.8128Z" fill="#024240"/>
<path d="M93.7327 38.7326C90.4327 33.4626 86.5827 28.6026 82.2327 24.1626C81.6627 23.5726 82.4827 22.6426 83.1427 23.1426C85.7027 25.0726 87.9427 27.4026 89.9527 29.8926C91.9127 32.4226 93.6627 35.1426 94.9427 38.0826C95.0927 38.4326 94.9427 38.8326 94.5827 38.9826C94.2727 39.1126 93.9127 39.0026 93.7327 38.7226V38.7326Z" fill="#024240"/>
<path d="M84.8025 47.8128C81.5425 46.8328 78.3325 45.6528 75.3225 44.0528C74.9525 43.8428 74.8325 43.3828 75.0325 43.0228C75.2025 42.7228 75.5525 42.5828 75.8725 42.6628C77.5225 43.0928 79.1225 43.6728 80.7025 44.3228C82.2825 44.9728 83.8425 45.6328 85.3525 46.4228C85.7225 46.6128 85.8625 47.0728 85.6725 47.4428C85.5025 47.7628 85.1325 47.9128 84.8025 47.8228V47.8128Z" fill="#024240"/>
</g>
<defs>
<filter id="filter0_d_3104_59687" x="121.59" y="91.8516" width="350.616" height="168.204" filterUnits="userSpaceOnUse" color-interpolation-filters="sRGB">
<feFlood flood-opacity="0" result="BackgroundImageFix"/>
<feColorMatrix in="SourceAlpha" type="matrix" values="0 0 0 0 0 0 0 0 0 0 0 0 0 0 0 0 0 0 127 0" result="hardAlpha"/>
<feOffset dy="2"/>
<feGaussianBlur stdDeviation="4"/>
<feColorMatrix type="matrix" values="0 0 0 0 0.0823529 0 0 0 0 0.101961 0 0 0 0 0.101961 0 0 0 0.03 0"/>
<feBlend mode="normal" in2="BackgroundImageFix" result="effect1_dropShadow_3104_59687"/>
<feBlend mode="normal" in="SourceGraphic" in2="effect1_dropShadow_3104_59687" result="shape"/>
</filter>
<filter id="filter1_dd_3104_59687" x="99.6285" y="68.1465" width="394.538" height="195.107" filterUnits="userSpaceOnUse" color-interpolation-filters="sRGB">
<feFlood flood-opacity="0" result="BackgroundImageFix"/>
<feColorMatrix in="SourceAlpha" type="matrix" values="0 0 0 0 0 0 0 0 0 0 0 0 0 0 0 0 0 0 127 0" result="hardAlpha"/>
<feOffset dy="3.249"/>
<feGaussianBlur stdDeviation="3.249"/>
<feColorMatrix type="matrix" values="0 0 0 0 0.0823529 0 0 0 0 0.101961 0 0 0 0 0.101961 0 0 0 0.03 0"/>
<feBlend mode="normal" in2="BackgroundImageFix" result="effect1_dropShadow_3104_59687"/>
<feColorMatrix in="SourceAlpha" type="matrix" values="0 0 0 0 0 0 0 0 0 0 0 0 0 0 0 0 0 0 127 0" result="hardAlpha"/>
<feOffset dy="11.3715"/>
<feGaussianBlur stdDeviation="5.68575"/>
<feColorMatrix type="matrix" values="0 0 0 0 0.0823529 0 0 0 0 0.101961 0 0 0 0 0.101961 0 0 0 0.02 0"/>
<feBlend mode="normal" in2="effect1_dropShadow_3104_59687" result="effect2_dropShadow_3104_59687"/>
<feBlend mode="normal" in="SourceGraphic" in2="effect2_dropShadow_3104_59687" result="shape"/>
</filter>
<filter id="filter2_dddd_3104_59687" x="70.145" y="37.39" width="452.815" height="261.911" filterUnits="userSpaceOnUse" color-interpolation-filters="sRGB">
<feFlood flood-opacity="0" result="BackgroundImageFix"/>
<feColorMatrix in="SourceAlpha" type="matrix" values="0 0 0 0 0 0 0 0 0 0 0 0 0 0 0 0 0 0 127 0" result="hardAlpha"/>
<feOffset dy="3.61"/>
<feGaussianBlur stdDeviation="3.61"/>
<feColorMatrix type="matrix" values="0 0 0 0 0.0823529 0 0 0 0 0.101961 0 0 0 0 0.101961 0 0 0 0.05 0"/>
<feBlend mode="normal" in2="BackgroundImageFix" result="effect1_dropShadow_3104_59687"/>
<feColorMatrix in="SourceAlpha" type="matrix" values="0 0 0 0 0 0 0 0 0 0 0 0 0 0 0 0 0 0 127 0" result="hardAlpha"/>
<feOffset dy="12.635"/>
<feGaussianBlur stdDeviation="6.3175"/>
<feColorMatrix type="matrix" values="0 0 0 0 0.0823529 0 0 0 0 0.101961 0 0 0 0 0.101961 0 0 0 0.04 0"/>
<feBlend mode="normal" in2="effect1_dropShadow_3104_59687" result="effect2_dropShadow_3104_59687"/>
<feColorMatrix in="SourceAlpha" type="matrix" values="0 0 0 0 0 0 0 0 0 0 0 0 0 0 0 0 0 0 127 0" result="hardAlpha"/>
<feOffset dy="28.88"/>
<feGaussianBlur stdDeviation="8.57375"/>
<feColorMatrix type="matrix" values="0 0 0 0 0.0823529 0 0 0 0 0.101961 0 0 0 0 0.101961 0 0 0 0.02 0"/>
<feBlend mode="normal" in2="effect2_dropShadow_3104_59687" result="effect3_dropShadow_3104_59687"/>
<feColorMatrix in="SourceAlpha" type="matrix" values="0 0 0 0 0 0 0 0 0 0 0 0 0 0 0 0 0 0 127 0" result="hardAlpha"/>
<feOffset dy="50.54"/>
<feGaussianBlur stdDeviation="9.9275"/>
<feColorMatrix type="matrix" values="0 0 0 0 0.0823529 0 0 0 0 0.101961 0 0 0 0 0.101961 0 0 0 0.01 0"/>
<feBlend mode="normal" in2="effect3_dropShadow_3104_59687" result="effect4_dropShadow_3104_59687"/>
<feBlend mode="normal" in="SourceGraphic" in2="effect4_dropShadow_3104_59687" result="shape"/>
</filter>
<clipPath id="clip0_3104_59687">
<rect width="594" height="272" fill="white"/>
</clipPath>
</defs>
</svg>
