<svg width="392" height="272" viewBox="0 0 392 272" fill="none" xmlns="http://www.w3.org/2000/svg">
<mask id="mask0_3110_61104" style="mask-type:alpha" maskUnits="userSpaceOnUse" x="-160" y="33" width="518" height="239">
<rect x="-160" y="33.5469" width="517.127" height="238.453" fill="url(#paint0_linear_3110_61104)"/>
</mask>
<g mask="url(#mask0_3110_61104)">
<g filter="url(#filter0_ddddddd_3110_61104)">
<rect x="-137.017" y="49.8271" width="471.16" height="436.173" rx="15.3639" fill="white"/>
<g clip-path="url(#clip0_3110_61104)">
<rect x="-123.36" y="63.4844" width="310.693" height="31.3639" rx="8.53551" fill="#EDF3F7"/>
<path d="M-28.5076 83.166V76.3905H-30.9334V75.1836H-24.7195V76.3905H-27.1334V83.166H-28.5076ZM-19.5986 83.166V79.8679C-19.5986 79.4138 -19.6942 79.0832 -19.8854 78.8761C-20.0687 78.661 -20.3515 78.5534 -20.7339 78.5534C-21.18 78.5534 -21.5305 78.7048 -21.7854 79.0075C-22.0324 79.3102 -22.1559 79.7325 -22.1559 80.2742V83.166H-23.4464V75.1836H-22.1559V78.2547C-21.9806 77.9998 -21.7456 77.8006 -21.4508 77.6572C-21.1481 77.5058 -20.7856 77.4302 -20.3634 77.4302C-19.7181 77.4302 -19.2162 77.6134 -18.8577 77.9798C-18.4913 78.3463 -18.3081 78.9159 -18.3081 79.6886V83.166H-19.5986ZM-16.6911 83.166V77.5496H-15.4005V83.166H-16.6911ZM-16.0458 76.4861C-16.2769 76.4861 -16.4641 76.4184 -16.6075 76.283C-16.7429 76.1475 -16.8106 75.9723 -16.8106 75.7572C-16.8106 75.5421 -16.7429 75.3708 -16.6075 75.2434C-16.4641 75.1079 -16.2769 75.0402 -16.0458 75.0402C-15.8148 75.0402 -15.6316 75.1079 -15.4961 75.2434C-15.3527 75.3708 -15.281 75.5421 -15.281 75.7572C-15.281 75.9723 -15.3527 76.1475 -15.4961 76.283C-15.6316 76.4184 -15.8148 76.4861 -16.0458 76.4861ZM-11.7553 83.2855C-12.1855 83.2855 -12.5918 83.2218 -12.9742 83.0943C-13.3566 82.9669 -13.727 82.7796 -14.0855 82.5327L-13.5836 81.5528C-12.8826 82.0149 -12.2652 82.2459 -11.7314 82.2459C-10.9905 82.2459 -10.6201 82.0268 -10.6201 81.5887C-10.6201 81.4054 -10.6798 81.27 -10.7993 81.1824C-10.9109 81.0868 -11.114 81.0151 -11.4088 80.9673L-12.2931 80.8C-13.3685 80.6008 -13.9063 80.091 -13.9063 79.2704C-13.9063 79.0234 -13.8625 78.7884 -13.7748 78.5654C-13.6792 78.3423 -13.5398 78.1471 -13.3566 77.9798C-13.1654 77.8125 -12.9264 77.6811 -12.6396 77.5855C-12.3528 77.4819 -12.0182 77.4302 -11.6358 77.4302C-11.2295 77.4302 -10.8432 77.4899 -10.4767 77.6094C-10.1102 77.7209 -9.77963 77.8803 -9.48487 78.0874L-9.96286 79.0314C-10.2178 78.8721 -10.4847 78.7406 -10.7635 78.6371C-11.0344 78.5255 -11.3092 78.4698 -11.588 78.4698C-11.8987 78.4698 -12.1457 78.5216 -12.3289 78.6251C-12.5042 78.7287 -12.5918 78.892 -12.5918 79.1151C-12.5918 79.2585 -12.536 79.374 -12.4245 79.4616C-12.313 79.5413 -12.1258 79.605 -11.8629 79.6528L-10.9786 79.8201C-10.4369 79.9237 -10.0226 80.1029 -9.73582 80.3578C-9.44903 80.6128 -9.30563 80.9752 -9.30563 81.4453C-9.30563 81.979 -9.51276 82.4211 -9.92701 82.7717C-10.3413 83.1142 -10.9507 83.2855 -11.7553 83.2855ZM-4.62685 85.4126C-4.87381 85.4126 -5.12475 85.3807 -5.37968 85.317C-5.62664 85.2612 -5.84174 85.1815 -6.02496 85.078L-5.66647 84.0861C-5.50714 84.1578 -5.34781 84.2136 -5.18848 84.2534C-5.02916 84.3012 -4.87381 84.3251 -4.72245 84.3251C-4.46752 84.3251 -4.24047 84.2574 -4.04131 84.122C-3.84215 83.9945 -3.65494 83.7715 -3.47968 83.4528L-5.79792 77.5496H-4.41175L-2.87024 81.9352L-1.32873 77.5496H0.0574412L-2.15326 83.166C-2.32055 83.5962 -2.4998 83.9547 -2.69099 84.2415C-2.88219 84.5283 -3.08135 84.7593 -3.28848 84.9346C-3.49561 85.1098 -3.7107 85.2333 -3.93376 85.305C-4.15683 85.3767 -4.38785 85.4126 -4.62685 85.4126ZM3.62621 83.2855C3.19602 83.2855 2.79371 83.2218 2.41928 83.0943C2.05283 82.9669 1.73018 82.7836 1.45136 82.5446C1.1805 82.2977 0.965402 81.991 0.806072 81.6245C0.654709 81.258 0.579028 80.8358 0.579028 80.3578C0.579028 79.9117 0.650726 79.5094 0.794122 79.1509C0.945486 78.7845 1.14863 78.4738 1.40356 78.2188C1.66645 77.9639 1.96918 77.7687 2.31174 77.6333C2.66226 77.4979 3.04067 77.4302 3.44696 77.4302C3.86122 77.4302 4.23564 77.4939 4.57023 77.6213C4.91279 77.7408 5.20357 77.9081 5.44256 78.1232C5.68156 78.3383 5.86479 78.5972 5.99225 78.9C6.12768 79.1947 6.19539 79.5174 6.19539 79.8679C6.19539 80.0033 6.17548 80.1547 6.13565 80.322C6.10378 80.4813 6.05598 80.6128 5.99225 80.7163H1.8935C1.94926 81.2023 2.14046 81.5727 2.46708 81.8276C2.79371 82.0746 3.21992 82.1981 3.7457 82.1981C4.10419 82.1981 4.42285 82.1463 4.70168 82.0427C4.98847 81.9312 5.26332 81.7798 5.52621 81.5887L5.9564 82.5207C5.31112 83.0306 4.53438 83.2855 3.62621 83.2855ZM3.48281 78.4817C3.09245 78.4817 2.74989 78.5972 2.45513 78.8283C2.16834 79.0593 1.98113 79.378 1.8935 79.7842H4.85703C4.87296 79.7364 4.88093 79.6966 4.88093 79.6647C4.88093 79.3142 4.76541 79.0314 4.53438 78.8163C4.30336 78.5933 3.95283 78.4817 3.48281 78.4817ZM9.28524 83.2855C8.98251 83.2855 8.70368 83.2497 8.44876 83.178C8.19383 83.1063 7.97475 82.9987 7.79152 82.8553C7.60829 82.7119 7.4649 82.5367 7.36133 82.3295C7.25777 82.1144 7.20598 81.8715 7.20598 81.6006C7.20598 81.3297 7.25777 81.0947 7.36133 80.8956C7.4649 80.6964 7.60829 80.5291 7.79152 80.3937C7.97475 80.2503 8.19383 80.1388 8.44876 80.0591C8.70368 79.9715 8.98251 79.9077 9.28524 79.8679L11.2091 79.6289C11.1613 79.2465 11.01 78.9677 10.7551 78.7924C10.5001 78.6172 10.1894 78.5295 9.82297 78.5295C9.55211 78.5295 9.27329 78.5813 8.98649 78.6849C8.70767 78.7805 8.40096 78.9398 8.06636 79.1629L7.61227 78.2069C7.94687 77.9599 8.30536 77.7687 8.68775 77.6333C9.07014 77.4979 9.46448 77.4302 9.87077 77.4302C10.7391 77.4302 11.3964 77.6253 11.8425 78.0157C12.2966 78.3981 12.5236 78.9756 12.5236 79.7484V83.166H11.2808V82.4132C10.8586 82.9947 10.1934 83.2855 9.28524 83.2855ZM9.63178 82.2339C9.8867 82.2339 10.1137 82.1941 10.3129 82.1144C10.5121 82.0348 10.6794 81.9272 10.8148 81.7918C10.9502 81.6564 11.0538 81.505 11.1255 81.3377C11.1972 81.1624 11.233 80.9792 11.233 80.788V80.561L9.67958 80.7641C9.29718 80.8199 9.00641 80.9035 8.80725 81.0151C8.61605 81.1266 8.52045 81.3019 8.52045 81.5409C8.52045 81.7639 8.61605 81.9352 8.80725 82.0547C9.00641 82.1742 9.28125 82.2339 9.63178 82.2339ZM14.1317 83.166V77.5496H15.3745V78.4937C15.5258 78.1511 15.733 77.8962 15.9958 77.7289C16.2667 77.5616 16.5694 77.478 16.904 77.478C17.0076 77.478 17.1032 77.4859 17.1908 77.5018C17.2864 77.5098 17.3581 77.5257 17.4059 77.5496V78.7805C17.2944 78.7566 17.1828 78.7367 17.0713 78.7207C16.9678 78.7048 16.8602 78.6968 16.7487 78.6968C16.3663 78.6968 16.0476 78.8482 15.7927 79.1509C15.5457 79.4536 15.4223 79.8878 15.4223 80.4534V83.166H14.1317Z" fill="#151A1A"/>
<path d="M46.2922 83.166V75.1836H47.6664V81.9591H51.3111V83.166H46.2922ZM54.3715 83.2855C54.0688 83.2855 53.79 83.2497 53.5351 83.178C53.2801 83.1063 53.0611 82.9987 52.8778 82.8553C52.6946 82.7119 52.5512 82.5367 52.4476 82.3295C52.3441 82.1144 52.2923 81.8715 52.2923 81.6006C52.2923 81.3297 52.3441 81.0947 52.4476 80.8956C52.5512 80.6964 52.6946 80.5291 52.8778 80.3937C53.0611 80.2503 53.2801 80.1388 53.5351 80.0591C53.79 79.9715 54.0688 79.9077 54.3715 79.8679L56.2954 79.6289C56.2476 79.2465 56.0963 78.9677 55.8414 78.7924C55.5864 78.6172 55.2757 78.5295 54.9093 78.5295C54.6384 78.5295 54.3596 78.5813 54.0728 78.6849C53.794 78.7805 53.4873 78.9398 53.1527 79.1629L52.6986 78.2069C53.0332 77.9599 53.3917 77.7687 53.7741 77.6333C54.1564 77.4979 54.5508 77.4302 54.9571 77.4302C55.8254 77.4302 56.4827 77.6253 56.9288 78.0157C57.3829 78.3981 57.6099 78.9756 57.6099 79.7484V83.166H56.3671V82.4132C55.9449 82.9947 55.2797 83.2855 54.3715 83.2855ZM54.7181 82.2339C54.973 82.2339 55.2001 82.1941 55.3992 82.1144C55.5984 82.0348 55.7657 81.9272 55.9011 81.7918C56.0365 81.6564 56.1401 81.505 56.2118 81.3377C56.2835 81.1624 56.3193 80.9792 56.3193 80.788V80.561L54.7659 80.7641C54.3835 80.8199 54.0927 80.9035 53.8936 81.0151C53.7024 81.1266 53.6068 81.3019 53.6068 81.5409C53.6068 81.7639 53.7024 81.9352 53.8936 82.0547C54.0927 82.1742 54.3676 82.2339 54.7181 82.2339ZM61.2494 83.2855C60.8193 83.2855 60.413 83.2218 60.0306 83.0943C59.6482 82.9669 59.2777 82.7796 58.9192 82.5327L59.4211 81.5528C60.1222 82.0149 60.7396 82.2459 61.2733 82.2459C62.0142 82.2459 62.3847 82.0268 62.3847 81.5887C62.3847 81.4054 62.3249 81.27 62.2054 81.1824C62.0939 81.0868 61.8907 81.0151 61.596 80.9673L60.7117 80.8C59.6362 80.6008 59.0985 80.091 59.0985 79.2704C59.0985 79.0234 59.1423 78.7884 59.2299 78.5654C59.3255 78.3423 59.465 78.1471 59.6482 77.9798C59.8394 77.8125 60.0784 77.6811 60.3652 77.5855C60.652 77.4819 60.9865 77.4302 61.3689 77.4302C61.7752 77.4302 62.1616 77.4899 62.5281 77.6094C62.8945 77.7209 63.2251 77.8803 63.5199 78.0874L63.0419 79.0314C62.787 78.8721 62.5201 78.7406 62.2413 78.6371C61.9704 78.5255 61.6956 78.4698 61.4167 78.4698C61.106 78.4698 60.8591 78.5216 60.6759 78.6251C60.5006 78.7287 60.413 78.892 60.413 79.1151C60.413 79.2585 60.4687 79.374 60.5803 79.4616C60.6918 79.5413 60.879 79.605 61.1419 79.6528L62.0262 79.8201C62.5679 79.9237 62.9822 80.1029 63.2689 80.3578C63.5557 80.6128 63.6991 80.9752 63.6991 81.4453C63.6991 81.979 63.492 82.4211 63.0777 82.7717C62.6635 83.1142 62.0541 83.2855 61.2494 83.2855ZM67.4541 83.2377C66.8328 83.2377 66.3747 83.0983 66.0799 82.8195C65.7931 82.5327 65.6497 82.0905 65.6497 81.4931V78.6371H64.4428V77.5496H65.6497V75.9484H66.9403V77.5496H68.3743V78.6371H66.9403V81.3855C66.9403 81.8954 67.2032 82.1503 67.729 82.1503C67.8246 82.1503 67.9361 82.1463 68.0636 82.1383C68.191 82.1304 68.2946 82.1184 68.3743 82.1025V83.1302C68.2627 83.162 68.1233 83.1859 67.956 83.2019C67.7887 83.2258 67.6214 83.2377 67.4541 83.2377ZM72.9627 85.4126C72.7157 85.4126 72.4648 85.3807 72.2099 85.317C71.9629 85.2612 71.7478 85.1815 71.5646 85.078L71.9231 84.0861C72.0824 84.1578 72.2417 84.2136 72.401 84.2534C72.5604 84.3012 72.7157 84.3251 72.8671 84.3251C73.122 84.3251 73.3491 84.2574 73.5482 84.122C73.7474 83.9945 73.9346 83.7715 74.1099 83.4528L71.7916 77.5496H73.1778L74.7193 81.9352L76.2608 77.5496H77.647L75.4363 83.166C75.269 83.5962 75.0897 83.9547 74.8985 84.2415C74.7073 84.5283 74.5082 84.7593 74.3011 84.9346C74.0939 85.1098 73.8788 85.2333 73.6558 85.305C73.4327 85.3767 73.2017 85.4126 72.9627 85.4126ZM81.2157 83.2855C80.7856 83.2855 80.3832 83.2218 80.0088 83.0943C79.6424 82.9669 79.3197 82.7836 79.0409 82.5446C78.77 82.2977 78.5549 81.991 78.3956 81.6245C78.2442 81.258 78.1686 80.8358 78.1686 80.3578C78.1686 79.9117 78.2403 79.5094 78.3837 79.1509C78.535 78.7845 78.7382 78.4738 78.9931 78.2188C79.256 77.9639 79.5587 77.7687 79.9013 77.6333C80.2518 77.4979 80.6302 77.4302 81.0365 77.4302C81.4508 77.4302 81.8252 77.4939 82.1598 77.6213C82.5023 77.7408 82.7931 77.9081 83.0321 78.1232C83.2711 78.3383 83.4543 78.5972 83.5818 78.9C83.7172 79.1947 83.7849 79.5174 83.7849 79.8679C83.7849 80.0033 83.765 80.1547 83.7252 80.322C83.6933 80.4813 83.6455 80.6128 83.5818 80.7163H79.483C79.5388 81.2023 79.73 81.5727 80.0566 81.8276C80.3832 82.0746 80.8094 82.1981 81.3352 82.1981C81.6937 82.1981 82.0124 82.1463 82.2912 82.0427C82.578 81.9312 82.8529 81.7798 83.1157 81.5887L83.5459 82.5207C82.9007 83.0306 82.1239 83.2855 81.2157 83.2855ZM81.0723 78.4817C80.682 78.4817 80.3394 78.5972 80.0447 78.8283C79.7579 79.0593 79.5707 79.378 79.483 79.7842H82.4466C82.4625 79.7364 82.4705 79.6966 82.4705 79.6647C82.4705 79.3142 82.3549 79.0314 82.1239 78.8163C81.8929 78.5933 81.5424 78.4817 81.0723 78.4817ZM86.8748 83.2855C86.572 83.2855 86.2932 83.2497 86.0383 83.178C85.7834 83.1063 85.5643 82.9987 85.3811 82.8553C85.1978 82.7119 85.0544 82.5367 84.9509 82.3295C84.8473 82.1144 84.7955 81.8715 84.7955 81.6006C84.7955 81.3297 84.8473 81.0947 84.9509 80.8956C85.0544 80.6964 85.1978 80.5291 85.3811 80.3937C85.5643 80.2503 85.7834 80.1388 86.0383 80.0591C86.2932 79.9715 86.572 79.9077 86.8748 79.8679L88.7987 79.6289C88.7509 79.2465 88.5995 78.9677 88.3446 78.7924C88.0897 78.6172 87.779 78.5295 87.4125 78.5295C87.1416 78.5295 86.8628 78.5813 86.576 78.6849C86.2972 78.7805 85.9905 78.9398 85.6559 79.1629L85.2018 78.2069C85.5364 77.9599 85.8949 77.7687 86.2773 77.6333C86.6597 77.4979 87.054 77.4302 87.4603 77.4302C88.3287 77.4302 88.9859 77.6253 89.432 78.0157C89.8861 78.3981 90.1131 78.9756 90.1131 79.7484V83.166H88.8704V82.4132C88.4481 82.9947 87.7829 83.2855 86.8748 83.2855ZM87.2213 82.2339C87.4762 82.2339 87.7033 82.1941 87.9024 82.1144C88.1016 82.0348 88.2689 81.9272 88.4043 81.7918C88.5398 81.6564 88.6433 81.505 88.715 81.3377C88.7867 81.1624 88.8226 80.9792 88.8226 80.788V80.561L87.2691 80.7641C86.8867 80.8199 86.5959 80.9035 86.3968 81.0151C86.2056 81.1266 86.11 81.3019 86.11 81.5409C86.11 81.7639 86.2056 81.9352 86.3968 82.0547C86.5959 82.1742 86.8708 82.2339 87.2213 82.2339ZM91.7212 83.166V77.5496H92.964V78.4937C93.1154 78.1511 93.3225 77.8962 93.5854 77.7289C93.8562 77.5616 94.159 77.478 94.4936 77.478C94.5971 77.478 94.6927 77.4859 94.7803 77.5018C94.8759 77.5098 94.9476 77.5257 94.9954 77.5496V78.7805C94.8839 78.7566 94.7724 78.7367 94.6608 78.7207C94.5573 78.7048 94.4497 78.6968 94.3382 78.6968C93.9558 78.6968 93.6372 78.8482 93.3822 79.1509C93.1353 79.4536 93.0118 79.8878 93.0118 80.4534V83.166H91.7212Z" fill="#151A1A"/>
<g filter="url(#filter1_dd_3110_61104)">
<path d="M108.806 76.3597C108.806 72.4504 108.806 70.4958 109.567 69.0026C110.236 67.6892 111.304 66.6214 112.617 65.9522C114.111 65.1914 116.065 65.1914 119.974 65.1914H174.458C178.367 65.1914 180.321 65.1914 181.815 65.9522C183.128 66.6214 184.196 67.6892 184.865 69.0026C185.626 70.4958 185.626 72.4504 185.626 76.3596V81.9729C185.626 85.8821 185.626 87.8368 184.865 89.3299C184.196 90.6433 183.128 91.7111 181.815 92.3803C180.321 93.1411 178.367 93.1411 174.458 93.1411H119.974C116.065 93.1411 114.111 93.1411 112.617 92.3803C111.304 91.7111 110.236 90.6433 109.567 89.3299C108.806 87.8368 108.806 85.8821 108.806 81.9729V76.3597Z" fill="white"/>
<path d="M174.458 64.978H119.974H119.964C118.018 64.978 116.545 64.978 115.372 65.0738C114.195 65.17 113.302 65.3638 112.521 65.7621C111.167 66.4517 110.066 67.5522 109.377 68.9058C108.979 69.6874 108.785 70.5806 108.689 71.7577C108.593 72.9304 108.593 74.4035 108.593 76.3496V76.3597V81.9729V81.983C108.593 83.9291 108.593 85.4022 108.689 86.5748C108.785 87.752 108.979 88.6451 109.377 89.4268C110.066 90.7803 111.167 91.8808 112.521 92.5705C113.302 92.9687 114.195 93.1625 115.372 93.2587C116.545 93.3545 118.018 93.3545 119.964 93.3545H119.974H174.458H174.468C176.414 93.3545 177.887 93.3545 179.059 93.2587C180.237 93.1625 181.13 92.9687 181.911 92.5705C183.265 91.8808 184.365 90.7803 185.055 89.4268C185.453 88.6451 185.647 87.752 185.743 86.5748C185.839 85.4022 185.839 83.9291 185.839 81.9831V81.9729V76.3596V76.3494C185.839 74.4034 185.839 72.9303 185.743 71.7577C185.647 70.5806 185.453 69.6874 185.055 68.9058C184.365 67.5522 183.265 66.4517 181.911 65.7621C181.13 65.3638 180.237 65.17 179.059 65.0738C177.887 64.978 176.414 64.978 174.468 64.978H174.458Z" stroke="black" stroke-opacity="0.04" stroke-width="0.426776"/>
<path d="M132.872 83.166L132.262 81.5887H128.546L127.949 83.166H126.467L129.657 75.1836H131.163L134.354 83.166H132.872ZM130.41 76.6295L128.952 80.4534H131.868L130.41 76.6295ZM135.395 83.166V75.1836H136.685V83.166H135.395ZM138.299 83.166V75.1836H139.59V83.166H138.299ZM146.417 83.2377C145.796 83.2377 145.338 83.0983 145.043 82.8195C144.756 82.5327 144.613 82.0905 144.613 81.4931V78.6371H143.406V77.5496H144.613V75.9484H145.903V77.5496H147.337V78.6371H145.903V81.3855C145.903 81.8954 146.166 82.1503 146.692 82.1503C146.788 82.1503 146.899 82.1463 147.027 82.1383C147.154 82.1304 147.258 82.1184 147.337 82.1025V83.1302C147.226 83.162 147.086 83.1859 146.919 83.2019C146.752 83.2258 146.584 83.2377 146.417 83.2377ZM148.564 83.166V77.5496H149.855V83.166H148.564ZM149.209 76.4861C148.978 76.4861 148.791 76.4184 148.648 76.283C148.512 76.1475 148.445 75.9723 148.445 75.7572C148.445 75.5421 148.512 75.3708 148.648 75.2434C148.791 75.1079 148.978 75.0402 149.209 75.0402C149.44 75.0402 149.624 75.1079 149.759 75.2434C149.902 75.3708 149.974 75.5421 149.974 75.7572C149.974 75.9723 149.902 76.1475 149.759 76.283C149.624 76.4184 149.44 76.4861 149.209 76.4861ZM158.638 83.166V79.8679C158.638 79.4138 158.547 79.0832 158.363 78.8761C158.188 78.661 157.929 78.5534 157.587 78.5534C157.18 78.5534 156.87 78.7048 156.655 79.0075C156.448 79.3102 156.344 79.7325 156.344 80.2742V83.166H155.041V79.8679C155.041 79.4138 154.954 79.0832 154.779 78.8761C154.603 78.661 154.344 78.5534 154.002 78.5534C153.596 78.5534 153.285 78.7048 153.07 79.0075C152.863 79.3102 152.759 79.7325 152.759 80.2742V83.166H151.468V77.5496H152.711V78.2547C152.871 77.9918 153.09 77.7886 153.368 77.6452C153.647 77.5018 153.982 77.4302 154.372 77.4302C154.763 77.4302 155.097 77.5138 155.376 77.6811C155.655 77.8404 155.87 78.0635 156.021 78.3503C156.197 78.0476 156.444 77.8205 156.762 77.6691C157.081 77.5098 157.451 77.4302 157.874 77.4302C158.519 77.4302 159.021 77.6134 159.379 77.9798C159.746 78.3463 159.929 78.9159 159.929 79.6886V83.166H158.638ZM164.286 83.2855C163.856 83.2855 163.454 83.2218 163.079 83.0943C162.713 82.9669 162.39 82.7836 162.112 82.5446C161.841 82.2977 161.626 81.991 161.466 81.6245C161.315 81.258 161.239 80.8358 161.239 80.3578C161.239 79.9117 161.311 79.5094 161.454 79.1509C161.606 78.7845 161.809 78.4738 162.064 78.2188C162.327 77.9639 162.629 77.7687 162.972 77.6333C163.322 77.4979 163.701 77.4302 164.107 77.4302C164.521 77.4302 164.896 77.4939 165.23 77.6213C165.573 77.7408 165.864 77.9081 166.103 78.1232C166.342 78.3383 166.525 78.5972 166.652 78.9C166.788 79.1947 166.856 79.5174 166.856 79.8679C166.856 80.0033 166.836 80.1547 166.796 80.322C166.764 80.4813 166.716 80.6128 166.652 80.7163H162.554C162.609 81.2023 162.801 81.5727 163.127 81.8276C163.454 82.0746 163.88 82.1981 164.406 82.1981C164.764 82.1981 165.083 82.1463 165.362 82.0427C165.649 81.9312 165.924 81.7798 166.186 81.5887L166.617 82.5207C165.971 83.0306 165.195 83.2855 164.286 83.2855ZM164.143 78.4817C163.753 78.4817 163.41 78.5972 163.115 78.8283C162.829 79.0593 162.641 79.378 162.554 79.7842H165.517C165.533 79.7364 165.541 79.6966 165.541 79.6647C165.541 79.3142 165.426 79.0314 165.195 78.8163C164.964 78.5933 164.613 78.4817 164.143 78.4817Z" fill="#151A1A"/>
</g>
</g>
<g clip-path="url(#clip1_3110_61104)">
<rect x="200.99" y="63.4844" width="119.698" height="31.3639" rx="8.53551" fill="#EDF3F7"/>
<g filter="url(#filter2_dd_3110_61104)">
<path d="M202.697 76.3597C202.697 72.4504 202.697 70.4958 203.458 69.0026C204.127 67.6892 205.195 66.6214 206.508 65.9522C208.001 65.1914 209.956 65.1914 213.865 65.1914H248.671C252.58 65.1914 254.534 65.1914 256.028 65.9522C257.341 66.6214 258.409 67.6892 259.078 69.0026C259.839 70.4958 259.839 72.4504 259.839 76.3596V81.9729C259.839 85.8821 259.839 87.8368 259.078 89.3299C258.409 90.6433 257.341 91.7111 256.028 92.3803C254.534 93.1411 252.58 93.1411 248.671 93.1411H213.865C209.956 93.1411 208.001 93.1411 206.508 92.3803C205.195 91.7111 204.127 90.6433 203.458 89.3299C202.697 87.8368 202.697 85.8821 202.697 81.9729V76.3597Z" fill="white"/>
<path d="M248.671 64.978H213.865H213.855C211.909 64.978 210.436 64.978 209.263 65.0738C208.086 65.17 207.193 65.3638 206.411 65.7621C205.058 66.4517 203.957 67.5522 203.267 68.9058C202.869 69.6874 202.675 70.5806 202.579 71.7577C202.483 72.9304 202.483 74.4035 202.483 76.3496V76.3597V81.9729V81.983C202.483 83.9291 202.483 85.4022 202.579 86.5748C202.675 87.752 202.869 88.6451 203.267 89.4268C203.957 90.7803 205.058 91.8808 206.411 92.5705C207.193 92.9687 208.086 93.1625 209.263 93.2587C210.436 93.3545 211.909 93.3545 213.855 93.3545H213.865H248.671H248.681C250.627 93.3545 252.1 93.3545 253.273 93.2587C254.45 93.1625 255.343 92.9687 256.124 92.5705C257.478 91.8808 258.578 90.7803 259.268 89.4268C259.666 88.6451 259.86 87.752 259.956 86.5748C260.052 85.4022 260.052 83.9291 260.052 81.9831V81.9729V76.3596V76.3494C260.052 74.4034 260.052 72.9303 259.956 71.7577C259.86 70.5806 259.666 69.6874 259.268 68.9058C258.578 67.5522 257.478 66.4517 256.124 65.7621C255.343 65.3638 254.45 65.17 253.273 65.0738C252.1 64.978 250.627 64.978 248.681 64.978H248.671Z" stroke="black" stroke-opacity="0.04" stroke-width="0.426776"/>
<path d="M223.209 83.2855C222.651 83.2855 222.142 83.2058 221.68 83.0465C221.217 82.8792 220.759 82.6044 220.305 82.222L220.831 81.1585C221.261 81.4931 221.672 81.736 222.062 81.8874C222.452 82.0388 222.835 82.1144 223.209 82.1144C223.759 82.1144 224.177 82.0069 224.464 81.7918C224.759 81.5767 224.906 81.274 224.906 80.8836C224.906 80.6128 224.814 80.3857 224.631 80.2025C224.456 80.0113 224.193 79.8838 223.842 79.8201L222.6 79.5811C221.875 79.4457 221.349 79.2027 221.022 78.8522C220.704 78.5016 220.544 78.0715 220.544 77.5616C220.544 77.219 220.6 76.8964 220.712 76.5937C220.831 76.2909 221.006 76.0281 221.237 75.805C221.468 75.574 221.763 75.3947 222.122 75.2673C222.48 75.1318 222.902 75.0641 223.388 75.0641C223.858 75.0641 224.312 75.1318 224.751 75.2673C225.197 75.3947 225.635 75.6257 226.065 75.9603L225.539 77.0239C225.181 76.7769 224.826 76.5857 224.476 76.4503C224.133 76.3069 223.779 76.2352 223.412 76.2352C222.918 76.2352 222.548 76.3387 222.301 76.5459C222.062 76.745 221.942 77.0199 221.942 77.3704C221.942 77.6413 222.03 77.8564 222.205 78.0157C222.389 78.1671 222.655 78.2746 223.006 78.3383L224.249 78.5773C224.607 78.6411 224.914 78.7446 225.169 78.888C225.432 79.0234 225.647 79.1868 225.814 79.378C225.981 79.5692 226.105 79.7842 226.185 80.0232C226.264 80.2543 226.304 80.4933 226.304 80.7402C226.304 81.513 226.041 82.1304 225.515 82.5924C224.99 83.0545 224.221 83.2855 223.209 83.2855ZM231.44 83.2855C230.803 83.2855 230.229 83.1859 229.719 82.9868C229.217 82.7796 228.787 82.4928 228.429 82.1264C228.07 81.7599 227.795 81.3258 227.604 80.8239C227.413 80.322 227.317 79.7723 227.317 79.1748C227.317 78.5773 227.413 78.0276 227.604 77.5257C227.795 77.0239 228.07 76.5897 228.429 76.2232C228.787 75.8568 229.217 75.574 229.719 75.3748C230.229 75.1677 230.803 75.0641 231.44 75.0641C232.069 75.0641 232.639 75.1677 233.149 75.3748C233.659 75.574 234.093 75.8568 234.451 76.2232C234.81 76.5897 235.085 77.0239 235.276 77.5257C235.467 78.0276 235.563 78.5773 235.563 79.1748C235.563 79.7723 235.467 80.322 235.276 80.8239C235.085 81.3258 234.81 81.7599 234.451 82.1264C234.093 82.4928 233.659 82.7796 233.149 82.9868C232.639 83.1859 232.069 83.2855 231.44 83.2855ZM231.44 82.0786C231.854 82.0786 232.229 82.0109 232.563 81.8754C232.898 81.732 233.185 81.5329 233.424 81.278C233.663 81.023 233.846 80.7163 233.973 80.3578C234.101 79.9993 234.165 79.605 234.165 79.1748C234.165 78.7446 234.101 78.3503 233.973 77.9918C233.846 77.6333 233.663 77.3266 233.424 77.0717C233.185 76.8167 232.898 76.6216 232.563 76.4861C232.229 76.3427 231.854 76.271 231.44 76.271C231.026 76.271 230.651 76.3427 230.317 76.4861C229.982 76.6216 229.695 76.8167 229.456 77.0717C229.217 77.3266 229.034 77.6333 228.907 77.9918C228.779 78.3503 228.715 78.7446 228.715 79.1748C228.715 79.605 228.779 79.9993 228.907 80.3578C229.034 80.7163 229.217 81.023 229.456 81.278C229.695 81.5329 229.982 81.732 230.317 81.8754C230.651 82.0109 231.026 82.0786 231.44 82.0786ZM236.94 83.166V75.1836H238.314V81.9591H241.959V83.166H236.94Z" fill="#151A1A"/>
</g>
<path d="M281.212 83.2855C280.686 83.2855 280.212 83.2178 279.79 83.0824C279.367 82.9469 279.009 82.7398 278.714 82.461C278.419 82.1822 278.192 81.8316 278.033 81.4094C277.882 80.9872 277.806 80.4853 277.806 79.9037V75.1836H279.18V79.9037C279.18 80.6606 279.355 81.2142 279.706 81.5648C280.064 81.9073 280.566 82.0786 281.212 82.0786C281.857 82.0786 282.355 81.9073 282.705 81.5648C283.064 81.2142 283.243 80.6606 283.243 79.9037V75.1836H284.617V79.9037C284.617 80.4853 284.538 80.9872 284.378 81.4094C284.227 81.8316 284.004 82.1822 283.709 82.461C283.414 82.7398 283.056 82.9469 282.634 83.0824C282.211 83.2178 281.737 83.2855 281.212 83.2855ZM288.892 83.2855C288.334 83.2855 287.824 83.2058 287.362 83.0465C286.9 82.8792 286.442 82.6044 285.988 82.222L286.514 81.1585C286.944 81.4931 287.354 81.736 287.745 81.8874C288.135 82.0388 288.518 82.1144 288.892 82.1144C289.442 82.1144 289.86 82.0069 290.147 81.7918C290.441 81.5767 290.589 81.274 290.589 80.8836C290.589 80.6128 290.497 80.3857 290.314 80.2025C290.139 80.0113 289.876 79.8838 289.525 79.8201L288.283 79.5811C287.558 79.4457 287.032 79.2027 286.705 78.8522C286.387 78.5016 286.227 78.0715 286.227 77.5616C286.227 77.219 286.283 76.8964 286.394 76.5937C286.514 76.2909 286.689 76.0281 286.92 75.805C287.151 75.574 287.446 75.3947 287.805 75.2673C288.163 75.1318 288.585 75.0641 289.071 75.0641C289.541 75.0641 289.995 75.1318 290.433 75.2673C290.88 75.3947 291.318 75.6257 291.748 75.9603L291.222 77.0239C290.864 76.7769 290.509 76.5857 290.159 76.4503C289.816 76.3069 289.462 76.2352 289.095 76.2352C288.601 76.2352 288.231 76.3387 287.984 76.5459C287.745 76.745 287.625 77.0199 287.625 77.3704C287.625 77.6413 287.713 77.8564 287.888 78.0157C288.071 78.1671 288.338 78.2746 288.689 78.3383L289.932 78.5773C290.29 78.6411 290.597 78.7446 290.852 78.888C291.115 79.0234 291.33 79.1868 291.497 79.378C291.664 79.5692 291.788 79.7842 291.867 80.0232C291.947 80.2543 291.987 80.4933 291.987 80.7402C291.987 81.513 291.724 82.1304 291.198 82.5924C290.672 83.0545 289.904 83.2855 288.892 83.2855ZM300.409 79.1748C300.409 80.4972 300.047 81.4931 299.322 82.1622C298.597 82.8314 297.545 83.166 296.167 83.166H293.359V75.1836H296.167C297.545 75.1836 298.597 75.5182 299.322 76.1874C300.047 76.8566 300.409 77.8524 300.409 79.1748ZM299.011 79.1748C299.011 78.2348 298.784 77.5297 298.33 77.0597C297.876 76.5897 297.135 76.3547 296.107 76.3547H294.733V81.9949H296.107C297.135 81.9949 297.876 81.7639 298.33 81.3019C298.784 80.8318 299.011 80.1228 299.011 79.1748Z" fill="#151A1A"/>
</g>
<line x1="-77.6948" y1="115.334" x2="320.06" y2="115.334" stroke="#E9ECF2" stroke-width="0.853551" stroke-linecap="round"/>
<line x1="-77.6948" y1="148.812" x2="320.06" y2="148.812" stroke="#D8DEEB" stroke-width="0.853551" stroke-linecap="round" stroke-dasharray="3.41 3.41"/>
<line x1="-77.6948" y1="182.291" x2="320.06" y2="182.291" stroke="#E9ECF2" stroke-width="0.853551" stroke-linecap="round"/>
<line x1="-77.6948" y1="215.77" x2="320.06" y2="215.77" stroke="#E9ECF2" stroke-width="0.853551" stroke-linecap="round"/>
<line x1="-77.6948" y1="251.381" x2="320.06" y2="251.381" stroke="#E9ECF2" stroke-width="0.853551" stroke-linecap="round"/>
<path d="M-45.6017 236.965V251.475H-62.4082L-75.561 252.328V275.374H321.217V213.065L306.603 214.345L291.989 213.492L274.452 214.345L259.837 215.199L245.223 213.919L228.417 214.772V224.161L218.917 226.295L209.418 227.149L195.534 226.295L183.112 227.149V236.111L177.997 236.538L172.151 236.111L166.306 237.391V247.207L157.903 246.78L149.499 247.634V174.655H139.478L129.456 175.509V184.471L114.268 185.751L99.0799 185.325V195.994L85.1963 195.567L71.3127 195.994V203.676L66.1977 206.023L58.1599 206.663L47.9299 207.944V213.492H39.1613L30.3927 214.772L17.9705 216.053V225.015L12.1248 225.442L1.89479 225.015L-11.2581 226.295V235.684L-20.7574 236.965L-31.7181 236.111L-45.6017 236.965Z" fill="url(#paint1_linear_3110_61104)"/>
<path d="M-75.561 252.328L-62.4082 251.475H-45.6017V236.965L-31.7181 236.111L-20.7574 236.965L-11.2581 235.684V226.295L1.89479 225.015L12.1248 225.442L17.9705 225.015V216.053L30.3927 214.772L39.1613 213.492H47.9299V207.944L58.1599 206.663L66.1977 206.023L71.3127 203.676V195.994L85.1963 195.567L99.0799 195.994V185.325L114.268 185.751L129.456 184.471V175.509L139.478 174.655H149.499V247.634L157.903 246.78L166.306 247.207V237.391L172.151 236.111L177.997 236.538L183.112 236.111V227.149L195.534 226.295L209.418 227.149L218.917 226.295L228.417 224.161V214.772L245.223 213.919L259.837 215.199L274.452 214.345L291.989 213.492L306.603 214.345L321.217 213.065" stroke="#308D8A" stroke-width="1.7071" stroke-linecap="round" stroke-linejoin="round"/>
<circle cx="148.636" cy="175.51" r="4.69453" fill="#EB8302" stroke="white" stroke-width="0.853551"/>
<circle cx="17.9328" cy="215.626" r="4.69453" fill="#308D8A" stroke="white" stroke-width="0.853551"/>
<circle cx="48.9758" cy="206.238" r="4.69453" fill="#308D8A" stroke="white" stroke-width="0.853551"/>
<circle cx="72.1032" cy="195.994" r="4.69453" fill="#308D8A" stroke="white" stroke-width="0.853551"/>
<circle cx="98.5637" cy="185.752" r="4.69453" fill="#308D8A" stroke="white" stroke-width="0.853551"/>
<circle cx="130.145" cy="175.51" r="4.69453" fill="#308D8A" stroke="white" stroke-width="0.853551"/>
<circle cx="166.847" cy="236.965" r="4.69453" fill="#308D8A" stroke="white" stroke-width="0.853551"/>
<circle cx="183.918" cy="226.722" r="4.69453" fill="#308D8A" stroke="white" stroke-width="0.853551"/>
<circle cx="229.156" cy="215.626" r="4.69453" fill="#308D8A" stroke="white" stroke-width="0.853551"/>
</g>
</g>
<g filter="url(#filter3_dddd_3110_61104)">
<rect x="160.811" y="34.5049" width="199.19" height="129.282" rx="17.2376" fill="white"/>
<rect x="172.302" y="45.9971" width="176.206" height="30.6446" rx="6.7035" fill="#49A6A3" fill-opacity="0.15"/>
<path d="M192.452 55.4336H188.666C187.749 55.4336 187.006 56.2024 187.006 57.1507V66.1658C187.006 67.1142 187.749 67.8829 188.666 67.8829H195.72C196.637 67.8829 197.38 67.1142 197.38 66.1658V61.3989H194.268C193.265 61.3989 192.452 60.5861 192.452 59.5834V55.4336Z" fill="#308D8A"/>
<path d="M197.38 59.8427V59.502C197.38 59.2329 197.276 58.9744 197.089 58.781L194.009 55.5946V59.5834C194.009 59.7266 194.125 59.8427 194.268 59.8427H197.38Z" fill="#308D8A"/>
<path d="M207.783 65.3193V56.3635H214.084V57.6773H209.325V60.0906H213.682V61.3241H209.325V64.0055H214.084V65.3193H207.783ZM219.912 65.3193L218.276 63.0267L216.641 65.3193H214.992L217.351 62.0614L215.126 59.018H216.775L218.276 61.19L219.778 59.018H221.427L219.201 62.0614L221.561 65.3193H219.912ZM226.283 65.4534C225.8 65.4534 225.38 65.364 225.023 65.1853C224.665 65.0065 224.384 64.7696 224.178 64.4747V67.7594H222.73V59.018H224.124V59.9565C224.321 59.6348 224.603 59.3756 224.969 59.1789C225.336 58.9823 225.773 58.884 226.283 58.884C226.712 58.884 227.11 58.9599 227.476 59.1119C227.843 59.2638 228.16 59.4828 228.428 59.7688C228.705 60.0459 228.92 60.39 229.072 60.8012C229.224 61.2034 229.3 61.6592 229.3 62.1687C229.3 62.6782 229.224 63.1385 229.072 63.5496C228.92 63.9518 228.705 64.2959 228.428 64.582C228.16 64.859 227.843 65.0735 227.476 65.2255C227.11 65.3774 226.712 65.4534 226.283 65.4534ZM225.961 64.1931C226.506 64.1931 226.949 64.0144 227.288 63.6569C227.637 63.2904 227.811 62.7944 227.811 62.1687C227.811 61.543 227.637 61.0514 227.288 60.6939C226.949 60.3275 226.506 60.1442 225.961 60.1442C225.425 60.1442 224.982 60.3275 224.634 60.6939C224.294 61.0514 224.124 61.543 224.124 62.1687C224.124 62.7944 224.294 63.2904 224.634 63.6569C224.982 64.0144 225.425 64.1931 225.961 64.1931ZM233.797 65.4534C233.306 65.4534 232.854 65.3774 232.443 65.2255C232.032 65.0646 231.679 64.8412 231.384 64.5551C231.089 64.2691 230.857 63.925 230.687 63.5228C230.526 63.1206 230.445 62.6692 230.445 62.1687C230.445 61.6771 230.526 61.2302 230.687 60.828C230.857 60.4168 231.089 60.0683 231.384 59.7822C231.679 59.4962 232.032 59.2772 232.443 59.1253C232.854 58.9644 233.306 58.884 233.797 58.884C234.289 58.884 234.74 58.9644 235.151 59.1253C235.562 59.2772 235.915 59.4962 236.21 59.7822C236.505 60.0683 236.733 60.4168 236.894 60.828C237.064 61.2302 237.149 61.6771 237.149 62.1687C237.149 62.6692 237.064 63.1206 236.894 63.5228C236.733 63.925 236.505 64.2691 236.21 64.5551C235.915 64.8412 235.562 65.0646 235.151 65.2255C234.74 65.3774 234.289 65.4534 233.797 65.4534ZM233.797 64.1931C234.36 64.1931 234.812 64.0144 235.151 63.6569C235.5 63.2904 235.674 62.7944 235.674 62.1687C235.674 61.543 235.5 61.0514 235.151 60.6939C234.812 60.3275 234.36 60.1442 233.797 60.1442C233.234 60.1442 232.778 60.3275 232.43 60.6939C232.09 61.0514 231.92 61.543 231.92 62.1687C231.92 62.7944 232.09 63.2904 232.43 63.6569C232.778 64.0144 233.234 64.1931 233.797 64.1931ZM238.622 65.3193V59.018H240.016V60.0772C240.186 59.6929 240.418 59.4068 240.713 59.2192C241.017 59.0315 241.357 58.9376 241.732 58.9376C241.848 58.9376 241.955 58.9465 242.054 58.9644C242.161 58.9734 242.241 58.9912 242.295 59.018V60.399C242.17 60.3722 242.045 60.3498 241.92 60.3319C241.804 60.3141 241.683 60.3051 241.558 60.3051C241.129 60.3051 240.771 60.4749 240.485 60.8146C240.208 61.1542 240.07 61.6413 240.07 62.2759V65.3193H238.622ZM246.317 65.3998C245.62 65.3998 245.106 65.2434 244.775 64.9305C244.454 64.6088 244.293 64.1127 244.293 63.4424V60.2381H242.939V59.018H244.293V57.2215H245.741V59.018H247.35V60.2381H245.741V63.3217C245.741 63.8937 246.036 64.1797 246.626 64.1797C246.733 64.1797 246.858 64.1753 247.001 64.1663C247.144 64.1574 247.26 64.144 247.35 64.1261V65.2791C247.224 65.3149 247.068 65.3417 246.88 65.3596C246.693 65.3864 246.505 65.3998 246.317 65.3998ZM253.838 65.4534C253.499 65.4534 253.186 65.4132 252.9 65.3327C252.614 65.2523 252.368 65.1316 252.162 64.9708C251.957 64.8099 251.796 64.6132 251.68 64.3808C251.563 64.1395 251.505 63.8669 251.505 63.563C251.505 63.2591 251.563 62.9955 251.68 62.772C251.796 62.5486 251.957 62.3609 252.162 62.2089C252.368 62.048 252.614 61.9229 252.9 61.8335C253.186 61.7352 253.499 61.6637 253.838 61.619L255.997 61.3509C255.943 60.9218 255.773 60.609 255.487 60.4124C255.201 60.2157 254.853 60.1174 254.442 60.1174C254.138 60.1174 253.825 60.1755 253.503 60.2917C253.19 60.399 252.846 60.5777 252.471 60.828L251.961 59.7554C252.337 59.4784 252.739 59.2638 253.168 59.1119C253.597 58.9599 254.039 58.884 254.495 58.884C255.469 58.884 256.207 59.103 256.707 59.5409C257.217 59.9699 257.472 60.6179 257.472 61.4849V65.3193H256.077V64.4747C255.603 65.1272 254.857 65.4534 253.838 65.4534ZM254.227 64.2736C254.513 64.2736 254.768 64.2289 254.991 64.1395C255.215 64.0501 255.402 63.9295 255.554 63.7775C255.706 63.6256 255.822 63.4558 255.903 63.2681C255.983 63.0714 256.024 62.8659 256.024 62.6513V62.3966L254.281 62.6245C253.852 62.6871 253.525 62.7809 253.302 62.9061C253.087 63.0312 252.98 63.2278 252.98 63.496C252.98 63.7462 253.087 63.9384 253.302 64.0725C253.525 64.2066 253.834 64.2736 254.227 64.2736ZM261.555 65.4534C261.072 65.4534 260.616 65.3819 260.187 65.2389C259.758 65.0959 259.343 64.8858 258.941 64.6088L259.504 63.5094C260.29 64.0278 260.983 64.287 261.582 64.287C262.413 64.287 262.829 64.0412 262.829 63.5496C262.829 63.344 262.762 63.1921 262.627 63.0938C262.502 62.9865 262.274 62.9061 261.944 62.8524L260.952 62.6648C259.745 62.4413 259.142 61.8693 259.142 60.9487C259.142 60.6716 259.191 60.4079 259.289 60.1576C259.396 59.9074 259.553 59.6884 259.758 59.5007C259.973 59.313 260.241 59.1655 260.563 59.0583C260.885 58.9421 261.26 58.884 261.689 58.884C262.145 58.884 262.578 58.951 262.989 59.0851C263.401 59.2102 263.772 59.389 264.102 59.6214L263.566 60.6805C263.28 60.5018 262.98 60.3543 262.668 60.2381C262.364 60.113 262.055 60.0504 261.743 60.0504C261.394 60.0504 261.117 60.1085 260.911 60.2247C260.715 60.3409 260.616 60.5241 260.616 60.7744C260.616 60.9352 260.679 61.0648 260.804 61.1632C260.929 61.2525 261.139 61.3241 261.434 61.3777L262.426 61.5654C263.034 61.6816 263.499 61.8827 263.821 62.1687C264.142 62.4547 264.303 62.8614 264.303 63.3887C264.303 63.9876 264.071 64.4836 263.606 64.8769C263.141 65.2612 262.458 65.4534 261.555 65.4534ZM273.186 65.4534C272.471 65.4534 271.827 65.3417 271.255 65.1182C270.692 64.8858 270.21 64.5641 269.807 64.1529C269.405 63.7418 269.097 63.2547 268.882 62.6916C268.668 62.1285 268.561 61.5117 268.561 60.8414C268.561 60.171 268.668 59.5543 268.882 58.9912C269.097 58.4281 269.405 57.941 269.807 57.5299C270.21 57.1187 270.692 56.8014 271.255 56.578C271.827 56.3456 272.471 56.2294 273.186 56.2294C273.794 56.2294 274.348 56.3143 274.848 56.4841C275.358 56.645 275.845 56.8953 276.31 57.2349L275.72 58.4147C275.318 58.1377 274.911 57.9321 274.5 57.798C274.089 57.655 273.651 57.5835 273.186 57.5835C272.721 57.5835 272.301 57.6639 271.926 57.8248C271.55 57.9768 271.229 58.1957 270.96 58.4818C270.692 58.7678 270.487 59.1119 270.344 59.5141C270.201 59.9163 270.129 60.3587 270.129 60.8414C270.129 61.3241 270.201 61.7665 270.344 62.1687C270.487 62.5709 270.692 62.915 270.96 63.201C271.229 63.487 271.55 63.7105 271.926 63.8714C272.301 64.0233 272.721 64.0993 273.186 64.0993C273.651 64.0993 274.089 64.0323 274.5 63.8982C274.911 63.7552 275.318 63.5451 275.72 63.2681L276.31 64.4479C275.845 64.7875 275.358 65.0423 274.848 65.2121C274.348 65.373 273.794 65.4534 273.186 65.4534ZM280.615 65.4534C279.99 65.4534 279.418 65.364 278.899 65.1853C278.381 64.9976 277.867 64.6892 277.357 64.2602L277.947 63.067C278.43 63.4424 278.89 63.715 279.328 63.8848C279.766 64.0546 280.195 64.1395 280.615 64.1395C281.232 64.1395 281.701 64.0189 282.023 63.7775C282.354 63.5362 282.519 63.1966 282.519 62.7586C282.519 62.4547 282.416 62.2 282.211 61.9944C282.014 61.7799 281.719 61.6369 281.326 61.5654L279.931 61.2972C279.118 61.1453 278.528 60.8727 278.162 60.4794C277.804 60.0861 277.625 59.6035 277.625 59.0315C277.625 58.6471 277.688 58.2851 277.813 57.9455C277.947 57.6058 278.144 57.3109 278.403 57.0606C278.662 56.8014 278.993 56.6003 279.395 56.4573C279.797 56.3054 280.271 56.2294 280.816 56.2294C281.344 56.2294 281.853 56.3054 282.345 56.4573C282.845 56.6003 283.337 56.8595 283.82 57.2349L283.23 58.4281C282.827 58.1511 282.43 57.9365 282.036 57.7846C281.652 57.6237 281.254 57.5433 280.843 57.5433C280.289 57.5433 279.873 57.6595 279.596 57.8919C279.328 58.1153 279.194 58.4237 279.194 58.8169C279.194 59.1208 279.292 59.3622 279.489 59.5409C279.695 59.7107 279.994 59.8314 280.387 59.9029L281.782 60.171C282.184 60.2426 282.528 60.3587 282.814 60.5196C283.109 60.6716 283.35 60.8548 283.538 61.0693C283.726 61.2838 283.864 61.5252 283.954 61.7933C284.043 62.0525 284.088 62.3206 284.088 62.5977C284.088 63.4647 283.793 64.1574 283.203 64.6758C282.613 65.1942 281.75 65.4534 280.615 65.4534ZM288.234 65.3193L284.654 56.3635H286.357L289.078 63.563L291.787 56.3635H293.503L289.923 65.3193H288.234Z" fill="#308D8A"/>
<path d="M192.452 86.0781H188.666C187.749 86.0781 187.006 86.8469 187.006 87.7953V96.8103C187.006 97.7587 187.749 98.5275 188.666 98.5275H195.72C196.637 98.5275 197.38 97.7587 197.38 96.8103V92.0434H194.268C193.265 92.0434 192.452 91.2306 192.452 90.2279V86.0781Z" fill="#8596A1"/>
<path d="M197.38 90.4873V90.1465C197.38 89.8775 197.276 89.6189 197.089 89.4255L194.009 86.2391V90.2279C194.009 90.3712 194.125 90.4873 194.268 90.4873H197.38Z" fill="#8596A1"/>
<path d="M207.783 95.9639V87.008H214.084V88.3219H209.325V90.7351H213.682V91.9686H209.325V94.65H214.084V95.9639H207.783ZM219.912 95.9639L218.276 93.6713L216.641 95.9639H214.992L217.351 92.706L215.126 89.6626H216.775L218.276 91.8345L219.778 89.6626H221.427L219.201 92.706L221.561 95.9639H219.912ZM226.283 96.0979C225.8 96.0979 225.38 96.0086 225.023 95.8298C224.665 95.651 224.384 95.4142 224.178 95.1192V98.4039H222.73V89.6626H224.124V90.6011C224.321 90.2793 224.603 90.0201 224.969 89.8235C225.336 89.6268 225.773 89.5285 226.283 89.5285C226.712 89.5285 227.11 89.6045 227.476 89.7564C227.843 89.9084 228.16 90.1274 228.428 90.4134C228.705 90.6904 228.92 91.0346 229.072 91.4457C229.224 91.8479 229.3 92.3038 229.3 92.8132C229.3 93.3227 229.224 93.783 229.072 94.1941C228.92 94.5964 228.705 94.9405 228.428 95.2265C228.16 95.5036 227.843 95.7181 227.476 95.87C227.11 96.022 226.712 96.0979 226.283 96.0979ZM225.961 94.8377C226.506 94.8377 226.949 94.6589 227.288 94.3014C227.637 93.9349 227.811 93.4389 227.811 92.8132C227.811 92.1876 227.637 91.696 227.288 91.3385C226.949 90.972 226.506 90.7888 225.961 90.7888C225.425 90.7888 224.982 90.972 224.634 91.3385C224.294 91.696 224.124 92.1876 224.124 92.8132C224.124 93.4389 224.294 93.9349 224.634 94.3014C224.982 94.6589 225.425 94.8377 225.961 94.8377ZM233.797 96.0979C233.306 96.0979 232.854 96.022 232.443 95.87C232.032 95.7091 231.679 95.4857 231.384 95.1997C231.089 94.9137 230.857 94.5695 230.687 94.1673C230.526 93.7651 230.445 93.3138 230.445 92.8132C230.445 92.3216 230.526 91.8747 230.687 91.4725C230.857 91.0614 231.089 90.7128 231.384 90.4268C231.679 90.1408 232.032 89.9218 232.443 89.7698C232.854 89.6089 233.306 89.5285 233.797 89.5285C234.289 89.5285 234.74 89.6089 235.151 89.7698C235.562 89.9218 235.915 90.1408 236.21 90.4268C236.505 90.7128 236.733 91.0614 236.894 91.4725C237.064 91.8747 237.149 92.3216 237.149 92.8132C237.149 93.3138 237.064 93.7651 236.894 94.1673C236.733 94.5695 236.505 94.9137 236.21 95.1997C235.915 95.4857 235.562 95.7091 235.151 95.87C234.74 96.022 234.289 96.0979 233.797 96.0979ZM233.797 94.8377C234.36 94.8377 234.812 94.6589 235.151 94.3014C235.5 93.9349 235.674 93.4389 235.674 92.8132C235.674 92.1876 235.5 91.696 235.151 91.3385C234.812 90.972 234.36 90.7888 233.797 90.7888C233.234 90.7888 232.778 90.972 232.43 91.3385C232.09 91.696 231.92 92.1876 231.92 92.8132C231.92 93.4389 232.09 93.9349 232.43 94.3014C232.778 94.6589 233.234 94.8377 233.797 94.8377ZM238.622 95.9639V89.6626H240.016V90.7217C240.186 90.3374 240.418 90.0514 240.713 89.8637C241.017 89.676 241.357 89.5821 241.732 89.5821C241.848 89.5821 241.955 89.5911 242.054 89.6089C242.161 89.6179 242.241 89.6358 242.295 89.6626V91.0435C242.17 91.0167 242.045 90.9943 241.92 90.9765C241.804 90.9586 241.683 90.9496 241.558 90.9496C241.129 90.9496 240.771 91.1195 240.485 91.4591C240.208 91.7988 240.07 92.2859 240.07 92.9205V95.9639H238.622ZM246.317 96.0443C245.62 96.0443 245.106 95.8879 244.775 95.5751C244.454 95.2533 244.293 94.7572 244.293 94.0869V90.8826H242.939V89.6626H244.293V87.866H245.741V89.6626H247.35V90.8826H245.741V93.9662C245.741 94.5383 246.036 94.8243 246.626 94.8243C246.733 94.8243 246.858 94.8198 247.001 94.8109C247.144 94.8019 247.26 94.7885 247.35 94.7706V95.9236C247.224 95.9594 247.068 95.9862 246.88 96.0041C246.693 96.0309 246.505 96.0443 246.317 96.0443ZM253.838 96.0979C253.499 96.0979 253.186 96.0577 252.9 95.9773C252.614 95.8968 252.368 95.7762 252.162 95.6153C251.957 95.4544 251.796 95.2578 251.68 95.0254C251.563 94.7841 251.505 94.5114 251.505 94.2076C251.505 93.9037 251.563 93.64 251.68 93.4165C251.796 93.1931 251.957 93.0054 252.162 92.8534C252.368 92.6926 252.614 92.5674 252.9 92.478C253.186 92.3797 253.499 92.3082 253.838 92.2635L255.997 91.9954C255.943 91.5664 255.773 91.2535 255.487 91.0569C255.201 90.8603 254.853 90.762 254.442 90.762C254.138 90.762 253.825 90.82 253.503 90.9362C253.19 91.0435 252.846 91.2223 252.471 91.4725L251.961 90.4C252.337 90.1229 252.739 89.9084 253.168 89.7564C253.597 89.6045 254.039 89.5285 254.495 89.5285C255.469 89.5285 256.207 89.7475 256.707 90.1855C257.217 90.6145 257.472 91.2625 257.472 92.1295V95.9639H256.077V95.1192C255.603 95.7717 254.857 96.0979 253.838 96.0979ZM254.227 94.9181C254.513 94.9181 254.768 94.8734 254.991 94.7841C255.215 94.6947 255.402 94.574 255.554 94.4221C255.706 94.2701 255.822 94.1003 255.903 93.9126C255.983 93.716 256.024 93.5104 256.024 93.2959V93.0411L254.281 93.2691C253.852 93.3316 253.525 93.4255 253.302 93.5506C253.087 93.6757 252.98 93.8724 252.98 94.1405C252.98 94.3908 253.087 94.5829 253.302 94.717C253.525 94.8511 253.834 94.9181 254.227 94.9181ZM261.555 96.0979C261.072 96.0979 260.616 96.0264 260.187 95.8834C259.758 95.7404 259.343 95.5304 258.941 95.2533L259.504 94.1539C260.29 94.6723 260.983 94.9315 261.582 94.9315C262.413 94.9315 262.829 94.6857 262.829 94.1941C262.829 93.9886 262.762 93.8366 262.627 93.7383C262.502 93.631 262.274 93.5506 261.944 93.497L260.952 93.3093C259.745 93.0858 259.142 92.5138 259.142 91.5932C259.142 91.3161 259.191 91.0524 259.289 90.8022C259.396 90.5519 259.553 90.3329 259.758 90.1452C259.973 89.9575 260.241 89.8101 260.563 89.7028C260.885 89.5866 261.26 89.5285 261.689 89.5285C262.145 89.5285 262.578 89.5955 262.989 89.7296C263.401 89.8547 263.772 90.0335 264.102 90.2659L263.566 91.325C263.28 91.1463 262.98 90.9988 262.668 90.8826C262.364 90.7575 262.055 90.6949 261.743 90.6949C261.394 90.6949 261.117 90.753 260.911 90.8692C260.715 90.9854 260.616 91.1686 260.616 91.4189C260.616 91.5798 260.679 91.7094 260.804 91.8077C260.929 91.8971 261.139 91.9686 261.434 92.0222L262.426 92.2099C263.034 92.3261 263.499 92.5272 263.821 92.8132C264.142 93.0992 264.303 93.5059 264.303 94.0333C264.303 94.6321 264.071 95.1282 263.606 95.5214C263.141 95.9058 262.458 96.0979 261.555 96.0979ZM275.009 95.9639L272.529 92.4512L270.049 95.9639H268.239L271.55 91.3519L268.373 87.008H270.183L272.529 90.2659L274.875 87.008H276.685L273.494 91.3519L276.819 95.9639H275.009ZM278.048 95.9639V87.008H279.589V94.6098H283.679V95.9639H278.048ZM288.037 96.0979C287.412 96.0979 286.84 96.0086 286.321 95.8298C285.803 95.6421 285.289 95.3337 284.779 94.9047L285.369 93.7115C285.852 94.0869 286.312 94.3595 286.75 94.5293C287.188 94.6991 287.617 94.7841 288.037 94.7841C288.654 94.7841 289.123 94.6634 289.445 94.4221C289.776 94.1807 289.941 93.8411 289.941 93.4031C289.941 93.0992 289.838 92.8445 289.633 92.6389C289.436 92.4244 289.141 92.2814 288.748 92.2099L287.354 91.9418C286.54 91.7898 285.95 91.5172 285.584 91.1239C285.226 90.7307 285.048 90.248 285.048 89.676C285.048 89.2917 285.11 88.9297 285.235 88.59C285.369 88.2504 285.566 87.9554 285.825 87.7052C286.084 87.446 286.415 87.2448 286.817 87.1018C287.219 86.9499 287.693 86.8739 288.238 86.8739C288.766 86.8739 289.275 86.9499 289.767 87.1018C290.267 87.2448 290.759 87.5041 291.242 87.8794L290.652 89.0727C290.249 88.7956 289.852 88.5811 289.458 88.4291C289.074 88.2682 288.676 88.1878 288.265 88.1878C287.711 88.1878 287.295 88.304 287.018 88.5364C286.75 88.7598 286.616 89.0682 286.616 89.4615C286.616 89.7654 286.714 90.0067 286.911 90.1855C287.117 90.3553 287.416 90.4759 287.809 90.5474L289.204 90.8156C289.606 90.8871 289.95 91.0033 290.236 91.1642C290.531 91.3161 290.772 91.4993 290.96 91.7138C291.148 91.9284 291.286 92.1697 291.376 92.4378C291.465 92.697 291.51 92.9652 291.51 93.2422C291.51 94.1092 291.215 94.8019 290.625 95.3203C290.035 95.8387 289.172 96.0979 288.037 96.0979ZM298.624 95.9639L296.144 92.4512L293.663 95.9639H291.853L295.165 91.3519L291.988 87.008H293.797L296.144 90.2659L298.49 87.008H300.3L297.109 91.3519L300.434 95.9639H298.624Z" fill="#151A1A"/>
<rect x="181.879" y="113.989" width="157.053" height="0.957643" fill="#E3ECF2"/>
<path d="M192.452 131.087H188.666C187.749 131.087 187.006 131.856 187.006 132.804V141.819C187.006 142.768 187.749 143.536 188.666 143.536H195.72C196.637 143.536 197.38 142.768 197.38 141.819V137.052H194.268C193.265 137.052 192.452 136.239 192.452 135.237V131.087Z" fill="#8596A1"/>
<path d="M197.38 135.496V135.155C197.38 134.886 197.276 134.628 197.089 134.434L194.009 131.248V135.237C194.009 135.38 194.125 135.496 194.268 135.496H197.38Z" fill="#8596A1"/>
<path d="M207.783 140.973V132.017H214.084V133.331H209.325V135.744H213.682V136.977H209.325V139.659H214.084V140.973H207.783ZM219.912 140.973L218.276 138.68L216.641 140.973H214.992L217.351 137.715L215.126 134.671H216.775L218.276 136.843L219.778 134.671H221.427L219.201 137.715L221.561 140.973H219.912ZM226.283 141.107C225.8 141.107 225.38 141.017 225.023 140.839C224.665 140.66 224.384 140.423 224.178 140.128V143.413H222.73V134.671H224.124V135.61C224.321 135.288 224.603 135.029 224.969 134.832C225.336 134.636 225.773 134.537 226.283 134.537C226.712 134.537 227.11 134.613 227.476 134.765C227.843 134.917 228.16 135.136 228.428 135.422C228.705 135.699 228.92 136.043 229.072 136.454C229.224 136.857 229.3 137.313 229.3 137.822C229.3 138.331 229.224 138.792 229.072 139.203C228.92 139.605 228.705 139.949 228.428 140.235C228.16 140.512 227.843 140.727 227.476 140.879C227.11 141.031 226.712 141.107 226.283 141.107ZM225.961 139.846C226.506 139.846 226.949 139.668 227.288 139.31C227.637 138.944 227.811 138.448 227.811 137.822C227.811 137.196 227.637 136.705 227.288 136.347C226.949 135.981 226.506 135.798 225.961 135.798C225.425 135.798 224.982 135.981 224.634 136.347C224.294 136.705 224.124 137.196 224.124 137.822C224.124 138.448 224.294 138.944 224.634 139.31C224.982 139.668 225.425 139.846 225.961 139.846ZM233.797 141.107C233.306 141.107 232.854 141.031 232.443 140.879C232.032 140.718 231.679 140.494 231.384 140.208C231.089 139.922 230.857 139.578 230.687 139.176C230.526 138.774 230.445 138.323 230.445 137.822C230.445 137.33 230.526 136.884 230.687 136.481C230.857 136.07 231.089 135.722 231.384 135.436C231.679 135.15 232.032 134.931 232.443 134.779C232.854 134.618 233.306 134.537 233.797 134.537C234.289 134.537 234.74 134.618 235.151 134.779C235.562 134.931 235.915 135.15 236.21 135.436C236.505 135.722 236.733 136.07 236.894 136.481C237.064 136.884 237.149 137.33 237.149 137.822C237.149 138.323 237.064 138.774 236.894 139.176C236.733 139.578 236.505 139.922 236.21 140.208C235.915 140.494 235.562 140.718 235.151 140.879C234.74 141.031 234.289 141.107 233.797 141.107ZM233.797 139.846C234.36 139.846 234.812 139.668 235.151 139.31C235.5 138.944 235.674 138.448 235.674 137.822C235.674 137.196 235.5 136.705 235.151 136.347C234.812 135.981 234.36 135.798 233.797 135.798C233.234 135.798 232.778 135.981 232.43 136.347C232.09 136.705 231.92 137.196 231.92 137.822C231.92 138.448 232.09 138.944 232.43 139.31C232.778 139.668 233.234 139.846 233.797 139.846ZM238.622 140.973V134.671H240.016V135.731C240.186 135.346 240.418 135.06 240.713 134.872C241.017 134.685 241.357 134.591 241.732 134.591C241.848 134.591 241.955 134.6 242.054 134.618C242.161 134.627 242.241 134.645 242.295 134.671V136.052C242.17 136.025 242.045 136.003 241.92 135.985C241.804 135.967 241.683 135.958 241.558 135.958C241.129 135.958 240.771 136.128 240.485 136.468C240.208 136.808 240.07 137.295 240.07 137.929V140.973H238.622ZM246.317 141.053C245.62 141.053 245.106 140.897 244.775 140.584C244.454 140.262 244.293 139.766 244.293 139.096V135.891H242.939V134.671H244.293V132.875H245.741V134.671H247.35V135.891H245.741V138.975C245.741 139.547 246.036 139.833 246.626 139.833C246.733 139.833 246.858 139.829 247.001 139.82C247.144 139.811 247.26 139.797 247.35 139.779V140.932C247.224 140.968 247.068 140.995 246.88 141.013C246.693 141.04 246.505 141.053 246.317 141.053ZM258.906 134.872C258.906 136.767 257.793 137.715 255.568 137.715H253.449V140.973H251.908V132.017H255.568C256.685 132.017 257.521 132.258 258.075 132.741C258.629 133.214 258.906 133.925 258.906 134.872ZM257.351 134.872C257.351 134.283 257.181 133.871 256.841 133.639C256.502 133.407 255.983 133.29 255.286 133.29H253.449V136.441H255.286C255.957 136.441 256.466 136.325 256.815 136.093C257.172 135.86 257.351 135.453 257.351 134.872ZM268.366 136.495C268.366 137.978 267.959 139.096 267.146 139.846C266.332 140.597 265.153 140.973 263.606 140.973H260.456V132.017H263.606C265.153 132.017 266.332 132.392 267.146 133.143C267.959 133.894 268.366 135.011 268.366 136.495ZM266.797 136.495C266.797 135.44 266.542 134.649 266.033 134.122C265.523 133.594 264.692 133.331 263.539 133.331H261.997V139.659H263.539C264.692 139.659 265.523 139.4 266.033 138.881C266.542 138.354 266.797 137.558 266.797 136.495ZM269.907 140.973V132.017H276.208V133.331H271.449V135.744H275.806V136.977H271.449V140.973H269.907ZM280.756 140.973V134.671H282.151V135.731C282.32 135.346 282.553 135.06 282.848 134.872C283.152 134.685 283.491 134.591 283.867 134.591C283.983 134.591 284.09 134.6 284.188 134.618C284.296 134.627 284.376 134.645 284.43 134.671V136.052C284.305 136.025 284.179 136.003 284.054 135.985C283.938 135.967 283.817 135.958 283.692 135.958C283.263 135.958 282.906 136.128 282.62 136.468C282.343 136.808 282.204 137.295 282.204 137.929V140.973H280.756ZM288.552 141.107C288.069 141.107 287.618 141.035 287.198 140.892C286.786 140.749 286.424 140.544 286.112 140.275C285.808 139.998 285.566 139.654 285.388 139.243C285.218 138.832 285.133 138.358 285.133 137.822C285.133 137.321 285.213 136.87 285.374 136.468C285.544 136.057 285.772 135.708 286.058 135.422C286.353 135.136 286.693 134.917 287.077 134.765C287.47 134.613 287.895 134.537 288.351 134.537C288.815 134.537 289.235 134.609 289.611 134.752C289.995 134.886 290.321 135.074 290.59 135.315C290.858 135.556 291.063 135.847 291.206 136.186C291.358 136.517 291.434 136.879 291.434 137.272C291.434 137.424 291.412 137.594 291.367 137.782C291.331 137.961 291.278 138.108 291.206 138.224H286.608C286.67 138.769 286.885 139.185 287.251 139.471C287.618 139.748 288.096 139.887 288.686 139.887C289.088 139.887 289.445 139.829 289.758 139.712C290.08 139.587 290.388 139.417 290.683 139.203L291.166 140.249C290.442 140.821 289.571 141.107 288.552 141.107ZM288.391 135.717C287.953 135.717 287.568 135.847 287.238 136.106C286.916 136.365 286.706 136.723 286.608 137.178H289.933C289.95 137.125 289.959 137.08 289.959 137.044C289.959 136.651 289.83 136.334 289.571 136.093C289.311 135.842 288.918 135.717 288.391 135.717ZM296.456 141.107C295.973 141.107 295.553 141.017 295.196 140.839C294.838 140.66 294.557 140.423 294.351 140.128V143.413H292.903V134.671H294.297V135.61C294.494 135.288 294.776 135.029 295.142 134.832C295.509 134.636 295.947 134.537 296.456 134.537C296.885 134.537 297.283 134.613 297.649 134.765C298.016 134.917 298.333 135.136 298.601 135.422C298.878 135.699 299.093 136.043 299.245 136.454C299.397 136.857 299.473 137.313 299.473 137.822C299.473 138.331 299.397 138.792 299.245 139.203C299.093 139.605 298.878 139.949 298.601 140.235C298.333 140.512 298.016 140.727 297.649 140.879C297.283 141.031 296.885 141.107 296.456 141.107ZM296.134 139.846C296.679 139.846 297.122 139.668 297.462 139.31C297.81 138.944 297.984 138.448 297.984 137.822C297.984 137.196 297.81 136.705 297.462 136.347C297.122 135.981 296.679 135.798 296.134 135.798C295.598 135.798 295.156 135.981 294.807 136.347C294.467 136.705 294.297 137.196 294.297 137.822C294.297 138.448 294.467 138.944 294.807 139.31C295.156 139.668 295.598 139.846 296.134 139.846ZM303.97 141.107C303.479 141.107 303.027 141.031 302.616 140.879C302.205 140.718 301.852 140.494 301.557 140.208C301.262 139.922 301.03 139.578 300.86 139.176C300.699 138.774 300.618 138.323 300.618 137.822C300.618 137.33 300.699 136.884 300.86 136.481C301.03 136.07 301.262 135.722 301.557 135.436C301.852 135.15 302.205 134.931 302.616 134.779C303.027 134.618 303.479 134.537 303.97 134.537C304.462 134.537 304.913 134.618 305.324 134.779C305.735 134.931 306.089 135.15 306.383 135.436C306.678 135.722 306.906 136.07 307.067 136.481C307.237 136.884 307.322 137.33 307.322 137.822C307.322 138.323 307.237 138.774 307.067 139.176C306.906 139.578 306.678 139.922 306.383 140.208C306.089 140.494 305.735 140.718 305.324 140.879C304.913 141.031 304.462 141.107 303.97 141.107ZM303.97 139.846C304.533 139.846 304.985 139.668 305.324 139.31C305.673 138.944 305.847 138.448 305.847 137.822C305.847 137.196 305.673 136.705 305.324 136.347C304.985 135.981 304.533 135.798 303.97 135.798C303.407 135.798 302.951 135.981 302.603 136.347C302.263 136.705 302.093 137.196 302.093 137.822C302.093 138.448 302.263 138.944 302.603 139.31C302.951 139.668 303.407 139.846 303.97 139.846ZM308.795 140.973V134.671H310.189V135.731C310.359 135.346 310.591 135.06 310.886 134.872C311.19 134.685 311.53 134.591 311.905 134.591C312.021 134.591 312.129 134.6 312.227 134.618C312.334 134.627 312.415 134.645 312.468 134.671V136.052C312.343 136.025 312.218 136.003 312.093 135.985C311.977 135.967 311.856 135.958 311.731 135.958C311.302 135.958 310.944 136.128 310.658 136.468C310.381 136.808 310.243 137.295 310.243 137.929V140.973H308.795ZM316.49 141.053C315.793 141.053 315.279 140.897 314.948 140.584C314.627 140.262 314.466 139.766 314.466 139.096V135.891H313.112V134.671H314.466V132.875H315.914V134.671H317.523V135.891H315.914V138.975C315.914 139.547 316.209 139.833 316.799 139.833C316.906 139.833 317.031 139.829 317.174 139.82C317.317 139.811 317.433 139.797 317.523 139.779V140.932C317.397 140.968 317.241 140.995 317.053 141.013C316.866 141.04 316.678 141.053 316.49 141.053Z" fill="#151A1A"/>
</g>
<defs>
<filter id="filter0_ddddddd_3110_61104" x="-156.031" y="46.3701" width="509.188" height="507.044" filterUnits="userSpaceOnUse" color-interpolation-filters="sRGB">
<feFlood flood-opacity="0" result="BackgroundImageFix"/>
<feColorMatrix in="SourceAlpha" type="matrix" values="0 0 0 0 0 0 0 0 0 0 0 0 0 0 0 0 0 0 127 0" result="hardAlpha"/>
<feOffset dy="3.45709"/>
<feGaussianBlur stdDeviation="3.45709"/>
<feColorMatrix type="matrix" values="0 0 0 0 0.0823529 0 0 0 0 0.101961 0 0 0 0 0.101961 0 0 0 0.05 0"/>
<feBlend mode="normal" in2="BackgroundImageFix" result="effect1_dropShadow_3110_61104"/>
<feColorMatrix in="SourceAlpha" type="matrix" values="0 0 0 0 0 0 0 0 0 0 0 0 0 0 0 0 0 0 127 0" result="hardAlpha"/>
<feOffset dy="12.0998"/>
<feGaussianBlur stdDeviation="6.04991"/>
<feColorMatrix type="matrix" values="0 0 0 0 0.0823529 0 0 0 0 0.101961 0 0 0 0 0.101961 0 0 0 0.04 0"/>
<feBlend mode="normal" in2="effect1_dropShadow_3110_61104" result="effect2_dropShadow_3110_61104"/>
<feColorMatrix in="SourceAlpha" type="matrix" values="0 0 0 0 0 0 0 0 0 0 0 0 0 0 0 0 0 0 127 0" result="hardAlpha"/>
<feOffset dy="27.6567"/>
<feGaussianBlur stdDeviation="8.21059"/>
<feColorMatrix type="matrix" values="0 0 0 0 0.0823529 0 0 0 0 0.101961 0 0 0 0 0.101961 0 0 0 0.02 0"/>
<feBlend mode="normal" in2="effect2_dropShadow_3110_61104" result="effect3_dropShadow_3110_61104"/>
<feColorMatrix in="SourceAlpha" type="matrix" values="0 0 0 0 0 0 0 0 0 0 0 0 0 0 0 0 0 0 127 0" result="hardAlpha"/>
<feOffset dy="48.3993"/>
<feGaussianBlur stdDeviation="9.507"/>
<feColorMatrix type="matrix" values="0 0 0 0 0.0823529 0 0 0 0 0.101961 0 0 0 0 0.101961 0 0 0 0.01 0"/>
<feBlend mode="normal" in2="effect3_dropShadow_3110_61104" result="effect4_dropShadow_3110_61104"/>
<feColorMatrix in="SourceAlpha" type="matrix" values="0 0 0 0 0 0 0 0 0 0 0 0 0 0 0 0 0 0 127 0" result="hardAlpha"/>
<feOffset dy="3.45709"/>
<feGaussianBlur stdDeviation="3.45709"/>
<feColorMatrix type="matrix" values="0 0 0 0 0.0823529 0 0 0 0 0.101961 0 0 0 0 0.101961 0 0 0 0.05 0"/>
<feBlend mode="normal" in2="effect4_dropShadow_3110_61104" result="effect5_dropShadow_3110_61104"/>
<feColorMatrix in="SourceAlpha" type="matrix" values="0 0 0 0 0 0 0 0 0 0 0 0 0 0 0 0 0 0 127 0" result="hardAlpha"/>
<feOffset dy="12.0998"/>
<feGaussianBlur stdDeviation="6.04991"/>
<feColorMatrix type="matrix" values="0 0 0 0 0.0823529 0 0 0 0 0.101961 0 0 0 0 0.101961 0 0 0 0.04 0"/>
<feBlend mode="normal" in2="effect5_dropShadow_3110_61104" result="effect6_dropShadow_3110_61104"/>
<feColorMatrix in="SourceAlpha" type="matrix" values="0 0 0 0 0 0 0 0 0 0 0 0 0 0 0 0 0 0 127 0" result="hardAlpha"/>
<feOffset dy="27.6567"/>
<feGaussianBlur stdDeviation="8.21059"/>
<feColorMatrix type="matrix" values="0 0 0 0 0.0823529 0 0 0 0 0.101961 0 0 0 0 0.101961 0 0 0 0.02 0"/>
<feBlend mode="normal" in2="effect6_dropShadow_3110_61104" result="effect7_dropShadow_3110_61104"/>
<feBlend mode="normal" in="SourceGraphic" in2="effect7_dropShadow_3110_61104" result="shape"/>
</filter>
<filter id="filter1_dd_3110_61104" x="101.551" y="60.4969" width="91.3302" height="42.4605" filterUnits="userSpaceOnUse" color-interpolation-filters="sRGB">
<feFlood flood-opacity="0" result="BackgroundImageFix"/>
<feColorMatrix in="SourceAlpha" type="matrix" values="0 0 0 0 0 0 0 0 0 0 0 0 0 0 0 0 0 0 127 0" result="hardAlpha"/>
<feOffset dy="2.56065"/>
<feGaussianBlur stdDeviation="0.426776"/>
<feColorMatrix type="matrix" values="0 0 0 0 0.0196078 0 0 0 0 0.141176 0 0 0 0 0.137255 0 0 0 0.04 0"/>
<feBlend mode="normal" in2="BackgroundImageFix" result="effect1_dropShadow_3110_61104"/>
<feColorMatrix in="SourceAlpha" type="matrix" values="0 0 0 0 0 0 0 0 0 0 0 0 0 0 0 0 0 0 127 0" result="hardAlpha"/>
<feOffset dy="2.56065"/>
<feGaussianBlur stdDeviation="3.4142"/>
<feColorMatrix type="matrix" values="0 0 0 0 0.0196078 0 0 0 0 0.141176 0 0 0 0 0.137255 0 0 0 0.12 0"/>
<feBlend mode="normal" in2="effect1_dropShadow_3110_61104" result="effect2_dropShadow_3110_61104"/>
<feBlend mode="normal" in="SourceGraphic" in2="effect2_dropShadow_3110_61104" result="shape"/>
</filter>
<filter id="filter2_dd_3110_61104" x="195.442" y="60.4969" width="71.6524" height="42.4605" filterUnits="userSpaceOnUse" color-interpolation-filters="sRGB">
<feFlood flood-opacity="0" result="BackgroundImageFix"/>
<feColorMatrix in="SourceAlpha" type="matrix" values="0 0 0 0 0 0 0 0 0 0 0 0 0 0 0 0 0 0 127 0" result="hardAlpha"/>
<feOffset dy="2.56065"/>
<feGaussianBlur stdDeviation="0.426776"/>
<feColorMatrix type="matrix" values="0 0 0 0 0.0196078 0 0 0 0 0.141176 0 0 0 0 0.137255 0 0 0 0.04 0"/>
<feBlend mode="normal" in2="BackgroundImageFix" result="effect1_dropShadow_3110_61104"/>
<feColorMatrix in="SourceAlpha" type="matrix" values="0 0 0 0 0 0 0 0 0 0 0 0 0 0 0 0 0 0 127 0" result="hardAlpha"/>
<feOffset dy="2.56065"/>
<feGaussianBlur stdDeviation="3.4142"/>
<feColorMatrix type="matrix" values="0 0 0 0 0.0196078 0 0 0 0 0.141176 0 0 0 0 0.137255 0 0 0 0.12 0"/>
<feBlend mode="normal" in2="effect1_dropShadow_3110_61104" result="effect2_dropShadow_3110_61104"/>
<feBlend mode="normal" in="SourceGraphic" in2="effect2_dropShadow_3110_61104" result="shape"/>
</filter>
<filter id="filter3_dddd_3110_61104" x="141.797" y="31.0478" width="237.217" height="200.153" filterUnits="userSpaceOnUse" color-interpolation-filters="sRGB">
<feFlood flood-opacity="0" result="BackgroundImageFix"/>
<feColorMatrix in="SourceAlpha" type="matrix" values="0 0 0 0 0 0 0 0 0 0 0 0 0 0 0 0 0 0 127 0" result="hardAlpha"/>
<feOffset dy="3.45709"/>
<feGaussianBlur stdDeviation="3.45709"/>
<feColorMatrix type="matrix" values="0 0 0 0 0.0823529 0 0 0 0 0.101961 0 0 0 0 0.101961 0 0 0 0.05 0"/>
<feBlend mode="normal" in2="BackgroundImageFix" result="effect1_dropShadow_3110_61104"/>
<feColorMatrix in="SourceAlpha" type="matrix" values="0 0 0 0 0 0 0 0 0 0 0 0 0 0 0 0 0 0 127 0" result="hardAlpha"/>
<feOffset dy="12.0998"/>
<feGaussianBlur stdDeviation="6.04991"/>
<feColorMatrix type="matrix" values="0 0 0 0 0.0823529 0 0 0 0 0.101961 0 0 0 0 0.101961 0 0 0 0.04 0"/>
<feBlend mode="normal" in2="effect1_dropShadow_3110_61104" result="effect2_dropShadow_3110_61104"/>
<feColorMatrix in="SourceAlpha" type="matrix" values="0 0 0 0 0 0 0 0 0 0 0 0 0 0 0 0 0 0 127 0" result="hardAlpha"/>
<feOffset dy="27.6567"/>
<feGaussianBlur stdDeviation="8.21059"/>
<feColorMatrix type="matrix" values="0 0 0 0 0.0823529 0 0 0 0 0.101961 0 0 0 0 0.101961 0 0 0 0.02 0"/>
<feBlend mode="normal" in2="effect2_dropShadow_3110_61104" result="effect3_dropShadow_3110_61104"/>
<feColorMatrix in="SourceAlpha" type="matrix" values="0 0 0 0 0 0 0 0 0 0 0 0 0 0 0 0 0 0 127 0" result="hardAlpha"/>
<feOffset dy="48.3993"/>
<feGaussianBlur stdDeviation="9.507"/>
<feColorMatrix type="matrix" values="0 0 0 0 0.0823529 0 0 0 0 0.101961 0 0 0 0 0.101961 0 0 0 0.01 0"/>
<feBlend mode="normal" in2="effect3_dropShadow_3110_61104" result="effect4_dropShadow_3110_61104"/>
<feBlend mode="normal" in="SourceGraphic" in2="effect4_dropShadow_3110_61104" result="shape"/>
</filter>
<linearGradient id="paint0_linear_3110_61104" x1="98.5635" y1="142.495" x2="98.5635" y2="272" gradientUnits="userSpaceOnUse">
<stop stop-color="#D9D9D9"/>
<stop offset="1" stop-color="#737373" stop-opacity="0"/>
</linearGradient>
<linearGradient id="paint1_linear_3110_61104" x1="-389.01" y1="-69.6755" x2="-387.992" y2="287.663" gradientUnits="userSpaceOnUse">
<stop stop-color="#308D8A"/>
<stop offset="1" stop-color="white" stop-opacity="0.01"/>
</linearGradient>
<clipPath id="clip0_3110_61104">
<rect x="-123.36" y="63.4844" width="310.693" height="31.3639" rx="8.53551" fill="white"/>
</clipPath>
<clipPath id="clip1_3110_61104">
<rect x="200.99" y="63.4844" width="119.698" height="31.3639" rx="8.53551" fill="white"/>
</clipPath>
</defs>
</svg>
