<svg width="64" height="64" viewBox="0 0 64 64" fill="none" xmlns="http://www.w3.org/2000/svg">
<g clip-path="url(#clip0_5074_30074)">
<path d="M32 64C49.6731 64 64 49.6731 64 32C64 14.3269 49.6731 0 32 0C14.3269 0 0 14.3269 0 32C0 49.6731 14.3269 64 32 64Z" fill="#0C9790"/>
<path d="M55.561 24.3104C55.561 19.5427 51.5207 16.2136 45.737 16.2136C41.0345 16.2136 37.7933 18.5448 34.04 21.2445C33.4119 21.6956 32.7627 22.1632 32.0935 22.6287C30.1624 23.9701 28.156 25.2787 26.3252 26.4348C26.1423 26.5506 25.9145 26.566 25.7185 26.4762C24.262 25.8114 21.3773 24.746 17.8304 24.746C9.95519 24.746 8.30273 29.0884 8.30273 32.7317C8.30273 35.6252 10.0343 38.0344 13.3085 39.6984C14.3153 40.2097 15.3175 40.5735 16.1342 40.8216C16.7693 41.0153 17.2733 41.4983 17.4869 42.1265C17.7005 42.7548 17.9531 43.4279 18.2659 44.1199C18.6118 44.8851 19.0249 45.7248 19.4911 46.6165C19.9904 47.5684 20.9783 48.1259 21.9994 48.1259C22.3676 48.1259 22.7405 48.0538 23.096 47.9015C28.3294 45.661 36.534 42.8704 45.9034 42.2965C47.5312 42.1961 48.7657 40.8393 48.7149 39.206C48.6915 38.4418 48.6524 37.7297 48.6006 37.0908C48.5616 36.6114 48.5095 36.1378 48.4553 35.7007C48.3527 34.8717 48.6808 34.0487 49.3276 33.5207C49.9745 32.9929 50.7169 32.3503 51.4723 31.6088C54.1859 28.9457 55.5621 26.4905 55.5621 24.3104H55.561ZM23.3342 44.9916C23.0829 45.0919 22.8137 45.1497 22.5434 45.1296C21.8859 45.0801 21.2876 44.6703 21.0185 44.035C20.8756 43.6971 20.7411 43.3711 20.6006 43.0631C20.3044 42.4075 20.0577 41.7355 19.8688 41.1663C19.6871 40.6172 19.9337 40.0173 20.4519 39.7621C21.6086 39.1917 23.49 38.4996 25.3101 38.0179C25.4859 37.9719 25.6395 37.8573 25.7208 37.6954C26.3879 36.3774 25.3172 35.3476 24.2998 35.6312C24.2349 35.6489 22.6864 36.0787 21.0728 36.7C20.1155 37.0684 19.3471 37.4168 18.7428 37.7639C17.8611 38.2705 16.8059 38.377 15.8533 38.019C13.6662 37.197 10.8652 35.5861 10.8652 32.7341C10.8652 30.2116 11.6561 27.3171 17.8257 27.3171C19.3506 27.3171 20.7423 27.5509 21.9073 27.8543C22.4679 28.0009 22.5741 28.752 22.076 29.0507C20.4932 30.0015 19.4734 30.586 19.4474 30.6014C18.8325 30.9532 18.6189 31.7387 18.9706 32.3539C19.3223 32.9692 20.1072 33.1829 20.7222 32.8309C20.7635 32.8075 23.3426 31.3276 26.7265 29.2149C26.7442 29.2043 26.7619 29.1925 26.7796 29.1819C28.87 27.8769 31.2613 26.3322 33.5512 24.7426C34.2381 24.2654 34.8969 23.7918 35.5331 23.3348C39.0657 20.7946 41.8561 18.7869 45.7323 18.7869C50.0734 18.7869 52.9901 21.0083 52.9901 24.3151C52.9901 26.7147 49.8021 29.8266 47.5949 31.6205C46.9906 32.1118 46.2091 32.3219 45.436 32.2227C45.2141 32.1946 44.991 32.1696 44.7678 32.1485C44.297 32.1048 44.0254 31.5921 44.2533 31.1765C45.3558 29.1723 45.8185 27.9384 45.8443 27.8686C46.0899 27.2036 45.7524 26.4668 45.0878 26.22C44.4244 25.9719 43.6856 26.3108 43.4377 26.9745C43.4307 26.9946 42.707 28.9054 40.8952 31.8355C40.7856 32.0126 40.5965 32.1272 40.3877 32.1438C39.938 32.1792 39.5922 31.7551 39.7125 31.3218C40.0289 30.1845 40.0833 29.6636 40.0903 29.5797C40.1505 28.8736 39.6289 28.243 38.9217 28.1826C38.2123 28.1237 37.5939 28.6375 37.5337 29.3449C37.5337 29.3543 37.4334 30.1986 36.7239 32.2842C36.6473 32.5109 36.4525 32.681 36.2177 32.7283C34.5639 33.0543 33.458 33.3837 33.3411 33.4191C32.6625 33.6245 32.2789 34.3403 32.4841 35.0193C32.6885 35.6973 33.4038 36.0834 34.0835 35.878C34.1142 35.8684 35.4302 35.4788 37.3436 35.1362L37.4027 35.1281C37.5147 35.1185 38.0954 35.0099 38.1214 35.0052C39.9546 34.7183 42.1901 34.5127 44.3489 34.691C45.1644 34.7584 45.8243 35.3831 45.9224 36.1956C45.9649 36.5523 46.0037 36.9278 46.0357 37.3058C46.0638 37.6506 46.0875 38.019 46.1076 38.4075C46.1276 38.7962 46.0203 39.6465 45.1433 39.6877C44.3678 39.7244 40.9731 39.7421 34.1793 41.3707C28.9953 42.6129 24.3717 44.5805 23.3308 44.9973L23.3342 44.9916Z" fill="white"/>
</g>
<defs>
<clipPath id="clip0_5074_30074">
<rect width="64" height="64" fill="white"/>
</clipPath>
</defs>
</svg>
