<svg width="581" height="250" viewBox="0 0 581 250" fill="none" xmlns="http://www.w3.org/2000/svg">
<g filter="url(#filter0_f_312_3413)">
<path d="M344.673 186.342C223.814 228.934 41.6553 235.06 41.6553 235.06H566.394V26.9742C566.394 26.9742 465.531 143.749 344.673 186.342Z" fill="url(#paint0_linear_312_3413)"/>
</g>
<path d="M41.6553 235.06C41.6553 235.06 223.286 228.934 344.145 186.342C465.003 143.749 559.394 26.9742 559.394 26.9742" stroke="url(#paint1_linear_312_3413)" stroke-width="2.20197"/>
<circle cx="559.394" cy="27.5248" r="6.6059" fill="white"/>
<circle cx="559.394" cy="27.5248" r="10.4593" stroke="white" stroke-opacity="0.3" stroke-width="7.70688"/>
<path d="M384.658 19.921L385.891 15.6052H386.42C386.2 16.3539 386.09 17.0144 386.09 17.587C386.09 19.4146 387.125 20.3614 388.622 20.4935L390.868 13.139L390.78 13.0509C389.04 11.5315 388.071 10.2764 388.071 8.66899C388.071 6.11471 390.031 3.82466 393.466 3.82466H393.708L394.171 2.32733H394.897L394.413 3.91274C395.668 4.11092 396.791 4.70545 397.474 5.38806L396.505 8.55889H395.976C396.153 7.98638 396.241 7.45791 396.241 6.99549C396.241 5.74037 395.514 4.90363 394.171 4.70545L392.189 11.2013C393.929 12.8087 395.118 14.0858 395.118 15.8914C395.118 18.4677 392.96 21.3083 389.084 21.3743L388.556 23.0919H387.829L388.358 21.3523C386.618 21.2202 385.363 20.5156 384.658 19.921ZM389.348 20.5156C391.815 20.3614 393.004 18.5999 393.004 16.9043C393.004 15.7593 392.431 14.7464 391.418 13.6895L389.348 20.5156ZM390.075 7.81022C390.075 8.71303 390.538 9.52776 391.639 10.6508L393.466 4.66141C391.22 4.70545 390.075 6.24683 390.075 7.81022ZM396.202 20.8459C399.328 19.855 402.037 17.4548 403.953 14.7024C403.16 15.1208 402.345 15.3409 401.64 15.3409C399.615 15.3409 398.668 13.7555 398.668 11.6637C398.668 8.42677 400.848 2.94388 405.274 2.94388C407.674 2.94388 409.083 4.50727 409.083 7.28175C409.083 12.7206 404.217 19.5467 396.312 21.3523L396.202 20.8459ZM400.826 12.1481C400.826 13.4913 401.31 14.4381 402.455 14.4381C403.248 14.4381 404.217 13.9317 405.12 12.8087C406.331 10.5627 407.013 8.27264 407.013 6.40096C407.013 4.70545 406.353 3.84668 405.296 3.84668C402.609 3.84668 400.826 9.48372 400.826 12.1481ZM410.465 21.3523C408.747 21.3523 406.942 20.7358 406.942 19.7889C406.942 19.2604 407.492 18.6879 408.153 18.6879C409.386 18.6879 409.188 20.4715 410.817 20.4715C412.909 20.4715 415.023 17.8732 415.023 14.9666C415.023 12.8527 413.878 11.8398 411.389 11.8398L411.522 11.2673C414.736 10.4966 416.894 8.51485 416.894 6.37894C416.894 5.29998 416.344 4.52929 415.067 4.52929C413.085 4.52929 411.874 6.07067 411.367 7.59003H410.839C411.61 4.70545 413.702 3.03196 416.124 3.03196C418.172 3.03196 419.162 4.22102 419.162 5.82845C419.162 8.38273 416.344 10.6948 413.812 11.2673V11.3994C416.08 11.5095 417.423 12.9188 417.423 15.0327C417.423 18.4898 414.164 21.3523 410.465 21.3523ZM420.765 21.3523C419.047 21.3523 417.242 20.7358 417.242 19.7889C417.242 19.2604 417.792 18.6879 418.453 18.6879C419.686 18.6879 419.488 20.4715 421.117 20.4715C423.209 20.4715 425.323 17.8732 425.323 14.9666C425.323 12.8527 424.178 11.8398 421.69 11.8398L421.822 11.2673C425.037 10.4966 427.195 8.51485 427.195 6.37894C427.195 5.29998 426.644 4.52929 425.367 4.52929C423.385 4.52929 422.174 6.07067 421.668 7.59003H421.139C421.91 4.70545 424.002 3.03196 426.424 3.03196C428.472 3.03196 429.463 4.22102 429.463 5.82845C429.463 8.38273 426.644 10.6948 424.112 11.2673V11.3994C426.38 11.5095 427.723 12.9188 427.723 15.0327C427.723 18.4898 424.464 21.3523 420.765 21.3523ZM427.278 23.29C428.731 22.7836 429.568 21.8808 429.7 20.978C429.436 21.0881 429.149 21.1541 428.951 21.1541C428.335 21.1541 427.96 20.6917 427.96 20.1192C427.96 19.3926 428.489 18.6659 429.48 18.6659C430.228 18.6659 430.823 19.1503 430.823 20.2293C430.823 21.3523 429.766 22.9818 427.454 23.7745L427.278 23.29ZM435.855 21.2642L434.204 20.4495L443.738 5.41008L443.782 5.29998H438.916C437.573 5.29998 437.044 5.76239 436.472 7.61205L436.009 7.30377L436.714 5.1018L437.242 3.38427H446.711L435.855 21.2642ZM450.38 19.0403C451.833 19.0403 452.758 17.8071 453.705 16.1557H454.255L451.613 21H442.629L442.673 20.4495C450.336 14.1519 453.484 10.2324 453.484 7.12761C453.484 5.69633 452.846 4.81555 451.37 4.81555C449.389 4.81555 447.583 6.68722 446.768 9.63785H446.218C447.099 5.6523 449.587 3.03196 452.692 3.03196C454.629 3.03196 455.73 4.15496 455.73 6.00461C455.73 9.94613 451.084 14.8345 445.711 18.9742V19.0403H450.38ZM455.156 16.3098L455.487 14.3501L465.704 3.05398H467.421L463.964 14.3721H466.056L465.462 16.3098H463.37L462.599 18.8201C462.181 20.1853 462.291 20.4715 463.964 20.4715L463.766 21H457.909L458.107 20.4715C459.494 20.4715 460.111 20.2073 460.529 18.8201L461.3 16.3098H455.156ZM456.588 14.3721H461.894L464.713 5.23392L456.632 14.284L456.588 14.3721ZM465.49 23.29C466.943 22.7836 467.78 21.8808 467.912 20.978C467.647 21.0881 467.361 21.1541 467.163 21.1541C466.546 21.1541 466.172 20.6917 466.172 20.1192C466.172 19.3926 466.701 18.6659 467.692 18.6659C468.44 18.6659 469.035 19.1503 469.035 20.2293C469.035 21.3523 467.978 22.9818 465.666 23.7745L465.49 23.29ZM475.344 18.8201C474.926 20.1853 475.08 20.4715 476.82 20.4715L476.599 21H470.346L470.566 20.4715C472.085 20.4715 472.746 20.2073 473.164 18.8201L477.018 6.22481C477.48 4.72747 477.458 4.52929 475.3 5.29998L475.366 4.66141L479.836 3.076L480.056 3.38427L475.344 18.8201ZM485.645 19.0403C487.099 19.0403 488.024 17.8071 488.97 16.1557H489.521L486.879 21H477.895L477.939 20.4495C485.601 14.1519 488.75 10.2324 488.75 7.12761C488.75 5.69633 488.112 4.81555 486.636 4.81555C484.655 4.81555 482.849 6.68722 482.034 9.63785H481.484C482.365 5.6523 484.853 3.03196 487.958 3.03196C489.895 3.03196 490.996 4.15496 490.996 6.00461C490.996 9.94613 486.35 14.8345 480.977 18.9742V19.0403H485.645ZM490.422 16.3098L490.752 14.3501L500.97 3.05398H502.687L499.23 14.3721H501.322L500.727 16.3098H498.636L497.865 18.8201C497.446 20.1853 497.557 20.4715 499.23 20.4715L499.032 21H493.175L493.373 20.4715C494.76 20.4715 495.377 20.2073 495.795 18.8201L496.566 16.3098H490.422ZM491.853 14.3721H497.16L499.979 5.23392L491.897 14.284L491.853 14.3721Z" fill="white"/>
<path opacity="0.7" d="M396.943 37.3228V29.5014H393.851V28.0745H401.607V29.5014H398.528V37.3228H396.943ZM404.697 37.5077C402.425 37.5077 401.103 35.9223 401.103 33.7556C401.103 31.4699 402.649 30.1091 404.697 30.1091C406.956 30.1091 408.277 31.6945 408.277 33.7556C408.277 36.1205 406.784 37.5077 404.697 37.5077ZM402.689 33.7556C402.689 35.2881 403.548 36.1865 404.697 36.1865C405.952 36.1865 406.692 35.156 406.692 33.7556C406.692 32.3683 405.913 31.4435 404.697 31.4435C403.482 31.4435 402.689 32.3683 402.689 33.7556ZM412.41 37.3228C410.891 37.3228 410.072 36.5697 410.072 35.1824V31.6417H408.843V30.3205H410.072V27.9292H411.631V30.3205H413.441V31.6417H411.631V35.0767C411.631 35.6713 411.934 36.0016 412.516 36.0016H413.308V37.3228H412.41ZM416.894 37.4681C415.282 37.4681 414.225 36.6886 414.238 35.3806C414.252 33.7424 415.877 33.3989 417.237 33.2403C418.294 33.1214 419.074 33.0818 419.087 32.5269C419.074 31.8399 418.545 31.3907 417.647 31.3907C416.722 31.3907 416.062 31.8927 415.969 32.6194H414.397C414.542 31.1396 415.863 30.1091 417.673 30.1091C419.563 30.1091 420.607 31.1396 420.607 32.6326V35.8034C420.607 36.0016 420.712 36.1073 420.95 36.1073H421.333V37.3228H420.593C419.88 37.3228 419.444 37.0321 419.325 36.5036C419.299 36.4376 419.272 36.3451 419.259 36.2658C418.849 37.0189 418.083 37.4681 416.894 37.4681ZM415.811 35.2749C415.811 35.8827 416.299 36.2394 417.211 36.2394C418.281 36.2394 419.087 35.6316 419.087 34.6936V33.7159C418.823 34.1255 418.149 34.218 417.409 34.3105C416.537 34.4162 415.811 34.5351 415.811 35.2749ZM422.388 37.3228V27.4139H423.947V37.3228H422.388ZM428.611 37.3228V28.0745H430.566L433.459 35.4203L436.339 28.0745H438.295V37.3228H436.709V30.8093L434.146 37.3228H432.759L430.196 30.8226V37.3228H428.611ZM442.363 37.4681C440.751 37.4681 439.694 36.6886 439.707 35.3806C439.72 33.7424 441.346 33.3989 442.706 33.2403C443.763 33.1214 444.543 33.0818 444.556 32.5269C444.543 31.8399 444.014 31.3907 443.116 31.3907C442.191 31.3907 441.53 31.8927 441.438 32.6194H439.866C440.011 31.1396 441.332 30.1091 443.142 30.1091C445.032 30.1091 446.075 31.1396 446.075 32.6326V35.8034C446.075 36.0016 446.181 36.1073 446.419 36.1073H446.802V37.3228H446.062C445.349 37.3228 444.913 37.0321 444.794 36.5036C444.767 36.4376 444.741 36.3451 444.728 36.2658C444.318 37.0189 443.552 37.4681 442.363 37.4681ZM441.279 35.2749C441.279 35.8827 441.768 36.2394 442.68 36.2394C443.75 36.2394 444.556 35.6316 444.556 34.6936V33.7159C444.292 34.1255 443.618 34.218 442.878 34.3105C442.006 34.4162 441.279 34.5351 441.279 35.2749ZM447.831 37.3228V30.3205H449.086L449.271 31.6945C449.72 30.7433 450.539 30.2412 451.702 30.2412H451.966V31.7606H451.702C450.249 31.7606 449.39 32.5401 449.39 33.8613V37.3228H447.831ZM453.018 37.3228V27.4139H454.577V33.3592L457.563 30.3205H459.465L456.929 32.844L459.809 37.3228H457.999L455.845 33.9273L454.577 35.1957V37.3228H453.018ZM463.376 37.5077C461.236 37.5077 459.769 35.9884 459.769 33.8481C459.769 31.536 461.289 30.1091 463.244 30.1091C465.226 30.1091 466.547 31.4964 466.587 33.7688V34.1387H461.328C461.434 35.3674 462.2 36.1998 463.389 36.1998C464.195 36.1998 464.803 35.8034 465.041 35.1032H466.56C466.204 36.6093 465.028 37.5077 463.376 37.5077ZM461.395 33.0421H464.975C464.777 32.038 464.156 31.4303 463.244 31.4303C462.319 31.4303 461.632 32.038 461.395 33.0421ZM470.715 37.3228C469.195 37.3228 468.376 36.5697 468.376 35.1824V31.6417H467.148V30.3205H468.376V27.9292H469.935V30.3205H471.745V31.6417H469.935V35.0767C469.935 35.6713 470.239 36.0016 470.821 36.0016H471.613V37.3228H470.715ZM480.163 37.5077C477.323 37.5077 475.513 35.5656 475.513 32.6722C475.513 29.8713 477.283 27.8763 480.163 27.8763C482.568 27.8763 484.219 29.2768 484.616 31.6417H482.991C482.7 30.1884 481.63 29.3032 480.163 29.3032C478.301 29.3032 477.138 30.6112 477.138 32.6722C477.138 34.7861 478.301 36.0808 480.163 36.0808C481.656 36.0808 482.7 35.2221 482.991 33.7556H484.616C484.193 36.1601 482.581 37.5077 480.163 37.5077ZM488.269 37.4681C486.657 37.4681 485.6 36.6886 485.613 35.3806C485.626 33.7424 487.251 33.3989 488.612 33.2403C489.669 33.1214 490.449 33.0818 490.462 32.5269C490.449 31.8399 489.92 31.3907 489.022 31.3907C488.097 31.3907 487.436 31.8927 487.344 32.6194H485.772C485.917 31.1396 487.238 30.1091 489.048 30.1091C490.937 30.1091 491.981 31.1396 491.981 32.6326V35.8034C491.981 36.0016 492.087 36.1073 492.325 36.1073H492.708V37.3228H491.968C491.255 37.3228 490.819 37.0321 490.7 36.5036C490.673 36.4376 490.647 36.3451 490.634 36.2658C490.224 37.0189 489.458 37.4681 488.269 37.4681ZM487.185 35.2749C487.185 35.8827 487.674 36.2394 488.586 36.2394C489.656 36.2394 490.462 35.6316 490.462 34.6936V33.7159C490.198 34.1255 489.524 34.218 488.784 34.3105C487.912 34.4162 487.185 34.5351 487.185 35.2749ZM493.75 39.9651V30.3205H495.005L495.163 31.4699C495.626 30.6508 496.537 30.1091 497.647 30.1091C499.497 30.1091 500.805 31.6153 500.805 33.782C500.805 35.9884 499.497 37.5077 497.634 37.5077C496.63 37.5077 495.798 37.0717 495.322 36.3451V39.9651H493.75ZM495.322 33.7424C495.322 35.1824 496.128 36.1998 497.291 36.1998C498.427 36.1998 499.206 35.2089 499.206 33.782C499.206 32.3948 498.427 31.4303 497.277 31.4303C496.128 31.4303 495.322 32.3815 495.322 33.7424Z" fill="white"/>
<path d="M3.28738 152.304C3.55162 151.577 3.83788 150.674 3.8599 150.366C3.8599 150.058 3.7498 149.97 3.57364 149.97C2.91305 149.947 1.92217 151.093 1.01936 152.458L0.490887 152.436C1.56985 150.52 3.26536 148.78 4.8728 148.846C5.66551 148.869 6.01782 149.441 5.9958 150.102C5.9958 150.652 5.70955 151.445 5.33521 152.392L4.03605 155.915H4.23423C6.52427 151.048 8.06565 148.846 9.82722 148.846C10.686 148.846 11.1704 149.551 11.1704 150.344C11.1704 151.643 10.2236 153.493 9.18865 155.915H9.38683C11.6549 151.026 13.3944 148.846 15.178 148.846C16.2129 148.846 16.7414 149.507 16.7414 150.454C16.7414 151.863 15.5303 154.439 14.1431 157.963C13.9449 158.447 13.6807 159.218 13.6586 159.526C13.6366 159.878 13.7247 160.032 14.011 160.055C14.8257 160.121 15.9047 158.799 16.7634 157.258L17.2699 157.28C16.323 159.196 14.7376 161.31 12.954 161.178C11.787 161.089 11.4347 160.451 11.5007 159.658C11.5227 159.152 11.6989 158.601 12.0292 157.72C13.2403 154.726 14.4514 151.995 14.4514 151.115C14.4514 150.63 14.2972 150.41 13.9889 150.41C13.3283 150.41 11.831 151.687 9.8052 155.937C9.16663 157.236 8.48402 158.865 7.73536 160.825H5.57743L7.36102 156.267C8.17575 154.197 9.12259 151.929 9.12259 151.115C9.12259 150.63 8.96846 150.41 8.63816 150.41C7.7794 150.41 5.73157 152.568 2.56074 160.825H0.402808L3.28738 152.304ZM22.6865 161.023C21.1011 161.023 19.9781 160.319 19.0093 159.306C18.679 158.976 18.4367 159.108 18.2606 159.592L17.8422 160.825H17.2257L18.8111 154.836H19.3395C18.8992 157.324 20.0882 159.944 22.4884 159.944C24.4921 159.944 25.2408 158.381 25.2408 156.994C25.2408 155.496 24.36 154.197 23.259 152.7L22.2461 151.247C21.4314 150.102 20.7488 149.023 20.7488 147.481C20.7488 145.059 22.4884 142.857 25.5491 142.857C26.9363 142.857 27.9052 143.342 28.852 144.377C29.0943 144.619 29.2704 144.553 29.3585 144.31L29.8209 143.209H30.3714L28.9621 148.362H28.4337C28.83 145.411 27.5969 143.87 25.7252 143.87C23.8316 143.87 22.9508 145.235 22.9508 146.711C22.9508 148.032 23.6334 148.935 24.382 149.992L25.2628 151.247C26.2097 152.568 27.5088 154.175 27.5088 156.201C27.5088 158.711 25.8574 161.023 22.6865 161.023ZM34.294 161.178C30.991 161.178 29.5157 158.579 29.5157 155.32C29.5157 149.287 34.1839 142.857 39.2044 142.857C42.5073 142.857 43.9606 145.455 43.9606 148.692C43.9606 154.748 39.3145 161.178 34.294 161.178ZM34.6023 160.253C37.9493 160.253 41.5164 152.942 41.5164 147.657C41.5164 145.367 40.8118 143.76 38.8961 143.76C35.5491 143.76 31.9819 151.093 31.9819 156.377C31.9819 158.645 32.6645 160.253 34.6023 160.253ZM53.7843 143.209L53.6302 143.738C51.9567 143.738 51.4062 144.09 51.0098 145.389L47.0463 158.403C46.672 159.636 46.8922 159.834 47.883 159.834H50.5034C52.1769 159.834 52.9916 159.174 54.555 156.311L55.1936 156.509L52.9476 160.825H41.6955L41.8717 160.297C43.5452 160.297 44.0957 159.944 44.492 158.645L48.5436 145.389C48.94 144.09 48.896 143.738 46.9362 143.738L47.0903 143.209H53.7843ZM71.2667 143.209L71.1126 143.738C69.4391 143.738 68.8886 144.09 68.4922 145.389L64.5287 158.403C64.1544 159.636 64.3746 159.834 65.3655 159.834H67.9858C69.6593 159.834 70.474 159.174 72.0374 156.311L72.676 156.509L70.43 160.825H59.1779L59.3541 160.297C61.0276 160.297 61.5781 159.944 61.9744 158.645L66.026 145.389C66.4224 144.09 66.3784 143.738 64.4186 143.738L64.5727 143.209H71.2667ZM80.5556 155.276C79.4986 157.566 77.4728 161.067 75.5131 161.067C74.1258 161.067 73.5093 159.878 73.5093 158.183C73.5093 154.263 77.0545 148.846 80.1152 148.846C81.5905 148.846 82.185 149.925 82.097 151.335H82.163L82.8016 149.573C83.6824 149.573 84.387 149.177 84.7613 148.714L85.1136 148.913L81.9648 157.897C81.7887 158.381 81.5465 159.152 81.5244 159.482C81.5024 159.812 81.5905 159.966 81.8988 159.988C82.7135 160.032 83.7704 158.689 84.5632 157.126L85.0916 157.148C84.1888 159.086 82.6474 161.222 80.8418 161.133C79.6968 161.067 79.3225 160.429 79.3665 159.636C79.3885 159.13 79.5647 158.579 79.895 157.698L80.7538 155.276H80.5556ZM80.8859 153.603C81.1281 152.898 81.3042 152.193 81.3042 151.467C81.3042 150.52 81.04 149.97 80.3134 149.97C78.3536 149.97 75.6892 154.792 75.6892 157.919C75.6892 158.909 75.8874 159.46 76.4159 159.46C77.715 159.46 80.0491 156.025 80.8859 153.603ZM87.5126 161.133C86.4777 161.133 85.9272 160.473 85.9272 159.57C85.9272 158.139 87.0942 155.607 88.5035 152.171C88.7897 151.445 89.098 150.564 89.12 150.234C89.142 149.947 89.0319 149.837 88.8558 149.837C88.2172 149.793 87.1603 150.894 86.2134 152.216L85.707 152.193C86.852 150.3 88.5916 148.648 90.221 148.758C90.9917 148.802 91.344 149.397 91.3 150.058C91.2559 150.63 91.0357 151.423 90.6394 152.37C89.4503 155.276 88.2392 157.897 88.1732 158.887C88.1512 159.372 88.3273 159.592 88.6136 159.592C89.4063 159.592 90.7054 158.447 92.401 155.21C93.3038 153.537 94.6249 150.806 94.691 149.155H97.2453L94.2506 157.963C94.0744 158.469 93.8322 159.24 93.8322 159.57C93.8102 159.9 93.8983 160.055 94.2066 160.077C95.0213 160.099 96.0562 158.755 96.8489 157.17L97.3774 157.192C96.4966 159.13 94.9773 161.31 93.1716 161.222C92.0046 161.178 91.6523 160.561 91.6743 159.746C91.6963 159.262 91.8945 158.711 92.2248 157.831L93.612 154.131H93.4139C91.0357 158.887 89.2962 161.133 87.5126 161.133ZM100.957 152.304C101.221 151.577 101.507 150.674 101.529 150.366C101.529 150.058 101.419 149.97 101.243 149.97C100.582 149.947 99.5914 151.093 98.6886 152.458L98.1601 152.436C99.2391 150.52 100.935 148.78 102.542 148.846C103.335 148.869 103.687 149.441 103.665 150.102C103.665 150.652 103.379 151.445 103.004 152.392L101.705 155.915H101.925C104.238 151.048 105.911 148.846 107.695 148.846C108.708 148.846 109.258 149.507 109.258 150.454C109.258 151.863 108.047 154.439 106.66 157.963C106.462 158.447 106.197 159.218 106.175 159.526C106.131 159.878 106.219 160.032 106.528 160.055C107.342 160.121 108.421 158.799 109.28 157.258L109.787 157.28C108.84 159.196 107.254 161.31 105.449 161.178C104.304 161.089 103.951 160.451 104.017 159.658C104.039 159.152 104.216 158.601 104.546 157.72C105.757 154.726 106.968 151.995 106.968 151.115C106.968 150.63 106.836 150.41 106.506 150.41C105.647 150.41 103.467 152.568 100.23 160.825H98.072L100.957 152.304ZM113.059 161.133C111.363 161.133 110.307 159.768 110.307 157.544C110.307 153.625 113.367 148.802 116.582 148.802C117.749 148.802 118.63 149.551 118.63 150.85C118.63 152.083 117.903 153.361 117.023 153.361C116.538 153.361 116.23 152.986 116.23 152.546C116.23 151.643 117.419 151.599 117.419 150.454C117.419 150.036 117.199 149.661 116.56 149.661C114.446 149.661 112.531 154.087 112.531 157.148C112.531 158.601 112.927 159.702 113.962 159.702C115.173 159.702 116.406 158.337 117.397 156.377H117.881C116.67 159.372 114.953 161.133 113.059 161.133ZM123.056 145.389C123.453 144.156 123.255 143.716 121.713 143.716L121.845 143.209C123.959 143.209 125.413 143.011 125.765 142.571L126.029 142.725L121.647 155.915H121.867C124.113 151.048 125.875 148.846 127.637 148.846C128.671 148.846 129.222 149.507 129.222 150.454C129.222 151.863 128.011 154.439 126.602 157.963C126.425 158.447 126.139 159.218 126.117 159.526C126.095 159.878 126.183 160.032 126.492 160.055C127.284 160.121 128.385 158.799 129.222 157.258L129.75 157.28C128.804 159.196 127.196 161.31 125.413 161.178C124.246 161.089 123.915 160.451 123.959 159.658C124.003 159.152 124.157 158.601 124.51 157.72C125.699 154.726 126.932 151.995 126.932 151.115C126.932 150.63 126.778 150.41 126.469 150.41C125.611 150.41 123.387 152.568 120.194 160.825H118.036L123.056 145.389Z" fill="white"/>
<path opacity="0.7" d="M22.7146 177.111C21.8074 177.111 21.0058 176.913 20.31 176.517C19.6142 176.12 19.0725 175.557 18.685 174.825C18.2974 174.094 18.1037 173.244 18.1037 172.276C18.1037 171.342 18.2886 170.514 18.6586 169.792C19.0373 169.061 19.5746 168.493 20.2704 168.087C20.9662 167.682 21.7809 167.48 22.7146 167.48C23.6218 167.48 24.4277 167.678 25.1323 168.074C25.837 168.471 26.383 169.03 26.7706 169.752C27.1581 170.474 27.3519 171.316 27.3519 172.276C27.3519 173.218 27.1625 174.055 26.7838 174.786C26.4051 175.517 25.8634 176.089 25.1588 176.503C24.4629 176.909 23.6482 177.111 22.7146 177.111ZM19.7155 172.276C19.7155 172.963 19.8344 173.566 20.0722 174.086C20.3188 174.596 20.6667 174.993 21.1159 175.275C21.574 175.548 22.1068 175.684 22.7146 175.684C23.3223 175.684 23.8552 175.548 24.3132 175.275C24.7712 174.993 25.1235 174.596 25.3701 174.086C25.6168 173.566 25.7401 172.963 25.7401 172.276C25.7401 171.597 25.6168 171.003 25.3701 170.492C25.1235 169.981 24.7712 169.589 24.3132 169.316C23.8552 169.043 23.3223 168.907 22.7146 168.907C22.1068 168.907 21.574 169.043 21.1159 169.316C20.6667 169.589 20.3188 169.981 20.0722 170.492C19.8344 171.003 19.7155 171.597 19.7155 172.276ZM31.9265 177.111C31.1866 177.111 30.5437 176.948 29.9976 176.622C29.4515 176.296 29.0331 175.852 28.7425 175.288C28.4518 174.724 28.3065 174.086 28.3065 173.372C28.3065 172.624 28.4606 171.976 28.7689 171.43C29.0772 170.875 29.5043 170.452 30.0504 170.162C30.5965 169.862 31.2087 169.713 31.8869 169.713C32.521 169.713 33.0803 169.836 33.5648 170.082C34.058 170.32 34.4455 170.659 34.7274 171.1C35.0181 171.54 35.1854 172.051 35.2294 172.632H33.6969C33.6264 172.148 33.4282 171.765 33.1023 171.483C32.7765 171.192 32.3669 171.047 31.8737 171.047C31.2747 171.047 30.7947 171.258 30.4336 171.681C30.0724 172.095 29.8919 172.659 29.8919 173.372C29.8919 174.121 30.0813 174.711 30.46 175.143C30.8387 175.574 31.3276 175.79 31.9265 175.79C32.4021 175.79 32.7941 175.649 33.1023 175.367C33.4194 175.076 33.6176 174.68 33.6969 174.178H35.2294C35.1326 175.085 34.7891 175.803 34.1989 176.332C33.6176 176.851 32.8601 177.111 31.9265 177.111ZM39.355 176.926C38.5976 176.926 38.0162 176.746 37.6111 176.384C37.2147 176.015 37.0165 175.482 37.0165 174.786V171.245H35.7879V169.924H37.0165V167.533H38.5755V169.924H40.3856V171.245H38.5755V174.68C38.5755 174.98 38.6504 175.209 38.8001 175.367C38.9499 175.526 39.1701 175.605 39.4607 175.605H40.2534V176.926H39.355ZM44.6087 177.111C43.8688 177.111 43.2259 176.953 42.6798 176.635C42.1425 176.31 41.7285 175.865 41.4379 175.301C41.156 174.729 41.0151 174.081 41.0151 173.359C41.0151 172.61 41.1692 171.963 41.4775 171.417C41.7946 170.862 42.2218 170.439 42.759 170.148C43.3051 169.858 43.9217 169.713 44.6087 169.713C45.3397 169.713 45.9739 169.871 46.5112 170.188C47.0573 170.505 47.4712 170.941 47.7531 171.496C48.0438 172.042 48.1891 172.663 48.1891 173.359C48.1891 174.134 48.0349 174.803 47.7267 175.367C47.4272 175.931 47.0044 176.362 46.4583 176.662C45.9211 176.961 45.3045 177.111 44.6087 177.111ZM42.6005 173.359C42.6005 174.108 42.7855 174.702 43.1554 175.143C43.5341 175.574 44.0186 175.79 44.6087 175.79C45.2252 175.79 45.7097 175.565 46.062 175.116C46.4231 174.658 46.6037 174.072 46.6037 173.359C46.6037 172.663 46.4231 172.104 46.062 171.681C45.7009 171.258 45.2164 171.047 44.6087 171.047C44.0009 171.047 43.5121 171.258 43.1422 171.681C42.7811 172.104 42.6005 172.663 42.6005 173.359ZM53.3076 177.111C52.7527 177.111 52.2551 176.983 51.8147 176.728C51.3831 176.473 51.0572 176.125 50.837 175.684L50.6917 176.926H49.4366V167.017H50.9956V170.836C51.251 170.483 51.5813 170.21 51.9864 170.016C52.3916 169.814 52.8364 169.713 53.3208 169.713C53.9286 169.713 54.4703 169.871 54.9459 170.188C55.4303 170.496 55.8047 170.928 56.0689 171.483C56.3419 172.038 56.4785 172.672 56.4785 173.385C56.4785 174.108 56.3419 174.755 56.0689 175.328C55.8047 175.891 55.4303 176.332 54.9459 176.649C54.4703 176.957 53.9242 177.111 53.3076 177.111ZM50.9956 173.346C50.9956 173.821 51.0792 174.249 51.2466 174.627C51.4139 174.997 51.6473 175.288 51.9468 175.499C52.2463 175.702 52.5854 175.803 52.9641 175.803C53.5278 175.803 53.9858 175.579 54.3381 175.129C54.6993 174.68 54.8798 174.099 54.8798 173.385C54.8798 172.69 54.6993 172.126 54.3381 171.694C53.9858 171.254 53.5278 171.034 52.9641 171.034C52.5854 171.034 52.2463 171.135 51.9468 171.338C51.6473 171.531 51.4139 171.804 51.2466 172.157C51.0792 172.5 50.9956 172.897 50.9956 173.346ZM60.9302 177.111C60.2256 177.111 59.6002 176.957 59.0541 176.649C58.508 176.332 58.0809 175.896 57.7726 175.341C57.4731 174.786 57.3234 174.156 57.3234 173.451C57.3234 172.703 57.4731 172.047 57.7726 171.483C58.0809 170.91 58.4992 170.474 59.0277 170.175C59.5562 169.867 60.1463 169.713 60.7981 169.713C61.4587 169.713 62.0356 169.862 62.5288 170.162C63.0309 170.452 63.4228 170.875 63.7047 171.43C63.9865 171.976 64.1319 172.624 64.1407 173.372V173.742H58.8824C58.9352 174.367 59.1422 174.87 59.5033 175.248C59.8733 175.618 60.3533 175.803 60.9434 175.803C61.3486 175.803 61.6965 175.711 61.9872 175.526C62.2778 175.332 62.4804 175.059 62.5949 174.707H64.1143C63.9381 175.464 63.5682 176.054 63.0045 176.477C62.4496 176.9 61.7581 177.111 60.9302 177.111ZM62.5288 172.646C62.432 172.135 62.2294 171.738 61.9211 171.456C61.6216 171.175 61.2473 171.034 60.7981 171.034C60.3401 171.034 59.9481 171.179 59.6222 171.47C59.2964 171.752 59.0718 172.143 58.9484 172.646H62.5288ZM65.3572 169.924H66.6123L66.7973 171.298C67.2553 170.329 68.0656 169.845 69.2282 169.845H69.4925V171.364H69.2282C68.4972 171.364 67.9291 171.549 67.5239 171.919C67.1188 172.289 66.9162 172.804 66.9162 173.465V176.926H65.3572V169.924ZM75.0996 170.043C74.6592 170.659 73.9633 170.968 73.0121 170.968H72.9064V169.448H73.0121C73.6991 169.448 74.2188 169.312 74.5711 169.039C74.9322 168.757 75.1128 168.347 75.1128 167.81V167.678H76.685V176.926H75.0996V170.043ZM77.7133 179.185L79.1666 174.588L80.4217 174.971L78.9156 179.555L77.7133 179.185ZM84.5285 176.054C84.5285 175.446 84.6563 174.931 84.9117 174.508C85.1671 174.077 85.471 173.724 85.8233 173.451C86.1844 173.178 86.6556 172.875 87.237 172.54C87.6862 172.284 88.0429 172.064 88.3071 171.879C88.5714 171.685 88.7915 171.465 88.9677 171.219C89.1439 170.963 89.2319 170.673 89.2319 170.347C89.2319 169.915 89.0954 169.567 88.8224 169.303C88.5493 169.039 88.1838 168.907 87.7258 168.907C87.2237 168.907 86.8098 169.07 86.4839 169.395C86.158 169.713 85.9906 170.162 85.9818 170.743H84.3172C84.3612 170.065 84.5373 169.479 84.8456 168.986C85.1539 168.493 85.5591 168.118 86.0611 167.863C86.5632 167.607 87.1269 167.48 87.7522 167.48C88.36 167.48 88.8972 167.599 89.3641 167.836C89.8309 168.065 90.192 168.396 90.4474 168.827C90.7117 169.25 90.8438 169.739 90.8438 170.294C90.8438 170.822 90.7293 171.28 90.5003 171.668C90.2713 172.047 89.9894 172.359 89.6547 172.606C89.3288 172.853 88.8972 173.134 88.36 173.451C87.9372 173.698 87.5981 173.909 87.3427 174.086C87.096 174.262 86.8758 174.469 86.6821 174.707C86.4971 174.936 86.3782 175.2 86.3253 175.499H90.672V176.926H84.5285V176.054ZM95.5768 177.111C94.8457 177.111 94.2028 176.913 93.6479 176.517C93.093 176.12 92.6614 175.557 92.3531 174.825C92.0537 174.094 91.9039 173.244 91.9039 172.276C91.9039 171.324 92.0537 170.488 92.3531 169.765C92.6526 169.034 93.0798 168.471 93.6347 168.074C94.1896 167.678 94.8369 167.48 95.5768 167.48C96.299 167.48 96.9376 167.678 97.4925 168.074C98.0474 168.462 98.4746 169.021 98.7741 169.752C99.0823 170.474 99.2365 171.316 99.2365 172.276C99.2365 173.236 99.0867 174.081 98.7873 174.812C98.4878 175.543 98.0606 176.111 97.5057 176.517C96.9508 176.913 96.3079 177.111 95.5768 177.111ZM93.5025 172.276C93.5025 173.306 93.6875 174.13 94.0574 174.746C94.4362 175.354 94.9426 175.658 95.5768 175.658C95.9908 175.658 96.3519 175.521 96.6602 175.248C96.9772 174.966 97.2195 174.57 97.3868 174.059C97.5542 173.548 97.6378 172.954 97.6378 172.276C97.6378 171.606 97.5542 171.02 97.3868 170.518C97.2195 170.008 96.9772 169.616 96.6602 169.343C96.3519 169.07 95.9908 168.933 95.5768 168.933C94.9426 168.933 94.4362 169.237 94.0574 169.845C93.6875 170.444 93.5025 171.254 93.5025 172.276ZM100.321 176.054C100.321 175.446 100.448 174.931 100.704 174.508C100.959 174.077 101.263 173.724 101.616 173.451C101.977 173.178 102.448 172.875 103.029 172.54C103.478 172.284 103.835 172.064 104.099 171.879C104.364 171.685 104.584 171.465 104.76 171.219C104.936 170.963 105.024 170.673 105.024 170.347C105.024 169.915 104.888 169.567 104.615 169.303C104.342 169.039 103.976 168.907 103.518 168.907C103.016 168.907 102.602 169.07 102.276 169.395C101.95 169.713 101.783 170.162 101.774 170.743H100.109C100.153 170.065 100.33 169.479 100.638 168.986C100.946 168.493 101.351 168.118 101.853 167.863C102.355 167.607 102.919 167.48 103.544 167.48C104.152 167.48 104.689 167.599 105.156 167.836C105.623 168.065 105.984 168.396 106.24 168.827C106.504 169.25 106.636 169.739 106.636 170.294C106.636 170.822 106.521 171.28 106.292 171.668C106.063 172.047 105.782 172.359 105.447 172.606C105.121 172.853 104.689 173.134 104.152 173.451C103.729 173.698 103.39 173.909 103.135 174.086C102.888 174.262 102.668 174.469 102.474 174.707C102.289 174.936 102.17 175.2 102.118 175.499H106.464V176.926H100.321V176.054ZM109.806 170.043C109.366 170.659 108.67 170.968 107.719 170.968H107.613V169.448H107.719C108.406 169.448 108.926 169.312 109.278 169.039C109.639 168.757 109.82 168.347 109.82 167.81V167.678H111.392V176.926H109.806V170.043Z" fill="white"/>
<path d="M539.231 24.6109C539.446 24.396 539.446 24.0474 539.231 23.8324L535.728 20.3291C535.513 20.1141 535.164 20.1141 534.949 20.3291C534.734 20.5441 534.734 20.8926 534.949 21.1076L538.063 24.2217L534.949 27.3357C534.734 27.5507 534.734 27.8993 534.949 28.1142C535.164 28.3292 535.513 28.3292 535.728 28.1142L539.231 24.6109ZM508.29 24.2217V24.7722H538.842V24.2217V23.6712H508.29V24.2217Z" fill="white"/>
<path d="M64.5688 216.457C64.7837 216.672 65.1323 216.672 65.3473 216.457L68.8506 212.954C69.0655 212.739 69.0655 212.39 68.8506 212.175C68.6356 211.96 68.287 211.96 68.0721 212.175L64.958 215.289L61.844 212.175C61.629 211.96 61.2804 211.96 61.0654 212.175C60.8505 212.39 60.8505 212.739 61.0654 212.954L64.5688 216.457ZM64.958 185.516L64.4075 185.516L64.4075 216.068L64.958 216.068L65.5085 216.068L65.5085 185.516L64.958 185.516Z" fill="white"/>
<path d="M65.5085 133.769C74.0213 133.769 80.9223 126.868 80.9223 118.356C80.9223 109.843 74.0213 102.942 65.5085 102.942C56.9957 102.942 50.0947 109.843 50.0947 118.356C50.0947 126.868 56.9957 133.769 65.5085 133.769Z" fill="#C8ECE1"/>
<path fill-rule="evenodd" clip-rule="evenodd" d="M59.611 122.725C59.669 122.661 59.7397 122.61 59.8186 122.575C59.8973 122.54 59.9826 122.522 60.0688 122.522L74.194 122.534C74.2542 122.534 74.313 122.551 74.3633 122.584C74.4137 122.617 74.4534 122.664 74.4776 122.719C74.5019 122.774 74.5096 122.835 74.4999 122.894C74.4902 122.954 74.4634 123.009 74.4229 123.053L71.4149 126.365C71.3568 126.429 71.2861 126.48 71.2073 126.515C71.1283 126.55 71.043 126.568 70.9567 126.568L56.8319 126.557C56.7718 126.556 56.713 126.539 56.6626 126.506C56.6123 126.473 56.5725 126.426 56.5483 126.371C56.5241 126.316 56.5163 126.255 56.5261 126.196C56.5358 126.136 56.5625 126.081 56.603 126.037L59.611 122.725ZM74.4229 119.968C74.4634 120.012 74.4902 120.067 74.4999 120.127C74.5096 120.186 74.5019 120.247 74.4776 120.302C74.4534 120.357 74.4137 120.404 74.3633 120.437C74.313 120.47 74.2542 120.487 74.194 120.487L60.0692 120.499C59.983 120.499 59.8976 120.481 59.8187 120.446C59.7398 120.411 59.669 120.36 59.611 120.296L56.603 116.982C56.5625 116.938 56.5358 116.883 56.5261 116.823C56.5163 116.764 56.5241 116.703 56.5483 116.648C56.5725 116.593 56.6123 116.546 56.6626 116.513C56.713 116.48 56.7718 116.463 56.8319 116.462L70.9571 116.451C71.0433 116.451 71.1286 116.469 71.2074 116.504C71.2862 116.539 71.3569 116.59 71.4149 116.654L74.4229 119.968ZM59.611 110.586C59.669 110.523 59.7397 110.472 59.8186 110.437C59.8973 110.402 59.9826 110.384 60.0688 110.384L74.194 110.395C74.2542 110.395 74.313 110.413 74.3633 110.446C74.4137 110.479 74.4534 110.526 74.4776 110.581C74.5019 110.636 74.5096 110.697 74.4999 110.756C74.4902 110.815 74.4634 110.871 74.4229 110.915L71.4149 114.227C71.3568 114.291 71.2861 114.342 71.2073 114.377C71.1283 114.412 71.043 114.43 70.9567 114.43L56.8319 114.418C56.7718 114.418 56.713 114.4 56.6626 114.368C56.6123 114.335 56.5725 114.288 56.5483 114.233C56.5241 114.178 56.5163 114.117 56.5261 114.057C56.5358 113.998 56.5625 113.943 56.603 113.898L59.611 110.586Z" fill="#308D8A"/>
<defs>
<filter id="filter0_f_312_3413" x="27.6553" y="12.9742" width="552.739" height="236.086" filterUnits="userSpaceOnUse" color-interpolation-filters="sRGB">
<feFlood flood-opacity="0" result="BackgroundImageFix"/>
<feBlend mode="normal" in="SourceGraphic" in2="BackgroundImageFix" result="shape"/>
<feGaussianBlur stdDeviation="7" result="effect1_foregroundBlur_312_3413"/>
</filter>
<linearGradient id="paint0_linear_312_3413" x1="510.487" y1="37.3512" x2="510.487" y2="194.156" gradientUnits="userSpaceOnUse">
<stop stop-color="white" stop-opacity="0.2"/>
<stop offset="1" stop-color="white" stop-opacity="0.02"/>
</linearGradient>
<linearGradient id="paint1_linear_312_3413" x1="41.6553" y1="163.572" x2="585.871" y2="163.572" gradientUnits="userSpaceOnUse">
<stop stop-color="white" stop-opacity="0"/>
<stop offset="0.21701" stop-color="white"/>
<stop offset="1" stop-color="white"/>
</linearGradient>
</defs>
</svg>
