<svg width="22" height="22" viewBox="0 0 22 22" fill="none" xmlns="http://www.w3.org/2000/svg">
<g clip-path="url(#clip0_649_3954)">
<path d="M3.22452 1.51677C1.5894 1.51677 1.56409 3.17666 1.56409 3.17666V20.3162H18.704C20.3061 20.3162 20.3639 18.6558 20.3639 18.6558V1.51626L12.163 1.51673L3.22452 1.51677ZM12.304 0.411621H21.4691V18.6728C21.4691 18.6728 21.4691 21.4213 18.7211 21.4213L0.459473 21.4208V3.1679C0.459473 3.1679 0.459473 0.411621 3.21581 0.411621H12.304Z" fill="white"/>
<path d="M6.17035 14.5951V12.0221C6.17035 11.886 6.16841 11.7566 6.16572 11.6341C6.16182 11.5116 6.15696 11.3823 6.15014 11.2461C6.14333 11.11 6.13118 10.95 6.11463 10.7663C6.09714 10.5825 6.07656 10.3665 6.05289 10.1182C6.02921 9.8699 6.00036 9.56859 5.96634 9.21425L5.57834 9.20406L9.61132 14.5952H10.9999V7.44794H9.49914V9.3981C9.49914 9.69078 9.50254 9.96127 9.50934 10.2095C9.51614 10.4585 9.52456 10.6935 9.5346 10.9145C9.54531 11.1357 9.55843 11.3503 9.57544 11.5577C9.59245 11.7652 9.61141 11.9696 9.63186 12.1699C9.65228 12.3711 9.67611 12.5771 9.70334 12.7878H9.98922L6.03763 7.44794H4.66943V14.5951H6.17035ZM14.8745 14.5905C15.0927 14.5236 15.2994 14.4235 15.4871 14.2938C15.6559 14.1796 15.803 14.0362 15.9213 13.8703C16.0253 13.7263 16.0888 13.5571 16.1051 13.3802L15.8192 13.3496L15.8805 14.5952H17.2589V7.03955H15.7989V10.5621L16.1665 10.4906C16.1494 10.3043 16.0824 10.1261 15.9725 9.97476C15.8475 9.79895 15.6938 9.64539 15.5179 9.52048C15.1207 9.23522 14.644 9.08167 14.155 9.08145C13.7047 9.07399 13.2622 9.2002 12.8836 9.44413C12.5063 9.69281 12.203 10.0384 12.0055 10.4448C11.7911 10.8702 11.6839 11.3517 11.6841 11.8893C11.6841 12.4406 11.7912 12.9255 12.0055 13.344C12.2051 13.7462 12.5082 14.088 12.8836 14.3344C13.2621 14.5785 13.7046 14.7047 14.155 14.697C14.3989 14.698 14.6415 14.662 14.8746 14.5901M13.7718 13.2882C13.567 13.1473 13.4046 12.9531 13.3021 12.7266C13.1847 12.4635 13.1272 12.1775 13.1339 11.8894C13.1279 11.6047 13.1854 11.3222 13.3021 11.0624C13.4045 10.8359 13.567 10.6417 13.7718 10.5008C13.982 10.3619 14.2297 10.2906 14.4816 10.2966C14.735 10.2911 14.9841 10.3623 15.1963 10.5008C15.404 10.6413 15.5698 10.8353 15.6762 11.0623C15.7964 11.3212 15.8558 11.6041 15.8499 11.8894C15.8566 12.1781 15.7972 12.4644 15.6764 12.7266C15.57 12.9537 15.4041 13.1477 15.1963 13.2882C14.9841 13.4267 14.735 13.4978 14.4816 13.4924C14.2297 13.4983 13.982 13.4271 13.7717 13.2882" fill="white"/>
</g>
<defs>
<clipPath id="clip0_649_3954">
<rect width="21.0094" height="21.0099" fill="white" transform="translate(0.459473 0.411621)"/>
</clipPath>
</defs>
</svg>
