<svg width="31" height="30" viewBox="0 0 31 30" fill="none" xmlns="http://www.w3.org/2000/svg">
<g clip-path="url(#clip0_670_3995)">
<path d="M4.74351 1.65231C2.42987 1.65231 2.39405 4.00099 2.39405 4.00099V28.2528H26.6464C28.9133 28.2528 28.9952 25.9034 28.9952 25.9034V1.65159L17.3912 1.65225L4.74351 1.65231ZM17.5907 0.088562H30.5589V25.9275C30.5589 25.9275 30.5589 29.8165 26.6706 29.8165L0.831055 29.8159V3.9886C0.831055 3.9886 0.831055 0.088562 4.73118 0.088562H17.5907Z" fill="#151A1A"/>
<path d="M8.91135 20.1579V16.5173C8.91135 16.3246 8.90859 16.1416 8.90479 15.9683C8.89928 15.7949 8.89239 15.6119 8.88275 15.4193C8.87311 15.2266 8.85592 15.0003 8.8325 14.7403C8.80775 14.4802 8.77863 14.1745 8.74514 13.8232C8.71164 13.4719 8.67082 13.0456 8.62267 12.5442L8.07367 12.5298L13.7802 20.158H15.745V10.0449H13.6215V12.8044C13.6215 13.2185 13.6263 13.6012 13.6359 13.9525C13.6455 14.3047 13.6574 14.6372 13.6716 14.95C13.6868 15.263 13.7054 15.5666 13.7294 15.8602C13.7535 16.1538 13.7803 16.4429 13.8093 16.7263C13.8382 17.0111 13.8719 17.3026 13.9104 17.6007H14.3149L8.72356 10.0449H6.7876V20.1579H8.91135ZM21.2274 20.1514C21.5362 20.0567 21.8286 19.9152 22.0943 19.7316C22.3331 19.5701 22.5412 19.3671 22.7086 19.1324C22.8558 18.9286 22.9456 18.6892 22.9687 18.4389L22.5642 18.3956L22.6509 20.1581H24.6013V9.46709H22.5355V14.4513L23.0555 14.3502C23.0314 14.0866 22.9365 13.8345 22.781 13.6203C22.6041 13.3715 22.3867 13.1543 22.1378 12.9775C21.5758 12.5739 20.9013 12.3566 20.2094 12.3563C19.5721 12.3457 18.9461 12.5243 18.4103 12.8695C17.8766 13.2214 17.4474 13.7104 17.1679 14.2853C16.8645 14.8873 16.7129 15.5686 16.7131 16.3293C16.7131 17.1094 16.8647 17.7955 17.1679 18.3876C17.4503 18.9567 17.8791 19.4404 18.4103 19.789C18.9459 20.1345 19.5721 20.3131 20.2094 20.3022C20.5545 20.3036 20.8978 20.2526 21.2276 20.1509M19.6671 18.3087C19.3773 18.1093 19.1475 17.8346 19.0025 17.5141C18.8364 17.1417 18.7551 16.7371 18.7645 16.3295C18.756 15.9266 18.8373 15.5268 19.0025 15.1593C19.1475 14.8388 19.3773 14.564 19.6671 14.3646C19.9646 14.1681 20.3151 14.0673 20.6715 14.0757C21.03 14.068 21.3825 14.1687 21.6828 14.3646C21.9766 14.5634 22.2113 14.8379 22.3618 15.1592C22.5319 15.5254 22.616 15.9257 22.6076 16.3295C22.617 16.7379 22.533 17.1431 22.362 17.5141C22.2115 17.8354 21.9767 18.11 21.6828 18.3087C21.3825 18.5046 21.03 18.6053 20.6715 18.5976C20.315 18.606 19.9645 18.5052 19.667 18.3087" fill="#151A1A"/>
</g>
<defs>
<clipPath id="clip0_670_3995">
<rect width="29.7276" height="29.7283" fill="white" transform="translate(0.831055 0.0887756)"/>
</clipPath>
</defs>
</svg>
