<svg width="39" height="48" viewBox="0 0 39 48" fill="none" xmlns="http://www.w3.org/2000/svg">
<g clip-path="url(#clip0_3391_196745)">
<mask id="mask0_3391_196745" style="mask-type:luminance" maskUnits="userSpaceOnUse" x="3" y="7" width="34" height="34">
<path d="M36.625 7.5H3.625V40.5H36.625V7.5Z" fill="white"/>
</mask>
<g mask="url(#mask0_3391_196745)">
<path d="M19.4069 30.4373H16.9389L11.3508 21.9935V30.4373H8.88281V18.1152H11.3508L16.9389 26.5768V18.1152H19.4069V30.4373Z" fill="#778A96"/>
<path d="M21.1934 25.5192C21.1934 24.532 21.3872 23.6565 21.7751 22.8926C22.1746 22.1287 22.7152 21.5411 23.3969 21.1297C24.0785 20.7184 24.8365 20.5127 25.6709 20.5127C26.3056 20.5127 26.9108 20.6538 27.4866 20.9359C28.0625 21.2061 28.5208 21.5705 28.8617 22.0288V17.3926H31.3648V30.4375H28.8617V28.992C28.5561 29.4738 28.1271 29.8616 27.5747 30.1554C27.0224 30.4492 26.3819 30.5961 25.6533 30.5961C24.8306 30.5961 24.0785 30.3846 23.3969 29.9615C22.7152 29.5384 22.1746 28.945 21.7751 28.181C21.3872 27.4054 21.1934 26.5181 21.1934 25.5192ZM28.8792 25.5545C28.8792 24.9551 28.7617 24.4439 28.5267 24.0208C28.2917 23.5859 27.9743 23.2569 27.5747 23.0336C27.1752 22.7986 26.7462 22.6811 26.2879 22.6811C25.8295 22.6811 25.4065 22.7927 25.0186 23.0159C24.6308 23.2393 24.3135 23.5684 24.0668 24.0031C23.8317 24.4262 23.7141 24.9316 23.7141 25.5192C23.7141 26.1068 23.8317 26.6239 24.0668 27.0705C24.3135 27.5053 24.6308 27.8402 25.0186 28.0753C25.4183 28.3103 25.8413 28.4279 26.2879 28.4279C26.7462 28.4279 27.1752 28.3162 27.5747 28.0929C27.9743 27.8579 28.2917 27.5288 28.5267 27.1057C28.7617 26.6709 28.8792 26.1538 28.8792 25.5545Z" fill="#778A96"/>
<path d="M4.4707 8.34375H35.7765V39.6495H4.4707V8.34375Z" stroke="#778A96" stroke-width="3.78015"/>
</g>
</g>
<defs>
<clipPath id="clip0_3391_196745">
<rect width="33" height="33" fill="white" transform="translate(3.625 7.5)"/>
</clipPath>
</defs>
</svg>
