<svg width="20" height="21" viewBox="0 0 20 21" fill="none" xmlns="http://www.w3.org/2000/svg">
<rect y="0.5" width="20" height="20" rx="10" fill="#FFD15C"/>
<path d="M5.15668 14.5983C5.24296 14.5397 5.32351 14.4519 5.3636 14.3273C5.40816 14.1888 5.38187 14.0669 5.36101 13.9994C5.36032 13.9972 5.35959 13.9949 5.35886 13.9927L5.37549 13.8956C5.42142 13.9214 5.47426 13.9562 5.53454 13.9985C5.54907 14.0087 5.56939 14.0232 5.59053 14.0383C5.61827 14.0581 5.64752 14.079 5.66702 14.0926C5.7005 14.1158 5.74807 14.1483 5.79845 14.1751C7.13199 15.0039 8.23481 15.3456 9.11075 15.3033C10.0164 15.2595 10.6514 14.8039 10.979 14.1391C11.2957 13.4964 11.3067 12.7001 11.0848 11.9624C10.8615 11.22 10.3918 10.4984 9.69171 9.99907C8.51203 9.15771 7.43107 7.87834 6.88447 6.79051C6.60688 6.23803 6.49645 5.79247 6.52561 5.50153C6.53914 5.36614 6.58064 5.28422 6.63025 5.23151C6.67991 5.17876 6.77039 5.12058 6.9447 5.09188C7.3139 5.03105 7.74091 4.89808 8.17426 4.76315C8.34251 4.71076 8.51167 4.65807 8.67882 4.6092C9.30342 4.42655 9.96465 4.27312 10.6597 4.27442C12.0077 4.27696 13.5898 4.86224 15.2555 7.29698C17.3954 10.4247 16.2206 13.9197 13.7555 15.7558C12.5261 16.6715 10.9923 17.1575 9.41608 16.9727C7.99686 16.8063 6.51044 16.0921 5.15668 14.5983ZM5.40488 13.7888C5.40488 13.7889 5.40442 13.7898 5.40333 13.7914C5.40429 13.7895 5.40483 13.7887 5.40488 13.7888ZM5.27089 13.8499C5.27085 13.8498 5.27221 13.8499 5.27517 13.8506C5.27244 13.8503 5.27098 13.85 5.27089 13.8499Z" fill="white" stroke="#151A1A" stroke-width="0.966314"/>
<path fill-rule="evenodd" clip-rule="evenodd" d="M11.041 4.23389C10.2041 4.23389 6.38141 5.2518 6.38141 5.2518L6.6076 6.63157L7.28619 7.76255L7.37667 6.85777C7.37667 6.85777 7.15047 6.50879 7.55763 6.45062C10.8148 5.98538 17.4424 12.1734 13.3935 15.5211C13.7511 15.7487 16.4719 13.832 16.5021 10.7123C16.5816 10.6337 16.665 10.5827 16.7499 10.5529C16.8916 10.5032 17.04 10.512 17.1847 10.5551C17.4752 10.6417 17.7459 10.8654 17.9055 11.0182C17.9407 11.052 17.988 11.0588 18.0264 11.0442C18.0652 11.0295 18.0949 10.9928 18.0932 10.9426C18.0808 10.5791 17.9768 9.79583 17.377 8.95596C16.9662 8.38065 16.5347 8.02621 16.2054 7.81549C16.0408 7.71015 15.9018 7.64074 15.8037 7.59761C15.7546 7.57605 15.7158 7.56105 15.6892 7.55142C15.6759 7.5466 15.6656 7.54312 15.6586 7.54083L15.6506 7.53827L15.6485 7.53763L15.6479 7.53745L15.6477 7.53741L15.6477 7.53739L15.6413 7.55908L15.6476 7.53738L15.5939 7.52159L15.6216 7.57025C15.8929 8.04794 16.0908 8.35704 16.2311 8.57639L16.2767 8.64765C16.4193 8.87128 16.4901 8.9907 16.5164 9.1184C16.5428 9.24609 16.525 9.38377 16.4825 9.64558L16.4688 9.72908C16.4616 9.77334 16.4538 9.82072 16.4456 9.87162C16.3972 9.53422 16.3166 9.18525 16.1984 8.8257C15.2223 5.8579 11.878 4.23389 11.041 4.23389ZM5.12929 11.3151C5.41171 11.1316 5.71691 10.9332 5.92913 10.574C5.96826 10.5077 6.06658 10.5071 6.0956 10.5784C6.35213 11.2092 7.06266 13.3538 5.33368 14.3251C5.33368 14.3251 5.33345 14.3315 5.32475 14.3231C3.49902 15.0794 2.24942 13.2034 1.91078 12.6137C1.87244 12.547 1.93343 12.4698 2.00975 12.4798C2.42352 12.5338 2.76773 12.4154 3.08624 12.3058C3.53218 12.1525 3.92776 12.0164 4.39335 12.395L4.39475 12.3977C4.38406 11.7995 4.7344 11.5718 5.12929 11.3151ZM10.8148 12.3775C11.335 12.2193 10.3397 11.2013 10.3397 11.2013C10.3397 11.2013 10.3397 10.4774 9.79686 10.6132C8.87869 10.7443 8.40024 11.7312 8.20648 12.2643C8.15591 12.4035 8.29345 12.528 8.43372 12.4807C9.00356 12.2885 10.166 11.9782 10.8148 12.3775Z" fill="#151A1A"/>
<path d="M10.9506 6.22336C10.8375 6.06505 10.6113 5.63525 11.3125 5.63525C12.0137 5.63525 13.0852 6.42924 13.303 6.72295C13.2352 6.90195 12.7828 6.942 12.5566 6.92459C12.3304 6.90719 11.9458 6.86997 11.6518 6.72295C11.3577 6.57594 11.0637 6.38172 10.9506 6.22336Z" fill="white"/>
</svg>
