<svg width="89" height="20" viewBox="0 0 89 20" fill="none" xmlns="http://www.w3.org/2000/svg">
<g clip-path="url(#clip0_649_3882)">
<path d="M21.9224 10.9329C21.9224 13.3622 23.6615 15.0343 26.0587 15.0343C28.456 15.0343 30.1951 13.3622 30.1951 10.9329C30.1951 8.50364 28.456 6.83154 26.0587 6.83154C23.6615 6.83154 21.9224 8.50364 21.9224 10.9329ZM23.8339 10.9329C23.8339 9.5132 24.7426 8.55098 26.0587 8.55098C27.3749 8.55098 28.2837 9.5132 28.2837 10.9329C28.2837 12.3526 27.3749 13.3149 26.0587 13.3149C24.7426 13.3149 23.8339 12.3526 23.8339 10.9329Z" fill="white"/>
<path d="M33.1295 14.8441H35.0098L38.2374 7.05151H36.2632L34.8531 10.6323C34.5241 11.4842 34.2421 12.3045 34.1324 12.7935C34.0383 12.3675 33.772 11.563 33.443 10.6323L32.0955 7.05151H30.0586L33.1295 14.8441Z" fill="white"/>
<path d="M42.0245 15.049C44.0457 15.049 45.4557 14.0237 45.7848 12.32H44.0143C43.795 13.0614 43.1056 13.4715 42.0558 13.4715C40.7867 13.4715 40.066 12.7775 39.9249 11.4051L45.7535 11.3893V10.8056C45.7535 8.37641 44.2807 6.8147 41.9617 6.8147C39.6899 6.8147 38.1074 8.50257 38.1074 10.9476C38.1074 13.3612 39.7212 15.049 42.0245 15.049ZM41.9774 8.39211C43.1212 8.39211 43.8576 9.10202 43.8576 10.1747H39.9719C40.1599 9.00735 40.8493 8.39211 41.9774 8.39211Z" fill="white"/>
<path d="M51.7487 7.01936C51.4354 6.94049 51.169 6.90894 50.9026 6.90894C49.8686 6.90894 49.1322 7.42949 48.8031 8.20245L48.6934 7.06668H46.8916V14.8435H48.8031V11.0576C48.8031 9.54328 49.6648 8.80189 51.0437 8.80189H51.7487V7.01936Z" fill="white"/>
<path d="M51.9365 10.9319C51.9365 13.4084 53.472 15.049 55.8222 15.049C57.8434 15.049 59.3476 13.8028 59.5826 11.9888H57.6554C57.4517 12.8406 56.778 13.3138 55.8222 13.3138C54.6001 13.3138 53.848 12.3989 53.848 10.9319C53.848 9.46479 54.6628 8.53412 55.8849 8.53412C56.7937 8.53412 57.436 8.99157 57.6554 9.87497H59.5669C59.3632 7.99779 57.9218 6.8147 55.8065 6.8147C53.519 6.8147 51.9365 8.51835 51.9365 10.9319Z" fill="white"/>
<path d="M62.5403 14.8434V3.57422H60.6445V14.8434H62.5403Z" fill="white"/>
<path d="M63.7002 10.9329C63.7002 13.3622 65.4394 15.0343 67.8366 15.0343C70.2339 15.0343 71.9731 13.3622 71.9731 10.9329C71.9731 8.50364 70.2339 6.83154 67.8366 6.83154C65.4394 6.83154 63.7002 8.50364 63.7002 10.9329ZM65.6118 10.9329C65.6118 9.5132 66.5205 8.55098 67.8366 8.55098C69.1528 8.55098 70.0616 9.5132 70.0616 10.9329C70.0616 12.3526 69.1528 13.3149 67.8366 13.3149C66.5205 13.3149 65.6118 12.3526 65.6118 10.9329Z" fill="white"/>
<path d="M72.6416 10.9319C72.6416 13.4084 74.1771 15.049 76.5273 15.049C78.5486 15.049 80.053 13.8028 80.2874 11.9888H78.3602C78.1572 12.8406 77.4831 13.3138 76.5273 13.3138C75.3052 13.3138 74.5531 12.3989 74.5531 10.9319C74.5531 9.46479 75.3679 8.53412 76.59 8.53412C77.4984 8.53412 78.1411 8.99157 78.3602 9.87497H80.272C80.0683 7.99779 78.6267 6.8147 76.5116 6.8147C74.2241 6.8147 72.6416 8.51835 72.6416 10.9319Z" fill="white"/>
<path d="M83.2459 14.8434V12.7454L84.3742 11.5623L86.3956 14.8434H88.5893L85.7062 10.1426L88.6522 7.05078H86.2547L83.2459 10.3161V3.57422H81.3501V14.8434H83.2459Z" fill="white"/>
<path fill-rule="evenodd" clip-rule="evenodd" d="M9.90687 0.727783V2.91002C13.8854 3.42784 16.9578 6.82669 16.9578 10.9433C16.9578 15.4178 13.3274 19.0452 8.8492 19.0452C7.37779 19.0452 5.99758 18.6533 4.80775 17.9687L6.37657 16.4011C7.14335 16.7485 7.98196 16.9317 8.8492 16.9317C10.4502 16.9317 11.9555 16.309 13.0873 15.1779C14.2189 14.0467 14.8425 12.5429 14.8425 10.9433C14.8425 9.3436 14.2194 7.83988 13.0873 6.70869C12.2085 5.83069 11.1051 5.25915 9.90687 5.04735V7.06843H7.79162V0.727783H9.90687ZM4.5984 12.1999L6.09407 13.6943L1.62116 18.1637L0.125488 16.6692L1.81682 14.9792C1.13244 13.7908 0.740678 12.4126 0.740678 10.9433C0.740678 7.5937 2.7753 4.71927 5.6763 3.48549V5.86059C5.29467 6.09925 4.93728 6.38281 4.61117 6.70865C3.4795 7.83984 2.85594 9.34352 2.85594 10.9433C2.85594 11.8089 3.03883 12.646 3.38564 13.4117L4.5984 12.1999Z" fill="white"/>
</g>
<defs>
<clipPath id="clip0_649_3882">
<rect width="88.8534" height="18.3835" fill="white" transform="translate(0.125977 0.69458)"/>
</clipPath>
</defs>
</svg>
