<svg width="127" height="27" viewBox="0 0 127 27" fill="none" xmlns="http://www.w3.org/2000/svg">
<g clip-path="url(#clip0_670_3923)">
<path d="M31.2612 15.434C31.2612 18.8714 33.7221 21.2373 37.114 21.2373C40.5061 21.2373 42.9669 18.8714 42.9669 15.434C42.9669 11.9967 40.5061 9.63071 37.114 9.63071C33.7221 9.63071 31.2612 11.9967 31.2612 15.434ZM33.9659 15.434C33.9659 13.4252 35.2518 12.0636 37.114 12.0636C38.9764 12.0636 40.2622 13.4252 40.2622 15.434C40.2622 17.4428 38.9764 18.8044 37.114 18.8044C35.2518 18.8044 33.9659 17.4428 33.9659 15.434Z" fill="#151A1A"/>
<path d="M47.1192 20.9683H49.7797L54.3466 9.94196H51.5533L49.558 15.0087C49.0924 16.214 48.6934 17.3747 48.5382 18.0666C48.4051 17.4639 48.0282 16.3256 47.5627 15.0087L45.656 9.94196H42.7739L47.1192 20.9683Z" fill="#151A1A"/>
<path d="M59.7053 21.258C62.5652 21.258 64.5605 19.8071 65.0261 17.3965H62.5209C62.2105 18.4456 61.2351 19.0259 59.7497 19.0259C57.9539 19.0259 56.9341 18.0438 56.7346 16.1019L64.9818 16.0796V15.2537C64.9818 11.8165 62.8978 9.6067 59.6166 9.6067C56.4019 9.6067 54.1628 11.995 54.1628 15.4547C54.1628 18.8697 56.4463 21.258 59.7053 21.258ZM59.6388 11.8387C61.2572 11.8387 62.2992 12.8432 62.2992 14.361H56.801C57.0671 12.7092 58.0425 11.8387 59.6388 11.8387Z" fill="#151A1A"/>
<path d="M73.4645 9.89646C73.0211 9.78486 72.6441 9.74022 72.2673 9.74022C70.8041 9.74022 69.7621 10.4768 69.2965 11.5705L69.1413 9.96342H66.5918V20.9674H69.2965V15.6105C69.2965 13.4677 70.5158 12.4187 72.4668 12.4187H73.4645V9.89646Z" fill="#151A1A"/>
<path d="M73.7305 15.4324C73.7305 18.9366 75.9031 21.258 79.2286 21.258C82.0885 21.258 84.2169 19.4947 84.5494 16.9278H81.8225C81.5343 18.1332 80.5809 18.8027 79.2286 18.8027C77.4993 18.8027 76.4352 17.5081 76.4352 15.4324C76.4352 13.3565 77.588 12.0396 79.3173 12.0396C80.6032 12.0396 81.5121 12.6869 81.8225 13.9369H84.5272C84.239 11.2807 82.1994 9.6067 79.2064 9.6067C75.9696 9.6067 73.7305 12.0173 73.7305 15.4324Z" fill="#151A1A"/>
<path d="M88.7345 20.9672V5.0217H86.052V20.9672H88.7345Z" fill="#151A1A"/>
<path d="M90.375 15.434C90.375 18.8714 92.8359 21.2373 96.2279 21.2373C99.62 21.2373 102.081 18.8714 102.081 15.434C102.081 11.9967 99.62 9.63071 96.2279 9.63071C92.8359 9.63071 90.375 11.9967 90.375 15.434ZM93.0798 15.434C93.0798 13.4252 94.3657 12.0636 96.2279 12.0636C98.0903 12.0636 99.3761 13.4252 99.3761 15.434C99.3761 17.4428 98.0903 18.8044 96.2279 18.8044C94.3657 18.8044 93.0798 17.4428 93.0798 15.434Z" fill="#151A1A"/>
<path d="M103.027 15.4324C103.027 18.9366 105.2 21.258 108.525 21.258C111.385 21.258 113.514 19.4947 113.846 16.9278H111.119C110.831 18.1332 109.878 18.8027 108.525 18.8027C106.796 18.8027 105.732 17.5081 105.732 15.4324C105.732 13.3565 106.885 12.0396 108.614 12.0396C109.899 12.0396 110.809 12.6869 111.119 13.9369H113.824C113.536 11.2807 111.496 9.6067 108.503 9.6067C105.266 9.6067 103.027 12.0173 103.027 15.4324Z" fill="#151A1A"/>
<path d="M118.032 20.9672V17.9986L119.628 16.3245L122.489 20.9672H125.593L121.513 14.3157L125.682 9.94091H122.289L118.032 14.5612V5.0217H115.349V20.9672H118.032Z" fill="#151A1A"/>
<path fill-rule="evenodd" clip-rule="evenodd" d="M14.2597 0.993927V4.08172C19.8892 4.81441 24.2365 9.62368 24.2365 15.4485C24.2365 21.7798 19.0997 26.9125 12.7632 26.9125C10.6812 26.9125 8.72825 26.3579 7.04467 25.3892L9.2645 23.1711C10.3495 23.6626 11.5361 23.9219 12.7632 23.9219C15.0286 23.9219 17.1586 23.0408 18.7599 21.4403C20.3612 19.8397 21.2435 17.712 21.2435 15.4485C21.2435 13.185 20.3618 11.0573 18.7599 9.45671C17.5166 8.21436 15.9552 7.40565 14.2597 7.10597V9.96573H11.2667V0.993927H14.2597ZM6.74845 17.2266L8.86477 19.3412L2.53576 25.6651L0.419434 23.5505L2.81261 21.1592C1.84424 19.4776 1.28991 17.5275 1.28991 15.4485C1.28991 10.709 4.16883 6.64174 8.27364 4.89598V8.25668C7.73365 8.59436 7.22796 8.9956 6.76653 9.45665C5.16525 11.0572 4.28294 13.1849 4.28294 15.4485C4.28294 16.6733 4.54171 17.8577 5.03244 18.9412L6.74845 17.2266Z" fill="#151A1A"/>
</g>
<defs>
<clipPath id="clip0_670_3923">
<rect width="125.724" height="26.012" fill="white" transform="translate(0.419922 0.946945)"/>
</clipPath>
</defs>
</svg>
