<svg width="294" height="168" viewBox="0 0 294 168" fill="none" xmlns="http://www.w3.org/2000/svg">
<g opacity="0.7">
<path opacity="0.3" d="M67.3965 0.0615234C96.5311 0.0615234 120.153 24.567 120.153 54.7998C120.153 85.0324 96.5309 109.537 67.3965 109.537C38.2622 109.537 14.6399 85.0323 14.6396 54.7998C14.6396 24.5671 38.2621 0.061686 67.3965 0.0615234Z" stroke="url(#paint0_linear_3404_10498)" stroke-width="0.12398"/>
<path d="M8.96094 61.9883L152.36 61.9883" stroke="url(#paint1_radial_3404_10498)" stroke-width="0.12398"/>
<path d="M118.982 61.9912C128.15 61.9913 135.925 64.7295 141.407 69.418C146.888 74.1052 150.083 80.7469 150.083 88.5732V88.6973H150.085C150.035 95.8083 145.69 103.834 137.123 112.56C134.725 115.002 132.368 117.119 130.314 118.858C128.226 120.627 127.168 123.384 127.499 126.158C127.671 127.598 127.836 129.159 127.96 130.738C128.125 132.843 128.248 135.19 128.323 137.709C128.483 143.034 124.605 147.449 119.503 147.775C89.7032 149.67 63.6112 158.881 46.9688 166.273C45.8558 166.769 44.6868 167.003 43.5332 167.003C40.3348 167.003 37.2376 165.19 35.6719 162.093C34.1908 159.153 32.8793 156.386 31.7812 153.864C30.789 151.586 29.9868 149.37 29.3086 147.3C28.6174 145.191 26.9867 143.567 24.9297 142.916H24.9287C22.3378 142.1 19.1604 140.902 15.9688 139.22C5.59119 133.747 0.124023 125.837 0.124023 116.351C0.124093 110.358 1.43449 103.807 5.84863 98.7559C10.2601 93.7079 17.7919 90.1348 30.2832 90.1348C40.8287 90.1348 49.5297 93.2168 54.3828 95.4053L55.3018 95.8291C55.9639 96.1439 56.7342 96.0899 57.3516 95.6846C63.1712 91.8705 69.5501 87.5533 75.6895 83.127C77.8176 81.5915 79.8823 80.0484 81.8779 78.5605C93.8126 69.6524 104.083 61.9912 118.982 61.9912ZM118.967 70.2314C106.599 70.2316 97.6974 76.883 86.4756 85.2568C84.4533 86.7644 82.3602 88.3254 80.1777 89.8984C73.8113 94.4848 67.1976 98.958 61.1934 102.888L58.6621 104.536C58.6325 104.555 58.6031 104.574 58.5752 104.593C58.5468 104.611 58.5198 104.629 58.4932 104.646L58.4912 104.646C47.7413 111.611 39.5477 116.49 39.4111 116.571C37.5188 117.695 35.101 117.015 34.0156 115.045C32.9289 113.072 33.5911 110.556 35.4863 109.431L35.4873 109.43C35.5677 109.38 38.8119 107.45 43.8428 104.314C45.5141 103.274 45.1643 100.656 43.2734 100.144C39.5623 99.1402 35.1277 98.3672 30.2676 98.3672C20.4458 98.3672 14.8736 100.758 11.7607 104.222C8.64973 107.684 8.02055 112.19 8.02051 116.358C8.02051 121.106 10.2685 124.817 13.3809 127.677C16.4914 130.535 20.4712 132.548 23.9541 133.906C27.0191 135.101 30.4128 134.745 33.2461 133.056C35.1592 131.915 37.5954 130.769 40.6348 129.555C45.7549 127.509 50.6698 126.092 50.8789 126.033H50.8799C52.4449 125.581 54.0528 126.176 55.0137 127.414C55.9117 128.571 56.2499 130.3 55.4307 132.271L55.251 132.669C55.0089 133.168 54.5515 133.524 54.0244 133.667C48.2332 135.258 42.2443 137.544 38.5586 139.43C36.8549 140.3 36.0485 142.343 36.6436 144.209C37.2446 146.089 38.0308 148.31 38.9746 150.477V150.478C39.4201 151.492 39.8464 152.565 40.3008 153.68C41.1736 155.818 43.1169 157.201 45.2539 157.368C46.0187 157.427 46.7767 157.286 47.4932 157.029L47.4746 157.062L47.8135 156.922C51.1256 155.545 65.811 149.061 82.2764 144.966C103.859 139.597 114.64 139.539 117.102 139.418C118.547 139.347 119.366 138.58 119.809 137.667C120.247 136.763 120.317 135.717 120.284 135.065C120.252 134.424 120.218 133.8 120.18 133.193L120.055 131.428C120.004 130.804 119.948 130.182 119.888 129.568L119.694 127.762C119.376 125.025 117.234 122.917 114.581 122.689C107.705 122.1 100.588 122.78 94.7568 123.728H94.7539C94.7116 123.736 94.2309 123.829 93.7148 123.925C93.1952 124.021 92.6523 124.116 92.4814 124.131L92.4746 124.132L92.2871 124.159L92.2822 124.16C87.7167 125.008 84.219 125.943 82.7129 126.372L81.9053 126.61C79.8145 127.266 77.6093 126.034 76.9785 123.861C76.3437 121.683 77.5306 119.393 79.6201 118.736C79.9892 118.62 83.4999 117.535 88.75 116.461H88.751C89.5423 116.296 90.1959 115.702 90.4531 114.913C91.5813 111.471 92.2254 109.051 92.5879 107.487C92.7691 106.706 92.8798 106.137 92.9453 105.762C92.9781 105.574 92.9994 105.434 93.0127 105.34C93.0193 105.293 93.0243 105.257 93.0273 105.232C93.0288 105.22 93.0305 105.21 93.0312 105.203C93.0315 105.201 93.0318 105.196 93.0322 105.189C93.2124 102.993 95.0086 101.384 97.1055 101.457L97.3096 101.47C99.4154 101.656 100.995 103.553 100.923 105.732L100.911 105.944C100.892 106.178 100.758 107.517 100.053 110.357L99.7139 111.668C99.3111 113.173 100.468 114.66 101.99 114.535C102.651 114.481 103.251 114.125 103.627 113.571L103.699 113.458C109.436 103.83 111.744 97.5329 111.79 97.4023L111.791 97.4033C112.533 95.3428 114.693 94.265 116.682 94.9189L116.874 94.9883C118.92 95.777 119.966 98.1357 119.207 100.269C119.125 100.496 117.657 104.561 114.157 111.163H114.156C113.395 112.606 114.299 114.396 115.89 114.55C116.597 114.62 117.305 114.702 118.009 114.795C120.5 115.127 123.019 114.424 124.967 112.78C128.478 109.819 132.772 105.768 136.189 101.464C139.602 97.1659 142.16 92.5918 142.16 88.5889C142.16 83.0971 139.824 78.5034 135.753 75.2852C131.684 72.0688 125.887 70.2314 118.967 70.2314Z" stroke="url(#paint2_linear_3404_10498)" stroke-width="0.247961"/>
<path d="M221.611 9.4834C261.008 9.4834 292.95 42.6198 292.95 83.5C292.95 124.38 261.009 157.517 221.611 157.517C182.214 157.516 150.272 124.38 150.272 83.5C150.273 42.62 182.214 9.48361 221.611 9.4834Z" stroke="url(#paint3_radial_3404_10498)" stroke-width="0.12398"/>
<path d="M76.6016 61.9883V147.783" stroke="url(#paint4_radial_3404_10498)" stroke-width="0.12398"/>
<path d="M55.9219 61.9883V147.783" stroke="url(#paint5_linear_3404_10498)" stroke-opacity="0.5" stroke-width="0.12398"/>
<path opacity="0.3" d="M55.1455 108.421C59.8279 108.421 63.6278 112.36 63.6279 117.224C63.6279 122.087 59.828 126.026 55.1455 126.026C50.4632 126.026 46.6631 122.087 46.6631 117.224C46.6633 112.36 50.4633 108.421 55.1455 108.421Z" stroke="url(#paint6_linear_3404_10498)" stroke-width="0.12398"/>
</g>
<defs>
<linearGradient id="paint0_linear_3404_10498" x1="65.9519" y1="111.014" x2="-1.63396" y2="59.5523" gradientUnits="userSpaceOnUse">
<stop stop-color="#4EBCB8"/>
<stop offset="1" stop-color="#235654"/>
</linearGradient>
<radialGradient id="paint1_radial_3404_10498" cx="0" cy="0" r="1" gradientUnits="userSpaceOnUse" gradientTransform="translate(80.6605 62.4883) rotate(90) scale(0.5 71.6995)">
<stop stop-color="#4EBCB8"/>
<stop offset="1" stop-color="#235654"/>
</radialGradient>
<linearGradient id="paint2_linear_3404_10498" x1="75.1052" y1="61.8672" x2="75.1052" y2="167.127" gradientUnits="userSpaceOnUse">
<stop stop-color="#4EBCB8"/>
<stop offset="1" stop-color="#235654"/>
</linearGradient>
<radialGradient id="paint3_radial_3404_10498" cx="0" cy="0" r="1" gradientUnits="userSpaceOnUse" gradientTransform="translate(221.612 83.5002) rotate(90) scale(74.0783 71.4008)">
<stop stop-color="#4EBCB8"/>
<stop offset="1" stop-color="#235654"/>
</radialGradient>
<radialGradient id="paint4_radial_3404_10498" cx="0" cy="0" r="1" gradientUnits="userSpaceOnUse" gradientTransform="translate(77.1016 104.886) rotate(90) scale(42.8972 0.5)">
<stop stop-color="#4EBCB8"/>
<stop offset="1" stop-color="#235654"/>
</radialGradient>
<linearGradient id="paint5_linear_3404_10498" x1="56.4219" y1="61.9883" x2="56.4219" y2="147.783" gradientUnits="userSpaceOnUse">
<stop stop-color="#235654"/>
<stop offset="1" stop-color="#4EBCB8"/>
</linearGradient>
<linearGradient id="paint6_linear_3404_10498" x1="54.912" y1="126.318" x2="43.979" y2="117.993" gradientUnits="userSpaceOnUse">
<stop stop-color="#4EBCB8"/>
<stop offset="1" stop-color="#235654"/>
</linearGradient>
</defs>
</svg>
