<svg width="145" height="48" viewBox="0 0 145 48" fill="none" xmlns="http://www.w3.org/2000/svg">
<path d="M10.9715 36.8572C14.9119 36.8572 17.8732 33.4302 19.6404 30.7222C19.4255 31.3213 19.3061 31.9204 19.3061 32.4957C19.3061 34.0773 20.2136 35.2037 22.0047 35.2037C24.4645 35.2037 27.0915 33.0468 28.4527 30.7222C28.3572 31.0577 28.3094 31.3693 28.3094 31.6569C28.3094 32.7592 28.9304 33.4542 30.196 33.4542C34.1842 33.4542 38.1964 26.3846 38.1964 20.2017C38.1964 15.3847 35.7604 11.1429 29.6468 11.1429C18.9001 11.1429 7.31763 24.2757 7.31763 32.7592C7.31763 36.0904 9.10873 36.8572 10.9715 36.8572ZM25.9451 19.6744C25.9451 18.4762 26.6138 17.6374 27.593 17.6374C28.5482 17.6374 29.2169 18.4762 29.2169 19.6744C29.2169 20.8727 28.5482 21.7354 27.593 21.7354C26.6138 21.7354 25.9451 20.8727 25.9451 19.6744ZM31.0558 19.6744C31.0558 18.4762 31.7245 17.6374 32.7036 17.6374C33.6588 17.6374 34.3275 18.4762 34.3275 19.6744C34.3275 20.8727 33.6588 21.7354 32.7036 21.7354C31.7245 21.7354 31.0558 20.8727 31.0558 19.6744Z" fill="#8CA4A6"/>
<path d="M42.9719 34.245H46.5541V30.7222C46.5541 29.0687 46.4108 28.4456 45.575 26.768L46.0286 26.5284C47.2466 29.3802 48.9662 30.4106 50.7333 30.4106C53.5752 30.4106 55.8439 27.9183 55.8439 24.06C55.8439 20.3694 53.7662 17.6614 50.7811 17.6614C49.0139 17.6614 47.2466 18.6679 46.0286 21.5437L45.575 21.304C46.1482 20.1537 46.5541 19.0753 46.5541 18.0448H42.9719V34.245ZM46.5541 24.036C46.5541 22.4544 47.7482 20.7049 49.5153 20.7049C50.9482 20.7049 52.1185 21.8792 52.1185 24.012C52.1185 26.1209 50.996 27.3672 49.4915 27.3672C47.8198 27.3672 46.5541 25.6657 46.5541 24.036Z" fill="#8CA4A6"/>
<path d="M57.1515 30.0272H60.7337V25.8094C60.7337 22.8378 61.7845 20.7289 63.7427 20.7289C64.9846 20.7289 65.3667 21.5677 65.3667 23.6526V30.0272H68.9489V23.0775C68.9489 19.291 67.5877 17.6614 64.9846 17.6614C62.3098 17.6614 61.4262 19.4587 60.3994 21.6395L59.9456 21.3999C60.5665 20.0579 60.7337 19.2431 60.7337 18.0448V13.8989H57.1515V30.0272Z" fill="#8CA4A6"/>
<path d="M74.1842 30.4106C76.5006 30.4106 77.8619 28.877 78.8887 26.9118L79.3186 27.1275C78.8649 28.0621 78.4351 29.1405 78.4351 30.0272H81.9456V23.5088C81.9456 19.6265 80.3216 17.6614 76.5245 17.6614C72.7991 17.6614 70.9601 19.5306 70.602 21.4958L74.0409 22.0949C74.1603 21.0644 74.9961 20.3694 76.3335 20.3694C77.6709 20.3694 78.4351 21.0404 78.4351 21.8552C78.4351 22.6701 77.647 23.0535 75.5454 23.0775C72.4408 23.1253 70.1482 24.2517 70.1482 26.6482C70.1482 28.6133 71.7005 30.4106 74.1842 30.4106ZM73.7065 26.4085C73.7065 24.5153 76.7155 25.8334 78.3634 24.3716V24.8029C78.3634 26.5044 76.8589 27.7506 75.3543 27.7506C74.5662 27.7506 73.7065 27.415 73.7065 26.4085Z" fill="#8CA4A6"/>
<path d="M83.3651 30.0272H86.9473V25.8094C86.9473 22.8378 87.998 20.7289 89.9563 20.7289C91.1982 20.7289 91.5802 21.5677 91.5802 23.6526V30.0272H95.1625V23.0775C95.1625 19.291 93.8013 17.6614 91.1982 17.6614C88.5234 17.6614 87.6399 19.4588 86.6129 21.6396L86.1592 21.3999C86.7802 20.0579 86.9473 19.2431 86.9473 18.0448H83.3651V30.0272Z" fill="#8CA4A6"/>
<path d="M104.704 30.0752V27.1035C103.94 27.3672 101.814 27.8224 101.814 26.0731V20.9206H104.68V18.0448H101.814V14.8335L98.208 15.9119V18.0448H96.0587V20.9206H98.208L98.2319 26.3606C98.2319 30.3628 101.79 30.9379 104.704 30.0752Z" fill="#8CA4A6"/>
<path d="M111.98 30.4106C115.61 30.4106 118.381 27.6307 118.381 24.012C118.381 20.4173 115.61 17.6614 111.98 17.6614C108.35 17.6614 105.556 20.4173 105.556 24.012C105.556 27.6307 108.35 30.4106 111.98 30.4106ZM109.258 24.036C109.258 22.047 110.38 20.657 111.98 20.657C113.58 20.657 114.679 22.047 114.679 24.036C114.679 26.0251 113.58 27.415 111.98 27.415C110.38 27.415 109.258 26.0251 109.258 24.036Z" fill="#8CA4A6"/>
<path d="M119.49 30.0272H123.072V25.8094C123.072 22.7179 124.051 20.7289 125.627 20.7289C126.655 20.7289 126.989 21.5437 126.989 23.6526V30.0272H130.572V25.8094C130.572 22.9096 131.622 20.7289 133.127 20.7289C134.129 20.7289 134.487 21.6635 134.487 23.6526V30.0272H138.07V23.0775C138.07 19.267 136.828 17.6614 134.392 17.6614C131.861 17.6614 130.954 19.4587 130.07 21.6635L129.64 21.4478C130.476 18.9315 128.66 17.6614 126.87 17.6614C124.506 17.6614 123.646 19.4588 122.691 21.6396L122.261 21.3999C122.857 20.0579 123.072 19.2431 123.072 18.0448H119.49V30.0272Z" fill="#8CA4A6"/>
</svg>
