<svg width="123" height="51" viewBox="0 0 123 51" fill="none" xmlns="http://www.w3.org/2000/svg">
<g clip-path="url(#clip0_3025_2545)">
<path d="M89.1596 3.13552C87.654 1.2618 85.4153 0.167077 82.8165 0.019527L82.8213 0.000488281H58.7881L57.4063 6.50537H81.011C82.1121 6.50537 83.0577 6.92422 83.6733 7.68577C84.3127 8.47587 84.53 9.53886 84.2873 10.6812C83.7764 13.0832 81.4109 15.0379 79.012 15.0379H55.5928L54.2109 21.5443H77.8871L78.2441 21.5412V21.5332C83.9842 21.3079 89.5578 16.5927 90.7747 10.8621C91.3951 7.94279 90.8223 5.19963 89.1628 3.13552" fill="#151A1A"/>
<path d="M50.8973 6.50293L49.0664 15.0402H55.5903L57.4212 6.50293H50.8973Z" fill="#151A1A"/>
<path d="M47.6864 21.5439L45.8555 30.0812H52.3794L54.2103 21.5439H47.6864Z" fill="#151A1A"/>
<path d="M34.2793 38.3306C39.1802 38.3306 40.3003 41.2102 39.6514 44.2595C39.1596 46.5727 37.0637 50.0187 31.7948 50.0187C26.5258 50.0187 25.8944 46.5727 26.3862 44.2595C27.0335 41.2118 29.3769 38.3306 34.2793 38.3306ZM37.5032 44.1358C38.0728 41.4545 36.4259 40.1995 33.8827 40.1995C31.3394 40.1995 29.1579 41.4561 28.5884 44.1358C27.9172 47.2914 30.1099 48.1482 32.193 48.1482C34.2762 48.1482 36.8321 47.2898 37.5032 44.1358Z" fill="#151A1A"/>
<path d="M50.7143 41.9908C50.5731 40.996 49.8528 40.1377 47.2017 40.1377C45.7309 40.1377 44.1682 40.5057 43.9492 41.5322C43.8477 42.0066 44.0159 42.5127 46.1783 42.7888L48.7279 43.187C51.1443 43.5694 52.4088 44.5356 52.0121 46.4046C51.4521 49.0382 48.7311 50.0187 45.7611 50.0187C40.9824 50.0187 40.3192 47.6595 40.2383 46.8171L42.4769 46.1586C42.7022 46.971 43.2781 48.1498 46.2196 48.1498C47.9965 48.1498 49.591 47.5675 49.7957 46.6029C49.948 45.8826 49.223 45.4082 47.6713 45.2083L45.0836 44.8402C42.5848 44.488 41.3822 43.3695 41.7439 41.6703C42.4531 38.3306 46.7892 38.3306 47.6459 38.3306C52.4405 38.3306 52.7959 40.5517 52.9085 41.3181L50.7127 41.9923L50.7143 41.9908Z" fill="#151A1A"/>
<path d="M59.0919 40.4733H54.1133L54.5099 38.606H66.6423L66.2457 40.4733H61.2671L59.2966 49.7404H57.1214L59.0919 40.4733Z" fill="#151A1A"/>
<path d="M93.2265 38.606H95.4017L93.0345 49.7404H90.8594L93.2265 38.606Z" fill="#151A1A"/>
<path d="M97.7382 38.606H100.036L105.769 46.6466L107.48 38.606H109.563L107.196 49.7404H105.205L99.2248 41.4078L97.4542 49.7404H95.3711L97.7382 38.606Z" fill="#151A1A"/>
<path d="M122.101 44.0285L120.86 49.8639H119.543L119.359 48.7152C118.399 49.2673 117.076 50.0177 114.915 50.0177C112.066 50.0177 108.916 48.6232 109.857 44.1967C110.489 41.2251 112.895 38.3296 117.338 38.3296C119.895 38.3296 122.497 39.2799 122.437 42.0818H120.216C120.076 41.5154 119.759 40.197 117.2 40.197C113.706 40.197 112.378 42.5562 112.05 44.1031C111.49 46.7368 112.98 48.0853 115.339 48.0853C117.484 48.0853 118.837 47.3349 119.691 45.7721H115.785L116.156 44.0253H122.099L122.101 44.0285Z" fill="#151A1A"/>
<path d="M8.57058 38.606H2.36714L1.9705 40.4749H8.6499C9.89059 40.4749 10.9552 40.5812 10.6521 42.0059C10.3459 43.4465 9.23534 43.5528 7.99466 43.5528H1.31526L0 49.7404H2.17517L3.09378 45.4218H7.12205C9.00688 45.4218 12.1007 45.4218 12.8225 42.0218C13.5492 38.606 10.4554 38.606 8.57058 38.606Z" fill="#151A1A"/>
<path d="M21.8393 45.2076C23.4972 45.1156 25.2091 43.9828 25.6454 41.9298C26.2245 39.2025 24.4523 38.606 21.8186 38.606H15.125L14.741 40.4146H21.1126C22.8896 40.4146 23.7384 40.6732 23.4607 41.9758C23.1815 43.2926 22.2216 43.5544 20.4447 43.5544H14.0731L12.7578 49.742H14.933L15.8643 45.3615H19.3103L21.6108 49.742H24.2921L21.8408 45.2076H21.8393Z" fill="#151A1A"/>
<path d="M72.6285 38.606H70.1472L62.2969 49.7404H64.6101L70.9246 40.7859L73.371 49.7404H75.6684L72.6285 38.606Z" fill="#151A1A"/>
<path d="M81.6518 38.606H79.4766L77.1016 49.7785H79.2767L80.0145 46.3055L80.5444 43.8162L81.6518 38.606Z" fill="#151A1A"/>
<path d="M84.6615 43.0325L90.9173 38.606H87.8219L81.8945 42.8484L86.229 49.7785H89.0785L84.6615 43.0325Z" fill="#151A1A"/>
</g>
<defs>
<clipPath id="clip0_3025_2545">
<rect width="122.439" height="50.0162" fill="white"/>
</clipPath>
</defs>
</svg>
