<svg width="94" height="38" viewBox="0 0 94 38" fill="none" xmlns="http://www.w3.org/2000/svg">
<path d="M33.0466 19.1547C33.4384 18.4349 34.0258 17.8407 34.7411 17.4407C35.4657 17.0313 36.2866 16.8266 37.2038 16.8266C38.3286 16.8266 39.2913 17.1236 40.0921 17.7175C40.8929 18.3114 41.4283 19.1212 41.6983 20.1468H39.1608C38.9719 19.7508 38.7042 19.4493 38.3577 19.2425C38.0115 19.0353 37.6179 18.9317 37.1769 18.9317C36.4662 18.9317 35.8904 19.1793 35.4494 19.6744C35.0082 20.1693 34.7877 20.8304 34.788 21.6579C34.788 22.4862 35.0085 23.1477 35.4494 23.6422C35.8907 24.1374 36.4665 24.3848 37.1769 24.3845C37.6179 24.3845 38.0115 24.281 38.3577 24.0742C38.7042 23.8673 38.972 23.5659 39.1612 23.1698H41.6983C41.4286 24.1957 40.8932 25.0033 40.0921 25.5926C39.2913 26.1819 38.3286 26.4766 37.2038 26.4766C36.2863 26.4766 35.4654 26.2719 34.7411 25.8625C34.0271 25.464 33.4398 24.8724 33.0466 24.1555C32.6425 23.4265 32.4403 22.5941 32.4399 21.6583C32.4399 20.7228 32.6422 19.8883 33.0466 19.1547ZM43.0951 20.5918C43.3874 20.0075 43.7858 19.5577 44.2902 19.2425C44.7938 18.9275 45.3561 18.7701 45.9773 18.7701C46.5081 18.7701 46.9735 18.878 47.3736 19.0938C47.774 19.31 48.0823 19.5933 48.2984 19.9439V18.8778H50.606V26.4092H48.2984V25.3427C48.0733 25.6939 47.7607 25.9774 47.3606 26.1932C46.9596 26.4091 46.4938 26.517 45.9634 26.517C45.3711 26.5223 44.79 26.356 44.2902 26.0381C43.7858 25.7188 43.3874 25.2644 43.0951 24.6748C42.8028 24.0855 42.6566 23.4039 42.6566 22.6301C42.6566 21.8562 42.8028 21.1768 43.0951 20.5918ZM47.8191 21.2802C47.4995 20.9473 47.1104 20.7809 46.6518 20.7809C46.1925 20.7809 45.8033 20.9452 45.484 21.2737C45.1644 21.602 45.0048 22.0541 45.0051 22.6301C45.0051 23.206 45.1647 23.6628 45.484 24.0003C45.8033 24.3375 46.1925 24.5062 46.6518 24.5062C47.1104 24.5062 47.4995 24.3397 47.8191 24.0068C48.1386 23.6739 48.2983 23.2195 48.2979 22.6435C48.2979 22.0675 48.1383 21.6131 47.8191 21.2802ZM56.4764 24.4523V26.4092H55.3021C54.4654 26.4092 53.8133 26.2044 53.3457 25.7947C52.8778 25.3859 52.6438 24.718 52.6438 23.7908V20.7948H51.7255V18.8774H52.6438V17.0426H54.9514V18.8778H56.4634V20.7948H54.9514V23.8178C54.9514 24.0429 55.0055 24.2049 55.1135 24.3036C55.2213 24.4027 55.4012 24.4523 55.6533 24.4523H56.4764ZM57.7384 20.5918C58.0311 20.0075 58.4293 19.5577 58.9331 19.2425C59.4366 18.9275 59.999 18.7701 60.6202 18.7701C61.151 18.7701 61.6165 18.878 62.0169 19.0938C62.4173 19.31 62.7255 19.5933 62.9413 19.9439V18.8778H65.2494V26.4092H62.9413V25.3427C62.7162 25.6939 62.4036 25.9774 62.0035 26.1932C61.6034 26.4091 61.1378 26.517 60.6067 26.517C60.0143 26.5224 59.433 26.3561 58.9331 26.0381C58.4293 25.7188 58.0311 25.2644 57.7384 24.6748C57.4458 24.0855 57.2995 23.4039 57.2995 22.6301C57.2995 21.8562 57.4458 21.1768 57.7384 20.5918ZM62.4624 21.2802C62.1431 20.9473 61.754 20.7809 61.2951 20.7809C60.8359 20.7809 60.4466 20.9452 60.1274 21.2737C59.8081 21.6023 59.6485 22.0544 59.6485 22.6301C59.6485 23.2057 59.8081 23.6625 60.1274 24.0003C60.4463 24.3375 60.8356 24.5062 61.2951 24.5062C61.7537 24.5062 62.1428 24.3397 62.4624 24.0068C62.782 23.6739 62.9416 23.2195 62.9413 22.6435C62.9413 22.0675 62.7817 21.6131 62.4624 21.2802ZM69.2311 16.422V26.4088H66.923V16.422H69.2311ZM78.5968 18.8778L73.8733 29.9854H71.3901L73.1171 26.1528L70.0542 18.8778H72.6317L74.3726 23.5878L76.1006 18.8778H78.5968ZM80.7428 26.1798C80.23 25.9546 79.8251 25.6465 79.5281 25.2554C79.2354 24.8754 79.0616 24.4175 79.0283 23.939H81.3095C81.3367 24.2004 81.4581 24.4119 81.6736 24.5735C81.8898 24.7355 82.1555 24.8164 82.4707 24.8164C82.7584 24.8164 82.981 24.7602 83.1386 24.6478C83.2957 24.5354 83.3743 24.3893 83.3746 24.2093C83.3746 23.9932 83.2622 23.8334 83.0374 23.73C82.812 23.6266 82.4475 23.512 81.944 23.3863C81.4042 23.2599 80.9543 23.1271 80.5941 22.9877C80.2337 22.8483 79.9137 22.6211 79.6633 22.3267C79.4022 22.0248 79.2717 21.6176 79.2717 21.1051C79.2717 20.6734 79.3909 20.2797 79.6294 19.9239C79.8678 19.5687 80.2187 19.2875 80.6819 19.0803C81.1452 18.8735 81.6964 18.7701 82.3355 18.7701C83.28 18.7701 84.0245 19.004 84.5688 19.4719C85.1132 19.9401 85.426 20.561 85.5071 21.3346H83.3746C83.3384 21.0735 83.2237 20.8665 83.0304 20.7135C82.8369 20.5605 82.5828 20.4841 82.2682 20.4841C81.9982 20.4841 81.791 20.5359 81.6467 20.6397C81.578 20.6868 81.5223 20.7504 81.4847 20.8247C81.447 20.8989 81.4286 20.9815 81.4312 21.0647C81.4312 21.2805 81.5459 21.4423 81.7753 21.5501C82.0045 21.6582 82.3622 21.7662 82.8483 21.8743C83.406 22.0183 83.8605 22.16 84.2117 22.2993C84.5625 22.4387 84.8706 22.6636 85.136 22.9742C85.4011 23.2845 85.5383 23.7006 85.5475 24.2224C85.5475 24.6636 85.4238 25.0574 85.1764 25.4036C84.9287 25.7501 84.5732 26.0223 84.1099 26.2202C83.6467 26.4184 83.1092 26.5174 82.4976 26.5174C81.8408 26.5174 81.2559 26.4049 80.7428 26.1798ZM91.162 24.4523V26.4092H89.9877C89.151 26.4092 88.4988 26.2044 88.0312 25.7947C87.5636 25.3859 87.3297 24.718 87.3294 23.7908V20.7948H86.4115V18.8774H87.3294V17.0426H89.637V18.8778H91.1489V20.7948H89.637V23.8178C89.637 24.0429 89.691 24.2049 89.7991 24.3036C89.9069 24.4027 90.0868 24.4523 90.3389 24.4523H91.162ZM36.3343 10.3259C36.1999 10.5799 35.9841 10.7864 35.6868 10.9456C35.3898 11.1047 35.0092 11.1843 34.5451 11.1843H33.525V13.4678H32.6025V7.83993H34.5455C34.9772 7.83993 35.3431 7.91425 35.6431 8.06289C35.9423 8.21122 36.1663 8.41219 36.3153 8.66581C36.4639 8.91973 36.5382 9.20308 36.5382 9.51584C36.5382 9.80228 36.4699 10.0723 36.3343 10.3259ZM35.3314 10.1922C35.5039 10.033 35.5902 9.80755 35.5902 9.51584C35.5902 8.90053 35.242 8.59288 34.5455 8.59288H33.525V10.4309H34.5455C34.8964 10.4309 35.1583 10.3513 35.3314 10.1922ZM38.8979 9.12334C39.1215 8.99638 39.3873 8.93289 39.6954 8.93289V9.88837H39.4608C39.0985 9.88837 38.8245 9.98018 38.6387 10.1638C38.4529 10.3474 38.3597 10.6659 38.3591 11.1193V13.4678H37.4361V9.00582H38.3591V9.6538C38.4941 9.42712 38.6737 9.2503 38.8979 9.12334ZM41.3555 13.2532C41.0176 13.0638 40.7396 12.7833 40.5534 12.4436C40.3592 12.0955 40.2621 11.6919 40.2621 11.2326C40.2618 10.7793 40.3618 10.3772 40.5622 10.0263C40.7526 9.68452 41.0361 9.40377 41.3797 9.2167C41.7253 9.02781 42.1113 8.9332 42.5377 8.93289C42.9641 8.93289 43.3501 9.02734 43.6957 9.21624C44.0394 9.40356 44.323 9.68444 44.5137 10.0263C44.7131 10.3772 44.813 10.7793 44.8133 11.2326C44.8133 11.6863 44.7108 12.0885 44.5058 12.4394C44.3073 12.7833 44.017 13.0651 43.6674 13.2532C43.3077 13.4464 42.905 13.5453 42.4968 13.5407C42.076 13.5407 41.6956 13.4449 41.3555 13.2532ZM43.1652 12.569C43.373 12.4557 43.5416 12.2856 43.6711 12.059C43.8011 11.8323 43.866 11.5568 43.8657 11.2326C43.8657 10.909 43.8035 10.6351 43.679 10.4109C43.5665 10.1984 43.3952 10.0226 43.1857 9.90463C42.9826 9.79161 42.7538 9.73305 42.5214 9.73462C42.2839 9.73462 42.0641 9.79144 41.8618 9.90509C41.6547 10.0226 41.487 10.1988 41.3797 10.4114C41.2608 10.6353 41.2013 10.909 41.2013 11.2326C41.2013 11.7135 41.3241 12.0847 41.5697 12.346C41.8159 12.608 42.1249 12.739 42.4968 12.739C42.7346 12.739 42.9574 12.6823 43.1652 12.569ZM46.6671 14.3425C46.6671 14.7797 46.5579 15.0968 46.3396 15.2937C46.1207 15.491 45.8034 15.5896 45.3879 15.5896H44.9104V14.8121H45.2258C45.4146 14.8121 45.5483 14.7757 45.6266 14.7029C45.7053 14.6298 45.7446 14.5097 45.7446 14.3425V9.00582H46.6671V14.3425ZM45.7924 8.24451C45.7369 8.18969 45.6931 8.12407 45.6639 8.05169C45.6346 7.97931 45.6205 7.90171 45.6224 7.82367C45.6224 7.65645 45.6791 7.51617 45.7924 7.40283C45.9061 7.28949 46.0465 7.23267 46.2137 7.23236C46.3757 7.23236 46.5133 7.28918 46.6267 7.40283C46.7403 7.51617 46.7972 7.65645 46.7972 7.82367C46.7972 7.99089 46.7403 8.13117 46.6267 8.24451C46.5133 8.35815 46.3757 8.41498 46.2137 8.41498C46.1356 8.4169 46.0579 8.40276 45.9854 8.37344C45.9129 8.34411 45.8473 8.30023 45.7924 8.24451ZM51.955 11.581H48.546C48.5729 11.9374 48.7052 12.2236 48.9427 12.4394C49.1802 12.6552 49.4717 12.7632 49.8173 12.7632C50.3137 12.7632 50.6644 12.5554 50.8694 12.1398H51.8662C51.7345 12.5448 51.4779 12.8976 51.1333 13.1478C50.779 13.4097 50.3404 13.5407 49.8173 13.5407C49.3909 13.5407 49.0088 13.4449 48.6709 13.2532C48.3354 13.0635 48.0604 12.7829 47.8776 12.4436C47.6859 12.0955 47.5902 11.6919 47.5905 11.2326C47.5905 10.7743 47.6836 10.3708 47.8697 10.0221C48.0555 9.67377 48.3173 9.40529 48.6552 9.2167C48.9921 9.02781 49.3795 8.9332 49.8173 8.93289C50.2382 8.93289 50.6133 9.02471 50.9428 9.20834C51.272 9.39166 51.5284 9.64946 51.712 9.98173C51.8957 10.314 51.9875 10.696 51.9875 11.1277C51.9875 11.2949 51.9766 11.446 51.955 11.581ZM51.0236 10.8359C51.0184 10.4956 50.897 10.2231 50.6595 10.0184C50.4219 9.81312 50.1276 9.71047 49.7764 9.71047C49.4578 9.71047 49.1851 9.81157 48.9585 10.0138C48.7315 10.2166 48.5966 10.4907 48.5539 10.8359H51.0236ZM52.883 10.0221C53.0688 9.67377 53.3265 9.40529 53.656 9.2167C53.9851 9.02781 54.3629 8.9332 54.7893 8.93289C55.3291 8.93289 55.7759 9.06109 56.1299 9.3175C56.4835 9.5739 56.7226 9.93977 56.8471 10.4151H55.8502C55.7786 10.2056 55.6425 10.0242 55.4615 9.89673C55.2837 9.77255 55.0597 9.71062 54.7893 9.71093C54.4115 9.71062 54.1105 9.84409 53.8863 10.1113C53.6625 10.3786 53.5505 10.7523 53.5505 11.2326C53.5505 11.7135 53.6625 12.0889 53.8863 12.3586C54.1108 12.6283 54.4118 12.7632 54.7893 12.7632C55.3241 12.7632 55.6778 12.5284 55.8502 12.059H56.8471C56.717 12.5123 56.4739 12.8726 56.1178 13.1399C55.7614 13.4074 55.3185 13.541 54.7893 13.5407C54.3629 13.5407 53.9851 13.4449 53.656 13.2532C53.3269 13.0619 53.0589 12.7812 52.883 12.4436C52.6966 12.0955 52.6034 11.6919 52.6034 11.2326C52.6034 10.7743 52.6966 10.3708 52.883 10.0221ZM58.8625 9.75924V12.229C58.8625 12.3962 58.9017 12.5164 58.98 12.5894C59.0581 12.6622 59.1917 12.6986 59.3809 12.6986H59.9476V13.4678H59.2193C58.8031 13.4678 58.4846 13.3706 58.2638 13.1761C58.0424 12.9819 57.9317 12.6661 57.9317 12.2285V9.75924H57.4049V9.00675H57.9317V7.8966H58.8625V9.00628H59.9476V9.75877L58.8625 9.75924Z" fill="#151A1A"/>
<path d="M12.5051 25.082C12.4958 25.0773 12.5144 25.088 12.5051 25.082C10.845 24.3197 9.49558 22.812 8.80859 21.1105H4.07812C5.7703 25.9116 10.3475 29.3516 15.7268 29.3516C18.529 29.3561 21.2485 28.4029 23.4347 26.6501C23.5075 26.5665 23.5795 26.4823 23.6507 26.3974C23.1255 26.4662 22.5907 26.5008 22.0464 26.5015C20.2594 26.5015 18.5617 26.1215 17.0298 25.4392C16.5189 25.5519 15.9973 25.6086 15.4742 25.6082C14.8582 25.6082 14.2516 25.6431 13.6812 25.4968C13.6779 25.4968 13.6849 25.4981 13.6812 25.4968" fill="url(#paint0_radial_670_3784)"/>
<path d="M12.5046 25.082C12.8843 25.2529 13.2777 25.3917 13.6807 25.4968C14.2511 25.6431 14.8577 25.6082 15.4737 25.6082C16.0078 25.6082 16.5281 25.5502 17.0288 25.4392C16.8412 25.3568 16.6571 25.2692 16.4765 25.1763C14.6143 24.2326 13.0205 22.8341 11.8427 21.1105H8.80811C9.4951 22.8115 10.8445 24.3197 12.5046 25.082Z" fill="url(#paint1_radial_670_3784)"/>
<path d="M23.4343 26.6505C21.7126 28.6153 19.4241 29.9981 16.8839 30.6085C11.4251 31.9179 5.95242 29.4449 3.16542 24.8696C2.45723 23.7061 1.93827 22.4376 1.62793 21.1114H4.0777C5.76987 25.912 10.347 29.352 15.7269 29.352C18.5289 29.3564 21.2482 28.4033 23.4343 26.6505Z" fill="url(#paint2_linear_670_3784)"/>
<path d="M26.2845 21.1105C25.8293 23.0536 24.9274 24.8638 23.6503 26.3974C23.1252 26.4662 22.5904 26.5008 22.046 26.5015C20.1112 26.5036 18.2031 26.0496 16.4766 25.1763C14.6144 24.2326 13.0206 22.8341 11.8428 21.1105H26.2845Z" fill="url(#paint3_linear_670_3784)"/>
<path d="M25.8922 15.2547C24.0653 11.4434 20.3387 8.71682 15.9389 8.29645H15.9366C14.9935 8.12083 14.0309 8.07473 13.0753 8.15942C12.3875 8.2193 11.7073 8.34688 11.0445 8.54031C8.91416 9.15944 7.03706 10.4424 5.6865 12.2024C4.3048 13.9968 3.55828 16.1992 3.5642 18.4639V19.3929H1.66626V18.4639C1.66719 14.4901 3.58604 10.9608 6.55558 8.73447C6.5562 8.73138 6.55682 8.7306 6.55744 8.73215C8.28592 7.4334 10.326 6.61282 12.4724 6.35299C12.9725 6.29105 13.4805 6.26009 13.9964 6.26009C19.6828 6.26009 24.4685 10.0718 25.8922 15.2547Z" fill="url(#paint4_linear_670_3784)"/>
<path d="M7.42567 17.5328H9.3487C9.44389 17.0472 9.61607 16.5799 9.85872 16.1486C10.8281 14.4207 12.8431 13.4262 14.9092 13.8252C16.8253 14.1945 18.282 15.6748 18.6512 17.5124C18.1064 16.8051 17.3803 16.2584 16.5499 15.9303C15.7196 15.6022 14.8159 15.5049 13.9347 15.6488H13.9324C13.3388 15.6639 12.7649 15.865 12.2918 16.2239C12.2911 16.2248 12.2904 16.2251 12.2894 16.2248L12.2871 16.2271C11.9407 16.4881 11.6596 16.8259 11.466 17.2141C11.2723 17.6022 11.1715 18.03 11.1714 18.4637V19.3932H5.45898V18.4642C5.46363 15.1839 7.35693 12.3425 10.1193 10.9462C11.3246 10.3365 12.6573 10.0212 14.0081 10.0261C17.365 10.0307 20.3048 11.963 21.6891 14.8132C20.4451 12.6742 18.1277 11.2356 15.4741 11.2356C14.0824 11.2356 12.7823 11.6314 11.6823 12.3174L11.68 12.3184H11.6791C10.9587 12.5836 10.2954 12.9687 9.71705 13.4541C8.47603 14.4845 7.6599 15.9369 7.42567 17.5328Z" fill="url(#paint5_linear_670_3784)"/>
<path d="M18.7428 18.4631V19.3926H16.8644V18.4631C16.8644 16.9057 15.5894 15.6445 14.017 15.6459C13.9898 15.6456 13.9624 15.6464 13.9348 15.6483C14.816 15.5042 15.7198 15.6013 16.5502 15.9293C17.3807 16.2574 18.1069 16.804 18.6518 17.5114V17.5123C18.7149 17.8251 18.7455 18.1436 18.7433 18.4627" fill="url(#paint6_linear_670_3784)"/>
<path d="M26.3241 18.4632V19.3927H20.634V18.4637C20.6256 14.8336 17.6472 11.8984 13.9814 11.9049C13.1967 11.9063 12.4185 12.0458 11.6821 12.3169C12.8196 11.6083 14.1332 11.2335 15.4734 11.2351C18.1275 11.2351 20.4449 12.6737 21.6888 14.8127C22.105 15.6679 22.3722 16.5878 22.479 17.5328H24.3853C23.9644 12.8232 20.4105 9.13372 15.9388 8.29669C20.3385 8.7166 24.0648 11.4432 25.8921 15.2544V15.2554C26.1794 16.3006 26.3247 17.3792 26.3241 18.4632Z" fill="url(#paint7_linear_670_3784)"/>
<mask id="mask0_670_3784" style="mask-type:alpha" maskUnits="userSpaceOnUse" x="1" y="6" width="26" height="25">
<path d="M23.4343 26.6502C21.7126 28.615 19.4241 29.9978 16.8839 30.6082C11.4251 31.9176 5.95242 29.4446 3.16542 24.8693C2.45719 23.7057 1.93822 22.437 1.62793 21.1106H4.0777C5.76987 25.9117 10.347 29.3517 15.7269 29.3517C18.5289 29.3561 21.2482 28.403 23.4343 26.6502ZM11.8423 21.1101C13.1371 23.0053 14.9324 24.5039 17.0284 25.4393C18.6077 26.1415 20.3171 26.5033 22.0455 26.5011C22.5899 26.5008 23.1246 26.4663 23.6498 26.3975C24.9269 24.8639 25.8288 23.0537 26.284 21.1106L11.8423 21.1101ZM13.9962 6.26009C13.4803 6.26009 12.9722 6.29105 12.4721 6.35299C10.3258 6.61282 8.28568 7.4334 6.5572 8.73215C6.55658 8.73091 6.5558 8.73169 6.55487 8.73447C3.58579 10.9608 1.66695 14.4901 1.66602 18.4634V19.3929H3.56396V18.4639C3.55804 16.1992 4.30456 13.9968 5.68626 12.2024C7.03682 10.4424 8.91392 9.15944 11.0443 8.54031C11.7069 8.34691 12.3869 8.21933 13.0746 8.15942C14.0303 8.07484 14.9931 8.12109 15.9364 8.29692H15.9387C20.3384 8.71636 24.0646 11.4434 25.892 15.2542C24.4683 10.0713 19.6821 6.26009 13.9962 6.26009ZM9.71672 13.4533C10.3003 12.9645 10.9641 12.5804 11.6788 12.3181H11.6797C11.6803 12.3168 11.6811 12.3164 11.682 12.3167C12.8193 11.6078 14.1331 11.2331 15.4733 11.2353C18.1274 11.2353 20.4448 12.6734 21.6887 14.8129C20.3045 11.9623 17.3642 10.03 14.0078 10.0253C12.657 10.0206 11.3243 10.3361 10.119 10.946C7.3566 12.3418 5.4633 15.1831 5.45866 18.4634V19.3929H11.1711V18.4639C11.1711 17.5521 11.6077 16.7415 12.2868 16.2273L12.2891 16.225C12.29 16.225 12.2908 16.2245 12.2914 16.2236C12.7647 15.8648 13.3388 15.6638 13.9325 15.649H13.9348C14.816 15.5051 15.7197 15.6023 16.5501 15.9304C17.3804 16.2585 18.1065 16.8052 18.6514 17.5126C18.2821 15.6755 16.8254 14.1947 14.9089 13.8254C12.8428 13.4259 10.8283 14.4209 9.85886 16.1488C9.62196 16.5692 9.44731 17.0346 9.34884 17.533H7.42581C7.66004 15.9371 8.47617 14.4842 9.71719 13.4538" fill="#151A1A"/>
</mask>
<g mask="url(#mask0_670_3784)">
<path d="M23.7572 28.8543C26.7918 28.8543 29.2523 26.3938 29.2523 23.3593C29.2523 20.3247 26.7918 17.8647 23.7572 17.8647C20.7227 17.8647 18.2622 20.3247 18.2622 23.3597C18.2622 26.3938 20.7227 28.8543 23.7572 28.8543Z" fill="url(#paint8_radial_670_3784)"/>
<path d="M6.94909 20.0006C10.8198 20.0006 13.957 16.8629 13.957 12.9922C13.957 9.12153 10.8202 5.9843 6.94909 5.9843C3.07795 5.9843 -0.0583496 9.12246 -0.0583496 12.9922C-0.0583496 16.8619 3.07888 20.001 6.94909 20.001" fill="url(#paint9_radial_670_3784)"/>
</g>
<defs>
<radialGradient id="paint0_radial_670_3784" cx="0" cy="0" r="1" gradientUnits="userSpaceOnUse" gradientTransform="translate(12.7002 23.4901) scale(14.0126)">
<stop stop-color="white"/>
<stop offset="0.236" stop-color="#D1D3D2"/>
<stop offset="1" stop-color="#ACACAC"/>
</radialGradient>
<radialGradient id="paint1_radial_670_3784" cx="0" cy="0" r="1" gradientUnits="userSpaceOnUse" gradientTransform="translate(14.6069 20.6228) scale(8.0232 8.0232)">
<stop stop-color="white"/>
<stop offset="1" stop-color="#ACACAC"/>
</radialGradient>
<linearGradient id="paint2_linear_670_3784" x1="1.62747" y1="26.0341" x2="23.4343" y2="26.0341" gradientUnits="userSpaceOnUse">
<stop stop-color="white"/>
<stop offset="1" stop-color="#BFC1C0"/>
</linearGradient>
<linearGradient id="paint3_linear_670_3784" x1="14.3775" y1="23.806" x2="28.26" y2="23.806" gradientUnits="userSpaceOnUse">
<stop stop-color="white"/>
<stop offset="1" stop-color="#656B68"/>
</linearGradient>
<linearGradient id="paint4_linear_670_3784" x1="1.66626" y1="12.8272" x2="25.8922" y2="12.8272" gradientUnits="userSpaceOnUse">
<stop stop-color="white"/>
<stop offset="1" stop-color="#BFC1C0"/>
</linearGradient>
<linearGradient id="paint5_linear_670_3784" x1="6.66436" y1="14.7096" x2="22.8944" y2="14.7096" gradientUnits="userSpaceOnUse">
<stop stop-color="white"/>
<stop offset="0.871" stop-color="#BFC1C0"/>
</linearGradient>
<linearGradient id="paint6_linear_670_3784" x1="13.9348" y1="17.4881" x2="18.7428" y2="17.4881" gradientUnits="userSpaceOnUse">
<stop stop-color="#838383"/>
<stop offset="1" stop-color="white"/>
</linearGradient>
<linearGradient id="paint7_linear_670_3784" x1="11.6821" y1="13.8447" x2="26.3241" y2="13.8447" gradientUnits="userSpaceOnUse">
<stop stop-color="#838383"/>
<stop offset="1" stop-color="white"/>
</linearGradient>
<radialGradient id="paint8_radial_670_3784" cx="0" cy="0" r="1" gradientUnits="userSpaceOnUse" gradientTransform="translate(24.8957 22.3871) scale(4.33193)">
<stop stop-opacity="0.6"/>
<stop offset="0.991" stop-opacity="0"/>
</radialGradient>
<radialGradient id="paint9_radial_670_3784" cx="0" cy="0" r="1" gradientUnits="userSpaceOnUse" gradientTransform="translate(7.30861 12.8124) scale(7.00795 7.00795)">
<stop stop-opacity="0.6"/>
<stop offset="0.991" stop-opacity="0"/>
</radialGradient>
</defs>
</svg>
