<svg width="74" height="16" viewBox="0 0 74 16" fill="none" xmlns="http://www.w3.org/2000/svg">
<path d="M0.522938 11.8862V1.68861H5.69459C7.77781 1.68861 9.04523 3.07258 9.04523 4.89358C9.04523 6.94767 7.61756 8.20052 5.69459 8.20052H2.2711V11.8862H0.522938ZM2.2711 6.62717H5.60718C6.69978 6.62717 7.26793 5.81137 7.26793 4.89358C7.26793 3.93209 6.61237 3.26196 5.60718 3.26196H2.2711V6.62717ZM10.1254 11.8862V4.16518H11.5094L11.7133 5.68025C12.2086 4.63136 13.1119 4.07777 14.3938 4.07777H14.6852V5.75309H14.3938C12.7914 5.75309 11.8444 6.61261 11.8444 8.06941V11.8862H10.1254ZM18.8482 12.0902C16.3425 12.0902 14.8857 10.342 14.8857 7.95286C14.8857 5.4326 16.5902 3.93209 18.8482 3.93209C21.3394 3.93209 22.7962 5.68025 22.7962 7.95286C22.7962 10.5605 21.15 12.0902 18.8482 12.0902ZM16.6339 7.95286C16.6339 9.64275 17.5808 10.6334 18.8482 10.6334C20.2322 10.6334 21.048 9.49707 21.048 7.95286C21.048 6.42322 20.1885 5.40346 18.8482 5.40346C17.508 5.40346 16.6339 6.42322 16.6339 7.95286ZM28.1894 12.0902C25.5089 12.0902 23.717 10.7645 23.5859 8.73954H25.3778C25.538 9.84671 26.5578 10.546 28.1894 10.546C29.5151 10.546 30.2143 10.0361 30.2143 9.17658C30.2143 8.37534 29.5879 8.05484 28.5973 7.74891L26.9365 7.2536C25.742 6.8894 23.8772 6.36495 23.8772 4.36913C23.8772 2.69381 25.2612 1.47009 27.5193 1.47009C29.9812 1.47009 31.5546 2.79578 31.6857 4.95185H29.9084C29.8356 3.80098 28.9906 3.02887 27.461 3.02887C26.3392 3.02887 25.6108 3.49505 25.6108 4.28172C25.6108 5.17037 26.4995 5.38889 27.4901 5.70939L29.0343 6.19013C30.4766 6.64174 31.9916 7.16619 31.9916 9.08917C31.9916 10.9393 30.5203 12.0902 28.1894 12.0902ZM36.4944 11.8862C34.8191 11.8862 33.9158 11.0559 33.9158 9.52621V5.62198H32.561V4.16518H33.9158V1.52837H35.6349V4.16518H37.6307V5.62198H35.6349V9.40967C35.6349 10.0652 35.9699 10.4294 36.6109 10.4294H37.485V11.8862H36.4944ZM41.1296 12.0465C39.3523 12.0465 38.1869 11.187 38.2014 9.74473C38.216 7.9383 40.0079 7.55953 41.5084 7.38471C42.6738 7.2536 43.5333 7.2099 43.5479 6.59804C43.5333 5.8405 42.9506 5.34519 41.96 5.34519C40.9402 5.34519 40.2118 5.89877 40.1099 6.70001H38.3763C38.5365 5.0684 39.9933 3.93209 41.9891 3.93209C44.0724 3.93209 45.2232 5.0684 45.2232 6.71458V10.2109C45.2232 10.4294 45.3398 10.546 45.602 10.546H46.0245V11.8862H45.2087C44.422 11.8862 43.9412 11.5657 43.8101 10.983C43.781 10.9102 43.7519 10.8082 43.7373 10.7208C43.2857 11.5512 42.4407 12.0465 41.1296 12.0465ZM39.935 9.62819C39.935 10.2983 40.4741 10.6917 41.4793 10.6917C42.6593 10.6917 43.5479 10.0215 43.5479 8.98719V7.90916C43.2566 8.36077 42.5136 8.46275 41.6978 8.56472C40.7363 8.68127 39.935 8.81238 39.935 9.62819ZM46.879 11.8862V0.960213H48.598V7.51582L51.8904 4.16518H53.9882L51.1911 6.94767L54.3669 11.8862H52.3711L49.9965 8.14225L48.598 9.54078V11.8862H46.879ZM54.8776 11.8862V4.16518H56.5966V11.8862H54.8776ZM54.6299 2.00911C54.6299 1.38269 55.1107 0.901942 55.7371 0.901942C56.3781 0.901942 56.8443 1.38269 56.8443 2.00911C56.8443 2.63554 56.3781 3.13085 55.7371 3.13085C55.1107 3.13085 54.6299 2.63554 54.6299 2.00911ZM58.0399 11.8862V4.16518H59.4238L59.5695 5.30148C60.0502 4.50024 61.0263 3.93209 62.1772 3.93209C63.8234 3.93209 64.9014 5.03926 64.9014 6.77285V11.8862H63.1824V6.86026C63.1824 6.00075 62.6142 5.4326 61.6527 5.4326C60.531 5.4326 59.7734 6.2047 59.7589 7.2099V11.8862H58.0399ZM69.7638 15.0184C67.6077 15.0184 66.1218 13.984 66.1218 12.3087H67.8408C67.8408 13.0517 68.6129 13.6198 69.7638 13.6198C71.1332 13.6198 71.847 12.8186 71.847 11.6531V10.5605C71.3517 11.3035 70.4922 11.7697 69.385 11.7697C67.3164 11.7697 65.8304 10.1672 65.8304 7.86546C65.8304 5.54914 67.3164 3.93209 69.3705 3.93209C70.5796 3.93209 71.5557 4.50024 72.0364 5.35976L72.1821 4.16518H73.5515V11.6531C73.5515 13.6781 72.1092 15.0184 69.7638 15.0184ZM67.6077 7.86546C67.6077 9.32226 68.4672 10.3275 69.7201 10.3275C70.9729 10.3275 71.847 9.30769 71.847 7.85089C71.847 6.39409 70.9729 5.38889 69.7201 5.38889C68.4672 5.38889 67.6077 6.39409 67.6077 7.86546Z" fill="white"/>
</svg>
