<svg width="104" height="21" viewBox="0 0 104 21" fill="none" xmlns="http://www.w3.org/2000/svg">
<path d="M0.376106 16.4529V2.02365H7.69381C10.6415 2.02365 12.4349 3.98191 12.4349 6.55856C12.4349 9.46503 10.4148 11.2378 7.69381 11.2378H2.8497V16.4529H0.376106ZM2.8497 9.01154H7.57013C9.11613 9.01154 9.92004 7.8572 9.92004 6.55856C9.92004 5.19809 8.99245 4.24988 7.57013 4.24988H2.8497V9.01154ZM13.9633 16.4529V5.5279H15.9215L16.2101 7.67168C16.911 6.18753 18.189 5.40422 20.003 5.40422H20.4152V7.77475H20.003C17.7355 7.77475 16.3956 8.99093 16.3956 11.0523V16.4529H13.9633ZM26.3058 16.7415C22.7603 16.7415 20.699 14.2679 20.699 10.8873C20.699 7.32125 23.1107 5.19809 26.3058 5.19809C29.8306 5.19809 31.892 7.67168 31.892 10.8873C31.892 14.5771 29.5627 16.7415 26.3058 16.7415ZM23.1725 10.8873C23.1725 13.2785 24.5124 14.6802 26.3058 14.6802C28.264 14.6802 29.4184 13.0724 29.4184 10.8873C29.4184 8.72296 28.2022 7.28003 26.3058 7.28003C24.4093 7.28003 23.1725 8.72296 23.1725 10.8873ZM39.5232 16.7415C35.7303 16.7415 33.1949 14.8657 33.0094 12.0005H35.5448C35.7716 13.5671 37.2145 14.5565 39.5232 14.5565C41.399 14.5565 42.3884 13.835 42.3884 12.6189C42.3884 11.4851 41.5021 11.0316 40.1004 10.5988L37.7504 9.89791C36.0602 9.38258 33.4217 8.6405 33.4217 5.81649C33.4217 3.44596 35.3799 1.71445 38.575 1.71445C42.0586 1.71445 44.2848 3.59026 44.4704 6.64102H41.9555C41.8525 5.01257 40.6569 3.92007 38.4925 3.92007C36.9053 3.92007 35.8746 4.57969 35.8746 5.69281C35.8746 6.95022 37.132 7.25941 38.5337 7.71291L40.7187 8.39314C42.7595 9.03215 44.9032 9.77423 44.9032 12.4952C44.9032 15.1131 42.8213 16.7415 39.5232 16.7415ZM51.2745 16.4529C48.904 16.4529 47.6259 15.278 47.6259 13.1136V7.58923H45.7089V5.5279H47.6259V1.7969H50.0583V5.5279H52.8823V7.58923H50.0583V12.9487C50.0583 13.8763 50.5324 14.3916 51.4394 14.3916H52.6762V16.4529H51.2745ZM57.8332 16.6797C55.3184 16.6797 53.6693 15.4635 53.6899 13.4228C53.7105 10.8667 56.246 10.3308 58.3691 10.0834C60.0182 9.89791 61.2344 9.83607 61.255 8.97032C61.2344 7.89843 60.4098 7.19757 59.0081 7.19757C57.5652 7.19757 56.5345 7.98088 56.3903 9.11461H53.9373C54.164 6.80592 56.2253 5.19809 59.0494 5.19809C61.9971 5.19809 63.6255 6.80592 63.6255 9.13522V14.0824C63.6255 14.3916 63.7904 14.5565 64.1614 14.5565H64.7592V16.4529H63.6049C62.4918 16.4529 61.8115 15.9994 61.626 15.1749C61.5848 15.0718 61.5436 14.9275 61.523 14.8039C60.8839 15.9788 59.6884 16.6797 57.8332 16.6797ZM56.1429 13.2579C56.1429 14.2061 56.9056 14.7626 58.3279 14.7626C59.9976 14.7626 61.255 13.8144 61.255 12.3509V10.8255C60.8427 11.4645 59.7914 11.6088 58.6371 11.7531C57.2766 11.918 56.1429 12.1035 56.1429 13.2579ZM65.9683 16.4529V0.992984H68.4007V10.269L73.0593 5.5279H76.0276L72.0698 9.46503L76.5635 16.4529H73.7395L70.3795 11.1553L68.4007 13.1342V16.4529H65.9683ZM77.2861 16.4529V5.5279H79.7184V16.4529H77.2861ZM76.9357 2.47714C76.9357 1.59077 77.6159 0.910533 78.5023 0.910533C79.4092 0.910533 80.0689 1.59077 80.0689 2.47714C80.0689 3.36351 79.4092 4.06436 78.5023 4.06436C77.6159 4.06436 76.9357 3.36351 76.9357 2.47714ZM81.7606 16.4529V5.5279H83.7188L83.925 7.13574C84.6052 6.00201 85.9863 5.19809 87.6147 5.19809C89.944 5.19809 91.4694 6.7647 91.4694 9.21767V16.4529H89.0371V9.34135C89.0371 8.12517 88.2331 7.32125 86.8727 7.32125C85.2855 7.32125 84.2136 8.41376 84.1929 9.83607V16.4529H81.7606ZM98.3496 20.8848C95.2988 20.8848 93.1962 19.4212 93.1962 17.0507H95.6286C95.6286 18.102 96.7211 18.9059 98.3496 18.9059C100.287 18.9059 101.297 17.7722 101.297 16.1231V14.5771C100.596 15.6284 99.3802 16.288 97.8136 16.288C94.8865 16.288 92.784 14.0206 92.784 10.7637C92.784 7.48616 94.8865 5.19809 97.793 5.19809C99.5039 5.19809 100.885 6.00201 101.565 7.21819L101.771 5.5279H103.709V16.1231C103.709 18.9884 101.668 20.8848 98.3496 20.8848ZM95.2988 10.7637C95.2988 12.825 96.515 14.2473 98.2877 14.2473C100.06 14.2473 101.297 12.8044 101.297 10.7431C101.297 8.68173 100.06 7.25941 98.2877 7.25941C96.515 7.25941 95.2988 8.68173 95.2988 10.7637Z" fill="#151A1A"/>
</svg>
