<svg width="109" height="28" viewBox="0 0 109 28" fill="none" xmlns="http://www.w3.org/2000/svg">
<path fill-rule="evenodd" clip-rule="evenodd" d="M13.7583 21.999C16.0453 21.999 18.1193 21.0871 19.6366 19.6071C19.6782 19.5665 19.7448 19.5665 19.7859 19.6076L23.2834 23.105L26.9136 26.7352C26.9921 26.8137 26.9112 26.9446 26.8059 26.9094L21.0125 24.9783C20.9825 24.9683 20.9496 24.9724 20.9229 24.9892C18.8477 26.2951 16.3912 27.0505 13.7583 27.0505C6.31878 27.0505 0.287842 21.0195 0.287842 13.58C0.287842 6.14043 6.31878 0.109497 13.7583 0.109497C21.1979 0.109497 27.2288 6.14043 27.2288 13.58C27.2288 16.7575 26.1286 19.6781 24.2883 21.9815C24.2494 22.0303 24.1768 22.034 24.1327 21.9899L17.0202 14.8774C16.9417 14.7989 17.0226 14.668 17.1279 14.7032L21.6476 16.2098C21.7028 16.2281 21.7625 16.1983 21.7801 16.143C22.0382 15.3349 22.1774 14.4737 22.1774 13.58C22.1774 8.93026 18.4081 5.16093 13.7583 5.16093C9.10858 5.16093 5.33927 8.93026 5.33927 13.58C5.33927 18.2297 9.10858 21.999 13.7583 21.999Z" fill="#151A1A"/>
<path d="M45.4264 13.5734C45.4264 14.0768 45.3743 14.5593 45.27 15.0212C45.1658 15.4778 45.0146 15.906 44.8166 16.3055C44.6237 16.7051 44.3865 17.0735 44.105 17.4108C43.8235 17.743 43.503 18.0362 43.1433 18.2905L46.0128 21.404H44.277C44.0269 21.404 43.8001 21.3703 43.5968 21.3029C43.3987 21.2354 43.2163 21.1108 43.0494 20.9292L41.3918 19.1078C41.126 19.1805 40.8523 19.2349 40.5709 19.2712C40.2946 19.3075 40.0053 19.3257 39.703 19.3257C38.8481 19.3257 38.0662 19.183 37.3573 18.8976C36.6536 18.607 36.0489 18.2049 35.5433 17.6911C35.0429 17.1773 34.6546 16.5702 34.3783 15.8696C34.102 15.1639 33.9639 14.3985 33.9639 13.5734C33.9639 12.7483 34.102 11.9855 34.3783 11.2849C34.6546 10.5791 35.0429 9.96941 35.5433 9.45564C36.0489 8.94195 36.6536 8.54234 37.3573 8.2569C38.0662 7.96635 38.8481 7.821 39.703 7.821C40.5578 7.821 41.3371 7.96635 42.0408 8.2569C42.7445 8.54753 43.3466 8.94969 43.847 9.46346C44.3474 9.97197 44.7357 10.5791 45.012 11.2849C45.2883 11.9855 45.4264 12.7483 45.4264 13.5734ZM43.2684 13.5734C43.2684 12.9559 43.185 12.4032 43.0182 11.9154C42.8566 11.4224 42.622 11.0047 42.3145 10.6622C42.007 10.3197 41.6316 10.0576 41.1886 9.87599C40.7507 9.69434 40.2555 9.60355 39.703 9.60355C39.1504 9.60355 38.6526 9.69434 38.2096 9.87599C37.7664 10.0576 37.3885 10.3197 37.0758 10.6622C36.7683 11.0047 36.5311 11.4224 36.3643 11.9154C36.1975 12.4032 36.1141 12.9559 36.1141 13.5734C36.1141 14.1909 36.1975 14.7462 36.3643 15.2391C36.5311 15.727 36.7683 16.1421 37.0758 16.4846C37.3885 16.8219 37.7664 17.0813 38.2096 17.263C38.6526 17.4446 39.1504 17.5354 39.703 17.5354C40.2555 17.5354 40.7507 17.4446 41.1886 17.263C41.6316 17.0813 42.007 16.8219 42.3145 16.4846C42.622 16.1421 42.8566 15.727 43.0182 15.2391C43.185 14.7462 43.2684 14.1909 43.2684 13.5734Z" fill="#151A1A"/>
<path d="M48.1212 11.2147V16.2898C48.1212 16.7777 48.2333 17.1565 48.4574 17.4263C48.6868 17.691 49.0282 17.8233 49.4817 17.8233C49.8153 17.8233 50.1281 17.7506 50.42 17.6054C50.7119 17.4548 50.9881 17.2499 51.2488 16.9904V11.2147H53.18V19.2011H51.9994C51.7492 19.2011 51.585 19.0843 51.5068 18.8508L51.3739 18.2125C51.2071 18.3786 51.0351 18.5317 50.8579 18.6718C50.6806 18.8067 50.4903 18.9235 50.2871 19.0221C50.089 19.1154 49.8726 19.1881 49.6381 19.24C49.4087 19.2971 49.1611 19.3256 48.8953 19.3256C48.4574 19.3256 48.0691 19.2529 47.7303 19.1077C47.3967 18.9572 47.1152 18.747 46.8858 18.4772C46.6565 18.2073 46.4818 17.8882 46.362 17.5197C46.2473 17.1461 46.1899 16.7361 46.1899 16.2898V11.2147H48.1212Z" fill="#151A1A"/>
<path d="M56.6727 11.2151V19.2014H54.7414V11.2151H56.6727ZM56.962 8.8877C56.962 9.05372 56.9281 9.20944 56.8603 9.35472C56.7926 9.5 56.7013 9.62716 56.5867 9.73614C56.4772 9.84511 56.3469 9.93334 56.1957 10.0008C56.0446 10.0631 55.883 10.0942 55.711 10.0942C55.5441 10.0942 55.3852 10.0631 55.234 10.0008C55.088 9.93334 54.9603 9.84511 54.8509 9.73614C54.7414 9.62716 54.6528 9.5 54.585 9.35472C54.5225 9.20944 54.4912 9.05372 54.4912 8.8877C54.4912 8.71642 54.5225 8.55558 54.585 8.40505C54.6528 8.25459 54.7414 8.12486 54.8509 8.01589C54.9603 7.90691 55.088 7.82124 55.234 7.75901C55.3852 7.69152 55.5441 7.65778 55.711 7.65778C55.883 7.65778 56.0446 7.69152 56.1957 7.75901C56.3469 7.82124 56.4772 7.90691 56.5867 8.01589C56.7013 8.12486 56.7926 8.25459 56.8603 8.40505C56.9281 8.55558 56.962 8.71642 56.962 8.8877Z" fill="#151A1A"/>
<path d="M63.8732 12.9031C63.8159 12.9758 63.7585 13.0329 63.7012 13.0744C63.6491 13.1159 63.5709 13.1367 63.4666 13.1367C63.3676 13.1367 63.2712 13.1081 63.1774 13.051C63.0835 12.9887 62.9715 12.9213 62.8411 12.8487C62.7108 12.7708 62.5544 12.7034 62.372 12.6463C62.1948 12.584 61.9732 12.5528 61.7074 12.5528C61.3685 12.5528 61.0715 12.6151 60.8161 12.7397C60.5606 12.859 60.3469 13.0329 60.1749 13.2612C60.0081 13.4895 59.883 13.7671 59.7996 14.0941C59.7162 14.4158 59.6745 14.7817 59.6745 15.1916C59.6745 15.6172 59.7187 15.996 59.8074 16.3281C59.9012 16.6602 60.0342 16.9404 60.2062 17.1688C60.3782 17.3919 60.5867 17.5631 60.8317 17.6825C61.0766 17.7966 61.3529 17.8537 61.6604 17.8537C61.968 17.8537 62.2156 17.8174 62.4033 17.7448C62.5961 17.6669 62.7578 17.5839 62.8881 17.4957C63.0183 17.4023 63.1304 17.3192 63.2242 17.2466C63.3233 17.1688 63.4328 17.1298 63.5526 17.1298C63.709 17.1298 63.8263 17.1895 63.9045 17.3089L64.4597 18.0094C64.2459 18.2585 64.0139 18.4687 63.7638 18.64C63.5136 18.806 63.2529 18.9409 62.9819 19.0447C62.716 19.1433 62.4398 19.2133 62.1531 19.2549C61.8663 19.2964 61.5823 19.3171 61.3008 19.3171C60.8056 19.3171 60.3391 19.2263 59.9012 19.0447C59.4633 18.8579 59.0802 18.588 58.7518 18.2352C58.4287 17.8823 58.1707 17.4516 57.9778 16.943C57.7901 16.4293 57.6963 15.8455 57.6963 15.1916C57.6963 14.6053 57.7797 14.063 57.9465 13.5648C58.1185 13.0614 58.3687 12.6281 58.6971 12.2648C59.0255 11.8964 59.4321 11.6084 59.9168 11.4008C60.4016 11.1933 60.9594 11.0895 61.5901 11.0895C62.1896 11.0895 62.7134 11.1855 63.1617 11.3775C63.6152 11.5695 64.0218 11.8445 64.3815 12.2026L63.8732 12.9031Z" fill="#151A1A"/>
<path d="M67.0174 7.63411V14.2582H67.3772C67.5074 14.2582 67.6091 14.2401 67.6821 14.2037C67.7551 14.1674 67.8332 14.0999 67.9167 14.0014L69.9105 11.5494C69.9991 11.4456 70.0929 11.3652 70.192 11.3081C70.291 11.2459 70.4213 11.2147 70.5829 11.2147H72.35L69.8557 14.1804C69.7671 14.2894 69.6759 14.3906 69.5821 14.484C69.4883 14.5722 69.3866 14.65 69.2771 14.7175C69.3866 14.7954 69.483 14.8861 69.5665 14.9899C69.6498 15.0937 69.7332 15.2053 69.8167 15.3247L72.4907 19.2011H70.7471C70.5959 19.2011 70.4682 19.1751 70.364 19.1232C70.2597 19.0714 70.1659 18.9831 70.0825 18.8586L68.0417 15.8306C67.9635 15.7113 67.8853 15.6334 67.8072 15.5971C67.729 15.5607 67.6117 15.5426 67.4553 15.5426H67.0174V19.2011H65.0862V7.63411H67.0174Z" fill="#151A1A"/>
<path d="M74.2778 7.94536C74.3716 7.94536 74.4498 7.95054 74.5123 7.96092C74.5749 7.9661 74.6296 7.98166 74.6765 8.00759C74.7286 8.02834 74.7781 8.06208 74.8251 8.10882C74.872 8.15031 74.9241 8.20736 74.9815 8.28003L80.916 15.8071C80.8952 15.6255 80.8795 15.4491 80.8691 15.2778C80.8639 15.1014 80.8613 14.938 80.8613 14.7874V7.94536H82.7143V19.201H81.6275C81.4607 19.201 81.3226 19.175 81.2131 19.1231C81.1037 19.0712 80.9968 18.9778 80.8925 18.8428L74.9815 11.3469C74.9971 11.5129 75.0076 11.679 75.0127 11.8451C75.0232 12.006 75.0284 12.1539 75.0284 12.2888V19.201H73.1753V7.94536H74.2778Z" fill="#151A1A"/>
<path d="M87.6852 11.0895C88.2846 11.0895 88.8267 11.1855 89.3115 11.3775C89.8015 11.5695 90.2185 11.8419 90.5625 12.1948C90.9066 12.5477 91.1724 12.9784 91.3601 13.487C91.5477 13.9955 91.6415 14.5637 91.6415 15.1916C91.6415 15.8248 91.5477 16.3956 91.3601 16.9041C91.1724 17.4127 90.9066 17.8459 90.5625 18.204C90.2185 18.5621 89.8015 18.8371 89.3115 19.0291C88.8267 19.2211 88.2846 19.3171 87.6852 19.3171C87.0857 19.3171 86.541 19.2211 86.051 19.0291C85.561 18.8371 85.1414 18.5621 84.7922 18.204C84.4482 17.8459 84.1797 17.4127 83.9868 16.9041C83.7991 16.3956 83.7053 15.8248 83.7053 15.1916C83.7053 14.5637 83.7991 13.9955 83.9868 13.487C84.1797 12.9784 84.4482 12.5477 84.7922 12.1948C85.1414 11.8419 85.561 11.5695 86.051 11.3775C86.541 11.1855 87.0857 11.0895 87.6852 11.0895ZM87.6852 17.8382C88.3524 17.8382 88.845 17.615 89.163 17.1688C89.4861 16.7225 89.6477 16.0686 89.6477 15.2072C89.6477 14.3458 89.4861 13.6893 89.163 13.2379C88.845 12.7864 88.3524 12.5607 87.6852 12.5607C87.0075 12.5607 86.5071 12.789 86.184 13.2456C85.8607 13.6971 85.6992 14.351 85.6992 15.2072C85.6992 16.0635 85.8607 16.7173 86.184 17.1688C86.5071 17.615 87.0075 17.8382 87.6852 17.8382Z" fill="#151A1A"/>
<path d="M98.1684 19.2011C97.9179 19.2011 97.7536 19.0843 97.6754 18.8508L97.5192 18.0802C97.3521 18.267 97.1777 18.4356 96.9952 18.5861C96.8126 18.7366 96.6146 18.8663 96.4011 18.9753C96.1923 19.0843 95.966 19.1673 95.7209 19.2244C95.4811 19.2867 95.2204 19.3178 94.9389 19.3178C94.5011 19.3178 94.0997 19.227 93.7349 19.0454C93.37 18.8638 93.0546 18.6017 92.7888 18.2592C92.5281 17.9115 92.3249 17.4834 92.1789 16.9749C92.0382 16.4663 91.9678 15.8851 91.9678 15.2313C91.9678 14.6396 92.0486 14.0896 92.2102 13.5811C92.3718 13.0725 92.6037 12.6314 92.9061 12.2578C93.2084 11.8841 93.5707 11.5936 93.9929 11.386C94.4151 11.1732 94.8897 11.0668 95.4157 11.0668C95.8643 11.0668 96.2475 11.1395 96.5655 11.2847C96.8834 11.4249 97.1676 11.6143 97.4175 11.853V7.63411H99.3491V19.2011H98.1684ZM95.5956 17.7921C95.997 17.7921 96.3385 17.7092 96.62 17.5431C96.9015 17.377 97.1676 17.1409 97.4175 16.8347V13.2541C97.1986 12.9894 96.9588 12.8027 96.6981 12.6937C96.4429 12.5847 96.1667 12.5302 95.8697 12.5302C95.5774 12.5302 95.312 12.5847 95.0722 12.6937C94.8372 12.8027 94.6365 12.9687 94.4699 13.1918C94.3083 13.4098 94.1831 13.69 94.0946 14.0325C94.0059 14.3698 93.9616 14.7694 93.9616 15.2313C93.9616 15.6983 93.9981 16.0953 94.0711 16.4222C94.1493 16.7439 94.2588 17.0086 94.3995 17.2161C94.5402 17.4185 94.7119 17.5664 94.9153 17.6599C95.1187 17.7481 95.3457 17.7921 95.5956 17.7921Z" fill="#151A1A"/>
<path d="M104.13 11.0895C104.636 11.0895 105.1 11.1699 105.522 11.3308C105.95 11.4916 106.317 11.7278 106.625 12.0391C106.932 12.3453 107.172 12.7241 107.344 13.1756C107.516 13.6219 107.602 14.133 107.602 14.709C107.602 14.8543 107.594 14.9762 107.579 15.0749C107.568 15.1683 107.545 15.2435 107.508 15.3006C107.477 15.3525 107.433 15.3914 107.375 15.4173C107.318 15.4382 107.245 15.4485 107.157 15.4485H102.199C102.257 16.2684 102.478 16.8704 102.864 17.2544C103.249 17.6384 103.76 17.8304 104.396 17.8304C104.709 17.8304 104.978 17.7941 105.201 17.7214C105.431 17.6488 105.629 17.5683 105.796 17.4801C105.968 17.3919 106.117 17.3115 106.241 17.2388C106.372 17.1661 106.497 17.1298 106.617 17.1298C106.695 17.1298 106.763 17.1454 106.82 17.1765C106.878 17.2077 106.927 17.2518 106.969 17.3089L107.532 18.0094C107.318 18.2585 107.078 18.4687 106.812 18.64C106.546 18.806 106.268 18.9409 105.976 19.0447C105.689 19.1433 105.395 19.2133 105.092 19.2549C104.795 19.2964 104.506 19.3171 104.224 19.3171C103.666 19.3171 103.148 19.2263 102.668 19.0447C102.189 18.8579 101.772 18.5855 101.418 18.2273C101.063 17.8641 100.784 17.4178 100.58 16.8885C100.378 16.354 100.276 15.7365 100.276 15.0359C100.276 14.491 100.364 13.9799 100.541 13.5025C100.719 13.0199 100.972 12.6021 101.3 12.2493C101.634 11.8912 102.038 11.6084 102.512 11.4008C102.992 11.1933 103.531 11.0895 104.13 11.0895ZM104.17 12.4672C103.606 12.4672 103.166 12.6255 102.848 12.9421C102.53 13.2586 102.327 13.7075 102.239 14.2887H105.866C105.866 14.0396 105.832 13.8061 105.764 13.5881C105.697 13.365 105.593 13.1704 105.452 13.0043C105.311 12.8383 105.134 12.7086 104.92 12.6151C104.706 12.5165 104.456 12.4672 104.17 12.4672Z" fill="#151A1A"/>
</svg>
