<svg width="77" height="20" viewBox="0 0 77 20" fill="none" xmlns="http://www.w3.org/2000/svg">
<path fill-rule="evenodd" clip-rule="evenodd" d="M9.64403 15.7168C11.2603 15.7168 12.7261 15.0723 13.7984 14.0264C13.8278 13.9977 13.8749 13.9977 13.9039 14.0267L16.3757 16.4985L18.9413 19.064C18.9968 19.1195 18.9396 19.212 18.8652 19.1872L14.7708 17.8224C14.7496 17.8153 14.7263 17.8182 14.7074 17.8301C13.2408 18.753 11.5048 19.2868 9.64403 19.2868C4.38627 19.2868 0.124023 15.0246 0.124023 9.76684C0.124023 4.50907 4.38627 0.246826 9.64403 0.246826C14.9018 0.246826 19.164 4.50907 19.164 9.76684C19.164 12.0125 18.3865 14.0765 17.0859 15.7045C17.0584 15.7389 17.0071 15.7415 16.9759 15.7104L11.9493 10.6838C11.8938 10.6283 11.951 10.5358 12.0254 10.5606L15.2197 11.6254C15.2586 11.6383 15.3008 11.6173 15.3133 11.5782C15.4956 11.0071 15.594 10.3984 15.594 9.76684C15.594 6.48073 12.9301 3.81683 9.64403 3.81683C6.35791 3.81683 3.69403 6.48073 3.69403 9.76684C3.69403 13.0529 6.35791 15.7168 9.64403 15.7168Z" fill="white"/>
<path d="M32.0248 9.76215C32.0248 10.1179 31.9879 10.459 31.9143 10.7854C31.8406 11.1081 31.7338 11.4107 31.5938 11.693C31.4574 11.9755 31.2898 12.2358 31.0909 12.4742C30.8919 12.7089 30.6654 12.9162 30.4112 13.0959L32.4392 15.2963H31.2124C31.0357 15.2963 30.8754 15.2725 30.7317 15.2248C30.5917 15.1771 30.4628 15.0891 30.3449 14.9607L29.1734 13.6735C28.9855 13.7249 28.7921 13.7634 28.5932 13.789C28.3979 13.8147 28.1935 13.8275 27.9798 13.8275C27.3756 13.8275 26.823 13.7267 26.3221 13.5249C25.8247 13.3196 25.3974 13.0354 25.04 12.6723C24.6864 12.3092 24.412 11.8801 24.2167 11.385C24.0215 10.8862 23.9238 10.3453 23.9238 9.76215C23.9238 9.17905 24.0215 8.63993 24.2167 8.1448C24.412 7.64605 24.6864 7.21512 25.04 6.85203C25.3974 6.48898 25.8247 6.20657 26.3221 6.00484C26.823 5.7995 27.3756 5.69678 27.9798 5.69678C28.584 5.69678 29.1347 5.7995 29.6321 6.00484C30.1294 6.21024 30.5549 6.49446 30.9085 6.85755C31.2622 7.21693 31.5366 7.64605 31.7319 8.1448C31.9272 8.63993 32.0248 9.17905 32.0248 9.76215ZM30.4996 9.76215C30.4996 9.32576 30.4407 8.93515 30.3228 8.59043C30.2086 8.242 30.0428 7.94678 29.8255 7.70474C29.6081 7.46269 29.3429 7.27748 29.0297 7.1491C28.7203 7.02072 28.3703 6.95656 27.9798 6.95656C27.5893 6.95656 27.2375 7.02072 26.9244 7.1491C26.6112 7.27748 26.3441 7.46269 26.1231 7.70474C25.9058 7.94678 25.7382 8.242 25.6203 8.59043C25.5024 8.93515 25.4435 9.32576 25.4435 9.76215C25.4435 10.1986 25.5024 10.591 25.6203 10.9394C25.7382 11.2842 25.9058 11.5775 26.1231 11.8196C26.3441 12.058 26.6112 12.2414 26.9244 12.3697C27.2375 12.4981 27.5893 12.5623 27.9798 12.5623C28.3703 12.5623 28.7203 12.4981 29.0297 12.3697C29.3429 12.2414 29.6081 12.058 29.8255 11.8196C30.0428 11.5775 30.2086 11.2842 30.3228 10.9394C30.4407 10.591 30.4996 10.1986 30.4996 9.76215Z" fill="white"/>
<path d="M33.9293 8.09521V11.682C33.9293 12.0267 34.0085 12.2944 34.167 12.4852C34.329 12.6722 34.5704 12.7657 34.8909 12.7657C35.1266 12.7657 35.3477 12.7144 35.554 12.6117C35.7603 12.5053 35.9555 12.3605 36.1397 12.1771V8.09521H37.5046V13.7394H36.6702C36.4934 13.7394 36.3773 13.6569 36.322 13.4919L36.2281 13.0408C36.1102 13.1581 35.9887 13.2663 35.8634 13.3653C35.7381 13.4607 35.6037 13.5432 35.46 13.6129C35.32 13.6789 35.1671 13.7302 35.0014 13.7669C34.8393 13.8073 34.6643 13.8274 34.4764 13.8274C34.167 13.8274 33.8925 13.7761 33.6531 13.6734C33.4173 13.5671 33.2183 13.4185 33.0563 13.2278C32.8942 13.0371 32.7708 12.8116 32.686 12.5511C32.605 12.2871 32.5645 11.9974 32.5645 11.682V8.09521H33.9293Z" fill="white"/>
<path d="M39.9729 8.09534V13.7396H38.608V8.09534H39.9729ZM40.1773 6.45052C40.1773 6.56786 40.1534 6.67791 40.1055 6.78058C40.0576 6.88325 39.9931 6.97312 39.9121 7.05014C39.8347 7.12716 39.7426 7.18951 39.6358 7.23716C39.529 7.28119 39.4148 7.30318 39.2932 7.30318C39.1753 7.30318 39.0629 7.28119 38.9561 7.23716C38.8529 7.18951 38.7627 7.12716 38.6853 7.05014C38.608 6.97312 38.5453 6.88325 38.4975 6.78058C38.4532 6.67791 38.4312 6.56786 38.4312 6.45052C38.4312 6.32948 38.4532 6.21581 38.4975 6.10942C38.5453 6.00308 38.608 5.9114 38.6853 5.83439C38.7627 5.75737 38.8529 5.69682 38.9561 5.65284C39.0629 5.60515 39.1753 5.5813 39.2932 5.5813C39.4148 5.5813 39.529 5.60515 39.6358 5.65284C39.7426 5.69682 39.8347 5.75737 39.9121 5.83439C39.9931 5.9114 40.0576 6.00308 40.1055 6.10942C40.1534 6.21581 40.1773 6.32948 40.1773 6.45052Z" fill="white"/>
<path d="M45.0617 9.28837C45.0212 9.33973 44.9807 9.38004 44.9402 9.40941C44.9033 9.43873 44.8481 9.45339 44.7744 9.45339C44.7044 9.45339 44.6362 9.43321 44.5699 9.39289C44.5036 9.34886 44.4244 9.30122 44.3323 9.24986C44.2402 9.19483 44.1297 9.14718 44.0008 9.10682C43.8755 9.06284 43.7189 9.0408 43.5311 9.0408C43.2916 9.0408 43.0816 9.08483 42.9011 9.17284C42.7206 9.25719 42.5695 9.38004 42.448 9.54141C42.3301 9.70277 42.2417 9.89898 42.1827 10.13C42.1238 10.3574 42.0944 10.616 42.0944 10.9057C42.0944 11.2065 42.1256 11.4742 42.1883 11.7089C42.2546 11.9436 42.3485 12.1417 42.4701 12.303C42.5917 12.4607 42.739 12.5817 42.9122 12.6661C43.0853 12.7467 43.2805 12.7871 43.4979 12.7871C43.7153 12.7871 43.8903 12.7615 44.0229 12.7101C44.1591 12.6551 44.2734 12.5964 44.3655 12.5341C44.4575 12.468 44.5368 12.4094 44.6031 12.358C44.6731 12.303 44.7504 12.2755 44.8352 12.2755C44.9457 12.2755 45.0286 12.3177 45.0838 12.402L45.4762 12.8971C45.3251 13.0732 45.1612 13.2217 44.9844 13.3427C44.8076 13.4601 44.6233 13.5554 44.4318 13.6288C44.2439 13.6985 44.0487 13.748 43.846 13.7773C43.6434 13.8067 43.4426 13.8213 43.2437 13.8213C42.8937 13.8213 42.564 13.7571 42.2546 13.6288C41.9451 13.4968 41.6744 13.306 41.4423 13.0567C41.2139 12.8073 41.0315 12.5029 40.8952 12.1435C40.7626 11.7804 40.6963 11.3678 40.6963 10.9057C40.6963 10.4913 40.7552 10.108 40.8731 9.75599C40.9947 9.40022 41.1715 9.09401 41.4036 8.83726C41.6357 8.57689 41.923 8.37335 42.2656 8.22665C42.6082 8.07994 43.0024 8.00659 43.4482 8.00659C43.8718 8.00659 44.2421 8.07442 44.5589 8.21013C44.8794 8.34584 45.1667 8.54019 45.4209 8.79328L45.0617 9.28837Z" fill="white"/>
<path d="M47.2838 5.5647V10.2462H47.5381C47.6301 10.2462 47.702 10.2334 47.7535 10.2077C47.8051 10.182 47.8604 10.1343 47.9193 10.0647L49.3284 8.33178C49.391 8.25843 49.4573 8.2016 49.5274 8.16123C49.5973 8.11725 49.6894 8.09521 49.8036 8.09521H51.0525L49.2897 10.1912C49.2271 10.2682 49.1626 10.3397 49.0963 10.4057C49.03 10.4681 48.9582 10.523 48.8808 10.5707C48.9582 10.6258 49.0263 10.6899 49.0853 10.7633C49.1442 10.8366 49.2032 10.9155 49.2621 10.9999L51.1519 13.7394H49.9197C49.8129 13.7394 49.7226 13.7211 49.6489 13.6844C49.5752 13.6478 49.5089 13.5854 49.45 13.4974L48.0077 11.3574C47.9525 11.2731 47.8972 11.2181 47.8419 11.1924C47.7867 11.1667 47.7038 11.1539 47.5933 11.1539H47.2838V13.7394H45.9189V5.5647H47.2838Z" fill="white"/>
<path d="M52.4149 5.78467C52.4812 5.78467 52.5365 5.78833 52.5807 5.79566C52.6249 5.79933 52.6636 5.81032 52.6967 5.82865C52.7335 5.84331 52.7685 5.86716 52.8017 5.90019C52.8348 5.92951 52.8717 5.96983 52.9122 6.02119L57.1064 11.3408C57.0916 11.2125 57.0806 11.0878 57.0732 10.9667C57.0695 10.8421 57.0677 10.7265 57.0677 10.6202V5.78467H58.3773V13.7393H57.6092C57.4913 13.7393 57.3937 13.721 57.3163 13.6843C57.239 13.6477 57.1634 13.5816 57.0898 13.4863L52.9122 8.18866C52.9233 8.30599 52.9307 8.42337 52.9343 8.54071C52.9417 8.65443 52.9454 8.75896 52.9454 8.8543V13.7393H51.6357V5.78467H52.4149Z" fill="white"/>
<path d="M61.8903 8.00659C62.314 8.00659 62.6971 8.07442 63.0397 8.21013C63.386 8.34584 63.6807 8.53838 63.9238 8.78776C64.167 9.03713 64.3549 9.34153 64.4875 9.70096C64.6201 10.0603 64.6864 10.4619 64.6864 10.9057C64.6864 11.3532 64.6201 11.7566 64.4875 12.1159C64.3549 12.4754 64.167 12.7816 63.9238 13.0347C63.6807 13.2877 63.386 13.4821 63.0397 13.6178C62.6971 13.7535 62.314 13.8213 61.8903 13.8213C61.4667 13.8213 61.0817 13.7535 60.7354 13.6178C60.3891 13.4821 60.0926 13.2877 59.8458 13.0347C59.6026 12.7816 59.4129 12.4754 59.2766 12.1159C59.1439 11.7566 59.0776 11.3532 59.0776 10.9057C59.0776 10.4619 59.1439 10.0603 59.2766 9.70096C59.4129 9.34153 59.6026 9.03713 59.8458 8.78776C60.0926 8.53838 60.3891 8.34584 60.7354 8.21013C61.0817 8.07442 61.4667 8.00659 61.8903 8.00659ZM61.8903 12.7761C62.3618 12.7761 62.71 12.6184 62.9347 12.303C63.1631 11.9876 63.2773 11.5255 63.2773 10.9167C63.2773 10.3079 63.1631 9.844 62.9347 9.52494C62.71 9.20587 62.3618 9.04632 61.8903 9.04632C61.4114 9.04632 61.0577 9.20768 60.8294 9.53041C60.6009 9.84947 60.4867 10.3116 60.4867 10.9167C60.4867 11.5219 60.6009 11.984 60.8294 12.303C61.0577 12.6184 61.4114 12.7761 61.8903 12.7761Z" fill="white"/>
<path d="M69.2992 13.7394C69.1221 13.7394 69.006 13.6569 68.9508 13.4919L68.8403 12.9473C68.7223 13.0793 68.599 13.1985 68.47 13.3048C68.341 13.4112 68.2011 13.5029 68.0502 13.5799C67.9026 13.6569 67.7427 13.7156 67.5694 13.7559C67.4 13.7999 67.2157 13.8219 67.0168 13.8219C66.7074 13.8219 66.4237 13.7578 66.1659 13.6294C65.908 13.501 65.6851 13.3158 65.4972 13.0738C65.313 12.8281 65.1694 12.5255 65.0662 12.1661C64.9667 11.8067 64.917 11.3959 64.917 10.9338C64.917 10.5157 64.9741 10.127 65.0883 9.76759C65.2025 9.40816 65.3664 9.09643 65.5801 8.83239C65.7938 8.56831 66.0498 8.36296 66.3482 8.21626C66.6466 8.06589 66.982 7.99068 67.3538 7.99068C67.6708 7.99068 67.9416 8.04204 68.1663 8.14471C68.391 8.24377 68.5919 8.37762 68.7685 8.54631V5.5647H70.1336V13.7394H69.2992ZM67.4809 12.7437C67.7646 12.7437 68.0059 12.685 68.2049 12.5677C68.4038 12.4503 68.5919 12.2834 68.7685 12.067V9.53654C68.6138 9.34947 68.4443 9.21747 68.2601 9.14046C68.0797 9.06344 67.8845 9.02493 67.6746 9.02493C67.468 9.02493 67.2805 9.06344 67.111 9.14046C66.9449 9.21747 66.8031 9.33481 66.6853 9.49251C66.5711 9.64654 66.4827 9.84461 66.4201 10.0867C66.3574 10.325 66.3261 10.6074 66.3261 10.9338C66.3261 11.2639 66.3519 11.5444 66.4035 11.7755C66.4587 12.0029 66.5361 12.1899 66.6355 12.3366C66.735 12.4796 66.8564 12.5842 67.0001 12.6502C67.1439 12.7126 67.3043 12.7437 67.4809 12.7437Z" fill="white"/>
<path d="M73.5127 8.00659C73.8702 8.00659 74.1977 8.06343 74.4961 8.17714C74.7984 8.29081 75.0583 8.4577 75.2754 8.67775C75.4929 8.89414 75.6623 9.16184 75.7837 9.48091C75.9056 9.7963 75.966 10.1575 75.966 10.5646C75.966 10.6673 75.9608 10.7535 75.9498 10.8232C75.9422 10.8892 75.9256 10.9424 75.8999 10.9827C75.878 11.0194 75.8466 11.0469 75.8061 11.0652C75.7656 11.0799 75.7137 11.0873 75.6514 11.0873H72.148C72.1885 11.6667 72.3451 12.0921 72.6174 12.3635C72.8901 12.6349 73.2509 12.7706 73.7007 12.7706C73.9216 12.7706 74.1115 12.7449 74.2696 12.6936C74.4319 12.6423 74.5718 12.5854 74.6899 12.5231C74.8113 12.4607 74.9164 12.4039 75.0045 12.3525C75.0969 12.3012 75.1854 12.2755 75.2701 12.2755C75.3253 12.2755 75.3729 12.2865 75.4134 12.3085C75.4543 12.3305 75.4891 12.3617 75.5186 12.402L75.9165 12.8971C75.7656 13.0732 75.5962 13.2217 75.4082 13.3427C75.2201 13.4601 75.0231 13.5554 74.817 13.6288C74.6142 13.6985 74.4062 13.748 74.1925 13.7773C73.9825 13.8067 73.7779 13.8213 73.5789 13.8213C73.1848 13.8213 72.8182 13.7571 72.4793 13.6288C72.1404 13.4968 71.8458 13.3042 71.5954 13.0511C71.3445 12.7944 71.1475 12.479 71.0037 12.105C70.8604 11.7272 70.7886 11.2908 70.7886 10.7957C70.7886 10.4106 70.8509 10.0493 70.9761 9.71196C71.1018 9.3709 71.2803 9.07564 71.5126 8.82626C71.7482 8.57322 72.0338 8.37335 72.3689 8.22665C72.7078 8.07994 73.0891 8.00659 73.5127 8.00659ZM73.5403 8.9803C73.1424 8.9803 72.8311 9.09216 72.6064 9.31588C72.3817 9.5396 72.238 9.8568 72.1756 10.2676H74.7394C74.7394 10.0915 74.7156 9.92649 74.6675 9.77246C74.6199 9.61476 74.5461 9.47724 74.4466 9.35986C74.3472 9.24253 74.222 9.15085 74.0706 9.08483C73.9197 9.01514 73.7431 8.9803 73.5403 8.9803Z" fill="white"/>
</svg>
