<svg width="20" height="21" viewBox="0 0 20 21" fill="none" xmlns="http://www.w3.org/2000/svg">
<rect y="0.5" width="20" height="20" rx="10" fill="#151A1A"/>
<path fill-rule="evenodd" clip-rule="evenodd" d="M4.16669 14.041V6.95924L10 3.41683L14.6212 6.22379L14.0152 6.59152L10 4.15228L4.77275 7.32697V13.6733L10 16.8449L15.2244 13.6733V8.7335L15.8334 8.36581V14.041L10 17.5835L4.16669 14.041ZM7.66307 8.4041V7.4664H10.5798C11.0904 7.46961 11.5793 7.6844 11.9404 8.0641C12.3015 8.44387 12.5057 8.95801 12.5087 9.49499C12.5119 9.90611 12.3927 10.3079 12.1678 10.6441C11.9609 10.9659 11.6693 11.2172 11.3287 11.3673C10.9914 11.4798 10.6394 11.5357 10.2855 11.5328H8.53722V13.6779H7.66307V10.5951H10.5769C10.8526 10.5919 11.1159 10.4747 11.3101 10.2688C11.5042 10.0629 11.6135 9.78499 11.6142 9.49499C11.6158 9.35167 11.5895 9.20945 11.5369 9.07719C11.4842 8.94487 11.4065 8.82537 11.3082 8.72587C11.2132 8.62319 11.0995 8.54176 10.9738 8.48648C10.8481 8.43115 10.7131 8.40313 10.5769 8.4041H7.66307ZM10.6803 12.1608L11.467 13.6044H12.4869L11.5923 11.9646C11.2986 12.0746 10.9915 12.1407 10.6803 12.1608ZM14.6165 7.70308V6.95833L15.2198 6.59056L15.8231 6.95833V7.70308L15.2198 8.0555L14.6165 7.70308Z" fill="url(#paint0_linear_416_2710)"/>
<defs>
<linearGradient id="paint0_linear_416_2710" x1="15.8604" y1="7.0565" x2="3.32241" y2="11.8246" gradientUnits="userSpaceOnUse">
<stop stop-color="#C200FB"/>
<stop offset="0.489658" stop-color="#3772FF"/>
<stop offset="0.489758" stop-color="#3773FE"/>
<stop offset="1" stop-color="#5AC4BE"/>
</linearGradient>
</defs>
</svg>
