<svg width="150" height="81" viewBox="0 0 150 81" fill="none" xmlns="http://www.w3.org/2000/svg">
<g clip-path="url(#clip0_67_1205)">
<path fill-rule="evenodd" clip-rule="evenodd" d="M34.9029 20.6196C28.4854 20.6196 23.2829 25.8721 23.2829 32.3513V49.1108C23.2829 55.59 28.4854 60.8425 34.9029 60.8425H51.5028C57.9203 60.8425 63.1227 55.59 63.1227 49.1108V32.3513C63.1227 25.8721 57.9203 20.6196 51.5028 20.6196H34.9029ZM44.7251 32.3513L38.9002 48.2728H40.6108L46.4349 32.3513H44.7251Z" fill="white"/>
<path fill-rule="evenodd" clip-rule="evenodd" d="M10.833 20.6196C4.87366 20.6196 0.0430908 25.4966 0.0430908 31.5133V49.9488C0.0430908 55.9654 4.87366 60.8425 10.833 60.8425C16.7924 60.8425 21.623 55.9654 21.623 49.9488V31.5133C21.623 25.4966 16.7924 20.6196 10.833 20.6196ZM9.79553 43.6631V45.7581H11.8705V43.6631H9.79553Z" fill="white"/>
<path d="M108.322 40.9891C108.322 42.7958 107.555 44.5287 105.546 44.5287C103.538 44.5287 102.771 42.7958 102.771 40.9891C102.771 39.2009 103.538 37.4864 105.546 37.4864C107.555 37.4864 108.322 39.2009 108.322 40.9891Z" fill="white"/>
<path d="M97.863 40.1964H92.6589C92.878 38.6847 93.6997 37.468 95.3614 37.468C96.877 37.468 97.7352 38.3344 97.863 40.1964Z" fill="white"/>
<path fill-rule="evenodd" clip-rule="evenodd" d="M83.4236 20.6196C73.1283 20.6196 64.7827 29.6237 64.7827 40.731C64.7827 51.8384 73.1283 60.8425 83.4236 60.8425H130.801C141.097 60.8425 149.442 51.8384 149.442 40.731C149.442 29.6237 141.097 20.6196 130.801 20.6196H83.4236ZM124.595 36.3618H122.97V45.6533H124.595V40.2886C124.595 38.6478 125.764 37.4864 127.207 37.4864C128.54 37.4864 129.453 38.3344 129.453 39.9568V45.6533H131.059V39.8646C131.059 37.3942 129.672 36.1222 127.681 36.1222C126.367 36.1222 125.18 36.7305 124.595 37.7629V36.3618ZM112.56 36.3618H111.026L112.724 45.6533H114.55L116.12 40.8232L117.672 45.6533H119.498L121.197 36.3618H119.663L118.439 43.9757L116.869 38.9797H115.353L113.765 44.031L112.56 36.3618ZM101.109 41.0076C101.109 43.7913 102.752 45.893 105.546 45.893C108.34 45.893 109.983 43.7913 109.983 41.0076C109.983 38.2423 108.34 36.1222 105.546 36.1222C102.752 36.1222 101.109 38.2423 101.109 41.0076ZM90.9607 41.0076C90.9607 43.8098 92.6589 45.893 95.3614 45.893C97.5708 45.893 99.0134 44.4734 99.269 42.9249H97.6621C97.3882 43.7913 96.5848 44.5472 95.3614 44.5472C93.5354 44.5472 92.7502 43.1461 92.6224 41.4316H99.4333C99.6525 37.4311 97.6439 36.1222 95.3614 36.1222C92.6589 36.1222 90.9607 38.2238 90.9607 41.0076ZM83.1654 36.3618V45.6533H84.8271V40.7495C84.8271 38.8875 85.8679 37.9289 87.3287 37.9289H89.666V36.3618H87.4565C86.4157 36.3618 85.4114 36.8965 84.8271 37.9289V36.3618H83.1654Z" fill="white"/>
</g>
<defs>
<clipPath id="clip0_67_1205">
<rect width="149.399" height="80.4457" fill="white" transform="translate(0.0430908 0.508301)"/>
</clipPath>
</defs>
</svg>
