<svg width="91" height="48" viewBox="0 0 91 48" fill="none" xmlns="http://www.w3.org/2000/svg">
<g clip-path="url(#clip0_3247_95351)">
<path fill-rule="evenodd" clip-rule="evenodd" d="M21.7512 12C17.922 12 14.8178 15.134 14.8178 19V29C14.8178 32.866 17.922 36 21.7512 36H31.6559C35.4851 36 38.5893 32.866 38.5893 29V19C38.5893 15.134 35.4851 12 31.6559 12H21.7512ZM27.6118 19L24.1363 28.5H25.1569L28.632 19H27.6118Z" fill="#778A96"/>
<path fill-rule="evenodd" clip-rule="evenodd" d="M7.38927 12C3.83346 12 0.951172 14.91 0.951172 18.5V29.5C0.951172 33.09 3.83346 36 7.38927 36C10.9451 36 13.8274 33.09 13.8274 29.5V18.5C13.8274 14.91 10.9451 12 7.38927 12ZM6.77022 25.7495V26.9995H8.00832V25.7495H6.77022Z" fill="#778A96"/>
<path d="M65.5585 24.154C65.5585 25.232 65.1009 26.266 63.9024 26.266C62.7039 26.266 62.2463 25.232 62.2463 24.154C62.2463 23.087 62.7039 22.064 63.9024 22.064C65.1009 22.064 65.5585 23.087 65.5585 24.154Z" fill="#778A96"/>
<path d="M59.318 23.681H56.2128C56.3436 22.779 56.8338 22.053 57.8253 22.053C58.7296 22.053 59.2417 22.57 59.318 23.681Z" fill="#778A96"/>
<path fill-rule="evenodd" clip-rule="evenodd" d="M50.7023 12C44.5594 12 39.5797 17.3725 39.5797 24C39.5797 30.6275 44.5594 36 50.7023 36H78.9715C85.1144 36 90.094 30.6275 90.094 24C90.094 17.3725 85.1144 12 78.9715 12H50.7023ZM75.2686 21.393H74.2989V26.937H75.2686V23.736C75.2686 22.757 75.9659 22.064 76.8266 22.064C77.622 22.064 78.1667 22.57 78.1667 23.538V26.937H79.1255V23.483C79.1255 22.009 78.2975 21.25 77.1099 21.25C76.3254 21.25 75.6172 21.613 75.2686 22.229V21.393ZM68.0871 21.393H67.1719L68.1852 26.937H69.2747L70.2117 24.055L71.1378 26.937H72.2273L73.2406 21.393H72.3254L71.5954 25.936L70.6584 22.955H69.7541L68.8062 25.969L68.0871 21.393ZM61.2548 24.165C61.2548 25.826 62.2354 27.08 63.9024 27.08C65.5693 27.08 66.5499 25.826 66.5499 24.165C66.5499 22.515 65.5693 21.25 63.9024 21.25C62.2354 21.25 61.2548 22.515 61.2548 24.165ZM55.1996 24.165C55.1996 25.837 56.2128 27.08 57.8253 27.08C59.1436 27.08 60.0044 26.233 60.1569 25.309H59.1981C59.0347 25.826 58.5553 26.277 57.8253 26.277C56.7358 26.277 56.2673 25.441 56.191 24.418H60.255C60.3857 22.031 59.1872 21.25 57.8253 21.25C56.2128 21.25 55.1996 22.504 55.1996 24.165ZM50.5483 21.393V26.937H51.5398V24.011C51.5398 22.9 52.1608 22.328 53.0324 22.328H54.427V21.393H53.1087C52.4876 21.393 51.8884 21.712 51.5398 22.328V21.393H50.5483Z" fill="#778A96"/>
</g>
<defs>
<clipPath id="clip0_3247_95351">
<rect width="89.1429" height="48" fill="white" transform="translate(0.951172)"/>
</clipPath>
</defs>
</svg>
