<svg width="68" height="13" viewBox="0 0 68 13" fill="none" xmlns="http://www.w3.org/2000/svg">
<path d="M7.85373 2.68011C7.85373 1.18561 6.59101 0.0998543 4.9067 0.0998543H0.629395V9.6052H2.25894V5.92461H5.17859C5.8848 5.92461 6.08918 6.12895 6.08918 6.83516V9.6052H7.71871V6.42824C7.71871 5.53227 7.31179 5.08338 6.27895 5.08338C7.31179 4.74397 7.85373 3.88812 7.85373 2.68011ZM4.49978 4.48665H2.25894V1.55239H4.49978C5.62748 1.55239 6.22421 2.02684 6.22421 2.96478C6.22421 3.90272 5.62748 4.48665 4.49978 4.48665Z" fill="white"/>
<path d="M12.2007 2.68041C10.2592 2.68041 8.87414 4.14754 8.87414 6.2114C8.87414 8.27524 10.2592 9.74235 12.2007 9.74235C14.1423 9.74235 15.5419 8.27524 15.5419 6.2114C15.5419 4.14754 14.1569 2.68041 12.2007 2.68041ZM12.2683 8.465H12.146C11.1406 8.465 10.4343 7.63654 10.4343 6.2114C10.4343 4.78621 11.1406 3.95776 12.146 3.95776H12.2683C13.2737 3.95776 13.9653 4.78621 13.9653 6.2114C13.9653 7.63654 13.2719 8.465 12.2683 8.465Z" fill="white"/>
<path d="M19.4379 3.95776H19.5328C20.2938 3.95776 20.7554 4.43219 20.8631 5.1384H22.4251C22.2901 3.53624 21.1623 2.68041 19.4926 2.68041C17.5365 2.68041 16.2336 4.12017 16.2336 6.2114C16.2336 8.30259 17.5365 9.74235 19.4926 9.74235C21.1623 9.74235 22.2901 8.88654 22.4251 7.28437H20.8631C20.7536 7.99057 20.2919 8.465 19.5328 8.465H19.4379C18.2974 8.465 17.7938 7.41939 17.7938 6.2114C17.7938 5.00337 18.2956 3.95776 19.4379 3.95776Z" fill="white"/>
<path d="M29.6909 2.81514H27.7219L25.0322 5.53227V0.0998535H23.472V9.6052H25.0322V7.47385L25.888 6.618L27.9519 9.6052H29.8259L26.9883 5.51765L29.6909 2.81514Z" fill="white"/>
<path d="M35.5574 5.17856C35.5574 3.68405 34.4844 2.68041 32.7472 2.68041C31.1176 2.68041 30.0173 3.60375 29.9097 4.8665H31.4717C31.5264 4.3501 32.0155 3.95594 32.707 3.95594H32.7892C33.5501 3.95594 34.0246 4.45778 34.0246 5.21868V5.40849L32.2454 5.55809C31.01 5.65299 29.7746 6.23695 29.7746 7.74422C29.7746 8.92486 30.7527 9.74054 32.0027 9.74054C32.9662 9.74054 33.7271 9.26607 34.0811 8.66754C34.0939 8.87192 34.1085 9.3464 34.1632 9.60367H35.6304C35.5628 9.12924 35.5628 8.51794 35.5628 8.10917V5.17671L35.5574 5.17856ZM34.0227 6.9705C34.0227 7.82631 33.1815 8.465 32.3658 8.465H32.2709C31.7144 8.465 31.3074 8.1256 31.3074 7.64932C31.3074 7.0654 31.864 6.76612 32.4625 6.71318L34.0246 6.57816V6.97231L34.0227 6.9705Z" fill="white"/>
<path d="M43.4614 7.99012L42.1183 2.815H40.4614L39.1841 8.01747L37.7716 2.815H36.1823L38.2607 9.60507H40.0125L41.3026 4.62155L42.6201 9.60507H44.3571L46.3682 2.815H44.8209L43.4614 7.99012Z" fill="white"/>
<path d="M52.3565 5.17856C52.3565 3.68405 51.2836 2.68041 49.5447 2.68041C47.9151 2.68041 46.8149 3.60375 46.7069 4.8665H48.2689C48.3239 4.3501 48.8129 3.95594 49.5044 3.95594H49.5863C50.3476 3.95594 50.8219 4.45778 50.8219 5.21868V5.40849L49.0427 5.55809C47.8072 5.65299 46.572 6.23695 46.572 7.74422C46.572 8.92486 47.5501 9.74054 48.7999 9.74054C49.7636 9.74054 50.5244 9.26607 50.8786 8.66754C50.8912 8.87192 50.9059 9.3464 50.9605 9.60367H52.4275C52.3603 9.12924 52.3603 8.51794 52.3603 8.10917V5.17671L52.3565 5.17856ZM50.8219 6.9705C50.8219 7.82631 49.9808 8.465 49.165 8.465H49.07C48.5134 8.465 48.1067 8.1256 48.1067 7.64932C48.1067 7.0654 48.6633 6.76612 49.2616 6.71318L50.8236 6.57816V6.97231L50.8219 6.9705Z" fill="white"/>
<path d="M58.4283 2.815L56.5412 7.32408L54.5999 2.815H52.8753L55.7951 9.26566V10.2291C55.7951 10.7455 55.6598 10.8806 55.1288 10.8806H53.2824V12.2528H55.6581C56.7164 12.2528 57.2751 11.6963 57.2751 10.6233V9.19811L60.1273 2.815H58.4283Z" fill="white"/>
<path d="M64.9022 5.2974H62.534L59.5151 9.67303H61.3144L63.6826 6.24685L66.0117 9.67303H67.8766L64.9022 5.2974Z" fill="white"/>
<path d="M62.4962 4.47548H64.8644L67.8833 0.0998535L66.084 0.0998537L63.7158 3.52602L61.3867 0.0998541L59.5214 0.0998542L62.4962 4.47548Z" fill="white"/>
</svg>
