<svg width="96" height="18" viewBox="0 0 96 18" fill="none" xmlns="http://www.w3.org/2000/svg">
<path d="M10.8579 3.83152C10.8579 1.71684 9.07122 0.180543 6.68798 0.180543H0.635742V13.6303H2.94149V8.42237H7.0727C8.07196 8.42237 8.36116 8.71151 8.36116 9.71077V13.6303H10.6669V9.13499C10.6669 7.86722 10.0911 7.23206 8.62967 7.23206C10.0911 6.75181 10.8579 5.54082 10.8579 3.83152ZM6.1122 6.38771H2.94149V2.23583H6.1122C7.70787 2.23583 8.55221 2.90716 8.55221 4.23432C8.55221 5.56147 7.70787 6.38771 6.1122 6.38771Z" fill="#151A1A"/>
<path d="M17.0088 3.83194C14.2615 3.83194 12.3018 5.90788 12.3018 8.82817C12.3018 11.7484 14.2615 13.8243 17.0088 13.8243C19.7561 13.8243 21.7365 11.7484 21.7365 8.82817C21.7365 5.90788 19.7767 3.83194 17.0088 3.83194ZM17.1043 12.0169H16.9313C15.5087 12.0169 14.5094 10.8447 14.5094 8.82817C14.5094 6.81158 15.5087 5.63935 16.9313 5.63935H17.1043C18.527 5.63935 19.5056 6.81158 19.5056 8.82817C19.5056 10.8447 18.5245 12.0169 17.1043 12.0169Z" fill="#151A1A"/>
<path d="M27.2491 5.63936H27.3834C28.4601 5.63936 29.1134 6.31065 29.2657 7.30991H31.4759C31.2849 5.04291 29.6891 3.83194 27.3266 3.83194C24.5587 3.83194 22.7151 5.86915 22.7151 8.82818C22.7151 11.7871 24.5587 13.8244 27.3266 13.8244C29.6891 13.8244 31.2849 12.6134 31.4759 10.3464H29.2657C29.1108 11.3456 28.4575 12.0169 27.3834 12.0169H27.2491C25.6354 12.0169 24.9228 10.5374 24.9228 8.82818C24.9228 7.11886 25.6328 5.63936 27.2491 5.63936Z" fill="#151A1A"/>
<path d="M41.7567 4.02259H38.9708L35.1648 7.86722V0.180542H32.9572V13.6303H35.1648V10.6145L36.3758 9.4035L39.2961 13.6303H41.9478L37.9327 7.84654L41.7567 4.02259Z" fill="#151A1A"/>
<path d="M50.0576 7.36674C50.0576 5.25205 48.5394 3.83194 46.0814 3.83194C43.7756 3.83194 42.2187 5.13844 42.0663 6.92519H44.2765C44.354 6.1945 45.046 5.63678 46.0245 5.63678H46.1407C47.2175 5.63678 47.8888 6.34686 47.8888 7.42351V7.69208L45.3713 7.90376C43.6233 8.03804 41.8753 8.86432 41.8753 10.9971C41.8753 12.6676 43.2592 13.8218 45.0279 13.8218C46.3912 13.8218 47.4679 13.1504 47.9688 12.3035C47.9869 12.5927 48.0075 13.2641 48.085 13.6281H50.161C50.0654 12.9568 50.0654 12.0918 50.0654 11.5135V7.36412L50.0576 7.36674ZM47.8862 9.90228C47.8862 11.1132 46.6959 12.0169 45.5417 12.0169H45.4074C44.6199 12.0169 44.0441 11.5367 44.0441 10.8628C44.0441 10.0366 44.8317 9.61308 45.6786 9.53818L47.8888 9.34713V9.90483L47.8862 9.90228Z" fill="#151A1A"/>
<path d="M61.2416 11.345L59.3411 4.02238H56.9967L55.1893 11.3837L53.1907 4.02238H50.9418L53.8827 13.6301H56.3615L58.187 6.57858L60.0512 13.6301H62.509L65.3546 4.02238H63.1653L61.2416 11.345Z" fill="#151A1A"/>
<path d="M73.8279 7.36674C73.8279 5.25205 72.3097 3.83194 69.8493 3.83194C67.5434 3.83194 65.9866 5.13844 65.8338 6.92519H68.044C68.1218 6.1945 68.8138 5.63678 69.7922 5.63678H69.9081C70.9853 5.63678 71.6564 6.34686 71.6564 7.42351V7.69208L69.1389 7.90376C67.3907 8.03804 65.643 8.86432 65.643 10.9971C65.643 12.6676 67.0269 13.8218 68.7953 13.8218C70.159 13.8218 71.2355 13.1504 71.7366 12.3035C71.7545 12.5927 71.7753 13.2641 71.8526 13.6281H73.9284C73.8332 12.9568 73.8332 12.0918 73.8332 11.5135V7.36412L73.8279 7.36674ZM71.6564 9.90228C71.6564 11.1132 70.4663 12.0169 69.3119 12.0169H69.1776C68.3899 12.0169 67.8145 11.5367 67.8145 10.8628C67.8145 10.0366 68.6021 9.61308 69.4486 9.53818L71.6588 9.34713V9.90483L71.6564 9.90228Z" fill="#151A1A"/>
<path d="M82.4193 4.02238L79.7491 10.4026L77.0021 4.02238H74.562L78.6933 13.1498V14.5131C78.6933 15.2438 78.5019 15.4349 77.7505 15.4349H75.138V17.3766H78.4995C79.9969 17.3766 80.7876 16.5891 80.7876 15.0709V13.0543L84.8232 4.02238H82.4193Z" fill="#151A1A"/>
<path d="M91.5795 7.5349H88.2287L83.957 13.7263H86.503L89.8539 8.87834L93.1495 13.7263H95.7882L91.5795 7.5349Z" fill="#151A1A"/>
<path d="M88.1752 6.3719H91.5261L95.7977 0.180542L93.2517 0.180542L89.9009 5.02846L86.6053 0.180543L83.9659 0.180543L88.1752 6.3719Z" fill="#151A1A"/>
</svg>
