<svg width="80" height="48" viewBox="0 0 80 48" fill="none" xmlns="http://www.w3.org/2000/svg">
<g clip-path="url(#clip0_3391_196717)">
<g clip-path="url(#clip1_3391_196717)">
<mask id="mask0_3391_196717" style="mask-type:luminance" maskUnits="userSpaceOnUse" x="0" y="7" width="79" height="34">
<path d="M78.5013 7.5H0.375V40.0547H78.5013V7.5Z" fill="white"/>
</mask>
<g mask="url(#mask0_3391_196717)">
<path d="M78.5006 12.2822V16.2757H77.4159V14.0527L76.2963 15.1188H76.1873L75.0677 14.0527V16.2757H73.983V12.2822H74.4168H75.0677L76.26 13.5831L77.4164 12.2822H78.0673H78.5006ZM69.0684 13.3664H70.3329V16.2757H71.4171V13.3664H72.6826V12.2822H69.0684V13.3664Z" fill="#778A96"/>
<path d="M27.5751 19.8893H20.4921C18.5226 19.8893 17.3298 20.7928 16.9319 22.5819C16.8779 22.8531 16.8415 23.1061 16.8415 23.3405V31.3642C16.8415 32.9726 17.4556 34.1109 18.6484 34.7618C19.1539 35.033 19.8952 35.1774 20.8709 35.1774H31.0617V31.4905H21.3764C20.8881 31.4905 20.6356 31.0749 20.6356 30.4063V29.015H31.0803V28.7802V25.726V23.4313C31.0803 23.1601 31.0803 22.9612 31.0617 22.8168C30.7914 20.8645 29.635 19.8893 27.5751 19.8893ZM27.2863 25.726H20.637V24.5155C20.637 24.3348 20.6738 24.2085 20.7274 24.1181C20.9264 23.7384 21.3051 23.5576 21.8303 23.5576H26.4015C26.4737 23.5576 26.5459 23.5758 26.6009 23.5758C26.9802 23.6661 27.2872 23.8288 27.2872 24.1363V25.726H27.2863ZM4.3087 23.6049H12.1584V19.8668H3.60374C1.83514 19.8668 0.375 21.2624 0.375 23.0081V26.2904C0.375 28.036 1.83514 29.4316 3.60374 29.4316H8.63217C8.73978 29.4316 8.779 29.5043 8.779 29.5464V31.4312C8.779 31.4733 8.74026 31.546 8.63217 31.546H0.375963V35.2711H9.36439C11.1273 35.2711 12.5931 33.8942 12.5931 32.1562V28.8476C12.5931 27.1096 11.1282 25.7327 9.36439 25.7327H4.30918C4.29579 25.7327 4.26948 25.727 4.2403 25.6954C4.21065 25.6638 4.18961 25.6179 4.18961 25.5653V23.7331C4.18961 23.6881 4.20587 23.6571 4.225 23.6379C4.24317 23.6188 4.27044 23.6049 4.3087 23.6049ZM67.949 21.624V19.094C67.949 17.124 66.3406 15.5156 64.3711 15.5156H53.1143V19.1839H63.4136C63.9191 19.1839 64.3171 19.5636 64.3171 20.0873V21.5149C64.3171 22.6173 63.3954 23.5571 62.2935 23.5571H57.1073V27.1708H62.2935C63.4131 27.1708 64.3171 28.0743 64.3171 29.1767V30.6401C64.3171 31.1285 63.9196 31.5254 63.4136 31.5254H53.1143V35.1755H64.3711C66.3406 35.1755 67.949 33.5853 67.949 31.6335V29.0676C67.949 27.0795 66.3764 25.5256 64.3711 25.5256V25.2004C66.341 25.2023 67.949 23.5939 67.949 21.624ZM35.3306 23.3768V31.3642C35.3306 33.9119 36.6315 35.1769 39.2332 35.1769H48.8649V31.5264H40.1013C39.523 31.5264 39.0534 31.0562 39.0534 30.4967V24.5696C39.0534 23.9555 39.5412 23.5576 40.1917 23.5576H48.8649V19.8893H38.4388C36.3598 19.8898 35.3306 21.0462 35.3306 23.3768Z" fill="#778A96"/>
</g>
</g>
</g>
<defs>
<clipPath id="clip0_3391_196717">
<rect width="78.75" height="48" fill="white" transform="translate(0.375)"/>
</clipPath>
<clipPath id="clip1_3391_196717">
<rect width="78.4348" height="33" fill="white" transform="translate(0.375 7.5)"/>
</clipPath>
</defs>
</svg>
