<svg width="119" height="28" viewBox="0 0 119 28" fill="none" xmlns="http://www.w3.org/2000/svg">
<g clip-path="url(#clip0_670_3938)">
<path d="M13.4559 0.126617H31.6329L28.6432 5.66089H10.4663L13.4559 0.126617Z" fill="#151A1A"/>
<path d="M10.3469 22.2641H25.6537L22.6641 27.7984H7.35718L10.3469 22.2641Z" fill="#151A1A"/>
<path d="M7.55725 11.195H31.633L28.6824 16.7293H4.60669L7.55725 11.195Z" fill="#151A1A"/>
<path d="M3.88934 5.6607L10.4665 5.66057L7.47682 11.195H0.899658L3.88934 5.6607Z" fill="#151A1A"/>
<path d="M28.643 16.7295H34.5026L31.5131 22.2639L25.6533 22.264L28.643 16.7295Z" fill="#151A1A"/>
<path d="M53.4758 16.6134V20.2218L50.9078 21.705H45.1521V19.779H51.3285V17.0562H47.7201L45.1521 15.5729V12.1194L47.7201 10.6363H53.2545V12.5622H47.2994V15.1302H50.9078L53.4758 16.6134ZM66.4292 20.3325L63.8613 21.8156H59.5887L57.0207 20.3325V12.0088L59.5887 10.5256H63.8613L66.4292 12.0088V20.3325ZM59.168 12.4516V19.8898H64.2818V12.4516H59.168ZM72.5382 21.705L69.9702 20.2218V5.54468H72.1177V19.779H74.7741V21.705H72.5382ZM78.701 17.1668V19.8898H83.1506V17.1668H78.701ZM79.1215 21.8156L76.5535 20.3325V16.724L79.1215 15.2409H83.1506V12.5622H77.6605V10.6363H82.7299L85.2979 12.1194V21.8156H84.7224L83.1506 20.9081L81.5788 21.8156H79.1215ZM89.8616 26.1325L91.7876 21.1958L87.5152 10.6363H89.6625L92.8059 18.5172H92.8503L95.9717 10.6363H98.119L91.9648 26.1325H89.8616ZM109.067 19.779V21.705H102.891L100.323 20.2218V12.0088L102.891 10.5256H106.499L109.067 12.0088V16.9233H102.47V19.779H109.067ZM102.47 12.4516V14.9974H106.92V12.4516H102.47ZM118.778 12.5622H114.749V21.705H112.603V10.6363H114.218L114.749 11.5439L116.322 10.6363H118.778V12.5622Z" fill="#151A1A"/>
</g>
<defs>
<clipPath id="clip0_670_3938">
<rect width="118.012" height="27.901" fill="white" transform="translate(0.822021 0.00244141)"/>
</clipPath>
</defs>
</svg>
