<svg width="84" height="20" viewBox="0 0 84 20" fill="none" xmlns="http://www.w3.org/2000/svg">
<g clip-path="url(#clip0_649_3897)">
<path d="M9.16603 0.114746H22.0123L19.8994 4.02599H7.05322L9.16603 0.114746Z" fill="white"/>
<path d="M6.96886 15.7598H17.7867L15.6739 19.671H4.85596L6.96886 15.7598Z" fill="white"/>
<path d="M4.99736 7.93701H22.0124L19.9272 11.8483H2.91211L4.99736 7.93701Z" fill="white"/>
<path d="M2.40489 4.02573L7.05317 4.02563L4.94027 7.93697H0.291992L2.40489 4.02573Z" fill="white"/>
<path d="M19.8995 11.8484H24.0407L21.9279 15.7597L17.7866 15.7598L19.8995 11.8484Z" fill="white"/>
<path d="M37.449 11.7664V14.3166L35.6342 15.3648H31.5664V14.0037H35.9315V12.0794H33.3813L31.5664 11.0311V8.59043L33.3813 7.54224H37.2926V8.90338H33.084V10.7182H35.6342L37.449 11.7664ZM46.6036 14.3948L44.7887 15.443H41.7692L39.9543 14.3948V8.51222L41.7692 7.46402H44.7887L46.6036 8.51222V14.3948ZM41.4719 8.82517V14.082H45.0859V8.82517H41.4719ZM50.921 15.3648L49.1061 14.3166V3.94385H50.6238V14.0037H52.5012V15.3648H50.921ZM55.2764 12.1576V14.082H58.4211V12.1576H55.2764ZM55.5736 15.443L53.7588 14.3948V11.8446L55.5736 10.7964H58.4211V8.90338H54.5411V7.54224H58.1238L59.9387 8.59043V15.443H59.5319L58.4211 14.8017L57.3103 15.443H55.5736ZM63.164 18.4939L64.5252 15.005L61.5057 7.54224H63.0232L65.2448 13.1119H65.2762L67.4822 7.54224H68.9997L64.6504 18.4939H63.164ZM76.7371 14.0037V15.3648H72.3721L70.5573 14.3166V8.51222L72.3721 7.46402H74.9223L76.7371 8.51222V11.9855H72.0749V14.0037H76.7371ZM72.0749 8.82517V10.6244H75.2196V8.82517H72.0749ZM83.6003 8.90338H80.7529V15.3648H79.2358V7.54224H80.3774L80.7529 8.1837L81.8643 7.54224H83.6003V8.90338Z" fill="white"/>
</g>
<defs>
<clipPath id="clip0_649_3897">
<rect width="83.4026" height="19.7185" fill="white" transform="translate(0.237305 0.0268555)"/>
</clipPath>
</defs>
</svg>
