<svg width="151" height="48" viewBox="0 0 151 48" fill="none" xmlns="http://www.w3.org/2000/svg">
<path d="M121.255 26.9107V20.9896C123.266 21.1719 125.029 21.8398 126.081 22.5989V24.7851L121.317 28.0947C121.286 27.6999 121.255 27.3052 121.255 26.9107ZM116.12 28.3072C116.12 34.0157 119.646 36.9912 123.606 36.9912C126.05 36.9912 127.566 35.8981 131 32.5583V30.4327C129.917 31.5258 128.834 32.4063 127.566 33.2869C124.72 33.1655 122.771 32.0117 121.843 29.9773L131 23.5706V19.7144C128.989 18.1961 126.36 17.1637 123.73 17.1637C121.905 18.3783 119.863 20.3521 118.316 22.0524C116.676 23.8438 116.12 25.3924 116.12 28.3072ZM93.041 29.279L98.1455 25.7264V33.1046H97.0936C94.526 33.1046 93.1338 31.7384 93.041 29.279ZM88.5242 24.3904H92.9171V20.8683C95.5467 20.686 97.1865 21.6273 98.1455 22.9025V23.4795L88.6789 30.0986C87.8436 34.1977 90.6279 36.9912 93.4122 36.9912C94.8971 36.9912 96.6605 36.1715 97.8362 34.4712H98.1455V36.6876H104.178C103.467 36.05 103.064 35.4427 103.064 32.2544L103.033 21.0199C101.58 18.1355 98.5785 17.1638 97.0936 17.1638C95.4541 17.1638 91.6798 19.9269 90.3494 20.8683C88.8645 21.9309 88.5242 23.024 88.5242 24.3904ZM80.9449 15.919H81.0686C81.842 15.919 82.3988 16.4048 82.3988 18.0747V31.9813C82.3988 35.1998 81.9966 35.9285 81.2851 36.6876H88.4315C87.7198 35.9285 87.3178 35.1998 87.3178 31.9813V11.2732H86.9465L80.9449 15.919ZM68.694 23.7527H72.1589V31.9813C72.1589 35.1998 71.7567 35.9285 71.045 36.6876H78.5007C77.6036 35.9285 77.0777 35.1998 77.0777 31.9813V23.7527H80.5426V20.109H76.8612L74.4172 15.5242H78.1296C79.0268 15.5242 79.6146 15.342 80.1404 14.9168L84.8427 11.2732H77.1086L72.1589 15.6456V20.443L68.694 23.7527ZM61.888 15.919H62.0116C62.7851 15.919 63.3419 16.4048 63.3419 18.0747V31.9813C63.3419 35.1998 62.9399 35.9285 62.2283 36.6876H69.3745C68.6631 35.9285 68.2609 35.1998 68.2609 31.9813V11.2732H67.8896L61.888 15.919ZM50.8126 27.0927V20.9896C54.3705 20.8683 57.031 22.7204 57.031 27.0623V33.1655C53.3495 33.2869 50.8126 31.4348 50.8126 27.0927ZM45.6464 28.3072C45.6464 34.5318 49.7607 37.1734 54.5868 36.9912C56.3813 35.7464 58.454 33.7727 60.0008 32.1027C61.6406 30.3112 62.1973 28.7626 62.1973 25.8478C62.1973 19.6233 58.0827 16.9815 53.2566 17.1637C51.4932 18.439 49.3897 20.3823 47.8428 22.0524C46.2031 23.8438 45.6464 25.3924 45.6464 28.3072ZM32.5602 25.028L34.3854 23.2973L37.7884 24.3904C40.0159 25.119 41.1295 26.455 41.1295 28.3376C41.1295 29.7647 40.5728 30.7059 39.459 31.9206L39.1187 32.285L39.2425 31.4348C39.7375 28.3376 38.8094 27.0016 35.7467 26.0299L32.5602 25.028ZM27.9815 14.4311L37.2626 17.4674L35.2516 19.3499L30.4255 17.771C28.755 17.2246 28.198 16.344 27.9816 14.4918L27.9815 14.4311ZM27.4248 29.8557L29.5285 27.8822L33.4884 29.1574C35.5612 29.8255 36.2727 30.7059 36.0561 32.9226L27.4248 29.8557ZM24.7643 21.0503C24.7643 20.4735 25.0736 19.9269 25.5995 19.4715C26.1564 20.2609 27.1153 20.9592 28.6313 21.445L31.9105 22.5077L30.0853 24.2385L26.8679 23.2061C25.3829 22.7203 24.7643 21.9916 24.7643 21.0503ZM20 33.7423L21.3612 35.1695L23.5576 33.1958L34.4783 36.9912C41.2843 32.5583 44.9347 29.5522 44.9347 25.8478C44.9347 23.3883 43.4498 22.022 40.1706 20.9592L37.6958 20.1394L44.4706 13.7631L43.1095 12.336L41.0986 14.0667L31.6012 11C28.6621 11.9411 24.9497 14.7043 24.9497 17.4675C24.9497 17.771 24.9809 18.0748 25.0736 18.4087C22.6296 19.7749 21.6396 21.0503 21.6396 22.6293C21.6396 24.1172 22.444 25.6049 25.0117 26.4246L27.0535 27.0927L20 33.7423ZM105.601 36.6876H113.366C112.283 35.9893 111.634 35.2908 111.634 31.9509V22.113L114.171 22.7507C115.191 22.9936 115.656 22.9025 116.491 22.0524L120.946 17.4675H115.006L111.819 20.7164H111.541L111.015 17.1637H110.644L103.838 23.2061H106.003C106.406 23.2061 106.715 23.5099 106.715 23.9045V31.9509C106.715 35.2908 106.313 35.9893 105.601 36.6876Z" fill="#8CA4A6"/>
</svg>
