<svg width="101" height="32" viewBox="0 0 101 32" fill="none" xmlns="http://www.w3.org/2000/svg">
<path d="M77.9423 18.0151V13.9159C79.1923 14.0421 80.2885 14.5045 80.9423 15.03V16.5435L77.9808 18.8348C77.9615 18.5615 77.9423 18.2882 77.9423 18.0151ZM74.75 18.9819C74.75 22.934 76.9423 24.9939 79.4038 24.9939C80.9231 24.9939 81.8653 24.2372 84 21.925V20.4534C83.3269 21.2102 82.6538 21.8197 81.8653 22.4294C80.0962 22.3454 78.8845 21.5465 78.3077 20.1381L84 15.7027V13.033C82.75 11.9819 81.1154 11.2672 79.4808 11.2672C78.3461 12.108 77.0769 13.4745 76.1154 14.6517C75.0961 15.8918 74.75 16.964 74.75 18.9819ZM60.4039 19.6547L63.5769 17.1952V22.3032H62.9231C61.327 22.3032 60.4615 21.3573 60.4039 19.6547ZM57.5961 16.2703H60.3269V13.8319C61.9615 13.7057 62.9808 14.3574 63.5769 15.2402V15.6397L57.6923 20.2221C57.173 23.06 58.9038 24.9939 60.6346 24.9939C61.5576 24.9939 62.6538 24.4264 63.3847 23.2493H63.5769V24.7837H67.3269C66.8846 24.3423 66.6346 23.9219 66.6346 21.7146L66.6153 13.9368C65.7116 11.9399 63.8461 11.2673 62.9231 11.2673C61.9039 11.2673 59.5577 13.1802 58.7307 13.8319C57.8077 14.5675 57.5961 15.3243 57.5961 16.2703ZM52.8846 10.4055H52.9616C53.4423 10.4055 53.7885 10.7418 53.7885 11.8979V21.5255C53.7885 23.7537 53.5384 24.2582 53.0961 24.7837H57.5385C57.0961 24.2582 56.8462 23.7537 56.8462 21.5255V7.18913H56.6154L52.8846 10.4055ZM45.2692 15.8288H47.4231V21.5255C47.4231 23.7537 47.1731 24.2582 46.7307 24.7837H51.3653C50.8077 24.2582 50.4807 23.7537 50.4807 21.5255V15.8288H52.6346V13.3063H50.3461L48.8269 10.1322H51.1346C51.6923 10.1322 52.0577 10.006 52.3846 9.71166L55.3076 7.18913H50.5L47.4231 10.2162V13.5375L45.2692 15.8288ZM41.0385 10.4055H41.1153C41.5962 10.4055 41.9423 10.7418 41.9423 11.8979V21.5255C41.9423 23.7537 41.6924 24.2582 41.25 24.7837H45.6923C45.2501 24.2582 45 23.7537 45 21.5255V7.18913H44.7692L41.0385 10.4055ZM34.1538 18.1411V13.9159C36.3654 13.8319 38.0193 15.1141 38.0193 18.12V22.3454C35.7308 22.4294 34.1538 21.1472 34.1538 18.1411ZM30.9423 18.9819C30.9423 23.2913 33.4999 25.1201 36.4999 24.9939C37.6154 24.1321 38.9038 22.7657 39.8654 21.6096C40.8847 20.3693 41.2308 19.2972 41.2308 17.2793C41.2308 12.97 38.673 11.141 35.673 11.2672C34.5769 12.1501 33.2693 13.4955 32.3077 14.6517C31.2884 15.8918 30.9423 16.964 30.9423 18.9819ZM22.8077 16.7117L23.9422 15.5135L26.0577 16.2703C27.4423 16.7747 28.1346 17.6996 28.1346 19.003C28.1346 19.9909 27.7885 20.6426 27.0962 21.4835L26.8846 21.7357L26.9616 21.1472C27.2693 19.003 26.6923 18.078 24.7885 17.4053L22.8077 16.7117ZM19.9615 9.37541L25.7308 11.4774L24.4808 12.7807L21.4807 11.6876C20.4423 11.3094 20.0961 10.6997 19.9616 9.41741L19.9615 9.37541ZM19.6154 20.054L20.9231 18.6877L23.3847 19.5705C24.6732 20.033 25.1155 20.6426 24.9808 22.1772L19.6154 20.054ZM17.9616 13.9579C17.9616 13.5586 18.1538 13.1802 18.4808 12.8649C18.8269 13.4114 19.4231 13.8948 20.3654 14.2312L22.4039 14.9669L21.2692 16.1651L19.2692 15.4504C18.3461 15.114 17.9616 14.6096 17.9616 13.9579ZM15 22.7447L15.8461 23.7327L17.2115 22.3663L24 24.9939C28.2308 21.925 30.5 19.8438 30.5 17.2793C30.5 15.5765 29.5769 14.6306 27.5385 13.8948L26.0001 13.3273L30.2115 8.9129L29.3653 7.92493L28.1153 9.12307L22.2116 7C20.3846 7.65155 18.0769 9.56453 18.0769 11.4775C18.0769 11.6876 18.0962 11.8979 18.1538 12.1291C16.6346 13.075 16.0192 13.9579 16.0192 15.0511C16.0192 16.0811 16.5192 17.1111 18.1154 17.6786L19.3846 18.1411L15 22.7447ZM68.2116 24.7837H73.0384C72.3654 24.3003 71.9614 23.8167 71.9614 21.5044V14.6936L73.5384 15.1351C74.1731 15.3032 74.4616 15.2402 74.9808 14.6517L77.75 11.4775H74.0577L72.0769 13.7268H71.9038L71.5769 11.2672H71.3462L67.1154 15.4504H68.4615C68.7115 15.4504 68.9038 15.6607 68.9038 15.9339V21.5044C68.9038 23.8167 68.6538 24.3003 68.2116 24.7837Z" fill="#778A96"/>
</svg>
