<svg width="103" height="30" viewBox="0 0 103 30" fill="none" xmlns="http://www.w3.org/2000/svg">
<g clip-path="url(#clip0_670_3945)">
<path d="M39.4169 19.5631C38.8774 19.3332 38.4507 19.0015 38.1383 18.5679C37.8245 18.1344 37.6634 17.6238 37.6538 17.0333H39.728C39.7555 17.4297 39.8959 17.7435 40.1491 17.9734C40.4024 18.2046 40.7506 18.3188 41.1924 18.3188C41.6342 18.3188 41.999 18.2101 42.2577 17.994C42.5151 17.7779 42.6445 17.4944 42.6445 17.1434C42.6445 16.8585 42.5564 16.6232 42.3816 16.4387C42.2068 16.2543 41.988 16.1098 41.7251 16.0024C41.4622 15.8964 41.1002 15.7794 40.6391 15.6501C40.0129 15.4656 39.5023 15.284 39.1114 15.1037C38.7191 14.9234 38.3833 14.6522 38.1025 14.2875C37.8217 13.9241 37.6813 13.4369 37.6813 12.8285C37.6813 12.2573 37.8245 11.7591 38.1094 11.3352C38.3957 10.9113 38.7962 10.5864 39.3123 10.3607C39.8285 10.135 40.4189 10.0221 41.0823 10.0221C42.0774 10.0221 42.8867 10.2644 43.5088 10.7489C44.1309 11.2333 44.475 11.9078 44.5397 12.7749H42.4105C42.3912 12.4432 42.2508 12.1693 41.9893 11.9518C41.7265 11.7357 41.3782 11.627 40.9447 11.627C40.5662 11.627 40.2648 11.7233 40.039 11.9174C39.8133 12.1115 39.7005 12.3922 39.7005 12.7611C39.7005 13.0198 39.7858 13.2332 39.9565 13.4039C40.1271 13.5745 40.3391 13.7135 40.5923 13.8181C40.8456 13.9241 41.2034 14.0466 41.6645 14.1842C42.2908 14.3687 42.8028 14.5531 43.1992 14.7375C43.5955 14.922 43.9369 15.1986 44.2218 15.5675C44.4929 15.9185 44.6361 16.3727 44.6498 16.9315C44.6567 17.2067 44.6251 17.4848 44.5521 17.7504C44.3333 18.5363 43.8419 19.1254 43.0753 19.5149C42.5591 19.7778 41.9467 19.9085 41.2365 19.9085C40.5634 19.9085 39.9578 19.7929 39.4183 19.5631H39.4169Z" fill="#151A1A"/>
<path d="M48.4753 19.2727C47.7197 18.8488 47.1196 18.2611 46.6778 17.5096C46.2346 16.7581 46.0144 15.9075 46.0144 14.9578C46.0144 14.0081 46.236 13.1713 46.6778 12.4212C47.1196 11.6697 47.7197 11.082 48.4753 10.6581C49.231 10.2342 50.0609 10.0222 50.9638 10.0222C51.8667 10.0222 52.7076 10.2342 53.4591 10.6581C54.2106 11.082 54.8052 11.6697 55.2429 12.4212C55.6806 13.1727 55.8994 14.0178 55.8994 14.9578C55.8994 15.8979 55.6806 16.7581 55.2429 17.5096C54.8052 18.2611 54.2079 18.8488 53.4522 19.2727C52.6966 19.6966 51.8667 19.9086 50.9638 19.9086C50.0609 19.9086 49.231 19.6966 48.4753 19.2727ZM52.4998 17.7862C52.9416 17.5234 53.2885 17.1476 53.5362 16.659C53.7853 16.1704 53.9092 15.6033 53.9092 14.9578C53.9092 14.3123 53.7853 13.748 53.5362 13.2635C53.2871 12.779 52.9416 12.4088 52.4998 12.1501C52.0566 11.8927 51.546 11.7633 50.9652 11.7633C50.3843 11.7633 49.871 11.8927 49.4236 12.1501C48.9763 12.4088 48.6281 12.779 48.3804 13.2635C48.1312 13.748 48.0074 14.3123 48.0074 14.9578C48.0074 15.6033 48.1312 16.1704 48.3804 16.659C48.6295 17.1476 48.9777 17.5234 49.4236 17.7862C49.871 18.0491 50.3843 18.1799 50.9652 18.1799C51.546 18.1799 52.058 18.0477 52.4998 17.7862Z" fill="#151A1A"/>
<path d="M59.2013 18.2776H62.382V19.8123H57.2661V10.1599H59.2027V18.2762L59.2013 18.2776Z" fill="#151A1A"/>
<path d="M65.5073 19.5631C64.9677 19.3333 64.5411 19.0016 64.2286 18.568C63.9148 18.1345 63.7538 17.6238 63.7441 17.0334H65.8183C65.8458 17.4298 65.9862 17.7436 66.2395 17.9734C66.4927 18.2047 66.8409 18.3189 67.2841 18.3189C67.7273 18.3189 68.0907 18.2102 68.3494 17.9941C68.6082 17.778 68.7376 17.4945 68.7376 17.1435C68.7376 16.8586 68.6495 16.6232 68.4747 16.4388C68.2999 16.2544 68.081 16.1098 67.8182 16.0025C67.5553 15.8965 67.1933 15.7795 66.7322 15.6501C66.1046 15.4657 65.5953 15.284 65.2045 15.1037C64.8136 14.9234 64.4764 14.6523 64.1956 14.2875C63.9148 13.9242 63.7744 13.4369 63.7744 12.8286C63.7744 12.2574 63.9176 11.7592 64.2025 11.3352C64.4887 10.9113 64.8893 10.5865 65.4054 10.3608C65.9215 10.1351 66.512 10.0222 67.1754 10.0222C68.1705 10.0222 68.9798 10.2644 69.6019 10.7489C70.224 11.2334 70.5681 11.9078 70.6328 12.7749H68.5036C68.4857 12.4432 68.3453 12.1693 68.0824 11.9519C67.8195 11.7358 67.4713 11.627 67.0391 11.627C66.6606 11.627 66.3592 11.7234 66.1335 11.9174C65.9078 12.1115 65.7949 12.3923 65.7949 12.7612C65.7949 13.0199 65.8802 13.2332 66.0509 13.4039C66.2216 13.5746 66.4335 13.7136 66.6868 13.8182C66.94 13.9242 67.2979 14.0467 67.759 14.1843C68.3852 14.3687 68.8972 14.5532 69.2936 14.7376C69.69 14.922 70.0313 15.1987 70.3163 15.5675C70.5901 15.9226 70.7333 16.3824 70.7443 16.9494C70.7498 17.2233 70.7168 17.5 70.6424 17.7642C70.4209 18.5432 69.9309 19.1268 69.1684 19.5149C68.6522 19.7778 68.0398 19.9086 67.3296 19.9086C66.6565 19.9086 66.0509 19.793 65.5114 19.5631H65.5073Z" fill="#151A1A"/>
<path d="M79.1846 10.1599V11.722H76.6122V19.8109H74.6757V11.722H72.1033V10.1599H79.1833H79.1846Z" fill="#151A1A"/>
<path d="M86.3271 12.4211C86.7551 11.6696 87.3415 11.0846 88.0833 10.6648C88.8252 10.245 89.6579 10.0358 90.5787 10.0358C91.6577 10.0358 92.6019 10.3125 93.414 10.8658C94.2246 11.4191 94.7917 12.1843 95.1151 13.1616H92.8896C92.668 12.7005 92.3569 12.355 91.9564 12.1252C91.5559 11.8953 91.092 11.7797 90.5663 11.7797C90.0033 11.7797 89.5037 11.9118 89.066 12.1733C88.6284 12.4362 88.287 12.8078 88.0434 13.2868C87.7984 13.7658 87.6773 14.3287 87.6773 14.9742C87.6773 15.6197 87.7998 16.1703 88.0434 16.6547C88.287 17.1392 88.6284 17.5122 89.066 17.7751C89.5037 18.038 90.0033 18.1687 90.5663 18.1687C91.092 18.1687 91.5545 18.0518 91.9564 17.8164C92.3569 17.581 92.668 17.2328 92.8896 16.7717H95.1151C94.7917 17.7586 94.2274 18.5252 93.4208 19.0744C92.6143 19.6236 91.6674 19.8974 90.5787 19.8974C89.6565 19.8974 88.8252 19.6882 88.0833 19.2685C87.3415 18.8487 86.7551 18.2665 86.3271 17.5191C85.899 16.7717 85.6843 15.9239 85.6843 14.9742C85.6843 14.0245 85.899 13.1739 86.3271 12.4238V12.4211Z" fill="#151A1A"/>
<path d="M98.6089 11.722V14.1416H101.858V15.6762H98.6089V18.2349H102.273V19.8108H96.6724V10.1447H102.273V11.7206H98.6089V11.722Z" fill="#151A1A"/>
<path d="M81.1057 19.778H79.1843L83.3726 10.1462H85.294L81.1057 19.778Z" fill="#151A1A"/>
<path d="M22.4717 1.79544L10.6089 28.9634C17.8926 31.5468 26.0406 28.0908 29.1801 20.8979C32.3209 13.7051 29.3163 5.38086 22.4703 1.79407L22.4717 1.79544ZM15.2913 22.9335L21.2 9.29522C21.6776 9.77144 22.0891 10.3027 22.4277 10.8753L17.2828 22.7491C16.6332 22.8923 15.9643 22.9556 15.2913 22.9335ZM22.8819 18.148C22.1565 19.8092 20.9329 21.0989 19.463 21.9205L23.3044 12.9962C23.7242 14.6548 23.6196 16.4592 22.8819 18.148Z" fill="#151A1A"/>
<path d="M8.2427 11.7572C9.88607 7.99426 14.0785 6.13617 17.9102 7.32122L20.6712 0.998227C13.3476 -1.69118 5.10598 1.76211 1.94311 9.00588C-1.21976 16.2497 1.85089 24.6427 8.8015 28.1854L11.5625 21.8624C8.08855 19.8571 6.60208 15.5188 8.24408 11.7558L8.2427 11.7572Z" fill="#151A1A"/>
</g>
<defs>
<clipPath id="clip0_670_3945">
<rect width="101.575" height="29.728" fill="white" transform="translate(0.697266 0.0889587)"/>
</clipPath>
</defs>
</svg>
