<svg width="73" height="22" viewBox="0 0 73 22" fill="none" xmlns="http://www.w3.org/2000/svg">
<g clip-path="url(#clip0_649_3904)">
<path d="M28.1689 14.5087C27.7876 14.3463 27.4861 14.1119 27.2652 13.8055C27.0435 13.499 26.9297 13.1382 26.9229 12.7209H28.3887C28.4082 13.001 28.5074 13.2228 28.6864 13.3852C28.8654 13.5487 29.1115 13.6294 29.4237 13.6294C29.7359 13.6294 29.9937 13.5525 30.1766 13.3998C30.3585 13.2471 30.4499 13.0467 30.4499 12.7987C30.4499 12.5973 30.3877 12.431 30.2641 12.3007C30.1406 12.1703 29.9859 12.0682 29.8001 11.9923C29.6144 11.9174 29.3585 11.8347 29.0327 11.7433C28.5901 11.613 28.2292 11.4846 27.953 11.3571C27.6757 11.2297 27.4384 11.0381 27.24 10.7803C27.0415 10.5235 26.9423 10.1792 26.9423 9.74923C26.9423 9.34556 27.0435 8.99344 27.2448 8.69384C27.4471 8.39424 27.7302 8.16468 28.095 8.00516C28.4597 7.84563 28.877 7.76587 29.3459 7.76587C30.0492 7.76587 30.6211 7.93707 31.0608 8.27946C31.5004 8.62186 31.7436 9.09849 31.7893 9.7113H30.2846C30.2709 9.47687 30.1717 9.2833 29.9869 9.12962C29.8011 8.9769 29.555 8.90005 29.2486 8.90005C28.9811 8.90005 28.7681 8.96814 28.6086 9.1053C28.449 9.24245 28.3693 9.44088 28.3693 9.70157C28.3693 9.88444 28.4296 10.0352 28.5502 10.1558C28.6708 10.2764 28.8206 10.3747 28.9996 10.4486C29.1786 10.5235 29.4315 10.6101 29.7573 10.7074C30.1999 10.8377 30.5618 10.968 30.8419 11.0984C31.1221 11.2287 31.3633 11.4242 31.5646 11.6849C31.7563 11.933 31.8574 12.254 31.8672 12.6489C31.872 12.8434 31.8497 13.0399 31.7981 13.2277C31.6434 13.7831 31.2962 14.1994 30.7544 14.4747C30.3896 14.6605 29.9567 14.7529 29.4548 14.7529C28.9792 14.7529 28.5512 14.6712 28.1699 14.5087H28.1689Z" fill="white"/>
<path d="M34.5708 14.3035C34.0367 14.0039 33.6126 13.5885 33.3004 13.0574C32.9872 12.5263 32.8315 11.9252 32.8315 11.254C32.8315 10.5829 32.9882 9.99144 33.3004 9.46131C33.6126 8.93021 34.0367 8.51486 34.5708 8.21526C35.1048 7.91567 35.6913 7.76587 36.3294 7.76587C36.9675 7.76587 37.5619 7.91567 38.093 8.21526C38.6241 8.51486 39.0443 8.93021 39.3536 9.46131C39.6629 9.99241 39.8176 10.5897 39.8176 11.254C39.8176 11.9184 39.6629 12.5263 39.3536 13.0574C39.0443 13.5885 38.6221 14.0039 38.0881 14.3035C37.5541 14.6031 36.9675 14.7529 36.3294 14.7529C35.6913 14.7529 35.1048 14.6031 34.5708 14.3035ZM37.415 13.253C37.7272 13.0672 37.9723 12.8016 38.1474 12.4563C38.3235 12.111 38.411 11.7102 38.411 11.254C38.411 10.7978 38.3235 10.399 38.1474 10.0566C37.9714 9.71422 37.7272 9.45256 37.415 9.26969C37.1018 9.08779 36.7409 8.99635 36.3304 8.99635C35.9199 8.99635 35.5571 9.08779 35.241 9.26969C34.9248 9.45256 34.6787 9.71422 34.5036 10.0566C34.3276 10.399 34.24 10.7978 34.24 11.254C34.24 11.7102 34.3276 12.111 34.5036 12.4563C34.6797 12.8016 34.9258 13.0672 35.241 13.253C35.5571 13.4387 35.9199 13.5311 36.3304 13.5311C36.7409 13.5311 37.1027 13.4378 37.415 13.253Z" fill="white"/>
<path d="M42.1508 13.6001H44.3988V14.6847H40.7832V7.86304H42.1518V13.5991L42.1508 13.6001Z" fill="white"/>
<path d="M46.6074 14.5087C46.2261 14.3463 45.9245 14.1119 45.7037 13.8055C45.4819 13.499 45.3681 13.1382 45.3613 12.7209H46.8272C46.8467 13.001 46.9459 13.2228 47.1249 13.3852C47.3038 13.5487 47.5499 13.6294 47.8632 13.6294C48.1764 13.6294 48.4332 13.5525 48.616 13.3998C48.7989 13.2471 48.8903 13.0467 48.8903 12.7987C48.8903 12.5973 48.8281 12.431 48.7045 12.3007C48.581 12.1703 48.4264 12.0682 48.2406 11.9923C48.0548 11.9174 47.7989 11.8347 47.4731 11.7433C47.0295 11.613 46.6696 11.4846 46.3934 11.3571C46.1171 11.2297 45.8788 11.0381 45.6804 10.7803C45.4819 10.5235 45.3827 10.1792 45.3827 9.74923C45.3827 9.34556 45.4839 8.99344 45.6852 8.69384C45.8876 8.39424 46.1706 8.16468 46.5354 8.00516C46.9002 7.84563 47.3175 7.76587 47.7863 7.76587C48.4896 7.76587 49.0615 7.93707 49.5012 8.27946C49.9409 8.62186 50.184 9.09849 50.2298 9.7113H48.725C48.7123 9.47687 48.6131 9.2833 48.4273 9.12962C48.2415 8.9769 47.9954 8.90005 47.69 8.90005C47.4225 8.90005 47.2095 8.96814 47.05 9.1053C46.8904 9.24245 46.8107 9.44088 46.8107 9.70157C46.8107 9.88444 46.871 10.0352 46.9916 10.1558C47.1122 10.2764 47.262 10.3747 47.441 10.4486C47.62 10.5235 47.8729 10.6101 48.1987 10.7074C48.6413 10.8377 49.0032 10.968 49.2833 11.0984C49.5635 11.2287 49.8047 11.4242 50.006 11.6849C50.1996 11.9359 50.3008 12.2608 50.3086 12.6615C50.3124 12.8551 50.2891 13.0506 50.2366 13.2374C50.08 13.7879 49.7337 14.2004 49.1948 14.4747C48.83 14.6605 48.3972 14.7529 47.8952 14.7529C47.4196 14.7529 46.9916 14.6712 46.6103 14.5087H46.6074Z" fill="white"/>
<path d="M56.2737 7.86304V8.96707H54.4557V14.6837H53.087V8.96707H51.269V7.86304H56.2727H56.2737Z" fill="white"/>
<path d="M61.3214 9.46111C61.624 8.93 62.0383 8.5166 62.5626 8.21992C63.0869 7.92324 63.6754 7.77539 64.3262 7.77539C65.0888 7.77539 65.7561 7.97091 66.33 8.36194C66.9029 8.75297 67.3036 9.2938 67.5322 9.98443H65.9594C65.8027 9.65857 65.5829 9.41441 65.2998 9.25197C65.0168 9.08953 64.689 9.00782 64.3174 9.00782C63.9196 9.00782 63.5665 9.1012 63.2571 9.28602C62.9478 9.47181 62.7066 9.73444 62.5344 10.0729C62.3613 10.4114 62.2757 10.8093 62.2757 11.2655C62.2757 11.7217 62.3623 12.1108 62.5344 12.4532C62.7066 12.7956 62.9478 13.0592 63.2571 13.245C63.5665 13.4308 63.9196 13.5232 64.3174 13.5232C64.689 13.5232 65.0158 13.4405 65.2998 13.2741C65.5829 13.1078 65.8027 12.8617 65.9594 12.5359H67.5322C67.3036 13.2333 66.9048 13.7751 66.3348 14.1632C65.7648 14.5513 65.0956 14.7449 64.3262 14.7449C63.6744 14.7449 63.0869 14.597 62.5626 14.3004C62.0383 14.0037 61.624 13.5922 61.3214 13.064C61.0189 12.5359 60.8672 11.9367 60.8672 11.2655C60.8672 10.5943 61.0189 9.99318 61.3214 9.46305V9.46111Z" fill="white"/>
<path d="M70.0014 8.96703V10.6771H72.298V11.7616H70.0014V13.5699H72.5908V14.6837H68.6328V7.85229H72.5908V8.96605H70.0014V8.96703Z" fill="white"/>
<path d="M57.6313 14.6606H56.2734L59.2334 7.85352H60.5913L57.6313 14.6606Z" fill="white"/>
<path d="M16.1929 1.95166L7.80908 21.1521C12.9567 22.9779 18.7152 20.5354 20.9339 15.452C23.1537 10.3686 21.0302 4.48558 16.1919 1.95068L16.1929 1.95166ZM11.1183 16.8906L15.2941 7.25198C15.6317 7.58854 15.9225 7.96401 16.1618 8.36865L12.5258 16.7603C12.0667 16.8614 11.5939 16.9062 11.1183 16.8906ZM16.4828 13.5085C15.9702 14.6825 15.1054 15.594 14.0666 16.1747L16.7814 9.86761C17.0781 11.0397 17.0042 12.315 16.4828 13.5085Z" fill="white"/>
<path d="M6.13676 8.99183C7.29818 6.33243 10.2611 5.01926 12.9691 5.85677L14.9204 1.38812C9.74456 -0.512564 3.91995 1.92798 1.68465 7.04737C-0.550651 12.1668 1.61948 18.0984 6.53168 20.6022L8.48295 16.1335C6.02782 14.7163 4.97729 11.6503 6.13773 8.99086L6.13676 8.99183Z" fill="white"/>
</g>
<defs>
<clipPath id="clip0_649_3904">
<rect width="71.7863" height="21.0097" fill="white" transform="translate(0.804199 0.745361)"/>
</clipPath>
</defs>
</svg>
