<svg width="35" height="35" viewBox="0 0 35 35" fill="none" xmlns="http://www.w3.org/2000/svg">
<rect x="0.721848" y="0.72197" width="33.444" height="33.444" rx="16.722" stroke="#EDF3F7" stroke-opacity="0.2" stroke-width="1.444"/>
<path fill-rule="evenodd" clip-rule="evenodd" d="M11.3223 21.9792C11.3825 21.9129 11.4559 21.86 11.5377 21.8238C11.6195 21.7876 11.708 21.7688 11.7975 21.7688L26.4599 21.7808C26.5223 21.7809 26.5834 21.7992 26.6356 21.8333C26.6879 21.8675 26.7291 21.9161 26.7543 21.9732C26.7795 22.0304 26.7875 22.0936 26.7774 22.1552C26.7673 22.2168 26.7395 22.2742 26.6975 22.3204L23.5751 25.7584C23.5148 25.8246 23.4414 25.8776 23.3595 25.9138C23.2776 25.95 23.1891 25.9688 23.0995 25.9688L8.43747 25.9568C8.37503 25.9566 8.31396 25.9384 8.2617 25.9042C8.20944 25.87 8.16822 25.8214 8.14306 25.7643C8.1179 25.7072 8.10987 25.6439 8.11996 25.5823C8.13004 25.5207 8.1578 25.4633 8.19987 25.4172L11.3223 21.9792ZM26.6975 19.1172C26.7395 19.1633 26.7673 19.2207 26.7774 19.2823C26.7875 19.3439 26.7795 19.4072 26.7543 19.4643C26.7291 19.5214 26.6879 19.57 26.6356 19.6042C26.5834 19.6384 26.5223 19.6566 26.4599 19.6568L11.7979 19.6688C11.7083 19.6688 11.6198 19.65 11.5379 19.6138C11.4559 19.5776 11.3825 19.5246 11.3223 19.4584L8.19987 16.0184C8.1578 15.9722 8.13004 15.9148 8.11996 15.8532C8.10987 15.7916 8.1179 15.7284 8.14306 15.6712C8.16822 15.6141 8.20944 15.5655 8.2617 15.5313C8.31396 15.4972 8.37503 15.4789 8.43747 15.4788L23.0999 15.4668C23.1894 15.4668 23.2779 15.4856 23.3597 15.5218C23.4415 15.558 23.5149 15.6109 23.5751 15.6772L26.6975 19.1172ZM11.3223 9.37916C11.3825 9.31295 11.4559 9.26003 11.5377 9.22379C11.6195 9.18757 11.708 9.16882 11.7975 9.16876L26.4599 9.18076C26.5223 9.18089 26.5834 9.19915 26.6356 9.23331C26.6879 9.26748 26.7291 9.31609 26.7543 9.37323C26.7795 9.43039 26.7875 9.49361 26.7774 9.55523C26.7673 9.61684 26.7395 9.6742 26.6975 9.72036L23.5751 13.1584C23.5148 13.2246 23.4414 13.2776 23.3595 13.3138C23.2776 13.35 23.1891 13.3688 23.0995 13.3688L8.43747 13.3568C8.37503 13.3566 8.31396 13.3384 8.2617 13.3042C8.20944 13.27 8.16822 13.2214 8.14306 13.1643C8.1179 13.1072 8.10987 13.0439 8.11996 12.9823C8.13004 12.9207 8.1578 12.8633 8.19987 12.8172L11.3223 9.37916Z" fill="url(#paint0_linear_1434_3440)"/>
<defs>
<linearGradient id="paint0_linear_1434_3440" x1="22.7845" y1="5.79101" x2="10.0564" y2="27.0183" gradientUnits="userSpaceOnUse">
<stop stop-color="#00FFA3"/>
<stop offset="1" stop-color="#DC1FFF"/>
</linearGradient>
</defs>
</svg>
