<svg width="143" height="22" viewBox="0 0 143 22" fill="none" xmlns="http://www.w3.org/2000/svg">
<path d="M7.14 17.7651C3.03754 17.7651 0.295133 15.7361 0.0944689 12.637H2.83687C3.08213 14.3315 4.64285 15.4017 7.14 15.4017C9.16893 15.4017 10.2391 14.6213 10.2391 13.3059C10.2391 12.0796 9.28041 11.5891 7.76428 11.1209L5.22254 10.3628C3.39427 9.80541 0.540388 9.00275 0.540388 5.94821C0.540388 3.38417 2.65851 1.51131 6.11438 1.51131C9.8824 1.51131 12.2904 3.54024 12.491 6.84005H9.77092C9.65944 5.07866 8.36627 3.89698 6.0252 3.89698C4.30841 3.89698 3.19361 4.61045 3.19361 5.81443C3.19361 7.17448 4.55366 7.50892 6.06979 7.99944L8.43316 8.7352C10.6405 9.42638 12.9592 10.229 12.9592 13.1721C12.9592 16.0037 10.7074 17.7651 7.14 17.7651ZM19.8506 17.4529C17.2866 17.4529 15.9042 16.1821 15.9042 13.841V7.86566H13.8307V5.63606H15.9042V1.60049H18.5351V5.63606H21.5897V7.86566H18.5351V13.6626C18.5351 14.6659 19.0479 15.2233 20.029 15.2233H21.3667V17.4529H19.8506ZM26.9447 17.6982C24.2246 17.6982 22.4409 16.3827 22.4632 14.1754C22.4855 11.4107 25.2279 10.831 27.5244 10.5635C29.3081 10.3628 30.6235 10.2959 30.6458 9.35949C30.6235 8.2001 29.7317 7.44204 28.2156 7.44204C26.6548 7.44204 25.54 8.28928 25.384 9.51556H22.7307C22.976 7.01841 25.2056 5.27933 28.2601 5.27933C31.4485 5.27933 33.2099 7.01841 33.2099 9.53786V14.8889C33.2099 15.2233 33.3882 15.4017 33.7895 15.4017H34.4361V17.4529H33.1876C31.9836 17.4529 31.2478 16.9624 31.0471 16.0706C31.0026 15.9591 30.958 15.803 30.9357 15.6692C30.2445 16.9401 28.9513 17.6982 26.9447 17.6982ZM25.1164 13.9971C25.1164 15.0227 25.9414 15.6247 27.4798 15.6247C29.2858 15.6247 30.6458 14.599 30.6458 13.016V11.3661C30.1999 12.0573 29.0628 12.2134 27.8142 12.3694C26.3427 12.5478 25.1164 12.7485 25.1164 13.9971ZM35.7439 17.4529V0.730949H38.3748V10.7641L43.4137 5.63606H46.6243L42.3435 9.89459L47.204 17.4529H44.1495L40.5152 11.7229L38.3748 13.8633V17.4529H35.7439ZM52.7513 17.7651C49.1394 17.7651 46.6645 15.201 46.6645 11.5891C46.6645 7.68729 49.2286 5.27933 52.5284 5.27933C55.8728 5.27933 58.1024 7.6204 58.1693 11.4553V12.0796H49.2955C49.4738 14.1531 50.767 15.5578 52.7736 15.5578C54.1337 15.5578 55.1593 14.8889 55.5606 13.7072H58.1247C57.5227 16.2489 55.5383 17.7651 52.7513 17.7651ZM49.407 10.229H55.4492C55.1147 8.53454 54.0668 7.50892 52.5284 7.50892C50.9677 7.50892 49.8083 8.53454 49.407 10.229ZM65.2341 17.7651C61.3769 17.7651 59.125 15.0227 59.125 11.4553C59.125 7.57581 61.7336 5.27933 65.1672 5.27933C68.4001 5.27933 70.5851 7.26367 70.8081 10.2067H68.2218C67.9765 8.57913 66.8171 7.53122 65.1449 7.53122C63.1383 7.53122 61.8005 9.04735 61.8005 11.4553C61.8005 14.0416 63.2721 15.5355 65.2341 15.5355C66.8394 15.5355 67.9542 14.5099 68.2218 12.8154H70.8081C70.4959 15.8699 68.3778 17.7651 65.2341 17.7651ZM77.8242 17.7651C73.9892 17.7651 71.7597 15.0896 71.7597 11.433C71.7597 7.57581 74.3683 5.27933 77.8242 5.27933C81.6368 5.27933 83.8664 7.95484 83.8664 11.433C83.8664 15.424 81.3469 17.7651 77.8242 17.7651ZM74.4352 11.433C74.4352 14.0193 75.8844 15.5355 77.8242 15.5355C79.9423 15.5355 81.1908 13.7964 81.1908 11.433C81.1908 9.09194 79.8754 7.53122 77.8242 7.53122C75.7729 7.53122 74.4352 9.09194 74.4352 11.433ZM85.4541 17.4529V5.63606H87.5722L87.7951 7.37515C88.5309 6.14887 90.0247 5.27933 91.7861 5.27933C94.3056 5.27933 95.9555 6.97382 95.9555 9.62704V17.4529H93.3245V9.76082C93.3245 8.44535 92.455 7.57581 90.9835 7.57581C89.2667 7.57581 88.1073 8.7575 88.085 10.2959V17.4529H85.4541ZM103.442 17.7651C99.6069 17.7651 97.3773 15.0896 97.3773 11.433C97.3773 7.57581 99.9859 5.27933 103.442 5.27933C107.254 5.27933 109.484 7.95484 109.484 11.433C109.484 15.424 106.965 17.7651 103.442 17.7651ZM100.053 11.433C100.053 14.0193 101.502 15.5355 103.442 15.5355C105.56 15.5355 106.809 13.7964 106.809 11.433C106.809 9.09194 105.493 7.53122 103.442 7.53122C101.391 7.53122 100.053 9.09194 100.053 11.433ZM111.072 17.4529V5.63606H113.19L113.391 7.28596C114.126 6.12657 115.576 5.27933 117.337 5.27933C119.031 5.27933 120.325 6.12657 120.949 7.48663C121.618 6.23805 123.134 5.27933 125.007 5.27933C127.482 5.27933 129.065 7.04071 129.065 9.58245V17.4529H126.411V9.71623C126.411 8.40076 125.609 7.55352 124.338 7.55352C122.532 7.55352 121.395 8.7352 121.372 10.2959V17.4529H118.742V9.71623C118.742 8.40076 117.939 7.55352 116.668 7.55352C114.862 7.55352 113.725 8.7352 113.703 10.2959V17.4529H111.072ZM130.56 21.9121V19.6825H132.7C133.681 19.6825 134.216 19.3258 134.439 18.6792L134.907 17.4529H134.417L129.735 5.63606H132.566L135.955 14.599L139.277 5.63606H142.02L136.87 19.4819C136.268 21.0649 135.019 21.9121 132.7 21.9121H130.56Z" fill="#151A1A"/>
</svg>
