<svg width="101" height="16" viewBox="0 0 101 16" fill="none" xmlns="http://www.w3.org/2000/svg">
<path d="M5.48742 12.9708C2.58808 12.9708 0.649943 11.5369 0.508128 9.34668H2.44627C2.6196 10.5442 3.72261 11.3006 5.48742 11.3006C6.92133 11.3006 7.67768 10.7491 7.67768 9.8194C7.67768 8.95275 7.00011 8.60609 5.92862 8.27519L4.1323 7.73944C2.8402 7.34551 0.823273 6.77825 0.823273 4.6195C0.823273 2.80742 2.32021 1.48381 4.76259 1.48381C7.42556 1.48381 9.12734 2.91772 9.26916 5.24979H7.34677C7.26799 4.00497 6.35407 3.16984 4.69956 3.16984C3.48625 3.16984 2.69839 3.67407 2.69839 4.52496C2.69839 5.48615 3.65958 5.72251 4.73107 6.06917L6.40134 6.58916C7.96131 7.07763 9.60006 7.6449 9.60006 9.72485C9.60006 11.726 8.00858 12.9708 5.48742 12.9708ZM14.4704 12.7502C12.6583 12.7502 11.6814 11.8521 11.6814 10.1976V5.97463H10.2159V4.3989H11.6814V1.54684H13.5407V4.3989H15.6995V5.97463H13.5407V10.0715C13.5407 10.7806 13.9031 11.1745 14.5964 11.1745H15.5419V12.7502H14.4704ZM19.484 12.9236C17.5616 12.9236 16.301 11.9939 16.3168 10.4339C16.3326 8.48003 18.2707 8.07034 19.8937 7.88125C21.1543 7.73944 22.0839 7.69217 22.0997 7.03036C22.0839 6.21099 21.4537 5.67524 20.3822 5.67524C19.2792 5.67524 18.4913 6.27402 18.381 7.14066H16.5059C16.6792 5.37585 18.2549 4.14679 20.4137 4.14679C22.667 4.14679 23.9118 5.37585 23.9118 7.15642V10.9382C23.9118 11.1745 24.0378 11.3006 24.3215 11.3006H24.7784V12.7502H23.896C23.0451 12.7502 22.5252 12.4036 22.3833 11.7733C22.3518 11.6945 22.3203 11.5842 22.3046 11.4897C21.8161 12.3878 20.9022 12.9236 19.484 12.9236ZM18.1919 10.3079C18.1919 11.0327 18.7749 11.4581 19.8622 11.4581C21.1385 11.4581 22.0997 10.7333 22.0997 9.61455V8.44852C21.7846 8.93699 20.9809 9.04729 20.0985 9.15759C19.0586 9.28365 18.1919 9.42546 18.1919 10.3079ZM25.7027 12.7502V0.932307H27.562V8.02307L31.1232 4.3989H33.3922L30.3668 7.40854L33.8019 12.7502H31.6432L29.0747 8.70063L27.562 10.2133V12.7502H25.7027ZM37.7224 12.9708C35.1697 12.9708 33.4206 11.1588 33.4206 8.60609C33.4206 5.84857 35.2327 4.14679 37.5648 4.14679C39.9284 4.14679 41.5041 5.8013 41.5514 8.51154V8.95275H35.28C35.4061 10.4182 36.32 11.4109 37.7381 11.4109C38.6993 11.4109 39.4241 10.9382 39.7078 10.103H41.5199C41.0944 11.8994 39.692 12.9708 37.7224 12.9708ZM35.3588 7.6449H39.629C39.3926 6.44734 38.652 5.72251 37.5648 5.72251C36.4618 5.72251 35.6424 6.44734 35.3588 7.6449ZM46.5443 12.9708C43.8183 12.9708 42.2268 11.0327 42.2268 8.51154C42.2268 5.76978 44.0704 4.14679 46.497 4.14679C48.7818 4.14679 50.3261 5.54918 50.4836 7.62914H48.6558C48.4825 6.47886 47.6631 5.73827 46.4813 5.73827C45.0631 5.73827 44.1177 6.80976 44.1177 8.51154C44.1177 10.3394 45.1577 11.3951 46.5443 11.3951C47.6788 11.3951 48.4667 10.6703 48.6558 9.47274H50.4836C50.263 11.6315 48.7661 12.9708 46.5443 12.9708ZM55.4421 12.9708C52.7318 12.9708 51.1561 11.08 51.1561 8.49579C51.1561 5.76978 52.9997 4.14679 55.4421 4.14679C58.1366 4.14679 59.7123 6.03766 59.7123 8.49579C59.7123 11.3163 57.9317 12.9708 55.4421 12.9708ZM53.047 8.49579C53.047 10.3236 54.0712 11.3951 55.4421 11.3951C56.939 11.3951 57.8214 10.1661 57.8214 8.49579C57.8214 6.84128 56.8918 5.73827 55.4421 5.73827C53.9924 5.73827 53.047 6.84128 53.047 8.49579ZM60.8344 12.7502V4.3989H62.3313L62.4889 5.62797C63.0089 4.76132 64.0646 4.14679 65.3094 4.14679C67.09 4.14679 68.256 5.34434 68.256 7.21945V12.7502H66.3967V7.31399C66.3967 6.38432 65.7821 5.76978 64.7422 5.76978C63.5289 5.76978 62.7095 6.60492 62.6937 7.69217V12.7502H60.8344ZM73.5469 12.9708C70.8366 12.9708 69.2609 11.08 69.2609 8.49579C69.2609 5.76978 71.1045 4.14679 73.5469 4.14679C76.2414 4.14679 77.8171 6.03766 77.8171 8.49579C77.8171 11.3163 76.0365 12.9708 73.5469 12.9708ZM71.1518 8.49579C71.1518 10.3236 72.176 11.3951 73.5469 11.3951C75.0438 11.3951 75.9262 10.1661 75.9262 8.49579C75.9262 6.84128 74.9966 5.73827 73.5469 5.73827C72.0972 5.73827 71.1518 6.84128 71.1518 8.49579ZM78.9392 12.7502V4.3989H80.4361L80.5779 5.56494C81.0979 4.74556 82.1221 4.14679 83.367 4.14679C84.5645 4.14679 85.4784 4.74556 85.9196 5.70675C86.3924 4.82435 87.4638 4.14679 88.7875 4.14679C90.5365 4.14679 91.6553 5.39161 91.6553 7.18794V12.7502H89.7802V7.28248C89.7802 6.3528 89.2129 5.75403 88.3147 5.75403C87.0384 5.75403 86.2348 6.58916 86.219 7.69217V12.7502H84.3597V7.28248C84.3597 6.3528 83.7924 5.75403 82.8942 5.75403C81.6179 5.75403 80.8143 6.58916 80.7985 7.69217V12.7502H78.9392ZM92.712 15.9017V14.326H94.2247C94.918 14.326 95.2962 14.0739 95.4537 13.6169L95.7846 12.7502H95.438L92.129 4.3989H94.1301L96.5252 10.7333L98.8731 4.3989H100.811L97.1713 14.1842C96.7458 15.3029 95.8634 15.9017 94.2247 15.9017H92.712Z" fill="white"/>
</svg>
