<svg width="113" height="27" viewBox="0 0 113 27" fill="none" xmlns="http://www.w3.org/2000/svg">
<path fill-rule="evenodd" clip-rule="evenodd" d="M28.0421 1.67377C24.4435 1.67377 21.2167 3.26085 19.0166 5.77288C21.4554 6.20293 23.7443 7.28146 25.6339 8.90609C26.9506 9.98804 28.1171 11.2406 29.0994 12.6297L29.6589 13.466C29.7441 13.5957 29.7441 13.7664 29.6589 13.8994L29.1028 14.7322C28.1205 16.1247 26.954 17.3773 25.6373 18.4559C23.7477 20.084 21.4588 21.1591 19.0166 21.5891C21.2167 24.0977 24.4401 25.6848 28.0387 25.6848C34.6662 25.6848 40.0351 20.3092 40.0351 13.681C40.0351 7.05279 34.6696 1.67377 28.0421 1.67377Z" fill="#151A1A"/>
<path d="M17.4145 19.2499C13.4612 19.4513 9.57948 17.3728 6.76201 13.8573C6.67674 13.7549 6.67674 13.6047 6.76201 13.5023C9.58289 9.98685 13.4646 7.90828 17.4179 8.10283C17.8579 7.26321 18.3969 6.48161 19.0177 5.7717C18.5981 5.6966 18.1718 5.63858 17.7454 5.60445C14.0411 5.43721 10.4117 6.70688 7.61817 9.15064C6.77225 9.85374 5.99454 10.6319 5.28847 11.475C5.28677 11.4767 5.2842 11.4784 5.28165 11.4801C5.27909 11.4818 5.27653 11.4835 5.27483 11.4852C5.22708 11.5159 5.16568 11.5057 5.13498 11.4579C4.3334 10.0517 3.70578 8.54994 3.26576 6.99017V6.96627C3.13274 6.63861 2.8735 6.38264 2.54946 6.25635C2.27658 6.14372 1.96618 6.15054 1.70013 6.28024C1.18847 6.5567 0.919009 7.14033 1.03498 7.71033V7.72738C1.60802 9.76841 2.46418 11.7173 3.58298 13.516C3.64097 13.6116 3.64097 13.731 3.58298 13.8265C2.46077 15.6321 1.60461 17.5844 1.03157 19.6288V19.6766C1.02475 20.192 1.32491 20.6596 1.79222 20.8746C1.93207 20.936 2.08215 20.9701 2.23564 20.9735C2.64155 20.9633 3.01676 20.7551 3.23847 20.4173L3.25212 20.3934L3.26236 20.3695C3.70578 18.8062 4.3334 17.301 5.13839 15.8881C5.13839 15.8847 5.14521 15.8778 5.14862 15.8744C5.18614 15.8335 5.25095 15.8335 5.29188 15.8744C5.99795 16.7209 6.77907 17.5024 7.6284 18.209C10.2105 20.448 13.4918 21.7142 16.9063 21.7859C17.1859 21.7859 17.4691 21.779 17.7488 21.7552C18.1752 21.7211 18.6015 21.6631 19.0211 21.5879C18.3969 20.878 17.8579 20.093 17.4145 19.2499Z" fill="#151A1A"/>
<path d="M94.5601 8.4808C94.3383 8.6822 94.0484 8.7812 93.7004 8.7812V8.78461C93.3422 8.78461 93.0488 8.6822 92.8339 8.48421C92.6155 8.28281 92.5063 8.01655 92.5063 7.69225C92.5063 7.36796 92.6155 7.10511 92.8339 6.90712C93.0488 6.71254 93.3524 6.61354 93.7004 6.61354C94.0484 6.61354 94.3349 6.70912 94.5567 6.9037C94.7819 7.1017 94.8944 7.36455 94.8944 7.68884C94.8944 8.01313 94.7818 8.2794 94.5601 8.4808Z" fill="#151A1A"/>
<path d="M89.5854 10.0509H93.7911C94.5586 10.0509 94.719 10.4844 94.719 10.8462V16.5938C94.719 16.9078 94.62 17.157 94.4256 17.3277C94.2345 17.4982 93.9924 17.5836 93.7025 17.5836C93.4126 17.5836 93.1669 17.4982 92.9726 17.3311C92.7747 17.1604 92.6723 16.9113 92.6723 16.5972V11.6414H89.5888V16.5972C89.5888 16.9113 89.4898 17.157 89.2955 17.3242C89.1045 17.488 88.8623 17.57 88.5723 17.57C88.2824 17.57 88.0368 17.488 87.8424 17.3242C87.6412 17.157 87.5388 16.9147 87.5388 16.5972V11.6414H86.8976C86.1301 11.6414 85.9697 11.2079 85.9697 10.8462C85.9697 10.4844 86.1301 10.0509 86.8976 10.0509H87.5388C87.5422 9.12257 87.7981 8.37169 88.2961 7.82218C88.8008 7.26586 89.5172 6.94502 90.4279 6.86311L90.769 6.83239C90.8168 6.82556 90.8952 6.81874 91.0009 6.81874C91.7309 6.81874 91.8844 7.23513 91.8844 7.58327C91.8844 7.82559 91.8128 8.02014 91.6764 8.15667C91.5399 8.28978 91.3557 8.3717 91.1272 8.39216L90.7998 8.42289C90.3734 8.46044 90.0595 8.59013 89.8719 8.81198C89.6809 9.03724 89.5854 9.37172 89.5854 9.8086V10.0509Z" fill="#151A1A"/>
<path d="M102.073 14.2183C101.903 13.935 101.616 13.6995 101.224 13.5152C100.845 13.3343 100.313 13.1739 99.6478 13.0339C99.0406 12.9077 98.6245 12.7814 98.4198 12.6585C98.2322 12.5493 98.1436 12.3923 98.1436 12.1807C98.1436 11.9554 98.2356 11.7847 98.4198 11.6551C98.6143 11.5185 98.8871 11.4503 99.2317 11.4503C99.525 11.4503 99.7741 11.4844 99.9684 11.5561C100.17 11.6278 100.415 11.737 100.695 11.8838C100.855 11.9725 100.991 12.0442 101.097 12.0886C101.214 12.1363 101.333 12.1636 101.456 12.1636C101.644 12.1636 101.804 12.0851 101.933 11.9281C102.056 11.7779 102.117 11.5902 102.117 11.3683C102.117 11.0066 101.944 10.7165 101.599 10.5014C101.286 10.3001 100.927 10.1431 100.534 10.0373C100.142 9.93146 99.7296 9.87685 99.3101 9.87685C98.7269 9.87685 98.1981 9.97583 97.7376 10.1738C97.2738 10.3717 96.9054 10.6584 96.6393 11.0202C96.3699 11.3855 96.2368 11.8018 96.2368 12.2558C96.2368 12.8564 96.4415 13.3343 96.8406 13.679C97.2329 14.0135 97.881 14.2763 98.7712 14.4572C99.259 14.563 99.624 14.662 99.8627 14.7439C100.088 14.8224 100.245 14.9044 100.327 14.9931C100.402 15.0749 100.439 15.1842 100.439 15.3276C100.439 15.5392 100.34 15.6995 100.139 15.8225C99.9241 15.9522 99.6137 16.017 99.218 16.017C98.8224 16.017 98.4984 15.9795 98.2459 15.9043C97.9901 15.8259 97.7036 15.7132 97.3966 15.5699C97.0827 15.4026 96.8406 15.3208 96.653 15.3208C96.4653 15.3208 96.3085 15.3958 96.1789 15.5392C96.056 15.6791 95.9912 15.8634 95.9912 16.0852C95.9912 16.4675 96.1652 16.7644 96.5132 16.9692C97.1885 17.4027 98.0822 17.6211 99.1703 17.6211C100.115 17.6211 100.886 17.4095 101.456 16.9931C102.039 16.5699 102.332 15.9999 102.332 15.2968C102.332 14.8668 102.244 14.505 102.073 14.2218V14.2183Z" fill="#151A1A"/>
<path d="M106.46 10.1875C106.883 9.97927 107.367 9.87348 107.902 9.87348L107.906 9.8803C109.663 9.8803 110.553 10.9179 110.553 12.9589V16.6041C110.553 16.9078 110.46 17.1502 110.28 17.3277C110.096 17.5052 109.85 17.5939 109.536 17.5939C109.223 17.5939 108.974 17.5052 108.786 17.3311C108.599 17.1536 108.503 16.9112 108.503 16.6075V12.9623C108.503 12.464 108.404 12.0988 108.209 11.877C108.015 11.6585 107.705 11.5458 107.282 11.5458C106.777 11.5458 106.371 11.7063 106.07 12.0203C105.77 12.3343 105.617 12.7644 105.617 13.3002V16.6041C105.617 16.9078 105.522 17.1502 105.334 17.3277C105.15 17.5017 104.901 17.5904 104.587 17.5904C104.274 17.5904 104.025 17.4983 103.843 17.3242C103.662 17.1467 103.57 16.9044 103.57 16.6007V7.73688C103.57 7.45018 103.666 7.21809 103.86 7.04061C104.052 6.86654 104.304 6.7778 104.601 6.7778C104.898 6.7778 105.147 6.85972 105.331 7.02354C105.522 7.19079 105.617 7.41947 105.617 7.70617V10.8564C105.845 10.5766 106.128 10.3513 106.46 10.1875Z" fill="#151A1A"/>
<path d="M49.345 14.2183C49.1744 13.935 48.8879 13.6995 48.4956 13.5151C48.117 13.3343 47.5849 13.1739 46.9198 13.0339C46.3126 12.9077 45.8964 12.7814 45.6918 12.6585C45.5042 12.5493 45.4155 12.3923 45.4155 12.1806C45.4155 11.9554 45.5076 11.7848 45.6918 11.6551C45.8862 11.5185 46.1591 11.4503 46.5036 11.4503C46.7969 11.4503 47.0459 11.4844 47.2403 11.556C47.4416 11.6278 47.6872 11.7369 47.9669 11.8837C48.1272 11.9724 48.2637 12.0442 48.3694 12.0885C48.4854 12.1363 48.6047 12.1636 48.7276 12.1636C48.9152 12.1636 49.0755 12.0851 49.2051 11.9281C49.3279 11.778 49.3893 11.5902 49.3893 11.3684C49.3893 11.0066 49.2153 10.7165 48.8708 10.5014C48.557 10.3001 48.1989 10.1431 47.8066 10.0373C47.4143 9.93145 47.0016 9.87685 46.582 9.87685C45.9987 9.87685 45.4701 9.97582 45.0096 10.1738C44.5457 10.3717 44.1773 10.6584 43.9113 11.0202C43.6418 11.3855 43.5088 11.8019 43.5088 12.2558C43.5088 12.8564 43.7134 13.3343 44.1125 13.679C44.5048 14.0135 45.1529 14.2763 46.0431 14.4572C46.5309 14.563 46.8959 14.662 47.1347 14.7439C47.3598 14.8224 47.5166 14.9043 47.5985 14.993C47.6735 15.075 47.711 15.1842 47.711 15.3276C47.711 15.5392 47.6122 15.6996 47.4109 15.8224C47.196 15.9522 46.8856 16.017 46.49 16.017C46.0943 16.017 45.7702 15.9795 45.5178 15.9043C45.262 15.8258 44.9755 15.7133 44.6685 15.5699C44.3547 15.4026 44.1125 15.3207 43.9249 15.3207C43.7373 15.3207 43.5804 15.3958 43.4508 15.5392C43.328 15.679 43.2632 15.8634 43.2632 16.0852C43.2632 16.4675 43.4372 16.7644 43.785 16.9692C44.4604 17.4027 45.354 17.6211 46.4421 17.6211C47.3871 17.6211 48.1579 17.4095 48.7276 16.9931C49.3109 16.5699 49.6042 15.9999 49.6042 15.2968C49.6042 14.8668 49.5155 14.505 49.345 14.2217V14.2183Z" fill="#151A1A"/>
<path d="M54.4951 15.9791L54.8942 16.0098C55.5832 16.0508 55.7265 16.4467 55.7265 16.7743C55.7265 17.0473 55.6139 17.2555 55.3921 17.3989C55.2114 17.515 54.9624 17.573 54.6554 17.573C54.634 17.573 54.6119 17.5722 54.5888 17.5714C54.5642 17.5705 54.5386 17.5696 54.5121 17.5696L54.1096 17.5389C52.3973 17.416 51.5309 16.4876 51.5309 14.7743V11.6411H50.8896C50.5997 11.6411 50.3712 11.5728 50.2109 11.4397C50.0472 11.3031 49.9619 11.1018 49.9619 10.8458C49.9619 10.5898 50.0438 10.3884 50.2109 10.2519C50.3746 10.1188 50.5997 10.0505 50.8896 10.0505H51.5309V8.7843C51.5309 8.49077 51.6265 8.25185 51.8141 8.07437C51.9983 7.90031 52.2609 7.81157 52.561 7.81157C52.8612 7.81157 53.1068 7.90031 53.2944 8.07437C53.482 8.25185 53.5775 8.49077 53.5775 8.7843V10.0505H54.7372C55.0271 10.0505 55.2557 10.1188 55.416 10.2519C55.5798 10.3884 55.665 10.5898 55.665 10.8458C55.665 11.1018 55.5832 11.3031 55.416 11.4397C55.2523 11.5728 55.0271 11.6411 54.7372 11.6411H53.5775V14.9074C53.5775 15.5832 53.8777 15.9347 54.4951 15.9791Z" fill="#151A1A"/>
<path fill-rule="evenodd" clip-rule="evenodd" d="M62.2458 10.6509C61.741 10.1355 60.9598 9.8727 59.9332 9.8727C59.4625 9.8727 58.9815 9.9273 58.4971 10.0365C58.0128 10.1457 57.5864 10.2993 57.2351 10.4905C57.0236 10.6065 56.8702 10.7328 56.778 10.8693C56.6825 11.0092 56.6348 11.1731 56.6348 11.3608C56.6348 11.5929 56.6996 11.784 56.8291 11.9308C56.9622 12.0809 57.1328 12.1561 57.3408 12.1561C57.4772 12.1561 57.6751 12.0912 57.9378 11.9581C58.3368 11.8011 58.6882 11.6816 58.9815 11.5997C59.2681 11.5178 59.5512 11.4768 59.8274 11.4768C60.2606 11.4768 60.5745 11.5792 60.7621 11.7806C60.9496 11.982 61.0452 12.3164 61.0452 12.7738V13.0162H60.7723C59.6944 13.0162 58.8349 13.0878 58.2175 13.2277C57.5864 13.3711 57.126 13.6032 56.8395 13.9241C56.5529 14.2482 56.4062 14.6919 56.4062 15.2483C56.4062 15.692 56.5256 16.0982 56.7644 16.4599C56.9997 16.8183 57.3272 17.105 57.7365 17.3098C58.1425 17.5146 58.6029 17.617 59.0975 17.617C59.5921 17.617 60.0253 17.5009 60.4005 17.2757C60.6631 17.1186 60.878 16.9138 61.0452 16.6681C61.0554 16.9276 61.1475 17.1425 61.318 17.3064C61.4988 17.4805 61.7342 17.5726 62.0173 17.5726C62.3175 17.5726 62.5597 17.4873 62.737 17.3166C62.9143 17.146 63.0031 16.9104 63.0031 16.6169V12.999C63.0031 11.9581 62.7473 11.1697 62.2424 10.6543L62.2458 10.6509ZM61.0486 14.1903V14.4019C61.0486 14.8967 60.9019 15.3063 60.6086 15.6169C60.3152 15.9309 59.9434 16.0811 59.4727 16.0811C59.1691 16.0811 58.9235 15.9889 58.7154 15.8012C58.5142 15.6169 58.4153 15.3848 58.4153 15.0947C58.4153 14.8626 58.4835 14.6885 58.62 14.5589C58.7632 14.4257 59.0088 14.3302 59.3533 14.2721C59.7115 14.2141 60.2265 14.1834 60.878 14.1834H61.0452L61.0486 14.1903Z" fill="#151A1A"/>
<path d="M68.8017 13.6488L71.2985 15.8877L71.295 15.8945C71.5133 16.1027 71.6225 16.3553 71.6225 16.6044C71.6225 16.8536 71.5338 17.0822 71.3531 17.2768C71.1723 17.4782 70.954 17.5772 70.7118 17.5772C70.4697 17.5772 70.241 17.4782 70.0364 17.2836L66.7346 14.2904V16.6044C66.7346 16.9185 66.6357 17.1642 66.4344 17.3315C66.24 17.4952 65.9944 17.5772 65.7045 17.5772C65.4145 17.5772 65.1724 17.4952 64.9813 17.3315C64.7869 17.1642 64.688 16.9185 64.688 16.6044V7.75433C64.688 7.44032 64.7869 7.19458 64.9813 7.02734C65.1724 6.86351 65.4145 6.7816 65.7045 6.7816C65.9944 6.7816 66.24 6.86351 66.4344 7.02734C66.6357 7.19458 66.738 7.43691 66.738 7.75433V13.0958L69.7431 10.2152C69.9375 10.0206 70.166 9.92163 70.4184 9.92163C70.6708 9.92163 70.8925 10.0138 71.0801 10.2015C71.2644 10.3892 71.3599 10.6111 71.3599 10.8636C71.3599 11.1162 71.2541 11.3517 71.0495 11.5565L68.8017 13.6488Z" fill="#151A1A"/>
<path fill-rule="evenodd" clip-rule="evenodd" d="M78.5033 15.3147C78.3464 15.3147 78.1179 15.3965 77.8109 15.5604C77.5107 15.6969 77.2344 15.8061 76.9991 15.8813C76.7672 15.9563 76.4976 15.9938 76.1941 15.9938C75.6005 15.9938 75.1469 15.8402 74.8399 15.5399C74.5499 15.2532 74.3692 14.8061 74.3009 14.2054H78.5613C78.8614 14.2054 79.223 14.0791 79.223 13.4682C79.223 12.7446 79.0866 12.1063 78.8137 11.5705C78.5408 11.0312 78.1486 10.6114 77.6506 10.3145C77.1525 10.021 76.5625 9.87079 75.8974 9.87079C75.2322 9.87079 74.5705 10.0346 74.0179 10.3589C73.4653 10.6831 73.0321 11.1439 72.7285 11.731C72.425 12.3145 72.2749 12.9937 72.2749 13.7481C72.2749 14.9358 72.6296 15.8881 73.3254 16.5741C74.0213 17.2601 74.9763 17.6117 76.1634 17.6117C76.5557 17.6117 76.9718 17.5536 77.405 17.4376C77.8348 17.3215 78.227 17.168 78.5681 16.9769C78.9638 16.7516 79.1651 16.4648 79.1651 16.1202C79.1651 15.8813 79.107 15.6867 78.9877 15.5399C78.8648 15.3863 78.7012 15.3112 78.5033 15.3112V15.3147ZM77.4391 13.0176H74.3044C74.3726 12.5023 74.5397 12.0995 74.8058 11.8197C75.0855 11.5262 75.4676 11.376 75.9417 11.376C76.4158 11.376 76.7637 11.5193 77.023 11.8094C77.2685 12.0859 77.405 12.4886 77.4391 13.0176Z" fill="#151A1A"/>
<path d="M84.1339 13.8233C84.2158 13.1406 83.728 12.5227 83.0456 12.4408V12.4374C82.9979 12.4306 82.9501 12.4306 82.9024 12.4306C82.2133 12.4306 81.6538 12.9869 81.6538 13.6766C81.6538 14.3081 82.1245 14.8372 82.7523 14.9122C83.4346 14.9942 84.0521 14.506 84.1339 13.8233Z" fill="#151A1A"/>
<path fill-rule="evenodd" clip-rule="evenodd" d="M17.5989 8.10942C22.156 8.42684 25.3588 11.7341 26.7404 13.4713L26.7438 13.4679C26.8426 13.5943 26.8426 13.7683 26.7438 13.8946C25.3588 15.6352 22.1594 18.9324 17.6058 19.2429C17.5409 19.2497 17.4795 19.2497 17.4147 19.2497C16.5415 17.5841 16.0435 15.6933 16.0435 13.6795C16.0435 11.6658 16.5415 9.76819 17.4181 8.1026C17.453 8.1067 17.489 8.1071 17.5256 8.10751C17.5499 8.10779 17.5744 8.10806 17.5989 8.10942ZM22.0809 14.9151C22.7631 14.997 23.3805 14.5089 23.4624 13.8263V13.8229C23.5442 13.1403 23.0565 12.5225 22.3743 12.4407C22.3265 12.4338 22.2787 12.4338 22.231 12.4338C21.542 12.4338 20.9826 12.9901 20.9826 13.6795C20.9826 14.311 21.4533 14.8401 22.0809 14.9151Z" fill="#151A1A"/>
</svg>
