<svg width="80" height="19" viewBox="0 0 80 19" fill="none" xmlns="http://www.w3.org/2000/svg">
<g clip-path="url(#clip0_649_3920)">
<path fill-rule="evenodd" clip-rule="evenodd" d="M19.8888 0.572266C17.3456 0.572266 15.0651 1.69391 13.5103 3.46923C15.2338 3.77316 16.8514 4.5354 18.1869 5.68357C19.1174 6.44822 19.9418 7.33344 20.6361 8.31518L21.0315 8.90621C21.0917 8.99784 21.0917 9.11847 21.0315 9.21251L20.6385 9.80106C19.9443 10.7852 19.1198 11.6704 18.1893 12.4327C16.8539 13.5833 15.2362 14.3431 13.5103 14.6471C15.0651 16.42 17.3432 17.5416 19.8864 17.5416C24.5703 17.5416 28.3647 13.7425 28.3647 9.05816C28.3647 4.37378 24.5727 0.572266 19.8888 0.572266Z" fill="white"/>
<path d="M12.378 12.9939C9.58406 13.1362 6.84072 11.6672 4.84953 9.18272C4.78926 9.11038 4.78926 9.00426 4.84953 8.93185C6.84313 6.44738 9.58646 4.97838 12.3804 5.11588C12.6914 4.5225 13.0723 3.97012 13.511 3.4684C13.2144 3.41532 12.9132 3.37432 12.6118 3.3502C9.99387 3.23201 7.42888 4.12932 5.4546 5.8564C4.85676 6.3533 4.30713 6.90327 3.80813 7.49907C3.80693 7.50028 3.80512 7.50148 3.80331 7.50268C3.8015 7.50388 3.79969 7.50508 3.79849 7.50629C3.76474 7.52799 3.72135 7.52078 3.69965 7.48698C3.13315 6.4932 2.68959 5.43187 2.37862 4.32953V4.31264C2.28461 4.08107 2.10139 3.90017 1.87239 3.81092C1.67954 3.73131 1.46017 3.73614 1.27214 3.8278C0.910535 4.02318 0.720098 4.43566 0.802059 4.83849V4.85054C1.20705 6.293 1.81212 7.67032 2.60281 8.94154C2.64379 9.00906 2.64379 9.09349 2.60281 9.16101C1.80971 10.437 1.20464 11.8168 0.799648 13.2617V13.2954C0.794826 13.6597 1.00696 13.9901 1.33722 14.1421C1.43606 14.1855 1.54213 14.2096 1.6506 14.212C1.93747 14.2048 2.20264 14.0577 2.35934 13.8189L2.36898 13.802L2.37621 13.7851C2.68959 12.6803 3.13315 11.6165 3.70206 10.618C3.70206 10.6156 3.70689 10.6107 3.7093 10.6083C3.73581 10.5794 3.78161 10.5794 3.81054 10.6083C4.30954 11.2065 4.86159 11.7589 5.46183 12.2582C7.2867 13.8406 9.6057 14.7354 12.0188 14.7861C12.2164 14.7861 12.4165 14.7813 12.6142 14.7644C12.9156 14.7403 13.2168 14.6993 13.5134 14.6462C13.0723 14.1445 12.6914 13.5897 12.378 12.9939Z" fill="white"/>
<path d="M66.8992 5.38288C66.7424 5.52522 66.5375 5.59518 66.2916 5.59518V5.59759C66.0385 5.59759 65.8311 5.52522 65.6792 5.38529C65.5249 5.24296 65.4478 5.05478 65.4478 4.82559C65.4478 4.5964 65.5249 4.41064 65.6792 4.27071C65.8311 4.1332 66.0457 4.06323 66.2916 4.06323C66.5375 4.06323 66.74 4.13078 66.8968 4.2683C67.056 4.40823 67.1355 4.59399 67.1355 4.82318C67.1355 5.05237 67.0559 5.24054 66.8992 5.38288Z" fill="white"/>
<path d="M63.3834 6.49254H66.3557C66.8981 6.49254 67.0115 6.79888 67.0115 7.05456V11.1166C67.0115 11.3385 66.9415 11.5146 66.8042 11.6352C66.6691 11.7558 66.498 11.8161 66.2931 11.8161C66.0882 11.8161 65.9146 11.7558 65.7772 11.6376C65.6374 11.517 65.565 11.341 65.565 11.119V7.61661H63.3858V11.119C63.3858 11.341 63.3159 11.5146 63.1785 11.6328C63.0435 11.7486 62.8724 11.8065 62.6675 11.8065C62.4626 11.8065 62.289 11.7486 62.1516 11.6328C62.0094 11.5146 61.9371 11.3434 61.9371 11.119V7.61661H61.4838C60.9415 7.61661 60.8281 7.31024 60.8281 7.05456C60.8281 6.79888 60.9415 6.49254 61.4838 6.49254H61.9371C61.9395 5.83644 62.1203 5.30577 62.4722 4.91741C62.829 4.52424 63.3352 4.2975 63.9788 4.23961L64.2199 4.2179C64.2537 4.21307 64.3091 4.20825 64.3838 4.20825C64.8997 4.20825 65.0082 4.50253 65.0082 4.74857C65.0082 4.91983 64.9576 5.05732 64.8612 5.1538C64.7647 5.24788 64.6346 5.30577 64.4731 5.32024L64.2417 5.34195C63.9403 5.36849 63.7185 5.46014 63.5859 5.61693C63.4509 5.77613 63.3834 6.01252 63.3834 6.32127V6.49254Z" fill="white"/>
<path d="M72.2088 9.43783C72.0886 9.23767 71.8856 9.07123 71.6085 8.94099C71.3412 8.81315 70.9651 8.69974 70.4949 8.60082C70.0658 8.51159 69.7717 8.42236 69.627 8.33553C69.4945 8.25832 69.4318 8.14739 69.4318 7.99784C69.4318 7.83862 69.4969 7.71799 69.627 7.62636C69.7645 7.52984 69.9573 7.48162 70.2008 7.48162C70.4081 7.48162 70.5841 7.50573 70.7215 7.55643C70.8639 7.60705 71.0372 7.68427 71.2352 7.78799C71.3483 7.85071 71.4444 7.90133 71.5194 7.93273C71.6014 7.96645 71.6855 7.98575 71.7725 7.98575C71.9054 7.98575 72.0186 7.93025 72.1098 7.81931C72.1967 7.71318 72.2399 7.58054 72.2399 7.42372C72.2399 7.16804 72.1176 6.96302 71.8736 6.81105C71.6523 6.66874 71.3992 6.55778 71.1213 6.483C70.8441 6.40823 70.5527 6.36963 70.2562 6.36963C69.844 6.36963 69.4703 6.43959 69.1449 6.57948C68.8171 6.71939 68.5568 6.92201 68.3687 7.17766C68.1783 7.43581 68.0842 7.73008 68.0842 8.05087C68.0842 8.47539 68.2289 8.81315 68.5109 9.05673C68.7882 9.2931 69.2462 9.47884 69.8753 9.60668C70.2201 9.68149 70.478 9.75141 70.6467 9.80932C70.806 9.86483 70.917 9.92273 70.975 9.98545C71.028 10.0433 71.0541 10.1205 71.0541 10.2218C71.0541 10.3714 70.9841 10.4847 70.842 10.5716C70.6902 10.6632 70.4708 10.7091 70.1911 10.7091C69.9115 10.7091 69.6825 10.6825 69.5041 10.6294C69.3233 10.574 69.1208 10.4944 68.9038 10.3931C68.682 10.2748 68.5109 10.217 68.3784 10.217C68.2457 10.217 68.1349 10.27 68.0433 10.3714C67.9565 10.4703 67.9106 10.6005 67.9106 10.7573C67.9106 11.0274 68.0336 11.2373 68.2795 11.382C68.7568 11.6884 69.3884 11.8427 70.1574 11.8427C70.8251 11.8427 71.3702 11.6932 71.7725 11.3989C72.1847 11.0998 72.3919 10.697 72.3919 10.2001C72.3919 9.89615 72.3297 9.64048 72.2088 9.44031V9.43783Z" fill="white"/>
<path d="M75.3091 6.58917C75.6082 6.44202 75.9504 6.36725 76.3286 6.36725L76.3315 6.37207C77.5731 6.37207 78.2016 7.10536 78.2016 8.54781V11.124C78.2016 11.3386 78.1366 11.5099 78.0093 11.6354C77.8792 11.7608 77.7053 11.8235 77.4833 11.8235C77.262 11.8235 77.0859 11.7608 76.953 11.6378C76.8208 11.5124 76.7529 11.341 76.7529 11.1264V8.55021C76.7529 8.19802 76.6829 7.93995 76.5457 7.78319C76.4085 7.62877 76.1894 7.54916 75.8903 7.54916C75.5332 7.54916 75.2461 7.66257 75.034 7.88445C74.8219 8.10639 74.7137 8.41035 74.7137 8.78905V11.124C74.7137 11.3386 74.6466 11.5099 74.5136 11.6354C74.3835 11.7583 74.2075 11.8211 73.9855 11.8211C73.7641 11.8211 73.5881 11.7559 73.4601 11.6329C73.3321 11.5075 73.2671 11.3362 73.2671 11.1216V4.85726C73.2671 4.65463 73.335 4.49061 73.4721 4.36518C73.6072 4.24216 73.7854 4.17944 73.9954 4.17944C74.2054 4.17944 74.3814 4.23734 74.5115 4.35312C74.6466 4.47132 74.7137 4.63293 74.7137 4.83555V7.06194C74.8749 6.86415 75.075 6.70495 75.3091 6.58917Z" fill="white"/>
<path d="M34.9442 9.43785C34.8236 9.23768 34.6211 9.07124 34.3439 8.94093C34.0763 8.81309 33.7003 8.69975 33.2302 8.60084C32.8011 8.51161 32.507 8.42237 32.3624 8.33548C32.2298 8.25834 32.1671 8.1474 32.1671 7.99779C32.1671 7.83863 32.2322 7.71801 32.3624 7.62637C32.4998 7.52986 32.6926 7.48164 32.9361 7.48164C33.1434 7.48164 33.3194 7.50575 33.4568 7.55637C33.599 7.60707 33.7726 7.68421 33.9703 7.78793C34.0836 7.85065 34.18 7.90135 34.2547 7.93267C34.3367 7.96646 34.421 7.98577 34.5079 7.98577C34.6404 7.98577 34.7537 7.93026 34.8453 7.81933C34.9321 7.7132 34.9755 7.58048 34.9755 7.42373C34.9755 7.16806 34.8526 6.96301 34.609 6.81104C34.3873 6.66873 34.1342 6.55777 33.8569 6.483C33.5797 6.40822 33.2881 6.36963 32.9915 6.36963C32.5793 6.36963 32.2057 6.43958 31.8802 6.57948C31.5524 6.71938 31.292 6.922 31.104 7.17767C30.9135 7.43582 30.8196 7.7301 30.8196 8.05089C30.8196 8.4754 30.9642 8.81309 31.2462 9.05675C31.5235 9.29311 31.9815 9.47886 32.6106 9.60669C32.9554 9.6815 33.2133 9.75143 33.3821 9.80934C33.5412 9.86477 33.652 9.92268 33.7099 9.98539C33.7629 10.0433 33.7894 10.1205 33.7894 10.2218C33.7894 10.3714 33.7196 10.4847 33.5773 10.5715C33.4254 10.6632 33.2061 10.7091 32.9265 10.7091C32.6468 10.7091 32.4178 10.6825 32.2394 10.6295C32.0586 10.5739 31.8561 10.4944 31.6392 10.3931C31.4174 10.2749 31.2462 10.217 31.1136 10.217C30.9811 10.217 30.8702 10.2701 30.7786 10.3714C30.6918 10.4702 30.646 10.6005 30.646 10.7573C30.646 11.0275 30.769 11.2373 31.0148 11.382C31.4921 11.6884 32.1237 11.8428 32.8927 11.8428C33.5605 11.8428 34.1053 11.6932 34.5079 11.3989C34.9201 11.0998 35.1274 10.697 35.1274 10.2001C35.1274 9.89616 35.0647 9.64049 34.9442 9.44025V9.43785Z" fill="white"/>
<path d="M38.5841 10.6821L38.8662 10.7038C39.3531 10.7328 39.4544 11.0126 39.4544 11.2442C39.4544 11.4371 39.3748 11.5843 39.2181 11.6856C39.0904 11.7676 38.9144 11.8086 38.6974 11.8086C38.6823 11.8086 38.6666 11.808 38.6504 11.8075C38.633 11.8068 38.6149 11.8062 38.5961 11.8062L38.3117 11.7845C37.1016 11.6977 36.4892 11.0415 36.4892 9.83069V7.61633H36.036C35.8311 7.61633 35.6696 7.56811 35.5564 7.474C35.4406 7.37749 35.3804 7.23523 35.3804 7.05429C35.3804 6.87339 35.4382 6.73107 35.5564 6.63458C35.672 6.54051 35.8311 6.49227 36.036 6.49227H36.4892V5.59737C36.4892 5.38993 36.5568 5.22107 36.6893 5.09564C36.8195 4.97263 37.0051 4.90991 37.2172 4.90991C37.4294 4.90991 37.6029 4.97263 37.7356 5.09564C37.8681 5.22107 37.9356 5.38993 37.9356 5.59737V6.49227H38.7552C38.9601 6.49227 39.1217 6.54051 39.235 6.63458C39.3507 6.73107 39.4109 6.87339 39.4109 7.05429C39.4109 7.23523 39.3531 7.37749 39.235 7.474C39.1193 7.56811 38.9601 7.61633 38.7552 7.61633H37.9356V9.92473C37.9356 10.4023 38.1478 10.6508 38.5841 10.6821Z" fill="white"/>
<path fill-rule="evenodd" clip-rule="evenodd" d="M44.0616 6.91666C43.7048 6.55243 43.1527 6.3667 42.4272 6.3667C42.0945 6.3667 41.7546 6.40529 41.4122 6.48248C41.07 6.55967 40.7686 6.66821 40.5204 6.80329C40.3709 6.8853 40.2624 6.97455 40.1973 7.07104C40.1298 7.16992 40.0961 7.28574 40.0961 7.41838C40.0961 7.58242 40.1419 7.71747 40.2334 7.82119C40.3275 7.92732 40.448 7.98042 40.595 7.98042C40.6915 7.98042 40.8313 7.9346 41.0169 7.84049C41.299 7.72956 41.5473 7.64513 41.7546 7.58723C41.9571 7.52932 42.1572 7.5004 42.3524 7.5004C42.6586 7.5004 42.8804 7.57273 43.013 7.71506C43.1455 7.85739 43.213 8.09376 43.213 8.41703V8.58828H43.0202C42.2584 8.58828 41.651 8.6389 41.2146 8.73782C40.7686 8.83914 40.4432 9.00318 40.2407 9.22993C40.0382 9.45902 39.9346 9.77259 39.9346 10.1658C39.9346 10.4794 40.0189 10.7664 40.1877 11.0221C40.354 11.2754 40.5854 11.478 40.8747 11.6227C41.1616 11.7675 41.487 11.8398 41.8366 11.8398C42.1861 11.8398 42.4923 11.7578 42.7574 11.5986C42.943 11.4876 43.0949 11.3429 43.213 11.1692C43.2203 11.3526 43.2854 11.5045 43.4059 11.6203C43.5336 11.7434 43.7 11.8085 43.9001 11.8085C44.1122 11.8085 44.2834 11.7482 44.4087 11.6276C44.534 11.5069 44.5968 11.3405 44.5968 11.133V8.57619C44.5968 7.84049 44.416 7.28333 44.0592 6.91907L44.0616 6.91666ZM43.2155 9.41808V9.56762C43.2155 9.91733 43.1118 10.2068 42.9045 10.4263C42.6972 10.6482 42.4344 10.7543 42.1017 10.7543C41.8872 10.7543 41.7136 10.6892 41.5665 10.5566C41.4243 10.4263 41.3544 10.2623 41.3544 10.0573C41.3544 9.89322 41.4026 9.77019 41.4991 9.67856C41.6003 9.58445 41.7739 9.51692 42.0173 9.47591C42.2705 9.43491 42.6345 9.4132 43.0949 9.4132H43.213L43.2155 9.41808Z" fill="white"/>
<path d="M48.6949 9.03536L50.4595 10.6177L50.457 10.6225C50.6113 10.7696 50.6884 10.9482 50.6884 11.1242C50.6884 11.3003 50.6258 11.4619 50.498 11.5994C50.3702 11.7418 50.216 11.8117 50.0448 11.8117C49.8737 11.8117 49.7121 11.7418 49.5675 11.6042L47.234 9.4888V11.1242C47.234 11.3462 47.1641 11.5198 47.0218 11.638C46.8845 11.7538 46.7109 11.8117 46.506 11.8117C46.3011 11.8117 46.13 11.7538 45.9949 11.638C45.8575 11.5198 45.7876 11.3462 45.7876 11.1242V4.86959C45.7876 4.64767 45.8575 4.47399 45.9949 4.3558C46.13 4.24002 46.3011 4.18213 46.506 4.18213C46.7109 4.18213 46.8845 4.24002 47.0218 4.3558C47.1641 4.47399 47.2364 4.64526 47.2364 4.86959V8.64457L49.3602 6.60873C49.4976 6.47124 49.6591 6.40129 49.8375 6.40129C50.0159 6.40129 50.1725 6.46641 50.3051 6.59908C50.4354 6.73175 50.5028 6.88854 50.5028 7.06704C50.5028 7.24552 50.4281 7.41196 50.2835 7.5567L48.6949 9.03536Z" fill="white"/>
<path fill-rule="evenodd" clip-rule="evenodd" d="M55.5512 10.2129C55.4403 10.2129 55.2788 10.2707 55.0618 10.3865C54.8497 10.483 54.6544 10.5602 54.4881 10.6133C54.3242 10.6663 54.1338 10.6928 53.9192 10.6928C53.4997 10.6928 53.1792 10.5843 52.9622 10.372C52.7573 10.1694 52.6295 9.85339 52.5813 9.42888H55.5922C55.8043 9.42888 56.0598 9.33965 56.0598 8.90785C56.0598 8.3965 55.9635 7.9454 55.7706 7.5667C55.5777 7.1856 55.3005 6.88891 54.9486 6.67905C54.5966 6.47161 54.1796 6.36548 53.7095 6.36548C53.2394 6.36548 52.7718 6.48126 52.3812 6.71041C51.9907 6.93957 51.6845 7.26521 51.47 7.68011C51.2555 8.09254 51.1494 8.57256 51.1494 9.10568C51.1494 9.9451 51.4001 10.6181 51.8918 11.1029C52.3836 11.5877 53.0586 11.8362 53.8975 11.8362C54.1748 11.8362 54.4688 11.7952 54.775 11.7132C55.0787 11.6311 55.356 11.5226 55.597 11.3876C55.8766 11.2283 56.0189 11.0257 56.0189 10.7821C56.0189 10.6133 55.9779 10.4757 55.8935 10.372C55.8067 10.2635 55.691 10.2104 55.5512 10.2104V10.2129ZM54.7991 8.58946H52.5837C52.6319 8.22526 52.75 7.94059 52.9381 7.74283C53.1357 7.53538 53.4058 7.42925 53.7408 7.42925C54.0759 7.42925 54.3218 7.5305 54.505 7.73555C54.6785 7.93098 54.775 8.21557 54.7991 8.58946Z" fill="white"/>
<path d="M59.5306 9.15885C59.5885 8.67636 59.2437 8.23968 58.7615 8.18177V8.17937C58.7278 8.17456 58.694 8.17456 58.6602 8.17456C58.1732 8.17456 57.7778 8.56775 57.7778 9.05513C57.7778 9.50142 58.1105 9.87538 58.5542 9.92841C59.0364 9.98632 59.4728 9.64135 59.5306 9.15885Z" fill="white"/>
<path fill-rule="evenodd" clip-rule="evenodd" d="M12.5084 5.12054C15.7291 5.34487 17.9926 7.68224 18.969 8.90998L18.9714 8.90757C19.0413 8.99687 19.0413 9.11983 18.9714 9.20913C17.9926 10.4393 15.7315 12.7694 12.5133 12.9889C12.4675 12.9937 12.4241 12.9937 12.3783 12.9937C11.7612 11.8166 11.4092 10.4803 11.4092 9.05711C11.4092 7.63395 11.7612 6.29284 12.3807 5.11572C12.4053 5.11862 12.4308 5.1189 12.4567 5.11919C12.4739 5.11939 12.4911 5.11958 12.5084 5.12054ZM15.676 9.93033C16.1582 9.98824 16.5945 9.64326 16.6524 9.16084V9.15843C16.7102 8.67601 16.3655 8.2394 15.8834 8.18157C15.8496 8.17669 15.8158 8.17669 15.7821 8.17669C15.2952 8.17669 14.8998 8.56988 14.8998 9.05711C14.8998 9.50341 15.2325 9.8773 15.676 9.93033Z" fill="white"/>
</g>
<defs>
<clipPath id="clip0_649_3920">
<rect width="79.1903" height="18.3835" fill="white" transform="translate(0.0703125 0.0585938)"/>
</clipPath>
</defs>
</svg>
