<svg width="103" height="27" viewBox="0 0 103 27" fill="none" xmlns="http://www.w3.org/2000/svg">
<g clip-path="url(#clip0_670_3976)">
<path d="M26.7777 13.9527C26.7777 21.1358 20.9813 26.9587 13.8307 26.9587C6.68071 26.9587 0.884277 21.1358 0.884277 13.9527C0.884277 6.76973 6.68071 0.946762 13.8307 0.946762C20.9813 0.946762 26.7777 6.76973 26.7777 13.9527Z" fill="#151A1A"/>
<path d="M22.0025 11.7789L19.4868 14.8248C17.6395 17.0639 15.2321 18.7777 12.5077 19.7931L8.69873 21.2113L8.74223 20.5344L12.2902 19.3577C15.0329 18.4467 17.4876 16.8343 19.4091 14.6817L22.0025 11.7789Z" fill="url(#paint0_linear_670_3976)"/>
<path d="M5.5332 11.6875L9.56156 10.6136C12.2364 9.90027 15.0489 9.87343 17.737 10.5355L21.9083 11.563L21.4863 12.0709L17.6754 10.992C15.0275 10.2416 12.2327 10.1675 9.54851 10.7765L5.53382 11.6869L5.5332 11.6875Z" fill="url(#paint1_linear_670_3976)"/>
<path d="M22.063 11.9233C22.1396 11.6391 22.1002 11.3362 21.9535 11.0808C21.8068 10.8255 21.5647 10.6383 21.28 10.5602C21.019 10.4902 19.1546 10.2356 17.1969 9.92226C14.7173 9.52588 11.7386 9.66214 11.6503 9.9941C11.5621 10.323 14.5712 10.2901 16.9278 11.0773C18.7481 11.8564 20.2483 12.547 20.7064 12.7105C20.8473 12.748 20.9942 12.7574 21.1388 12.7382C21.2834 12.7189 21.4227 12.6714 21.5488 12.5983C21.6749 12.5252 21.7852 12.428 21.8735 12.3123C21.9617 12.1965 22.0261 12.0646 22.063 11.9239V11.9233Z" fill="url(#paint2_linear_670_3976)" fill-opacity="0.5"/>
<path d="M21.9092 11.6619C21.9092 12.1388 21.5245 12.5247 21.0503 12.5247C20.937 12.5242 20.825 12.5016 20.7205 12.458C20.616 12.4144 20.5212 12.3508 20.4415 12.2706C20.3617 12.1905 20.2986 12.0955 20.2557 11.9911C20.2128 11.8866 20.1909 11.7748 20.1914 11.6619C20.1914 11.185 20.5761 10.7992 21.0503 10.7992C21.5245 10.7992 21.9092 11.1857 21.9092 11.6619Z" fill="#3D1144"/>
<path d="M18.8671 21.1752L14.9848 19.6516C12.4023 18.6374 10.1176 16.9916 8.34131 14.866L5.57764 11.5619L6.21713 11.4015L8.65825 14.5335C10.3507 16.7068 12.5619 18.4237 15.0904 19.5278L18.8665 21.1746L18.8671 21.1752Z" fill="url(#paint3_linear_670_3976)"/>
<path d="M5.53078 10.8299C5.29931 11.0132 5.14971 11.2801 5.11446 11.5726C5.07921 11.8652 5.16114 12.1598 5.34248 12.3925C5.50841 12.6062 6.84767 13.9346 8.22484 15.3653C9.97055 17.1799 12.4334 18.8682 12.7025 18.6564C12.9698 18.4458 10.5442 16.656 9.13032 14.606C8.14157 12.8842 7.35479 11.4269 7.08631 11.02C6.99722 10.9051 6.88612 10.8089 6.75945 10.737C6.63278 10.6651 6.49306 10.619 6.34838 10.6013C6.2037 10.5836 6.05694 10.5947 5.9166 10.634C5.77625 10.6732 5.64511 10.7398 5.53078 10.8299Z" fill="url(#paint4_linear_670_3976)" fill-opacity="0.5"/>
<path d="M7.06247 11.6617C7.06247 12.1386 6.67717 12.5244 6.20299 12.5244C6.08974 12.5239 5.97769 12.5012 5.87326 12.4575C5.76883 12.4139 5.67405 12.3501 5.59434 12.27C5.51464 12.1898 5.45157 12.0947 5.40874 11.9903C5.36591 11.8858 5.34416 11.7739 5.34474 11.6611C5.34474 11.1842 5.7288 10.7983 6.20299 10.7983C6.67779 10.7983 7.06185 11.1848 7.06185 11.6611L7.06247 11.6617Z" fill="#3D1144"/>
<path d="M13.5 5.63074L15.7858 9.13182C17.305 11.4607 18.2171 14.1306 18.4394 16.8995L18.7862 21.2001L18.1722 20.9586L17.9895 16.9856C17.8629 14.2261 17.0514 11.5411 15.6279 9.17084L13.5 5.63074Z" fill="url(#paint5_linear_670_3976)"/>
<path d="M18.5811 21.5602C18.8752 21.5345 19.1471 21.3935 19.337 21.1683C19.5269 20.943 19.6194 20.6518 19.5941 20.3587C19.5711 20.088 19.1789 18.2393 18.811 16.2834C18.3437 13.8043 17.2089 11.034 16.8683 11.0625C16.5302 11.091 17.578 13.925 17.6377 16.4191C17.5233 18.4028 17.3835 20.0546 17.3854 20.5432C17.4357 21.1564 17.9714 21.6109 18.5811 21.5602Z" fill="url(#paint6_linear_670_3976)" fill-opacity="0.5"/>
<path d="M19.3535 20.4982C19.3535 20.9745 18.9682 21.3609 18.4946 21.3609C18.3814 21.3605 18.2693 21.3379 18.1648 21.2943C18.0604 21.2507 17.9656 21.1871 17.8858 21.1069C17.806 21.0268 17.7429 20.9318 17.7 20.8274C17.6571 20.7229 17.6353 20.6111 17.6358 20.4982C17.6358 20.0213 18.0204 19.6355 18.4946 19.6355C18.9688 19.6355 19.3535 20.0213 19.3535 20.4982Z" fill="#3D1144"/>
<path d="M8.70312 21.2476L8.96041 17.069C9.13003 14.2959 9.9913 11.6088 11.4662 9.25116L13.7532 5.59895L14.1006 6.16193L11.8782 9.45368C10.3322 11.7457 9.38111 14.3843 9.11019 17.1328L8.70312 21.2476Z" fill="url(#paint7_linear_670_3976)"/>
<path d="M14.3007 5.45452C14.1778 5.37646 14.0406 5.32346 13.8969 5.29859C13.7533 5.27371 13.6062 5.27745 13.464 5.30958C13.3219 5.34172 13.1875 5.40161 13.0687 5.48581C12.9499 5.57 12.849 5.67683 12.7719 5.8001C12.6277 6.02926 11.831 7.74233 10.951 9.52601C9.83673 11.7866 9.0804 14.6838 9.36877 14.8678C9.65526 15.0498 10.5197 12.1532 11.9684 10.1274C13.2505 8.61435 14.3529 7.38064 14.645 6.98984C14.8022 6.74025 14.8543 6.43892 14.7898 6.15132C14.7253 5.86371 14.5496 5.61371 14.3007 5.45452Z" fill="url(#paint8_linear_670_3976)" fill-opacity="0.5"/>
<path d="M14.6069 6.34648C14.6069 6.82275 14.2222 7.20859 13.748 7.20859C13.6348 7.20818 13.5228 7.18556 13.4184 7.14202C13.314 7.09847 13.2192 7.03486 13.1394 6.9548C13.0597 6.87475 12.9965 6.77982 12.9536 6.67545C12.9106 6.57107 12.8888 6.45929 12.8892 6.34648C12.8892 5.86959 13.2739 5.48375 13.748 5.48375C14.2222 5.48375 14.6069 5.86959 14.6069 6.34648Z" fill="#3D1144"/>
<path d="M8.13903 20.9616C8.18981 21.0978 8.26711 21.2226 8.36649 21.3289C8.46587 21.4352 8.58537 21.5209 8.71811 21.581C8.85084 21.6411 8.9942 21.6744 9.13991 21.6791C9.28563 21.6837 9.43083 21.6596 9.56716 21.6082C9.8201 21.5122 11.4813 20.6247 13.2518 19.7303C15.4953 18.597 17.8339 16.739 17.7127 16.4169C17.5928 16.0986 15.1691 17.8909 12.7994 18.6354C10.8691 19.0708 9.24959 19.391 8.78287 19.5266C8.50732 19.6328 8.28503 19.8432 8.16444 20.112C8.04384 20.3807 8.03471 20.6861 8.13903 20.9616Z" fill="url(#paint9_linear_670_3976)" fill-opacity="0.5"/>
<path d="M10.0179 20.6053C10.0179 21.0822 9.63322 21.468 9.15904 21.468C9.04584 21.4675 8.93385 21.4448 8.82946 21.4012C8.72506 21.3576 8.63031 21.2939 8.55062 21.2138C8.47092 21.1337 8.40784 21.0387 8.36497 20.9343C8.32211 20.8299 8.3003 20.7181 8.30079 20.6053C8.30079 20.1284 8.68486 19.7426 9.15904 19.7426C9.63322 19.7426 10.0179 20.129 10.0179 20.6053Z" fill="#3D1144"/>
<path d="M33.7637 23.2581C33.3665 23.2581 33.0218 23.1851 32.728 23.0406C32.4479 22.9077 32.2118 22.6976 32.0479 22.435C31.8844 22.1631 31.8013 21.8508 31.808 21.5339H32.4882C32.4882 21.7465 32.537 21.9433 32.6354 22.1244C32.7331 22.3005 32.8746 22.4429 33.0606 22.5517C33.2509 22.6548 33.485 22.707 33.7637 22.707C34.13 22.707 34.413 22.619 34.6141 22.4422C34.8152 22.2668 34.9158 22.0464 34.9158 21.783C34.9158 21.5654 34.8691 21.3922 34.7764 21.2626C34.6792 21.1241 34.5489 21.0119 34.3972 20.9362C34.2246 20.8461 34.0434 20.7732 33.8564 20.7186C33.6553 20.6571 33.4441 20.5869 33.2222 20.5096C32.8056 20.3643 32.4961 20.1861 32.2957 19.9735C32.0946 19.7559 31.994 19.4739 31.994 19.1275C31.9833 18.8582 32.0523 18.5916 32.1924 18.361C32.3325 18.1304 32.5375 17.946 32.7819 17.8306C33.0397 17.7017 33.3436 17.6366 33.6941 17.6366C34.0388 17.6366 34.3383 17.701 34.5904 17.8306C34.8482 17.9594 35.0465 18.1383 35.1858 18.3659C35.3295 18.5943 35.4049 18.8527 35.4099 19.1425H34.7297C34.7297 18.9922 34.6909 18.8448 34.6141 18.7002C34.5336 18.5467 34.4101 18.4199 34.2586 18.3352C34.1034 18.2421 33.9081 18.1956 33.6711 18.1956C33.3766 18.1906 33.1353 18.2657 32.9442 18.4203C32.7589 18.5757 32.6663 18.7904 32.6663 19.0645C32.6663 19.2979 32.7309 19.4768 32.8595 19.6013C32.9931 19.7252 33.1784 19.829 33.4161 19.9113C33.6531 19.9893 33.926 20.0795 34.2349 20.1833C34.4927 20.2763 34.7247 20.3851 34.9308 20.5096C35.137 20.6335 35.2971 20.7938 35.4099 20.9906C35.5284 21.1875 35.588 21.4387 35.588 21.7436C35.588 22.0027 35.5205 22.2489 35.3869 22.4808C35.2526 22.7099 35.0493 22.896 34.7764 23.0406C34.5085 23.1859 34.171 23.2581 33.7637 23.2581ZM37.9847 23.1651C37.6342 23.1651 37.3584 23.0792 37.1573 22.9089C36.9562 22.7371 36.8557 22.4293 36.8557 21.9848V19.8647H36.1913V19.3136H36.8564L36.9411 18.3896H37.5057V19.3136H38.6333V19.8647H37.5057V21.9848C37.5057 22.2282 37.5545 22.3935 37.6522 22.4816C37.7506 22.5646 37.923 22.6054 38.17 22.6054H38.5722V23.1651H37.9847ZM40.7341 23.2581C40.4145 23.2581 40.1495 23.2038 39.9383 23.095C39.7412 22.9997 39.577 22.8482 39.4664 22.6598C39.3638 22.4801 39.3106 22.2767 39.312 22.07C39.312 21.6763 39.4614 21.3736 39.7602 21.161C40.059 20.9491 40.4662 20.8432 40.9812 20.8432H42.0168V20.7967C42.0168 20.4603 41.9292 20.2062 41.754 20.0358C41.5787 19.8597 41.3446 19.7717 41.0508 19.7717C40.7987 19.7717 40.5797 19.8361 40.3937 19.9657C40.2141 20.0902 40.1006 20.2734 40.0539 20.5168H39.3896C39.4147 20.2377 39.5074 20.0015 39.6675 19.8103C39.8327 19.6192 40.036 19.4739 40.278 19.3759C40.5222 19.272 40.7853 19.2191 41.0508 19.2206C41.5866 19.2206 41.9888 19.3651 42.2567 19.655C42.5297 19.9399 42.6661 20.3207 42.6661 20.7967V23.1651H42.0865L42.0484 22.4737C41.9407 22.6913 41.7806 22.8774 41.5694 23.0327C41.3633 23.183 41.0853 23.2581 40.7348 23.2581H40.7341ZM40.8346 22.707C41.0817 22.707 41.2929 22.6426 41.4681 22.5123C41.6484 22.3835 41.7849 22.2146 41.8775 22.0077C41.9709 21.8002 42.0168 21.5833 42.0168 21.3557V21.3485H41.0358C40.6544 21.3485 40.3836 21.4151 40.2242 21.5496C40.1504 21.608 40.0911 21.6826 40.0509 21.7675C40.0107 21.8524 39.9906 21.9453 39.9922 22.0392C39.9922 22.2411 40.064 22.4043 40.2084 22.5281C40.3577 22.6469 40.5668 22.707 40.8346 22.707ZM43.64 23.1651V17.5743H44.2893V20.9362L45.8586 19.3136H46.6544L44.9544 21.0529L46.8713 23.1644H46.0439L44.2893 21.1696V23.1651H43.64ZM47.9293 18.4597C47.8696 18.4612 47.8102 18.451 47.7545 18.4297C47.6988 18.4083 47.6479 18.3762 47.6046 18.3352C47.522 18.2468 47.4776 18.1295 47.4811 18.0088C47.4811 17.885 47.522 17.7812 47.6046 17.6989C47.6479 17.6579 47.6988 17.6257 47.7545 17.6044C47.8102 17.583 47.8696 17.5728 47.9293 17.5743C48.0528 17.5743 48.1591 17.6158 48.246 17.6989C48.3336 17.7812 48.3774 17.885 48.3774 18.0088C48.3774 18.1383 48.3344 18.2471 48.246 18.3352C48.204 18.3757 48.1545 18.4075 48.1001 18.4289C48.0458 18.4503 47.9877 18.4608 47.9293 18.4597ZM47.6046 23.1651V19.3136H48.2539V23.1644L47.6046 23.1651ZM49.3844 23.1651V19.3136H49.9719L50.0107 20.0043C50.1342 19.761 50.3123 19.5699 50.5436 19.4303C50.7818 19.2887 51.0549 19.2161 51.3322 19.2206C51.7854 19.2206 52.146 19.3601 52.4139 19.64C52.6868 19.9141 52.8233 20.3386 52.8233 20.9133V23.1651H52.1754V20.9828C52.1754 20.1811 51.845 19.7796 51.1857 19.7796C50.856 19.7796 50.5802 19.9012 50.359 20.1446C50.1428 20.3822 50.0344 20.7244 50.0344 21.1696V23.1651H49.3844ZM55.322 21.9533C55.1065 21.9533 54.9075 21.9247 54.7273 21.8681L54.3409 22.2332C54.3976 22.2747 54.4673 22.3105 54.5492 22.342C54.6368 22.3677 54.7603 22.3935 54.9205 22.4193C55.0799 22.4408 55.304 22.4637 55.5927 22.4894C56.1084 22.5252 56.4762 22.6447 56.6981 22.8466C56.9193 23.0484 57.0306 23.3118 57.0306 23.6382C57.0306 23.8608 56.9689 24.0734 56.8453 24.2752C56.7261 24.4771 56.5408 24.6424 56.2887 24.772C56.0409 24.9008 55.7213 24.9659 55.3299 24.9659C54.9851 24.9659 54.6784 24.9194 54.4105 24.8264C54.1426 24.7383 53.9336 24.6009 53.7842 24.4148C53.6349 24.2337 53.5602 24.0033 53.5602 23.7241C53.5602 23.5788 53.5989 23.4213 53.6758 23.2503C53.7534 23.0849 53.8977 22.9268 54.1089 22.7764C54.007 22.7357 53.9087 22.6863 53.8151 22.629C53.7384 22.5725 53.6662 22.5103 53.5989 22.4429V22.264L54.2554 21.6119C53.9516 21.3528 53.8 21.0114 53.8 20.5869C53.8 20.3336 53.8589 20.1031 53.9774 19.8962C54.096 19.6887 54.2683 19.5255 54.4953 19.4067C54.7222 19.2828 54.998 19.2206 55.322 19.2206C55.5439 19.2206 55.745 19.2513 55.9253 19.3136H57.3402V19.8025L56.6205 19.834C56.7706 20.0516 56.8453 20.3021 56.8453 20.5869C56.8453 20.8403 56.7828 21.0708 56.6593 21.2776C56.5408 21.4852 56.3684 21.6506 56.1422 21.7751C55.9195 21.8939 55.6466 21.9533 55.322 21.9533ZM55.322 21.4179C55.5949 21.4179 55.8118 21.3478 55.9712 21.2082C56.1364 21.0629 56.219 20.8561 56.219 20.5869C56.219 20.3228 56.1364 20.1217 55.9712 19.9814C55.8118 19.8361 55.5956 19.7638 55.322 19.7638C55.044 19.7638 54.8228 19.8361 54.6576 19.9814C54.4982 20.121 54.4177 20.3228 54.4177 20.5869C54.4177 20.8561 54.4982 21.0629 54.6576 21.2082C54.8228 21.3478 55.044 21.4179 55.322 21.4179ZM54.1944 23.6618C54.1944 23.9202 54.3021 24.112 54.5183 24.2366C54.7352 24.3654 55.0052 24.4298 55.3299 24.4298C55.6495 24.4298 55.9044 24.3604 56.0955 24.2208C56.1877 24.1599 56.263 24.0766 56.3144 23.9789C56.3657 23.8812 56.3915 23.7721 56.3893 23.6618C56.389 23.5792 56.3709 23.4975 56.3362 23.4225C56.3015 23.3474 56.251 23.2806 56.1881 23.2267C56.0538 23.1078 55.8068 23.0377 55.4462 23.0177C55.2004 23.0009 54.9553 22.9748 54.7115 22.9396C54.5003 23.0542 54.3617 23.1751 54.2949 23.3047C54.2274 23.4392 54.1944 23.5581 54.1944 23.6618ZM61.7565 23.2581C61.3852 23.2581 61.0577 23.1909 60.7747 23.0563C60.508 22.9267 60.2811 22.7282 60.1176 22.4816C59.9631 22.2332 59.8856 21.9404 59.8856 21.604C59.8856 21.2369 59.9911 20.9105 60.2023 20.6256C60.4192 20.3357 60.7309 20.1081 61.1382 19.9428C60.9841 19.7822 60.8561 19.5987 60.7589 19.3988C60.6811 19.2199 60.6417 19.0268 60.6433 18.8319C60.6433 18.4855 60.764 18.2006 61.006 17.978C61.2538 17.7504 61.5914 17.6366 62.0187 17.6366C62.2974 17.6366 62.5394 17.691 62.7455 17.7998C62.9466 17.8947 63.1144 18.0476 63.2274 18.2386C63.3403 18.4296 63.3931 18.65 63.379 18.8713H62.7376C62.7427 18.6379 62.6708 18.4619 62.5215 18.343C62.3771 18.2242 62.2097 18.1641 62.0187 18.1641C61.7867 18.1641 61.6064 18.2264 61.4779 18.3502C61.4141 18.4113 61.3639 18.485 61.3305 18.5666C61.2971 18.6482 61.2812 18.7359 61.284 18.824C61.284 18.9901 61.3285 19.1504 61.4161 19.3057C61.5088 19.4611 61.6459 19.635 61.8255 19.8261L63.5342 21.5575C63.6835 21.3399 63.8451 21.0787 64.0204 20.773L64.2603 20.3543H64.9483L64.6079 20.9599C64.415 21.3158 64.1981 21.6582 63.9586 21.9848L65.1257 23.1651H64.307L63.588 22.435C63.3151 22.7299 63.0314 22.9425 62.7376 23.0721C62.4439 23.1959 62.1178 23.2581 61.7565 23.2581ZM60.5356 21.5811C60.5356 21.9018 60.6483 22.1681 60.8753 22.3806C61.1015 22.5925 61.3981 22.6991 61.7637 22.6991C62.0367 22.6991 62.2844 22.6469 62.5057 22.5438C62.7326 22.435 62.9538 22.259 63.1707 22.0156L61.5317 20.3464C61.192 20.481 60.9392 20.6514 60.7747 20.8589C60.6146 21.0658 60.5356 21.3063 60.5356 21.5811ZM69.5859 23.2581C69.1895 23.2581 68.844 23.1851 68.5502 23.0406C68.27 22.9077 68.034 22.6976 67.8701 22.435C67.7069 22.1631 67.624 21.8507 67.6309 21.5339H68.3111C68.3111 21.7465 68.3599 21.9433 68.4576 22.1244C68.556 22.3005 68.6975 22.4429 68.8828 22.5517C69.0738 22.6548 69.308 22.707 69.5859 22.707C69.9522 22.707 70.2352 22.619 70.4363 22.4422C70.6374 22.2668 70.7379 22.0464 70.7379 21.783C70.7379 21.5654 70.6913 21.3922 70.5986 21.2626C70.5016 21.1242 70.3715 21.012 70.2201 20.9362C70.0475 20.846 69.8664 20.7731 69.6793 20.7186C69.4782 20.6571 69.267 20.5869 69.0451 20.5096C68.6278 20.3643 68.319 20.1861 68.1179 19.9735C67.9168 19.7559 67.8162 19.4739 67.8162 19.1275C67.8055 18.8581 67.8745 18.5914 68.0148 18.3608C68.155 18.1302 68.3602 17.9458 68.6048 17.8306C68.8619 17.7017 69.1665 17.6366 69.517 17.6366C69.8617 17.6366 70.1605 17.701 70.4133 17.8306C70.6712 17.9594 70.8694 18.1383 71.0087 18.3659C71.1524 18.5943 71.2271 18.8527 71.2328 19.1425H70.5526C70.5514 18.9878 70.5114 18.8357 70.4363 18.7002C70.3561 18.5466 70.2325 18.4197 70.0808 18.3352C69.9264 18.2421 69.7303 18.1956 69.4933 18.1956C69.1995 18.1906 68.9575 18.2657 68.7671 18.4203C68.5811 18.5757 68.4885 18.7904 68.4885 19.0645C68.4885 19.2979 68.5531 19.4768 68.6817 19.6013C68.816 19.7252 69.0013 19.829 69.2383 19.9113C69.4753 19.9893 69.7482 20.0795 70.0578 20.1833C70.3156 20.2763 70.5469 20.3851 70.753 20.5096C70.9592 20.6335 71.1193 20.7938 71.2328 20.9906C71.3513 21.1875 71.4102 21.4387 71.4102 21.7436C71.4102 22.0027 71.3434 22.2489 71.2091 22.4808C71.0755 22.7099 70.8715 22.896 70.5986 23.0406C70.3307 23.1859 69.9932 23.2581 69.5859 23.2581ZM74.0389 23.2581C73.6784 23.2581 73.3537 23.1751 73.065 23.0098C72.7761 22.8436 72.5384 22.6017 72.3777 22.3105C72.2125 22.0056 72.1299 21.6484 72.1299 21.239C72.1299 20.8303 72.2153 20.476 72.3848 20.1754C72.5551 19.8698 72.7842 19.6343 73.0729 19.4689C73.3727 19.3018 73.7113 19.2162 74.0547 19.2206C74.4153 19.2206 74.7399 19.3036 75.0286 19.4689C75.3174 19.6343 75.5436 19.8698 75.7088 20.1754C75.879 20.476 75.9638 20.8303 75.9638 21.239C75.9638 21.6484 75.879 22.0049 75.7088 22.3105C75.5386 22.6111 75.3066 22.8437 75.0128 23.0098C74.7162 23.1776 74.38 23.2634 74.0389 23.2581ZM74.0389 22.6991C74.2608 22.6991 74.467 22.6447 74.6573 22.5359C74.8553 22.4198 75.0162 22.25 75.1213 22.0464C75.2398 21.8295 75.2987 21.5597 75.2987 21.239C75.2987 20.9183 75.2398 20.6492 75.1213 20.4316C75.0203 20.2279 74.8618 20.0579 74.6652 19.9428C74.4798 19.8354 74.2691 19.7791 74.0547 19.7796C73.8328 19.7796 73.6267 19.834 73.4363 19.9428C73.246 20.0516 73.0909 20.2148 72.9724 20.4316C72.8538 20.6492 72.7949 20.9183 72.7949 21.239C72.7949 21.5604 72.8538 21.8295 72.9724 22.0464C73.0909 22.264 73.2431 22.4272 73.4284 22.5359C73.6195 22.6447 73.8227 22.6991 74.0389 22.6991ZM76.8666 23.1651V17.5743H77.5158V23.1644L76.8666 23.1651ZM79.9786 23.2581C79.5254 23.2581 79.1649 23.1207 78.897 22.8466C78.6291 22.5674 78.4948 22.1401 78.4948 21.5654V19.3136H79.1441V21.4952C79.1441 22.2976 79.4716 22.6991 80.1259 22.6991C80.4606 22.6991 80.7364 22.5796 80.9525 22.3413C81.1745 22.0979 81.2851 21.7543 81.2851 21.3091V19.3136H81.9344V23.1644H81.3469L81.3002 22.4737C81.1817 22.717 81.0043 22.9089 80.7672 23.0484C80.529 23.1899 80.2559 23.2625 79.9786 23.2581ZM84.5178 23.1651C84.1673 23.1651 83.8915 23.0792 83.6911 22.9089C83.49 22.7371 83.3895 22.4293 83.3895 21.9848V19.8647H82.7244V19.3136H83.3895L83.4742 18.3896H84.0388V19.3136H85.1671V19.8647H84.0388V21.9848C84.0388 22.2282 84.0876 22.3935 84.1853 22.4816C84.2837 22.5646 84.456 22.6054 84.7031 22.6054H85.1053V23.1651H84.5178ZM86.3859 18.4597C86.3262 18.4612 86.2669 18.451 86.2112 18.4297C86.1554 18.4083 86.1045 18.3762 86.0613 18.3352C85.9789 18.2466 85.9346 18.1295 85.9377 18.0088C85.9377 17.885 85.9794 17.7812 86.0613 17.6989C86.1045 17.6579 86.1554 17.6257 86.2112 17.6044C86.2669 17.583 86.3262 17.5728 86.3859 17.5743C86.4445 17.5733 86.5026 17.5837 86.5571 17.6051C86.6116 17.6265 86.6613 17.6583 86.7034 17.6989C86.7903 17.7812 86.8341 17.885 86.8341 18.0088C86.8341 18.1383 86.7903 18.2471 86.7034 18.3352C86.6613 18.3757 86.6116 18.4076 86.5571 18.4289C86.5026 18.4503 86.4445 18.4608 86.3859 18.4597ZM86.0613 23.1651V19.3136H86.7106V23.1644L86.0613 23.1651ZM89.5878 23.2581C89.2272 23.2581 88.9026 23.1751 88.6139 23.0098C88.325 22.8436 88.0873 22.6017 87.9265 22.3105C87.7613 22.0056 87.6787 21.6484 87.6787 21.239C87.6787 20.8303 87.7642 20.476 87.9337 20.1754C88.1039 19.8698 88.333 19.6343 88.6218 19.4689C88.9215 19.3018 89.2601 19.2162 89.6036 19.2206C89.9641 19.2206 90.2887 19.3036 90.5775 19.4689C90.8662 19.6343 91.0924 19.8698 91.2576 20.1754C91.4279 20.476 91.5126 20.8303 91.5126 21.239C91.5126 21.6484 91.4279 22.0049 91.2576 22.3105C91.0874 22.6111 90.8554 22.8437 90.5617 23.0098C90.265 23.1774 89.9288 23.2632 89.5878 23.2581ZM89.5878 22.6991C89.8097 22.6991 90.0158 22.6447 90.2062 22.5359C90.4042 22.4198 90.5651 22.25 90.6701 22.0464C90.7886 21.8295 90.8475 21.5597 90.8475 21.239C90.8475 20.9183 90.7886 20.6492 90.6701 20.4316C90.5692 20.2279 90.4106 20.0579 90.2141 19.9428C90.0287 19.8354 89.818 19.7791 89.6036 19.7796C89.3816 19.7796 89.1755 19.834 88.9852 19.9428C88.7872 20.0587 88.6264 20.2282 88.5212 20.4316C88.4027 20.6492 88.3438 20.9183 88.3438 21.239C88.3438 21.5604 88.4027 21.8295 88.5212 22.0464C88.6397 22.264 88.792 22.4272 88.9773 22.5359C89.1683 22.6447 89.3716 22.6991 89.5878 22.6991ZM92.4154 23.1651V19.3136H93.0029L93.041 20.0043C93.1652 19.761 93.3426 19.5699 93.5746 19.4303C93.8129 19.2888 94.0859 19.2162 94.3632 19.2206C94.8164 19.2206 95.177 19.3601 95.4449 19.64C95.7185 19.9141 95.855 20.3386 95.855 20.9133V23.1651H95.2057V20.9828C95.2057 20.1811 94.8761 19.7796 94.216 19.7796C93.8863 19.7796 93.6105 19.9012 93.3893 20.1446C93.1724 20.3822 93.0647 20.7244 93.0647 21.1696V23.1651H92.4154ZM98.307 23.2581C97.8481 23.2581 97.4667 23.1415 97.1629 22.9089C96.8591 22.6755 96.681 22.3599 96.63 21.9612H97.2943C97.3353 22.163 97.4416 22.3391 97.6111 22.4894C97.7863 22.634 98.0212 22.7063 98.3149 22.7063C98.5878 22.7063 98.7889 22.6498 98.9175 22.5359C98.978 22.4839 99.0266 22.4195 99.0599 22.3472C99.0932 22.2748 99.1106 22.1961 99.1107 22.1165C99.1107 21.8839 99.026 21.7286 98.8557 21.6513C98.6905 21.5725 98.4564 21.5031 98.1526 21.4408C97.9419 21.398 97.7351 21.3382 97.5342 21.2619C97.3399 21.192 97.1633 21.0809 97.0164 20.9362C96.877 20.7917 96.8074 20.6027 96.8074 20.3694C96.8074 20.0329 96.9309 19.7588 97.1787 19.5462C97.4308 19.3294 97.7712 19.2206 98.1986 19.2206C98.6058 19.2206 98.9383 19.3236 99.1955 19.5312C99.4583 19.733 99.6106 20.0229 99.6515 20.4008H99.0102C99.0017 20.3111 98.9746 20.2241 98.9308 20.1452C98.8869 20.0664 98.8271 19.9975 98.7552 19.9428C98.6159 19.8282 98.4277 19.7717 98.1907 19.7717C97.9594 19.7717 97.7784 19.8211 97.6498 19.9191C97.5904 19.9646 97.5426 20.0235 97.5104 20.0909C97.4782 20.1583 97.4625 20.2324 97.4645 20.3071C97.4645 20.4631 97.5443 20.5841 97.7037 20.6721C97.8689 20.7602 98.0908 20.8353 98.3688 20.8976C98.6058 20.9491 98.8299 21.0143 99.041 21.0916C99.2572 21.1638 99.4325 21.2755 99.5668 21.4258C99.7061 21.5704 99.7758 21.783 99.7758 22.0628C99.7808 22.4093 99.6494 22.6963 99.3815 22.9239C99.1186 23.1465 98.7602 23.2581 98.307 23.2581Z" fill="#151A1A"/>
<path d="M32.7277 11.3397C33.0609 11.5279 33.3978 11.6997 33.7389 11.8529C34.0837 12.0024 34.4399 12.1306 34.8084 12.2365C35.1761 12.3389 35.5625 12.4176 35.9654 12.4727C36.3734 12.5278 36.8058 12.5557 37.2647 12.5557C37.817 12.5557 38.2867 12.5199 38.6746 12.4491C39.0624 12.3746 39.3784 12.2737 39.6212 12.1485C39.8676 12.0182 40.0457 11.865 40.1556 11.6875C40.269 11.5107 40.3258 11.3175 40.3258 11.1092C40.3258 10.7742 40.1872 10.5108 39.9092 10.3183C39.6305 10.1214 39.2018 10.0227 38.6222 10.0227C38.3672 10.0227 38.0986 10.0406 37.817 10.0763C37.5348 10.1071 37.2489 10.1429 36.9587 10.1823C36.6729 10.2216 36.3885 10.2589 36.1069 10.2947C35.8456 10.3251 35.5828 10.3409 35.3198 10.3419C34.9185 10.3432 34.5191 10.2895 34.1325 10.1823C33.7716 10.0834 33.4312 9.92156 33.127 9.70415C32.8389 9.49349 32.6021 9.22099 32.4339 8.9068C32.2616 8.58828 32.1754 8.21609 32.1754 7.79165C32.1754 7.5397 32.2091 7.2899 32.2759 7.04153C32.3463 6.79388 32.4555 6.55768 32.6049 6.33293C32.7571 6.10532 32.9532 5.89489 33.1924 5.70164C33.4538 5.4913 33.7446 5.32011 34.0557 5.19345C34.4344 5.04123 34.8286 4.93059 35.2314 4.86349C35.7339 4.7762 36.2433 4.73475 36.7533 4.73966C37.1642 4.73966 37.5779 4.76328 37.993 4.81052C38.7913 4.89323 39.579 5.05728 40.3437 5.3001C40.7079 5.41462 41.0469 5.54202 41.36 5.68374L40.5434 7.19542C40.2848 7.0809 40.0069 6.97712 39.7088 6.88264C39.4023 6.78169 39.0906 6.69687 38.7751 6.62854C38.4411 6.55624 38.1036 6.50105 37.7639 6.4632C37.4191 6.42026 37.0672 6.39878 36.7059 6.39878C36.1931 6.39878 35.7701 6.436 35.4368 6.51044C35.1079 6.58488 34.845 6.68222 34.6497 6.79961C34.4536 6.91413 34.3164 7.04368 34.2381 7.18898C34.1667 7.31949 34.1284 7.46548 34.1268 7.61414C34.1268 7.88971 34.2496 8.11589 34.4967 8.29339C34.7437 8.46661 35.1194 8.55321 35.6243 8.55321C35.829 8.55321 36.0624 8.5389 36.3246 8.5117C36.5903 8.48021 36.869 8.44728 37.1584 8.41149C37.4529 8.3757 37.7502 8.34421 38.0519 8.31701C38.3571 8.28552 38.653 8.26977 38.9389 8.26977C39.4797 8.26977 39.9581 8.33061 40.3732 8.45229C40.7919 8.57397 41.1431 8.75005 41.4247 8.97837C41.7069 9.2024 41.9202 9.47582 42.0653 9.79863C42.2104 10.1171 42.2829 10.4757 42.2829 10.8723C42.2829 11.4041 42.1594 11.8786 41.9123 12.2959C41.6696 12.7089 41.3212 13.0589 40.8666 13.3466C40.4163 13.6301 39.8719 13.8462 39.2334 13.9958C38.5941 14.1411 37.8831 14.2141 37.1002 14.2141C36.5831 14.2141 36.0775 14.1805 35.5841 14.1139C35.1047 14.0536 34.6297 13.9627 34.162 13.8419C33.7229 13.7238 33.2912 13.5799 32.8692 13.4111C32.4793 13.2507 32.1003 13.0654 31.7344 12.8563L32.7277 11.3397ZM45.1623 8.42867H43.4874V7.11884H45.1623V4.95224H46.9019V7.11884H48.576V8.42867H46.9019V14.0846H45.1623V8.42867ZM49.7927 11.8886C49.7927 11.5537 49.8652 11.2488 50.0103 10.9732C50.1554 10.6976 50.3723 10.4614 50.6625 10.2646C50.9526 10.0642 51.3125 9.911 51.7434 9.80436C52.1787 9.69413 52.6843 9.63973 53.2596 9.63973C53.6869 9.63973 54.1358 9.67051 54.6055 9.7335C55.0796 9.79648 55.5672 9.89311 56.0686 10.0227C56.0507 9.80709 55.9823 9.5987 55.8689 9.41427C55.749 9.21933 55.5861 9.05412 55.3927 8.93113C55.1705 8.78328 54.924 8.67524 54.6644 8.6119C54.3494 8.53311 54.0254 8.49534 53.7006 8.49953C53.5045 8.49953 53.289 8.5117 53.0542 8.53532C52.555 8.58639 52.0614 8.68124 51.5789 8.81876C51.3456 8.88591 51.1178 8.97061 50.8973 9.07214L50.3687 7.63776C50.6309 7.54328 50.911 7.45667 51.209 7.37794C51.5107 7.29921 51.8181 7.23264 52.1313 7.17753C52.4451 7.11884 52.7583 7.07303 53.0721 7.04153C53.3853 7.01004 53.6884 6.99429 53.9828 6.99429C55.2792 6.99429 56.2431 7.32712 56.8737 7.99206C57.5043 8.65771 57.8196 9.67624 57.8196 11.0498V14.0846H56.0801V13.429C55.6761 13.6651 55.244 13.8496 54.7937 13.9779C54.5423 14.0495 54.2723 14.1039 53.9821 14.1433C53.6963 14.1862 53.3932 14.2077 53.0714 14.2077C52.5313 14.2077 52.0551 14.149 51.6436 14.0309C51.2363 13.9128 50.8959 13.7496 50.6215 13.5413C50.3601 13.3481 50.1468 13.0976 49.9981 12.8091C49.8601 12.5216 49.7899 12.2073 49.7927 11.8886ZM51.6263 11.8292C51.6263 11.9438 51.6551 12.0533 51.7147 12.1599C51.7729 12.2623 51.8669 12.3546 51.9962 12.4369C52.1255 12.5156 52.2907 12.5808 52.4904 12.6323C52.6936 12.6796 52.9385 12.7032 53.2244 12.7032C53.5303 12.7032 53.8255 12.6753 54.1121 12.6201C54.398 12.565 54.6644 12.4927 54.9108 12.4018C55.1432 12.3181 55.3675 12.2134 55.5809 12.0891C55.7806 11.971 55.9472 11.8493 56.0801 11.7233V11.4155C55.5758 11.2734 55.0612 11.171 54.5409 11.1092C54.1375 11.0564 53.7311 11.0289 53.3242 11.0269C52.9989 11.0269 52.7288 11.0483 52.5133 11.0913C52.2979 11.1342 52.1234 11.1936 51.9905 11.2688C51.8738 11.3243 51.7758 11.4123 51.7082 11.5222C51.6547 11.6157 51.6265 11.7215 51.6263 11.8292ZM60.1229 7.11884H61.8625V8.12233C62.2436 7.83656 62.651 7.58732 63.0792 7.37794C63.487 7.17654 63.9141 7.01637 64.354 6.89981L64.8654 8.49953C64.1953 8.56681 63.6056 8.71855 63.0964 8.95475C62.6078 9.17352 62.1831 9.51272 61.8625 9.94035V14.0846H60.1237L60.1229 7.11884ZM65.6296 10.6311C65.6296 10.0756 65.733 9.57603 65.9406 9.13154C66.1408 8.69283 66.4336 8.30224 66.7988 7.98633C67.1813 7.65947 67.6244 7.41068 68.1031 7.25411C68.6314 7.07728 69.1856 6.98947 69.7428 6.99429C70.2301 6.99667 70.7153 7.05601 71.1886 7.17109C71.4156 7.22692 71.6275 7.29348 71.8228 7.37221C72.0225 7.44737 72.1992 7.52968 72.3522 7.61987V4.2916H74.091V14.0853H72.3522V13.4297C72.1813 13.5458 72.0003 13.6464 71.8113 13.7303C71.6038 13.8255 71.3804 13.9078 71.1412 13.9787C70.8966 14.0507 70.6472 14.106 70.395 14.144C70.1407 14.1869 69.8879 14.2084 69.6373 14.2084C69.0858 14.2145 68.5374 14.1269 68.0155 13.9493C67.5499 13.7904 67.1204 13.5416 66.7514 13.2171C66.3995 12.903 66.1175 12.519 65.9233 12.0898C65.7233 11.6298 65.6229 11.133 65.6289 10.6318L65.6296 10.6311ZM67.4567 10.6311C67.4567 10.9102 67.512 11.1743 67.6219 11.422C67.7354 11.6696 67.8956 11.8886 68.1031 12.0769C68.315 12.2623 68.5678 12.4097 68.8616 12.5199C69.1829 12.6302 69.5209 12.6842 69.8606 12.6796C70.0955 12.6796 70.3304 12.6581 70.5652 12.6144C70.7956 12.5687 71.0217 12.5035 71.2411 12.4197C71.4544 12.3402 71.6592 12.2395 71.8523 12.1191C72.044 12.0003 72.2107 11.8686 72.3522 11.7233V9.30834C72.1792 9.16901 71.9919 9.04833 71.7934 8.94831C71.4126 8.75427 71.0014 8.62646 70.5774 8.57039C70.3771 8.53946 70.1747 8.52367 69.972 8.52315C69.5726 8.52315 69.2157 8.57826 68.9025 8.68849C68.6135 8.7833 68.346 8.93384 68.1153 9.13154C67.9064 9.31636 67.7398 9.54389 67.627 9.79863C67.512 10.0611 67.454 10.3447 67.4567 10.6311ZM76.2241 7.11239H77.9579V10.5122C77.9579 10.8358 77.9931 11.1307 78.0635 11.3983C78.1339 11.6617 78.2538 11.8879 78.4219 12.0769C78.5942 12.2658 78.8219 12.4133 79.1035 12.5199C79.39 12.6223 79.7441 12.6731 80.1672 12.6731C80.3675 12.6731 80.5687 12.6516 80.7726 12.6087C80.9802 12.5657 81.1784 12.5063 81.3659 12.4312C81.5487 12.3554 81.724 12.2627 81.8895 12.1542C82.0443 12.0557 82.1864 11.9386 82.3125 11.8056V7.11239H84.0513V14.0839H82.3125V13.4891C81.9125 13.7333 81.4789 13.9183 81.0254 14.0381C80.5945 14.1483 80.1851 14.2027 79.7973 14.2027C79.1624 14.2027 78.618 14.1261 78.1633 13.9729C77.713 13.819 77.3431 13.5972 77.0529 13.3058C76.7607 13.0001 76.5454 12.6297 76.4245 12.225C76.2909 11.7963 76.2241 11.3089 76.2241 10.7613V7.11311V7.11239ZM86.5371 11.9473C87.0184 12.235 87.5418 12.4461 88.0885 12.5729C88.653 12.7068 89.2304 12.7733 89.8223 12.7733C90.2216 12.7733 90.5549 12.7461 90.8213 12.691C91.0878 12.6359 91.3011 12.565 91.462 12.4784C91.6221 12.3925 91.7356 12.2938 91.8024 12.1835C91.8663 12.0828 91.9008 11.9663 91.9022 11.8471C91.9022 11.6818 91.8297 11.5394 91.6853 11.422C91.5438 11.3039 91.309 11.2452 90.98 11.2452C90.8271 11.2452 90.6626 11.2545 90.4859 11.2738C90.3099 11.2938 90.1239 11.3153 89.9278 11.3389C89.7361 11.359 89.5343 11.379 89.3224 11.3983C89.1116 11.4181 88.8999 11.4279 88.6882 11.4277C88.2178 11.4277 87.8163 11.3769 87.4837 11.2745C87.1541 11.1722 86.8862 11.0326 86.6786 10.8551C86.4778 10.6874 86.3223 10.4724 86.2261 10.2295C86.1307 9.97875 86.0827 9.71252 86.0846 9.44433C86.0846 9.09003 86.1672 8.76365 86.3317 8.46374C86.5043 8.15566 86.7456 7.8912 87.037 7.69073C87.3422 7.47099 87.7107 7.29921 88.1416 7.17753C88.6148 7.05046 89.1032 6.9888 89.5931 6.99429C89.8711 6.99429 90.1613 7.01219 90.4629 7.04798C90.7682 7.07875 91.0677 7.12241 91.3621 7.17753C91.6559 7.23264 91.9374 7.29778 92.2082 7.37221C92.4783 7.44379 92.7174 7.51966 92.925 7.60269L92.3784 8.96048C91.946 8.79805 91.5021 8.66766 91.0504 8.57039C90.6048 8.47129 90.1496 8.42184 89.693 8.42295C89.3676 8.42295 89.0918 8.44871 88.8642 8.49953C88.6727 8.5354 88.4882 8.60136 88.3176 8.69493C88.1768 8.77367 88.0727 8.866 88.0066 8.97193C87.945 9.06921 87.9124 9.18188 87.9125 9.29688C87.9125 9.3792 87.9283 9.45435 87.9592 9.52092C87.9988 9.5925 88.0552 9.65342 88.1237 9.69842C88.2019 9.74566 88.3025 9.78288 88.4239 9.81008C88.5489 9.8337 88.7018 9.84587 88.8821 9.84587C89.0466 9.84587 89.2211 9.83585 89.405 9.81652C89.5888 9.79648 89.7813 9.77716 89.981 9.75712C90.1807 9.7335 90.3861 9.71202 90.5979 9.6927C90.8134 9.67266 91.0325 9.66264 91.2558 9.66264C91.671 9.66264 92.0337 9.71202 92.3432 9.81008C92.6564 9.90886 92.9149 10.0463 93.1189 10.2238C93.3222 10.4006 93.4752 10.6096 93.5771 10.8494C93.6791 11.0891 93.7301 11.3511 93.7301 11.6345C93.7301 12.0003 93.6454 12.341 93.4773 12.6559C93.3085 12.9709 93.0579 13.2443 92.7253 13.4762C92.3921 13.7045 91.9769 13.8842 91.4792 14.013C90.9858 14.1433 90.4141 14.2084 89.7634 14.2084C89.3761 14.2093 88.9893 14.1837 88.6056 14.1318C88.2476 14.087 87.8924 14.0218 87.5419 13.9364C87.2051 13.8505 86.8876 13.7503 86.5902 13.6358C86.2965 13.5213 86.0279 13.3996 85.7851 13.2693L86.5371 11.9473ZM96.3452 8.42867H94.6703V7.11884H96.3452V4.95224H98.084V7.11884H99.7589V8.42867H98.084V14.0846H96.3452V8.42867Z" fill="#151A1A"/>
</g>
<defs>
<linearGradient id="paint0_linear_670_3976" x1="9.19218" y1="20.7945" x2="13.6862" y2="23.9999" gradientUnits="userSpaceOnUse">
<stop offset="0.578" stop-color="#3D1144"/>
<stop offset="1" stop-color="#E70C62" stop-opacity="0"/>
</linearGradient>
<linearGradient id="paint1_linear_670_3976" x1="21.2632" y1="11.6194" x2="19.5418" y2="6.575" gradientUnits="userSpaceOnUse">
<stop offset="0.578" stop-color="#3D1144"/>
<stop offset="1" stop-color="#E70C62" stop-opacity="0"/>
</linearGradient>
<linearGradient id="paint2_linear_670_3976" x1="22.0096" y1="11.9518" x2="15.2708" y2="10.0321" gradientUnits="userSpaceOnUse">
<stop offset="0.234" stop-color="#3D1144"/>
<stop offset="0.885" stop-color="#E70C62" stop-opacity="0"/>
</linearGradient>
<linearGradient id="paint3_linear_670_3976" x1="6.13199" y1="11.8994" x2="4.52872" y2="16.983" gradientUnits="userSpaceOnUse">
<stop offset="0.578" stop-color="#3D1144"/>
<stop offset="1" stop-color="#E70C62" stop-opacity="0"/>
</linearGradient>
<linearGradient id="paint4_linear_670_3976" x1="5.59106" y1="10.8398" x2="9.84198" y2="16.4323" gradientUnits="userSpaceOnUse">
<stop offset="0.234" stop-color="#3D1144"/>
<stop offset="0.885" stop-color="#E70C62" stop-opacity="0"/>
</linearGradient>
<linearGradient id="paint5_linear_670_3976" x1="18.5289" y1="20.6031" x2="22.7735" y2="17.4007" gradientUnits="userSpaceOnUse">
<stop offset="0.578" stop-color="#3D1144"/>
<stop offset="1" stop-color="#E70C62" stop-opacity="0"/>
</linearGradient>
<linearGradient id="paint6_linear_670_3976" x1="18.5369" y1="21.5187" x2="18.0691" y2="14.4977" gradientUnits="userSpaceOnUse">
<stop offset="0.234" stop-color="#3D1144"/>
<stop offset="0.885" stop-color="#E70C62" stop-opacity="0"/>
</linearGradient>
<linearGradient id="paint7_linear_670_3976" x1="13.6034" y1="6.23191" x2="8.29482" y2="6.26559" gradientUnits="userSpaceOnUse">
<stop offset="0.578" stop-color="#3D1144"/>
<stop offset="1" stop-color="#E70C62" stop-opacity="0"/>
</linearGradient>
<linearGradient id="paint8_linear_670_3976" x1="14.3113" y1="5.51397" x2="10.4438" y2="11.3808" gradientUnits="userSpaceOnUse">
<stop offset="0.234" stop-color="#3D1144"/>
<stop offset="0.885" stop-color="#E70C62" stop-opacity="0"/>
</linearGradient>
<linearGradient id="paint9_linear_670_3976" x1="8.16638" y1="20.9071" x2="14.7643" y2="18.5461" gradientUnits="userSpaceOnUse">
<stop offset="0.234" stop-color="#3D1144"/>
<stop offset="0.885" stop-color="#E70C62" stop-opacity="0"/>
</linearGradient>
<clipPath id="clip0_670_3976">
<rect width="102.19" height="26.012" fill="white" transform="translate(0.777832 0.946945)"/>
</clipPath>
</defs>
</svg>
