<svg width="73" height="19" viewBox="0 0 73 19" fill="none" xmlns="http://www.w3.org/2000/svg">
<g clip-path="url(#clip0_649_3935)">
<path d="M19.1156 9.25032C19.1156 14.3268 15.0191 18.442 9.96555 18.442C4.91244 18.442 0.815918 14.3268 0.815918 9.25032C0.815918 4.17386 4.91244 0.0585938 9.96555 0.0585938C15.0191 0.0585938 19.1156 4.17386 19.1156 9.25032Z" fill="white"/>
<path d="M15.741 7.71387L13.9631 9.86648C12.6576 11.4489 10.9562 12.6601 9.03079 13.3777L6.33887 14.3801L6.36961 13.9017L8.87707 13.07C10.8154 12.4262 12.5502 11.2867 13.9082 9.76537L15.741 7.71387Z" fill="url(#paint0_linear_649_3935)"/>
<path d="M4.10156 7.6494L6.94853 6.89043C8.83892 6.38631 10.8266 6.36734 12.7263 6.83528L15.6743 7.56143L15.3761 7.92034L12.6829 7.15787C10.8115 6.62755 8.83631 6.57517 6.9393 7.00555L4.102 7.64897L4.10156 7.6494Z" fill="url(#paint1_linear_649_3935)"/>
<path d="M15.7837 7.81593C15.8378 7.61507 15.81 7.40103 15.7063 7.22053C15.6026 7.04004 15.4315 6.90775 15.2302 6.85255C15.0458 6.80309 13.7281 6.6232 12.3446 6.40172C10.5922 6.12159 8.48705 6.21789 8.42468 6.45249C8.36231 6.68491 10.489 6.66172 12.1545 7.21803C13.4409 7.76866 14.5012 8.2567 14.8249 8.37225C14.9244 8.39878 15.0283 8.40543 15.1305 8.39183C15.2327 8.37822 15.3311 8.34462 15.4202 8.29296C15.5093 8.24131 15.5873 8.17261 15.6497 8.09082C15.712 8.00903 15.7576 7.91576 15.7837 7.81637V7.81593Z" fill="url(#paint2_linear_649_3935)" fill-opacity="0.5"/>
<path d="M15.6749 7.6312C15.6749 7.96823 15.4031 8.24092 15.0679 8.24092C14.9879 8.24063 14.9087 8.22463 14.8349 8.19383C14.761 8.16303 14.694 8.11803 14.6377 8.06141C14.5813 8.00478 14.5367 7.93764 14.5063 7.86383C14.476 7.79001 14.4606 7.71096 14.4609 7.6312C14.4609 7.29417 14.7328 7.02148 15.0679 7.02148C15.4031 7.02148 15.6749 7.29461 15.6749 7.6312Z" fill="#3D1144"/>
<path d="M13.5249 14.3546L10.7811 13.2779C8.95605 12.5611 7.34138 11.398 6.08598 9.89577L4.13281 7.56063L4.58476 7.44727L6.30998 9.66072C7.50611 11.1967 9.06883 12.4101 10.8558 13.1903L13.5245 14.3542L13.5249 14.3546Z" fill="url(#paint3_linear_649_3935)"/>
<path d="M4.09969 7.04306C3.93611 7.17261 3.83038 7.36123 3.80547 7.56797C3.78055 7.77472 3.83846 7.98292 3.96661 8.14738C4.08388 8.29839 5.03038 9.23726 6.00367 10.2483C7.23742 11.5308 8.97801 12.724 9.16819 12.5743C9.35705 12.4255 7.64281 11.1605 6.6436 9.71173C5.94482 8.49492 5.38878 7.46501 5.19904 7.17744C5.13607 7.09618 5.05756 7.02819 4.96803 6.97739C4.87851 6.92659 4.77977 6.894 4.67752 6.8815C4.57527 6.86901 4.47155 6.87685 4.37236 6.90458C4.27318 6.93231 4.1805 6.97938 4.09969 7.04306Z" fill="url(#paint4_linear_649_3935)" fill-opacity="0.5"/>
<path d="M5.18225 7.63091C5.18225 7.96794 4.90994 8.24063 4.57482 8.24063C4.49478 8.24028 4.4156 8.22422 4.34179 8.19337C4.26799 8.16251 4.201 8.11747 4.14467 8.0608C4.08835 8.00414 4.04377 7.93697 4.0135 7.86313C3.98324 7.78929 3.96786 7.71023 3.96827 7.63047C3.96827 7.29344 4.2397 7.02075 4.57482 7.02075C4.91038 7.02075 5.18181 7.29388 5.18181 7.63047L5.18225 7.63091Z" fill="#3D1144"/>
<path d="M9.73193 3.36865L11.3473 5.84298C12.421 7.48887 13.0657 9.37575 13.2228 11.3326L13.4679 14.372L13.0339 14.2013L12.9048 11.3935C12.8153 9.44328 12.2419 7.54566 11.2358 5.87055L9.73193 3.36865Z" fill="url(#paint5_linear_649_3935)"/>
<path d="M13.3228 14.6267C13.5306 14.6086 13.7228 14.509 13.857 14.3498C13.9913 14.1905 14.0566 13.9848 14.0387 13.7776C14.0224 13.5863 13.7453 12.2798 13.4853 10.8975C13.155 9.14538 12.353 7.18754 12.1123 7.20767C11.8734 7.22781 12.6139 9.23073 12.6561 10.9934C12.5752 12.3953 12.4764 13.5627 12.4777 13.908C12.5133 14.3413 12.8919 14.6626 13.3228 14.6267Z" fill="url(#paint6_linear_649_3935)" fill-opacity="0.5"/>
<path d="M13.8688 13.8761C13.8688 14.2127 13.5965 14.4858 13.2618 14.4858C13.1817 14.4855 13.1025 14.4695 13.0287 14.4387C12.9549 14.4079 12.8879 14.3629 12.8315 14.3063C12.7751 14.2497 12.7305 14.1825 12.7002 14.1087C12.6699 14.0349 12.6544 13.9558 12.6548 13.8761C12.6548 13.539 12.9267 13.2664 13.2618 13.2664C13.5969 13.2664 13.8688 13.539 13.8688 13.8761Z" fill="#3D1144"/>
<path d="M6.3418 14.4056L6.52363 11.4524C6.64351 9.49258 7.25219 7.59352 8.29453 5.92732L9.91082 3.34619L10.1563 3.74406L8.58572 6.07044C7.49312 7.6903 6.82095 9.55505 6.62948 11.4975L6.3418 14.4056Z" fill="url(#paint7_linear_649_3935)"/>
<path d="M10.2977 3.24423C10.2108 3.18907 10.1138 3.15162 10.0123 3.13403C9.91081 3.11645 9.80682 3.11909 9.70635 3.14181C9.60588 3.16452 9.51093 3.20685 9.42697 3.26635C9.34302 3.32585 9.27173 3.40135 9.21723 3.48847C9.11534 3.65042 8.55227 4.8611 7.93035 6.12168C7.14284 7.71929 6.60832 9.76686 6.81212 9.89686C7.01459 10.0255 7.62553 7.97841 8.64933 6.54669C9.55542 5.47739 10.3346 4.60549 10.541 4.3293C10.6521 4.1529 10.6889 3.93994 10.6433 3.73668C10.5978 3.53343 10.4736 3.35674 10.2977 3.24423Z" fill="url(#paint8_linear_649_3935)" fill-opacity="0.5"/>
<path d="M10.5143 3.87461C10.5143 4.2112 10.2424 4.48389 9.90729 4.48389C9.82729 4.4836 9.74813 4.46762 9.67433 4.43684C9.60053 4.40607 9.53353 4.36111 9.47717 4.30453C9.4208 4.24795 9.37617 4.18087 9.34583 4.1071C9.31548 4.03334 9.30001 3.95433 9.3003 3.87461C9.3003 3.53758 9.57217 3.26489 9.90729 3.26489C10.2424 3.26489 10.5143 3.53758 10.5143 3.87461Z" fill="#3D1144"/>
<path d="M5.94307 14.2034C5.97896 14.2997 6.03359 14.3879 6.10382 14.463C6.17406 14.5382 6.25851 14.5987 6.35232 14.6412C6.44613 14.6837 6.54744 14.7072 6.65042 14.7105C6.75341 14.7138 6.85603 14.6968 6.95238 14.6604C7.13114 14.5926 8.30515 13.9653 9.55646 13.3333C11.142 12.5323 12.7948 11.2192 12.7091 10.9916C12.6243 10.7666 10.9114 12.0333 9.23671 12.5594C7.87252 12.8671 6.72794 13.0934 6.39809 13.1893C6.20335 13.2643 6.04625 13.413 5.96103 13.603C5.8758 13.7929 5.86935 14.0088 5.94307 14.2034Z" fill="url(#paint9_linear_649_3935)" fill-opacity="0.5"/>
<path d="M7.27116 13.9518C7.27116 14.2888 6.99929 14.5615 6.66417 14.5615C6.58417 14.5611 6.50503 14.5451 6.43125 14.5143C6.35747 14.4834 6.29051 14.4384 6.23418 14.3818C6.17786 14.3252 6.13328 14.2581 6.10298 14.1843C6.07269 14.1105 6.05728 14.0315 6.05762 13.9518C6.05762 13.6147 6.32905 13.342 6.66417 13.342C6.99929 13.342 7.27116 13.6152 7.27116 13.9518Z" fill="#3D1144"/>
<path d="M24.0528 15.8266C23.7722 15.8266 23.5285 15.775 23.3209 15.6728C23.1229 15.5789 22.9561 15.4304 22.8402 15.2449C22.7247 15.0527 22.6659 14.832 22.6707 14.608H23.1514C23.1514 14.7583 23.1859 14.8974 23.2554 15.0253C23.3245 15.1498 23.4245 15.2505 23.5559 15.3273C23.6904 15.4002 23.8559 15.4371 24.0528 15.4371C24.3117 15.4371 24.5117 15.3749 24.6538 15.2499C24.796 15.126 24.867 14.9702 24.867 14.7841C24.867 14.6303 24.834 14.5079 24.7686 14.4163C24.6999 14.3184 24.6077 14.2391 24.5005 14.1856C24.3786 14.1219 24.2505 14.0704 24.1183 14.0319C23.9762 13.9884 23.827 13.9388 23.6701 13.8842C23.3757 13.7815 23.157 13.6555 23.0153 13.5053C22.8732 13.3515 22.8021 13.1522 22.8021 12.9074C22.7946 12.717 22.8433 12.5286 22.9423 12.3657C23.0413 12.2027 23.1862 12.0723 23.359 11.9908C23.5412 11.8997 23.7559 11.8537 24.0036 11.8537C24.2473 11.8537 24.4589 11.8992 24.6371 11.9908C24.8193 12.0818 24.9594 12.2083 25.0579 12.3691C25.1594 12.5305 25.2127 12.7131 25.2162 12.918H24.7356C24.7356 12.8118 24.7081 12.7076 24.6538 12.6054C24.597 12.4969 24.5097 12.4073 24.4026 12.3474C24.2929 12.2816 24.1549 12.2488 23.9874 12.2488C23.7793 12.2452 23.6087 12.2983 23.4737 12.4076C23.3427 12.5174 23.2772 12.6691 23.2772 12.8629C23.2772 13.0278 23.3229 13.1542 23.4138 13.2422C23.5082 13.3297 23.6392 13.4031 23.8072 13.4613C23.9747 13.5164 24.1676 13.5801 24.3858 13.6535C24.5681 13.7193 24.732 13.7961 24.8777 13.8842C25.0234 13.9717 25.1366 14.085 25.2162 14.2241C25.3 14.3632 25.3421 14.5407 25.3421 14.7562C25.3421 14.9394 25.2944 15.1134 25.2 15.2773C25.1051 15.4391 24.9614 15.5707 24.7686 15.6728C24.5792 15.7755 24.3407 15.8266 24.0528 15.8266ZM27.036 15.7609C26.7883 15.7609 26.5933 15.7001 26.4512 15.5798C26.3091 15.4584 26.238 15.2408 26.238 14.9267V13.4284H25.7685V13.0389H26.2385L26.2984 12.3858H26.6974V13.0389H27.4943V13.4284H26.6974V14.9267C26.6974 15.0987 26.7319 15.2155 26.801 15.2778C26.8705 15.3364 26.9923 15.3653 27.1669 15.3653H27.4512V15.7609H27.036ZM28.979 15.8266C28.7531 15.8266 28.5658 15.7882 28.4166 15.7113C28.2773 15.6439 28.1613 15.5369 28.0831 15.4037C28.0106 15.2768 27.973 15.133 27.974 14.9869C27.974 14.7087 28.0796 14.4947 28.2907 14.3445C28.5019 14.1947 28.7897 14.1199 29.1536 14.1199H29.8856V14.087C29.8856 13.8493 29.8237 13.6697 29.6998 13.5493C29.576 13.4248 29.4105 13.3626 29.2029 13.3626C29.0247 13.3626 28.8699 13.4082 28.7384 13.4997C28.6115 13.5877 28.5313 13.7172 28.4983 13.8892H28.0288C28.0466 13.6919 28.1121 13.525 28.2253 13.3899C28.342 13.2549 28.4856 13.1522 28.6567 13.0829C28.8293 13.0094 29.0152 12.9721 29.2029 12.9731C29.5815 12.9731 29.8658 13.0753 30.0551 13.2802C30.248 13.4815 30.3444 13.7506 30.3444 14.087V15.7609H29.9348L29.9079 15.2722C29.8318 15.426 29.7186 15.5575 29.5694 15.6673C29.4237 15.7735 29.2272 15.8266 28.9795 15.8266H28.979ZM29.0501 15.4371C29.2247 15.4371 29.3739 15.3916 29.4978 15.2995C29.6252 15.2085 29.7216 15.0891 29.7871 14.9429C29.8531 14.7962 29.8856 14.6429 29.8856 14.4821V14.477H29.1922C28.9227 14.477 28.7313 14.5241 28.6186 14.6192C28.5665 14.6604 28.5246 14.7131 28.4962 14.7731C28.4677 14.8331 28.4536 14.8988 28.4547 14.9652C28.4547 15.1078 28.5054 15.2231 28.6075 15.3106C28.713 15.3946 28.8608 15.4371 29.0501 15.4371ZM31.0327 15.7609V11.8097H31.4916V14.1856L32.6007 13.0389H33.1631L31.9616 14.2681L33.3164 15.7603H32.7317L31.4916 14.3505V15.7609H31.0327ZM34.0641 12.4354C34.0219 12.4365 33.9799 12.4293 33.9406 12.4142C33.9012 12.3991 33.8652 12.3764 33.8347 12.3474C33.7763 12.2849 33.7449 12.2021 33.7473 12.1167C33.7473 12.0292 33.7763 11.9559 33.8347 11.8977C33.8652 11.8687 33.9012 11.846 33.9406 11.8309C33.9799 11.8158 34.0219 11.8086 34.0641 11.8097C34.1514 11.8097 34.2265 11.839 34.2879 11.8977C34.3499 11.9559 34.3808 12.0292 34.3808 12.1167C34.3808 12.2083 34.3504 12.2852 34.2879 12.3474C34.2583 12.376 34.2232 12.3985 34.1848 12.4136C34.1464 12.4287 34.1054 12.4361 34.0641 12.4354ZM33.8347 15.7609V13.0389H34.2935V15.7603L33.8347 15.7609ZM35.0925 15.7609V13.0389H35.5077L35.5351 13.527C35.6224 13.355 35.7483 13.22 35.9117 13.1213C36.0801 13.0213 36.2731 12.97 36.4691 12.9731C36.7893 12.9731 37.0442 13.0718 37.2335 13.2696C37.4264 13.4633 37.5228 13.7633 37.5228 14.1695V15.7609H37.065V14.2185C37.065 13.652 36.8315 13.3682 36.3655 13.3682C36.1325 13.3682 35.9376 13.4542 35.7813 13.6262C35.6285 13.7941 35.5518 14.0359 35.5518 14.3505V15.7609H35.0925ZM39.2887 14.9045C39.1364 14.9045 38.9958 14.8842 38.8684 14.8443L38.5954 15.1022C38.6355 15.1316 38.6847 15.1569 38.7426 15.1791C38.8045 15.1973 38.8918 15.2155 39.005 15.2338C39.1177 15.2489 39.276 15.2651 39.4801 15.2833C39.8445 15.3086 40.1044 15.3931 40.2613 15.5357C40.4176 15.6784 40.4963 15.8645 40.4963 16.0952C40.4963 16.2525 40.4526 16.4028 40.3653 16.5454C40.2811 16.6881 40.1501 16.8049 39.9719 16.8965C39.7968 16.9875 39.5709 17.0336 39.2943 17.0336C39.0507 17.0336 38.8339 17.0007 38.6446 16.9349C38.4553 16.8727 38.3075 16.7756 38.202 16.6441C38.0964 16.5161 38.0436 16.3532 38.0436 16.1559C38.0436 16.0532 38.071 15.9419 38.1253 15.821C38.1801 15.7042 38.2822 15.5924 38.4314 15.4862C38.3594 15.4574 38.2899 15.4225 38.2238 15.382C38.1696 15.3421 38.1185 15.2981 38.071 15.2504V15.124L38.535 14.6632C38.3202 14.48 38.2131 14.2388 38.2131 13.9388C38.2131 13.7597 38.2548 13.5968 38.3385 13.4506C38.4223 13.3039 38.5441 13.1886 38.7045 13.1046C38.8649 13.0171 39.0598 12.9731 39.2887 12.9731C39.4456 12.9731 39.5877 12.9949 39.7151 13.0389H40.7151V13.3844L40.2065 13.4066C40.3125 13.5604 40.3653 13.7375 40.3653 13.9388C40.3653 14.1179 40.3212 14.2807 40.2339 14.4269C40.1501 14.5736 40.0283 14.6905 39.8684 14.7785C39.711 14.8625 39.5182 14.9045 39.2887 14.9045ZM39.2887 14.5261C39.4816 14.5261 39.6349 14.4765 39.7476 14.3779C39.8643 14.2752 39.9227 14.129 39.9227 13.9388C39.9227 13.7521 39.8643 13.61 39.7476 13.5108C39.6349 13.4082 39.4821 13.3571 39.2887 13.3571C39.0923 13.3571 38.9359 13.4082 38.8192 13.5108C38.7065 13.6095 38.6497 13.7521 38.6497 13.9388C38.6497 14.129 38.7065 14.2752 38.8192 14.3779C38.9359 14.4765 39.0923 14.5261 39.2887 14.5261ZM38.4918 16.1119C38.4918 16.2945 38.5679 16.4301 38.7207 16.5181C38.874 16.6092 39.0649 16.6547 39.2943 16.6547C39.5202 16.6547 39.7004 16.6056 39.8354 16.507C39.9006 16.4639 39.9538 16.4051 39.9901 16.336C40.0264 16.2669 40.0446 16.1899 40.043 16.1119C40.0428 16.0535 40.03 15.9958 40.0055 15.9427C39.981 15.8897 39.9453 15.8425 39.9009 15.8044C39.806 15.7204 39.6313 15.6708 39.3765 15.6566C39.2028 15.6448 39.0296 15.6264 38.8573 15.6015C38.708 15.6824 38.6101 15.7679 38.5629 15.8595C38.5152 15.9546 38.4918 16.0386 38.4918 16.1119ZM43.8362 15.8266C43.5738 15.8266 43.3424 15.7791 43.1424 15.684C42.9539 15.5924 42.7935 15.4521 42.6779 15.2778C42.5688 15.1022 42.514 14.8953 42.514 14.6576C42.514 14.3981 42.5886 14.1674 42.7378 13.9661C42.8911 13.7612 43.1114 13.6004 43.3992 13.4835C43.2903 13.3701 43.1999 13.2404 43.1312 13.0991C43.0762 12.9727 43.0484 12.8362 43.0495 12.6985C43.0495 12.4536 43.1347 12.2523 43.3058 12.095C43.4809 11.9341 43.7195 11.8537 44.0215 11.8537C44.2185 11.8537 44.3895 11.8921 44.5352 11.969C44.6773 12.0361 44.7959 12.1441 44.8757 12.2791C44.9555 12.4141 44.9929 12.5699 44.9829 12.7263H44.5296C44.5332 12.5614 44.4824 12.4369 44.3768 12.353C44.2748 12.269 44.1565 12.2265 44.0215 12.2265C43.8576 12.2265 43.7302 12.2705 43.6393 12.358C43.5942 12.4012 43.5588 12.4533 43.5352 12.511C43.5115 12.5687 43.5003 12.6306 43.5022 12.6929C43.5022 12.8102 43.5337 12.9236 43.5956 13.0333C43.6611 13.1431 43.7581 13.266 43.885 13.4011L45.0925 14.6247C45.1981 14.4709 45.3123 14.2863 45.4362 14.0703L45.6057 13.7744H46.092L45.8514 14.2023C45.7151 14.4539 45.5617 14.6959 45.3925 14.9267L46.2174 15.7609H45.6387L45.1306 15.2449C44.9377 15.4533 44.7372 15.6035 44.5296 15.6951C44.322 15.7826 44.0916 15.8266 43.8362 15.8266ZM42.9733 14.6414C42.9733 14.868 43.053 15.0562 43.2134 15.2064C43.3733 15.3562 43.5829 15.4315 43.8413 15.4315C44.0342 15.4315 44.2093 15.3946 44.3657 15.3218C44.5261 15.2449 44.6824 15.1204 44.8357 14.9485L43.6774 13.7688C43.4373 13.8639 43.2586 13.9843 43.1424 14.131C43.0292 14.2772 42.9733 14.4472 42.9733 14.6414ZM49.3695 15.8266C49.0893 15.8266 48.8452 15.775 48.6376 15.6728C48.4395 15.579 48.2727 15.4304 48.1569 15.2449C48.0415 15.0527 47.9829 14.8319 47.9878 14.608H48.4685C48.4685 14.7583 48.503 14.8974 48.5721 15.0253C48.6416 15.1498 48.7416 15.2505 48.8726 15.3273C49.0076 15.4002 49.1731 15.4371 49.3695 15.4371C49.6284 15.4371 49.8284 15.3749 49.9705 15.2499C50.1126 15.126 50.1837 14.9702 50.1837 14.7841C50.1837 14.6303 50.1507 14.5079 50.0852 14.4163C50.0166 14.3185 49.9247 14.2392 49.8177 14.1856C49.6957 14.1219 49.5677 14.0704 49.4355 14.0319C49.2934 13.9884 49.1441 13.9388 48.9873 13.8842C48.6924 13.7815 48.4741 13.6555 48.332 13.5053C48.1899 13.3515 48.1188 13.1522 48.1188 12.9074C48.1112 12.7169 48.16 12.5285 48.2591 12.3655C48.3582 12.2025 48.5032 12.0722 48.6761 11.9908C48.8578 11.8997 49.0731 11.8537 49.3208 11.8537C49.5644 11.8537 49.7756 11.8992 49.9542 11.9908C50.1365 12.0818 50.2766 12.2083 50.375 12.3691C50.4766 12.5305 50.5293 12.7131 50.5334 12.918H50.0527C50.0518 12.8086 50.0236 12.7011 49.9705 12.6054C49.9138 12.4968 49.8264 12.4071 49.7192 12.3474C49.6101 12.2816 49.4715 12.2488 49.304 12.2488C49.0964 12.2452 48.9254 12.2983 48.7908 12.4076C48.6594 12.5174 48.5939 12.6691 48.5939 12.8629C48.5939 13.0278 48.6396 13.1542 48.7304 13.2422C48.8254 13.3297 48.9563 13.4031 49.1238 13.4613C49.2913 13.5164 49.4842 13.5801 49.703 13.6535C49.8852 13.7193 50.0487 13.7961 50.1943 13.8842C50.34 13.9717 50.4532 14.085 50.5334 14.2241C50.6172 14.3632 50.6588 14.5407 50.6588 14.7562C50.6588 14.9394 50.6116 15.1134 50.5167 15.2773C50.4222 15.4391 50.2781 15.5707 50.0852 15.6728C49.8959 15.7755 49.6573 15.8266 49.3695 15.8266ZM52.5166 15.8266C52.2618 15.8266 52.0323 15.7679 51.8283 15.6511C51.6241 15.5336 51.4561 15.3627 51.3425 15.1569C51.2258 14.9414 51.1674 14.689 51.1674 14.3996C51.1674 14.1108 51.2278 13.8604 51.3476 13.6479C51.4679 13.4319 51.6298 13.2655 51.8339 13.1487C52.0457 13.0305 52.285 12.97 52.5277 12.9731C52.7825 12.9731 53.012 13.0318 53.216 13.1487C53.4201 13.2655 53.58 13.4319 53.6967 13.6479C53.817 13.8604 53.8769 14.1108 53.8769 14.3996C53.8769 14.689 53.817 14.9409 53.6967 15.1569C53.5764 15.3693 53.4125 15.5337 53.2049 15.6511C52.9952 15.7697 52.7576 15.8303 52.5166 15.8266ZM52.5166 15.4315C52.6734 15.4315 52.8191 15.3931 52.9536 15.3162C53.0936 15.2341 53.2073 15.1142 53.2815 14.9702C53.3653 14.8169 53.4069 14.6262 53.4069 14.3996C53.4069 14.173 53.3653 13.9828 53.2815 13.829C53.2101 13.685 53.0981 13.5649 52.9592 13.4835C52.8282 13.4076 52.6793 13.3678 52.5277 13.3682C52.3709 13.3682 52.2252 13.4066 52.0907 13.4835C51.9562 13.5604 51.8465 13.6757 51.7628 13.829C51.679 13.9828 51.6374 14.173 51.6374 14.3996C51.6374 14.6267 51.679 14.8169 51.7628 14.9702C51.8465 15.124 51.9542 15.2393 52.0851 15.3162C52.2201 15.3931 52.3638 15.4315 52.5166 15.4315ZM54.515 15.7609V11.8097H54.9738V15.7603L54.515 15.7609ZM56.7143 15.8266C56.3941 15.8266 56.1392 15.7295 55.9499 15.5357C55.7606 15.3385 55.6657 15.0365 55.6657 14.6303V13.0389H56.1245V14.5807C56.1245 15.1478 56.356 15.4315 56.8184 15.4315C57.0549 15.4315 57.2499 15.3471 57.4026 15.1786C57.5595 15.0066 57.6377 14.7638 57.6377 14.4492V13.0389H58.0965V15.7603H57.6813L57.6483 15.2722C57.5646 15.4442 57.4392 15.5798 57.2717 15.6784C57.1033 15.7784 56.9103 15.8297 56.7143 15.8266ZM59.9223 15.7609C59.6746 15.7609 59.4797 15.7001 59.3381 15.5798C59.196 15.4584 59.1249 15.2408 59.1249 14.9267V13.4284H58.6549V13.0389H59.1249L59.1848 12.3858H59.5838V13.0389H60.3812V13.4284H59.5838V14.9267C59.5838 15.0987 59.6183 15.2155 59.6873 15.2778C59.7569 15.3364 59.8787 15.3653 60.0533 15.3653H60.3375V15.7609H59.9223ZM61.2426 12.4354C61.2004 12.4365 61.1584 12.4293 61.1191 12.4142C61.0797 12.3991 61.0437 12.3764 61.0131 12.3474C60.9549 12.2848 60.9236 12.202 60.9258 12.1167C60.9258 12.0292 60.9553 11.9559 61.0131 11.8977C61.0437 11.8687 61.0797 11.846 61.1191 11.8309C61.1584 11.8158 61.2004 11.8086 61.2426 11.8097C61.2839 11.8089 61.325 11.8163 61.3635 11.8314C61.402 11.8465 61.4372 11.869 61.4669 11.8977C61.5284 11.9559 61.5593 12.0292 61.5593 12.1167C61.5593 12.2083 61.5284 12.2852 61.4669 12.3474C61.4372 12.376 61.402 12.3986 61.3635 12.4137C61.325 12.4288 61.2839 12.4362 61.2426 12.4354ZM61.0131 15.7609V13.0389H61.472V15.7603L61.0131 15.7609ZM63.5054 15.8266C63.2506 15.8266 63.0212 15.7679 62.8171 15.6511C62.613 15.5336 62.445 15.3627 62.3314 15.1569C62.2146 14.9414 62.1562 14.689 62.1562 14.3996C62.1562 14.1108 62.2166 13.8604 62.3364 13.6479C62.4567 13.4319 62.6187 13.2655 62.8227 13.1487C63.0346 13.0305 63.2739 12.97 63.5166 12.9731C63.7714 12.9731 64.0008 13.0318 64.2049 13.1487C64.4089 13.2655 64.5688 13.4319 64.6856 13.6479C64.8059 13.8604 64.8658 14.1108 64.8658 14.3996C64.8658 14.689 64.8059 14.9409 64.6856 15.1569C64.5653 15.3693 64.4013 15.5337 64.1937 15.6511C63.984 15.7696 63.7464 15.8302 63.5054 15.8266ZM63.5054 15.4315C63.6623 15.4315 63.8079 15.3931 63.9425 15.3162C64.0824 15.2341 64.1961 15.1142 64.2704 14.9702C64.3541 14.8169 64.3957 14.6262 64.3957 14.3996C64.3957 14.173 64.3541 13.9828 64.2704 13.829C64.199 13.685 64.087 13.5649 63.948 13.4835C63.817 13.4076 63.6681 13.3678 63.5166 13.3682C63.3597 13.3682 63.2141 13.4066 63.0795 13.4835C62.9397 13.5655 62.826 13.6853 62.7516 13.829C62.6679 13.9828 62.6263 14.173 62.6263 14.3996C62.6263 14.6267 62.6679 14.8169 62.7516 14.9702C62.8354 15.124 62.943 15.2393 63.074 15.3162C63.209 15.3931 63.3526 15.4315 63.5054 15.4315ZM65.5038 15.7609V13.0389H65.919L65.9459 13.527C66.0337 13.355 66.1591 13.22 66.3231 13.1213C66.4914 13.0213 66.6844 12.97 66.8804 12.9731C67.2007 12.9731 67.4555 13.0718 67.6448 13.2696C67.8382 13.4633 67.9347 13.7633 67.9347 14.1695V15.7609H67.4758V14.2185C67.4758 13.652 67.2428 13.3682 66.7763 13.3682C66.5434 13.3682 66.3484 13.4542 66.1921 13.6262C66.0388 13.7941 65.9627 14.0359 65.9627 14.3505V15.7609H65.5038ZM69.6676 15.8266C69.3432 15.8266 69.0737 15.7442 68.859 15.5798C68.6443 15.4149 68.5184 15.1918 68.4824 14.91H68.9519C68.9808 15.0527 69.0559 15.1771 69.1757 15.2833C69.2996 15.3855 69.4656 15.4366 69.6732 15.4366C69.8661 15.4366 70.0082 15.3966 70.099 15.3162C70.1418 15.2794 70.1761 15.2339 70.1997 15.1828C70.2232 15.1317 70.2355 15.0761 70.2356 15.0198C70.2356 14.8554 70.1757 14.7456 70.0554 14.691C69.9386 14.6353 69.7732 14.5863 69.5585 14.5423C69.4096 14.512 69.2634 14.4697 69.1214 14.4158C68.9841 14.3664 68.8592 14.2879 68.7554 14.1856C68.657 14.0835 68.6077 13.9499 68.6077 13.785C68.6077 13.5473 68.695 13.3535 68.8702 13.2033C69.0483 13.05 69.2889 12.9731 69.5909 12.9731C69.8787 12.9731 70.1138 13.046 70.2955 13.1927C70.4813 13.3353 70.5889 13.5402 70.6178 13.8073H70.1645C70.1585 13.7438 70.1394 13.6823 70.1084 13.6266C70.0774 13.5709 70.0351 13.5222 69.9843 13.4835C69.8858 13.4026 69.7529 13.3626 69.5854 13.3626C69.4219 13.3626 69.294 13.3975 69.2031 13.4668C69.1611 13.499 69.1273 13.5406 69.1046 13.5882C69.0818 13.6359 69.0707 13.6882 69.0722 13.741C69.0722 13.8513 69.1285 13.9368 69.2412 13.999C69.358 14.0612 69.5148 14.1143 69.7112 14.1583C69.8787 14.1947 70.0371 14.2408 70.1863 14.2954C70.3391 14.3465 70.463 14.4254 70.5579 14.5316C70.6564 14.6338 70.7056 14.7841 70.7056 14.9818C70.7092 15.2267 70.6163 15.4295 70.4269 15.5904C70.2412 15.7477 69.9879 15.8266 69.6676 15.8266Z" fill="white"/>
<path d="M23.3207 7.40344C23.5562 7.53648 23.7942 7.65789 24.0353 7.76614C24.279 7.87186 24.5307 7.96241 24.7911 8.03727C25.051 8.10961 25.3241 8.16525 25.6089 8.2042C25.8972 8.24315 26.2028 8.26288 26.5271 8.26288C26.9174 8.26288 27.2494 8.23759 27.5235 8.18751C27.7976 8.1349 28.021 8.06358 28.1925 7.97505C28.3666 7.88299 28.4925 7.77474 28.5702 7.64929C28.6504 7.52434 28.6905 7.38776 28.6905 7.24056C28.6905 7.00382 28.5925 6.81767 28.3961 6.6816C28.1991 6.54249 27.8961 6.47268 27.4865 6.47268C27.3063 6.47268 27.1164 6.48533 26.9174 6.51062C26.718 6.53237 26.5159 6.55767 26.3109 6.58549C26.1089 6.61331 25.9078 6.63961 25.7089 6.66491C25.5242 6.68646 25.3385 6.6976 25.1526 6.69829C24.869 6.69921 24.5867 6.66125 24.3135 6.58549C24.0584 6.51564 23.8178 6.40123 23.6029 6.24758C23.3993 6.0987 23.2319 5.90612 23.113 5.68407C22.9912 5.45897 22.9303 5.19593 22.9303 4.89596C22.9303 4.7179 22.9542 4.54136 23.0014 4.36583C23.0511 4.19081 23.1283 4.02388 23.2339 3.86504C23.3415 3.70418 23.48 3.55546 23.6491 3.41888C23.8338 3.27023 24.0394 3.14924 24.2592 3.05973C24.5268 2.95215 24.8055 2.87396 25.0901 2.82654C25.4452 2.76485 25.8053 2.73555 26.1657 2.73902C26.456 2.73902 26.7484 2.75572 27.0418 2.7891C27.606 2.84756 28.1627 2.9635 28.7032 3.1351C28.9605 3.21604 29.2001 3.30608 29.4214 3.40624L28.8443 4.47459C28.6615 4.39365 28.4651 4.3203 28.2544 4.25353C28.0378 4.18219 27.8175 4.12225 27.5946 4.07396C27.3585 4.02286 27.12 3.98385 26.8799 3.9571C26.6362 3.92675 26.3875 3.91158 26.1322 3.91158C25.7698 3.91158 25.4708 3.93788 25.2353 3.99049C25.0028 4.0431 24.817 4.11189 24.679 4.19485C24.5404 4.27579 24.4434 4.36735 24.3881 4.47003C24.3376 4.56227 24.3106 4.66544 24.3094 4.77051C24.3094 4.96526 24.3962 5.12511 24.5709 5.25056C24.7455 5.37297 25.0109 5.43418 25.3678 5.43418C25.5124 5.43418 25.6774 5.42406 25.8627 5.40484C26.0505 5.38258 26.2474 5.35931 26.452 5.33402C26.6601 5.30873 26.8702 5.28647 27.0834 5.26725C27.2992 5.24499 27.5083 5.23386 27.7103 5.23386C28.0925 5.23386 28.4306 5.27686 28.724 5.36285C29.0199 5.44885 29.2681 5.57329 29.4671 5.73465C29.6666 5.89298 29.8173 6.08622 29.9199 6.31435C30.0224 6.53946 30.0737 6.79289 30.0737 7.07313C30.0737 7.44897 29.9863 7.78435 29.8117 8.07926C29.6402 8.37113 29.394 8.61849 29.0727 8.82184C28.7544 9.02216 28.3697 9.17492 27.9184 9.28064C27.4667 9.38333 26.9641 9.43493 26.4109 9.43493C26.0454 9.43493 25.6881 9.41115 25.3393 9.36411C25.0006 9.32144 24.6649 9.25724 24.3343 9.17189C24.024 9.08837 23.7189 8.98668 23.4206 8.86737C23.1451 8.754 22.8773 8.62305 22.6187 8.47533L23.3207 7.40344ZM32.1086 5.34616H30.9249V4.42046H32.1086V2.88926H33.338V4.42046H34.5212V5.34616H33.338V9.34337H32.1086V5.34616ZM35.381 7.79143C35.381 7.55469 35.4323 7.3392 35.5348 7.14445C35.6374 6.9497 35.7907 6.78277 35.9957 6.64366C36.2008 6.50202 36.4551 6.39377 36.7597 6.3184C37.0673 6.2405 37.4246 6.20206 37.8312 6.20206C38.1332 6.20206 38.4504 6.22381 38.7824 6.26832C39.1174 6.31284 39.4621 6.38113 39.8164 6.47268C39.8037 6.32033 39.7554 6.17306 39.6753 6.04271C39.5905 5.90495 39.4754 5.78819 39.3387 5.70127C39.1817 5.59677 39.0075 5.52042 38.824 5.47566C38.6014 5.41997 38.3724 5.39328 38.1428 5.39624C38.0043 5.39624 37.852 5.40484 37.686 5.42153C37.3332 5.45763 36.9844 5.52466 36.6434 5.62185C36.4785 5.66931 36.3175 5.72917 36.1617 5.80092L35.7881 4.7872C35.9734 4.72043 36.1714 4.65922 36.382 4.60358C36.5952 4.54793 36.8124 4.50089 37.0338 4.46194C37.2556 4.42046 37.4769 4.38809 37.6987 4.36583C37.92 4.34357 38.1342 4.33244 38.3423 4.33244C39.2585 4.33244 39.9397 4.56766 40.3854 5.03759C40.831 5.50803 41.0539 6.22785 41.0539 7.19858V9.34337H39.8245V8.88001C39.539 9.04693 39.2336 9.17729 38.9154 9.268C38.7377 9.31858 38.5469 9.35703 38.3418 9.38485C38.1398 9.4152 37.9256 9.43037 37.6982 9.43037C37.3165 9.43037 36.9799 9.3889 36.6891 9.30543C36.4013 9.22197 36.1607 9.10663 35.9668 8.95943C35.782 8.8229 35.6313 8.64584 35.5262 8.44195C35.4287 8.23879 35.379 8.01662 35.381 7.79143ZM36.6769 7.74944C36.6769 7.83038 36.6972 7.90777 36.7393 7.98315C36.7805 8.05548 36.847 8.12074 36.9383 8.17891C37.0297 8.23455 37.1464 8.28058 37.2875 8.317C37.4312 8.35039 37.6043 8.36708 37.8063 8.36708C38.0225 8.36708 38.2312 8.34735 38.4337 8.3084C38.6357 8.26945 38.824 8.21836 38.9981 8.15412C39.1624 8.09496 39.3209 8.02097 39.4717 7.93307C39.6128 7.8496 39.7306 7.76361 39.8245 7.67458V7.45706C39.4681 7.35665 39.1044 7.28426 38.7367 7.24056C38.4516 7.20328 38.1644 7.18385 37.8769 7.18239C37.6469 7.18239 37.4561 7.19756 37.3038 7.22791C37.1515 7.25827 37.0282 7.30025 36.9343 7.35337C36.8518 7.3926 36.7825 7.4548 36.7348 7.53244C36.697 7.59857 36.677 7.67334 36.6769 7.74944ZM42.6817 4.42046H43.9111V5.12966C44.1805 4.9277 44.4684 4.75155 44.771 4.60358C45.0592 4.46124 45.3611 4.34804 45.6719 4.26567L46.0334 5.39624C45.5598 5.44379 45.143 5.55103 44.7832 5.71796C44.4378 5.87257 44.1377 6.11229 43.9111 6.41451V9.34337H42.6822L42.6817 4.42046ZM46.5734 6.90266C46.5734 6.51012 46.6465 6.15704 46.7932 5.8429C46.9348 5.53285 47.1416 5.25681 47.3998 5.03355C47.6701 4.80254 47.9833 4.62672 48.3216 4.51607C48.6949 4.3911 49.0866 4.32904 49.4804 4.33244C49.8247 4.33412 50.1677 4.37606 50.5022 4.45739C50.6626 4.49684 50.8123 4.54389 50.9504 4.59953C51.0915 4.65265 51.2164 4.71082 51.3245 4.77455V2.42236H52.5534V9.34387H51.3245V8.88052C51.2037 8.96259 51.0758 9.03369 50.9423 9.09297C50.7956 9.16025 50.6377 9.21842 50.4687 9.2685C50.2958 9.31944 50.1196 9.35848 49.9413 9.38535C49.7616 9.41571 49.5829 9.43088 49.4058 9.43088C49.0161 9.43517 48.6285 9.37325 48.2597 9.24776C47.9306 9.13549 47.627 8.95964 47.3663 8.73028C47.1176 8.50829 46.9182 8.23691 46.781 7.93357C46.6396 7.60853 46.5687 7.2574 46.5729 6.90316L46.5734 6.90266ZM47.8647 6.90266C47.8647 7.09994 47.9038 7.28659 47.9815 7.46162C48.0617 7.63664 48.1749 7.79143 48.3216 7.92447C48.4713 8.05548 48.65 8.15969 48.8576 8.23759C49.0847 8.3155 49.3235 8.35367 49.5637 8.35039C49.7296 8.35039 49.8956 8.33522 50.0616 8.30436C50.2244 8.27202 50.3842 8.22599 50.5392 8.16677C50.69 8.11059 50.8347 8.03941 50.9712 7.95431C51.1067 7.87034 51.2245 7.77727 51.3245 7.67458V5.96785C51.2022 5.86939 51.0699 5.7841 50.9296 5.71341C50.6605 5.57628 50.3699 5.48595 50.0702 5.44632C49.9286 5.42446 49.7856 5.4133 49.6423 5.41293C49.3601 5.41293 49.1078 5.45188 48.8865 5.52978C48.6823 5.59679 48.4932 5.70318 48.3302 5.8429C48.1825 5.97352 48.0648 6.13432 47.985 6.31435C47.9038 6.49982 47.8628 6.7003 47.8647 6.90266ZM54.0609 4.41591H55.2862V6.81868C55.2862 7.04733 55.3111 7.25574 55.3609 7.44492C55.4106 7.63108 55.4954 7.79092 55.6141 7.92447C55.736 8.05801 55.8969 8.16222 56.0959 8.23759C56.2984 8.30992 56.5486 8.34584 56.8476 8.34584C56.9892 8.34584 57.1313 8.33066 57.2755 8.30031C57.4222 8.26996 57.5623 8.22797 57.6948 8.17486C57.824 8.1213 57.9479 8.05576 58.0648 7.9791C58.1742 7.9095 58.2746 7.82677 58.3638 7.73275V4.41591H59.5927V9.34286H58.3638V8.9225C58.0811 9.09514 57.7747 9.22584 57.4542 9.31049C57.1496 9.38839 56.8603 9.42683 56.5862 9.42683C56.1375 9.42683 55.7527 9.37271 55.4314 9.26446C55.1132 9.1557 54.8517 8.99889 54.6467 8.79301C54.4402 8.57693 54.288 8.31518 54.2025 8.02918C54.1081 7.72617 54.0609 7.38169 54.0609 6.99472V4.41641V4.41591ZM61.3494 7.83291C61.6896 8.03624 62.0595 8.18541 62.4458 8.27502C62.8448 8.36961 63.2529 8.41666 63.6712 8.41666C63.9534 8.41666 64.1889 8.39743 64.3772 8.35848C64.5655 8.31953 64.7163 8.26945 64.83 8.20825C64.9432 8.14755 65.0234 8.07774 65.0706 7.99984C65.1157 7.92862 65.1401 7.84632 65.1411 7.76209C65.1411 7.64524 65.0899 7.54458 64.9878 7.46162C64.8878 7.37815 64.7219 7.33667 64.4894 7.33667C64.3813 7.33667 64.265 7.34325 64.1402 7.35691C64.0158 7.37107 63.8843 7.38625 63.7458 7.40294C63.6102 7.4171 63.4676 7.43127 63.3179 7.44492C63.1689 7.4589 63.0193 7.46582 62.8697 7.46566C62.5372 7.46566 62.2534 7.42975 62.0184 7.35741C61.7854 7.28508 61.5961 7.18644 61.4494 7.06099C61.3075 6.94248 61.1976 6.7905 61.1296 6.61887C61.0622 6.44165 61.0283 6.2535 61.0296 6.06396C61.0296 5.81357 61.088 5.5829 61.2043 5.37095C61.3263 5.15322 61.4968 4.96631 61.7027 4.82463C61.9184 4.66934 62.1788 4.54793 62.4834 4.46194C62.8178 4.37214 63.1629 4.32856 63.5092 4.33244C63.7057 4.33244 63.9107 4.34509 64.1239 4.37038C64.3396 4.39213 64.5513 4.42299 64.7594 4.46194C64.967 4.50089 65.166 4.54692 65.3574 4.59953C65.5482 4.65012 65.7173 4.70374 65.864 4.76241L65.4777 5.72201C65.1721 5.60721 64.8584 5.51507 64.5391 5.44632C64.2242 5.37628 63.9025 5.34133 63.5798 5.34212C63.3498 5.34212 63.1549 5.36033 62.994 5.39624C62.8587 5.42159 62.7284 5.46821 62.6077 5.53434C62.5083 5.58998 62.4347 5.65523 62.388 5.7301C62.3445 5.79885 62.3214 5.87848 62.3215 5.95975C62.3215 6.01793 62.3326 6.07104 62.3545 6.11809C62.3824 6.16868 62.4223 6.21173 62.4707 6.24354C62.526 6.27692 62.5971 6.30323 62.6829 6.32245C62.7712 6.33914 62.8793 6.34774 63.0067 6.34774C63.123 6.34774 63.2463 6.34066 63.3762 6.327C63.5062 6.31284 63.6422 6.29918 63.7833 6.28501C63.9244 6.26832 64.0696 6.25315 64.2194 6.23949C64.3716 6.22532 64.5264 6.21824 64.6843 6.21824C64.9777 6.21824 65.234 6.25315 65.4528 6.32245C65.6741 6.39225 65.8568 6.48938 66.001 6.61483C66.1446 6.73977 66.2528 6.88748 66.3248 7.05694C66.3969 7.2264 66.433 7.41154 66.433 7.61185C66.433 7.87034 66.3731 8.11112 66.2543 8.3337C66.135 8.55627 65.9579 8.7495 65.7228 8.9134C65.4873 9.07476 65.1939 9.20173 64.8422 9.29278C64.4935 9.38485 64.0894 9.43088 63.6295 9.43088C63.3559 9.4315 63.0825 9.41342 62.8113 9.37676C62.5583 9.34508 62.3073 9.29897 62.0596 9.23866C61.8215 9.17796 61.5971 9.10714 61.387 9.0262C61.1794 8.94527 60.9895 8.85927 60.818 8.76721L61.3494 7.83291ZM68.2811 5.34616H67.0974V4.42046H68.2811V2.88926H69.51V4.42046H70.6937V5.34616H69.51V9.34337H68.2811V5.34616Z" fill="white"/>
</g>
<defs>
<linearGradient id="paint0_linear_649_3935" x1="6.6876" y1="14.0855" x2="9.86363" y2="16.3508" gradientUnits="userSpaceOnUse">
<stop offset="0.578" stop-color="#3D1144"/>
<stop offset="1" stop-color="#E70C62" stop-opacity="0"/>
</linearGradient>
<linearGradient id="paint1_linear_649_3935" x1="15.2184" y1="7.60126" x2="14.0019" y2="4.03624" gradientUnits="userSpaceOnUse">
<stop offset="0.578" stop-color="#3D1144"/>
<stop offset="1" stop-color="#E70C62" stop-opacity="0"/>
</linearGradient>
<linearGradient id="paint2_linear_649_3935" x1="15.7459" y1="7.83607" x2="10.9833" y2="6.47933" gradientUnits="userSpaceOnUse">
<stop offset="0.234" stop-color="#3D1144"/>
<stop offset="0.885" stop-color="#E70C62" stop-opacity="0"/>
</linearGradient>
<linearGradient id="paint3_linear_649_3935" x1="4.52459" y1="7.79918" x2="3.39151" y2="11.3919" gradientUnits="userSpaceOnUse">
<stop offset="0.578" stop-color="#3D1144"/>
<stop offset="1" stop-color="#E70C62" stop-opacity="0"/>
</linearGradient>
<linearGradient id="paint4_linear_649_3935" x1="4.1423" y1="7.05006" x2="7.14655" y2="11.0024" gradientUnits="userSpaceOnUse">
<stop offset="0.234" stop-color="#3D1144"/>
<stop offset="0.885" stop-color="#E70C62" stop-opacity="0"/>
</linearGradient>
<linearGradient id="paint5_linear_649_3935" x1="13.286" y1="13.9501" x2="16.2858" y2="11.6869" gradientUnits="userSpaceOnUse">
<stop offset="0.578" stop-color="#3D1144"/>
<stop offset="1" stop-color="#E70C62" stop-opacity="0"/>
</linearGradient>
<linearGradient id="paint6_linear_649_3935" x1="13.2916" y1="14.5974" x2="12.9609" y2="9.63545" gradientUnits="userSpaceOnUse">
<stop offset="0.234" stop-color="#3D1144"/>
<stop offset="0.885" stop-color="#E70C62" stop-opacity="0"/>
</linearGradient>
<linearGradient id="paint7_linear_649_3935" x1="9.80497" y1="3.79352" x2="6.05324" y2="3.81732" gradientUnits="userSpaceOnUse">
<stop offset="0.578" stop-color="#3D1144"/>
<stop offset="1" stop-color="#E70C62" stop-opacity="0"/>
</linearGradient>
<linearGradient id="paint8_linear_649_3935" x1="10.3052" y1="3.28625" x2="7.57191" y2="7.4325" gradientUnits="userSpaceOnUse">
<stop offset="0.234" stop-color="#3D1144"/>
<stop offset="0.885" stop-color="#E70C62" stop-opacity="0"/>
</linearGradient>
<linearGradient id="paint9_linear_649_3935" x1="5.9624" y1="14.1649" x2="10.6254" y2="12.4963" gradientUnits="userSpaceOnUse">
<stop offset="0.234" stop-color="#3D1144"/>
<stop offset="0.885" stop-color="#E70C62" stop-opacity="0"/>
</linearGradient>
<clipPath id="clip0_649_3935">
<rect width="72.2207" height="18.3835" fill="white" transform="translate(0.740723 0.0585938)"/>
</clipPath>
</defs>
</svg>
