<svg width="99" height="16" viewBox="0 0 99 16" fill="none" xmlns="http://www.w3.org/2000/svg">
<g clip-path="url(#clip0_649_3958)">
<path d="M17.8989 9.41589H20.0551C20.1144 9.87573 20.3281 10.1885 20.6977 10.3534C21.0674 10.5184 21.5768 10.6012 22.2267 10.6012C22.936 10.6012 23.4575 10.5265 23.7923 10.3762C24.127 10.2259 24.2943 9.98134 24.2943 9.64094C24.2943 9.16079 23.9694 8.88619 23.3194 8.81551C22.6695 8.74564 21.9554 8.67821 21.1779 8.61322C20.4004 8.54822 19.6863 8.37843 19.0363 8.10301C18.3864 7.82842 18.0614 7.24591 18.0614 6.35549C18.0614 5.55525 18.4205 4.96543 19.1395 4.58521C19.8585 4.205 20.8383 4.01489 22.0789 4.01489C23.3194 4.01489 24.3455 4.20256 25.0401 4.57709C25.7348 4.95162 26.1158 5.55931 26.1848 6.39936H24.0433C23.984 5.99965 23.7801 5.72911 23.4299 5.58937C23.0806 5.44964 22.6297 5.37895 22.0789 5.37895C21.4679 5.37895 20.9959 5.44882 20.6612 5.58937C20.3265 5.72911 20.1591 5.96471 20.1591 6.29456C20.1591 6.73489 20.4841 6.98756 21.134 7.05174C21.7839 7.11673 22.4956 7.18416 23.2682 7.25403C24.0409 7.3239 24.7525 7.50182 25.4025 7.78617C26.0524 8.07052 26.3774 8.65384 26.3774 9.5337C26.3774 10.4136 26.0207 11.0139 25.3066 11.3933C24.5925 11.7736 23.5664 11.9637 22.2275 11.9637C20.8886 11.9637 19.8301 11.7711 19.1111 11.386C18.3921 11.0009 17.9883 10.3437 17.8997 9.41346L17.8989 9.41589Z" fill="white"/>
<path d="M27.6318 8.99566V4.2251H29.7588V8.83073C29.7588 9.47093 29.9334 9.90557 30.2828 10.1355C30.6321 10.3654 31.1472 10.4808 31.8264 10.4808C32.4463 10.4808 32.9687 10.3557 33.3919 10.1054C33.8152 9.8552 34.0272 9.41568 34.0272 8.78524V4.2251H36.1542V11.7855H34.0719V10.4954C33.8258 11.0056 33.4196 11.3801 32.8533 11.6206C32.287 11.8603 31.6444 11.9805 30.9262 11.9805C29.9018 11.9805 29.0975 11.7579 28.5117 11.3127C27.9259 10.8675 27.6326 10.0957 27.6326 8.99484L27.6318 8.99566Z" fill="white"/>
<path d="M37.7192 4.22574H39.7722V5.48581C40.0769 4.98617 40.5034 4.61815 41.0494 4.38335C41.5961 4.14856 42.2583 4.03076 43.0357 4.03076C44.2666 4.03076 45.226 4.33786 45.9158 4.95368C46.6047 5.56868 46.9492 6.59153 46.9492 8.02139C46.9492 9.45126 46.6047 10.4319 45.9158 11.0517C45.2269 11.6716 44.2666 11.982 43.0357 11.982C42.2875 11.982 41.6449 11.8747 41.1087 11.6594C40.5717 11.4441 40.1508 11.107 39.8462 10.6472V14.7873H37.7192V4.22574ZM44.7938 8.50072V7.51038C44.7938 6.78082 44.5818 6.26493 44.1585 5.96515C43.7352 5.66536 43.1194 5.51506 42.3127 5.51506C41.5059 5.51506 40.8674 5.6678 40.4595 5.97246C40.0509 6.27793 39.8462 6.78976 39.8462 7.51038V8.50072C39.8462 9.22053 40.055 9.73317 40.4742 10.0386C40.8926 10.3441 41.5051 10.496 42.3127 10.496C43.1202 10.496 43.7352 10.3433 44.1585 10.0386C44.5818 9.73398 44.7938 9.22134 44.7938 8.50072Z" fill="white"/>
<path d="M48.2197 8.02058C48.2197 6.61021 48.5983 5.59306 49.3571 4.9683C50.1151 4.34355 51.1981 4.03076 52.606 4.03076C54.0139 4.03076 55.0701 4.3208 55.833 4.90087C56.5958 5.48094 56.9777 6.44123 56.9777 7.78092V8.20094H50.3166V8.50072C50.3166 9.22053 50.5108 9.74373 50.8999 10.0687C51.2891 10.3937 51.857 10.5562 52.606 10.5562C53.2559 10.5562 53.7605 10.4635 54.1196 10.2783C54.4786 10.0931 54.7224 9.80548 54.8507 9.41551H56.933C56.7266 10.3059 56.2562 10.9559 55.5226 11.3653C54.789 11.7756 53.8165 11.9803 52.606 11.9803C51.1981 11.9803 50.1151 11.6781 49.3571 11.0729C48.5983 10.4676 48.2197 9.45045 48.2197 8.01977V8.02058ZM52.606 5.4257C51.9268 5.4257 51.3849 5.55325 50.9812 5.80835C50.5774 6.06345 50.3556 6.49078 50.3166 7.09117H54.8946C54.8654 6.49078 54.6655 6.06345 54.2967 5.80835C53.9278 5.55325 53.364 5.4257 52.6052 5.4257H52.606Z" fill="white"/>
<path d="M58.3955 4.22607H60.4631V5.75587C60.65 5.26598 60.9603 4.8882 61.3934 4.62335C61.8264 4.3585 62.3683 4.22607 63.0182 4.22607H64.2295V6.02641H62.7087C61.9409 6.02641 61.3844 6.16858 61.0399 6.45374C60.6955 6.7389 60.5232 7.20605 60.5232 7.85599V11.7865H58.3963V4.22607H58.3955Z" fill="white"/>
<path d="M66.6077 9.79105V5.81586H65.5889V4.22594H66.6077V3.35584C66.6077 2.54585 66.7994 1.92353 67.1837 1.48807C67.5679 1.05342 68.2861 0.835693 69.3398 0.835693H71.5253V2.42561H69.7087C69.3447 2.42561 69.0937 2.50279 68.9556 2.65796C68.8174 2.81314 68.7484 3.06093 68.7484 3.40052V4.22594H71.5253V5.81586H68.7484V11.7864H66.6068V9.79105" fill="white"/>
<path d="M72.6623 9.71611C72.6623 8.9963 72.9133 8.43329 73.4154 8.02871C73.9175 7.62412 74.7543 7.39664 75.9266 7.34627L79.0723 7.24147V6.98636C79.0723 6.4266 78.9074 6.02851 78.5775 5.79372C78.2477 5.55893 77.7481 5.44113 77.0786 5.44113C76.488 5.44113 76.0273 5.52156 75.6975 5.6808C75.3676 5.84084 75.158 6.11057 75.0695 6.49078H72.9279C73.0457 5.6808 73.4446 5.06823 74.1238 4.65308C74.803 4.23793 75.7877 4.03076 77.0778 4.03076C78.4565 4.03076 79.4874 4.27043 80.1715 4.75057C80.8556 5.23071 81.1976 5.97571 81.1976 6.98555V11.7862H79.1592V10.5261C78.883 10.9859 78.4597 11.3434 77.8894 11.5985C77.3183 11.8536 76.609 11.9812 75.7625 11.9812C74.6795 11.9812 73.8915 11.7764 73.3991 11.3661C72.9068 10.9559 72.6606 10.4059 72.6606 9.71611H72.6623ZM74.8038 9.6105C74.8038 9.94034 74.9314 10.1833 75.1881 10.3376C75.444 10.4928 75.8527 10.57 76.414 10.57C77.172 10.57 77.8049 10.4229 78.3119 10.1272C78.8188 9.83229 79.0723 9.34971 79.0723 8.67946V8.3943L76.3994 8.48448C75.8478 8.51454 75.444 8.59984 75.1881 8.73958C74.9322 8.88013 74.8038 9.11979 74.8038 9.45939V9.60968V9.6105Z" fill="white"/>
<path d="M82.4399 9.41589H84.5961C84.6554 9.87573 84.8691 10.1885 85.2387 10.3534C85.6084 10.5184 86.1178 10.6012 86.7677 10.6012C87.477 10.6012 87.9986 10.5265 88.3333 10.3762C88.668 10.2259 88.8353 9.98134 88.8353 9.64094C88.8353 9.16079 88.5104 8.88619 87.8604 8.81551C87.2105 8.74564 86.4964 8.67821 85.7189 8.61322C84.9406 8.54822 84.2273 8.37843 83.5773 8.10301C82.9274 7.82842 82.6024 7.24591 82.6024 6.35549C82.6024 5.55525 82.9615 4.96543 83.6805 4.58521C84.3987 4.205 85.3793 4.01489 86.6199 4.01489C87.8604 4.01489 88.8865 4.20256 89.5812 4.57709C90.275 4.95243 90.6568 5.55931 90.7259 6.39936H88.5843C88.525 5.99965 88.3211 5.72911 87.9717 5.58937C87.6224 5.44964 87.1715 5.37895 86.6207 5.37895C86.0097 5.37895 85.5377 5.44882 85.203 5.58937C84.8683 5.72911 84.7009 5.96471 84.7009 6.29456C84.7009 6.73489 85.0259 6.98756 85.6758 7.05174C86.3258 7.11673 87.0366 7.18416 87.8101 7.25403C88.5827 7.3239 89.2944 7.50182 89.9443 7.78617C90.5942 8.07052 90.9192 8.65384 90.9192 9.5337C90.9192 10.4136 90.5626 11.0139 89.8484 11.3933C89.1343 11.7736 88.1082 11.9637 86.7694 11.9637C85.4305 11.9637 84.3719 11.7711 83.6529 11.386C82.9339 11.0009 82.5301 10.3437 82.4416 9.41346L82.4399 9.41589Z" fill="white"/>
<path d="M93.1028 9.38602V5.81622H92.1133V4.22631H93.1028V1.91577H95.2444V4.22631H97.8588V5.81622H95.2444V9.16179C95.2444 9.51194 95.3305 9.77192 95.5027 9.94172C95.675 10.1115 95.9682 10.1968 96.3818 10.1968H97.8588V11.7867H95.5255C94.6692 11.7867 94.0509 11.5966 93.6723 11.2164C93.2929 10.8362 93.1036 10.2261 93.1036 9.38602H93.1028Z" fill="white"/>
<path d="M12.0152 0.780598H4.56932C4.24029 0.780598 3.973 1.04707 3.973 1.37692V3.33242C3.973 3.81338 3.62285 4.21147 3.16301 4.28865H1.50892C1.17989 4.28865 0.912598 4.55512 0.912598 4.88497V7.20038C0.912598 7.52941 1.17907 7.7967 1.50892 7.7967H3.82433C4.15336 7.7967 4.42065 7.53022 4.42065 7.20038V5.21887C4.43852 4.73386 4.81143 4.33902 5.28751 4.28946H12.0152C12.3442 4.28946 12.6115 4.02299 12.6115 3.69314V1.37611C12.6115 1.04707 12.345 0.779785 12.0152 0.779785V0.780598Z" fill="white"/>
<path d="M12.0152 7.8269H9.69979C9.37075 7.8269 9.10347 8.09338 9.10347 8.42322V10.4047C9.08559 10.8897 8.71269 11.2846 8.23661 11.3341H1.50892C1.17989 11.3341 0.912598 11.6006 0.912598 11.9305V14.2459C0.912598 14.5749 1.17907 14.8422 1.50892 14.8422H8.9556C9.28464 14.8422 9.55192 14.5757 9.55192 14.2459V12.2912C9.55192 11.8102 9.90208 11.4121 10.3619 11.335H12.016C12.345 11.335 12.6123 11.0685 12.6123 10.7386V8.42322C12.6123 8.09419 12.3459 7.8269 12.016 7.8269H12.0152Z" fill="white"/>
</g>
<defs>
<clipPath id="clip0_649_3958">
<rect width="97.491" height="14.7463" fill="white" transform="translate(0.708984 0.543457)"/>
</clipPath>
</defs>
</svg>
