<svg width="139" height="22" viewBox="0 0 139 22" fill="none" xmlns="http://www.w3.org/2000/svg">
<g clip-path="url(#clip0_670_3999)">
<path d="M24.7456 13.0745H27.7965C27.8804 13.7252 28.1828 14.1678 28.7058 14.4011C29.2289 14.6345 29.9496 14.7517 30.8693 14.7517C31.8728 14.7517 32.6109 14.646 33.0845 14.4333C33.5581 14.2206 33.7949 13.8746 33.7949 13.393C33.7949 12.7136 33.3351 12.325 32.4154 12.225C31.4958 12.1262 30.4853 12.0307 29.3852 11.9388C28.2851 11.8468 27.2746 11.6066 26.355 11.2169C25.4353 10.8283 24.9755 10.0041 24.9755 8.74418C24.9755 7.61187 25.4836 6.77729 26.501 6.2393C27.5183 5.70131 28.9047 5.43231 30.6601 5.43231C32.4154 5.43231 33.8673 5.69786 34.8502 6.2278C35.833 6.75775 36.3722 7.61761 36.4699 8.80625H33.4397C33.3558 8.24067 33.0672 7.85787 32.5718 7.66015C32.0775 7.46242 31.4395 7.36241 30.6601 7.36241C29.7956 7.36241 29.1277 7.46127 28.6541 7.66015C28.1805 7.85787 27.9437 8.19124 27.9437 8.65796C27.9437 9.28102 28.4035 9.63853 29.3231 9.72934C30.2428 9.82131 31.2498 9.91672 32.343 10.0156C33.4362 10.1144 34.4432 10.3662 35.3629 10.7685C36.2825 11.1709 36.7423 11.9963 36.7423 13.2412C36.7423 14.4862 36.2377 15.3357 35.2272 15.8726C34.2168 16.4105 32.7649 16.6795 30.8704 16.6795C28.976 16.6795 27.4781 16.4071 26.4607 15.8622C25.4434 15.3173 24.8721 14.3873 24.7468 13.0711L24.7456 13.0745Z" fill="#151A1A"/>
<path d="M38.5176 12.4797V5.72957H41.5271V12.2464C41.5271 13.1522 41.7743 13.7672 42.2686 14.0926C42.7629 14.4179 43.4917 14.5811 44.4527 14.5811C45.3298 14.5811 46.069 14.4041 46.6679 14.05C47.2668 13.696 47.5669 13.0741 47.5669 12.182V5.72957H50.5764V16.4273H47.6301V14.6018C47.2818 15.3237 46.707 15.8537 45.9058 16.194C45.1045 16.5331 44.1952 16.7032 43.179 16.7032C41.7294 16.7032 40.5914 16.3882 39.7625 15.7583C38.9337 15.1283 38.5187 14.0362 38.5187 12.4786L38.5176 12.4797Z" fill="#151A1A"/>
<path d="M52.7905 5.73083H55.6954V7.51379C56.1265 6.80682 56.73 6.28607 57.5025 5.95385C58.2762 5.62163 59.2131 5.45494 60.3132 5.45494C62.0548 5.45494 63.4124 5.88947 64.3884 6.76083C65.3632 7.63105 65.8506 9.07833 65.8506 11.1015C65.8506 13.1248 65.3632 14.5123 64.3884 15.3894C63.4136 16.2665 62.0548 16.7056 60.3132 16.7056C59.2545 16.7056 58.3452 16.5539 57.5865 16.2493C56.8266 15.9446 56.2311 15.4676 55.8001 14.8169V20.675H52.7905V5.73083ZM62.8008 11.7798V10.3785C62.8008 9.34618 62.5008 8.61621 61.9019 8.19203C61.303 7.76784 60.4316 7.55518 59.2901 7.55518C58.1486 7.55518 57.245 7.77129 56.668 8.20237C56.0897 8.63461 55.8001 9.35883 55.8001 10.3785V11.7798C55.8001 12.7983 56.0955 13.5237 56.6887 13.9559C57.2807 14.3881 58.1474 14.6031 59.2901 14.6031C60.4328 14.6031 61.303 14.387 61.9019 13.9559C62.5008 13.5248 62.8008 12.7994 62.8008 11.7798Z" fill="#151A1A"/>
<path d="M67.6484 11.1004C67.6484 9.10477 68.1841 7.66553 69.2578 6.78153C70.3303 5.89752 71.8627 5.45494 73.8549 5.45494C75.8471 5.45494 77.3415 5.86533 78.4209 6.68611C79.5003 7.50689 80.0406 8.86567 80.0406 10.7613V11.3556H70.6154V11.7798C70.6154 12.7983 70.8902 13.5386 71.4408 13.9984C71.9915 14.4582 72.795 14.6882 73.8549 14.6882C74.7745 14.6882 75.4884 14.5571 75.9965 14.295C76.5046 14.0329 76.8495 13.626 77.0311 13.0742H79.9774C79.6854 14.3341 79.0198 15.2537 77.9818 15.8331C76.9437 16.4136 75.5677 16.7033 73.8549 16.7033C71.8627 16.7033 70.3303 16.2757 69.2578 15.4193C68.1841 14.5629 67.6484 13.1236 67.6484 11.0992V11.1004ZM73.8549 7.42872C72.8939 7.42872 72.1271 7.6092 71.5558 7.97016C70.9844 8.33112 70.6706 8.93579 70.6154 9.78531H77.0932C77.0518 8.93579 76.769 8.33112 76.2471 7.97016C75.7252 7.6092 74.9274 7.42872 73.8537 7.42872H73.8549Z" fill="#151A1A"/>
<path d="M82.0464 5.73129H84.972V7.8959C85.2364 7.20272 85.6755 6.66818 86.2882 6.29342C86.901 5.91867 87.6677 5.73129 88.5874 5.73129H90.3013V8.2787H88.1494C87.063 8.2787 86.2756 8.47988 85.7882 8.88337C85.3008 9.28686 85.0571 9.94786 85.0571 10.8675V16.429H82.0475V5.73129H82.0464Z" fill="#151A1A"/>
<path d="M93.6662 13.6056V7.98079H92.2246V5.73111H93.6662V4.49994C93.6662 3.35383 93.9374 2.47327 94.4812 1.85711C95.0249 1.2421 96.0411 0.934021 97.5321 0.934021H100.624V3.1837H98.054C97.539 3.1837 97.1838 3.29291 96.9884 3.51247C96.7929 3.73203 96.6952 4.08265 96.6952 4.56316V5.73111H100.624V7.98079H96.6952V16.4289H93.665V13.6056" fill="#151A1A"/>
<path d="M102.234 13.4995C102.234 12.481 102.589 11.6844 103.299 11.1119C104.01 10.5394 105.194 10.2175 106.853 10.1463L111.304 9.99798V9.63702C111.304 8.84497 111.07 8.28169 110.604 7.94947C110.137 7.61725 109.43 7.45057 108.483 7.45057C107.647 7.45057 106.995 7.56437 106.528 7.78968C106.062 8.01615 105.765 8.3978 105.64 8.93579H102.61C102.776 7.78968 103.341 6.92292 104.302 6.3355C105.263 5.74808 106.656 5.45494 108.482 5.45494C110.432 5.45494 111.891 5.79406 112.859 6.47345C113.827 7.15283 114.311 8.20697 114.311 9.63587V16.4286H111.427V14.6456C111.036 15.2963 110.437 15.8021 109.63 16.163C108.822 16.524 107.818 16.7045 106.62 16.7045C105.088 16.7045 103.973 16.4148 103.276 15.8343C102.58 15.2537 102.231 14.4755 102.231 13.4995H102.234ZM105.264 13.3501C105.264 13.8168 105.444 14.1605 105.808 14.3789C106.17 14.5985 106.748 14.7077 107.542 14.7077C108.615 14.7077 109.51 14.4996 110.228 14.0812C110.945 13.6639 111.304 12.9811 111.304 12.0327V11.6292L107.522 11.7568C106.741 11.7993 106.17 11.92 105.808 12.1178C105.446 12.3166 105.264 12.6557 105.264 13.1363V13.3489V13.3501Z" fill="#151A1A"/>
<path d="M116.068 13.0745H119.119C119.203 13.7252 119.506 14.1678 120.029 14.4011C120.552 14.6345 121.272 14.7517 122.192 14.7517C123.196 14.7517 123.934 14.646 124.407 14.4333C124.881 14.2206 125.118 13.8746 125.118 13.393C125.118 12.7136 124.658 12.325 123.738 12.225C122.819 12.1262 121.808 12.0307 120.708 11.9388C119.607 11.8468 118.597 11.6066 117.678 11.2169C116.758 10.8283 116.298 10.0041 116.298 8.74418C116.298 7.61187 116.806 6.77729 117.824 6.2393C118.84 5.70131 120.227 5.43231 121.983 5.43231C123.738 5.43231 125.19 5.69786 126.173 6.2278C127.155 6.7589 127.695 7.61761 127.793 8.80625H124.762C124.679 8.24067 124.39 7.85787 123.896 7.66015C123.401 7.46242 122.763 7.36241 121.984 7.36241C121.119 7.36241 120.452 7.46127 119.978 7.66015C119.504 7.85787 119.268 8.19124 119.268 8.65796C119.268 9.28102 119.727 9.63853 120.647 9.72934C121.567 9.82131 122.573 9.91672 123.667 10.0156C124.76 10.1144 125.767 10.3662 126.687 10.7685C127.606 11.1709 128.066 11.9963 128.066 13.2412C128.066 14.4862 127.562 15.3357 126.551 15.8726C125.541 16.4105 124.089 16.6795 122.194 16.6795C120.3 16.6795 118.802 16.4071 117.785 15.8622C116.767 15.3173 116.196 14.3873 116.071 13.0711L116.068 13.0745Z" fill="#151A1A"/>
<path d="M131.157 13.0323V7.98113H129.756V5.73146H131.157V2.46213H134.187V5.73146H137.886V7.98113H134.187V12.715C134.187 13.2105 134.309 13.5783 134.552 13.8186C134.796 14.0588 135.211 14.1795 135.796 14.1795H137.886V16.4292H134.584C133.373 16.4292 132.498 16.1602 131.962 15.6222C131.426 15.0842 131.158 14.2209 131.158 13.0323H131.157Z" fill="#151A1A"/>
<path d="M16.4203 0.855703H5.88459C5.41902 0.855703 5.04082 1.23276 5.04082 1.69948V4.46645C5.04082 5.14699 4.54536 5.71027 3.89471 5.81948H1.55422C1.08865 5.81948 0.710449 6.19653 0.710449 6.66325V9.93948C0.710449 10.405 1.0875 10.7832 1.55422 10.7832H4.83045C5.29602 10.7832 5.67422 10.4062 5.67422 9.93948V7.13571C5.69951 6.44943 6.22716 5.89075 6.9008 5.82063H16.4203C16.8858 5.82063 17.264 5.44357 17.264 4.97685V1.69833C17.264 1.23276 16.887 0.854553 16.4203 0.854553V0.855703Z" fill="#151A1A"/>
<path d="M16.4202 10.8259H13.144C12.6785 10.8259 12.3002 11.203 12.3002 11.6697V14.4735C12.275 15.1598 11.7473 15.7184 11.0737 15.7886H1.55422C1.08865 15.7886 0.710449 16.1656 0.710449 16.6323V19.9086C0.710449 20.3741 1.0875 20.7523 1.55422 20.7523H12.091C12.5566 20.7523 12.9348 20.3753 12.9348 19.9086V17.1427C12.9348 16.4622 13.4303 15.8989 14.0809 15.7897H16.4214C16.887 15.7897 17.2652 15.4127 17.2652 14.9459V11.6697C17.2652 11.2041 16.8881 10.8259 16.4214 10.8259H16.4202Z" fill="#151A1A"/>
</g>
<defs>
<clipPath id="clip0_670_3999">
<rect width="137.946" height="20.8655" fill="white" transform="translate(0.421875 0.520157)"/>
</clipPath>
</defs>
</svg>
