<svg width="88" height="24" viewBox="0 0 88 24" fill="none" xmlns="http://www.w3.org/2000/svg">
<g clip-path="url(#clip0_649_3972)">
<path d="M28.6787 7.3833V8.44876H31.7791V16.6522H32.9467V8.44876H36.0471V7.3833H28.6787Z" fill="white"/>
<path d="M36.2886 13.3095C36.2886 15.3334 37.6306 16.7318 39.6838 16.7318C41.2132 16.7318 42.4487 15.7867 42.7171 14.4282H41.6033C41.3752 15.3072 40.5154 15.7596 39.6033 15.7596C38.3284 15.7596 37.4829 14.8806 37.4427 13.6158V13.5226H42.757C42.7704 13.3628 42.7838 13.203 42.7838 13.0564C42.7301 11.0454 41.4145 9.8335 39.5362 9.8335C37.6037 9.8335 36.2886 11.2186 36.2886 13.3095ZM37.5098 12.6169C37.6171 11.5116 38.5431 10.7924 39.5496 10.7924C40.6362 10.7924 41.4955 11.445 41.6029 12.6169H37.5098Z" fill="white"/>
<path d="M52.3825 9.8335C51.1613 9.8335 50.4232 10.3928 50.0072 11.1253C49.618 10.2597 48.7994 9.8335 47.8466 9.8335C46.7864 9.8335 46.2094 10.3529 45.847 10.8457L45.7535 9.9134H44.7466V16.6519H45.847V13.1231C45.847 11.7646 46.5314 10.8323 47.6587 10.8323C48.7055 10.8323 49.3094 11.5249 49.3094 12.8567V16.6519H50.4098V13.0698C50.4098 11.6847 51.1077 10.8323 52.2486 10.8323C53.2815 10.8323 53.872 11.5249 53.872 12.8567V16.6519H54.9724V12.7901C54.9724 10.6459 53.8051 9.8335 52.3825 9.8335Z" fill="white"/>
<path d="M60.4357 9.8335C59.2815 9.8335 58.5433 10.3795 58.0872 11.0055L57.9939 9.9134H56.9868V19.3155H58.0872V15.6131C58.5032 16.2657 59.2815 16.7318 60.4357 16.7318C62.2738 16.7318 63.7237 15.3334 63.7237 13.3095C63.7237 11.0987 62.2738 9.8335 60.4357 9.8335ZM60.3281 15.7596C58.9862 15.7596 58.0735 14.7208 58.0735 13.2829C58.0735 11.8312 58.9862 10.8057 60.3281 10.8057C61.6294 10.8057 62.5964 11.8312 62.5964 13.3095C62.5964 14.7341 61.6294 15.7596 60.3281 15.7596Z" fill="white"/>
<path d="M68.6783 16.7318C70.6777 16.7318 72.0734 15.3201 72.0734 13.3095C72.0734 11.2452 70.6777 9.8335 68.6783 9.8335C66.6784 9.8335 65.2827 11.2452 65.2827 13.3095C65.2827 15.3201 66.6784 16.7318 68.6783 16.7318ZM68.6783 15.7596C67.3227 15.7596 66.41 14.7075 66.41 13.3095C66.41 11.8578 67.3227 10.8057 68.6783 10.8057C70.0334 10.8057 70.9461 11.8578 70.9461 13.3095C70.9461 14.7075 70.0334 15.7596 68.6783 15.7596Z" fill="white"/>
<path d="M77.0464 9.91382C75.8252 9.91382 75.1936 10.4199 74.8714 10.9393L74.778 9.91382H73.771V16.6523H74.8714V13.2433C74.8714 12.1646 75.3686 10.9793 76.8049 10.9793H77.3548V9.91382H77.0464Z" fill="white"/>
<path d="M84.7046 15.5994C84.423 15.5994 84.2485 15.4932 84.2485 15.1603V12.284C84.2485 10.6992 83.2962 9.8335 81.5515 9.8335C79.9006 9.8335 78.8139 10.6193 78.6526 11.9511H79.753C79.8874 11.2586 80.5318 10.8057 81.4977 10.8057C82.5712 10.8057 83.1481 11.3385 83.1481 12.2174V12.6836H81.1893C79.3908 12.6836 78.438 13.389 78.438 14.7474C78.438 15.986 79.4577 16.7318 80.961 16.7318C82.142 16.7318 82.7722 16.2124 83.2019 15.5998C83.2151 16.2657 83.524 16.6519 84.4362 16.6519H85.0405V15.5994H84.7046ZM83.1481 13.8817C83.1481 15.0138 82.4104 15.7996 81.0416 15.7996C80.1289 15.7996 79.5521 15.3467 79.5521 14.6808C79.5521 13.9084 80.102 13.6025 81.0817 13.6025H83.1481V13.8817Z" fill="white"/>
<path d="M86.6011 7.3833V16.6522H87.7015V7.3833H86.6011Z" fill="white"/>
<path d="M15.2851 8.09156C14.7652 4.23319 13.4542 1.00854 11.4311 1.00854C9.41374 1.00854 8.09706 4.23319 7.57714 8.09156C3.68926 8.60752 0.439941 9.90858 0.439941 11.9163C0.439941 13.9184 3.68926 15.225 7.57714 15.741C8.09706 19.5994 9.40806 22.824 11.4311 22.824C13.4485 22.824 14.7652 19.5994 15.2851 15.741C19.173 15.225 22.4223 13.9239 22.4223 11.9163C22.4223 9.90858 19.173 8.60189 15.2851 8.09156ZM7.45284 14.6081C3.72882 14.0754 1.55318 12.8528 1.55318 11.9106C1.55318 10.9685 3.72317 9.74593 7.45284 9.21318C7.36807 10.1049 7.32849 11.0134 7.32849 11.9106C7.32849 12.808 7.36807 13.7221 7.45284 14.6081ZM11.4311 2.10773C12.3805 2.10773 13.6124 4.26123 14.1493 7.96254C13.2507 7.87843 12.3353 7.83921 11.4311 7.83921C10.527 7.83921 9.6115 7.88406 8.71301 7.96254C9.24982 4.26684 10.4817 2.10773 11.4311 2.10773ZM15.4094 14.6081C15.2286 14.6362 14.4714 14.7203 14.2849 14.7427C14.2679 14.9334 14.1775 15.6793 14.1493 15.8588C13.6124 19.5545 12.3805 21.7136 11.4311 21.7136C10.4817 21.7136 9.24982 19.5601 8.71301 15.8588C8.68475 15.6793 8.59998 14.9278 8.57735 14.7427C8.49263 13.8679 8.43611 12.9257 8.43611 11.9106C8.43611 10.8956 8.48694 9.95906 8.57735 9.07858C9.45895 8.99446 10.4083 8.93835 11.4311 8.93835C12.454 8.93835 13.3977 8.98883 14.2849 9.07858C14.477 9.09537 15.2286 9.18512 15.4094 9.21318C19.1334 9.74593 21.3091 10.9685 21.3091 11.9106C21.3091 12.8528 19.1334 14.0754 15.4094 14.6081Z" fill="white"/>
</g>
<defs>
<clipPath id="clip0_649_3972">
<rect width="87.2617" height="22.3228" fill="white" transform="translate(0.439941 0.755127)"/>
</clipPath>
</defs>
</svg>
