<svg width="124" height="32" viewBox="0 0 124 32" fill="none" xmlns="http://www.w3.org/2000/svg">
<g clip-path="url(#clip0_670_4013)">
<path d="M40.189 9.53835V11.0459H44.576V22.6536H46.228V11.0459H50.615V9.53835H40.189Z" fill="#151A1A"/>
<path d="M50.957 17.9237C50.957 20.7875 52.8559 22.7661 55.7612 22.7661C57.9253 22.7661 59.6735 21.4288 60.0532 19.5067H58.4771C58.1544 20.7504 56.9378 21.3905 55.6473 21.3905C53.8433 21.3905 52.647 20.1468 52.59 18.3572V18.2252H60.1096C60.1286 17.9991 60.1475 17.773 60.1475 17.5657C60.0716 14.7201 58.2101 13.0053 55.5523 13.0053C52.8179 13.0053 50.957 14.9651 50.957 17.9237ZM52.685 16.9438C52.8369 15.3797 54.1471 14.3621 55.5713 14.3621C57.1088 14.3621 58.3247 15.2855 58.4766 16.9438H52.685Z" fill="#151A1A"/>
<path d="M73.7294 13.0053C72.0015 13.0053 70.957 13.7967 70.3684 14.8332C69.8177 13.6083 68.6594 13.0053 67.3112 13.0053C65.8111 13.0053 64.9946 13.7402 64.4819 14.4375L64.3495 13.1184H62.9248V22.6531H64.4819V17.6599C64.4819 15.7378 65.4503 14.4186 67.0454 14.4186C68.5265 14.4186 69.381 15.3986 69.381 17.283V22.6531H70.9381V17.5845C70.9381 15.6247 71.9255 14.4186 73.5398 14.4186C75.0014 14.4186 75.837 15.3986 75.837 17.283V22.6531H77.394V17.1888C77.394 14.1548 75.7422 13.0053 73.7294 13.0053Z" fill="#151A1A"/>
<path d="M85.1242 13.0053C83.491 13.0053 82.4465 13.7779 81.8012 14.6636L81.6691 13.1184H80.2441V26.422H81.8012V21.1833C82.3898 22.1066 83.491 22.7661 85.1242 22.7661C87.725 22.7661 89.7766 20.7875 89.7766 17.9237C89.7766 14.7955 87.725 13.0053 85.1242 13.0053ZM84.972 21.3905C83.0732 21.3905 81.7818 19.9206 81.7818 17.886C81.7818 15.832 83.0732 14.3809 84.972 14.3809C86.8133 14.3809 88.1815 15.832 88.1815 17.9237C88.1815 19.9395 86.8133 21.3905 84.972 21.3905Z" fill="#151A1A"/>
<path d="M96.7871 22.7661C99.6162 22.7661 101.591 20.7686 101.591 17.9237C101.591 15.0028 99.6162 13.0053 96.7871 13.0053C93.9573 13.0053 91.9824 15.0028 91.9824 17.9237C91.9824 20.7686 93.9573 22.7661 96.7871 22.7661ZM96.7871 21.3905C94.8689 21.3905 93.5775 19.9018 93.5775 17.9237C93.5775 15.8696 94.8689 14.3809 96.7871 14.3809C98.7045 14.3809 99.9959 15.8696 99.9959 17.9237C99.9959 19.9018 98.7045 21.3905 96.7871 21.3905Z" fill="#151A1A"/>
<path d="M108.628 13.1193C106.9 13.1193 106.006 13.8354 105.55 14.5703L105.418 13.1193H103.993V22.654H105.55V17.8304C105.55 16.304 106.254 14.6269 108.286 14.6269H109.064V13.1193H108.628Z" fill="#151A1A"/>
<path d="M119.464 21.1638C119.065 21.1638 118.818 21.0136 118.818 20.5425V16.4727C118.818 14.2302 117.471 13.0053 115.002 13.0053C112.666 13.0053 111.129 14.1171 110.9 16.0016H112.457C112.648 15.0217 113.559 14.3809 114.926 14.3809C116.445 14.3809 117.261 15.1348 117.261 16.3785V17.038H114.49C111.945 17.038 110.597 18.0362 110.597 19.9583C110.597 21.7109 112.04 22.7661 114.167 22.7661C115.838 22.7661 116.729 22.0313 117.337 21.1644C117.356 22.1066 117.793 22.6531 119.084 22.6531H119.939V21.1638H119.464ZM117.261 18.7334C117.261 20.3352 116.218 21.4471 114.281 21.4471C112.989 21.4471 112.173 20.8063 112.173 19.8641C112.173 18.7711 112.951 18.3383 114.337 18.3383H117.261V18.7334Z" fill="#151A1A"/>
<path d="M122.147 9.53835V22.6536H123.705V9.53835H122.147Z" fill="#151A1A"/>
<path d="M21.2378 10.5409C20.5022 5.08139 18.6471 0.518631 15.7846 0.518631C12.93 0.518631 11.067 5.08139 10.3313 10.5409C4.8301 11.2709 0.232422 13.1119 0.232422 15.9527C0.232422 18.7856 4.8301 20.6344 10.3313 21.3645C11.067 26.824 12.922 31.3867 15.7846 31.3867C18.6391 31.3867 20.5022 26.824 21.2378 21.3645C26.7391 20.6344 31.3368 18.7935 31.3368 15.9527C31.3368 13.1119 26.7391 11.263 21.2378 10.5409ZM10.1554 19.7616C4.88607 19.0078 1.80762 17.2779 1.80762 15.9447C1.80762 14.6116 4.87808 12.8817 10.1554 12.1279C10.0355 13.3896 9.97949 14.6751 9.97949 15.9447C9.97949 17.2144 10.0355 18.5078 10.1554 19.7616ZM15.7846 2.07394C17.1279 2.07394 18.871 5.12107 19.6306 10.3583C18.3592 10.2393 17.0639 10.1838 15.7846 10.1838C14.5053 10.1838 13.2099 10.2472 11.9385 10.3583C12.6981 5.12901 14.4412 2.07394 15.7846 2.07394ZM21.4137 19.7616C21.1578 19.8013 20.0864 19.9203 19.8225 19.952C19.7986 20.2218 19.6706 21.2772 19.6306 21.5312C18.871 26.7605 17.1279 29.8155 15.7846 29.8155C14.4412 29.8155 12.6981 26.7684 11.9385 21.5312C11.8986 21.2772 11.7786 20.2139 11.7466 19.952C11.6267 18.7142 11.5467 17.381 11.5467 15.9447C11.5467 14.5085 11.6187 13.1833 11.7466 11.9375C12.994 11.8184 14.3373 11.739 15.7846 11.739C17.2318 11.739 18.5672 11.8105 19.8225 11.9375C20.0944 11.9612 21.1578 12.0882 21.4137 12.1279C26.6831 12.8817 29.7616 14.6116 29.7616 15.9447C29.7616 17.2779 26.6831 19.0078 21.4137 19.7616Z" fill="#151A1A"/>
</g>
<defs>
<clipPath id="clip0_670_4013">
<rect width="123.472" height="31.586" fill="white" transform="translate(0.231934 0.159943)"/>
</clipPath>
</defs>
</svg>
