<svg width="280" height="280" viewBox="0 0 280 280" fill="none" xmlns="http://www.w3.org/2000/svg">
<path d="M140 10.5C140 4.70101 144.708 -0.0409558 150.49 0.393564C166.274 1.57961 181.769 5.43603 196.308 11.8227C214.056 19.6194 229.992 31.0171 243.105 45.2938C256.219 59.5705 266.225 76.4151 272.489 94.7604C277.62 109.788 280.149 125.554 279.993 141.382C279.936 147.181 274.812 151.469 269.034 150.978C263.256 150.486 259.019 145.399 258.999 139.6C258.956 126.676 256.807 113.821 252.616 101.546C247.291 85.9528 238.786 71.635 227.64 59.4998C216.493 47.3646 202.948 37.6765 187.862 31.0493C175.986 25.8325 163.36 22.6018 150.486 21.4629C144.71 20.9519 140 16.299 140 10.5Z" fill="#EB8302"/>
<path d="M267.724 161.374C273.443 162.331 277.343 167.757 275.96 173.388C270.545 195.439 259.833 215.898 244.687 232.955C227.211 252.636 204.542 266.992 179.279 274.377C154.017 281.761 127.184 281.875 101.86 274.705C76.5353 267.534 53.7451 253.37 36.1037 233.838C18.4623 214.306 6.68415 190.196 2.12055 164.275C-2.44305 138.353 0.392728 111.671 10.3026 87.2878C20.2124 62.9048 36.7949 41.8092 58.1476 26.421C76.6538 13.0842 98.0936 4.50285 120.58 1.35335C126.323 0.548991 131.325 4.97938 131.697 10.7664C132.069 16.5535 127.667 21.4988 121.935 22.3791C103.39 25.2273 85.7278 32.43 70.4254 43.4579C52.2756 56.5378 38.1805 74.4691 29.7572 95.1946C21.3338 115.92 18.9234 138.6 22.8025 160.633C26.6815 182.666 36.6929 203.16 51.6882 219.762C66.6834 236.365 86.055 248.404 107.581 254.499C129.106 260.594 151.914 260.497 173.387 254.22C194.861 247.944 214.13 235.741 228.984 219.012C241.508 204.908 250.465 188.068 255.181 169.907C256.638 164.294 262.005 160.417 267.724 161.374Z" fill="#308D8A"/>
<path d="M52.0708 141.5L61.7583 122.367V122.337H50.5117V118.946H65.8149V122.367L56.1729 141.5H52.0708ZM75.9717 141.863C74.1654 141.863 72.6012 141.389 71.2793 140.44C69.9674 139.492 68.9583 138.15 68.252 136.414C67.5456 134.678 67.1924 132.62 67.1924 130.238C67.1924 127.847 67.5456 125.783 68.252 124.047C68.9583 122.302 69.9674 120.954 71.2793 120.006C72.6012 119.057 74.1654 118.583 75.9717 118.583C77.7982 118.583 79.3674 119.057 80.6792 120.006C81.991 120.954 83.0002 122.302 83.7065 124.047C84.4129 125.783 84.7661 127.847 84.7661 130.238C84.7661 132.62 84.4129 134.683 83.7065 136.429C83.0002 138.165 81.991 139.507 80.6792 140.456C79.3674 141.394 77.7982 141.863 75.9717 141.863ZM75.9717 138.563C77.0111 138.563 77.9041 138.23 78.6509 137.564C79.3976 136.888 79.9678 135.93 80.3613 134.688C80.765 133.447 80.9668 131.964 80.9668 130.238C80.9668 128.503 80.765 127.014 80.3613 125.773C79.9678 124.522 79.3976 123.563 78.6509 122.897C77.9041 122.221 77.0161 121.883 75.9868 121.883C74.9474 121.883 74.0544 122.221 73.3076 122.897C72.5609 123.563 71.9857 124.522 71.582 125.773C71.1885 127.014 70.9917 128.503 70.9917 130.238C70.9917 131.964 71.1885 133.447 71.582 134.688C71.9857 135.93 72.5609 136.888 73.3076 137.564C74.0544 138.23 74.9424 138.563 75.9717 138.563ZM95.8008 141.863C93.9945 141.863 92.4303 141.389 91.1084 140.44C89.7965 139.492 88.7874 138.15 88.0811 136.414C87.3747 134.678 87.0215 132.62 87.0215 130.238C87.0215 127.847 87.3747 125.783 88.0811 124.047C88.7874 122.302 89.7965 120.954 91.1084 120.006C92.4303 119.057 93.9945 118.583 95.8008 118.583C97.6273 118.583 99.1965 119.057 100.508 120.006C101.82 120.954 102.829 122.302 103.536 124.047C104.242 125.783 104.595 127.847 104.595 130.238C104.595 132.62 104.242 134.683 103.536 136.429C102.829 138.165 101.82 139.507 100.508 140.456C99.1965 141.394 97.6273 141.863 95.8008 141.863ZM95.8008 138.563C96.8402 138.563 97.7332 138.23 98.48 137.564C99.2267 136.888 99.7969 135.93 100.19 134.688C100.594 133.447 100.796 131.964 100.796 130.238C100.796 128.503 100.594 127.014 100.19 125.773C99.7969 124.522 99.2267 123.563 98.48 122.897C97.7332 122.221 96.8452 121.883 95.8159 121.883C94.7765 121.883 93.8835 122.221 93.1367 122.897C92.39 123.563 91.8148 124.522 91.4111 125.773C91.0176 127.014 90.8208 128.503 90.8208 130.238C90.8208 131.964 91.0176 133.447 91.4111 134.688C91.8148 135.93 92.39 136.888 93.1367 137.564C93.8835 138.23 94.7715 138.563 95.8008 138.563ZM107.623 141.5V118.946H113.405L117.794 130.798C117.936 131.222 118.107 131.747 118.309 132.373C118.511 132.988 118.713 133.639 118.915 134.325C119.126 135.001 119.323 135.647 119.505 136.263C119.697 136.878 119.848 137.393 119.959 137.807H118.99C119.101 137.393 119.248 136.878 119.429 136.263C119.611 135.647 119.803 135.001 120.004 134.325C120.216 133.639 120.418 132.988 120.61 132.373C120.812 131.747 120.983 131.222 121.125 130.798L125.438 118.946H131.236V141.5H127.3V129.996C127.3 129.502 127.305 128.931 127.315 128.286C127.326 127.63 127.341 126.938 127.361 126.212C127.381 125.485 127.401 124.754 127.421 124.017C127.442 123.27 127.457 122.559 127.467 121.883H127.951C127.709 122.65 127.467 123.427 127.225 124.214C126.982 124.991 126.745 125.743 126.513 126.469C126.291 127.196 126.079 127.862 125.877 128.467C125.686 129.063 125.514 129.572 125.363 129.996L121.079 141.5H117.794L113.48 129.996C113.329 129.572 113.153 129.063 112.951 128.467C112.749 127.862 112.527 127.196 112.285 126.469C112.053 125.743 111.81 124.991 111.558 124.214C111.306 123.427 111.054 122.65 110.801 121.883H111.407C111.417 122.559 111.427 123.27 111.437 124.017C111.457 124.754 111.477 125.485 111.498 126.212C111.518 126.938 111.533 127.63 111.543 128.286C111.563 128.931 111.573 129.502 111.573 129.996V141.5H107.623ZM142.074 141.5V118.946H147.856L152.246 130.798C152.387 131.222 152.558 131.747 152.76 132.373C152.962 132.988 153.164 133.639 153.366 134.325C153.578 135.001 153.774 135.647 153.956 136.263C154.148 136.878 154.299 137.393 154.41 137.807H153.441C153.552 137.393 153.699 136.878 153.88 136.263C154.062 135.647 154.254 135.001 154.456 134.325C154.667 133.639 154.869 132.988 155.061 132.373C155.263 131.747 155.434 131.222 155.576 130.798L159.89 118.946H165.687V141.5H161.751V129.996C161.751 129.502 161.757 128.931 161.767 128.286C161.777 127.63 161.792 126.938 161.812 126.212C161.832 125.485 161.852 124.754 161.873 124.017C161.893 123.27 161.908 122.559 161.918 121.883H162.402C162.16 122.65 161.918 123.427 161.676 124.214C161.434 124.991 161.196 125.743 160.964 126.469C160.742 127.196 160.53 127.862 160.329 128.467C160.137 129.063 159.965 129.572 159.814 129.996L155.53 141.5H152.246L147.932 129.996C147.78 129.572 147.604 129.063 147.402 128.467C147.2 127.862 146.978 127.196 146.736 126.469C146.504 125.743 146.262 124.991 146.009 124.214C145.757 123.427 145.505 122.65 145.252 121.883H145.858C145.868 122.559 145.878 123.27 145.888 124.017C145.908 124.754 145.929 125.485 145.949 126.212C145.969 126.938 145.984 127.63 145.994 128.286C146.014 128.931 146.024 129.502 146.024 129.996V141.5H142.074ZM169.471 141.5V118.946H173.8L181.717 131.525C181.939 131.868 182.216 132.327 182.549 132.902C182.882 133.478 183.236 134.098 183.609 134.764C183.982 135.42 184.335 136.066 184.668 136.702L184.245 137.64C184.204 136.984 184.169 136.237 184.139 135.4C184.118 134.562 184.098 133.76 184.078 132.993C184.068 132.226 184.063 131.636 184.063 131.222V118.946H188.074V141.5H183.73L176.601 130.193C176.338 129.769 176.005 129.224 175.602 128.558C175.198 127.882 174.744 127.105 174.239 126.227C173.735 125.349 173.2 124.406 172.635 123.396L173.271 122.836C173.331 123.967 173.376 125.011 173.407 125.97C173.437 126.928 173.457 127.766 173.467 128.482C173.477 129.199 173.482 129.764 173.482 130.178V141.5H169.471ZM199.502 141.5H193.811V138.064H199.275C200.91 138.064 202.257 137.761 203.317 137.156C204.387 136.54 205.184 135.647 205.708 134.477C206.233 133.296 206.496 131.868 206.496 130.193C206.496 128.538 206.233 127.13 205.708 125.97C205.194 124.799 204.412 123.911 203.362 123.306C202.313 122.69 200.996 122.382 199.412 122.382H193.705V118.946H199.669C201.899 118.946 203.826 119.4 205.451 120.309C207.076 121.217 208.327 122.514 209.205 124.199C210.083 125.884 210.522 127.882 210.522 130.193C210.522 132.524 210.083 134.537 209.205 136.232C208.327 137.918 207.066 139.219 205.421 140.138C203.776 141.046 201.803 141.5 199.502 141.5ZM195.885 118.946V141.5H191.874V118.946H195.885ZM213.549 141.5V118.946H229.17V122.413H217.561V128.361H228.308V131.752H217.561V138.034H229.17V141.5H213.549Z" fill="#151A1A"/>
<path d="M94.5078 155.391V153.859H103.555V155.391H99.9219V165.5H98.1484V155.391H94.5078ZM107.688 165.68C106.87 165.68 106.156 165.495 105.547 165.125C104.943 164.75 104.471 164.227 104.133 163.555C103.794 162.878 103.625 162.094 103.625 161.203C103.625 160.302 103.794 159.516 104.133 158.844C104.471 158.167 104.943 157.641 105.547 157.266C106.156 156.891 106.87 156.703 107.688 156.703C108.505 156.703 109.219 156.891 109.828 157.266C110.443 157.641 110.917 158.167 111.25 158.844C111.589 159.516 111.758 160.302 111.758 161.203C111.758 162.094 111.589 162.878 111.25 163.555C110.917 164.227 110.443 164.75 109.828 165.125C109.219 165.495 108.505 165.68 107.688 165.68ZM107.688 164.234C108.214 164.234 108.648 164.099 108.992 163.828C109.341 163.552 109.599 163.185 109.766 162.727C109.938 162.263 110.023 161.755 110.023 161.203C110.023 160.641 109.938 160.13 109.766 159.672C109.599 159.208 109.341 158.839 108.992 158.562C108.648 158.286 108.214 158.148 107.688 158.148C107.167 158.148 106.734 158.286 106.391 158.562C106.047 158.839 105.789 159.208 105.617 159.672C105.451 160.13 105.367 160.641 105.367 161.203C105.367 161.76 105.451 162.268 105.617 162.727C105.789 163.185 106.047 163.552 106.391 163.828C106.734 164.099 107.167 164.234 107.688 164.234ZM117.391 156.82V158.211H112.648V156.82H117.391ZM113.938 154.719H115.648V163.156C115.648 163.505 115.721 163.76 115.867 163.922C116.013 164.078 116.255 164.156 116.594 164.156C116.688 164.156 116.807 164.148 116.953 164.133C117.099 164.112 117.224 164.091 117.328 164.07L117.602 165.445C117.424 165.503 117.232 165.542 117.023 165.562C116.815 165.589 116.612 165.602 116.414 165.602C115.622 165.602 115.01 165.404 114.578 165.008C114.151 164.607 113.938 164.039 113.938 163.305V154.719ZM121.594 165.688C121.036 165.688 120.536 165.586 120.094 165.383C119.651 165.18 119.299 164.883 119.039 164.492C118.779 164.096 118.648 163.612 118.648 163.039C118.648 162.549 118.742 162.148 118.93 161.836C119.122 161.518 119.378 161.266 119.695 161.078C120.018 160.891 120.378 160.753 120.773 160.664C121.174 160.57 121.583 160.497 122 160.445C122.516 160.383 122.932 160.333 123.25 160.297C123.573 160.255 123.81 160.19 123.961 160.102C124.112 160.013 124.188 159.865 124.188 159.656V159.609C124.188 159.292 124.122 159.021 123.992 158.797C123.867 158.573 123.68 158.401 123.43 158.281C123.185 158.161 122.878 158.102 122.508 158.102C122.138 158.102 121.815 158.161 121.539 158.281C121.268 158.396 121.047 158.544 120.875 158.727C120.708 158.909 120.586 159.102 120.508 159.305L118.891 158.938C119.073 158.411 119.344 157.987 119.703 157.664C120.062 157.336 120.484 157.094 120.969 156.938C121.453 156.781 121.961 156.703 122.492 156.703C122.862 156.703 123.245 156.747 123.641 156.836C124.036 156.924 124.404 157.081 124.742 157.305C125.086 157.523 125.365 157.828 125.578 158.219C125.792 158.609 125.898 159.109 125.898 159.719V165.5H124.234V164.305H124.156C124.042 164.534 123.872 164.755 123.648 164.969C123.43 165.177 123.151 165.349 122.812 165.484C122.474 165.62 122.068 165.688 121.594 165.688ZM121.969 164.312C122.438 164.312 122.836 164.221 123.164 164.039C123.497 163.857 123.75 163.617 123.922 163.32C124.099 163.018 124.188 162.698 124.188 162.359V161.258C124.13 161.315 124.016 161.37 123.844 161.422C123.677 161.469 123.484 161.513 123.266 161.555C123.047 161.591 122.831 161.625 122.617 161.656C122.409 161.682 122.234 161.703 122.094 161.719C121.771 161.76 121.477 161.831 121.211 161.93C120.945 162.029 120.732 162.169 120.57 162.352C120.414 162.529 120.336 162.768 120.336 163.07C120.336 163.341 120.406 163.57 120.547 163.758C120.688 163.94 120.88 164.078 121.125 164.172C121.37 164.266 121.651 164.312 121.969 164.312ZM129.867 153.859V165.5H128.156V153.859H129.867ZM139.469 165.68C138.833 165.68 138.268 165.589 137.773 165.406C137.284 165.219 136.88 164.945 136.562 164.586C136.25 164.221 136.047 163.779 135.953 163.258L137.57 162.961C137.685 163.414 137.904 163.75 138.227 163.969C138.549 164.188 138.966 164.297 139.477 164.297C140.029 164.297 140.466 164.182 140.789 163.953C141.117 163.724 141.281 163.448 141.281 163.125C141.281 162.844 141.177 162.615 140.969 162.438C140.766 162.255 140.461 162.117 140.055 162.023L138.594 161.695C137.786 161.513 137.185 161.224 136.789 160.828C136.393 160.427 136.195 159.914 136.195 159.289C136.195 158.773 136.339 158.323 136.625 157.938C136.911 157.547 137.307 157.245 137.812 157.031C138.318 156.812 138.898 156.703 139.555 156.703C140.18 156.703 140.719 156.797 141.172 156.984C141.625 157.172 141.99 157.432 142.266 157.766C142.547 158.099 142.742 158.49 142.852 158.938L141.305 159.242C141.206 158.924 141.018 158.648 140.742 158.414C140.471 158.174 140.081 158.055 139.57 158.055C139.096 158.055 138.701 158.161 138.383 158.375C138.07 158.589 137.914 158.862 137.914 159.195C137.914 159.482 138.021 159.716 138.234 159.898C138.448 160.076 138.786 160.216 139.25 160.32L140.656 160.633C141.464 160.815 142.062 161.102 142.453 161.492C142.844 161.878 143.039 162.375 143.039 162.984C143.039 163.516 142.888 163.984 142.586 164.391C142.284 164.792 141.865 165.107 141.328 165.336C140.792 165.565 140.172 165.68 139.469 165.68ZM147.852 165.617C147.263 165.617 146.742 165.492 146.289 165.242C145.841 164.992 145.492 164.622 145.242 164.133C144.997 163.643 144.875 163.039 144.875 162.32V156.82H146.586V162.109C146.586 162.745 146.75 163.24 147.078 163.594C147.406 163.948 147.854 164.125 148.422 164.125C148.812 164.125 149.159 164.042 149.461 163.875C149.768 163.703 150.008 163.456 150.18 163.133C150.357 162.805 150.445 162.409 150.445 161.945V156.82H152.164V165.5H150.523L150.516 163.375H150.711C150.451 164.156 150.076 164.727 149.586 165.086C149.102 165.44 148.523 165.617 147.852 165.617ZM154.438 168.766V156.82H156.102V158.219H156.234C156.344 158.021 156.495 157.805 156.688 157.57C156.88 157.336 157.141 157.133 157.469 156.961C157.802 156.789 158.229 156.703 158.75 156.703C159.453 156.703 160.078 156.88 160.625 157.234C161.172 157.589 161.602 158.102 161.914 158.773C162.232 159.44 162.391 160.242 162.391 161.18C162.391 162.107 162.234 162.906 161.922 163.578C161.615 164.25 161.188 164.768 160.641 165.133C160.094 165.492 159.464 165.672 158.75 165.672C158.245 165.672 157.826 165.586 157.492 165.414C157.159 165.242 156.893 165.039 156.695 164.805C156.503 164.565 156.349 164.346 156.234 164.148H156.148V168.766H154.438ZM158.375 164.211C158.87 164.211 159.286 164.078 159.625 163.812C159.964 163.547 160.219 163.185 160.391 162.727C160.562 162.268 160.648 161.747 160.648 161.164C160.648 160.586 160.562 160.073 160.391 159.625C160.219 159.172 159.964 158.815 159.625 158.555C159.292 158.294 158.875 158.164 158.375 158.164C157.885 158.164 157.471 158.289 157.133 158.539C156.799 158.789 156.544 159.138 156.367 159.586C156.195 160.034 156.109 160.56 156.109 161.164C156.109 161.768 156.198 162.299 156.375 162.758C156.552 163.216 156.81 163.573 157.148 163.828C157.487 164.083 157.896 164.211 158.375 164.211ZM164.266 168.766V156.82H165.93V158.219H166.062C166.172 158.021 166.323 157.805 166.516 157.57C166.708 157.336 166.969 157.133 167.297 156.961C167.63 156.789 168.057 156.703 168.578 156.703C169.281 156.703 169.906 156.88 170.453 157.234C171 157.589 171.43 158.102 171.742 158.773C172.06 159.44 172.219 160.242 172.219 161.18C172.219 162.107 172.062 162.906 171.75 163.578C171.443 164.25 171.016 164.768 170.469 165.133C169.922 165.492 169.292 165.672 168.578 165.672C168.073 165.672 167.654 165.586 167.32 165.414C166.987 165.242 166.721 165.039 166.523 164.805C166.331 164.565 166.177 164.346 166.062 164.148H165.977V168.766H164.266ZM168.203 164.211C168.698 164.211 169.115 164.078 169.453 163.812C169.792 163.547 170.047 163.185 170.219 162.727C170.391 162.268 170.477 161.747 170.477 161.164C170.477 160.586 170.391 160.073 170.219 159.625C170.047 159.172 169.792 158.815 169.453 158.555C169.12 158.294 168.703 158.164 168.203 158.164C167.714 158.164 167.299 158.289 166.961 158.539C166.628 158.789 166.372 159.138 166.195 159.586C166.023 160.034 165.938 160.56 165.938 161.164C165.938 161.768 166.026 162.299 166.203 162.758C166.38 163.216 166.638 163.573 166.977 163.828C167.315 164.083 167.724 164.211 168.203 164.211ZM175.805 153.859V165.5H174.094V153.859H175.805ZM178.078 168.656L178.453 167.258L178.727 167.297C179.008 167.365 179.26 167.38 179.484 167.344C179.714 167.307 179.909 167.198 180.07 167.016C180.237 166.833 180.372 166.565 180.477 166.211L180.688 165.531L177.383 156.82H179.227L180.945 161.734C181.133 162.271 181.292 162.807 181.422 163.344C181.552 163.875 181.69 164.404 181.836 164.93H181.32C181.466 164.404 181.607 163.872 181.742 163.336C181.883 162.799 182.047 162.266 182.234 161.734L183.984 156.82H185.812L182.023 166.742C181.852 167.201 181.638 167.583 181.383 167.891C181.128 168.198 180.826 168.43 180.477 168.586C180.128 168.742 179.721 168.82 179.258 168.82C179.003 168.82 178.771 168.802 178.562 168.766C178.354 168.734 178.193 168.698 178.078 168.656Z" fill="#778A96"/>
<mask id="path-5-inside-1_3361_105194" fill="white">
<path d="M266.893 165.849C272.576 167.007 276.282 172.566 274.702 178.146C272.934 184.39 270.733 190.505 268.117 196.444C265.779 201.751 259.379 203.673 254.262 200.944C249.146 198.215 247.257 191.87 249.524 186.532C251.271 182.422 252.784 178.217 254.058 173.936C255.711 168.378 261.211 164.692 266.893 165.849Z"/>
</mask>
<path d="M266.893 165.849C272.576 167.007 276.282 172.566 274.702 178.146C272.934 184.39 270.733 190.505 268.117 196.444C265.779 201.751 259.379 203.673 254.262 200.944C249.146 198.215 247.257 191.87 249.524 186.532C251.271 182.422 252.784 178.217 254.058 173.936C255.711 168.378 261.211 164.692 266.893 165.849Z" fill="#9AD0C7" stroke="#308D8A" stroke-width="5" mask="url(#path-5-inside-1_3361_105194)"/>
<mask id="path-6-inside-2_3361_105194" fill="white">
<path d="M255.33 198.899C260.494 201.536 262.576 207.886 259.559 212.838C256.183 218.381 252.424 223.682 248.312 228.704C244.638 233.19 237.957 233.328 233.759 229.327C229.56 225.327 229.44 218.708 233.055 214.173C235.839 210.681 238.423 207.035 240.797 203.252C243.879 198.34 250.165 196.262 255.33 198.899Z"/>
</mask>
<path d="M255.33 198.899C260.494 201.536 262.576 207.886 259.559 212.838C256.183 218.381 252.424 223.682 248.312 228.704C244.638 233.19 237.957 233.328 233.759 229.327C229.56 225.327 229.44 218.708 233.055 214.173C235.839 210.681 238.423 207.035 240.797 203.252C243.879 198.34 250.165 196.262 255.33 198.899Z" fill="#9AD0C7" stroke="#308D8A" stroke-width="5" mask="url(#path-6-inside-2_3361_105194)"/>
<mask id="path-7-inside-3_3361_105194" fill="white">
<path d="M235.579 227.377C239.859 231.29 240.183 237.964 235.96 241.939C231.234 246.387 226.205 250.502 220.908 254.253C216.175 257.604 209.698 255.965 206.711 250.995C203.723 246.025 205.363 239.61 210.051 236.196C213.661 233.568 217.12 230.737 220.412 227.72C224.687 223.801 231.299 223.464 235.579 227.377Z"/>
</mask>
<path d="M235.579 227.377C239.859 231.29 240.183 237.964 235.96 241.939C231.234 246.387 226.205 250.502 220.908 254.253C216.175 257.604 209.698 255.965 206.711 250.995C203.723 246.025 205.363 239.61 210.051 236.196C213.661 233.568 217.12 230.737 220.412 227.72C224.687 223.801 231.299 223.464 235.579 227.377Z" fill="#9AD0C7" stroke="#308D8A" stroke-width="5" mask="url(#path-7-inside-3_3361_105194)"/>
</svg>
