<svg width="34" height="34" viewBox="0 0 34 34" fill="none" xmlns="http://www.w3.org/2000/svg">
<g filter="url(#filter0_i_19427_306269)">
<rect width="34" height="34" rx="17" fill="#09817B"/>
<rect x="0.1" y="0.1" width="33.8" height="33.8" rx="16.9" stroke="#0A0D12" stroke-opacity="0.12" stroke-width="0.2"/>
<path d="M28.9994 13.0595C28.9994 10.6692 26.9476 9 24.0105 9C21.6224 9 19.9764 10.1688 18.0703 11.5224C17.7514 11.7486 17.4217 11.9831 17.0818 12.2163C16.1012 12.889 15.0822 13.545 14.1525 14.1247C14.0596 14.1827 13.9439 14.1904 13.8444 14.1454C13.1047 13.8121 11.6397 13.278 9.83848 13.278C5.83918 13.278 5 15.4552 5 17.2818C5 18.7325 5.87934 19.9404 7.54212 20.7747C8.05342 21.0311 8.56233 21.2135 8.97712 21.3378C9.29961 21.4349 9.55556 21.6771 9.66405 21.9921C9.77255 22.3071 9.90082 22.6446 10.0597 22.9916C10.2353 23.3753 10.4451 23.7962 10.6819 24.2433C10.9354 24.7205 11.4371 25 11.9556 25C12.1426 25 12.3321 24.9639 12.5125 24.8875C15.1703 23.7643 19.3368 22.3651 24.095 22.0773C24.9216 22.027 25.5486 21.3467 25.5228 20.5278C25.5108 20.1447 25.491 19.7877 25.4646 19.4673C25.4449 19.2269 25.4185 18.9895 25.3909 18.7704C25.3388 18.3547 25.5054 17.942 25.8339 17.6774C26.1624 17.4127 26.5394 17.0906 26.923 16.7187C28.3011 15.3835 28.9994 14.1525 28.9994 13.0595ZM12.6336 23.4285C12.5059 23.4789 12.3692 23.5079 12.2319 23.4978C11.8981 23.4729 11.5942 23.2675 11.4575 22.9489C11.385 22.7796 11.3166 22.6162 11.2453 22.4616C11.0949 22.133 10.9696 21.7961 10.8737 21.5107C10.7814 21.2354 10.9066 20.9346 11.1698 20.8067C11.7572 20.5207 12.7127 20.1737 13.637 19.9321C13.7263 19.909 13.8042 19.8516 13.8456 19.7705C14.1842 19.1097 13.6406 18.5934 13.1239 18.7355C13.0909 18.7444 12.3045 18.9599 11.4851 19.2713C10.999 19.4561 10.6087 19.6307 10.3018 19.8048C9.85407 20.0588 9.31819 20.1121 8.83446 19.9327C7.72374 19.5206 6.30133 18.713 6.30133 17.283C6.30133 16.0183 6.70294 14.567 9.83608 14.567C10.6105 14.567 11.3172 14.6843 11.9089 14.8364C12.1936 14.9099 12.2475 15.2864 11.9946 15.4362C11.1908 15.9129 10.6729 16.206 10.6597 16.2137C10.3474 16.3901 10.2389 16.7839 10.4175 17.0924C10.5961 17.4009 10.9948 17.508 11.3071 17.3316C11.328 17.3197 12.6378 16.5778 14.3563 15.5185C14.3653 15.5132 14.3743 15.5073 14.3833 15.502C15.4448 14.8477 16.6592 14.0732 17.8221 13.2762C18.171 13.037 18.5054 12.7996 18.8285 12.5704C20.6226 11.2968 22.0396 10.2902 24.0081 10.2902C26.2127 10.2902 27.6939 11.404 27.6939 13.0619C27.6939 14.265 26.0749 15.8253 24.9539 16.7247C24.647 16.971 24.2502 17.0764 23.8576 17.0266C23.7449 17.0124 23.6316 17 23.5183 16.9893C23.2792 16.9674 23.1413 16.7105 23.257 16.502C23.8169 15.4972 24.0518 14.8785 24.065 14.8435C24.1897 14.5102 24.0183 14.1407 23.6808 14.017C23.3439 13.8926 22.9687 14.0625 22.8428 14.3953C22.8392 14.4054 22.4718 15.3634 21.5517 16.8324C21.4959 16.9212 21.4 16.9787 21.2939 16.987C21.0655 17.0047 20.8899 16.7922 20.951 16.5749C21.1117 16.0047 21.1393 15.7435 21.1429 15.7015C21.1734 15.3474 20.9085 15.0312 20.5494 15.001C20.1892 14.9714 19.8751 15.229 19.8445 15.5837C19.8445 15.5884 19.7936 16.0118 19.4333 17.0574C19.3944 17.1711 19.2955 17.2564 19.1762 17.2801C18.3364 17.4435 17.7747 17.6087 17.7154 17.6265C17.3707 17.7295 17.1759 18.0883 17.2802 18.4288C17.3839 18.7686 17.7472 18.9623 18.0924 18.8592C18.108 18.8545 18.7764 18.6591 19.748 18.4874L19.778 18.4832C19.8349 18.4785 20.1298 18.424 20.143 18.4217C21.0739 18.2778 22.2092 18.1747 23.3056 18.2642C23.7197 18.2979 24.0548 18.6111 24.1046 19.0185C24.1262 19.1973 24.1459 19.3856 24.1621 19.5751C24.1765 19.748 24.1885 19.9327 24.1987 20.1275C24.2089 20.3223 24.1543 20.7486 23.709 20.7694C23.3151 20.7877 21.5912 20.7966 18.141 21.6131C15.5084 22.236 13.1604 23.2225 12.6318 23.4315L12.6336 23.4285Z" fill="white"/>
</g>
<defs>
<filter id="filter0_i_19427_306269" x="0" y="-0.5" width="34" height="34.5" filterUnits="userSpaceOnUse" color-interpolation-filters="sRGB">
<feFlood flood-opacity="0" result="BackgroundImageFix"/>
<feBlend mode="normal" in="SourceGraphic" in2="BackgroundImageFix" result="shape"/>
<feColorMatrix in="SourceAlpha" type="matrix" values="0 0 0 0 0 0 0 0 0 0 0 0 0 0 0 0 0 0 127 0" result="hardAlpha"/>
<feOffset dy="-0.5"/>
<feGaussianBlur stdDeviation="0.25"/>
<feComposite in2="hardAlpha" operator="arithmetic" k2="-1" k3="1"/>
<feColorMatrix type="matrix" values="0 0 0 0 0.0392157 0 0 0 0 0.0509804 0 0 0 0 0.0705882 0 0 0 0.1 0"/>
<feBlend mode="normal" in2="shape" result="effect1_innerShadow_19427_306269"/>
</filter>
</defs>
</svg>
