<svg width="64" height="64" viewBox="0 0 64 64" fill="none" xmlns="http://www.w3.org/2000/svg">
<path d="M32 64C49.6731 64 64 49.6731 64 32C64 14.3269 49.6731 0 32 0C14.3269 0 0 14.3269 0 32C0 49.6731 14.3269 64 32 64Z" fill="#314012"/>
<path fill-rule="evenodd" clip-rule="evenodd" d="M55.7906 33.7352C54.8696 46.0431 44.5886 55.7428 32.0411 55.7428C18.8876 55.7428 8.22461 45.0831 8.22461 31.9337C8.22461 18.7843 18.8876 8.12463 32.0411 8.12463C44.5676 8.12463 54.8355 17.7925 55.7857 30.0715H44.3994C46.8848 24.5791 47.0353 19.5888 44.317 17.3086C40.3026 13.9413 31.5524 17.7595 24.7726 25.8367C17.9929 33.9139 15.751 43.1914 19.7653 46.5588C23.7795 49.9262 32.5298 46.1079 39.3095 38.0308C40.4913 36.6228 41.535 35.1783 42.4322 33.7352H55.7906Z" fill="#C7E36C"/>
<path d="M33.8301 33.7351H43.3542L39.6762 38.5505L33.8301 36.2042V33.7351Z" fill="#C7E36C"/>
</svg>
