<svg width="477" height="51" viewBox="0 0 477 51" fill="none" xmlns="http://www.w3.org/2000/svg">
<g clip-path="url(#clip0_937_7143)">
<path fill-rule="evenodd" clip-rule="evenodd" d="M50.8853 27.3934C49.9004 40.5564 38.9086 50.9299 25.4937 50.9299C11.4307 50.9299 0.0302734 39.5296 0.0302734 25.4666C0.0302734 11.4035 11.4307 0.00311279 25.4937 0.00311279C38.8866 0.00311279 49.8646 10.3429 50.8804 23.4752H38.7064C41.3639 17.6009 41.5247 12.2638 38.6184 9.82515C34.3266 6.22386 24.9713 10.3073 17.7227 18.9458C10.4741 27.5843 8.07726 37.5066 12.3691 41.1079C16.6609 44.7091 26.0163 40.6257 33.2649 31.9872C34.5283 30.4816 35.6443 28.9368 36.6032 27.3934H50.8853Z" fill="#151A1A"/>
<path d="M27.4043 27.3934H37.5868L33.6548 32.5435L27.4043 30.034V27.3934Z" fill="#151A1A"/>
<path d="M134.903 27.4362H137.457V36.2448L141.755 31.5425H144.883L140.669 35.8831L145.223 42.7129H142.265L138.925 37.6702L137.457 39.1597V42.7129H134.903V27.4362Z" fill="#151A1A"/>
<path d="M132.631 31.4786C132.737 31.4786 132.843 31.4999 132.971 31.4999C133.077 31.4999 133.205 31.5211 133.354 31.5211V34.0744C133.184 34.0531 133.013 34.0318 132.886 34.0318C132.737 34.0318 132.588 34.0105 132.418 34.0105C131.567 34.0105 130.865 34.2871 130.355 34.7978C129.822 35.3085 129.566 35.9893 129.566 36.8403V42.7128H127.014V31.5424H129.566V33.2021C129.822 32.6914 130.205 32.2658 130.758 31.9467C131.312 31.6489 131.929 31.4786 132.631 31.4786Z" fill="#151A1A"/>
<path d="M123.96 33.031C124.428 33.5416 124.768 34.1587 125.024 34.8608C125.258 35.563 125.386 36.3289 125.386 37.1375C125.386 37.9672 125.258 38.7332 125.024 39.4353C124.768 40.1375 124.428 40.7332 123.96 41.2439C123.45 41.7971 122.875 42.2225 122.194 42.5205C121.513 42.8183 120.79 42.9459 120.003 42.9459C119.194 42.9459 118.471 42.8183 117.79 42.5205C117.109 42.2225 116.534 41.7971 116.045 41.2439C115.577 40.7332 115.216 40.1375 114.982 39.4353C114.726 38.7332 114.62 37.9672 114.62 37.1375C114.62 36.3289 114.726 35.563 114.982 34.8608C115.216 34.1587 115.577 33.5416 116.045 33.031C116.534 32.4778 117.109 32.0735 117.79 31.7757C118.471 31.4778 119.194 31.3289 120.003 31.3289C120.79 31.3289 121.513 31.4778 122.194 31.7757C122.875 32.0735 123.45 32.4778 123.96 33.031ZM120.003 33.4779C119.13 33.4779 118.449 33.8182 117.939 34.4565C117.428 35.1162 117.195 36.0097 117.195 37.1375C117.195 38.2863 117.428 39.18 117.939 39.8183C118.449 40.4778 119.13 40.7971 120.003 40.7971C120.854 40.7971 121.535 40.4778 122.046 39.8183C122.556 39.18 122.811 38.2863 122.811 37.1375C122.811 36.0097 122.556 35.1162 122.046 34.4565C121.535 33.8182 120.854 33.4779 120.003 33.4779Z" fill="#151A1A"/>
<path d="M103.657 38.9469L105.636 31.5426H107.742L109.743 38.9469L111.722 31.5426H114.253L110.891 42.7129H108.679L106.637 35.3937L104.594 42.7129H102.381L99.0195 31.5426H101.636L103.657 38.9469Z" fill="#151A1A"/>
<path d="M96.1912 42.8406C94.9993 42.8406 94.17 42.6279 93.6592 42.1597C93.1486 41.6917 92.9145 40.947 92.9145 39.9045V33.7129H91.3613V31.5427H92.9145V28.2661H95.4248V31.5427H97.7654V33.7129H95.4248V39.5002C95.4248 39.9045 95.5103 40.1811 95.7235 40.3513C95.9141 40.5215 96.3189 40.6065 96.9144 40.6065C97.0844 40.6065 97.2337 40.6065 97.3831 40.6065C97.5099 40.6065 97.7015 40.5853 97.9569 40.5428V42.6917C97.7015 42.7343 97.4037 42.7768 97.106 42.798C96.7867 42.8407 96.4889 42.8406 96.1912 42.8406Z" fill="#151A1A"/>
<path d="M85.7 42.947C84.8915 42.947 84.1681 42.8194 83.4872 42.5215C82.8064 42.2236 82.2106 41.8194 81.7213 41.2662C81.2532 40.7555 80.8915 40.1385 80.6361 39.4364C80.3808 38.7342 80.2744 37.9683 80.2744 37.1384C80.2744 36.3725 80.3808 35.6278 80.6361 34.9257C80.8915 34.2236 81.2319 33.6066 81.7 33.0746C82.1893 32.5214 82.7638 32.0746 83.4447 31.7768C84.1043 31.4789 84.8277 31.3299 85.5936 31.3299C87.1043 31.3299 88.317 31.8406 89.2107 32.8619C90.1043 33.8831 90.5512 35.2023 90.5512 36.8406V37.6916H82.7213C82.8064 38.6491 83.1255 39.3938 83.6574 39.947C84.1894 40.5002 84.8702 40.7768 85.7 40.7768C86.3383 40.7768 86.8702 40.6279 87.3383 40.3087C87.8064 39.9896 88.1256 39.5428 88.2958 38.9896L90.4873 39.8194C90.083 40.798 89.466 41.5641 88.6149 42.1172C87.7639 42.6704 86.8065 42.947 85.7 42.947ZM85.5723 33.4788C84.8915 33.4788 84.2957 33.6917 83.8277 34.0746C83.3596 34.4788 83.0191 35.0534 82.8489 35.7768H87.9766C87.9553 35.0959 87.7426 34.5427 87.317 34.1171C86.8915 33.6917 86.2958 33.4788 85.5723 33.4788Z" fill="#151A1A"/>
<path d="M76.018 27.4362H78.6351V42.7129H76.2521L68.6775 31.5V42.7129H66.0605V27.4362H68.869L76.018 38.1384V27.4362Z" fill="#151A1A"/>
<path d="M185.788 12.2375C185.895 12.2375 186.002 12.2587 186.129 12.2587C186.236 12.2587 186.363 12.28 186.512 12.28V14.8332C186.342 14.812 186.172 14.7907 186.044 14.7907C185.895 14.7907 185.746 14.7695 185.576 14.7695C184.724 14.7695 184.023 15.0461 183.512 15.5566C182.98 16.0673 182.725 16.7481 182.725 17.5993V23.4716H180.172V12.3014H182.725V13.9609C182.98 13.4502 183.363 13.0247 183.917 12.7056C184.47 12.4077 185.087 12.2375 185.788 12.2375Z" fill="#151A1A"/>
<path d="M175.145 22.4079C174.783 22.8122 174.315 23.1314 173.741 23.3442C173.166 23.5569 172.527 23.6633 171.826 23.6633C170.719 23.6633 169.825 23.3654 169.124 22.7484C168.401 22.1313 168.06 21.3442 168.06 20.3654C168.06 19.4505 168.357 18.7058 168.974 18.1314C169.571 17.5568 170.528 17.1314 171.804 16.8548L174.89 16.2165V16.0249C174.89 15.4717 174.72 15.0462 174.4 14.7484C174.081 14.4504 173.613 14.3016 172.975 14.3016C172.379 14.3016 171.911 14.4504 171.57 14.7058C171.23 14.9611 170.975 15.3867 170.826 15.9399L168.421 15.3867C168.72 14.3867 169.273 13.5781 170.102 12.9823C170.932 12.3866 171.932 12.0887 173.081 12.0887C174.464 12.0887 175.528 12.4292 176.272 13.0887C176.996 13.7484 177.379 14.7058 177.379 15.9399V20.7484C177.379 21.0676 177.442 21.2803 177.592 21.3867C177.741 21.5144 177.996 21.5356 178.358 21.493V23.4718C177.442 23.5782 176.719 23.5357 176.209 23.3654C175.698 23.1952 175.337 22.876 175.145 22.4079ZM172.209 21.6208C172.975 21.6208 173.613 21.4293 174.124 21.0462C174.634 20.6632 174.89 20.1739 174.89 19.5356V18.1739L172.485 18.6846C171.784 18.8547 171.294 19.0463 171.017 19.2803C170.719 19.5356 170.592 19.8547 170.592 20.259C170.592 20.6845 170.719 21.025 171.017 21.259C171.315 21.5144 171.698 21.6208 172.209 21.6208Z" fill="#151A1A"/>
<path d="M163.632 8.19513H166.185V23.4718H163.632V8.19513Z" fill="#151A1A"/>
<path d="M158.397 8.19513H160.951V23.4718H158.397V8.19513Z" fill="#151A1A"/>
<path d="M154.984 13.7909C155.453 14.3016 155.793 14.9185 156.048 15.6207C156.282 16.3228 156.41 17.0888 156.41 17.8973C156.41 18.7271 156.282 19.493 156.048 20.1952C155.793 20.8973 155.453 21.493 154.984 22.0037C154.474 22.5569 153.899 22.9825 153.218 23.2803C152.537 23.5782 151.814 23.7059 151.027 23.7059C150.219 23.7059 149.495 23.5782 148.814 23.2803C148.133 22.9825 147.559 22.5569 147.069 22.0037C146.602 21.493 146.24 20.8973 146.006 20.1952C145.751 19.493 145.644 18.7271 145.644 17.8973C145.644 17.0888 145.751 16.3228 146.006 15.6207C146.24 14.9185 146.602 14.3016 147.069 13.7909C147.559 13.2377 148.133 12.8335 148.814 12.5355C149.495 12.2377 150.219 12.0887 151.027 12.0887C151.814 12.0887 152.537 12.2377 153.218 12.5355C153.899 12.8335 154.474 13.2377 154.984 13.7909ZM151.027 14.2377C150.155 14.2377 149.474 14.5782 148.963 15.2165C148.453 15.876 148.219 16.7697 148.219 17.8973C148.219 19.0463 148.453 19.9398 148.963 20.5781C149.474 21.2378 150.155 21.5569 151.027 21.5569C151.878 21.5569 152.559 21.2378 153.07 20.5781C153.58 19.9398 153.835 19.0463 153.835 17.8973C153.835 16.7697 153.58 15.876 153.07 15.2165C152.559 14.5782 151.878 14.2377 151.027 14.2377Z" fill="#151A1A"/>
<path d="M136.639 23.4718H131.532V8.19513H136.639C137.787 8.19513 138.852 8.38662 139.81 8.72705C140.745 9.06748 141.554 9.57815 142.235 10.259C142.916 10.9398 143.427 11.7483 143.788 12.6845C144.128 13.642 144.32 14.6845 144.32 15.8335C144.32 16.9824 144.128 18.0463 143.788 18.9824C143.427 19.9399 142.916 20.7484 142.235 21.408C141.554 22.0888 140.745 22.6207 139.81 22.9612C138.852 23.3017 137.787 23.4718 136.639 23.4718ZM134.192 10.5356V21.1314H136.639C138.171 21.1314 139.405 20.6633 140.299 19.7058C141.192 18.7697 141.639 17.4718 141.639 15.8335C141.639 14.1952 141.192 12.8973 140.299 11.9612C139.405 11.0249 138.171 10.5356 136.618 10.5356H134.192Z" fill="#151A1A"/>
<path d="M121.833 8.19513H124.387V23.4718H121.833V8.19513Z" fill="#151A1A"/>
<path d="M116.842 22.4079C116.481 22.8122 116.012 23.1314 115.438 23.3442C114.863 23.5569 114.225 23.6633 113.523 23.6633C112.417 23.6633 111.523 23.3654 110.821 22.7484C110.098 22.1313 109.757 21.3442 109.757 20.3654C109.757 19.4505 110.055 18.7058 110.672 18.1314C111.268 17.5568 112.225 17.1314 113.502 16.8548L116.587 16.2165V16.0249C116.587 15.4717 116.417 15.0462 116.098 14.7484C115.778 14.4504 115.31 14.3016 114.672 14.3016C114.076 14.3016 113.608 14.4504 113.268 14.7058C112.928 14.9611 112.672 15.3867 112.523 15.9399L110.118 15.3867C110.416 14.3867 110.969 13.5781 111.8 12.9823C112.629 12.3866 113.629 12.0887 114.778 12.0887C116.161 12.0887 117.226 12.4292 117.969 13.0887C118.694 13.7484 119.076 14.7058 119.076 15.9399V20.7484C119.076 21.0676 119.14 21.2803 119.289 21.3867C119.437 21.5144 119.693 21.5356 120.055 21.493V23.4718C119.14 23.5782 118.417 23.5357 117.906 23.3654C117.396 23.1952 117.034 22.876 116.842 22.4079ZM113.906 21.6208C114.672 21.6208 115.31 21.4293 115.82 21.0462C116.331 20.6632 116.587 20.1739 116.587 19.5356V18.1739L114.182 18.6846C113.481 18.8547 112.991 19.0463 112.714 19.2803C112.417 19.5356 112.289 19.8547 112.289 20.259C112.289 20.6845 112.417 21.025 112.714 21.259C113.012 21.5144 113.395 21.6208 113.906 21.6208Z" fill="#151A1A"/>
<path d="M107.235 21.9186C106.788 22.5144 106.256 22.9612 105.617 23.2591C104.98 23.5569 104.299 23.7059 103.554 23.7059C102.873 23.7059 102.278 23.5995 101.724 23.3442C101.171 23.1102 100.724 22.7697 100.341 22.3016V23.4718H97.7881V8.19513H100.341V13.493C100.724 13.0462 101.171 12.7058 101.724 12.4505C102.278 12.2164 102.873 12.0888 103.554 12.0888C104.299 12.0888 104.98 12.259 105.617 12.5569C106.256 12.8547 106.788 13.3015 107.235 13.8761C107.618 14.4079 107.936 15.025 108.15 15.7059C108.362 16.3867 108.469 17.1314 108.469 17.8973C108.469 18.6846 108.362 19.4292 108.15 20.1101C107.936 20.7909 107.618 21.408 107.235 21.9186ZM103.043 14.3228C102.192 14.3228 101.533 14.6207 101.022 15.2164C100.511 15.8122 100.277 16.5994 100.277 17.5782V18.2377C100.277 19.2165 100.533 20.0038 101.043 20.5995C101.553 21.1953 102.214 21.4719 103.043 21.4719C103.937 21.4719 104.617 21.1527 105.128 20.5144C105.639 19.8761 105.895 19.0038 105.895 17.8973C105.895 16.7909 105.639 15.9186 105.128 15.2803C104.617 14.642 103.937 14.3228 103.043 14.3228Z" fill="#151A1A"/>
<path d="M94.7126 13.7909C95.1803 14.3016 95.5213 14.9185 95.7767 15.6207C96.0106 16.3228 96.1383 17.0888 96.1383 17.8973C96.1383 18.7271 96.0106 19.493 95.7767 20.1952C95.5213 20.8973 95.1803 21.493 94.7126 22.0037C94.2016 22.5569 93.6274 22.9825 92.9466 23.2803C92.2657 23.5782 91.5423 23.7059 90.7551 23.7059C89.9466 23.7059 89.2232 23.5782 88.5423 23.2803C87.8614 22.9825 87.287 22.5569 86.7976 22.0037C86.3295 21.493 85.9678 20.8973 85.7338 20.1952C85.4785 19.493 85.3721 18.7271 85.3721 17.8973C85.3721 17.0888 85.4785 16.3228 85.7338 15.6207C85.9678 14.9185 86.3295 14.3016 86.7976 13.7909C87.287 13.2377 87.8614 12.8335 88.5423 12.5355C89.2232 12.2377 89.9466 12.0887 90.7551 12.0887C91.5423 12.0887 92.2657 12.2377 92.9466 12.5355C93.6274 12.8335 94.2016 13.2377 94.7126 13.7909ZM90.7551 14.2377C89.8827 14.2377 89.2019 14.5782 88.6912 15.2165C88.1806 15.876 87.9466 16.7697 87.9466 17.8973C87.9466 19.0463 88.1806 19.9398 88.6912 20.5781C89.2019 21.2378 89.8827 21.5569 90.7551 21.5569C91.6062 21.5569 92.287 21.2378 92.7977 20.5781C93.3083 19.9398 93.5636 19.0463 93.5636 17.8973C93.5636 16.7697 93.3083 15.876 92.7977 15.2165C92.287 14.5782 91.6062 14.2377 90.7551 14.2377Z" fill="#151A1A"/>
<path d="M81.0518 8.19513H83.605V23.4718H81.0518V8.19513Z" fill="#151A1A"/>
<path d="M78.7619 23.4718H76.2725V21.8973C75.9321 22.4505 75.4001 22.8973 74.6767 23.2164C73.932 23.5569 73.1022 23.7058 72.1661 23.7058C71.1448 23.7058 70.1873 23.5143 69.315 23.0888C68.4426 22.6845 67.698 22.0888 67.0597 21.3228C66.464 20.6419 66.0171 19.8334 65.7193 18.8973C65.4213 17.9611 65.2725 16.9611 65.2725 15.8972C65.2725 14.8333 65.4213 13.8121 65.7405 12.8547C66.0596 11.9185 66.5277 11.0674 67.1235 10.344C67.7618 9.578 68.549 9.00356 69.4426 8.57802C70.3363 8.17377 71.2938 7.961 72.3363 7.961C73.8257 7.961 75.1235 8.34399 76.1874 9.10995C77.2513 9.87592 78.0172 10.9398 78.5065 12.344L75.9108 13.2164C75.6767 12.3227 75.2512 11.6206 74.6342 11.11C74.0171 10.6206 73.2512 10.3653 72.3576 10.3653C71.0597 10.3653 70.0172 10.8759 69.2087 11.8972C68.4001 12.9185 67.9958 14.2376 67.9958 15.8547C67.9958 17.5143 68.4001 18.8334 69.2087 19.8547C70.0172 20.876 71.081 21.3654 72.4002 21.3654C73.464 21.3654 74.3576 21.0249 75.0384 20.3441C75.7193 19.6632 76.1023 18.7483 76.1449 17.6207H72.1236V15.2377H78.7619V23.4718Z" fill="#151A1A"/>
</g>
<path d="M210.471 19.75L221.971 31.25M221.971 19.75L210.471 31.25" stroke="black" stroke-width="1.5" stroke-linecap="round"/>
<path d="M309.849 14.582C309.849 7.95905 304.236 3.33429 296.202 3.33429C289.669 3.33429 285.167 6.57277 279.952 10.3231C279.08 10.9498 278.178 11.5995 277.249 12.2459C274.566 14.1095 271.779 15.9273 269.235 17.5334C268.981 17.6942 268.665 17.7155 268.393 17.5908C266.369 16.6672 262.362 15.1874 257.435 15.1874C246.495 15.1874 244.199 21.2198 244.199 26.2809C244.199 30.3003 246.605 33.6471 251.153 35.9586C252.552 36.669 253.944 37.1743 255.078 37.5188C255.961 37.7878 256.661 38.4588 256.958 39.3316C257.254 40.2044 257.605 41.1395 258.04 42.1009C258.52 43.164 259.094 44.3304 259.742 45.569C260.435 46.8913 261.808 47.6657 263.226 47.6657C263.738 47.6657 264.256 47.5656 264.749 47.354C272.02 44.2418 283.417 40.3652 296.433 39.5679C298.694 39.4284 300.409 37.5434 300.339 35.2745C300.306 34.213 300.252 33.2238 300.179 32.3362C300.125 31.6702 300.053 31.0123 299.978 30.4053C299.835 29.2536 300.291 28.1101 301.19 27.3768C302.088 26.6435 303.119 25.751 304.169 24.7207C307.938 21.0212 309.85 17.6105 309.85 14.582H309.849ZM265.081 43.3116C264.731 43.4511 264.357 43.5315 263.982 43.5036C263.069 43.4347 262.237 42.8654 261.863 41.9828C261.665 41.5136 261.478 41.0608 261.283 40.6326C260.871 39.7221 260.529 38.7886 260.266 37.9978C260.014 37.235 260.357 36.4016 261.076 36.0472C262.683 35.2548 265.297 34.2934 267.825 33.6241C268.07 33.5601 268.283 33.401 268.396 33.1762C269.322 31.3453 267.835 29.9148 266.422 30.3085C266.332 30.3331 264.18 30.9303 261.939 31.7932C260.609 32.3051 259.542 32.789 258.702 33.2714C257.477 33.9752 256.011 34.1228 254.688 33.6257C251.65 32.4839 247.759 30.2462 247.759 26.2842C247.759 22.7799 248.858 18.7589 257.428 18.7589C259.547 18.7589 261.48 19.0837 263.098 19.5054C263.877 19.7088 264.025 20.7522 263.333 21.1673C261.134 22.4879 259.717 23.3 259.681 23.3213C258.827 23.8102 258.53 24.9012 259.019 25.7559C259.507 26.6107 260.598 26.9076 261.452 26.4187C261.509 26.3859 265.092 24.3303 269.793 21.3953C269.818 21.3805 269.842 21.3641 269.867 21.3494C272.771 19.5365 276.093 17.3907 279.274 15.1825C280.228 14.5197 281.143 13.8618 282.027 13.2269C286.934 9.69805 290.81 6.90909 296.195 6.90909C302.226 6.90909 306.277 9.99499 306.277 14.5886C306.277 17.9222 301.849 22.2451 298.782 24.7371C297.943 25.4196 296.858 25.7116 295.784 25.5738C295.475 25.5345 295.165 25.5 294.855 25.4705C294.201 25.4098 293.824 24.6978 294.141 24.1203C295.672 21.3362 296.315 19.6218 296.351 19.525C296.692 18.6014 296.223 17.5777 295.3 17.2348C294.378 16.8903 293.352 17.3611 293.008 18.2831C292.998 18.311 291.993 20.9655 289.476 25.0357C289.323 25.2818 289.061 25.4409 288.771 25.4639C288.146 25.5131 287.665 24.9242 287.833 24.3221C288.272 22.7422 288.348 22.0187 288.357 21.9022C288.441 20.9212 287.716 20.0451 286.734 19.9614C285.749 19.8794 284.889 20.5931 284.806 21.5758C284.806 21.5889 284.666 22.7619 283.681 25.6591C283.574 25.9741 283.304 26.2104 282.978 26.276C280.68 26.7288 279.144 27.1865 278.982 27.2357C278.039 27.5212 277.506 28.5154 277.791 29.4587C278.075 30.4004 279.069 30.9368 280.013 30.6514C280.056 30.6383 281.884 30.0969 284.542 29.6211L284.624 29.6096C284.78 29.5965 285.586 29.4456 285.622 29.439C288.169 29.0403 291.274 28.7549 294.273 29.0026C295.406 29.0961 296.323 29.964 296.459 31.0927C296.518 31.5881 296.572 32.1098 296.616 32.6348C296.656 33.1139 296.689 33.6257 296.716 34.1655C296.744 34.7052 296.595 35.8864 295.377 35.9438C294.3 35.9947 289.584 36.0193 280.146 38.2817C272.944 40.0075 266.522 42.7407 265.076 43.3198L265.081 43.3116Z" fill="#151A1A"/>
<path d="M419.927 35.6624C416.846 35.6624 414.722 33.0055 414.722 29.2146C414.722 25.4238 416.882 22.8374 419.998 22.8374C423.113 22.8374 425.169 25.4238 425.169 29.1424C425.169 32.8611 423.008 35.6608 419.927 35.6608V35.6624ZM419.148 39.2055C421.308 39.2055 422.937 38.2143 424.176 36.5125C424.353 36.2647 424.53 36.158 424.708 36.158C424.955 36.158 425.169 36.4058 425.169 36.867V37.7876C425.169 38.3193 425.523 38.6738 426.054 38.6738H428.463C429.029 38.6738 429.349 38.3554 429.349 37.7876V20.7828C429.349 20.2166 429.03 19.8966 428.463 19.8966H426.054C425.488 19.8966 425.169 20.215 425.169 20.7828V21.1012C425.169 21.5623 424.991 21.8446 424.744 21.8446C424.566 21.8446 424.389 21.7379 424.178 21.4901C422.867 20.0017 421.061 19.3288 419.007 19.3288C414.013 19.3288 410.436 23.3675 410.436 29.1769C410.436 34.9863 414.083 39.2022 419.148 39.2022V39.2055ZM324.098 38.6738H326.577C327.072 38.6738 327.463 38.2849 327.463 37.7876V25.1415C327.463 24.4687 327.747 24.1142 328.101 24.1142C328.385 24.1142 328.667 24.3275 328.88 24.8576L333.626 36.867C334.087 38.0715 334.937 38.6738 336.212 38.6738C337.487 38.6738 338.302 38.0715 338.761 36.867L343.507 24.8231C343.721 24.2914 344.003 24.0797 344.287 24.0797C344.641 24.0797 344.925 24.4342 344.925 25.107V37.7893C344.925 38.2849 345.314 38.6754 345.811 38.6754H348.289C348.785 38.6754 349.175 38.2865 349.175 37.7893V16.8885C349.175 14.9406 348.219 13.8772 346.483 13.8772C344.748 13.8772 343.65 14.6567 343.014 16.2502L336.213 33.5733L329.379 16.2502C328.741 14.6567 327.643 13.8772 325.909 13.8772H325.839C324.139 13.8772 323.219 14.9406 323.219 16.8885V37.7893C323.219 38.2849 323.608 38.6754 324.105 38.6754L324.098 38.6738ZM360.61 35.6624C357.529 35.6624 355.405 33.0055 355.405 29.2146C355.405 25.4238 357.565 22.8374 360.681 22.8374C363.796 22.8374 365.851 25.4238 365.851 29.1424C365.851 32.8611 363.691 35.6608 360.61 35.6608V35.6624ZM359.831 39.2055C361.991 39.2055 363.62 38.2143 364.859 36.5125C365.036 36.2647 365.213 36.158 365.39 36.158C365.638 36.158 365.851 36.4058 365.851 36.867V37.7876C365.851 38.3193 366.206 38.6738 366.737 38.6738H369.146C369.712 38.6738 370.032 38.3554 370.032 37.7876V20.7828C370.032 20.2166 369.713 19.8966 369.146 19.8966H366.737C366.171 19.8966 365.851 20.215 365.851 20.7828V21.1012C365.851 21.5623 365.674 21.8446 365.427 21.8446C365.249 21.8446 365.072 21.7379 364.861 21.4901C363.55 20.0017 361.744 19.3288 359.69 19.3288C354.696 19.3288 351.119 23.3675 351.119 29.1769C351.119 34.9863 354.766 39.2022 359.831 39.2022V39.2055ZM440.785 35.6624C437.704 35.6624 435.579 33.0055 435.579 29.2146C435.579 25.4238 437.74 22.8374 440.855 22.8374C443.971 22.8374 446.026 25.4238 446.026 29.1424C446.026 32.8611 443.866 35.6608 440.785 35.6608V35.6624ZM440.006 39.2055C442.166 39.2055 443.795 38.2143 445.034 36.5125C445.211 36.2647 445.388 36.158 445.565 36.158C445.813 36.158 446.026 36.4058 446.026 36.867V37.7876C446.026 38.3193 446.381 38.6738 446.912 38.6738H449.321C449.887 38.6738 450.206 38.3554 450.206 37.7876V12.9894C450.206 12.4232 449.888 12.1032 449.321 12.1032H446.912C446.346 12.1032 446.026 12.4215 446.026 12.9894V21.1012C446.026 21.5623 445.849 21.8446 445.601 21.8446C445.424 21.8446 445.247 21.7379 445.035 21.4901C443.725 20.0017 441.918 19.3288 439.864 19.3288C434.871 19.3288 431.294 23.3675 431.294 29.1769C431.294 34.9863 434.941 39.2022 440.006 39.2022V39.2055ZM465.08 27.1961H457.572C457.077 27.1961 456.759 26.9483 456.759 26.5577C456.759 26.4511 456.759 26.3099 456.829 26.1688C457.643 24.1142 459.308 22.8735 461.469 22.8735C463.629 22.8735 465.116 24.1142 465.824 26.2033C465.861 26.3444 465.895 26.4511 465.895 26.5577C465.895 26.9467 465.577 27.1961 465.081 27.1961H465.08ZM461.821 39.2055C465.893 39.2055 468.869 37.1509 470.073 33.68C470.109 33.5389 470.144 33.4322 470.144 33.3255C470.144 32.9366 469.967 32.7233 469.471 32.7233H466.956C466.461 32.7233 466.213 32.9366 466 33.3961C465.221 34.8484 463.733 35.6641 461.856 35.6641C458.987 35.6641 457.039 33.8572 456.473 31.0937C456.332 30.4914 456.687 30.1369 457.287 30.1369H469.54C470.106 30.1369 470.426 29.8186 470.426 29.2508V29.1441C470.426 23.0508 466.779 19.3321 461.467 19.3321C456.155 19.3321 452.154 23.1574 452.154 29.3574C452.154 35.0963 456.085 39.2055 461.821 39.2055ZM392.694 38.6738H395.102C395.668 38.6738 395.988 38.3554 395.988 37.7876V27.4078C395.988 24.9643 397.865 22.9802 400.592 22.9802C402.929 22.9802 404.311 24.362 404.311 26.4511V37.7876C404.311 38.3538 404.629 38.6738 405.197 38.6738H407.605C408.171 38.6738 408.491 38.3554 408.491 37.7876V26.2394C408.491 22.0235 405.941 19.3321 402.222 19.3321C399.637 19.3321 398.326 20.2183 397.017 21.5279C396.769 21.7757 396.556 21.8823 396.379 21.8823C396.131 21.8823 395.99 21.669 395.99 21.244V20.7122C395.99 20.1461 395.601 19.8983 395.07 19.8983H392.697C392.131 19.8983 391.811 20.2166 391.811 20.7845V37.7893C391.811 38.3554 392.13 38.6754 392.697 38.6754L392.694 38.6738ZM386.107 38.6738H388.516C389.082 38.6738 389.401 38.3554 389.401 37.7876V20.7828C389.401 20.2166 389.083 19.8966 388.516 19.8966H386.107C385.541 19.8966 385.221 20.215 385.221 20.7828V37.7876C385.221 38.3538 385.54 38.6738 386.107 38.6738ZM387.311 17.3841C388.87 17.3841 390.004 16.1796 390.004 14.6567C390.004 13.1338 388.87 11.9637 387.311 11.9637C385.753 11.9637 384.619 13.1321 384.619 14.6567C384.619 16.1812 385.787 17.3841 387.311 17.3841ZM373.323 38.6738H375.731C376.297 38.6738 376.617 38.3554 376.617 37.7876V28.9668C376.617 25.4599 378.282 23.7597 382.708 23.7597C383.169 23.7597 383.417 23.4413 383.417 22.8735V20.5711C383.417 20.0049 383.169 19.6849 382.708 19.6849C380.37 19.6849 378.918 20.2166 377.609 21.9168C377.396 22.2007 377.184 22.3418 377.007 22.3418C376.759 22.3418 376.618 22.1285 376.618 21.7035V20.7122C376.618 20.1461 376.23 19.8983 375.698 19.8983H373.326C372.76 19.8983 372.44 20.2166 372.44 20.7845V37.7893C372.44 38.3554 372.758 38.6754 373.326 38.6754L373.323 38.6738Z" fill="#151A1A"/>
<defs>
<clipPath id="clip0_937_7143">
<rect width="188.221" height="51" fill="white"/>
</clipPath>
</defs>
</svg>
