<svg width="64" height="64" viewBox="0 0 64 64" fill="none" xmlns="http://www.w3.org/2000/svg">
<path d="M32 64C49.6731 64 64 49.6731 64 32C64 14.3269 49.6731 0 32 0C14.3269 0 0 14.3269 0 32C0 49.6731 14.3269 64 32 64Z" fill="#314012"/>
<path fill-rule="evenodd" clip-rule="evenodd" d="M55.7926 33.7355C54.8715 46.0435 44.5905 55.7432 32.0431 55.7432C18.8896 55.7432 8.22656 45.0835 8.22656 31.934C8.22656 18.7847 18.8896 8.125 32.0431 8.125C44.5696 8.125 54.8375 17.7929 55.7876 30.0719H44.4014C46.8867 24.5794 47.0373 19.5892 44.3189 17.309C40.3046 13.9417 31.5543 17.7598 24.7746 25.8371C17.9948 33.9143 15.753 43.1918 19.7672 46.5592C23.7815 49.9266 32.5318 46.1083 39.3115 38.0312C40.4933 36.6232 41.537 35.1787 42.4342 33.7355H55.7926Z" fill="#C7E36C"/>
<path d="M33.8281 33.7344H43.3522L39.6743 38.5498L33.8281 36.2035V33.7344Z" fill="#C7E36C"/>
</svg>
