<svg width="32" height="32" viewBox="0 0 32 32" fill="none" xmlns="http://www.w3.org/2000/svg">
<path d="M16 32C24.8365 32 32 24.8366 32 16C32 7.16344 24.8365 0 16 0C7.16344 0 0 7.16344 0 16C0 24.8366 7.16344 32 16 32Z" fill="#C8ECE1"/>
<path fill-rule="evenodd" clip-rule="evenodd" d="M9.87841 20.5352C9.93865 20.469 10.012 20.4161 10.0938 20.3798C10.1756 20.3436 10.2642 20.3249 10.3536 20.3248L25.016 20.3368C25.0785 20.337 25.1395 20.3552 25.1918 20.3894C25.2441 20.4235 25.2853 20.4722 25.3104 20.5293C25.3356 20.5864 25.3436 20.6497 25.3335 20.7113C25.3234 20.7729 25.2957 20.8302 25.2536 20.8764L22.1312 24.3144C22.071 24.3806 21.9975 24.4336 21.9157 24.4698C21.8338 24.5061 21.7452 24.5248 21.6556 24.5248L6.99362 24.5128C6.93118 24.5126 6.87012 24.4944 6.81785 24.4602C6.76559 24.4261 6.72437 24.3774 6.69921 24.3203C6.67405 24.2632 6.66602 24.1999 6.67611 24.1383C6.68619 24.0767 6.71396 24.0194 6.75602 23.9732L9.87841 20.5352ZM25.2536 17.6732C25.2957 17.7194 25.3234 17.7767 25.3335 17.8383C25.3436 17.8999 25.3356 17.9632 25.3104 18.0203C25.2853 18.0774 25.2441 18.1261 25.1918 18.1602C25.1395 18.1944 25.0785 18.2126 25.016 18.2128L10.354 18.2248C10.2645 18.2248 10.1759 18.2061 10.094 18.1698C10.0121 18.1336 9.93865 18.0806 9.87841 18.0144L6.75602 14.5744C6.71396 14.5282 6.68619 14.4709 6.67611 14.4093C6.66602 14.3477 6.67405 14.2844 6.69921 14.2273C6.72437 14.1702 6.76559 14.1215 6.81785 14.0874C6.87012 14.0532 6.93118 14.035 6.99362 14.0348L21.656 14.0228C21.7455 14.0229 21.834 14.0416 21.9158 14.0778C21.9977 14.1141 22.071 14.167 22.1312 14.2332L25.2536 17.6732ZM9.87841 7.93519C9.93865 7.86898 10.012 7.81606 10.0938 7.77982C10.1756 7.7436 10.2642 7.72485 10.3536 7.72479L25.016 7.73679C25.0785 7.73692 25.1395 7.75518 25.1918 7.78934C25.2441 7.82351 25.2853 7.87212 25.3104 7.92926C25.3356 7.98642 25.3436 8.04964 25.3335 8.11126C25.3234 8.17287 25.2957 8.23023 25.2536 8.27639L22.1312 11.7144C22.071 11.7806 21.9975 11.8336 21.9157 11.8698C21.8338 11.9061 21.7452 11.9248 21.6556 11.9248L6.99362 11.9128C6.93118 11.9126 6.87012 11.8944 6.81785 11.8602C6.76559 11.8261 6.72437 11.7774 6.69921 11.7203C6.67405 11.6632 6.66602 11.5999 6.67611 11.5383C6.68619 11.4767 6.71396 11.4194 6.75602 11.3732L9.87841 7.93519Z" fill="#308D8A"/>
</svg>
