<svg width="44" height="44" viewBox="0 0 44 44" fill="none" xmlns="http://www.w3.org/2000/svg">
<rect x="1.80518" y="1.80499" width="40" height="40" rx="20" fill="black"/>
<rect x="0.902676" y="0.902493" width="41.805" height="41.805" rx="20.9025" stroke="#EDF3F7" stroke-opacity="0.2" stroke-width="1.805"/>
<path fill-rule="evenodd" clip-rule="evenodd" d="M14.1532 27.474C14.2285 27.3912 14.3202 27.3251 14.4225 27.2798C14.5247 27.2345 14.6354 27.2111 14.7472 27.211L33.0752 27.226C33.1533 27.2262 33.2296 27.249 33.2949 27.2917C33.3603 27.3344 33.4118 27.3952 33.4432 27.4666C33.4747 27.538 33.4847 27.6171 33.4721 27.6941C33.4595 27.7711 33.4248 27.8428 33.3722 27.9005L29.4692 32.198C29.3939 32.2808 29.3021 32.347 29.1998 32.3923C29.0974 32.4376 28.9867 32.461 28.8747 32.461L10.5472 32.446C10.4692 32.4458 10.3928 32.423 10.3275 32.3803C10.2622 32.3376 10.2106 32.2768 10.1792 32.2054C10.1477 32.134 10.1377 32.0549 10.1503 31.9779C10.1629 31.9009 10.1976 31.8292 10.2502 31.7715L14.1532 27.474ZM33.3722 23.8965C33.4248 23.9542 33.4595 24.0259 33.4721 24.1029C33.4847 24.1799 33.4747 24.259 33.4432 24.3304C33.4118 24.4018 33.3603 24.4626 33.2949 24.5053C33.2296 24.548 33.1533 24.5708 33.0752 24.571L14.7477 24.586C14.6358 24.586 14.5251 24.5626 14.4227 24.5173C14.3203 24.472 14.2285 24.4058 14.1532 24.323L10.2502 20.023C10.1976 19.9653 10.1629 19.8936 10.1503 19.8166C10.1377 19.7396 10.1477 19.6605 10.1792 19.5891C10.2106 19.5177 10.2622 19.4569 10.3275 19.4142C10.3928 19.3715 10.4692 19.3487 10.5472 19.3485L28.8752 19.3335C28.9871 19.3336 29.0977 19.357 29.2 19.4023C29.3023 19.4476 29.394 19.5137 29.4692 19.5965L33.3722 23.8965ZM14.1532 11.724C14.2285 11.6412 14.3202 11.575 14.4225 11.5297C14.5247 11.4845 14.6354 11.461 14.7472 11.461L33.0752 11.476C33.1533 11.4761 33.2296 11.4989 33.2949 11.5416C33.3603 11.5844 33.4118 11.6451 33.4432 11.7165C33.4747 11.788 33.4847 11.867 33.4721 11.944C33.4595 12.0211 33.4248 12.0928 33.3722 12.1505L29.4692 16.448C29.3939 16.5308 29.3021 16.597 29.1998 16.6423C29.0974 16.6876 28.9867 16.711 28.8747 16.711L10.5472 16.696C10.4692 16.6958 10.3928 16.673 10.3275 16.6303C10.2622 16.5876 10.2106 16.5268 10.1792 16.4554C10.1477 16.384 10.1377 16.3049 10.1503 16.2279C10.1629 16.1509 10.1976 16.0792 10.2502 16.0215L14.1532 11.724Z" fill="url(#paint0_linear_1187_4193)"/>
<defs>
<linearGradient id="paint0_linear_1187_4193" x1="28.481" y1="7.23876" x2="12.5709" y2="33.7728" gradientUnits="userSpaceOnUse">
<stop stop-color="#00FFA3"/>
<stop offset="1" stop-color="#DC1FFF"/>
</linearGradient>
</defs>
</svg>
