<svg width="32" height="32" viewBox="0 0 32 32" fill="none" xmlns="http://www.w3.org/2000/svg">
<g clip-path="url(#clip0_2898_210)">
<path d="M16 32C24.8366 32 32 24.8366 32 16C32 7.16344 24.8366 0 16 0C7.16344 0 0 7.16344 0 16C0 24.8366 7.16344 32 16 32Z" fill="#0C9790"/>
<path d="M21.1635 7.70819C19.0632 7.70819 17.615 8.74866 15.9383 9.95246C15.6585 10.1558 15.3673 10.3648 15.0692 10.5715C14.2057 11.1711 13.3092 11.7547 12.4925 12.271C12.4114 12.3235 12.3087 12.3292 12.2207 12.2892C11.5708 11.9923 10.2814 11.516 8.69726 11.516C5.17952 11.516 4.43943 13.4554 4.43943 15.084C4.43943 16.3758 5.21264 17.4516 6.6757 18.194C7.12684 18.4224 7.57455 18.5846 7.93889 18.6954C8.221 18.7811 8.446 18.9946 8.54079 19.2733C8.6333 19.544 8.75094 19.8569 8.89142 20.1687C9.04561 20.5091 9.22949 20.886 9.4385 21.2823C9.66007 21.7083 10.1032 21.9573 10.5589 21.955C10.7245 21.955 10.889 21.9242 11.0478 21.8545C12.5257 21.2229 14.5312 20.4943 16.8657 19.9757C17.037 19.4869 17.2792 19.0209 17.5864 18.5926C17.1136 18.6851 16.5848 18.7971 16.0023 18.9375C13.6861 19.4915 11.62 20.3709 11.1551 20.5571C11.042 20.6005 10.9233 20.6279 10.8022 20.6176C10.5075 20.597 10.2426 20.4132 10.1203 20.1288C10.0552 19.978 9.997 19.8318 9.93418 19.6959C9.80056 19.4012 9.69205 19.102 9.60525 18.8462C9.52302 18.6018 9.63381 18.3356 9.86452 18.2214C10.3808 17.9667 11.2214 17.6561 12.0357 17.4425C12.1156 17.4219 12.1842 17.3694 12.2196 17.2986C12.5188 16.7093 12.0403 16.249 11.5857 16.3769C11.556 16.3826 10.865 16.5756 10.1432 16.8532C9.7149 17.0188 9.37226 17.173 9.10271 17.3271C8.70754 17.5556 8.23699 17.6013 7.81097 17.4425C6.83446 17.0747 5.58269 16.3552 5.58269 15.0829C5.58269 13.9567 5.93561 12.6627 8.6927 12.6627C9.37454 12.6627 9.99471 12.7667 10.5155 12.9026C10.7668 12.9677 10.8148 13.3035 10.5932 13.4359C9.88507 13.8619 9.42936 14.1235 9.41908 14.1303C9.14269 14.2868 9.04904 14.6386 9.20551 14.9116C9.36198 15.188 9.71375 15.2816 9.98672 15.1251C10.005 15.1149 11.1574 14.4547 12.6707 13.509C12.6787 13.5045 12.6878 13.501 12.6935 13.4942C13.6278 12.9106 14.6957 12.223 15.7202 11.5126C16.0274 11.299 16.3198 11.0877 16.6042 10.8833C18.1837 9.74802 19.4298 8.85145 21.1601 8.85145C23.0994 8.85145 24.4037 9.84396 24.4037 11.3196C24.4037 12.392 22.9784 13.782 21.9939 14.5815C21.722 14.8008 21.3737 14.8944 21.0288 14.851C20.9305 14.8385 20.83 14.8282 20.7295 14.8179C20.5205 14.7996 20.3995 14.5689 20.5 14.385C20.9934 13.4885 21.2001 12.9391 21.2104 12.9071C21.3211 12.6102 21.1704 12.2801 20.8734 12.1716C20.5765 12.0608 20.2464 12.2116 20.1356 12.5085C20.1311 12.5165 19.8101 13.3697 18.9981 14.6774C18.9501 14.7574 18.8667 14.8088 18.7719 14.8156H18.7468C18.5584 14.8156 18.419 14.634 18.4704 14.4501C18.6109 13.9419 18.636 13.7078 18.6394 13.6701C18.6669 13.3548 18.4327 13.0739 18.1175 13.0476C17.8 13.0202 17.5236 13.2498 17.4973 13.5661C17.4973 13.5707 17.4539 13.9465 17.1353 14.8784C17.0999 14.9789 17.0142 15.0566 16.9091 15.0772C16.169 15.2211 15.6756 15.3696 15.6242 15.3844C15.3216 15.4769 15.1503 15.7967 15.2416 16.0994C15.3319 16.402 15.6516 16.5733 15.9543 16.482C15.9692 16.4774 16.5562 16.3038 17.4105 16.1519L17.4379 16.1473C17.4882 16.1428 17.7474 16.0948 17.76 16.0925C18.5778 15.9646 19.576 15.8732 20.5422 15.952C20.7204 15.9669 21.0151 15.9966 21.3566 15.9966C21.9013 15.9966 22.5843 15.5786 22.7648 15.4312C23.0492 15.1994 23.385 14.9093 23.7219 14.5781C24.9337 13.3891 25.5504 12.2915 25.5504 11.3173C25.5504 9.18952 23.7447 7.70362 21.159 7.70362L21.1635 7.70819Z" fill="white"/>
<path d="M21.1635 7.70819C19.0632 7.70819 17.615 8.74866 15.9383 9.95246C15.6585 10.1558 15.3673 10.3648 15.0692 10.5715C14.2057 11.1711 13.3092 11.7547 12.4925 12.271C12.4114 12.3235 12.3087 12.3292 12.2207 12.2892C11.5708 11.9923 10.2814 11.516 8.69726 11.516C5.17952 11.516 4.43943 13.4554 4.43943 15.084C4.43943 16.3758 5.21264 17.4516 6.6757 18.194C7.12684 18.4224 7.57455 18.5846 7.93889 18.6954C8.221 18.7811 8.446 18.9946 8.54079 19.2733C8.6333 19.544 8.75094 19.8569 8.89142 20.1687C9.04561 20.5091 9.22949 20.886 9.4385 21.2823C9.66007 21.7083 10.1032 21.9573 10.5589 21.955C10.7245 21.955 10.889 21.9242 11.0478 21.8545C12.5257 21.2229 14.5312 20.4943 16.8657 19.9757C17.037 19.4869 17.2792 19.0209 17.5864 18.5926C17.1136 18.6851 16.5848 18.7971 16.0023 18.9375C13.6861 19.4915 11.62 20.3709 11.1551 20.5571C11.042 20.6005 10.9233 20.6279 10.8022 20.6176C10.5075 20.597 10.2426 20.4132 10.1203 20.1288C10.0552 19.978 9.997 19.8318 9.93418 19.6959C9.80056 19.4012 9.69205 19.102 9.60525 18.8462C9.52302 18.6018 9.63381 18.3356 9.86452 18.2214C10.3808 17.9667 11.2214 17.6561 12.0357 17.4425C12.1156 17.4219 12.1842 17.3694 12.2196 17.2986C12.5188 16.7093 12.0403 16.249 11.5857 16.3769C11.556 16.3826 10.865 16.5756 10.1432 16.8532C9.7149 17.0188 9.37226 17.173 9.10271 17.3271C8.70754 17.5556 8.23699 17.6013 7.81097 17.4425C6.83446 17.0747 5.58269 16.3552 5.58269 15.0829C5.58269 13.9567 5.93561 12.6627 8.6927 12.6627C9.37454 12.6627 9.99471 12.7667 10.5155 12.9026C10.7668 12.9677 10.8148 13.3035 10.5932 13.4359C9.88507 13.8619 9.42936 14.1235 9.41908 14.1303C9.14269 14.2868 9.04904 14.6386 9.20551 14.9116C9.36198 15.188 9.71375 15.2816 9.98672 15.1251C10.005 15.1149 11.1574 14.4547 12.6707 13.509C12.6787 13.5045 12.6878 13.501 12.6935 13.4942C13.6278 12.9106 14.6957 12.223 15.7202 11.5126C16.0274 11.299 16.3198 11.0877 16.6042 10.8833C18.1837 9.74802 19.4298 8.85145 21.1601 8.85145C23.0994 8.85145 24.4037 9.84396 24.4037 11.3196C24.4037 12.392 22.9784 13.782 21.9939 14.5815C21.722 14.8008 21.3737 14.8944 21.0288 14.851C20.9305 14.8385 20.83 14.8282 20.7295 14.8179C20.5205 14.7996 20.3995 14.5689 20.5 14.385C20.9934 13.4885 21.2001 12.9391 21.2104 12.9071C21.3211 12.6102 21.1704 12.2801 20.8734 12.1716C20.5765 12.0608 20.2464 12.2116 20.1356 12.5085C20.1311 12.5165 19.8101 13.3697 18.9981 14.6774C18.9501 14.7574 18.8667 14.8088 18.7719 14.8156H18.7468C18.5584 14.8156 18.419 14.634 18.4704 14.4501C18.6109 13.9419 18.636 13.7078 18.6394 13.6701C18.6669 13.3548 18.4327 13.0739 18.1175 13.0476C17.8 13.0202 17.5236 13.2498 17.4973 13.5661C17.4973 13.5707 17.4539 13.9465 17.1353 14.8784C17.0999 14.9789 17.0142 15.0566 16.9091 15.0772C16.169 15.2211 15.6756 15.3696 15.6242 15.3844C15.3216 15.4769 15.1503 15.7967 15.2416 16.0994C15.3319 16.402 15.6516 16.5733 15.9543 16.482C15.9692 16.4774 16.5562 16.3038 17.4105 16.1519L17.4379 16.1473C17.4882 16.1428 17.7474 16.0948 17.76 16.0925C18.5778 15.9646 19.576 15.8732 20.5422 15.952C20.7204 15.9669 21.0151 15.9966 21.3566 15.9966C21.9013 15.9966 22.5843 15.5786 22.7648 15.4312C23.0492 15.1994 23.385 14.9093 23.7219 14.5781C24.9337 13.3891 25.5504 12.2915 25.5504 11.3173C25.5504 9.18952 23.7447 7.70362 21.159 7.70362L21.1635 7.70819Z" fill="white"/>
<path d="M27.0192 21.8831C27.0192 24.1228 25.4602 25.997 23.3678 26.4801V23.4021H25.2546C25.5264 23.4021 25.6898 23.0994 25.5402 22.871L22.6083 18.4213C22.4735 18.2157 22.172 18.2157 22.0361 18.4213L19.1043 22.871C18.9547 23.0994 19.118 23.4021 19.391 23.4021H21.2195V26.4767C19.1351 25.9879 17.583 24.1171 17.583 21.8831C17.583 19.2779 19.6959 17.165 22.3011 17.165C24.9063 17.165 27.0192 19.2779 27.0192 21.8831Z" fill="white"/>
</g>
<defs>
<clipPath id="clip0_2898_210">
<rect width="32" height="32" rx="16" fill="white"/>
</clipPath>
</defs>
</svg>
