<svg width="117" height="40" viewBox="0 0 117 40" fill="none" xmlns="http://www.w3.org/2000/svg">
<g clip-path="url(#clip0_3040_51790)">
<path fill-rule="evenodd" clip-rule="evenodd" d="M59.0457 19.9236C59.0457 18.5191 58.0949 17.536 56.8191 17.536C55.5433 17.536 54.5925 18.5191 54.5925 19.9236C54.5925 21.3282 55.5433 22.3113 56.8191 22.3113C58.0828 22.3113 59.0457 21.3165 59.0457 19.9236ZM52.7028 19.9236C52.7028 17.6413 54.4962 15.8857 56.8191 15.8857C59.142 15.8857 60.9353 17.6413 60.9353 19.9236C60.9353 22.206 59.142 23.9616 56.8191 23.9616C54.4962 23.9616 52.7028 22.206 52.7028 19.9236Z" fill="#778A96"/>
<path fill-rule="evenodd" clip-rule="evenodd" d="M63.5471 19.9002C63.5471 21.3282 64.522 22.3113 65.7616 22.3113C67.0013 22.3113 67.9762 21.3399 67.9762 19.9002C67.9762 18.4606 67.0013 17.4892 65.7616 17.4892C64.522 17.5009 63.5471 18.4723 63.5471 19.9002ZM63.6072 22.9316H63.5711V26.7004H61.7537V15.991H63.5711V16.8805H63.6072C64.1248 16.3772 64.9071 15.8506 66.1227 15.8506C68.2169 15.8506 69.8538 17.4775 69.8538 19.9119C69.8538 22.3464 68.2169 23.9733 66.1227 23.9733C64.9191 23.9616 64.1248 23.4349 63.6072 22.9316Z" fill="#778A96"/>
<path fill-rule="evenodd" clip-rule="evenodd" d="M72.5619 19.9002C72.5619 21.3282 73.5368 22.3113 74.7764 22.3113C76.0161 22.3113 76.991 21.3399 76.991 19.9002C76.991 18.4606 76.0161 17.4892 74.7764 17.4892C73.5368 17.4892 72.5619 18.4723 72.5619 19.9002ZM72.622 22.9316H72.5859V26.7004H70.7685V15.991H72.5859V16.8805H72.622C73.1396 16.3772 73.9219 15.8506 75.1375 15.8506C77.2317 15.8506 78.8686 17.4775 78.8686 19.9119C78.8686 22.3464 77.2317 23.9733 75.1375 23.9733C73.9339 23.9616 73.1396 23.4349 72.622 22.9316Z" fill="#778A96"/>
<path fill-rule="evenodd" clip-rule="evenodd" d="M81.4804 19.116H85.4281C85.2355 18.1329 84.4171 17.4189 83.4542 17.4189C82.4914 17.4189 81.6729 18.1329 81.4804 19.116ZM85.3679 21.3047L87.2696 21.5505C86.5113 23.3413 85.1874 23.9616 83.5625 23.9616C81.2396 23.9616 79.5306 22.3347 79.5306 19.9002C79.5306 17.4657 81.2396 15.8389 83.4302 15.8389C85.6207 15.8389 87.4501 17.3136 87.4501 20.4737H81.5044C81.6368 21.7261 82.5515 22.3932 83.5866 22.3932C84.4171 22.3932 85.055 21.9836 85.3679 21.3047Z" fill="#778A96"/>
<path fill-rule="evenodd" clip-rule="evenodd" d="M90.1341 15.991V16.8805H90.1702C90.5794 16.3772 91.1691 15.9325 92.2524 15.9325C92.3848 15.9325 92.6616 15.9676 92.8421 16.0261V17.7935C92.6014 17.7349 92.2764 17.6998 92.0718 17.6998C90.7118 17.6998 90.1461 18.2733 90.1461 19.5491V23.8095H88.3287V15.991H90.1341Z" fill="#778A96"/>
<path fill-rule="evenodd" clip-rule="evenodd" d="M49.8504 21.1409C49.5134 21.89 48.8634 22.3347 48.0089 22.3464C47.2386 22.3347 46.6248 21.9602 46.2637 21.3282C46.1915 21.1877 46.1193 21.0238 46.0711 20.8483H46.0591C45.9749 20.5674 45.9267 20.2514 45.9267 19.9002C45.9267 19.5491 45.9749 19.2331 46.0591 18.9522H46.0711C46.1193 18.7766 46.1915 18.6245 46.2637 18.4723C46.6248 17.8403 47.2386 17.4657 48.0089 17.454C48.8514 17.4657 49.5134 17.9222 49.8504 18.6713C49.8865 18.7532 49.9226 18.8469 49.9467 18.9522C49.9467 18.9639 49.9467 18.9756 49.9587 18.9756H51.8844C51.8363 18.7181 51.7641 18.4606 51.6678 18.2265C51.1021 16.7752 49.7902 15.8623 48.0931 15.8623H47.9246C46.4322 15.8623 45.2407 16.5762 44.5907 17.7584C44.2417 18.367 44.0491 19.0926 44.0491 19.9236C44.0491 20.7546 44.2417 21.4803 44.5907 22.0889C45.2407 23.2711 46.4322 23.985 47.9246 23.985H48.0931C49.7902 23.985 51.0901 23.0604 51.6557 21.5974C51.7159 21.4569 51.7641 21.3047 51.8002 21.1643H49.8504V21.1409Z" fill="#778A96"/>
<path fill-rule="evenodd" clip-rule="evenodd" d="M91.5061 22.7561C91.5061 22.1475 92.0718 21.5739 92.7218 21.5739C93.3717 21.5739 93.9374 22.1475 93.9374 22.7561C93.9374 23.3647 93.3597 23.9382 92.7218 23.9382C92.0839 23.9382 91.5061 23.3764 91.5061 22.7561Z" fill="#778A96"/>
<path fill-rule="evenodd" clip-rule="evenodd" d="M109.379 19.9236C109.379 18.5191 108.428 17.536 107.153 17.536C105.877 17.536 104.926 18.5191 104.926 19.9236C104.926 21.3282 105.877 22.3113 107.153 22.3113C108.428 22.3113 109.379 21.3165 109.379 19.9236ZM103.024 19.9236C103.024 17.6413 104.818 15.8857 107.141 15.8857C109.464 15.8857 111.257 17.6413 111.257 19.9236C111.257 22.206 109.464 23.9616 107.141 23.9616C104.818 23.9616 103.024 22.206 103.024 19.9236Z" fill="#778A96"/>
<path fill-rule="evenodd" clip-rule="evenodd" d="M100.124 21.1409C99.7868 21.89 99.1368 22.3347 98.2823 22.3464C97.512 22.3347 96.8982 21.9602 96.5371 21.3282C96.4649 21.1877 96.3927 21.0238 96.3445 20.8483H96.3325C96.2482 20.5674 96.2001 20.2514 96.2001 19.9002C96.2001 19.5491 96.2482 19.2331 96.3325 18.9522H96.3445C96.3927 18.7766 96.4649 18.6245 96.5371 18.4723C96.8982 17.8403 97.512 17.4657 98.2823 17.454C99.1248 17.4657 99.7868 17.9222 100.124 18.6713C100.16 18.7532 100.196 18.8469 100.22 18.9522C100.22 18.9639 100.22 18.9756 100.232 18.9756H102.158C102.11 18.7181 102.037 18.4606 101.941 18.2265C101.363 16.7752 100.064 15.8623 98.3665 15.8623H98.198C96.7056 15.8623 95.5141 16.5762 94.8641 17.7584C94.5151 18.367 94.3225 19.0926 94.3225 19.9236C94.3225 20.7546 94.5151 21.4803 94.8641 22.0889C95.5141 23.2711 96.7056 23.985 98.198 23.985H98.3665C100.064 23.985 101.363 23.0604 101.929 21.5974C101.989 21.4569 102.037 21.3047 102.074 21.1643H100.124V21.1409Z" fill="#778A96"/>
<path fill-rule="evenodd" clip-rule="evenodd" d="M31.5801 27.9996C30.2923 29.4158 28.86 30.1415 27.8851 30.5043C25.165 31.4992 22.4088 31.4641 19.7128 30.3873C16.9566 29.2871 14.4893 27.0047 13.2857 24.4415C12.7441 23.2945 12.4553 22.0889 12.4191 20.86C12.4071 20.6025 12.4071 20.3099 12.4071 20.2514V19.8651C12.4432 18.1095 13.1654 16.4124 14.4171 15.1015C14.9828 14.5163 15.6327 14.0598 16.3789 13.7438C17.1131 13.4278 17.9195 13.2639 18.7861 13.2405C18.4852 13.4746 18.2083 13.7204 17.9436 14.0013C16.4391 15.5697 15.6086 17.7232 15.6086 20.0758C15.6086 22.4284 16.4391 24.5819 17.9436 26.1503C18.8101 27.0515 19.8452 27.7187 21.0247 28.1166C21.8552 28.3975 22.7579 28.538 23.6967 28.538C25.2733 28.538 27.5481 28.1283 29.4136 26.162C30.0515 25.4949 30.5691 24.7107 30.9542 23.8446H34.0354C33.5058 25.4012 32.6753 26.8292 31.5801 27.9996ZM11.0471 27.9996C9.04913 25.9279 7.94184 23.1072 7.94184 20.0524C7.94184 16.9976 9.04913 14.1534 11.0471 12.0584C13.0691 9.9399 15.8734 8.78118 18.9185 8.78118C19.6767 8.78118 20.435 8.8514 21.1571 8.99185C25.0086 9.75263 28.0416 12.5031 29.2692 16.2836H26.1881C25.8029 15.4175 25.2854 14.645 24.6475 13.9662C23.7929 13.0649 22.7699 12.4095 21.6024 12.0116C20.772 11.7307 19.8693 11.5902 18.9305 11.5902C17.7751 11.5902 16.6918 11.8009 15.6929 12.2339C14.742 12.6436 13.8995 13.2288 13.1774 13.9779C12.9969 14.1651 12.8284 14.3524 12.6719 14.5514C11.6609 15.6399 11.011 17.0795 10.7943 18.8586C10.7462 19.1746 10.7221 19.4906 10.7221 19.8066V20.2045C10.7221 20.4035 10.7221 20.6025 10.7341 20.7898V20.8717C10.7702 22.323 11.1072 23.7509 11.7451 25.0969C12.8885 27.5314 15.0189 29.7318 17.4982 31.1246C14.9948 30.8437 12.7441 29.7552 11.0471 27.9996ZM30.6172 11.1688C32.2541 12.5031 33.3854 14.2588 33.9391 16.2953H31.0144C30.1238 13.1235 28.1379 10.5368 25.478 8.93333C27.4037 9.21423 29.1609 9.97501 30.6172 11.1688ZM24.6354 26.1386C25.2733 25.4715 25.7909 24.6873 26.176 23.8212H29.0646C28.8119 24.2659 28.511 24.6639 28.1619 25.0267C26.7537 26.5014 25.0447 26.8526 23.817 26.876C24.1059 26.6653 24.3827 26.4078 24.6354 26.1386ZM35.9731 22.1943H25.0086L24.8039 22.7444C24.479 23.6222 24.0096 24.3947 23.3958 25.0384C22.7819 25.6821 22.0718 26.162 21.2654 26.4663C20.459 26.1503 19.7489 25.6704 19.1471 25.0384C17.9315 23.7743 17.2696 22.007 17.2696 20.0758C17.2696 18.1446 17.9315 16.389 19.1471 15.1132C19.7128 14.528 20.3628 14.0715 21.109 13.7555C21.1691 13.7321 21.2414 13.697 21.3015 13.6736C22.0959 13.9896 22.794 14.4577 23.3958 15.0898C24.0096 15.7335 24.479 16.506 24.8039 17.3838L25.0086 17.9339H35.9852C35.9852 14.7152 33.8789 11.6838 31.7125 9.91649C29.4859 8.10233 26.7056 7.15428 23.6726 7.15428C22.8782 7.15428 22.0959 7.22451 21.3256 7.36496C20.5433 7.22451 19.7369 7.14258 18.9185 7.14258C15.404 7.14258 12.1664 8.48857 9.81942 10.9465C7.52059 13.3458 6.25684 16.5762 6.25684 20.0524C6.25684 23.5286 7.52059 26.7472 9.81942 29.1115C12.1544 31.5226 15.3799 32.8569 18.9064 32.8569C19.7128 32.8569 20.8923 32.8569 21.7709 32.6696C22.4931 32.7983 23.2152 32.8569 23.9374 32.8569C25.4539 32.8569 26.9583 32.576 28.4749 32.0259C29.6303 31.6045 31.3153 30.7501 32.8198 29.0881L32.8318 29.0764C34.3483 27.4729 35.7926 25.0852 35.9731 22.1943Z" fill="#778A96"/>
</g>
<defs>
<clipPath id="clip0_3040_51790">
<rect width="116.429" height="40" fill="white" transform="translate(0.542969)"/>
</clipPath>
</defs>
</svg>
