<svg width="86" height="40" viewBox="0 0 86 40" fill="none" xmlns="http://www.w3.org/2000/svg">
<g clip-path="url(#clip0_3040_51783)">
<path fill-rule="evenodd" clip-rule="evenodd" d="M39.7704 6.00386C39.7704 7.11057 38.871 8.00773 37.7616 8.00773C37.4141 8.00773 37.0872 7.91971 36.8021 7.7648L21.0483 17.7829L26.5559 31.823C27.6008 31.894 28.4264 32.7619 28.4264 33.8222C28.4264 34.9289 27.527 35.8261 26.4175 35.8261C25.3508 35.8261 24.4783 34.9968 24.4126 33.9492L10.4542 25.5165C10.2047 25.6273 9.92845 25.6889 9.63775 25.6889C8.5283 25.6889 7.62891 24.7917 7.62891 23.685C7.62891 22.5783 8.5283 21.6812 9.63775 21.6812C10.0751 21.6812 10.4798 21.8206 10.8096 22.0573L18.7212 17.0262L16.5682 11.5377C15.5334 11.4566 14.7189 10.5932 14.7189 9.5401C14.7189 8.43339 15.6183 7.53623 16.7278 7.53623C17.4229 7.53623 18.0355 7.88839 18.3962 8.4236L35.8779 5.30614C36.1619 4.54343 36.8981 4 37.7616 4C38.871 4 39.7704 4.89716 39.7704 6.00386ZM18.3028 10.784L20.3461 15.9928L33.4605 7.6531L18.5847 10.3059C18.513 10.4788 18.4177 10.6395 18.3028 10.784ZM11.6194 24.0155L24.5203 31.8094L19.4234 18.8162L11.6451 23.7626C11.6418 23.8484 11.6332 23.9328 11.6194 24.0155Z" fill="#778A96"/>
<path d="M35.8473 25.4531V23.7557L40.763 17.8149H35.9418V16.0232H43.2209V17.7206L38.3051 23.6614H43.3154V25.4531H35.8473Z" fill="#778A96"/>
<path fill-rule="evenodd" clip-rule="evenodd" d="M52.3777 24.2838C51.4954 25.1891 50.3673 25.6417 48.9934 25.6417C47.6195 25.6417 46.4851 25.1891 45.5902 24.2838C44.7078 23.3785 44.2667 22.1967 44.2667 20.7382C44.2667 19.2797 44.7078 18.0978 45.5902 17.1925C46.4851 16.2872 47.6195 15.8346 48.9934 15.8346C50.3673 15.8346 51.4954 16.2872 52.3777 17.1925C53.2726 18.0978 53.7201 19.2797 53.7201 20.7382C53.7201 22.1967 53.2726 23.3785 52.3777 24.2838ZM46.9514 23.0768C47.4934 23.6552 48.1741 23.9443 48.9934 23.9443C49.8127 23.9443 50.487 23.6552 51.0164 23.0768C51.5584 22.4858 51.8294 21.7063 51.8294 20.7382C51.8294 19.77 51.5584 18.9968 51.0164 18.4184C50.487 17.8275 49.8127 17.532 48.9934 17.532C48.1741 17.532 47.4934 17.8275 46.9514 18.4184C46.4221 18.9968 46.1574 19.77 46.1574 20.7382C46.1574 21.7063 46.4221 22.4858 46.9514 23.0768Z" fill="#778A96"/>
<path fill-rule="evenodd" clip-rule="evenodd" d="M62.6077 25.4531L62.4187 24.3215H62.3241C61.6561 25.2017 60.6792 25.6417 59.3936 25.6417C58.1331 25.6417 57.0933 25.1954 56.274 24.3027C55.4547 23.41 55.045 22.2218 55.045 20.7382C55.045 19.2545 55.4547 18.0663 56.274 17.1736C57.0933 16.2809 58.1331 15.8346 59.3936 15.8346C59.9482 15.8346 60.4524 15.9352 60.9061 16.1363C61.3725 16.3249 61.675 16.4884 61.8136 16.6267C61.9523 16.7524 62.1225 16.9285 62.3241 17.1548H62.4187V12.2512H64.3093V25.4531H62.6077ZM57.7109 23.0579C58.2403 23.6489 58.8957 23.9443 59.6772 23.9443C60.4587 23.9443 61.1078 23.6489 61.6246 23.0579C62.154 22.467 62.4187 21.6937 62.4187 20.7382C62.4187 19.7826 62.154 19.0093 61.6246 18.4184C61.1078 17.8275 60.4587 17.532 59.6772 17.532C58.8957 17.532 58.2403 17.8275 57.7109 18.4184C57.1941 19.0093 56.9357 19.7826 56.9357 20.7382C56.9357 21.6937 57.1941 22.467 57.7109 23.0579Z" fill="#778A96"/>
<path d="M66.6653 16.0232H68.556V25.4531H66.6653V16.0232Z" fill="#778A96"/>
<path d="M66.5708 14.2315V12.2512H68.6505V14.2315H66.5708Z" fill="#778A96"/>
<path fill-rule="evenodd" clip-rule="evenodd" d="M76.9784 25.4531L76.7893 24.4158H76.6948C76.5057 24.6547 76.2788 24.8622 76.0141 25.0382C75.4091 25.4406 74.6906 25.6417 73.8587 25.6417C72.8252 25.6417 71.9996 25.3714 71.382 24.8308C70.7643 24.2901 70.4555 23.586 70.4555 22.7185C70.4555 21.7503 70.7769 20.9896 71.4198 20.4364C72.0752 19.8832 73.0458 19.6066 74.3314 19.6066H76.6948V19.418C76.6948 18.8019 76.5183 18.3178 76.1654 17.9658C75.8124 17.6137 75.3272 17.4377 74.7095 17.4377C74.1045 17.4377 73.6382 17.576 73.3104 17.8526C72.9827 18.1166 72.7874 18.4184 72.7243 18.7579H70.8337C70.8841 17.928 71.2559 17.2365 71.9492 16.6833C72.6424 16.1175 73.5625 15.8346 74.7095 15.8346C75.9322 15.8346 76.8838 16.1552 77.5645 16.7964C78.2451 17.4377 78.5854 18.3115 78.5854 19.418V25.4531H76.9784ZM76.6948 21.4926V21.1154H74.4259C73.7327 21.1154 73.2096 21.2537 72.8567 21.5303C72.5164 21.8069 72.3462 22.1715 72.3462 22.6242C72.3462 23.0642 72.4911 23.41 72.781 23.6614C73.071 23.9129 73.4932 24.0386 74.0478 24.0386C74.9049 24.0386 75.5603 23.8186 76.0141 23.3785C76.4679 22.9259 76.6948 22.2972 76.6948 21.4926Z" fill="#778A96"/>
<path d="M39.657 33.148H40.2998C40.1486 33.7062 39.8612 34.1488 39.4377 34.4757C39.0192 34.7976 38.5251 34.9585 37.9554 34.9585C37.2445 34.9585 36.6445 34.7045 36.1554 34.1966C35.6664 33.6886 35.4219 33.0373 35.4219 32.2427C35.4219 31.4481 35.6664 30.7968 36.1554 30.2888C36.6445 29.7809 37.2445 29.5269 37.9554 29.5269C38.5201 29.5269 39.0141 29.6878 39.4377 30.0097C39.8612 30.3265 40.1486 30.7565 40.2998 31.2997H39.657C39.5259 30.9225 39.3091 30.6283 39.0066 30.4171C38.7041 30.2008 38.3537 30.0927 37.9554 30.0927C37.4159 30.0927 36.9596 30.2938 36.5865 30.6962C36.2134 31.0935 36.0269 31.609 36.0269 32.2427C36.0269 32.8764 36.2134 33.3944 36.5865 33.7968C36.9596 34.1941 37.4159 34.3927 37.9554 34.3927C38.3537 34.3927 38.7041 34.2846 39.0066 34.0683C39.3091 33.8471 39.5259 33.5403 39.657 33.148Z" fill="#778A96"/>
<path d="M42.4965 32.8085V29.6023H43.1016V32.8085C43.1016 33.2762 43.2402 33.6585 43.5175 33.9552C43.7998 34.2469 44.1528 34.3927 44.5763 34.3927C44.9948 34.3927 45.3452 34.2444 45.6275 33.9476C45.9098 33.6509 46.051 33.2712 46.051 32.8085V29.6023H46.656V32.8085C46.656 33.4472 46.4594 33.9652 46.0661 34.3626C45.6729 34.7599 45.1763 34.9585 44.5763 34.9585C43.9763 34.9585 43.4797 34.7599 43.0864 34.3626C42.6932 33.9652 42.4965 33.4472 42.4965 32.8085Z" fill="#778A96"/>
<path d="M48.9281 33.3366H49.5331C49.5331 33.6333 49.6566 33.8848 49.9037 34.091C50.1558 34.2921 50.4986 34.3927 50.9322 34.3927C51.3759 34.3927 51.7061 34.3072 51.9229 34.1362C52.1448 33.9602 52.2557 33.7314 52.2557 33.4497C52.2557 32.987 51.9532 32.6979 51.3482 32.5822L50.3272 32.3936C49.4701 32.2326 49.0415 31.78 49.0415 31.0357C49.0415 30.5931 49.2054 30.231 49.5331 29.9493C49.8608 29.6677 50.302 29.5269 50.8566 29.5269C51.4465 29.5269 51.9204 29.6828 52.2784 29.9946C52.6414 30.3014 52.8229 30.6861 52.8229 31.1488H52.2179C52.2179 30.8521 52.0943 30.6031 51.8473 30.402C51.6053 30.1958 51.2751 30.0927 50.8566 30.0927C50.4734 30.0927 50.1759 30.1807 49.9642 30.3567C49.7524 30.5327 49.6466 30.7591 49.6466 31.0357C49.6466 31.4782 49.9365 31.7549 50.5163 31.8655L51.3482 32.0164C51.8725 32.1119 52.2557 32.2754 52.4977 32.5067C52.7397 32.7381 52.8607 33.0524 52.8607 33.4497C52.8607 33.8973 52.6918 34.262 52.354 34.5436C52.0162 34.8202 51.5423 34.9585 50.9322 34.9585C50.3272 34.9585 49.8407 34.8026 49.4726 34.4908C49.1096 34.174 48.9281 33.7892 48.9281 33.3366Z" fill="#778A96"/>
<path d="M56.4205 34.8831V30.1681H54.6811V29.6023H58.7649V30.1681H57.0255V34.8831H56.4205Z" fill="#778A96"/>
<path fill-rule="evenodd" clip-rule="evenodd" d="M64.9158 34.1966C64.4267 34.7045 63.8267 34.9585 63.1159 34.9585C62.405 34.9585 61.805 34.7045 61.3159 34.1966C60.8269 33.6886 60.5823 33.0373 60.5823 32.2427C60.5823 31.4481 60.8269 30.7968 61.3159 30.2888C61.805 29.7809 62.405 29.5269 63.1159 29.5269C63.8267 29.5269 64.4267 29.7809 64.9158 30.2888C65.4048 30.7968 65.6494 31.4481 65.6494 32.2427C65.6494 33.0373 65.4048 33.6886 64.9158 34.1966ZM61.747 33.7968C62.1201 34.1941 62.5764 34.3927 63.1159 34.3927C63.6553 34.3927 64.1116 34.1941 64.4847 33.7968C64.8578 33.3944 65.0443 32.8764 65.0443 32.2427C65.0443 31.609 64.8578 31.0935 64.4847 30.6962C64.1116 30.2938 63.6553 30.0927 63.1159 30.0927C62.5764 30.0927 62.1201 30.2938 61.747 30.6962C61.3739 31.0935 61.1874 31.609 61.1874 32.2427C61.1874 32.8764 61.3739 33.3944 61.747 33.7968Z" fill="#778A96"/>
<path fill-rule="evenodd" clip-rule="evenodd" d="M68.0281 29.6023H69.8053C70.5414 29.6023 71.1464 29.8513 71.6204 30.3492C72.0993 30.842 72.3388 31.4732 72.3388 32.2427C72.3388 33.0122 72.0993 33.6459 71.6204 34.1438C71.1464 34.6367 70.5414 34.8831 69.8053 34.8831H68.0281V29.6023ZM68.6331 34.3173H69.8053C70.3599 34.3173 70.8187 34.1262 71.1817 33.744C71.5498 33.3567 71.7338 32.8563 71.7338 32.2427C71.7338 31.6291 71.5498 31.1312 71.1817 30.749C70.8187 30.3617 70.3599 30.1681 69.8053 30.1681H68.6331V34.3173Z" fill="#778A96"/>
<path d="M75.8983 34.8831V32.8839L73.9698 29.6023H74.6126L76.1252 32.205H76.2764L77.789 29.6023H78.4318L76.5033 32.8839V34.8831H75.8983Z" fill="#778A96"/>
</g>
<defs>
<clipPath id="clip0_3040_51783">
<rect width="84.8696" height="40" fill="white" transform="translate(0.672852)"/>
</clipPath>
</defs>
</svg>
