<svg width="98" height="40" viewBox="0 0 98 40" fill="none" xmlns="http://www.w3.org/2000/svg">
<g clip-path="url(#clip0_3040_51787)">
<path d="M79.1238 32.4862V34.2848H91.4693V26.1725H89.6704V32.4862H79.1238ZM79.1238 5.71387V7.51263H89.6704V13.8266H91.4693V5.71387H79.1238ZM72.7573 19.6293V15.4495H75.5791C76.955 15.4495 77.4488 15.908 77.4488 17.1604V17.901C77.4488 19.1884 76.9724 19.6293 75.5791 19.6293H72.7573ZM77.2367 20.3699C78.524 20.0348 79.4233 18.8353 79.4233 17.4071C79.4233 16.5077 79.0709 15.6963 78.4008 15.0436C77.5541 14.2321 76.4251 13.8266 74.9615 13.8266H70.9934V26.1721H72.7573V21.2517H75.4028C76.7606 21.2517 77.3075 21.8161 77.3075 23.2272V26.1725H79.1064V23.5094C79.1064 21.5693 78.6479 20.8288 77.2367 20.617V20.3699ZM62.3872 20.7754H67.8193V19.1529H62.3872V15.4491H68.3483V13.8266H60.5881V26.1721H68.6128V24.5496H62.3872V20.7754ZM56.4787 21.428V22.2745C56.4787 24.0558 55.826 24.638 54.186 24.638H53.7981C52.1577 24.638 51.3642 24.1087 51.3642 21.6573V18.3415C51.3642 15.8725 52.1932 15.3608 53.8331 15.3608H54.1856C55.7907 15.3608 56.3021 15.9605 56.3195 17.6184H58.2597C58.0834 15.1845 56.4608 13.6504 54.0269 13.6504C52.8454 13.6504 51.8577 14.0209 51.1171 14.726C50.0059 15.7667 49.3887 17.5305 49.3887 19.9994C49.3887 22.3804 49.918 24.1441 51.0113 25.2373C51.7519 25.9604 52.7749 26.3484 53.7802 26.3484C54.8383 26.3484 55.8086 25.9249 56.3021 25.0081H56.5488V26.1721H58.1713V19.8056H53.3919V21.428H56.4787ZM40.9238 15.4491H42.8463C44.6631 15.4491 45.6508 15.9075 45.6508 18.3769V21.6218C45.6508 24.0908 44.6631 24.5496 42.8463 24.5496H40.9238V15.4491ZM43.0048 26.1725C46.3735 26.1725 47.6253 23.6152 47.6253 19.9998C47.6253 16.3314 46.2852 13.8271 42.9693 13.8271H39.1597V26.1725H43.0048ZM30.6419 20.7754H36.074V19.1529H30.6419V15.4491H36.6028V13.8266H28.8425V26.1721H36.8675V24.5496H30.6419V20.7754ZM20.2364 13.8266H18.4376V26.1721H26.5504V24.5496H20.2364V13.8266ZM6.07422 26.1725V34.2853H18.4197V32.4862H7.87298V26.1725H6.07422ZM6.07422 5.71387V13.8266H7.87298V7.51263H18.4197V5.71387H6.07422Z" fill="#778A96"/>
</g>
<defs>
<clipPath id="clip0_3040_51787">
<rect width="96.8237" height="40" fill="white" transform="translate(0.360352)"/>
</clipPath>
</defs>
</svg>
