<svg width="20" height="20" viewBox="0 0 20 20" fill="none" xmlns="http://www.w3.org/2000/svg">
<g clip-path="url(#clip0_2446_29350)">
<path d="M4.50209 10L2.25708 12.2458L-0.00958252 10L2.25625 7.73417L4.50209 10ZM9.99042 4.51167L13.8571 8.37833L16.1238 6.11333L9.99042 0L3.85709 6.13333L6.12375 8.39833L9.99042 4.51167ZM17.7246 7.73417L15.4788 10L17.7446 12.2658L20.0096 10L17.7246 7.73417ZM9.99042 15.4883L6.12375 11.6017L3.85709 13.8675L9.99042 20L16.1238 13.8667L13.8571 11.6017L9.99042 15.4883ZM9.99042 12.2467L12.2563 9.98L9.99042 7.735L7.72459 10L9.99042 12.2458V12.2467Z" fill="#308D8A"/>
</g>
<defs>
<clipPath id="clip0_2446_29350">
<rect width="20.0192" height="20" fill="white" transform="translate(-0.00958252)"/>
</clipPath>
</defs>
</svg>
