<svg width="20" height="20" viewBox="0 0 20 20" fill="none" xmlns="http://www.w3.org/2000/svg">
<g clip-path="url(#clip0_3342_100146)">
<path fill-rule="evenodd" clip-rule="evenodd" d="M3.69534 5.15402C3.33203 5.86706 3.33203 6.80048 3.33203 8.66732V11.334C3.33203 13.2008 3.33203 14.1342 3.69534 14.8473C4.01492 15.4745 4.52486 15.9844 5.15206 16.304C5.8651 16.6673 6.79852 16.6673 8.66536 16.6673H11.332C13.1989 16.6673 14.1323 16.6673 14.8453 16.304C15.4725 15.9844 15.9825 15.4745 16.3021 14.8473C16.6654 14.1342 16.6654 13.2008 16.6654 11.334V8.66732C16.6654 6.80048 16.6654 5.86706 16.3021 5.15402C15.9825 4.52681 15.4725 4.01687 14.8453 3.6973C14.1323 3.33398 13.1989 3.33398 11.332 3.33398H8.66536C6.79852 3.33398 5.8651 3.33398 5.15206 3.6973C4.52486 4.01687 4.01492 4.52681 3.69534 5.15402ZM14.5939 7.09684C14.8194 6.85759 14.8138 6.48243 14.5813 6.24996C14.3494 6.01804 13.9754 6.01188 13.7359 6.23604L8.74862 10.9055L7.11302 9.54082C6.85953 9.32932 6.48656 9.34613 6.25311 9.57957C6.01601 9.81668 6.00289 10.1969 6.2231 10.4497L8.15936 12.6732C8.4848 12.9987 9.01244 12.9987 9.33788 12.6732L14.5939 7.09684Z" fill="#308D8A"/>
</g>
<defs>
<clipPath id="clip0_3342_100146">
<rect width="20" height="20" fill="white"/>
</clipPath>
</defs>
</svg>
