<svg width="122" height="40" viewBox="0 0 122 40" fill="none" xmlns="http://www.w3.org/2000/svg">
<g clip-path="url(#clip0_3040_51791)">
<path d="M9.73043 30.7147C13.0141 30.7147 15.4819 27.8589 16.9545 25.6022C16.7754 26.1014 16.6759 26.6007 16.6759 27.0801C16.6759 28.3981 17.4322 29.3368 18.9248 29.3368C20.9746 29.3368 23.1637 27.5394 24.2981 25.6022C24.2185 25.8818 24.1787 26.1414 24.1787 26.3811C24.1787 27.2997 24.6962 27.8789 25.7509 27.8789C29.0744 27.8789 32.4178 21.9875 32.4178 16.8351C32.4178 12.8209 30.3878 9.28613 25.2932 9.28613C16.3376 9.28613 6.68555 20.2301 6.68555 27.2997C6.68555 30.0757 8.17813 30.7147 9.73043 30.7147ZM22.2084 16.3957C22.2084 15.3972 22.7657 14.6982 23.5817 14.6982C24.3777 14.6982 24.9349 15.3972 24.9349 16.3957C24.9349 17.3942 24.3777 18.1132 23.5817 18.1132C22.7657 18.1132 22.2084 17.3942 22.2084 16.3957ZM26.4674 16.3957C26.4674 15.3972 27.0246 14.6982 27.8405 14.6982C28.6365 14.6982 29.1938 15.3972 29.1938 16.3957C29.1938 17.3942 28.6365 18.1132 27.8405 18.1132C27.0246 18.1132 26.4674 17.3942 26.4674 16.3957Z" fill="#778A96"/>
<path d="M36.3974 28.5379H39.3826V25.6022C39.3826 24.2242 39.2632 23.705 38.5667 22.3071L38.9447 22.1073C39.9597 24.4839 41.3927 25.3425 42.8653 25.3425C45.2335 25.3425 47.1241 23.2656 47.1241 20.0504C47.1241 16.9749 45.3927 14.7182 42.9051 14.7182C41.4324 14.7182 39.9597 15.5569 38.9447 17.9534L38.5667 17.7537C39.0443 16.7951 39.3826 15.8964 39.3826 15.0377H36.3974V28.5379ZM39.3826 20.0304C39.3826 18.7123 40.3777 17.2544 41.8503 17.2544C43.0444 17.2544 44.0196 18.233 44.0196 20.0104C44.0196 21.7678 43.0842 22.8063 41.8304 22.8063C40.4374 22.8063 39.3826 21.3884 39.3826 20.0304Z" fill="#778A96"/>
<path d="M48.2137 25.023H51.1989V21.5082C51.1989 19.0318 52.0746 17.2744 53.7064 17.2744C54.7413 17.2744 55.0598 17.9734 55.0598 19.7108V25.023H58.045V19.2316C58.045 16.0762 56.9106 14.7182 54.7413 14.7182C52.5124 14.7182 51.776 16.216 50.9203 18.0333L50.5422 17.8336C51.0596 16.7152 51.1989 16.0362 51.1989 15.0377V11.5828H48.2137V25.023Z" fill="#778A96"/>
<path d="M62.4077 25.3425C64.3381 25.3425 65.4724 24.0645 66.3281 22.4268L66.6864 22.6066C66.3082 23.3855 65.9501 24.2841 65.9501 25.023H68.8756V19.591C68.8756 16.3558 67.5222 14.7182 64.358 14.7182C61.2534 14.7182 59.721 16.2759 59.4225 17.9135L62.2883 18.4127C62.3878 17.554 63.0843 16.9749 64.1988 16.9749C65.3133 16.9749 65.9501 17.534 65.9501 18.213C65.9501 18.8921 65.2934 19.2116 63.542 19.2316C60.9548 19.2715 59.0443 20.2101 59.0443 22.2072C59.0443 23.8447 60.3379 25.3425 62.4077 25.3425ZM62.0096 22.0074C62.0096 20.4298 64.5171 21.5282 65.8904 20.31V20.6694C65.8904 22.0873 64.6366 23.1258 63.3828 23.1258C62.726 23.1258 62.0096 22.8462 62.0096 22.0074Z" fill="#778A96"/>
<path d="M70.0584 25.023H73.0436V21.5082C73.0436 19.0318 73.9192 17.2744 75.5511 17.2744C76.586 17.2744 76.9044 17.9734 76.9044 19.7108V25.023H79.8896V19.2316C79.8896 16.0762 78.7553 14.7182 76.586 14.7182C74.3571 14.7182 73.6207 16.216 72.7649 18.0333L72.3869 17.8336C72.9043 16.7152 73.0436 16.0362 73.0436 15.0377H70.0584V25.023Z" fill="#778A96"/>
<path d="M87.8406 25.063V22.5866C87.2038 22.8063 85.4326 23.1857 85.4326 21.7279V17.4342H87.8207V15.0377H85.4326V12.3616L82.4275 13.2603V15.0377H80.6364V17.4342H82.4275L82.4474 21.9675C82.4474 25.3026 85.4127 25.7819 87.8406 25.063Z" fill="#778A96"/>
<path d="M93.9044 25.3425C96.9294 25.3425 99.2379 23.026 99.2379 20.0104C99.2379 17.0148 96.9294 14.7182 93.9044 14.7182C90.8795 14.7182 88.551 17.0148 88.551 20.0104C88.551 23.026 90.8795 25.3425 93.9044 25.3425ZM91.6357 20.0304C91.6357 18.3728 92.5711 17.2145 93.9044 17.2145C95.2378 17.2145 96.1533 18.3728 96.1533 20.0304C96.1533 21.6879 95.2378 22.8462 93.9044 22.8462C92.5711 22.8462 91.6357 21.6879 91.6357 20.0304Z" fill="#778A96"/>
<path d="M100.163 25.023H103.148V21.5082C103.148 18.932 103.964 17.2744 105.277 17.2744C106.133 17.2744 106.412 17.9534 106.412 19.7108V25.023H109.397V21.5082C109.397 19.0917 110.273 17.2744 111.527 17.2744C112.362 17.2744 112.66 18.0533 112.66 19.7108V25.023H115.646V19.2316C115.646 16.0562 114.611 14.7182 112.581 14.7182C110.472 14.7182 109.716 16.216 108.979 18.0533L108.621 17.8735C109.318 15.7766 107.805 14.7182 106.312 14.7182C104.342 14.7182 103.626 16.216 102.83 18.0333L102.471 17.8336C102.969 16.7152 103.148 16.0362 103.148 15.0377H100.163V25.023Z" fill="#778A96"/>
</g>
<defs>
<clipPath id="clip0_3040_51791">
<rect width="120.389" height="40" fill="white" transform="translate(0.97168)"/>
</clipPath>
</defs>
</svg>
