<svg width="20" height="20" viewBox="0 0 20 20" fill="none" xmlns="http://www.w3.org/2000/svg">
<g clip-path="url(#clip0_3333_100103)">
<path fill-rule="evenodd" clip-rule="evenodd" d="M6.05519 2.33562L10.8201 1.68338L10.8141 1.67735C10.9892 1.65319 11.1764 1.67131 11.3455 1.7317L15.893 3.30793C16.3943 3.48307 16.7144 3.97828 16.66 4.50973L15.7662 13.5263C15.736 13.8584 15.5609 14.1604 15.2831 14.3536L10.2343 17.8866C9.76929 18.2127 9.13518 18.1523 8.74263 17.7416L4.48499 13.2847C4.24946 13.0431 4.14076 12.711 4.17095 12.3788L5.06476 3.36228C5.11911 2.83083 5.52978 2.40809 6.05519 2.33562ZM10.5303 8.54902C10.9001 8.1249 11.2699 7.70078 11.6412 7.27515V7.26911C11.8646 7.00942 12.2692 7.00338 12.4987 7.25703L13.3623 8.19914C13.5979 8.45883 13.5435 8.86346 13.2536 9.06275C11.8525 10.0049 10.5299 11.0678 9.24963 12.1669L8.75441 11.5147C8.31355 10.9289 7.85457 10.3491 7.3654 9.79953C7.14799 9.55193 7.17214 9.1775 7.42579 8.97216L7.78814 8.67624C8.04179 8.47091 8.41018 8.51922 8.60947 8.77287C8.74535 8.94799 8.87971 9.12312 9.01408 9.29825C9.14846 9.47339 9.28284 9.64854 9.41873 9.82369C9.79025 9.39779 10.1603 8.97341 10.5303 8.54902Z" fill="#308D8A"/>
</g>
<defs>
<clipPath id="clip0_3333_100103">
<rect width="20" height="20" fill="white"/>
</clipPath>
</defs>
</svg>
