<svg width="32" height="32" viewBox="0 0 32 32" fill="none" xmlns="http://www.w3.org/2000/svg">
<path d="M16 32C24.8366 32 32 24.8366 32 16C32 7.16345 24.8366 0 16 0C7.16344 0 0 7.16345 0 16C0 24.8366 7.16344 32 16 32Z" fill="#102825"/>
<path d="M21.1635 7.70819C19.0632 7.70819 17.615 8.74866 15.9383 9.95246C15.6585 10.1558 15.3673 10.3648 15.0692 10.5715C14.2057 11.1711 13.3092 11.7547 12.4925 12.271C12.4115 12.3235 12.3087 12.3292 12.2207 12.2892C11.5709 11.9923 10.2814 11.516 8.69727 11.516C5.17953 11.516 4.43943 13.4554 4.43943 15.084C4.43943 16.3758 5.21264 17.4516 6.6757 18.194C7.12684 18.4224 7.57456 18.5846 7.9389 18.6954C8.221 18.7811 8.44599 18.9946 8.54079 19.2733C8.6333 19.544 8.75095 19.857 8.89143 20.1688C9.04561 20.5091 9.2295 20.886 9.43851 21.2823C9.66008 21.7083 10.1032 21.9573 10.5589 21.955C10.7245 21.955 10.889 21.9242 11.0478 21.8545C12.5257 21.2229 14.5312 20.4943 16.8657 19.9757C17.037 19.4869 17.2792 19.0209 17.5864 18.5926C17.1136 18.6851 16.5848 18.7971 16.0023 18.9375C13.6861 19.4915 11.62 20.3709 11.1551 20.5571C11.042 20.6005 10.9233 20.6279 10.8022 20.6176C10.5075 20.597 10.2426 20.4132 10.1204 20.1288C10.0553 19.978 9.997 19.8318 9.93419 19.6959C9.80056 19.4012 9.69205 19.102 9.60525 18.8462C9.52302 18.6018 9.63381 18.3356 9.86452 18.2214C10.3808 17.9667 11.2214 17.6561 12.0357 17.4425C12.1156 17.4219 12.1842 17.3694 12.2196 17.2986C12.5188 16.7093 12.0403 16.249 11.5857 16.3769C11.556 16.3826 10.865 16.5756 10.1432 16.8532C9.71489 17.0188 9.37226 17.173 9.10272 17.3272C8.70754 17.5556 8.23699 17.6013 7.81098 17.4425C6.83447 17.0747 5.5827 16.3552 5.5827 15.0829C5.5827 13.9567 5.93561 12.6627 8.6927 12.6627C9.37455 12.6627 9.99471 12.7667 10.5155 12.9026C10.7668 12.9677 10.8148 13.3035 10.5932 13.4359C9.88508 13.862 9.42937 14.1235 9.41909 14.1303C9.14269 14.2868 9.04904 14.6386 9.20551 14.9116C9.36198 15.188 9.71375 15.2816 9.98672 15.1251C10.005 15.1149 11.1574 14.4547 12.6707 13.509C12.6787 13.5045 12.6878 13.501 12.6936 13.4942C13.6278 12.9106 14.6957 12.223 15.7202 11.5126C16.0274 11.299 16.3198 11.0877 16.6042 10.8833C18.1837 9.74802 19.4298 8.85145 21.1601 8.85145C23.0994 8.85145 24.4037 9.84396 24.4037 11.3196C24.4037 12.392 22.9784 13.782 21.9939 14.5815C21.722 14.8008 21.3737 14.8944 21.0288 14.851C20.9305 14.8385 20.83 14.8282 20.7295 14.8179C20.5205 14.7996 20.3995 14.5689 20.5 14.385C20.9934 13.4885 21.2001 12.9391 21.2104 12.9071C21.3212 12.6102 21.1704 12.2801 20.8734 12.1716C20.5765 12.0608 20.2464 12.2116 20.1356 12.5085C20.1311 12.5165 19.8101 13.3697 18.9981 14.6774C18.9501 14.7574 18.8667 14.8088 18.7719 14.8156H18.7468C18.5584 14.8156 18.419 14.634 18.4704 14.4501C18.6109 13.9419 18.636 13.7078 18.6394 13.6701C18.6669 13.3548 18.4327 13.0739 18.1175 13.0476C17.8 13.0202 17.5236 13.2498 17.4973 13.5661C17.4973 13.5707 17.4539 13.9465 17.1353 14.8784C17.0999 14.9789 17.0142 15.0566 16.9091 15.0772C16.169 15.2211 15.6756 15.3696 15.6242 15.3844C15.3216 15.4769 15.1503 15.7967 15.2416 16.0994C15.3319 16.402 15.6516 16.5733 15.9543 16.482C15.9692 16.4774 16.5562 16.3038 17.4105 16.1519L17.4379 16.1473C17.4882 16.1428 17.7475 16.0948 17.76 16.0925C18.5778 15.9646 19.576 15.8732 20.5422 15.952C20.7204 15.9669 21.0151 15.9966 21.3566 15.9966C21.9014 15.9966 22.5843 15.5786 22.7648 15.4312C23.0492 15.1994 23.385 14.9093 23.7219 14.5781C24.9337 13.3891 25.5504 12.2915 25.5504 11.3173C25.5504 9.18952 23.7447 7.70362 21.159 7.70362L21.1635 7.70819Z" fill="#97BFBF"/>
<path d="M23.7573 27.7913L22.509 27.1186C22.3799 27.0478 22.2246 27.0478 22.0944 27.1186L20.846 27.7913C20.5057 27.9763 20.1094 27.6531 20.2464 27.307L20.9363 25.5893L21.3737 24.5054L21.9082 23.176C22.0464 22.8356 22.5546 22.8356 22.6928 23.176L23.9937 26.4082L24.3546 27.307C24.4928 27.6531 24.0965 27.9763 23.755 27.7913H23.7573Z" fill="#97BFBF"/>
<path d="M22.3034 17.1718C19.7016 17.1718 17.5876 19.2859 17.5876 21.8842C17.5876 23.5392 18.4441 24.9942 19.7336 25.8383L20.1082 24.9063C19.174 24.229 18.5641 23.1246 18.5641 21.8842C18.5641 19.8261 20.2418 18.1483 22.3034 18.1483C24.3649 18.1483 26.0393 19.8261 26.0393 21.8842C26.0393 23.1246 25.4305 24.229 24.4951 24.9063L24.8697 25.8348C26.1592 24.9942 27.0158 23.5357 27.0158 21.8842C27.0158 19.2848 24.8994 17.1718 22.3034 17.1718Z" fill="#97BFBF"/>
<path d="M22.3034 19.4389C20.9522 19.4389 19.8581 20.5365 19.8581 21.8854C19.8581 22.5786 20.1482 23.2045 20.6142 23.6499L21.0311 22.614C20.9077 22.3993 20.8357 22.1481 20.8357 21.8842C20.8357 21.0767 21.4936 20.4155 22.3045 20.4155C23.1154 20.4155 23.7699 21.0767 23.7699 21.8842C23.7699 22.1481 23.7013 22.3993 23.5746 22.614L23.9914 23.6499C24.4574 23.2034 24.7475 22.5786 24.7475 21.8854C24.7475 20.5365 23.6534 19.4389 22.3045 19.4389H22.3034Z" fill="#97BFBF"/>
</svg>
