<svg width="20" height="20" viewBox="0 0 20 20" fill="none" xmlns="http://www.w3.org/2000/svg">
<g clip-path="url(#clip0_3333_100112)">
<path fill-rule="evenodd" clip-rule="evenodd" d="M3 6.2C3 5.0799 3 4.51984 3.21799 4.09202C3.40973 3.71569 3.71569 3.40973 4.09202 3.21799C4.51984 3 5.0799 3 6.2 3H8.8C9.9201 3 10.4802 3 10.908 3.21799C11.2843 3.40973 11.5903 3.71569 11.782 4.09202C12 4.51984 12 5.0799 12 6.2V6.5H11.2L11.1476 6.49999C10.6326 6.49996 10.1596 6.49992 9.76426 6.53223C9.338 6.56705 8.87165 6.64678 8.41104 6.88147C7.75247 7.21703 7.21704 7.75246 6.88148 8.41103C6.64679 8.87164 6.56706 9.33799 6.53223 9.76425C6.49993 10.1596 6.49997 10.6326 6.5 11.1476L6.5 11.2V12H6.2C5.0799 12 4.51984 12 4.09202 11.782C3.71569 11.5903 3.40973 11.2843 3.21799 10.908C3 10.4802 3 9.9201 3 8.8V6.2ZM8.21799 9.09202C8 9.51984 8 10.0799 8 11.2V13.8C8 14.9201 8 15.4802 8.21799 15.908C8.40973 16.2843 8.71569 16.5903 9.09202 16.782C9.51984 17 10.0799 17 11.2 17H13.8C14.9201 17 15.4802 17 15.908 16.782C16.2843 16.5903 16.5903 16.2843 16.782 15.908C17 15.4802 17 14.9201 17 13.8V11.2C17 10.0799 17 9.51984 16.782 9.09202C16.5903 8.71569 16.2843 8.40973 15.908 8.21799C15.4802 8 14.9201 8 13.8 8H11.2C10.0799 8 9.51984 8 9.09202 8.21799C8.71569 8.40973 8.40973 8.71569 8.21799 9.09202Z" fill="#308D8A"/>
</g>
<defs>
<clipPath id="clip0_3333_100112">
<rect width="20" height="20" fill="white"/>
</clipPath>
</defs>
</svg>
