<svg width="20" height="20" viewBox="0 0 20 20" fill="none" xmlns="http://www.w3.org/2000/svg">
<g clip-path="url(#clip0_3342_100147)">
<path d="M3.33203 8.66731C3.33203 6.80048 3.33203 5.86706 3.69534 5.15402C4.01492 4.52681 4.52486 4.01687 5.15206 3.6973C5.8651 3.33398 6.79852 3.33398 8.66536 3.33398H11.332C13.1989 3.33398 14.1323 3.33398 14.8453 3.6973C15.4725 4.01687 15.9825 4.52681 16.3021 5.15402C16.6654 5.86706 16.6654 6.80048 16.6654 8.66732V11.334C16.6654 13.2008 16.6654 14.1342 16.3021 14.8473C15.9825 15.4745 15.4725 15.9844 14.8453 16.304C14.1323 16.6673 13.1989 16.6673 11.332 16.6673H8.66536C6.79852 16.6673 5.8651 16.6673 5.15206 16.304C4.52486 15.9844 4.01492 15.4745 3.69534 14.8473C3.33203 14.1342 3.33203 13.2008 3.33203 11.334V8.66731Z" fill="#DAE4EB"/>
</g>
<defs>
<clipPath id="clip0_3342_100147">
<rect width="20" height="20" fill="white"/>
</clipPath>
</defs>
</svg>
