<svg width="126" height="40" viewBox="0 0 126 40" fill="none" xmlns="http://www.w3.org/2000/svg">
<g clip-path="url(#clip0_3040_51786)">
<g clip-path="url(#clip1_3040_51786)">
<path d="M11.3599 30.0153C11.5893 30.0153 11.7753 30.1985 11.7753 30.4245C11.7753 30.6505 11.5893 30.8337 11.3599 30.8337C11.1305 30.8337 10.9444 30.6505 10.9444 30.4245C10.9444 30.1985 11.1305 30.0153 11.3599 30.0153ZM10.9086 10.4702C11.1116 10.4869 11.2756 10.6401 11.303 10.8387L11.7971 14.4138C11.9631 15.5949 13.3937 16.1067 14.2768 15.304L19.2275 10.8169C19.3471 10.7087 19.533 10.7162 19.6429 10.8337C19.7439 10.9415 19.7471 11.1065 19.65 11.2178L15.3328 16.1767C14.5381 17.088 15.1246 18.511 16.3362 18.6126L20.1453 18.9783C20.335 18.9965 20.4738 19.1626 20.4552 19.3492C20.4399 19.5031 20.321 19.6275 20.1656 19.6516L16.1631 20.274C15.0008 20.4317 14.4746 21.8021 15.2306 22.6923L16.6377 24.3443C16.751 24.4774 16.7332 24.6755 16.598 24.7872C16.4834 24.8816 16.3174 24.8853 16.1986 24.796L14.464 23.4915C13.5279 22.7905 12.1786 23.3863 12.0797 24.5464L11.6975 29.071C11.6817 29.2578 11.5149 29.3968 11.3249 29.3812C11.1637 29.368 11.0334 29.2464 11.0115 29.0887L10.4054 24.7182C10.243 23.5371 8.81238 23.0253 7.92576 23.828L2.65911 28.6032C2.55008 28.7022 2.38027 28.6953 2.27979 28.588C2.18761 28.4897 2.1848 28.3391 2.27326 28.2374L6.86966 22.9552C7.66441 22.0439 7.0816 20.6209 5.86998 20.5193L2.05994 20.1536C1.87023 20.1354 1.73145 19.9693 1.74997 19.7827C1.76523 19.6287 1.8843 19.5044 2.03956 19.4803L6.03954 18.858C7.20169 18.7003 7.73153 17.3299 6.97561 16.4396L6.01776 15.3152C5.87718 15.1501 5.89919 14.9042 6.06693 14.7659C6.2091 14.6487 6.41492 14.6442 6.56225 14.7551L7.73855 15.6405C8.67464 16.3415 10.0239 15.7457 10.1229 14.5856L10.4393 10.8607C10.4593 10.6253 10.6694 10.4505 10.9086 10.4702ZM0.775784 19.3646C1.00522 19.3646 1.19124 19.5477 1.19124 19.7737C1.19124 19.9997 1.00522 20.1829 0.775784 20.1829C0.546345 20.1829 0.360352 19.9997 0.360352 19.7737C0.360352 19.5477 0.546345 19.3646 0.775784 19.3646ZM21.6116 18.9491C21.8412 18.9491 22.027 19.1323 22.027 19.3583C22.027 19.5842 21.8412 19.7674 21.6116 19.7674C21.3822 19.7674 21.1962 19.5842 21.1962 19.3583C21.1962 19.1323 21.3822 18.9491 21.6116 18.9491ZM10.8486 9.16699C11.078 9.16699 11.264 9.35018 11.264 9.57616C11.264 9.80212 11.078 9.9853 10.8486 9.9853C10.6191 9.9853 10.4332 9.80212 10.4332 9.57616C10.4332 9.35018 10.6191 9.16699 10.8486 9.16699Z" fill="#778A96"/>
<path fill-rule="evenodd" clip-rule="evenodd" d="M50.3342 14.7821C50.8894 15.0076 51.3702 15.3206 51.7726 15.7211C52.1752 16.1216 52.4942 16.5957 52.7208 17.1527C52.9474 17.7097 53.0631 18.3128 53.0631 18.9664V21.0332C53.0631 21.6915 52.9474 22.2991 52.7208 22.8515C52.4942 23.4039 52.1752 23.8827 51.7726 24.2831C51.3658 24.6836 50.8894 24.9966 50.3342 25.2221C49.7792 25.4477 49.178 25.5582 48.5258 25.5582H45.8571C45.2049 25.5582 44.599 25.4477 44.0439 25.2221C43.4889 24.9966 43.0079 24.6836 42.6056 24.2831C42.1985 23.8827 41.884 23.4039 41.6527 22.8515C41.4215 22.2991 41.3058 21.6915 41.3058 21.0332V18.9664C41.3058 18.3128 41.4215 17.7051 41.6527 17.1527C41.884 16.6003 42.2031 16.1216 42.6056 15.7211C43.0079 15.3206 43.4889 15.0076 44.0439 14.7821C44.599 14.5565 45.2049 14.4414 45.8571 14.4414H48.5258C49.178 14.4414 49.7792 14.5565 50.3342 14.7821ZM50.903 22.092C51.028 21.7743 51.0881 21.4245 51.0881 21.0378H51.0834V18.971C51.0834 18.5797 51.0233 18.2299 50.8987 17.9169C50.7737 17.6038 50.6025 17.3369 50.3759 17.1113C50.1539 16.8857 49.881 16.7154 49.5665 16.5911C49.252 16.4668 48.9051 16.407 48.5258 16.407H45.8571C45.4732 16.407 45.1216 16.4668 44.8071 16.5911C44.4926 16.7154 44.2198 16.8857 43.9931 17.1113C43.7664 17.3323 43.5907 17.6038 43.4658 17.9169C43.3409 18.2345 43.2808 18.5844 43.2808 18.971V21.0378C43.2808 21.4291 43.3409 21.779 43.4658 22.092C43.5907 22.405 43.7664 22.672 43.9931 22.8975C44.2198 23.1231 44.4926 23.2934 44.8071 23.4177C45.1216 23.542 45.4732 23.6018 45.8571 23.6018H48.512C48.8959 23.6018 49.2474 23.542 49.5619 23.4177C49.8764 23.2934 50.1493 23.1231 50.3759 22.8975C50.6025 22.6766 50.7783 22.405 50.903 22.092ZM38.9155 19.7625C39.1283 19.9328 39.3133 20.1353 39.4798 20.3701C39.6463 20.6095 39.7758 20.881 39.8729 21.194C39.97 21.5025 40.0163 21.8477 40.0163 22.2344C40.0163 22.6211 39.9655 22.9709 39.8683 23.2793C39.7712 23.5878 39.6417 23.8639 39.4798 24.0987C39.3179 24.3335 39.1283 24.536 38.9109 24.7017C38.6935 24.8675 38.4669 25.0009 38.2356 25.1068C38.0043 25.2127 37.7684 25.2909 37.528 25.3416C37.2874 25.3922 37.0608 25.4152 36.848 25.4152H29.2441V23.4542H36.848C37.2273 23.4542 37.5233 23.3438 37.7314 23.1228C37.9395 22.9019 38.0459 22.6072 38.0459 22.2344C38.0459 22.0549 38.0182 21.8891 37.9627 21.7373C37.9072 21.5853 37.824 21.4565 37.7222 21.346C37.6204 21.2355 37.4909 21.1481 37.3429 21.0882C37.1949 21.0283 37.0284 20.9961 36.848 20.9961H32.3153C31.9961 20.9961 31.6539 20.9409 31.2838 20.8258C30.9138 20.7107 30.5715 20.5312 30.257 20.278C29.9425 20.0249 29.6789 19.6934 29.4708 19.2883C29.2626 18.8833 29.1562 18.3861 29.1562 17.7969C29.1562 17.2077 29.2626 16.7106 29.4708 16.3055C29.6789 15.9004 29.9425 15.5689 30.257 15.3158C30.5715 15.058 30.9138 14.8785 31.2838 14.7634C31.6539 14.6483 31.9961 14.593 32.3153 14.593H39.0218V16.5541H32.3153C31.9406 16.5541 31.6492 16.6691 31.4411 16.8947C31.2329 17.1202 31.1266 17.4195 31.1266 17.7923C31.1266 18.1698 31.2329 18.4644 31.4411 18.6853C31.6492 18.9017 31.9406 19.0122 32.3153 19.0122H36.848H36.8619C37.0746 19.0167 37.3012 19.049 37.5372 19.0996C37.7731 19.1503 38.0089 19.2331 38.2449 19.3436C38.4807 19.4541 38.7027 19.5921 38.9155 19.7625ZM56.9803 14.5944H55.0099V24.4223C55.0099 24.565 55.0329 24.6939 55.084 24.8135C55.1345 24.9332 55.204 25.0391 55.292 25.1266C55.3798 25.214 55.4864 25.2831 55.6067 25.3337C55.7269 25.3844 55.8609 25.4074 55.9997 25.4074H64.9911V23.4464H56.9803V14.5944ZM66.7211 14.8791C66.8091 14.787 66.9154 14.7179 67.0357 14.6673C67.156 14.6167 67.2899 14.5937 67.4334 14.5982H76.3092V16.5592H68.4093V19.0173H76.3046V20.9921H68.4093V25.4112H66.439V15.5834C66.439 15.4452 66.4622 15.3163 66.5131 15.1967C66.5639 15.077 66.6333 14.9711 66.7211 14.8791ZM79.8714 14.5944H77.9014V24.4223C77.9014 24.565 77.924 24.6939 77.9751 24.8135C78.026 24.9332 78.0954 25.0391 78.1835 25.1266C78.2712 25.214 78.3775 25.2831 78.4981 25.3337C78.6178 25.3844 78.7526 25.4074 78.8915 25.4074H87.8823V23.4464H79.8714V14.5944ZM99.3832 14.6681C99.5038 14.7187 99.6102 14.7878 99.7022 14.8799C99.7952 14.9719 99.8647 15.0778 99.9155 15.1974C99.9657 15.3218 99.9893 15.4506 99.9893 15.5841V25.412H98.0193V22.7559H91.0906V25.4165H89.1196V20.0078C89.1196 19.216 89.2545 18.4887 89.5273 17.8258C89.8001 17.163 90.1792 16.5922 90.6646 16.1135C91.1507 15.6348 91.7239 15.2619 92.3851 14.9949C93.0473 14.7279 93.7727 14.5944 94.5545 14.5944H98.9951C99.134 14.5944 99.263 14.6175 99.3832 14.6681ZM91.0946 20.7949H98.0193H98.0283V16.5554H94.5638C94.5033 16.5554 94.3744 16.5646 94.1803 16.583C93.9853 16.6015 93.7593 16.6474 93.5048 16.7166C93.2457 16.7856 92.9778 16.8914 92.6948 17.0387C92.4127 17.1861 92.1492 17.384 91.9133 17.6417C91.678 17.8995 91.4787 18.2172 91.3265 18.6038C91.1733 18.9905 91.0946 19.4554 91.0946 20.0033V20.7949ZM110.276 21.7879C110.552 21.7327 110.825 21.6452 111.094 21.5209C111.362 21.3966 111.621 21.2401 111.871 21.0513C112.121 20.858 112.339 20.6325 112.528 20.3609C112.718 20.0939 112.87 19.7809 112.981 19.431C113.092 19.0812 113.148 18.6808 113.148 18.2296V16.9775C113.148 16.7382 113.106 16.4758 113.022 16.1996C112.939 15.9234 112.801 15.6657 112.611 15.4262C112.421 15.1869 112.176 14.989 111.871 14.8325C111.566 14.676 111.195 14.593 110.756 14.593H103.278C103.134 14.593 103.004 14.6161 102.884 14.6667C102.764 14.7174 102.657 14.7864 102.57 14.8785C102.481 14.9705 102.412 15.0765 102.362 15.1961C102.311 15.3158 102.287 15.4447 102.287 15.5827V25.4106H104.258V21.8707H106.464L110.571 25.4106H113.619L109.503 21.8707C109.743 21.8707 110.003 21.8431 110.276 21.7879ZM104.253 19.9098V16.5541H110.756C110.792 16.5541 110.828 16.5574 110.87 16.5613L110.891 16.5632C110.937 16.5679 110.983 16.5863 111.025 16.6139C111.066 16.6415 111.103 16.6829 111.131 16.7428C111.159 16.8026 111.173 16.8855 111.173 16.996V18.2342C111.173 18.492 111.131 18.7176 111.052 18.9155C110.973 19.1134 110.858 19.2838 110.706 19.4265C110.558 19.5692 110.382 19.6796 110.173 19.7625C109.97 19.8453 109.743 19.896 109.494 19.919H104.253V19.9098ZM124.944 14.5944V16.5554H117.049V19.0136H124.884V20.9883H117.049V22.6547C117.049 22.9125 117.119 23.1104 117.252 23.2439C117.387 23.3773 117.585 23.4464 117.849 23.4464H124.944V25.4074H117.836C117.563 25.4074 117.267 25.3613 116.943 25.2647C116.619 25.1726 116.323 25.0161 116.046 24.7952C115.773 24.5788 115.541 24.2934 115.356 23.9436C115.171 23.5937 115.079 23.1656 115.079 22.6592V15.5841C115.079 15.446 115.102 15.3171 115.153 15.1974C115.204 15.0778 115.273 14.9719 115.361 14.8799C115.449 14.7878 115.555 14.7187 115.676 14.6681C115.796 14.6175 115.925 14.5944 116.068 14.5944H124.944Z" fill="#778A96"/>
</g>
</g>
<defs>
<clipPath id="clip0_3040_51786">
<rect width="125" height="40" fill="white" transform="translate(0.360352)"/>
</clipPath>
<clipPath id="clip1_3040_51786">
<rect width="125" height="40" fill="white" transform="translate(0.360352)"/>
</clipPath>
</defs>
</svg>
