<svg width="18" height="18" viewBox="0 0 18 18" fill="none" xmlns="http://www.w3.org/2000/svg">
<g clip-path="url(#clip0_2446_29352)">
<path d="M8.4693 2.26815C9.90288 2.17166 11.364 2.46113 12.646 3.109C14.5482 4.04634 16.0645 5.72805 16.7675 7.71301C17.0846 8.59522 17.25 9.51877 17.25 10.4561V13.916C17.25 14.0539 17.25 14.2055 17.2224 14.3433C17.1397 14.6879 16.8916 15.005 16.5608 15.1566C16.3264 15.2669 16.0645 15.2807 15.8302 15.2393C15.3064 15.1428 14.8929 14.6466 14.8929 14.109C14.8929 13.0338 14.8929 11.9586 14.8929 10.8834C14.9066 10.5802 14.9066 10.2494 14.7412 9.98745C14.4793 9.49121 13.8177 9.25687 13.3076 9.46363C12.8665 9.61526 12.5495 10.0702 12.5357 10.5388C12.5357 11.6278 12.5357 12.7168 12.5357 13.8057C12.5357 14.0125 12.5495 14.2193 12.4806 14.4123C12.3703 14.7982 12.0533 15.1015 11.6673 15.2118C11.1573 15.3496 10.5783 15.1291 10.3302 14.6604C10.151 14.3847 10.1648 14.0401 10.1786 13.723C10.1786 12.6341 10.1786 11.5589 10.1786 10.4699C10.1648 9.91852 9.7099 9.42228 9.17231 9.35336C8.81391 9.29822 8.44173 9.42228 8.17983 9.6704C7.94549 9.89095 7.82143 10.208 7.82143 10.525V13.6817C7.82143 13.9436 7.849 14.2193 7.75251 14.4674C7.60088 14.9223 7.14599 15.2531 6.66353 15.2393C6.16729 15.2669 5.68484 14.9223 5.53321 14.4674C5.4505 14.2331 5.46429 13.9987 5.46429 13.7506C5.46429 12.6616 5.46429 11.5727 5.46429 10.4837C5.46429 9.94609 5.03697 9.44985 4.51316 9.35336C4.0307 9.25687 3.50689 9.4912 3.25877 9.93231C3.16228 10.1115 3.10714 10.3183 3.10714 10.525V14.0676C3.10714 14.4123 2.95551 14.7569 2.69361 14.9774C2.29386 15.322 1.64599 15.3496 1.23246 15.0326C0.929198 14.8258 0.75 14.4674 0.75 14.0952V10.5113C0.75 9.16038 1.09461 7.8095 1.74248 6.61025C2.26629 5.63156 2.99687 4.76313 3.86529 4.07391C5.14724 2.99872 6.78759 2.36464 8.4693 2.26815Z" fill="#308D8A"/>
</g>
<defs>
<clipPath id="clip0_2446_29352">
<rect width="18" height="18" fill="white"/>
</clipPath>
</defs>
</svg>
