<svg width="82" height="12" viewBox="0 0 82 12" fill="none" xmlns="http://www.w3.org/2000/svg">
<path d="M3.57483 11.2502L0.690361 1.05263H2.51136L4.63829 8.70084L6.72152 1.05263H8.35314L10.4509 8.71541L12.5779 1.05263H14.3989L11.5144 11.2502H9.60599L7.53733 3.63117L5.48324 11.2502H3.57483ZM17.2872 11.4105C15.5099 11.4105 14.3444 10.551 14.359 9.10874C14.3736 7.30231 16.1655 6.92354 17.666 6.74873C18.8314 6.61761 19.6909 6.57391 19.7055 5.96205C19.6909 5.20451 19.1082 4.7092 18.1176 4.7092C17.0978 4.7092 16.3694 5.26279 16.2674 6.06403H14.5338C14.6941 4.43241 16.1509 3.2961 18.1467 3.2961C20.2299 3.2961 21.3808 4.43241 21.3808 6.0786V9.57492C21.3808 9.79344 21.4973 9.90999 21.7596 9.90999H22.182V11.2502H21.3662C20.5796 11.2502 20.0988 10.9297 19.9677 10.347C19.9386 10.2742 19.9094 10.1722 19.8949 10.0848C19.4433 10.9152 18.5983 11.4105 17.2872 11.4105ZM16.0926 8.9922C16.0926 9.66233 16.6316 10.0557 17.6368 10.0557C18.8168 10.0557 19.7055 9.38554 19.7055 8.35121V7.27317C19.4141 7.72478 18.6712 7.82676 17.8553 7.92873C16.8939 8.04528 16.0926 8.17639 16.0926 8.9922ZM26.2321 11.2502C24.5567 11.2502 23.6535 10.4199 23.6535 8.89022V4.98599H22.2987V3.52919H23.6535V0.89238H25.3725V3.52919H27.3684V4.98599H25.3725V8.77368C25.3725 9.42924 25.7076 9.79344 26.3486 9.79344H27.2227V11.2502H26.2321ZM31.7451 11.4542C29.2249 11.4542 27.7535 9.66233 27.7535 7.33145C27.7535 4.79661 29.4579 3.2961 31.7014 3.2961C33.8138 3.2961 35.2414 4.59266 35.3871 6.51564H33.6972C33.537 5.45217 32.7795 4.76747 31.6868 4.76747C30.3757 4.76747 29.5016 5.7581 29.5016 7.33145C29.5016 9.02134 30.4631 9.99739 31.7451 9.99739C32.794 9.99739 33.5224 9.32727 33.6972 8.2201H35.3871C35.1832 10.2159 33.7992 11.4542 31.7451 11.4542ZM36.4459 11.2502V0.324227H38.1649V4.35957C38.6894 3.71858 39.578 3.2961 40.5832 3.2961C42.2294 3.2961 43.3074 4.40327 43.3074 6.13687V11.2502H41.5884V6.22428C41.5884 5.36476 41.0203 4.79661 40.1025 4.79661C38.937 4.79661 38.1795 5.56872 38.1649 6.57391V11.2502H36.4459ZM47.8684 11.2502C46.193 11.2502 45.2898 10.4199 45.2898 8.89022V4.98599H43.935V3.52919H45.2898V0.89238H47.0088V3.52919H49.0047V4.98599H47.0088V8.77368C47.0088 9.42924 47.3439 9.79344 47.9849 9.79344H48.859V11.2502H47.8684ZM53.3523 11.4542C50.8466 11.4542 49.3898 9.70603 49.3898 7.31688C49.3898 4.79661 51.0942 3.2961 53.3523 3.2961C55.8434 3.2961 57.3002 5.04427 57.3002 7.31688C57.3002 9.92455 55.654 11.4542 53.3523 11.4542ZM51.138 7.31688C51.138 9.00677 52.0849 9.99739 53.3523 9.99739C54.7363 9.99739 55.5521 8.86109 55.5521 7.31688C55.5521 5.78724 54.6925 4.76747 53.3523 4.76747C52.012 4.76747 51.138 5.78724 51.138 7.31688ZM59.8121 11.2502L57.5249 3.52919H59.2876L60.8464 9.12331L62.376 3.52919H63.8037L65.3479 9.06504L66.8775 3.52919H68.6403L66.3531 11.2502H64.5758L63.0899 5.97662L61.6185 11.2502H59.8121ZM72.8368 11.4542C70.4767 11.4542 68.8597 9.77887 68.8597 7.41885C68.8597 4.86945 70.535 3.2961 72.6911 3.2961C74.8763 3.2961 76.3331 4.82575 76.3768 7.33145V7.73935H70.5787C70.6953 9.09418 71.5402 10.012 72.8513 10.012C73.74 10.012 74.4101 9.57492 74.6723 8.80282H76.3476C75.9543 10.4636 74.6578 11.4542 72.8368 11.4542ZM70.6516 6.53021H74.5995C74.381 5.42304 73.6963 4.75291 72.6911 4.75291C71.6713 4.75291 70.9138 5.42304 70.6516 6.53021ZM77.4092 11.2502V3.52919H78.7931L78.9971 5.04427C79.4924 3.99537 80.3956 3.44178 81.6776 3.44178H81.969V5.11711H81.6776C80.0751 5.11711 79.1282 5.97662 79.1282 7.43342V11.2502H77.4092Z" fill="white"/>
</svg>
