<svg width="116" height="16" viewBox="0 0 116 16" fill="none" xmlns="http://www.w3.org/2000/svg">
<path d="M4.26346 15.4529L0.182035 1.02365H2.75869L5.76823 11.8456L8.71592 1.02365H11.0246L13.9929 11.8662L17.0025 1.02365H19.5791L15.4977 15.4529H12.7973L9.87026 4.67219L6.9638 15.4529H4.26346ZM23.666 15.6797C21.1512 15.6797 19.5021 14.4635 19.5227 12.4228C19.5433 9.86673 22.0788 9.33079 24.2019 9.08343C25.851 8.89791 27.0672 8.83607 27.0878 7.97032C27.0672 6.89843 26.2426 6.19757 24.8409 6.19757C23.398 6.19757 22.3673 6.98088 22.2231 8.11461H19.7701C19.9968 5.80592 22.0581 4.19809 24.8822 4.19809C27.8299 4.19809 29.4583 5.80592 29.4583 8.13522V13.0824C29.4583 13.3916 29.6232 13.5565 29.9943 13.5565H30.592V15.4529H29.4377C28.3246 15.4529 27.6443 14.9994 27.4588 14.1749C27.4176 14.0718 27.3764 13.9275 27.3558 13.8039C26.7167 14.9788 25.5212 15.6797 23.666 15.6797ZM21.9757 12.2579C21.9757 13.2061 22.7384 13.7626 24.1607 13.7626C25.8304 13.7626 27.0878 12.8144 27.0878 11.3509V9.82551C26.6755 10.4645 25.6242 10.6088 24.4699 10.7531C23.1094 10.918 21.9757 11.1035 21.9757 12.2579ZM36.3227 15.4529C33.9521 15.4529 32.6741 14.278 32.6741 12.1136V6.58923H30.7571V4.5279H32.6741V0.796902H35.1065V4.5279H37.9305V6.58923H35.1065V11.9487C35.1065 12.8763 35.5806 13.3916 36.4876 13.3916H37.7244V15.4529H36.3227ZM44.1235 15.7415C40.5574 15.7415 38.4754 13.2061 38.4754 9.90796C38.4754 6.32125 40.8872 4.19809 44.0616 4.19809C47.0505 4.19809 49.0706 6.03267 49.2768 8.75362H46.8856C46.6589 7.24885 45.587 6.28003 44.041 6.28003C42.1858 6.28003 40.949 7.68173 40.949 9.90796C40.949 12.2991 42.3095 13.6802 44.1235 13.6802C45.6076 13.6802 46.6383 12.732 46.8856 11.1654H49.2768C48.9882 13.9894 47.0299 15.7415 44.1235 15.7415ZM50.7749 15.4529V-0.0070155H53.2073V5.70286C53.9494 4.79587 55.2068 4.19809 56.6291 4.19809C58.9584 4.19809 60.4838 5.7647 60.4838 8.21767V15.4529H58.0514V8.34135C58.0514 7.12517 57.2475 6.32125 55.9488 6.32125C54.2998 6.32125 53.2279 7.41376 53.2073 8.83607V15.4529H50.7749ZM66.9373 15.4529C64.5668 15.4529 63.2887 14.278 63.2887 12.1136V6.58923H61.3717V4.5279H63.2887V0.796902H65.7211V4.5279H68.5451V6.58923H65.7211V11.9487C65.7211 12.8763 66.1952 13.3916 67.1022 13.3916H68.339V15.4529H66.9373ZM74.6969 15.7415C71.1514 15.7415 69.0901 13.2679 69.0901 9.88735C69.0901 6.32125 71.5018 4.19809 74.6969 4.19809C78.2217 4.19809 80.2831 6.67168 80.2831 9.88735C80.2831 13.5771 77.9538 15.7415 74.6969 15.7415ZM71.5637 9.88735C71.5637 12.2785 72.9035 13.6802 74.6969 13.6802C76.6551 13.6802 77.8095 12.0724 77.8095 9.88735C77.8095 7.72296 76.5933 6.28003 74.6969 6.28003C72.8005 6.28003 71.5637 7.72296 71.5637 9.88735ZM83.8372 15.4529L80.6009 4.5279H83.0951L85.3008 12.4434L87.4651 4.5279H89.4852L91.6703 12.3609L93.8346 4.5279H96.3288L93.0926 15.4529H90.5777L88.4752 7.99093L86.3933 15.4529H83.8372ZM102.267 15.7415C98.9274 15.7415 96.6393 13.371 96.6393 10.0316C96.6393 6.42432 99.0098 4.19809 102.061 4.19809C105.153 4.19809 107.214 6.36248 107.276 9.90796V10.4851H99.0717C99.2366 12.4022 100.432 13.7008 102.287 13.7008C103.545 13.7008 104.493 13.0824 104.864 11.9899H107.235C106.678 14.3398 104.843 15.7415 102.267 15.7415ZM99.1747 8.77423H104.761C104.452 7.20762 103.483 6.25941 102.061 6.25941C100.618 6.25941 99.5458 7.20762 99.1747 8.77423ZM108.737 15.4529V4.5279H110.695L110.983 6.67168C111.684 5.18753 112.962 4.40422 114.776 4.40422H115.188V6.77475H114.776C112.509 6.77475 111.169 7.99093 111.169 10.0523V15.4529H108.737Z" fill="#151A1A"/>
</svg>
