<svg width="64" height="64" viewBox="0 0 64 64" fill="none" xmlns="http://www.w3.org/2000/svg">
<g clip-path="url(#clip0_5074_30078)">
<rect width="64" height="64" rx="32" fill="black"/>
<path d="M38.1499 35.9398L30.194 33.9398L28.582 40.344L36.5381 42.344C37.3979 42.56 38.2821 42.4278 39.0379 41.976C39.7941 41.5238 40.3301 40.8038 40.5461 39.9478C40.9899 38.184 39.9179 36.384 38.1499 35.944V35.9398Z" fill="url(#paint0_linear_5074_30078)"/>
<path d="M38.2562 29.7799C39.6364 30.1439 41.0643 29.2839 41.4163 27.8919C41.7644 26.4999 40.9164 25.0839 39.5244 24.7319L32.9283 23.0719L31.6562 28.1159L38.2524 29.7759L38.2562 29.7799Z" fill="url(#paint1_linear_5074_30078)"/>
<path d="M32 0C14.356 0 0 14.356 0 32C0 49.6438 14.356 64 32 64C49.6438 64 64 49.6438 64 32C64 14.356 49.6438 0 32 0ZM47.232 29.356C46.808 31.032 45.9002 32.448 44.712 33.544C46.36 35.72 47.0762 38.568 46.36 41.4118C45.752 43.8198 44.2438 45.848 42.112 47.1242C40.6518 48 39.016 48.448 37.3558 48.448C36.6598 48.448 35.9558 48.3478 35.2598 48.1878L34.6198 50.7318C34.2758 52.0918 33.0522 53 31.712 53C31.468 53 31.224 52.9718 30.976 52.912C29.368 52.504 28.392 50.8762 28.8 49.2682L29.436 46.7482L27.116 46.1642L26.48 48.6838C26.136 50.0438 24.912 50.952 23.572 50.952C23.328 50.952 23.084 50.9238 22.836 50.864C21.228 50.456 20.252 48.8282 20.66 47.2202L21.296 44.7002L18.776 44.064C17.168 43.656 16.192 42.0278 16.6 40.4198C17.008 38.816 18.636 37.848 20.244 38.2438L22.764 38.88L27.108 21.612L24.588 20.976C22.98 20.568 22.004 18.94 22.412 17.332C22.82 15.724 24.448 14.756 26.056 15.156L28.576 15.792L29.212 13.272C29.62 11.664 31.248 10.696 32.856 11.096C34.464 11.504 35.44 13.132 35.032 14.74L34.3958 17.26L36.72 17.844L37.3558 15.32C37.76 13.712 39.3958 12.74 40.9958 13.144C42.6038 13.548 43.5802 15.18 43.1722 16.784L42.496 19.464C46.176 21.164 48.256 25.292 47.2362 29.36L47.232 29.356Z" fill="url(#paint2_linear_5074_30078)"/>
</g>
<defs>
<linearGradient id="paint0_linear_5074_30078" x1="40.0027" y1="35.9997" x2="28.0026" y2="39.9997" gradientUnits="userSpaceOnUse">
<stop stop-color="#FEA3BE"/>
<stop offset="0.985034" stop-color="#FFB49B"/>
</linearGradient>
<linearGradient id="paint1_linear_5074_30078" x1="39.9999" y1="14.6663" x2="32" y2="27.9996" gradientUnits="userSpaceOnUse">
<stop stop-color="#B283FF"/>
<stop offset="0.604413" stop-color="#FD86FB"/>
</linearGradient>
<linearGradient id="paint2_linear_5074_30078" x1="42.6666" y1="-1.48342e-06" x2="14.6667" y2="58.6666" gradientUnits="userSpaceOnUse">
<stop stop-color="#B283FF"/>
<stop offset="0.360034" stop-color="#FD83FF"/>
<stop offset="0.777213" stop-color="#FFBF83"/>
<stop offset="1" stop-color="#FFEB83"/>
</linearGradient>
<clipPath id="clip0_5074_30078">
<rect width="64" height="64" rx="32" fill="white"/>
</clipPath>
</defs>
</svg>
