<svg width="102" height="48" viewBox="0 0 102 48" fill="none" xmlns="http://www.w3.org/2000/svg">
<path fill-rule="evenodd" clip-rule="evenodd" d="M46.9177 7.20463C46.9177 8.53267 45.8384 9.60926 44.507 9.60926C44.09 9.60926 43.6978 9.50364 43.3556 9.31775L24.4511 21.3395L31.0603 38.1876C32.3141 38.2728 33.3048 39.3143 33.3048 40.5867C33.3048 41.9147 32.2255 42.9913 30.8942 42.9913C29.6141 42.9913 28.5671 41.9961 28.4883 40.7391L11.7382 30.6198C11.4388 30.7527 11.1073 30.8267 10.7585 30.8267C9.42711 30.8267 8.34784 29.7501 8.34784 28.422C8.34784 27.094 9.42711 26.0174 10.7585 26.0174C11.2833 26.0174 11.7689 26.1847 12.1647 26.4687L21.6586 20.4314L19.075 13.8453C17.8332 13.7479 16.8559 12.7118 16.8559 11.4481C16.8559 10.1201 17.9352 9.04347 19.2665 9.04347C20.1006 9.04347 20.8358 9.46606 21.2686 10.1083L42.2466 6.36735C42.5874 5.45211 43.4709 4.79999 44.507 4.79999C45.8384 4.79999 46.9177 5.87658 46.9177 7.20463ZM21.1565 12.9408L23.6085 19.1914L39.3458 9.18371L21.4948 12.367C21.4087 12.5745 21.2944 12.7674 21.1565 12.9408ZM13.1364 28.8186L28.6175 38.1712L22.5012 22.5795L13.1673 28.5151C13.1634 28.6181 13.1529 28.7194 13.1364 28.8186Z" fill="#8CA4A6"/>
<path d="M42.2099 30.5438V28.5069L48.1088 21.3778H42.3233V19.2278H51.0582V21.2647L45.1593 28.3937H51.1717V30.5438H42.2099Z" fill="#8CA4A6"/>
<path fill-rule="evenodd" clip-rule="evenodd" d="M62.0464 29.1406C60.9876 30.2269 59.6339 30.7701 57.9852 30.7701C56.3365 30.7701 54.9752 30.2269 53.9013 29.1406C52.8426 28.0542 52.3132 26.636 52.3132 24.8858C52.3132 23.1356 52.8426 21.7173 53.9013 20.631C54.9752 19.5447 56.3365 19.0015 57.9852 19.0015C59.6339 19.0015 60.9876 19.5447 62.0464 20.631C63.1203 21.7173 63.6572 23.1356 63.6572 24.8858C63.6572 26.636 63.1203 28.0542 62.0464 29.1406ZM55.5349 27.6921C56.1853 28.3862 57.0021 28.7332 57.9852 28.7332C58.9684 28.7332 59.7776 28.3862 60.4128 27.6921C61.0632 26.983 61.3884 26.0476 61.3884 24.8858C61.3884 23.724 61.0632 22.7961 60.4128 22.1021C59.7776 21.3929 58.9684 21.0384 57.9852 21.0384C57.0021 21.0384 56.1853 21.3929 55.5349 22.1021C54.8996 22.7961 54.582 23.724 54.582 24.8858C54.582 26.0476 54.8996 26.983 55.5349 27.6921Z" fill="#8CA4A6"/>
<path fill-rule="evenodd" clip-rule="evenodd" d="M74.3224 30.5438L74.0956 29.1858H73.9821C73.1805 30.242 72.0082 30.7701 70.4654 30.7701C68.9529 30.7701 67.7051 30.2345 66.7219 29.1632C65.7388 28.092 65.2472 26.6662 65.2472 24.8858C65.2472 23.1054 65.7388 21.6796 66.7219 20.6084C67.7051 19.5371 68.9529 19.0015 70.4654 19.0015C71.131 19.0015 71.736 19.1222 72.2805 19.3636C72.8401 19.5899 73.2031 19.7861 73.3695 19.952C73.5359 20.1029 73.7401 20.3141 73.9821 20.5857H74.0956V14.7014H76.3644V30.5438H74.3224ZM68.4462 27.6695C69.0815 28.3786 69.868 28.7332 70.8058 28.7332C71.7435 28.7332 72.5225 28.3786 73.1426 27.6695C73.7779 26.9604 74.0956 26.0325 74.0956 24.8858C74.0956 23.7391 73.7779 22.8112 73.1426 22.1021C72.5225 21.3929 71.7435 21.0384 70.8058 21.0384C69.868 21.0384 69.0815 21.3929 68.4462 22.1021C67.8261 22.8112 67.516 23.7391 67.516 24.8858C67.516 26.0325 67.8261 26.9604 68.4462 27.6695Z" fill="#8CA4A6"/>
<path d="M79.1915 19.2278H81.4603V30.5438H79.1915V19.2278Z" fill="#8CA4A6"/>
<path d="M79.0781 17.0778V14.7014H81.5738V17.0778H79.0781Z" fill="#8CA4A6"/>
<path fill-rule="evenodd" clip-rule="evenodd" d="M91.5672 30.5438L91.3403 29.299H91.2269C91 29.5857 90.7277 29.8346 90.4101 30.0459C89.6841 30.5287 88.8219 30.7701 87.8236 30.7701C86.5834 30.7701 85.5926 30.4457 84.8515 29.7969C84.1103 29.1481 83.7398 28.3032 83.7398 27.2621C83.7398 26.1004 84.1255 25.1875 84.8969 24.5237C85.6834 23.8598 86.8481 23.5279 88.3908 23.5279H91.2269V23.3016C91.2269 22.5622 91.0151 21.9814 90.5916 21.5589C90.1681 21.1364 89.5857 20.9252 88.8446 20.9252C88.1186 20.9252 87.5589 21.0912 87.1657 21.4231C86.7724 21.74 86.538 22.1021 86.4623 22.5094H84.1935C84.254 21.5136 84.7002 20.6838 85.5321 20.0199C86.364 19.341 87.4682 19.0015 88.8446 19.0015C90.3118 19.0015 91.4537 19.3862 92.2705 20.1557C93.0873 20.9252 93.4957 21.9738 93.4957 23.3016V30.5438H91.5672ZM91.2269 25.7911V25.3384H88.5043C87.6724 25.3384 87.0447 25.5044 86.6212 25.8363C86.2128 26.1683 86.0086 26.6058 86.0086 27.149C86.0086 27.6771 86.1825 28.092 86.5304 28.3937C86.8783 28.6955 87.385 28.8464 88.0505 28.8464C89.0791 28.8464 89.8656 28.5823 90.4101 28.0542C90.9546 27.5111 91.2269 26.7567 91.2269 25.7911Z" fill="#8CA4A6"/>
<path d="M46.7815 39.7776H47.5529C47.3714 40.4475 47.0266 40.9786 46.5183 41.3708C46.0162 41.7571 45.4233 41.9502 44.7396 41.9502C43.8865 41.9502 43.1665 41.6454 42.5797 41.0359C41.9928 40.4263 41.6994 39.6448 41.6994 38.6912C41.6994 37.7377 41.9928 36.9561 42.5797 36.3466C43.1665 35.737 43.8865 35.4322 44.7396 35.4322C45.4172 35.4322 46.0101 35.6254 46.5183 36.0116C47.0266 36.3918 47.3714 36.9078 47.5529 37.5596H46.7815C46.6242 37.107 46.3641 36.7539 46.0011 36.5005C45.638 36.241 45.2176 36.1112 44.7396 36.1112C44.0922 36.1112 43.5447 36.3526 43.097 36.8354C42.6493 37.3122 42.4254 37.9308 42.4254 38.6912C42.4254 39.4517 42.6493 40.0733 43.097 40.5561C43.5447 41.0329 44.0922 41.2713 44.7396 41.2713C45.2176 41.2713 45.638 41.1415 46.0011 40.882C46.3641 40.6165 46.6242 40.2483 46.7815 39.7776Z" fill="#8CA4A6"/>
<path d="M50.189 39.3702V35.5228H50.915V39.3702C50.915 39.9315 51.0814 40.3901 51.4142 40.7462C51.753 41.0962 52.1765 41.2713 52.6847 41.2713C53.1869 41.2713 53.6073 41.0932 53.9462 40.7372C54.285 40.3811 54.4544 39.9254 54.4544 39.3702V35.5228H55.1804V39.3702C55.1804 40.1367 54.9444 40.7583 54.4725 41.2351C54.0006 41.7118 53.4047 41.9502 52.6847 41.9502C51.9647 41.9502 51.3688 41.7118 50.8969 41.2351C50.425 40.7583 50.189 40.1367 50.189 39.3702Z" fill="#8CA4A6"/>
<path d="M57.9069 40.0039H58.6329C58.6329 40.36 58.7811 40.6617 59.0776 40.9092C59.3801 41.1506 59.7915 41.2713 60.3118 41.2713C60.8442 41.2713 61.2405 41.1687 61.5007 40.9635C61.7669 40.7522 61.9 40.4776 61.9 40.1397C61.9 39.5844 61.537 39.2374 60.8109 39.0986L59.5858 38.8723C58.5573 38.6792 58.043 38.136 58.043 37.2428C58.043 36.7117 58.2396 36.2772 58.6329 35.9392C59.0261 35.6012 59.5555 35.4322 60.2211 35.4322C60.9289 35.4322 61.4976 35.6193 61.9272 35.9935C62.3628 36.3617 62.5806 36.8233 62.5806 37.3786H61.8546C61.8546 37.0225 61.7064 36.7238 61.4099 36.4824C61.1195 36.2349 60.7232 36.1112 60.2211 36.1112C59.7612 36.1112 59.4043 36.2168 59.1502 36.428C58.8961 36.6393 58.769 36.9109 58.769 37.2428C58.769 37.7739 59.1169 38.1058 59.8127 38.2386L60.8109 38.4197C61.4402 38.5343 61.9 38.7305 62.1904 39.0081C62.4808 39.2857 62.626 39.6629 62.626 40.1397C62.626 40.6768 62.4233 41.1144 62.018 41.4523C61.6126 41.7843 61.0439 41.9502 60.3118 41.9502C59.5858 41.9502 59.0019 41.7631 58.5603 41.389C58.1247 41.0087 57.9069 40.547 57.9069 40.0039Z" fill="#8CA4A6"/>
<path d="M66.8977 41.8597V36.2017H64.8104V35.5228H69.7111V36.2017H67.6238V41.8597H66.8977Z" fill="#8CA4A6"/>
<path fill-rule="evenodd" clip-rule="evenodd" d="M77.0921 41.0359C76.5052 41.6454 75.7852 41.9502 74.9322 41.9502C74.0791 41.9502 73.3591 41.6454 72.7723 41.0359C72.1854 40.4263 71.892 39.6448 71.892 38.6912C71.892 37.7377 72.1854 36.9561 72.7723 36.3466C73.3591 35.737 74.0791 35.4322 74.9322 35.4322C75.7852 35.4322 76.5052 35.737 77.0921 36.3466C77.6789 36.9561 77.9724 37.7377 77.9724 38.6912C77.9724 39.6448 77.6789 40.4263 77.0921 41.0359ZM73.2896 40.5561C73.7373 41.0329 74.2848 41.2713 74.9322 41.2713C75.5795 41.2713 76.1271 41.0329 76.5748 40.5561C77.0225 40.0733 77.2464 39.4517 77.2464 38.6912C77.2464 37.9308 77.0225 37.3122 76.5748 36.8354C76.1271 36.3526 75.5795 36.1112 74.9322 36.1112C74.2848 36.1112 73.7373 36.3526 73.2896 36.8354C72.8418 37.3122 72.618 37.9308 72.618 38.6912C72.618 39.4517 72.8418 40.0733 73.2896 40.5561Z" fill="#8CA4A6"/>
<path fill-rule="evenodd" clip-rule="evenodd" d="M80.8268 35.5228H82.9595C83.8428 35.5228 84.5689 35.8215 85.1376 36.419C85.7123 37.0104 85.9997 37.7679 85.9997 38.6912C85.9997 39.6146 85.7123 40.375 85.1376 40.9725C84.5689 41.564 83.8428 41.8597 82.9595 41.8597H80.8268V35.5228ZM81.5528 41.1807H82.9595C83.625 41.1807 84.1756 40.9514 84.6112 40.4927C85.0529 40.028 85.2737 39.4275 85.2737 38.6912C85.2737 37.9549 85.0529 37.3575 84.6112 36.8988C84.1756 36.4341 83.625 36.2017 82.9595 36.2017H81.5528V41.1807Z" fill="#8CA4A6"/>
<path d="M90.2711 41.8597V39.4607L87.9569 35.5228H88.7283L90.5434 38.646H90.7249L92.5399 35.5228H93.3113L90.9971 39.4607V41.8597H90.2711Z" fill="#8CA4A6"/>
</svg>
