<svg width="171" height="81" viewBox="0 0 171 81" fill="none" xmlns="http://www.w3.org/2000/svg">
<path fill-rule="evenodd" clip-rule="evenodd" d="M78.8252 12.137C78.8252 14.3627 77.0164 16.167 74.7851 16.167C74.0862 16.167 73.4288 15.99 72.8554 15.6785L41.1723 35.8263L52.2489 64.063C54.3504 64.2057 56.0106 65.9512 56.0106 68.0836C56.0106 70.3094 54.2018 72.1137 51.9706 72.1137C49.8253 72.1137 48.0706 70.4458 47.9385 68.3391L19.866 51.3796C19.3643 51.6025 18.8087 51.7264 18.2241 51.7264C15.9928 51.7264 14.184 49.922 14.184 47.6963C14.184 45.4706 15.9928 43.6662 18.2241 43.6662C19.1036 43.6662 19.9176 43.9466 20.5809 44.4227L36.4921 34.3044L32.1622 23.2664C30.081 23.1032 28.4431 21.3668 28.4431 19.2489C28.4431 17.0231 30.2519 15.2188 32.4832 15.2188C33.8811 15.2188 35.1132 15.927 35.8385 17.0034L70.9967 10.7338C71.5679 9.19985 73.0485 8.10693 74.7851 8.10693C77.0164 8.10693 78.8252 9.91125 78.8252 12.137ZM35.6508 21.7506L39.7601 32.2262L66.1351 15.4538L36.2177 20.7889C36.0735 21.1367 35.8818 21.4599 35.6508 21.7506ZM22.2095 48.361L48.155 64.0355L37.9044 37.9045L22.2612 47.8523C22.2546 48.0249 22.2371 48.1946 22.2095 48.361Z" fill="white"/>
<path d="M70.9351 51.2522V47.8385L80.8214 35.8906H71.1253V32.2873H85.7646V35.701L75.8783 47.6489H85.9547V51.2522H70.9351Z" fill="white"/>
<path fill-rule="evenodd" clip-rule="evenodd" d="M104.18 48.9006C102.406 50.7212 100.137 51.6315 97.3738 51.6315C94.6107 51.6315 92.3293 50.7212 90.5295 48.9006C88.755 47.0799 87.8678 44.703 87.8678 41.7698C87.8678 38.8365 88.755 36.4596 90.5295 34.6389C92.3293 32.8183 94.6107 31.908 97.3738 31.908C100.137 31.908 102.406 32.8183 104.18 34.6389C105.98 36.4596 106.88 38.8365 106.88 41.7698C106.88 44.703 105.98 47.0799 104.18 48.9006ZM93.2672 46.4731C94.3573 47.6362 95.7261 48.2178 97.3738 48.2178C99.0216 48.2178 100.378 47.6362 101.442 46.4731C102.532 45.2846 103.077 43.7168 103.077 41.7698C103.077 39.8227 102.532 38.2676 101.442 37.1044C100.378 35.9159 99.0216 35.3217 97.3738 35.3217C95.7261 35.3217 94.3573 35.9159 93.2672 37.1044C92.2026 38.2676 91.6702 39.8227 91.6702 41.7698C91.6702 43.7168 92.2026 45.2846 93.2672 46.4731Z" fill="white"/>
<path fill-rule="evenodd" clip-rule="evenodd" d="M124.754 51.2522L124.374 48.9764H124.184C122.84 50.7465 120.876 51.6315 118.29 51.6315C115.755 51.6315 113.664 50.7339 112.016 48.9385C110.368 47.1432 109.545 44.7536 109.545 41.7698C109.545 38.7859 110.368 36.3963 112.016 34.601C113.664 32.8056 115.755 31.908 118.29 31.908C119.405 31.908 120.419 32.1103 121.332 32.5148C122.27 32.8941 122.878 33.2229 123.157 33.501C123.436 33.7539 123.778 34.1079 124.184 34.5631H124.374V24.7013H128.176V51.2522H124.754ZM114.906 46.4351C115.971 47.6236 117.289 48.2178 118.86 48.2178C120.432 48.2178 121.738 47.6236 122.777 46.4351C123.842 45.2467 124.374 43.6915 124.374 41.7698C124.374 39.848 123.842 38.2928 122.777 37.1044C121.738 35.9159 120.432 35.3217 118.86 35.3217C117.289 35.3217 115.971 35.9159 114.906 37.1044C113.867 38.2928 113.347 39.848 113.347 41.7698C113.347 43.6915 113.867 45.2467 114.906 46.4351Z" fill="white"/>
<path d="M132.915 32.2873H136.717V51.2522H132.915V32.2873Z" fill="white"/>
<path d="M132.724 28.6839V24.7013H136.907V28.6839H132.724Z" fill="white"/>
<path fill-rule="evenodd" clip-rule="evenodd" d="M153.656 51.2522L153.275 49.1661H153.085C152.705 49.6465 152.249 50.0638 151.716 50.4178C150.5 51.2269 149.055 51.6315 147.382 51.6315C145.303 51.6315 143.643 51.0879 142.4 50.0005C141.158 48.9132 140.537 47.4972 140.537 45.7524C140.537 43.8053 141.184 42.2755 142.476 41.1629C143.795 40.0503 145.747 39.494 148.332 39.494H153.085V39.1147C153.085 37.8756 152.73 36.9021 152.021 36.194C151.311 35.486 150.335 35.132 149.093 35.132C147.876 35.132 146.938 35.4102 146.279 35.9665C145.62 36.4975 145.227 37.1044 145.1 37.7871H141.298C141.399 36.1182 142.147 34.7274 143.541 33.6148C144.935 32.4769 146.786 31.908 149.093 31.908C151.552 31.908 153.465 32.5528 154.834 33.8424C156.203 35.132 156.888 36.8894 156.888 39.1147V51.2522H153.656ZM153.085 43.2869V42.5284H148.522C147.128 42.5284 146.076 42.8065 145.366 43.3628C144.682 43.9191 144.34 44.6524 144.34 45.5627C144.34 46.4478 144.631 47.1432 145.214 47.6489C145.797 48.1546 146.646 48.4075 147.762 48.4075C149.486 48.4075 150.804 47.965 151.716 47.0799C152.629 46.1696 153.085 44.9053 153.085 43.2869Z" fill="white"/>
<path d="M78.597 66.7276H79.8898C79.5856 67.8504 79.0077 68.7405 78.1559 69.3979C77.3143 70.0453 76.3206 70.3689 75.1748 70.3689C73.7451 70.3689 72.5385 69.8581 71.5549 68.8366C70.5714 67.815 70.0796 66.5051 70.0796 64.907C70.0796 63.3089 70.5714 61.9991 71.5549 60.9775C72.5385 59.9559 73.7451 59.4451 75.1748 59.4451C76.3105 59.4451 77.3042 59.7688 78.1559 60.4161C79.0077 61.0533 79.5856 61.9181 79.8898 63.0105H78.597C78.3334 62.2519 77.8974 61.6602 77.289 61.2354C76.6806 60.8005 75.9759 60.583 75.1748 60.583C74.0899 60.583 73.1722 60.9876 72.4219 61.7968C71.6715 62.5958 71.2964 63.6326 71.2964 64.907C71.2964 66.1815 71.6715 67.2233 72.4219 68.0324C73.1722 68.8315 74.0899 69.231 75.1748 69.231C75.9759 69.231 76.6806 69.0136 77.289 68.5786C77.8974 68.1336 78.3334 67.5166 78.597 66.7276Z" fill="white"/>
<path d="M84.3078 66.0449V59.5968H85.5246V66.0449C85.5246 66.9856 85.8034 67.7543 86.3611 68.3511C86.9289 68.9377 87.6387 69.231 88.4904 69.231C89.332 69.231 90.0368 68.9326 90.6046 68.3359C91.1724 67.7391 91.4563 66.9755 91.4563 66.0449V59.5968H92.6731V66.0449C92.6731 67.3295 92.2776 68.3713 91.4867 69.1703C90.6958 69.9694 89.6971 70.3689 88.4904 70.3689C87.2838 70.3689 86.285 69.9694 85.4941 69.1703C84.7032 68.3713 84.3078 67.3295 84.3078 66.0449Z" fill="white"/>
<path d="M97.2425 67.1069H98.4593C98.4593 67.7037 98.7077 68.2094 99.2046 68.6241C99.7116 69.0287 100.401 69.231 101.273 69.231C102.165 69.231 102.83 69.0591 103.266 68.7152C103.712 68.3612 103.935 67.901 103.935 67.3345C103.935 66.404 103.326 65.8224 102.11 65.5897L100.056 65.2105C98.3326 64.8868 97.4707 63.9765 97.4707 62.4795C97.4707 61.5894 97.8002 60.8611 98.4593 60.2947C99.1184 59.7283 100.006 59.4451 101.121 59.4451C102.307 59.4451 103.26 59.7587 103.98 60.3858C104.71 61.0028 105.076 61.7765 105.076 62.7071H103.859C103.859 62.1103 103.61 61.6096 103.113 61.205C102.627 60.7903 101.963 60.583 101.121 60.583C100.35 60.583 99.7521 60.76 99.3263 61.114C98.9004 61.468 98.6875 61.9232 98.6875 62.4795C98.6875 63.3696 99.2705 63.9259 100.437 64.1484L102.11 64.4519C103.164 64.644 103.935 64.9728 104.422 65.438C104.908 65.9033 105.152 66.5355 105.152 67.3345C105.152 68.2347 104.812 68.968 104.133 69.5345C103.453 70.0908 102.5 70.3689 101.273 70.3689C100.056 70.3689 99.0778 70.0554 98.3376 69.4283C97.6076 68.791 97.2425 68.0173 97.2425 67.1069Z" fill="white"/>
<path d="M112.311 70.2172V60.7347H108.813V59.5968H117.026V60.7347H113.528V70.2172H112.311Z" fill="white"/>
<path fill-rule="evenodd" clip-rule="evenodd" d="M129.396 68.8366C128.412 69.8581 127.206 70.3689 125.776 70.3689C124.346 70.3689 123.14 69.8581 122.156 68.8366C121.173 67.815 120.681 66.5051 120.681 64.907C120.681 63.3089 121.173 61.9991 122.156 60.9775C123.14 59.9559 124.346 59.4451 125.776 59.4451C127.206 59.4451 128.412 59.9559 129.396 60.9775C130.38 61.9991 130.871 63.3089 130.871 64.907C130.871 66.5051 130.38 67.815 129.396 68.8366ZM123.023 68.0324C123.774 68.8315 124.691 69.231 125.776 69.231C126.861 69.231 127.779 68.8315 128.529 68.0324C129.279 67.2233 129.655 66.1815 129.655 64.907C129.655 63.6326 129.279 62.5958 128.529 61.7968C127.779 60.9876 126.861 60.583 125.776 60.583C124.691 60.583 123.774 60.9876 123.023 61.7968C122.273 62.5958 121.898 63.6326 121.898 64.907C121.898 66.1815 122.273 67.2233 123.023 68.0324Z" fill="white"/>
<path fill-rule="evenodd" clip-rule="evenodd" d="M135.655 59.5968H139.23C140.71 59.5968 141.927 60.0975 142.88 61.0988C143.843 62.0901 144.325 63.3595 144.325 64.907C144.325 66.4546 143.843 67.729 142.88 68.7304C141.927 69.7216 140.71 70.2172 139.23 70.2172H135.655V59.5968ZM136.872 69.0793H139.23C140.345 69.0793 141.268 68.6949 141.998 67.9262C142.738 67.1474 143.108 66.141 143.108 64.907C143.108 63.673 142.738 62.6717 141.998 61.903C141.268 61.1241 140.345 60.7347 139.23 60.7347H136.872V69.0793Z" fill="white"/>
<path d="M151.483 70.2172V66.1966L147.605 59.5968H148.898L151.94 64.8312H152.244L155.286 59.5968H156.579L152.7 66.1966V70.2172H151.483Z" fill="white"/>
</svg>
